<?xml version="1.0" encoding="UTF-8"?><svg xmlns="http://www.w3.org/2000/svg" viewBox="0 0 128 128"><defs><style>.cls-1{fill:#eaa1c7;}.cls-2{fill:#ffec00;}.cls-3{fill:#662482;}</style></defs><g id="cuadrobase"><g><rect class="cls-1" x="2" y="2" width="124" height="124" rx="22" ry="22"/><path class="cls-3" d="M104,4c11.03,0,20,8.97,20,20V104c0,11.03-8.97,20-20,20H24c-11.03,0-20-8.97-20-20V24C4,12.97,12.97,4,24,4H104m0-4H24C10.75,0,0,10.75,0,24V104c0,13.25,10.75,24,24,24H104c13.25,0,24-10.75,24-24V24c0-13.25-10.75-24-24-24h0Z"/></g></g><g id="figura"><g><polygon class="cls-2" points="57.98 19.13 57.98 19.13 57.98 19.13 57.98 19.13"/><path class="cls-2" d="M104.26,61.56c1.86,1.7,4.69,1.85,6.35,.33l7.42-6.79c.62-.58,.99-1.3,1.11-2.07,.2-1.28-.3-2.69-1.47-3.75-1.68-1.55-4.11-1.75-5.8-.64-5.08-5.23-2.41-6.02-9.12-12.83l-12.57-11.77c-.31-.28-.62-.55-.94-.8-.08-.07-.17-.13-.25-.2-.23-.19-.46-.37-.7-.55-.11-.08-.22-.16-.32-.24-.21-.16-.43-.31-.64-.46-.12-.08-.23-.16-.35-.24-.21-.14-.43-.28-.64-.41-.12-.07-.24-.15-.36-.22-.22-.13-.44-.26-.66-.38-.11-.06-.23-.13-.34-.19-.24-.13-.49-.25-.73-.38-.1-.05-.19-.1-.29-.14-.34-.16-.68-.32-1.02-.46-.08-.03-.16-.06-.24-.1-.26-.11-.52-.22-.79-.31-.16-.06-.33-.12-.49-.18-.18-.06-.36-.13-.54-.19-.19-.06-.39-.13-.59-.19-.15-.04-.29-.09-.44-.13-.22-.06-.44-.13-.67-.18-.11-.03-.22-.06-.33-.09-.26-.06-.51-.13-.77-.18-.05-.01-.11-.02-.16-.03-1.76-.38-3.55-.6-5.38-.67l.02,.02c-4.76-.18-9.7,.61-14.57,1.99h0s0,0,0,0l.69,.13c6.92-2.11,21.25,4.74,22.58,12.18,.16,.89,.13,1.78-.12,2.67-.1,.32-.22,.65-.38,.99-.76,1.03-.84,2.66-.3,4.06,.17,.44,.4,.85,.7,1.22l-17.8,16.32-13.53-11.74,2.46-10,1.22-4.8-.03-.02v-.02s-3.13-1.85-3.13-1.85l-16.98-10.15-3.82,3.53c-.89,.82-1.98,1.82-1.98,1.82l11.81,10.82-2.28,7.34-8,2.09-11.81-10.83-5.34,4.9,13.57,17.93,16-2.79,9.94,9.71L15.79,94.02c-.91,.8-1.38,1.56-1.56,2.28-.5,1.94,1.12,3.54,2.19,4.54,.02,.02,.05,.05,.07,.07h0s6.71,6.16,6.71,6.16c1.47,1.34,5.22,3.25,7.97,.59l.12-.11s0,0,.01-.01l33.24-32.13,33.13,32.35c8.6,7.95,20.2-3.97,12.16-10.75l-34.01-29.5s0-.06,0-.08l-3.9-3.31-.28-.24,17.64-16.17h0c2.4,1.98,4.66,2.15,6.81,1.61,4.15-1.03,6.45,2.67,8.94,5.4l-1.12,1.01c-.73,.67-1.1,1.55-1.14,2.46-.05,1.17,.45,2.41,1.5,3.37Zm-2.83,38.76c1.53-1.4,4.01-1.4,5.54,0,1.53,1.4,1.53,3.68,0,5.08-1.53,1.4-4.01,1.4-5.54,0-1.53-1.4-1.53-3.68,0-5.08Z"/><polygon class="cls-2" points="16.49 100.91 16.49 100.91 16.49 100.91 16.49 100.91"/></g></g></svg>