<?xml version="1.0" encoding="UTF-8"?><svg xmlns="http://www.w3.org/2000/svg" viewBox="0 0 128 128"><defs><style>.cls-1{fill:#35a8e0;}.cls-2{fill:#93c01f;}.cls-3{fill:#2d2e82;}</style></defs><g id="cuadrobase"><g><rect class="cls-2" x="2" y="2" width="124" height="124" rx="22" ry="22"/><path class="cls-1" d="M104,4c11.03,0,20,8.97,20,20V104c0,11.03-8.97,20-20,20H24c-11.03,0-20-8.97-20-20V24C4,12.97,12.97,4,24,4H104m0-4H24C10.75,0,0,10.75,0,24V104c0,13.25,10.75,24,24,24H104c13.25,0,24-10.75,24-24V24c0-13.25-10.75-24-24-24h0Z"/></g></g><g id="figura"><path class="cls-3" d="M64,11.6c-22.34,0-40.46,18.11-40.46,40.46s29.92,63.2,40.46,63.2,40.46-40.86,40.46-63.2S86.34,11.6,64,11.6Zm4.81,61.78c-.76,.82-1.82,1.29-2.94,1.29h-4.53c-1.23,0-2.4-.57-3.15-1.54-2.03-2.61-8.48-9.98-13.79-12.75-6.32-3.3-15.56-3.56-15.65-3.56l.18-8c.45,0,11.17,.29,19.18,4.47,2.98,1.55,5.97,3.98,8.57,6.42-2.05-2.71-4.45-5.65-6.75-7.94-5.66-5.63-11.59-8.73-11.65-8.76-.98-.51-1.37-1.71-.86-2.69,.51-.98,1.71-1.37,2.69-.86,.26,.14,6.52,3.39,12.64,9.48,1.34,1.33,2.68,2.84,3.98,4.4l-8.6-22.72c-.39-1.03,.13-2.19,1.16-2.58,1.03-.39,2.19,.13,2.58,1.16l9.65,25.49-.58-26.45c-.02-1.1,.85-2.02,1.96-2.04,1.08-.04,2.02,.85,2.04,1.96l.6,27.1,9-25.67c.37-1.04,1.51-1.59,2.55-1.23,1.04,.37,1.59,1.51,1.23,2.55l-8.25,23.55c1.31-1.6,2.71-3.21,4.13-4.7,6.21-6.51,13.27-10.73,13.57-10.91,.95-.56,2.18-.25,2.74,.7,.56,.95,.25,2.18-.7,2.74-.07,.04-6.89,4.13-12.72,10.23-2.49,2.61-4.94,5.65-6.94,8.31,3.37-3.08,7.36-6.32,10.73-7.94,7.2-3.46,17.67-4.03,18.12-4.05l.4,7.99c-.09,0-9.32,.51-15.05,3.27-4.81,2.31-12.83,10.38-15.51,13.3Z"/></g></svg>