<?xml version="1.0" encoding="UTF-8"?><svg xmlns="http://www.w3.org/2000/svg" viewBox="0 0 128 128"><defs><style>.cls-1{fill:#f29100;}.cls-2{fill:#fff;}.cls-3{fill:#662482;}</style></defs><g id="cuadrobase"><g><rect class="cls-3" x="2" y="2" width="124" height="124" rx="22" ry="22"/><path class="cls-1" d="M104,4c11.03,0,20,8.97,20,20V104c0,11.03-8.97,20-20,20H24c-11.03,0-20-8.97-20-20V24C4,12.97,12.97,4,24,4H104m0-4H24C10.75,0,0,10.75,0,24V104c0,13.25,10.75,24,24,24H104c13.25,0,24-10.75,24-24V24c0-13.25-10.75-24-24-24h0Z"/></g></g><g id="figura"><g><path class="cls-2" d="M16.12,41.53h2.3l4.58,18.02c-3.4,3.7-5.44,8.17-5.44,13.44l.6,2.86c2.56-3.68,6.98-7.07,13.04-9.93,8.92-4.2,20.5-6.71,30.98-6.71h3.64c10.48,0,22.06,2.51,30.98,6.71,6.06,2.86,10.48,6.25,13.04,9.93l.6-2.86c0-4.87-1.74-9.05-4.68-12.58l4.52-18.88h2.34c2.06,0,3.73-1.67,3.73-3.73v-9.15c0-2.06-1.67-3.73-3.73-3.73h-6.93c-2.06,0-3.73,1.67-3.73,3.73v9.15c0,2.06,1.67,3.73,3.73,3.73h1.5l-3.9,16.31c-5.71-5.17-14.25-8.59-23.37-10.31l2.14-14.27h2.28c2.06,0,3.73-1.67,3.73-3.73v-9.15c0-2.06-1.67-3.73-3.73-3.73h-6.93c-2.06,0-3.73,1.67-3.73,3.73v9.15c0,2.06,1.67,3.73,3.73,3.73h1.61l-2.06,13.78c-3.7-.54-7.46-.82-11.13-.82h-3.64c-2.86,0-5.78,.17-8.69,.5l-1.85-13.46h2.06c2.06,0,3.73-1.67,3.73-3.73v-9.15c0-2.06-1.67-3.73-3.73-3.73h-6.93c-2.06,0-3.73,1.67-3.73,3.73v9.15c0,2.06,1.67,3.73,3.73,3.73h1.84l1.91,13.85c-9.61,1.48-18.8,4.82-25.02,10.06l-3.97-15.64h1.53c2.06,0,3.73-1.67,3.73-3.73v-9.15c0-2.06-1.67-3.73-3.73-3.73h-6.93c-2.06,0-3.73,1.67-3.73,3.73v9.15c0,2.06,1.67,3.73,3.73,3.73Z"/><path class="cls-2" d="M102.1,103.88l5.96-19.48,.33-1.6c-.91-9.81-21.93-19.59-42.57-19.59h-3.64c-20.65,0-41.66,9.78-42.57,19.59l.33,1.6,5.96,19.48H3.98v.1c0,11.13,9.02,20.15,20.15,20.15H103.88c11.13,0,20.15-9.02,20.15-20.15v-.1h-21.92Zm-57.14-13.06c0-7.39,9.74-11.06,18.29-11.06h1.49c8.55,0,18.29,3.67,18.29,11.06l-2.72,13.06H47.68l-2.72-13.06Z"/></g></g></svg>