<svg xmlns="http://www.w3.org/2000/svg" id="iconoAGUA" viewBox="0 0 128 128"><defs><style>.cls-1{fill:#dadada}.cls-2{fill:#1d71b8}.cls-3{fill:#36a9e1}</style></defs><g><rect width="124" height="124" x="2" y="2" class="cls-1" rx="22" ry="22"/><path d="M104,4c11.03,0,20,8.97,20,20V104c0,11.03-8.97,20-20,20H24c-11.03,0-20-8.97-20-20V24C4,12.97,12.97,4,24,4H104M104,0H24C10.75,0,0,10.75,0,24V104C0,117.25,10.75,128,24,128H104c13.25,0,24-10.75,24-24V24C128,10.75,117.25,0,104,0h0Z" class="cls-3"/></g><g><path d="M38.48,89.09c-5.15,0-9.32,4.35-9.32,9.71s4.18,9.71,9.32,9.71,9.33-4.35,9.33-9.71-4.18-9.71-9.33-9.71Z" class="cls-2"/><path d="M90.8,88.87c-5.27,0-9.53,4.44-9.53,9.93s4.27,9.92,9.53,9.92,9.53-4.44,9.53-9.92-4.27-9.93-9.53-9.93Z" class="cls-2"/><path d="M104.44,54.51h-40.43c-4.68,0-8.5,4.23-8.75,9.55l-.08-.32c0-5.1-3.59-9.23-8.01-9.23h-13.08c0-.17,.01-.33,.01-.5,0-6.67-2.49-12.07-5.56-12.07s-5.56,5.41-5.56,12.07c0,.17,0,.33,.01,.5h-.6c-3.49,0-6.51,2.6-7.59,6.31,.36-.44,.82-.72,1.33-.72h30.49c1.11,0,2,1.22,2,2.72v5.22c0,1.5-.89,2.72-2,2.72H14.59c-.49,0-.92-.24-1.26-.62l-1.86,12.81c-1.1,7.55,3.96,14.42,10.6,14.42h2.2c0-.07,0-.13,0-.2,0-9.2,6.47-16.65,14.45-16.65s14.45,7.45,14.45,16.65c0,.07,0,.13,0,.2h.15c2.57,0,4.86-1.4,6.32-3.57,2.23,2.22,5.13,3.57,8.31,3.57h8.29c0-.12-.01-.23-.01-.34,0-9.12,6.42-16.51,14.33-16.51s14.33,7.39,14.33,16.51c0,.12-.01,.23-.01,.34h12.02c.15,0,.27-.14,.27-.31v-27.9c0-8.09-5.69-14.65-12.72-14.65Zm4.17,18.01c0,.72-1.12,1.3-2.5,1.3h-40.03c-1.77,0-2.98-.92-2.32-1.78l1.92-2.49c.38-.49,1.3-.82,2.32-.82h38.11c1.38,0,2.5,.58,2.5,1.3v2.49Zm0-9.78c0,.72-1.12,1.3-2.5,1.3h-40.03c-1.77,0-2.98-.92-2.32-1.78l1.92-2.49c.38-.49,1.3-.82,2.32-.82h38.11c1.38,0,2.5,.58,2.5,1.3v2.49Z" class="cls-2"/><path d="M118.83,44.55L19.75,19.37c-1.66-.42-3.34,.64-3.74,2.37-.41,1.73,.61,3.47,2.27,3.9l99.07,25.18c1.66,.42,3.34-.64,3.74-2.37,.41-1.73-.61-3.47-2.27-3.9Z" class="cls-2"/><rect width="11.43" height="14.18" x="92.65" y="43.55" class="cls-2" rx="5.72" ry="5.72"/></g></svg>