<?xml version="1.0" encoding="UTF-8"?><svg xmlns="http://www.w3.org/2000/svg" viewBox="0 0 128 128"><defs><style>.cls-1{fill:#fcea0d;}.cls-2{fill:#b1b1b1;}.cls-3{fill:#39a935;}</style></defs><g id="cuadrobase"><g><rect class="cls-1" x="2" y="2" width="124" height="124" rx="22" ry="22"/><path class="cls-2" d="M104,4c11.03,0,20,8.97,20,20V104c0,11.03-8.97,20-20,20H24c-11.03,0-20-8.97-20-20V24C4,12.97,12.97,4,24,4H104m0-4H24C10.75,0,0,10.75,0,24V104C0,117.25,10.75,128,24,128H104c13.25,0,24-10.75,24-24V24c0-13.25-10.75-24-24-24h0Z"/></g></g><g id="figura"><g><path class="cls-3" d="M64,9.7c-26.45,0-47.89,19.53-47.89,39.63,0,15.95,30.15,48.62,42.61,62.77,2.87,3.26,7.69,3.26,10.57,0,12.46-14.15,42.61-46.81,42.61-62.77,0-20.11-21.44-39.63-47.89-39.63Zm0,66.91c-16.96,0-30.7-13.75-30.7-30.7s13.75-30.7,30.7-30.7,30.7,13.75,30.7,30.7-13.75,30.7-30.7,30.7Z"/><path class="cls-3" d="M63.41,30.2c2.82,0,5.03-2.2,5.03-4.89,0-2.82-2.2-4.89-4.96-4.89s-5.03,2.07-5.03,4.89,2.34,4.89,4.96,4.89Z"/><path class="cls-3" d="M68.37,60.05v-23.49c-3.79,1.1-8.13,2-12.47,2.48v2.27c3.24,.41,3.58,.69,3.58,5.3v13.43c0,4.89-.41,5.17-4.13,5.65v2.34h17.29v-2.34c-4-.48-4.27-.96-4.27-5.65Z"/></g></g></svg>