<svg width="129" height="129" xmlns="http://www.w3.org/2000/svg" xmlns:xlink="http://www.w3.org/1999/xlink" xml:space="preserve" overflow="hidden"><defs><clipPath id="clip0"><rect x="1044" y="0" width="129" height="129"/></clipPath></defs><g clip-path="url(#clip0)" transform="translate(-1044 0)"><path d="M1107.29 108.978 1126.51 89.7625 1153.78 111.934C1154.32 112.472 1155.26 112.338 1155.8 111.8 1156.34 111.263 1156.34 110.456 1155.93 109.784L1133.76 82.6406 1152.98 63.425C1154.46 61.9469 1154.86 59.7969 1154.19 57.7812 1153.52 55.7656 1151.63 54.4219 1149.62 54.2875 1144.24 53.75 1137.66 55.4969 1130.94 59.125L1102.45 36.2812C1104.87 31.5781 1105.95 26.3375 1105.54 21.0969 1105.01 17.3344 1100.3 15.3187 1097.75 17.8719L1061.87 53.75C1059.32 56.3031 1061.33 61.0063 1065.1 61.5438 1070.34 61.9469 1075.58 61.0063 1080.28 58.4531L1103.12 86.9406C1099.5 93.6594 1097.88 100.244 1098.29 105.619 1098.42 107.634 1099.77 109.516 1101.78 110.188 1103.66 110.994 1105.81 110.456 1107.29 108.978Z" stroke="#FFFFFF" stroke-width="1.34375" fill="#FFC000"/></g></svg>