<svg xmlns="http://www.w3.org/2000/svg" xmlns:xlink="http://www.w3.org/1999/xlink" width="129" height="129" overflow="hidden" xml:space="preserve"><defs><clipPath id="clip0"><rect width="129" height="129" x="149" y="0"/></clipPath></defs><g clip-path="url(#clip0)" transform="translate(-149 0)"><path fill="#782121" stroke="#FFF" stroke-width="1.344" d="M212.291 108.978 231.506 89.7625 258.784 111.934C259.322 112.472 260.263 112.338 260.8 111.8 261.337 111.263 261.337 110.456 260.934 109.784L238.763 82.6406 257.978 63.425C259.456 61.9469 259.859 59.7969 259.188 57.7812 258.516 55.7656 256.634 54.4219 254.619 54.2875 249.244 53.75 242.659 55.4969 235.941 59.125L207.453 36.2812C209.872 31.5781 210.947 26.3375 210.544 21.0969 210.006 17.3344 205.303 15.3187 202.75 17.8719L166.872 53.75C164.319 56.3031 166.334 61.0063 170.097 61.5438 175.337 61.9469 180.578 61.0063 185.281 58.4531L208.125 86.9406C204.497 93.6594 202.884 100.244 203.288 105.619 203.422 107.634 204.766 109.516 206.781 110.188 208.663 110.994 210.812 110.456 212.291 108.978Z"/></g></svg>