<svg width="129" height="129" xmlns="http://www.w3.org/2000/svg" xmlns:xlink="http://www.w3.org/1999/xlink" xml:space="preserve" overflow="hidden"><defs><clipPath id="clip0"><rect x="617" y="548" width="129" height="129"/></clipPath></defs><g clip-path="url(#clip0)" transform="translate(-617 -548)"><path d="M680.291 656.978 699.506 637.763 726.784 659.934C727.322 660.472 728.263 660.338 728.8 659.8 729.338 659.263 729.338 658.456 728.934 657.784L706.763 630.641 725.978 611.425C727.456 609.947 727.859 607.797 727.188 605.781 726.516 603.766 724.634 602.422 722.619 602.287 717.244 601.75 710.659 603.497 703.941 607.125L675.453 584.281C677.872 579.578 678.947 574.338 678.544 569.097 678.006 565.334 673.303 563.319 670.75 565.872L634.872 601.75C632.319 604.303 634.334 609.006 638.097 609.544 643.338 609.947 648.578 609.006 653.281 606.453L676.125 634.941C672.497 641.659 670.884 648.244 671.287 653.619 671.422 655.634 672.766 657.516 674.781 658.188 676.662 658.994 678.812 658.456 680.291 656.978Z" stroke="#FFFFFF" stroke-width="1.34375" fill="#FFEEAA"/></g></svg>