<svg xmlns="http://www.w3.org/2000/svg" xmlns:xlink="http://www.w3.org/1999/xlink" width="129" height="129" overflow="hidden" xml:space="preserve"><defs><clipPath id="clip0"><rect width="129" height="129" x="766" y="280"/></clipPath></defs><g clip-path="url(#clip0)" transform="translate(-766 -280)"><path fill="#D3BC5F" stroke="#FFF" stroke-width="1.344" d="M829.291 388.978 848.506 369.763 875.784 391.934C876.322 392.472 877.263 392.337 877.8 391.8 878.338 391.263 878.338 390.456 877.934 389.784L855.763 362.641 874.978 343.425C876.456 341.947 876.859 339.797 876.188 337.781 875.516 335.766 873.634 334.422 871.619 334.288 866.244 333.75 859.659 335.497 852.941 339.125L824.453 316.281C826.872 311.578 827.947 306.337 827.544 301.097 827.006 297.334 822.303 295.319 819.75 297.872L783.872 333.75C781.319 336.303 783.334 341.006 787.097 341.544 792.338 341.947 797.578 341.006 802.281 338.453L825.125 366.941C821.497 373.659 819.884 380.244 820.287 385.619 820.422 387.634 821.766 389.516 823.781 390.188 825.662 390.994 827.812 390.456 829.291 388.978Z"/></g></svg>