<svg width="96" height="96" xmlns="http://www.w3.org/2000/svg" xmlns:xlink="http://www.w3.org/1999/xlink" xml:space="preserve" overflow="hidden"><defs><clipPath id="clip0"><rect x="477" y="179" width="96" height="96"/></clipPath></defs><g clip-path="url(#clip0)" transform="translate(-477 -179)"><path d="M532.1 251.5C532.1 255.4 529 258.5 525.1 258.5 521.2 258.5 518.1 255.4 518.1 251.5 518.1 247.6 525.1 237.5 525.1 237.5 525.1 237.5 532.1 247.7 532.1 251.5Z" stroke="#FFFFFF" fill="#0EACFB"/><path d="M547.1 247.5C547.1 250.3 544.9 252.5 542.1 252.5 539.3 252.5 537.1 250.3 537.1 247.5 537.1 244.7 542.1 237.5 542.1 237.5 542.1 237.5 547.1 244.8 547.1 247.5Z" stroke="#FFFFFF" fill="#0EACFB"/><path d="M513.1 247.5C513.1 250.3 510.9 252.5 508.1 252.5 505.3 252.5 503.1 250.3 503.1 247.5 503.1 244.7 508.1 237.5 508.1 237.5 508.1 237.5 513.1 244.8 513.1 247.5Z" stroke="#FFFFFF" fill="#0EACFB"/><path d="M559.1 224C559.1 221.2 557.9 218.6 555.8 216.8 553.7 215 550.9 214.2 548.1 214.7L548.1 214.6C548.1 210.8 546.3 207.1 543.1 204.9 540 202.6 536 202 532.3 203.2 529.2 197.4 522.5 194.4 516.1 196 509.7 197.5 505.1 203.2 505 209.8 500.6 209 496.1 210.7 493.4 214.2 490.6 217.7 490 222.4 491.8 226.5 493.6 230.6 497.5 233.3 502 233.6L550 233.6C555.2 233.3 559.1 229.1 559.1 224Z" stroke="#FFFFFF" fill="#0EACFB"/></g></svg>