<svg width="96" height="96" xmlns="http://www.w3.org/2000/svg" xmlns:xlink="http://www.w3.org/1999/xlink" xml:space="preserve" overflow="hidden"><defs><clipPath id="clip0"><rect x="96" y="371" width="96" height="96"/></clipPath></defs><g clip-path="url(#clip0)" transform="translate(-96 -371)"><path d="M151.1 443.5C151.1 447.4 148 450.5 144.1 450.5 140.2 450.5 137.1 447.4 137.1 443.5 137.1 439.6 144.1 429.5 144.1 429.5 144.1 429.5 151.1 439.7 151.1 443.5Z" stroke="#FFFFFF" fill="#01167E"/><path d="M166.1 439.5C166.1 442.3 163.9 444.5 161.1 444.5 158.3 444.5 156.1 442.3 156.1 439.5 156.1 436.7 161.1 429.5 161.1 429.5 161.1 429.5 166.1 436.8 166.1 439.5Z" stroke="#FFFFFF" fill="#01167E"/><path d="M132.1 439.5C132.1 442.3 129.9 444.5 127.1 444.5 124.3 444.5 122.1 442.3 122.1 439.5 122.1 436.7 127.1 429.5 127.1 429.5 127.1 429.5 132.1 436.8 132.1 439.5Z" stroke="#FFFFFF" fill="#01167E"/><path d="M178.1 416C178.1 413.2 176.9 410.6 174.8 408.8 172.7 407 169.9 406.2 167.1 406.7L167.1 406.6C167.1 402.8 165.3 399.1 162.1 396.9 159 394.6 155 394 151.3 395.2 148.2 389.4 141.5 386.4 135.1 388 128.7 389.5 124.1 395.2 124 401.8 119.6 401 115.1 402.7 112.4 406.2 109.6 409.7 109 414.4 110.8 418.5 112.6 422.6 116.5 425.3 121 425.6L169 425.6C174.2 425.3 178.1 421.1 178.1 416Z" stroke="#FFFFFF" fill="#01167E"/></g></svg>