<svg width="96" height="96" xmlns="http://www.w3.org/2000/svg" xmlns:xlink="http://www.w3.org/1999/xlink" xml:space="preserve" overflow="hidden"><defs><clipPath id="clip0"><rect x="868" y="179" width="96" height="96"/></clipPath></defs><g clip-path="url(#clip0)" transform="translate(-868 -179)"><path d="M923.1 251.5C923.1 255.4 920 258.5 916.1 258.5 912.2 258.5 909.1 255.4 909.1 251.5 909.1 247.6 916.1 237.5 916.1 237.5 916.1 237.5 923.1 247.7 923.1 251.5Z" stroke="#FFFFFF" fill="#6ECDFC"/><path d="M938.1 247.5C938.1 250.3 935.9 252.5 933.1 252.5 930.3 252.5 928.1 250.3 928.1 247.5 928.1 244.7 933.1 237.5 933.1 237.5 933.1 237.5 938.1 244.8 938.1 247.5Z" stroke="#FFFFFF" fill="#6ECDFC"/><path d="M904.1 247.5C904.1 250.3 901.9 252.5 899.1 252.5 896.3 252.5 894.1 250.3 894.1 247.5 894.1 244.7 899.1 237.5 899.1 237.5 899.1 237.5 904.1 244.8 904.1 247.5Z" stroke="#FFFFFF" fill="#6ECDFC"/><path d="M950.1 224C950.1 221.2 948.9 218.6 946.8 216.8 944.7 215 941.9 214.2 939.1 214.7L939.1 214.6C939.1 210.8 937.3 207.1 934.1 204.9 931 202.6 927 202 923.3 203.2 920.2 197.4 913.5 194.4 907.1 196 900.7 197.5 896.1 203.2 896 209.8 891.6 209 887.1 210.7 884.4 214.2 881.6 217.7 881 222.4 882.8 226.5 884.6 230.6 888.5 233.3 893 233.6L941 233.6C946.2 233.3 950.1 229.1 950.1 224Z" stroke="#FFFFFF" fill="#6ECDFC"/></g></svg>