<svg width="96" height="96" xmlns="http://www.w3.org/2000/svg" xmlns:xlink="http://www.w3.org/1999/xlink" xml:space="preserve" overflow="hidden"><defs><clipPath id="clip0"><rect x="477" y="467" width="96" height="96"/></clipPath></defs><g clip-path="url(#clip0)" transform="translate(-477 -467)"><path d="M532.1 539.5C532.1 543.4 529 546.5 525.1 546.5 521.2 546.5 518.1 543.4 518.1 539.5 518.1 535.6 525.1 525.5 525.1 525.5 525.1 525.5 532.1 535.7 532.1 539.5Z" stroke="#FFFFFF" fill="#03A7AB"/><path d="M547.1 535.5C547.1 538.3 544.9 540.5 542.1 540.5 539.3 540.5 537.1 538.3 537.1 535.5 537.1 532.7 542.1 525.5 542.1 525.5 542.1 525.5 547.1 532.8 547.1 535.5Z" stroke="#FFFFFF" fill="#03A7AB"/><path d="M513.1 535.5C513.1 538.3 510.9 540.5 508.1 540.5 505.3 540.5 503.1 538.3 503.1 535.5 503.1 532.7 508.1 525.5 508.1 525.5 508.1 525.5 513.1 532.8 513.1 535.5Z" stroke="#FFFFFF" fill="#03A7AB"/><path d="M559.1 512C559.1 509.2 557.9 506.6 555.8 504.8 553.7 503 550.9 502.2 548.1 502.7L548.1 502.6C548.1 498.8 546.3 495.1 543.1 492.9 540 490.6 536 490 532.3 491.2 529.2 485.4 522.5 482.4 516.1 484 509.7 485.5 505.1 491.2 505 497.8 500.6 497 496.1 498.7 493.4 502.2 490.6 505.7 490 510.4 491.8 514.5 493.6 518.6 497.5 521.3 502 521.6L550 521.6C555.2 521.3 559.1 517.1 559.1 512Z" stroke="#FFFFFF" fill="#03A7AB"/></g></svg>