<svg width="96" height="96" xmlns="http://www.w3.org/2000/svg" xmlns:xlink="http://www.w3.org/1999/xlink" xml:space="preserve" overflow="hidden"><defs><clipPath id="clip0"><rect x="0" y="179" width="96" height="96"/></clipPath></defs><g clip-path="url(#clip0)" transform="matrix(1 0 0 1 0 -179)"><path d="M55.1 251.5C55.1 255.4 52 258.5 48.1 258.5 44.2 258.5 41.1 255.4 41.1 251.5 41.1 247.6 48.1 237.5 48.1 237.5 48.1 237.5 55.1 247.7 55.1 251.5Z" stroke="#FFFFFF" fill="#024A6F"/><path d="M70.1 247.5C70.1 250.3 67.9 252.5 65.1 252.5 62.3 252.5 60.1 250.3 60.1 247.5 60.1 244.7 65.1 237.5 65.1 237.5 65.1 237.5 70.1 244.8 70.1 247.5Z" stroke="#FFFFFF" fill="#024A6F"/><path d="M36.1 247.5C36.1 250.3 33.9 252.5 31.1 252.5 28.3 252.5 26.1 250.3 26.1 247.5 26.1 244.7 31.1 237.5 31.1 237.5 31.1 237.5 36.1 244.8 36.1 247.5Z" stroke="#FFFFFF" fill="#024A6F"/><path d="M82.1 224C82.1 221.2 80.9 218.6 78.8 216.8 76.7 215 73.9 214.2 71.1 214.7L71.1 214.6C71.1 210.8 69.3 207.1 66.1 204.9 63 202.6 59 202 55.3 203.2 52.2 197.4 45.5 194.4 39.1 196 32.7 197.5 28.1 203.2 28 209.8 23.6 209 19.1 210.7 16.4 214.2 13.6 217.7 13 222.4 14.8 226.5 16.6 230.6 20.5 233.3 25 233.6L73 233.6C78.2 233.3 82.1 229.1 82.1 224Z" stroke="#FFFFFF" fill="#024A6F"/></g></svg>