<svg width="96" height="96" xmlns="http://www.w3.org/2000/svg" xmlns:xlink="http://www.w3.org/1999/xlink" xml:space="preserve" overflow="hidden"><defs><clipPath id="clip0"><rect x="868" y="0" width="96" height="96"/></clipPath></defs><g clip-path="url(#clip0)" transform="translate(-868 0)"><path d="M923.1 72.5C923.1 76.4 920 79.5 916.1 79.5 912.2 79.5 909.1 76.4 909.1 72.5 909.1 68.6 916.1 58.5 916.1 58.5 916.1 58.5 923.1 68.7 923.1 72.5Z" stroke="#FFFFFF" fill="#4EA4CE"/><path d="M938.1 68.5C938.1 71.3 935.9 73.5 933.1 73.5 930.3 73.5 928.1 71.3 928.1 68.5 928.1 65.7 933.1 58.5 933.1 58.5 933.1 58.5 938.1 65.8 938.1 68.5Z" stroke="#FFFFFF" fill="#4EA4CE"/><path d="M904.1 68.5C904.1 71.3 901.9 73.5 899.1 73.5 896.3 73.5 894.1 71.3 894.1 68.5 894.1 65.7 899.1 58.5 899.1 58.5 899.1 58.5 904.1 65.8 904.1 68.5Z" stroke="#FFFFFF" fill="#4EA4CE"/><path d="M950.1 45C950.1 42.2 948.9 39.6 946.8 37.8 944.7 36 941.9 35.2 939.1 35.7L939.1 35.6C939.1 31.8 937.3 28.1 934.1 25.9 931 23.6 927 23 923.3 24.2 920.2 18.4 913.5 15.4 907.1 17 900.7 18.5 896.1 24.2 896 30.8 891.6 30 887.1 31.7 884.4 35.2 881.6 38.7 881 43.4 882.8 47.5 884.6 51.6 888.5 54.3 893 54.6L941 54.6C946.2 54.3 950.1 50.1 950.1 45Z" stroke="#FFFFFF" fill="#4EA4CE"/></g></svg>