<svg width="96" height="96" xmlns="http://www.w3.org/2000/svg" xmlns:xlink="http://www.w3.org/1999/xlink" xml:space="preserve" overflow="hidden"><defs><clipPath id="clip0"><rect x="0" y="275" width="96" height="96"/></clipPath></defs><g clip-path="url(#clip0)" transform="matrix(1 0 0 1 0 -275)"><path d="M55.1 347.5C55.1 351.4 52 354.5 48.1 354.5 44.2 354.5 41.1 351.4 41.1 347.5 41.1 343.6 48.1 333.5 48.1 333.5 48.1 333.5 55.1 343.7 55.1 347.5Z" stroke="#FFFFFF" fill="#86D5FD"/><path d="M70.1 343.5C70.1 346.3 67.9 348.5 65.1 348.5 62.3 348.5 60.1 346.3 60.1 343.5 60.1 340.7 65.1 333.5 65.1 333.5 65.1 333.5 70.1 340.8 70.1 343.5Z" stroke="#FFFFFF" fill="#86D5FD"/><path d="M36.1 343.5C36.1 346.3 33.9 348.5 31.1 348.5 28.3 348.5 26.1 346.3 26.1 343.5 26.1 340.7 31.1 333.5 31.1 333.5 31.1 333.5 36.1 340.8 36.1 343.5Z" stroke="#FFFFFF" fill="#86D5FD"/><path d="M82.1 320C82.1 317.2 80.9 314.6 78.8 312.8 76.7 311 73.9 310.2 71.1 310.7L71.1 310.6C71.1 306.8 69.3 303.1 66.1 300.9 63 298.6 59 298 55.3 299.2 52.2 293.4 45.5 290.4 39.1 292 32.7 293.5 28.1 299.2 28 305.8 23.6 305 19.1 306.7 16.4 310.2 13.6 313.7 13 318.4 14.8 322.5 16.6 326.6 20.5 329.3 25 329.6L73 329.6C78.2 329.3 82.1 325.1 82.1 320Z" stroke="#FFFFFF" fill="#86D5FD"/></g></svg>