<svg width="96" height="96" xmlns="http://www.w3.org/2000/svg" xmlns:xlink="http://www.w3.org/1999/xlink" xml:space="preserve" overflow="hidden"><defs><clipPath id="clip0"><rect x="477" y="0" width="96" height="96"/></clipPath></defs><g clip-path="url(#clip0)" transform="translate(-477 0)"><path d="M532.1 72.5C532.1 76.4 529 79.5 525.1 79.5 521.2 79.5 518.1 76.4 518.1 72.5 518.1 68.6 525.1 58.5 525.1 58.5 525.1 58.5 532.1 68.7 532.1 72.5Z" stroke="#FFFFFF" fill="#0270A7"/><path d="M547.1 68.5C547.1 71.3 544.9 73.5 542.1 73.5 539.3 73.5 537.1 71.3 537.1 68.5 537.1 65.7 542.1 58.5 542.1 58.5 542.1 58.5 547.1 65.8 547.1 68.5Z" stroke="#FFFFFF" fill="#0270A7"/><path d="M513.1 68.5C513.1 71.3 510.9 73.5 508.1 73.5 505.3 73.5 503.1 71.3 503.1 68.5 503.1 65.7 508.1 58.5 508.1 58.5 508.1 58.5 513.1 65.8 513.1 68.5Z" stroke="#FFFFFF" fill="#0270A7"/><path d="M559.1 45C559.1 42.2 557.9 39.6 555.8 37.8 553.7 36 550.9 35.2 548.1 35.7L548.1 35.6C548.1 31.8 546.3 28.1 543.1 25.9 540 23.6 536 23 532.3 24.2 529.2 18.4 522.5 15.4 516.1 17 509.7 18.5 505.1 24.2 505 30.8 500.6 30 496.1 31.7 493.4 35.2 490.6 38.7 490 43.4 491.8 47.5 493.6 51.6 497.5 54.3 502 54.6L550 54.6C555.2 54.3 559.1 50.1 559.1 45Z" stroke="#FFFFFF" fill="#0270A7"/></g></svg>