<svg width="96" height="96" xmlns="http://www.w3.org/2000/svg" xmlns:xlink="http://www.w3.org/1999/xlink" xml:space="preserve" overflow="hidden"><defs><clipPath id="clip0"><rect x="192" y="0" width="96" height="96"/></clipPath></defs><g clip-path="url(#clip0)" transform="translate(-192 0)"><path d="M247.1 72.5C247.1 76.4 244 79.5 240.1 79.5 236.2 79.5 233.1 76.4 233.1 72.5 233.1 68.6 240.1 58.5 240.1 58.5 240.1 58.5 247.1 68.7 247.1 72.5Z" stroke="#FFFFFF" fill="#014B6F"/><path d="M262.1 68.5C262.1 71.3 259.9 73.5 257.1 73.5 254.3 73.5 252.1 71.3 252.1 68.5 252.1 65.7 257.1 58.5 257.1 58.5 257.1 58.5 262.1 65.8 262.1 68.5Z" stroke="#FFFFFF" fill="#014B6F"/><path d="M228.1 68.5C228.1 71.3 225.9 73.5 223.1 73.5 220.3 73.5 218.1 71.3 218.1 68.5 218.1 65.7 223.1 58.5 223.1 58.5 223.1 58.5 228.1 65.8 228.1 68.5Z" stroke="#FFFFFF" fill="#014B6F"/><path d="M274.1 45C274.1 42.2 272.9 39.6 270.8 37.8 268.7 36 265.9 35.2 263.1 35.7L263.1 35.6C263.1 31.8 261.3 28.1 258.1 25.9 255 23.6 251 23 247.3 24.2 244.2 18.4 237.5 15.4 231.1 17 224.7 18.5 220.1 24.2 220 30.8 215.6 30 211.1 31.7 208.4 35.2 205.6 38.7 205 43.4 206.8 47.5 208.6 51.6 212.5 54.3 217 54.6L265 54.6C270.2 54.3 274.1 50.1 274.1 45Z" stroke="#FFFFFF" fill="#014B6F"/></g></svg>