<svg width="96" height="96" xmlns="http://www.w3.org/2000/svg" xmlns:xlink="http://www.w3.org/1999/xlink" xml:space="preserve" overflow="hidden"><defs><clipPath id="clip0"><rect x="573" y="563" width="96" height="96"/></clipPath></defs><g clip-path="url(#clip0)" transform="translate(-573 -563)"><path d="M628.1 635.5C628.1 639.4 625 642.5 621.1 642.5 617.2 642.5 614.1 639.4 614.1 635.5 614.1 631.6 621.1 621.5 621.1 621.5 621.1 621.5 628.1 631.7 628.1 635.5Z" stroke="#FFFFFF" fill="#31CEFC"/><path d="M643.1 631.5C643.1 634.3 640.9 636.5 638.1 636.5 635.3 636.5 633.1 634.3 633.1 631.5 633.1 628.7 638.1 621.5 638.1 621.5 638.1 621.5 643.1 628.8 643.1 631.5Z" stroke="#FFFFFF" fill="#31CEFC"/><path d="M609.1 631.5C609.1 634.3 606.9 636.5 604.1 636.5 601.3 636.5 599.1 634.3 599.1 631.5 599.1 628.7 604.1 621.5 604.1 621.5 604.1 621.5 609.1 628.8 609.1 631.5Z" stroke="#FFFFFF" fill="#31CEFC"/><path d="M655.1 608C655.1 605.2 653.9 602.6 651.8 600.8 649.7 599 646.9 598.2 644.1 598.7L644.1 598.6C644.1 594.8 642.3 591.1 639.1 588.9 636 586.6 632 586 628.3 587.2 625.2 581.4 618.5 578.4 612.1 580 605.7 581.5 601.1 587.2 601 593.8 596.6 593 592.1 594.7 589.4 598.2 586.6 601.7 586 606.4 587.8 610.5 589.6 614.6 593.5 617.3 598 617.6L646 617.6C651.2 617.3 655.1 613.1 655.1 608Z" stroke="#FFFFFF" fill="#31CEFC"/></g></svg>