<svg width="96" height="96" xmlns="http://www.w3.org/2000/svg" xmlns:xlink="http://www.w3.org/1999/xlink" xml:space="preserve" overflow="hidden"><defs><clipPath id="clip0"><rect x="0" y="371" width="96" height="96"/></clipPath></defs><g clip-path="url(#clip0)" transform="matrix(1 0 0 1 0 -371)"><path d="M55.1 443.5C55.1 447.4 52 450.5 48.1 450.5 44.2 450.5 41.1 447.4 41.1 443.5 41.1 439.6 48.1 429.5 48.1 429.5 48.1 429.5 55.1 439.7 55.1 443.5Z" stroke="#FFFFFF" fill="#011369"/><path d="M70.1 439.5C70.1 442.3 67.9 444.5 65.1 444.5 62.3 444.5 60.1 442.3 60.1 439.5 60.1 436.7 65.1 429.5 65.1 429.5 65.1 429.5 70.1 436.8 70.1 439.5Z" stroke="#FFFFFF" fill="#011369"/><path d="M36.1 439.5C36.1 442.3 33.9 444.5 31.1 444.5 28.3 444.5 26.1 442.3 26.1 439.5 26.1 436.7 31.1 429.5 31.1 429.5 31.1 429.5 36.1 436.8 36.1 439.5Z" stroke="#FFFFFF" fill="#011369"/><path d="M82.1 416C82.1 413.2 80.9 410.6 78.8 408.8 76.7 407 73.9 406.2 71.1 406.7L71.1 406.6C71.1 402.8 69.3 399.1 66.1 396.9 63 394.6 59 394 55.3 395.2 52.2 389.4 45.5 386.4 39.1 388 32.7 389.5 28.1 395.2 28 401.8 23.6 401 19.1 402.7 16.4 406.2 13.6 409.7 13 414.4 14.8 418.5 16.6 422.6 20.5 425.3 25 425.6L73 425.6C78.2 425.3 82.1 421.1 82.1 416Z" stroke="#FFFFFF" fill="#011369"/></g></svg>