<svg width="96" height="96" xmlns="http://www.w3.org/2000/svg" xmlns:xlink="http://www.w3.org/1999/xlink" xml:space="preserve" overflow="hidden"><defs><clipPath id="clip0"><rect x="285" y="467" width="96" height="96"/></clipPath></defs><g clip-path="url(#clip0)" transform="translate(-285 -467)"><path d="M340.1 539.5C340.1 543.4 337 546.5 333.1 546.5 329.2 546.5 326.1 543.4 326.1 539.5 326.1 535.6 333.1 525.5 333.1 525.5 333.1 525.5 340.1 535.7 340.1 539.5Z" stroke="#FFFFFF" fill="#02787B"/><path d="M355.1 535.5C355.1 538.3 352.9 540.5 350.1 540.5 347.3 540.5 345.1 538.3 345.1 535.5 345.1 532.7 350.1 525.5 350.1 525.5 350.1 525.5 355.1 532.8 355.1 535.5Z" stroke="#FFFFFF" fill="#02787B"/><path d="M321.1 535.5C321.1 538.3 318.9 540.5 316.1 540.5 313.3 540.5 311.1 538.3 311.1 535.5 311.1 532.7 316.1 525.5 316.1 525.5 316.1 525.5 321.1 532.8 321.1 535.5Z" stroke="#FFFFFF" fill="#02787B"/><path d="M367.1 512C367.1 509.2 365.9 506.6 363.8 504.8 361.7 503 358.9 502.2 356.1 502.7L356.1 502.6C356.1 498.8 354.3 495.1 351.1 492.9 348 490.6 344 490 340.3 491.2 337.2 485.4 330.5 482.4 324.1 484 317.7 485.5 313.1 491.2 313 497.8 308.6 497 304.1 498.7 301.4 502.2 298.6 505.7 298 510.4 299.8 514.5 301.6 518.6 305.5 521.3 310 521.6L358 521.6C363.2 521.3 367.1 517.1 367.1 512Z" stroke="#FFFFFF" fill="#02787B"/></g></svg>