<svg width="96" height="96" xmlns="http://www.w3.org/2000/svg" xmlns:xlink="http://www.w3.org/1999/xlink" xml:space="preserve" overflow="hidden"><defs><clipPath id="clip0"><rect x="192" y="371" width="96" height="96"/></clipPath></defs><g clip-path="url(#clip0)" transform="translate(-192 -371)"><path d="M247.1 443.5C247.1 447.4 244 450.5 240.1 450.5 236.2 450.5 233.1 447.4 233.1 443.5 233.1 439.6 240.1 429.5 240.1 429.5 240.1 429.5 247.1 439.7 247.1 443.5Z" stroke="#FFFFFF" fill="#021A93"/><path d="M262.1 439.5C262.1 442.3 259.9 444.5 257.1 444.5 254.3 444.5 252.1 442.3 252.1 439.5 252.1 436.7 257.1 429.5 257.1 429.5 257.1 429.5 262.1 436.8 262.1 439.5Z" stroke="#FFFFFF" fill="#021A93"/><path d="M228.1 439.5C228.1 442.3 225.9 444.5 223.1 444.5 220.3 444.5 218.1 442.3 218.1 439.5 218.1 436.7 223.1 429.5 223.1 429.5 223.1 429.5 228.1 436.8 228.1 439.5Z" stroke="#FFFFFF" fill="#021A93"/><path d="M274.1 416C274.1 413.2 272.9 410.6 270.8 408.8 268.7 407 265.9 406.2 263.1 406.7L263.1 406.6C263.1 402.8 261.3 399.1 258.1 396.9 255 394.6 251 394 247.3 395.2 244.2 389.4 237.5 386.4 231.1 388 224.7 389.5 220.1 395.2 220 401.8 215.6 401 211.1 402.7 208.4 406.2 205.6 409.7 205 414.4 206.8 418.5 208.6 422.6 212.5 425.3 217 425.6L265 425.6C270.2 425.3 274.1 421.1 274.1 416Z" stroke="#FFFFFF" fill="#021A93"/></g></svg>