<svg width="96" height="96" xmlns="http://www.w3.org/2000/svg" xmlns:xlink="http://www.w3.org/1999/xlink" xml:space="preserve" overflow="hidden"><defs><clipPath id="clip0"><rect x="285" y="275" width="96" height="96"/></clipPath></defs><g clip-path="url(#clip0)" transform="translate(-285 -275)"><path d="M340.1 347.5C340.1 351.4 337 354.5 333.1 354.5 329.2 354.5 326.1 351.4 326.1 347.5 326.1 343.6 333.1 333.5 333.1 333.5 333.1 333.5 340.1 343.7 340.1 347.5Z" stroke="#FFFFFF" fill="#B6E6FD"/><path d="M355.1 343.5C355.1 346.3 352.9 348.5 350.1 348.5 347.3 348.5 345.1 346.3 345.1 343.5 345.1 340.7 350.1 333.5 350.1 333.5 350.1 333.5 355.1 340.8 355.1 343.5Z" stroke="#FFFFFF" fill="#B6E6FD"/><path d="M321.1 343.5C321.1 346.3 318.9 348.5 316.1 348.5 313.3 348.5 311.1 346.3 311.1 343.5 311.1 340.7 316.1 333.5 316.1 333.5 316.1 333.5 321.1 340.8 321.1 343.5Z" stroke="#FFFFFF" fill="#B6E6FD"/><path d="M367.1 320C367.1 317.2 365.9 314.6 363.8 312.8 361.7 311 358.9 310.2 356.1 310.7L356.1 310.6C356.1 306.8 354.3 303.1 351.1 300.9 348 298.6 344 298 340.3 299.2 337.2 293.4 330.5 290.4 324.1 292 317.7 293.5 313.1 299.2 313 305.8 308.6 305 304.1 306.7 301.4 310.2 298.6 313.7 298 318.4 299.8 322.5 301.6 326.6 305.5 329.3 310 329.6L358 329.6C363.2 329.3 367.1 325.1 367.1 320Z" stroke="#FFFFFF" fill="#B6E6FD"/></g></svg>