<svg width="96" height="96" xmlns="http://www.w3.org/2000/svg" xmlns:xlink="http://www.w3.org/1999/xlink" xml:space="preserve" overflow="hidden"><defs><clipPath id="clip0"><rect x="0" y="467" width="96" height="96"/></clipPath></defs><g clip-path="url(#clip0)" transform="matrix(1 0 0 1 0 -467)"><path d="M55.1 539.5C55.1 543.4 52 546.5 48.1 546.5 44.2 546.5 41.1 543.4 41.1 539.5 41.1 535.6 48.1 525.5 48.1 525.5 48.1 525.5 55.1 535.7 55.1 539.5Z" stroke="#FFFFFF" fill="#003031"/><path d="M70.1 535.5C70.1 538.3 67.9 540.5 65.1 540.5 62.3 540.5 60.1 538.3 60.1 535.5 60.1 532.7 65.1 525.5 65.1 525.5 65.1 525.5 70.1 532.8 70.1 535.5Z" stroke="#FFFFFF" fill="#003031"/><path d="M36.1 535.5C36.1 538.3 33.9 540.5 31.1 540.5 28.3 540.5 26.1 538.3 26.1 535.5 26.1 532.7 31.1 525.5 31.1 525.5 31.1 525.5 36.1 532.8 36.1 535.5Z" stroke="#FFFFFF" fill="#003031"/><path d="M82.1 512C82.1 509.2 80.9 506.6 78.8 504.8 76.7 503 73.9 502.2 71.1 502.7L71.1 502.6C71.1 498.8 69.3 495.1 66.1 492.9 63 490.6 59 490 55.3 491.2 52.2 485.4 45.5 482.4 39.1 484 32.7 485.5 28.1 491.2 28 497.8 23.6 497 19.1 498.7 16.4 502.2 13.6 505.7 13 510.4 14.8 514.5 16.6 518.6 20.5 521.3 25 521.6L73 521.6C78.2 521.3 82.1 517.1 82.1 512Z" stroke="#FFFFFF" fill="#003031"/></g></svg>