<svg width="96" height="96" xmlns="http://www.w3.org/2000/svg" xmlns:xlink="http://www.w3.org/1999/xlink" xml:space="preserve" overflow="hidden"><defs><clipPath id="clip0"><rect x="669" y="371" width="96" height="96"/></clipPath></defs><g clip-path="url(#clip0)" transform="translate(-669 -371)"><path d="M724.1 443.5C724.1 447.4 721 450.5 717.1 450.5 713.2 450.5 710.1 447.4 710.1 443.5 710.1 439.6 717.1 429.5 717.1 429.5 717.1 429.5 724.1 439.7 724.1 443.5Z" stroke="#FFFFFF" fill="#677CE4"/><path d="M739.1 439.5C739.1 442.3 736.9 444.5 734.1 444.5 731.3 444.5 729.1 442.3 729.1 439.5 729.1 436.7 734.1 429.5 734.1 429.5 734.1 429.5 739.1 436.8 739.1 439.5Z" stroke="#FFFFFF" fill="#677CE4"/><path d="M705.1 439.5C705.1 442.3 702.9 444.5 700.1 444.5 697.3 444.5 695.1 442.3 695.1 439.5 695.1 436.7 700.1 429.5 700.1 429.5 700.1 429.5 705.1 436.8 705.1 439.5Z" stroke="#FFFFFF" fill="#677CE4"/><path d="M751.1 416C751.1 413.2 749.9 410.6 747.8 408.8 745.7 407 742.9 406.2 740.1 406.7L740.1 406.6C740.1 402.8 738.3 399.1 735.1 396.9 732 394.6 728 394 724.3 395.2 721.2 389.4 714.5 386.4 708.1 388 701.7 389.5 697.1 395.2 697 401.8 692.6 401 688.1 402.7 685.4 406.2 682.6 409.7 682 414.4 683.8 418.5 685.6 422.6 689.5 425.3 694 425.6L742 425.6C747.2 425.3 751.1 421.1 751.1 416Z" stroke="#FFFFFF" fill="#677CE4"/></g></svg>