<svg width="96" height="96" xmlns="http://www.w3.org/2000/svg" xmlns:xlink="http://www.w3.org/1999/xlink" xml:space="preserve" overflow="hidden"><defs><clipPath id="clip0"><rect x="285" y="0" width="96" height="96"/></clipPath></defs><g clip-path="url(#clip0)" transform="translate(-285 0)"><path d="M340.1 72.5C340.1 76.4 337 79.5 333.1 79.5 329.2 79.5 326.1 76.4 326.1 72.5 326.1 68.6 333.1 58.5 333.1 58.5 333.1 58.5 340.1 68.7 340.1 72.5Z" stroke="#FFFFFF" fill="#025782"/><path d="M355.1 68.5C355.1 71.3 352.9 73.5 350.1 73.5 347.3 73.5 345.1 71.3 345.1 68.5 345.1 65.7 350.1 58.5 350.1 58.5 350.1 58.5 355.1 65.8 355.1 68.5Z" stroke="#FFFFFF" fill="#025782"/><path d="M321.1 68.5C321.1 71.3 318.9 73.5 316.1 73.5 313.3 73.5 311.1 71.3 311.1 68.5 311.1 65.7 316.1 58.5 316.1 58.5 316.1 58.5 321.1 65.8 321.1 68.5Z" stroke="#FFFFFF" fill="#025782"/><path d="M367.1 45C367.1 42.2 365.9 39.6 363.8 37.8 361.7 36 358.9 35.2 356.1 35.7L356.1 35.6C356.1 31.8 354.3 28.1 351.1 25.9 348 23.6 344 23 340.3 24.2 337.2 18.4 330.5 15.4 324.1 17 317.7 18.5 313.1 24.2 313 30.8 308.6 30 304.1 31.7 301.4 35.2 298.6 38.7 298 43.4 299.8 47.5 301.6 51.6 305.5 54.3 310 54.6L358 54.6C363.2 54.3 367.1 50.1 367.1 45Z" stroke="#FFFFFF" fill="#025782"/></g></svg>