<svg width="96" height="96" xmlns="http://www.w3.org/2000/svg" xmlns:xlink="http://www.w3.org/1999/xlink" xml:space="preserve" overflow="hidden"><defs><clipPath id="clip0"><rect x="96" y="467" width="96" height="96"/></clipPath></defs><g clip-path="url(#clip0)" transform="translate(-96 -467)"><path d="M151.1 539.5C151.1 543.4 148 546.5 144.1 546.5 140.2 546.5 137.1 543.4 137.1 539.5 137.1 535.6 144.1 525.5 144.1 525.5 144.1 525.5 151.1 535.7 151.1 539.5Z" stroke="#FFFFFF" fill="#014849"/><path d="M166.1 535.5C166.1 538.3 163.9 540.5 161.1 540.5 158.3 540.5 156.1 538.3 156.1 535.5 156.1 532.7 161.1 525.5 161.1 525.5 161.1 525.5 166.1 532.8 166.1 535.5Z" stroke="#FFFFFF" fill="#014849"/><path d="M132.1 535.5C132.1 538.3 129.9 540.5 127.1 540.5 124.3 540.5 122.1 538.3 122.1 535.5 122.1 532.7 127.1 525.5 127.1 525.5 127.1 525.5 132.1 532.8 132.1 535.5Z" stroke="#FFFFFF" fill="#014849"/><path d="M178.1 512C178.1 509.2 176.9 506.6 174.8 504.8 172.7 503 169.9 502.2 167.1 502.7L167.1 502.6C167.1 498.8 165.3 495.1 162.1 492.9 159 490.6 155 490 151.3 491.2 148.2 485.4 141.5 482.4 135.1 484 128.7 485.5 124.1 491.2 124 497.8 119.6 497 115.1 498.7 112.4 502.2 109.6 505.7 109 510.4 110.8 514.5 112.6 518.6 116.5 521.3 121 521.6L169 521.6C174.2 521.3 178.1 517.1 178.1 512Z" stroke="#FFFFFF" fill="#014849"/></g></svg>