<svg xmlns="http://www.w3.org/2000/svg" xmlns:xlink="http://www.w3.org/1999/xlink" width="96" height="96" overflow="hidden" xml:space="preserve"><defs><clipPath id="clip0"><rect width="96" height="96" x="285" y="563"/></clipPath></defs><g clip-path="url(#clip0)" transform="translate(-285 -563)"><path fill="#04BFF6" stroke="#FFF" d="M340.1 635.5C340.1 639.4 337 642.5 333.1 642.5 329.2 642.5 326.1 639.4 326.1 635.5 326.1 631.6 333.1 621.5 333.1 621.5 333.1 621.5 340.1 631.7 340.1 635.5Z"/><path fill="#04BFF6" stroke="#FFF" d="M355.1 631.5C355.1 634.3 352.9 636.5 350.1 636.5 347.3 636.5 345.1 634.3 345.1 631.5 345.1 628.7 350.1 621.5 350.1 621.5 350.1 621.5 355.1 628.8 355.1 631.5Z"/><path fill="#04BFF6" stroke="#FFF" d="M321.1 631.5C321.1 634.3 318.9 636.5 316.1 636.5 313.3 636.5 311.1 634.3 311.1 631.5 311.1 628.7 316.1 621.5 316.1 621.5 316.1 621.5 321.1 628.8 321.1 631.5Z"/><path fill="#04BFF6" stroke="#FFF" d="M367.1 608C367.1 605.2 365.9 602.6 363.8 600.8 361.7 599 358.9 598.2 356.1 598.7L356.1 598.6C356.1 594.8 354.3 591.1 351.1 588.9 348 586.6 344 586 340.3 587.2 337.2 581.4 330.5 578.4 324.1 580 317.7 581.5 313.1 587.2 313 593.8 308.6 593 304.1 594.7 301.4 598.2 298.6 601.7 298 606.4 299.8 610.5 301.6 614.6 305.5 617.3 310 617.6L358 617.6C363.2 617.3 367.1 613.1 367.1 608Z"/></g></svg>