<svg width="96" height="96" xmlns="http://www.w3.org/2000/svg" xmlns:xlink="http://www.w3.org/1999/xlink" xml:space="preserve" overflow="hidden"><defs><clipPath id="clip0"><rect x="381" y="371" width="96" height="96"/></clipPath></defs><g clip-path="url(#clip0)" transform="translate(-381 -371)"><path d="M436.1 443.5C436.1 447.4 433 450.5 429.1 450.5 425.2 450.5 422.1 447.4 422.1 443.5 422.1 439.6 429.1 429.5 429.1 429.5 429.1 429.5 436.1 439.7 436.1 443.5Z" stroke="#FFFFFF" fill="#0222BD"/><path d="M451.1 439.5C451.1 442.3 448.9 444.5 446.1 444.5 443.3 444.5 441.1 442.3 441.1 439.5 441.1 436.7 446.1 429.5 446.1 429.5 446.1 429.5 451.1 436.8 451.1 439.5Z" stroke="#FFFFFF" fill="#0222BD"/><path d="M417.1 439.5C417.1 442.3 414.9 444.5 412.1 444.5 409.3 444.5 407.1 442.3 407.1 439.5 407.1 436.7 412.1 429.5 412.1 429.5 412.1 429.5 417.1 436.8 417.1 439.5Z" stroke="#FFFFFF" fill="#0222BD"/><path d="M463.1 416C463.1 413.2 461.9 410.6 459.8 408.8 457.7 407 454.9 406.2 452.1 406.7L452.1 406.6C452.1 402.8 450.3 399.1 447.1 396.9 444 394.6 440 394 436.3 395.2 433.2 389.4 426.5 386.4 420.1 388 413.7 389.5 409.1 395.2 409 401.8 404.6 401 400.1 402.7 397.4 406.2 394.6 409.7 394 414.4 395.8 418.5 397.6 422.6 401.5 425.3 406 425.6L454 425.6C459.2 425.3 463.1 421.1 463.1 416Z" stroke="#FFFFFF" fill="#0222BD"/></g></svg>