<svg width="96" height="96" xmlns="http://www.w3.org/2000/svg" xmlns:xlink="http://www.w3.org/1999/xlink" xml:space="preserve" overflow="hidden"><defs><clipPath id="clip0"><rect x="381" y="563" width="96" height="96"/></clipPath></defs><g clip-path="url(#clip0)" transform="translate(-381 -563)"><path d="M436.1 635.5C436.1 639.4 433 642.5 429.1 642.5 425.2 642.5 422.1 639.4 422.1 635.5 422.1 631.6 429.1 621.5 429.1 621.5 429.1 621.5 436.1 631.7 436.1 635.5Z" stroke="#FFFFFF" fill="#18C8FB"/><path d="M451.1 631.5C451.1 634.3 448.9 636.5 446.1 636.5 443.3 636.5 441.1 634.3 441.1 631.5 441.1 628.7 446.1 621.5 446.1 621.5 446.1 621.5 451.1 628.8 451.1 631.5Z" stroke="#FFFFFF" fill="#18C8FB"/><path d="M417.1 631.5C417.1 634.3 414.9 636.5 412.1 636.5 409.3 636.5 407.1 634.3 407.1 631.5 407.1 628.7 412.1 621.5 412.1 621.5 412.1 621.5 417.1 628.8 417.1 631.5Z" stroke="#FFFFFF" fill="#18C8FB"/><path d="M463.1 608C463.1 605.2 461.9 602.6 459.8 600.8 457.7 599 454.9 598.2 452.1 598.7L452.1 598.6C452.1 594.8 450.3 591.1 447.1 588.9 444 586.6 440 586 436.3 587.2 433.2 581.4 426.5 578.4 420.1 580 413.7 581.5 409.1 587.2 409 593.8 404.6 593 400.1 594.7 397.4 598.2 394.6 601.7 394 606.4 395.8 610.5 397.6 614.6 401.5 617.3 406 617.6L454 617.6C459.2 617.3 463.1 613.1 463.1 608Z" stroke="#FFFFFF" fill="#18C8FB"/></g></svg>