<svg width="96" height="96" xmlns="http://www.w3.org/2000/svg" xmlns:xlink="http://www.w3.org/1999/xlink" xml:space="preserve" overflow="hidden"><defs><clipPath id="clip0"><rect x="192" y="467" width="96" height="96"/></clipPath></defs><g clip-path="url(#clip0)" transform="translate(-192 -467)"><path d="M247.1 539.5C247.1 543.4 244 546.5 240.1 546.5 236.2 546.5 233.1 543.4 233.1 539.5 233.1 535.6 240.1 525.5 240.1 525.5 240.1 525.5 247.1 535.7 247.1 539.5Z" stroke="#FFFFFF" fill="#016062"/><path d="M262.1 535.5C262.1 538.3 259.9 540.5 257.1 540.5 254.3 540.5 252.1 538.3 252.1 535.5 252.1 532.7 257.1 525.5 257.1 525.5 257.1 525.5 262.1 532.8 262.1 535.5Z" stroke="#FFFFFF" fill="#016062"/><path d="M228.1 535.5C228.1 538.3 225.9 540.5 223.1 540.5 220.3 540.5 218.1 538.3 218.1 535.5 218.1 532.7 223.1 525.5 223.1 525.5 223.1 525.5 228.1 532.8 228.1 535.5Z" stroke="#FFFFFF" fill="#016062"/><path d="M274.1 512C274.1 509.2 272.9 506.6 270.8 504.8 268.7 503 265.9 502.2 263.1 502.7L263.1 502.6C263.1 498.8 261.3 495.1 258.1 492.9 255 490.6 251 490 247.3 491.2 244.2 485.4 237.5 482.4 231.1 484 224.7 485.5 220.1 491.2 220 497.8 215.6 497 211.1 498.7 208.4 502.2 205.6 505.7 205 510.4 206.8 514.5 208.6 518.6 212.5 521.3 217 521.6L265 521.6C270.2 521.3 274.1 517.1 274.1 512Z" stroke="#FFFFFF" fill="#016062"/></g></svg>