<svg width="96" height="96" xmlns="http://www.w3.org/2000/svg" xmlns:xlink="http://www.w3.org/1999/xlink" xml:space="preserve" overflow="hidden"><defs><clipPath id="clip0"><rect x="0" y="96" width="96" height="96"/></clipPath></defs><g clip-path="url(#clip0)" transform="matrix(1 0 0 1 0 -96)"><path d="M55.1 168.5C55.1 172.4 52 175.5 48.1 175.5 44.2 175.5 41.1 172.4 41.1 168.5 41.1 164.6 48.1 154.5 48.1 154.5 48.1 154.5 55.1 164.7 55.1 168.5Z" stroke="#FFFFFF" fill="#67B1D5"/><path d="M70.1 164.5C70.1 167.3 67.9 169.5 65.1 169.5 62.3 169.5 60.1 167.3 60.1 164.5 60.1 161.7 65.1 154.5 65.1 154.5 65.1 154.5 70.1 161.8 70.1 164.5Z" stroke="#FFFFFF" fill="#67B1D5"/><path d="M36.1 164.5C36.1 167.3 33.9 169.5 31.1 169.5 28.3 169.5 26.1 167.3 26.1 164.5 26.1 161.7 31.1 154.5 31.1 154.5 31.1 154.5 36.1 161.8 36.1 164.5Z" stroke="#FFFFFF" fill="#67B1D5"/><path d="M82.1 141C82.1 138.2 80.9 135.6 78.8 133.8 76.7 132 73.9 131.2 71.1 131.7L71.1 131.6C71.1 127.8 69.3 124.1 66.1 121.9 63 119.6 59 119 55.3 120.2 52.2 114.4 45.5 111.4 39.1 113 32.7 114.5 28.1 120.2 28 126.8 23.6 126 19.1 127.7 16.4 131.2 13.6 134.7 13 139.4 14.8 143.5 16.6 147.6 20.5 150.3 25 150.6L73 150.6C78.2 150.3 82.1 146.1 82.1 141Z" stroke="#FFFFFF" fill="#67B1D5"/></g></svg>