<svg width="96" height="96" xmlns="http://www.w3.org/2000/svg" xmlns:xlink="http://www.w3.org/1999/xlink" xml:space="preserve" overflow="hidden"><defs><clipPath id="clip0"><rect x="0" y="563" width="96" height="96"/></clipPath></defs><g clip-path="url(#clip0)" transform="matrix(1 0 0 1 0 -563)"><path d="M55.1 635.5C55.1 639.4 52 642.5 48.1 642.5 44.2 642.5 41.1 639.4 41.1 635.5 41.1 631.6 48.1 621.5 48.1 621.5 48.1 621.5 55.1 631.7 55.1 635.5Z" stroke="#FFFFFF" fill="#0385AB"/><path d="M70.1 631.5C70.1 634.3 67.9 636.5 65.1 636.5 62.3 636.5 60.1 634.3 60.1 631.5 60.1 628.7 65.1 621.5 65.1 621.5 65.1 621.5 70.1 628.8 70.1 631.5Z" stroke="#FFFFFF" fill="#0385AB"/><path d="M36.1 631.5C36.1 634.3 33.9 636.5 31.1 636.5 28.3 636.5 26.1 634.3 26.1 631.5 26.1 628.7 31.1 621.5 31.1 621.5 31.1 621.5 36.1 628.8 36.1 631.5Z" stroke="#FFFFFF" fill="#0385AB"/><path d="M82.1 608C82.1 605.2 80.9 602.6 78.8 600.8 76.7 599 73.9 598.2 71.1 598.7L71.1 598.6C71.1 594.8 69.3 591.1 66.1 588.9 63 586.6 59 586 55.3 587.2 52.2 581.4 45.5 578.4 39.1 580 32.7 581.5 28.1 587.2 28 593.8 23.6 593 19.1 594.7 16.4 598.2 13.6 601.7 13 606.4 14.8 610.5 16.6 614.6 20.5 617.3 25 617.6L73 617.6C78.2 617.3 82.1 613.1 82.1 608Z" stroke="#FFFFFF" fill="#0385AB"/></g></svg>