<svg width="96" height="96" xmlns="http://www.w3.org/2000/svg" xmlns:xlink="http://www.w3.org/1999/xlink" xml:space="preserve" overflow="hidden"><defs><clipPath id="clip0"><rect x="868" y="371" width="96" height="96"/></clipPath></defs><g clip-path="url(#clip0)" transform="translate(-868 -371)"><path d="M923.1 443.5C923.1 447.4 920 450.5 916.1 450.5 912.2 450.5 909.1 447.4 909.1 443.5 909.1 439.6 916.1 429.5 916.1 429.5 916.1 429.5 923.1 439.7 923.1 443.5Z" stroke="#FFFFFF" fill="#B3BDF1"/><path d="M938.1 439.5C938.1 442.3 935.9 444.5 933.1 444.5 930.3 444.5 928.1 442.3 928.1 439.5 928.1 436.7 933.1 429.5 933.1 429.5 933.1 429.5 938.1 436.8 938.1 439.5Z" stroke="#FFFFFF" fill="#B3BDF1"/><path d="M904.1 439.5C904.1 442.3 901.9 444.5 899.1 444.5 896.3 444.5 894.1 442.3 894.1 439.5 894.1 436.7 899.1 429.5 899.1 429.5 899.1 429.5 904.1 436.8 904.1 439.5Z" stroke="#FFFFFF" fill="#B3BDF1"/><path d="M950.1 416C950.1 413.2 948.9 410.6 946.8 408.8 944.7 407 941.9 406.2 939.1 406.7L939.1 406.6C939.1 402.8 937.3 399.1 934.1 396.9 931 394.6 927 394 923.3 395.2 920.2 389.4 913.5 386.4 907.1 388 900.7 389.5 896.1 395.2 896 401.8 891.6 401 887.1 402.7 884.4 406.2 881.6 409.7 881 414.4 882.8 418.5 884.6 422.6 888.5 425.3 893 425.6L941 425.6C946.2 425.3 950.1 421.1 950.1 416Z" stroke="#FFFFFF" fill="#B3BDF1"/></g></svg>