<svg width="96" height="96" xmlns="http://www.w3.org/2000/svg" xmlns:xlink="http://www.w3.org/1999/xlink" xml:space="preserve" overflow="hidden"><defs><clipPath id="clip0"><rect x="868" y="467" width="96" height="96"/></clipPath></defs><g clip-path="url(#clip0)" transform="translate(-868 -467)"><path d="M923.1 539.5C923.1 543.4 920 546.5 916.1 546.5 912.2 546.5 909.1 543.4 909.1 539.5 909.1 535.6 916.1 525.5 916.1 525.5 916.1 525.5 923.1 535.7 923.1 539.5Z" stroke="#FFFFFF" fill="#4AF8FC"/><path d="M938.1 535.5C938.1 538.3 935.9 540.5 933.1 540.5 930.3 540.5 928.1 538.3 928.1 535.5 928.1 532.7 933.1 525.5 933.1 525.5 933.1 525.5 938.1 532.8 938.1 535.5Z" stroke="#FFFFFF" fill="#4AF8FC"/><path d="M904.1 535.5C904.1 538.3 901.9 540.5 899.1 540.5 896.3 540.5 894.1 538.3 894.1 535.5 894.1 532.7 899.1 525.5 899.1 525.5 899.1 525.5 904.1 532.8 904.1 535.5Z" stroke="#FFFFFF" fill="#4AF8FC"/><path d="M950.1 512C950.1 509.2 948.9 506.6 946.8 504.8 944.7 503 941.9 502.2 939.1 502.7L939.1 502.6C939.1 498.8 937.3 495.1 934.1 492.9 931 490.6 927 490 923.3 491.2 920.2 485.4 913.5 482.4 907.1 484 900.7 485.5 896.1 491.2 896 497.8 891.6 497 887.1 498.7 884.4 502.2 881.6 505.7 881 510.4 882.8 514.5 884.6 518.6 888.5 521.3 893 521.6L941 521.6C946.2 521.3 950.1 517.1 950.1 512Z" stroke="#FFFFFF" fill="#4AF8FC"/></g></svg>