<svg width="96" height="96" xmlns="http://www.w3.org/2000/svg" xmlns:xlink="http://www.w3.org/1999/xlink" xml:space="preserve" overflow="hidden"><defs><clipPath id="clip0"><rect x="573" y="0" width="96" height="96"/></clipPath></defs><g clip-path="url(#clip0)" transform="translate(-573 0)"><path d="M628.1 72.5C628.1 76.4 625 79.5 621.1 79.5 617.2 79.5 614.1 76.4 614.1 72.5 614.1 68.6 621.1 58.5 621.1 58.5 621.1 58.5 628.1 68.7 628.1 72.5Z" stroke="#FFFFFF" fill="#037DBA"/><path d="M643.1 68.5C643.1 71.3 640.9 73.5 638.1 73.5 635.3 73.5 633.1 71.3 633.1 68.5 633.1 65.7 638.1 58.5 638.1 58.5 638.1 58.5 643.1 65.8 643.1 68.5Z" stroke="#FFFFFF" fill="#037DBA"/><path d="M609.1 68.5C609.1 71.3 606.9 73.5 604.1 73.5 601.3 73.5 599.1 71.3 599.1 68.5 599.1 65.7 604.1 58.5 604.1 58.5 604.1 58.5 609.1 65.8 609.1 68.5Z" stroke="#FFFFFF" fill="#037DBA"/><path d="M655.1 45C655.1 42.2 653.9 39.6 651.8 37.8 649.7 36 646.9 35.2 644.1 35.7L644.1 35.6C644.1 31.8 642.3 28.1 639.1 25.9 636 23.6 632 23 628.3 24.2 625.2 18.4 618.5 15.4 612.1 17 605.7 18.5 601.1 24.2 601 30.8 596.6 30 592.1 31.7 589.4 35.2 586.6 38.7 586 43.4 587.8 47.5 589.6 51.6 593.5 54.3 598 54.6L646 54.6C651.2 54.3 655.1 50.1 655.1 45Z" stroke="#FFFFFF" fill="#037DBA"/></g></svg>