<svg width="96" height="96" xmlns="http://www.w3.org/2000/svg" xmlns:xlink="http://www.w3.org/1999/xlink" xml:space="preserve" overflow="hidden"><defs><clipPath id="clip0"><rect x="285" y="371" width="96" height="96"/></clipPath></defs><g clip-path="url(#clip0)" transform="translate(-285 -371)"><path d="M340.1 443.5C340.1 447.4 337 450.5 333.1 450.5 329.2 450.5 326.1 447.4 326.1 443.5 326.1 439.6 333.1 429.5 333.1 429.5 333.1 429.5 340.1 439.7 340.1 443.5Z" stroke="#FFFFFF" fill="#021EA8"/><path d="M355.1 439.5C355.1 442.3 352.9 444.5 350.1 444.5 347.3 444.5 345.1 442.3 345.1 439.5 345.1 436.7 350.1 429.5 350.1 429.5 350.1 429.5 355.1 436.8 355.1 439.5Z" stroke="#FFFFFF" fill="#021EA8"/><path d="M321.1 439.5C321.1 442.3 318.9 444.5 316.1 444.5 313.3 444.5 311.1 442.3 311.1 439.5 311.1 436.7 316.1 429.5 316.1 429.5 316.1 429.5 321.1 436.8 321.1 439.5Z" stroke="#FFFFFF" fill="#021EA8"/><path d="M367.1 416C367.1 413.2 365.9 410.6 363.8 408.8 361.7 407 358.9 406.2 356.1 406.7L356.1 406.6C356.1 402.8 354.3 399.1 351.1 396.9 348 394.6 344 394 340.3 395.2 337.2 389.4 330.5 386.4 324.1 388 317.7 389.5 313.1 395.2 313 401.8 308.6 401 304.1 402.7 301.4 406.2 298.6 409.7 298 414.4 299.8 418.5 301.6 422.6 305.5 425.3 310 425.6L358 425.6C363.2 425.3 367.1 421.1 367.1 416Z" stroke="#FFFFFF" fill="#021EA8"/></g></svg>