<svg width="96" height="96" xmlns="http://www.w3.org/2000/svg" xmlns:xlink="http://www.w3.org/1999/xlink" xml:space="preserve" overflow="hidden"><defs><clipPath id="clip0"><rect x="96" y="96" width="96" height="96"/></clipPath></defs><g clip-path="url(#clip0)" transform="translate(-96 -96)"><path d="M151.1 168.5C151.1 172.4 148 175.5 144.1 175.5 140.2 175.5 137.1 172.4 137.1 168.5 137.1 164.6 144.1 154.5 144.1 154.5 144.1 154.5 151.1 164.7 151.1 168.5Z" stroke="#FFFFFF" fill="#81BEDC"/><path d="M166.1 164.5C166.1 167.3 163.9 169.5 161.1 169.5 158.3 169.5 156.1 167.3 156.1 164.5 156.1 161.7 161.1 154.5 161.1 154.5 161.1 154.5 166.1 161.8 166.1 164.5Z" stroke="#FFFFFF" fill="#81BEDC"/><path d="M132.1 164.5C132.1 167.3 129.9 169.5 127.1 169.5 124.3 169.5 122.1 167.3 122.1 164.5 122.1 161.7 127.1 154.5 127.1 154.5 127.1 154.5 132.1 161.8 132.1 164.5Z" stroke="#FFFFFF" fill="#81BEDC"/><path d="M178.1 141C178.1 138.2 176.9 135.6 174.8 133.8 172.7 132 169.9 131.2 167.1 131.7L167.1 131.6C167.1 127.8 165.3 124.1 162.1 121.9 159 119.6 155 119 151.3 120.2 148.2 114.4 141.5 111.4 135.1 113 128.7 114.5 124.1 120.2 124 126.8 119.6 126 115.1 127.7 112.4 131.2 109.6 134.7 109 139.4 110.8 143.5 112.6 147.6 116.5 150.3 121 150.6L169 150.6C174.2 150.3 178.1 146.1 178.1 141Z" stroke="#FFFFFF" fill="#81BEDC"/></g></svg>