<svg width="96" height="96" xmlns="http://www.w3.org/2000/svg" xmlns:xlink="http://www.w3.org/1999/xlink" xml:space="preserve" overflow="hidden"><defs><clipPath id="clip0"><rect x="477" y="563" width="96" height="96"/></clipPath></defs><g clip-path="url(#clip0)" transform="translate(-477 -563)"><path d="M532.1 635.5C532.1 639.4 529 642.5 525.1 642.5 521.2 642.5 518.1 639.4 518.1 635.5 518.1 631.6 525.1 621.5 525.1 621.5 525.1 621.5 532.1 631.7 532.1 635.5Z" stroke="#FFFFFF" fill="#31CEFC"/><path d="M547.1 631.5C547.1 634.3 544.9 636.5 542.1 636.5 539.3 636.5 537.1 634.3 537.1 631.5 537.1 628.7 542.1 621.5 542.1 621.5 542.1 621.5 547.1 628.8 547.1 631.5Z" stroke="#FFFFFF" fill="#31CEFC"/><path d="M513.1 631.5C513.1 634.3 510.9 636.5 508.1 636.5 505.3 636.5 503.1 634.3 503.1 631.5 503.1 628.7 508.1 621.5 508.1 621.5 508.1 621.5 513.1 628.8 513.1 631.5Z" stroke="#FFFFFF" fill="#31CEFC"/><path d="M559.1 608C559.1 605.2 557.9 602.6 555.8 600.8 553.7 599 550.9 598.2 548.1 598.7L548.1 598.6C548.1 594.8 546.3 591.1 543.1 588.9 540 586.6 536 586 532.3 587.2 529.2 581.4 522.5 578.4 516.1 580 509.7 581.5 505.1 587.2 505 593.8 500.6 593 496.1 594.7 493.4 598.2 490.6 601.7 490 606.4 491.8 610.5 493.6 614.6 497.5 617.3 502 617.6L550 617.6C555.2 617.3 559.1 613.1 559.1 608Z" stroke="#FFFFFF" fill="#31CEFC"/></g></svg>