<svg width="96" height="96" xmlns="http://www.w3.org/2000/svg" xmlns:xlink="http://www.w3.org/1999/xlink" xml:space="preserve" overflow="hidden"><defs><clipPath id="clip0"><rect x="765" y="371" width="96" height="96"/></clipPath></defs><g clip-path="url(#clip0)" transform="translate(-765 -371)"><path d="M820.1 443.5C820.1 447.4 817 450.5 813.1 450.5 809.2 450.5 806.1 447.4 806.1 443.5 806.1 439.6 813.1 429.5 813.1 429.5 813.1 429.5 820.1 439.7 820.1 443.5Z" stroke="#FFFFFF" fill="#9AA8ED"/><path d="M835.1 439.5C835.1 442.3 832.9 444.5 830.1 444.5 827.3 444.5 825.1 442.3 825.1 439.5 825.1 436.7 830.1 429.5 830.1 429.5 830.1 429.5 835.1 436.8 835.1 439.5Z" stroke="#FFFFFF" fill="#9AA8ED"/><path d="M801.1 439.5C801.1 442.3 798.9 444.5 796.1 444.5 793.3 444.5 791.1 442.3 791.1 439.5 791.1 436.7 796.1 429.5 796.1 429.5 796.1 429.5 801.1 436.8 801.1 439.5Z" stroke="#FFFFFF" fill="#9AA8ED"/><path d="M847.1 416C847.1 413.2 845.9 410.6 843.8 408.8 841.7 407 838.9 406.2 836.1 406.7L836.1 406.6C836.1 402.8 834.3 399.1 831.1 396.9 828 394.6 824 394 820.3 395.2 817.2 389.4 810.5 386.4 804.1 388 797.7 389.5 793.1 395.2 793 401.8 788.6 401 784.1 402.7 781.4 406.2 778.6 409.7 778 414.4 779.8 418.5 781.6 422.6 785.5 425.3 790 425.6L838 425.6C843.2 425.3 847.1 421.1 847.1 416Z" stroke="#FFFFFF" fill="#9AA8ED"/></g></svg>