<svg width="96" height="96" xmlns="http://www.w3.org/2000/svg" xmlns:xlink="http://www.w3.org/1999/xlink" xml:space="preserve" overflow="hidden"><defs><clipPath id="clip0"><rect x="96" y="563" width="96" height="96"/></clipPath></defs><g clip-path="url(#clip0)" transform="translate(-96 -563)"><path d="M151.1 635.5C151.1 639.4 148 642.5 144.1 642.5 140.2 642.5 137.1 639.4 137.1 635.5 137.1 631.6 144.1 621.5 144.1 621.5 144.1 621.5 151.1 631.7 151.1 635.5Z" stroke="#FFFFFF" fill="#0398C4"/><path d="M166.1 631.5C166.1 634.3 163.9 636.5 161.1 636.5 158.3 636.5 156.1 634.3 156.1 631.5 156.1 628.7 161.1 621.5 161.1 621.5 161.1 621.5 166.1 628.8 166.1 631.5Z" stroke="#FFFFFF" fill="#0398C4"/><path d="M132.1 631.5C132.1 634.3 129.9 636.5 127.1 636.5 124.3 636.5 122.1 634.3 122.1 631.5 122.1 628.7 127.1 621.5 127.1 621.5 127.1 621.5 132.1 628.8 132.1 631.5Z" stroke="#FFFFFF" fill="#0398C4"/><path d="M178.1 608C178.1 605.2 176.9 602.6 174.8 600.8 172.7 599 169.9 598.2 167.1 598.7L167.1 598.6C167.1 594.8 165.3 591.1 162.1 588.9 159 586.6 155 586 151.3 587.2 148.2 581.4 141.5 578.4 135.1 580 128.7 581.5 124.1 587.2 124 593.8 119.6 593 115.1 594.7 112.4 598.2 109.6 601.7 109 606.4 110.8 610.5 112.6 614.6 116.5 617.3 121 617.6L169 617.6C174.2 617.3 178.1 613.1 178.1 608Z" stroke="#FFFFFF" fill="#0398C4"/></g></svg>