<svg width="96" height="96" xmlns="http://www.w3.org/2000/svg" xmlns:xlink="http://www.w3.org/1999/xlink" xml:space="preserve" overflow="hidden"><defs><clipPath id="clip0"><rect x="477" y="96" width="96" height="96"/></clipPath></defs><g clip-path="url(#clip0)" transform="translate(-477 -96)"><path d="M532.1 168.5C532.1 172.4 529 175.5 525.1 175.5 521.2 175.5 518.1 172.4 518.1 168.5 518.1 164.6 525.1 154.5 525.1 154.5 525.1 154.5 532.1 164.7 532.1 168.5Z" stroke="#FFFFFF" fill="#E5F2F8"/><path d="M547.1 164.5C547.1 167.3 544.9 169.5 542.1 169.5 539.3 169.5 537.1 167.3 537.1 164.5 537.1 161.7 542.1 154.5 542.1 154.5 542.1 154.5 547.1 161.8 547.1 164.5Z" stroke="#FFFFFF" fill="#E5F2F8"/><path d="M513.1 164.5C513.1 167.3 510.9 169.5 508.1 169.5 505.3 169.5 503.1 167.3 503.1 164.5 503.1 161.7 508.1 154.5 508.1 154.5 508.1 154.5 513.1 161.8 513.1 164.5Z" stroke="#FFFFFF" fill="#E5F2F8"/><path d="M559.1 141C559.1 138.2 557.9 135.6 555.8 133.8 553.7 132 550.9 131.2 548.1 131.7L548.1 131.6C548.1 127.8 546.3 124.1 543.1 121.9 540 119.6 536 119 532.3 120.2 529.2 114.4 522.5 111.4 516.1 113 509.7 114.5 505.1 120.2 505 126.8 500.6 126 496.1 127.7 493.4 131.2 490.6 134.7 490 139.4 491.8 143.5 493.6 147.6 497.5 150.3 502 150.6L550 150.6C555.2 150.3 559.1 146.1 559.1 141Z" stroke="#FFFFFF" fill="#E5F2F8"/></g></svg>