<svg width="96" height="96" xmlns="http://www.w3.org/2000/svg" xmlns:xlink="http://www.w3.org/1999/xlink" xml:space="preserve" overflow="hidden"><defs><clipPath id="clip0"><rect x="381" y="467" width="96" height="96"/></clipPath></defs><g clip-path="url(#clip0)" transform="translate(-381 -467)"><path d="M436.1 539.5C436.1 543.4 433 546.5 429.1 546.5 425.2 546.5 422.1 543.4 422.1 539.5 422.1 535.6 429.1 525.5 429.1 525.5 429.1 525.5 436.1 535.7 436.1 539.5Z" stroke="#FFFFFF" fill="#029093"/><path d="M451.1 535.5C451.1 538.3 448.9 540.5 446.1 540.5 443.3 540.5 441.1 538.3 441.1 535.5 441.1 532.7 446.1 525.5 446.1 525.5 446.1 525.5 451.1 532.8 451.1 535.5Z" stroke="#FFFFFF" fill="#029093"/><path d="M417.1 535.5C417.1 538.3 414.9 540.5 412.1 540.5 409.3 540.5 407.1 538.3 407.1 535.5 407.1 532.7 412.1 525.5 412.1 525.5 412.1 525.5 417.1 532.8 417.1 535.5Z" stroke="#FFFFFF" fill="#029093"/><path d="M463.1 512C463.1 509.2 461.9 506.6 459.8 504.8 457.7 503 454.9 502.2 452.1 502.7L452.1 502.6C452.1 498.8 450.3 495.1 447.1 492.9 444 490.6 440 490 436.3 491.2 433.2 485.4 426.5 482.4 420.1 484 413.7 485.5 409.1 491.2 409 497.8 404.6 497 400.1 498.7 397.4 502.2 394.6 505.7 394 510.4 395.8 514.5 397.6 518.6 401.5 521.3 406 521.6L454 521.6C459.2 521.3 463.1 517.1 463.1 512Z" stroke="#FFFFFF" fill="#029093"/></g></svg>