<svg width="96" height="96" xmlns="http://www.w3.org/2000/svg" xmlns:xlink="http://www.w3.org/1999/xlink" xml:space="preserve" overflow="hidden"><defs><clipPath id="clip0"><rect x="669" y="0" width="96" height="96"/></clipPath></defs><g clip-path="url(#clip0)" transform="translate(-669 0)"><path d="M724.1 72.5C724.1 76.4 721 79.5 717.1 79.5 713.2 79.5 710.1 76.4 710.1 72.5 710.1 68.6 717.1 58.5 717.1 58.5 717.1 58.5 724.1 68.7 724.1 72.5Z" stroke="#FFFFFF" fill="#1C8AC0"/><path d="M739.1 68.5C739.1 71.3 736.9 73.5 734.1 73.5 731.3 73.5 729.1 71.3 729.1 68.5 729.1 65.7 734.1 58.5 734.1 58.5 734.1 58.5 739.1 65.8 739.1 68.5Z" stroke="#FFFFFF" fill="#1C8AC0"/><path d="M705.1 68.5C705.1 71.3 702.9 73.5 700.1 73.5 697.3 73.5 695.1 71.3 695.1 68.5 695.1 65.7 700.1 58.5 700.1 58.5 700.1 58.5 705.1 65.8 705.1 68.5Z" stroke="#FFFFFF" fill="#1C8AC0"/><path d="M751.1 45C751.1 42.2 749.9 39.6 747.8 37.8 745.7 36 742.9 35.2 740.1 35.7L740.1 35.6C740.1 31.8 738.3 28.1 735.1 25.9 732 23.6 728 23 724.3 24.2 721.2 18.4 714.5 15.4 708.1 17 701.7 18.5 697.1 24.2 697 30.8 692.6 30 688.1 31.7 685.4 35.2 682.6 38.7 682 43.4 683.8 47.5 685.6 51.6 689.5 54.3 694 54.6L742 54.6C747.2 54.3 751.1 50.1 751.1 45Z" stroke="#FFFFFF" fill="#1C8AC0"/></g></svg>