<svg width="96" height="96" xmlns="http://www.w3.org/2000/svg" xmlns:xlink="http://www.w3.org/1999/xlink" xml:space="preserve" overflow="hidden"><defs><clipPath id="clip0"><rect x="381" y="96" width="96" height="96"/></clipPath></defs><g clip-path="url(#clip0)" transform="translate(-381 -96)"><path d="M436.1 168.5C436.1 172.4 433 175.5 429.1 175.5 425.2 175.5 422.1 172.4 422.1 168.5 422.1 164.6 429.1 154.5 429.1 154.5 429.1 154.5 436.1 164.7 436.1 168.5Z" stroke="#FFFFFF" fill="#CCE5F1"/><path d="M451.1 164.5C451.1 167.3 448.9 169.5 446.1 169.5 443.3 169.5 441.1 167.3 441.1 164.5 441.1 161.7 446.1 154.5 446.1 154.5 446.1 154.5 451.1 161.8 451.1 164.5Z" stroke="#FFFFFF" fill="#CCE5F1"/><path d="M417.1 164.5C417.1 167.3 414.9 169.5 412.1 169.5 409.3 169.5 407.1 167.3 407.1 164.5 407.1 161.7 412.1 154.5 412.1 154.5 412.1 154.5 417.1 161.8 417.1 164.5Z" stroke="#FFFFFF" fill="#CCE5F1"/><path d="M463.1 141C463.1 138.2 461.9 135.6 459.8 133.8 457.7 132 454.9 131.2 452.1 131.7L452.1 131.6C452.1 127.8 450.3 124.1 447.1 121.9 444 119.6 440 119 436.3 120.2 433.2 114.4 426.5 111.4 420.1 113 413.7 114.5 409.1 120.2 409 126.8 404.6 126 400.1 127.7 397.4 131.2 394.6 134.7 394 139.4 395.8 143.5 397.6 147.6 401.5 150.3 406 150.6L454 150.6C459.2 150.3 463.1 146.1 463.1 141Z" stroke="#FFFFFF" fill="#CCE5F1"/></g></svg>