<svg width="96" height="96" xmlns="http://www.w3.org/2000/svg" xmlns:xlink="http://www.w3.org/1999/xlink" xml:space="preserve" overflow="hidden"><defs><clipPath id="clip0"><rect x="381" y="179" width="96" height="96"/></clipPath></defs><g clip-path="url(#clip0)" transform="translate(-381 -179)"><path d="M436.1 251.5C436.1 255.4 433 258.5 429.1 258.5 425.2 258.5 422.1 255.4 422.1 251.5 422.1 247.6 429.1 237.5 429.1 237.5 429.1 237.5 436.1 247.7 436.1 251.5Z" stroke="#FFFFFF" fill="#049FEC"/><path d="M451.1 247.5C451.1 250.3 448.9 252.5 446.1 252.5 443.3 252.5 441.1 250.3 441.1 247.5 441.1 244.7 446.1 237.5 446.1 237.5 446.1 237.5 451.1 244.8 451.1 247.5Z" stroke="#FFFFFF" fill="#049FEC"/><path d="M417.1 247.5C417.1 250.3 414.9 252.5 412.1 252.5 409.3 252.5 407.1 250.3 407.1 247.5 407.1 244.7 412.1 237.5 412.1 237.5 412.1 237.5 417.1 244.8 417.1 247.5Z" stroke="#FFFFFF" fill="#049FEC"/><path d="M463.1 224C463.1 221.2 461.9 218.6 459.8 216.8 457.7 215 454.9 214.2 452.1 214.7L452.1 214.6C452.1 210.8 450.3 207.1 447.1 204.9 444 202.6 440 202 436.3 203.2 433.2 197.4 426.5 194.4 420.1 196 413.7 197.5 409.1 203.2 409 209.8 404.6 209 400.1 210.7 397.4 214.2 394.6 217.7 394 222.4 395.8 226.5 397.6 230.6 401.5 233.3 406 233.6L454 233.6C459.2 233.3 463.1 229.1 463.1 224Z" stroke="#FFFFFF" fill="#049FEC"/></g></svg>