<svg width="96" height="96" xmlns="http://www.w3.org/2000/svg" xmlns:xlink="http://www.w3.org/1999/xlink" xml:space="preserve" overflow="hidden"><defs><clipPath id="clip0"><rect x="669" y="179" width="96" height="96"/></clipPath></defs><g clip-path="url(#clip0)" transform="translate(-669 -179)"><path d="M724.1 251.5C724.1 255.4 721 258.5 717.1 258.5 713.2 258.5 710.1 255.4 710.1 251.5 710.1 247.6 717.1 237.5 717.1 237.5 717.1 237.5 724.1 247.7 724.1 251.5Z" stroke="#FFFFFF" fill="#3EBCFB"/><path d="M739.1 247.5C739.1 250.3 736.9 252.5 734.1 252.5 731.3 252.5 729.1 250.3 729.1 247.5 729.1 244.7 734.1 237.5 734.1 237.5 734.1 237.5 739.1 244.8 739.1 247.5Z" stroke="#FFFFFF" fill="#3EBCFB"/><path d="M705.1 247.5C705.1 250.3 702.9 252.5 700.1 252.5 697.3 252.5 695.1 250.3 695.1 247.5 695.1 244.7 700.1 237.5 700.1 237.5 700.1 237.5 705.1 244.8 705.1 247.5Z" stroke="#FFFFFF" fill="#3EBCFB"/><path d="M751.1 224C751.1 221.2 749.9 218.6 747.8 216.8 745.7 215 742.9 214.2 740.1 214.7L740.1 214.6C740.1 210.8 738.3 207.1 735.1 204.9 732 202.6 728 202 724.3 203.2 721.2 197.4 714.5 194.4 708.1 196 701.7 197.5 697.1 203.2 697 209.8 692.6 209 688.1 210.7 685.4 214.2 682.6 217.7 682 222.4 683.8 226.5 685.6 230.6 689.5 233.3 694 233.6L742 233.6C747.2 233.3 751.1 229.1 751.1 224Z" stroke="#FFFFFF" fill="#3EBCFB"/></g></svg>