<svg width="96" height="96" xmlns="http://www.w3.org/2000/svg" xmlns:xlink="http://www.w3.org/1999/xlink" xml:space="preserve" overflow="hidden"><defs><clipPath id="clip0"><rect x="192" y="96" width="96" height="96"/></clipPath></defs><g clip-path="url(#clip0)" transform="translate(-192 -96)"><path d="M247.1 168.5C247.1 172.4 244 175.5 240.1 175.5 236.2 175.5 233.1 172.4 233.1 168.5 233.1 164.6 240.1 154.5 240.1 154.5 240.1 154.5 247.1 164.7 247.1 168.5Z" stroke="#FFFFFF" fill="#9ACBE3"/><path d="M262.1 164.5C262.1 167.3 259.9 169.5 257.1 169.5 254.3 169.5 252.1 167.3 252.1 164.5 252.1 161.7 257.1 154.5 257.1 154.5 257.1 154.5 262.1 161.8 262.1 164.5Z" stroke="#FFFFFF" fill="#9ACBE3"/><path d="M228.1 164.5C228.1 167.3 225.9 169.5 223.1 169.5 220.3 169.5 218.1 167.3 218.1 164.5 218.1 161.7 223.1 154.5 223.1 154.5 223.1 154.5 228.1 161.8 228.1 164.5Z" stroke="#FFFFFF" fill="#9ACBE3"/><path d="M274.1 141C274.1 138.2 272.9 135.6 270.8 133.8 268.7 132 265.9 131.2 263.1 131.7L263.1 131.6C263.1 127.8 261.3 124.1 258.1 121.9 255 119.6 251 119 247.3 120.2 244.2 114.4 237.5 111.4 231.1 113 224.7 114.5 220.1 120.2 220 126.8 215.6 126 211.1 127.7 208.4 131.2 205.6 134.7 205 139.4 206.8 143.5 208.6 147.6 212.5 150.3 217 150.6L265 150.6C270.2 150.3 274.1 146.1 274.1 141Z" stroke="#FFFFFF" fill="#9ACBE3"/></g></svg>