<svg width="96" height="96" xmlns="http://www.w3.org/2000/svg" xmlns:xlink="http://www.w3.org/1999/xlink" xml:space="preserve" overflow="hidden"><defs><clipPath id="clip0"><rect x="96" y="0" width="96" height="96"/></clipPath></defs><g clip-path="url(#clip0)" transform="translate(-96 0)"><path d="M151.1 72.5C151.1 76.4 148 79.5 144.1 79.5 140.2 79.5 137.1 76.4 137.1 72.5 137.1 68.6 144.1 58.5 144.1 58.5 144.1 58.5 151.1 68.7 151.1 72.5Z" stroke="#FFFFFF" fill="#013E5D"/><path d="M166.1 68.5C166.1 71.3 163.9 73.5 161.1 73.5 158.3 73.5 156.1 71.3 156.1 68.5 156.1 65.7 161.1 58.5 161.1 58.5 161.1 58.5 166.1 65.8 166.1 68.5Z" stroke="#FFFFFF" fill="#013E5D"/><path d="M132.1 68.5C132.1 71.3 129.9 73.5 127.1 73.5 124.3 73.5 122.1 71.3 122.1 68.5 122.1 65.7 127.1 58.5 127.1 58.5 127.1 58.5 132.1 65.8 132.1 68.5Z" stroke="#FFFFFF" fill="#013E5D"/><path d="M178.1 45C178.1 42.2 176.9 39.6 174.8 37.8 172.7 36 169.9 35.2 167.1 35.7L167.1 35.6C167.1 31.8 165.3 28.1 162.1 25.9 159 23.6 155 23 151.3 24.2 148.2 18.4 141.5 15.4 135.1 17 128.7 18.5 124.1 24.2 124 30.8 119.6 30 115.1 31.7 112.4 35.2 109.6 38.7 109 43.4 110.8 47.5 112.6 51.6 116.5 54.3 121 54.6L169 54.6C174.2 54.3 178.1 50.1 178.1 45Z" stroke="#FFFFFF" fill="#013E5D"/></g></svg>