<svg width="96" height="96" xmlns="http://www.w3.org/2000/svg" xmlns:xlink="http://www.w3.org/1999/xlink" xml:space="preserve" overflow="hidden"><defs><clipPath id="clip0"><rect x="96" y="275" width="96" height="96"/></clipPath></defs><g clip-path="url(#clip0)" transform="translate(-96 -275)"><path d="M151.1 347.5C151.1 351.4 148 354.5 144.1 354.5 140.2 354.5 137.1 351.4 137.1 347.5 137.1 343.6 144.1 333.5 144.1 333.5 144.1 333.5 151.1 343.7 151.1 347.5Z" stroke="#FFFFFF" fill="#9EDDFD"/><path d="M166.1 343.5C166.1 346.3 163.9 348.5 161.1 348.5 158.3 348.5 156.1 346.3 156.1 343.5 156.1 340.7 161.1 333.5 161.1 333.5 161.1 333.5 166.1 340.8 166.1 343.5Z" stroke="#FFFFFF" fill="#9EDDFD"/><path d="M132.1 343.5C132.1 346.3 129.9 348.5 127.1 348.5 124.3 348.5 122.1 346.3 122.1 343.5 122.1 340.7 127.1 333.5 127.1 333.5 127.1 333.5 132.1 340.8 132.1 343.5Z" stroke="#FFFFFF" fill="#9EDDFD"/><path d="M178.1 320C178.1 317.2 176.9 314.6 174.8 312.8 172.7 311 169.9 310.2 167.1 310.7L167.1 310.6C167.1 306.8 165.3 303.1 162.1 300.9 159 298.6 155 298 151.3 299.2 148.2 293.4 141.5 290.4 135.1 292 128.7 293.5 124.1 299.2 124 305.8 119.6 305 115.1 306.7 112.4 310.2 109.6 313.7 109 318.4 110.8 322.5 112.6 326.6 116.5 329.3 121 329.6L169 329.6C174.2 329.3 178.1 325.1 178.1 320Z" stroke="#FFFFFF" fill="#9EDDFD"/></g></svg>