<svg width="96" height="96" xmlns="http://www.w3.org/2000/svg" xmlns:xlink="http://www.w3.org/1999/xlink" xml:space="preserve" overflow="hidden"><defs><clipPath id="clip0"><rect x="477" y="371" width="96" height="96"/></clipPath></defs><g clip-path="url(#clip0)" transform="translate(-477 -371)"><path d="M532.1 443.5C532.1 447.4 529 450.5 525.1 450.5 521.2 450.5 518.1 447.4 518.1 443.5 518.1 439.6 525.1 429.5 525.1 429.5 525.1 429.5 532.1 439.7 532.1 443.5Z" stroke="#FFFFFF" fill="#3551DB"/><path d="M547.1 439.5C547.1 442.3 544.9 444.5 542.1 444.5 539.3 444.5 537.1 442.3 537.1 439.5 537.1 436.7 542.1 429.5 542.1 429.5 542.1 429.5 547.1 436.8 547.1 439.5Z" stroke="#FFFFFF" fill="#3551DB"/><path d="M513.1 439.5C513.1 442.3 510.9 444.5 508.1 444.5 505.3 444.5 503.1 442.3 503.1 439.5 503.1 436.7 508.1 429.5 508.1 429.5 508.1 429.5 513.1 436.8 513.1 439.5Z" stroke="#FFFFFF" fill="#3551DB"/><path d="M559.1 416C559.1 413.2 557.9 410.6 555.8 408.8 553.7 407 550.9 406.2 548.1 406.7L548.1 406.6C548.1 402.8 546.3 399.1 543.1 396.9 540 394.6 536 394 532.3 395.2 529.2 389.4 522.5 386.4 516.1 388 509.7 389.5 505.1 395.2 505 401.8 500.6 401 496.1 402.7 493.4 406.2 490.6 409.7 490 414.4 491.8 418.5 493.6 422.6 497.5 425.3 502 425.6L550 425.6C555.2 425.3 559.1 421.1 559.1 416Z" stroke="#FFFFFF" fill="#3551DB"/></g></svg>