<svg width="96" height="96" xmlns="http://www.w3.org/2000/svg" xmlns:xlink="http://www.w3.org/1999/xlink" xml:space="preserve" overflow="hidden"><defs><clipPath id="clip0"><rect x="285" y="179" width="96" height="96"/></clipPath></defs><g clip-path="url(#clip0)" transform="translate(-285 -179)"><path d="M340.1 251.5C340.1 255.4 337 258.5 333.1 258.5 329.2 258.5 326.1 255.4 326.1 251.5 326.1 247.6 333.1 237.5 333.1 237.5 333.1 237.5 340.1 247.7 340.1 251.5Z" stroke="#FFFFFF" fill="#038ED3"/><path d="M355.1 247.5C355.1 250.3 352.9 252.5 350.1 252.5 347.3 252.5 345.1 250.3 345.1 247.5 345.1 244.7 350.1 237.5 350.1 237.5 350.1 237.5 355.1 244.8 355.1 247.5Z" stroke="#FFFFFF" fill="#038ED3"/><path d="M321.1 247.5C321.1 250.3 318.9 252.5 316.1 252.5 313.3 252.5 311.1 250.3 311.1 247.5 311.1 244.7 316.1 237.5 316.1 237.5 316.1 237.5 321.1 244.8 321.1 247.5Z" stroke="#FFFFFF" fill="#038ED3"/><path d="M367.1 224C367.1 221.2 365.9 218.6 363.8 216.8 361.7 215 358.9 214.2 356.1 214.7L356.1 214.6C356.1 210.8 354.3 207.1 351.1 204.9 348 202.6 344 202 340.3 203.2 337.2 197.4 330.5 194.4 324.1 196 317.7 197.5 313.1 203.2 313 209.8 308.6 209 304.1 210.7 301.4 214.2 298.6 217.7 298 222.4 299.8 226.5 301.6 230.6 305.5 233.3 310 233.6L358 233.6C363.2 233.3 367.1 229.1 367.1 224Z" stroke="#FFFFFF" fill="#038ED3"/></g></svg>