<svg width="96" height="96" xmlns="http://www.w3.org/2000/svg" xmlns:xlink="http://www.w3.org/1999/xlink" xml:space="preserve" overflow="hidden"><defs><clipPath id="clip0"><rect x="192" y="563" width="96" height="96"/></clipPath></defs><g clip-path="url(#clip0)" transform="translate(-192 -563)"><path d="M247.1 635.5C247.1 639.4 244 642.5 240.1 642.5 236.2 642.5 233.1 639.4 233.1 635.5 233.1 631.6 240.1 621.5 240.1 621.5 240.1 621.5 247.1 631.7 247.1 635.5Z" stroke="#FFFFFF" fill="#04ACDD"/><path d="M262.1 631.5C262.1 634.3 259.9 636.5 257.1 636.5 254.3 636.5 252.1 634.3 252.1 631.5 252.1 628.7 257.1 621.5 257.1 621.5 257.1 621.5 262.1 628.8 262.1 631.5Z" stroke="#FFFFFF" fill="#04ACDD"/><path d="M228.1 631.5C228.1 634.3 225.9 636.5 223.1 636.5 220.3 636.5 218.1 634.3 218.1 631.5 218.1 628.7 223.1 621.5 223.1 621.5 223.1 621.5 228.1 628.8 228.1 631.5Z" stroke="#FFFFFF" fill="#04ACDD"/><path d="M274.1 608C274.1 605.2 272.9 602.6 270.8 600.8 268.7 599 265.9 598.2 263.1 598.7L263.1 598.6C263.1 594.8 261.3 591.1 258.1 588.9 255 586.6 251 586 247.3 587.2 244.2 581.4 237.5 578.4 231.1 580 224.7 581.5 220.1 587.2 220 593.8 215.6 593 211.1 594.7 208.4 598.2 205.6 601.7 205 606.4 206.8 610.5 208.6 614.6 212.5 617.3 217 617.6L265 617.6C270.2 617.3 274.1 613.1 274.1 608Z" stroke="#FFFFFF" fill="#04ACDD"/></g></svg>