<svg width="96" height="96" xmlns="http://www.w3.org/2000/svg" xmlns:xlink="http://www.w3.org/1999/xlink" xml:space="preserve" overflow="hidden"><defs><clipPath id="clip0"><rect x="192" y="275" width="96" height="96"/></clipPath></defs><g clip-path="url(#clip0)" transform="translate(-192 -275)"><path d="M247.1 347.5C247.1 351.4 244 354.5 240.1 354.5 236.2 354.5 233.1 351.4 233.1 347.5 233.1 343.6 240.1 333.5 240.1 333.5 240.1 333.5 247.1 343.7 247.1 347.5Z" stroke="#FFFFFF" fill="#9EDDFD"/><path d="M262.1 343.5C262.1 346.3 259.9 348.5 257.1 348.5 254.3 348.5 252.1 346.3 252.1 343.5 252.1 340.7 257.1 333.5 257.1 333.5 257.1 333.5 262.1 340.8 262.1 343.5Z" stroke="#FFFFFF" fill="#9EDDFD"/><path d="M228.1 343.5C228.1 346.3 225.9 348.5 223.1 348.5 220.3 348.5 218.1 346.3 218.1 343.5 218.1 340.7 223.1 333.5 223.1 333.5 223.1 333.5 228.1 340.8 228.1 343.5Z" stroke="#FFFFFF" fill="#9EDDFD"/><path d="M274.1 320C274.1 317.2 272.9 314.6 270.8 312.8 268.7 311 265.9 310.2 263.1 310.7L263.1 310.6C263.1 306.8 261.3 303.1 258.1 300.9 255 298.6 251 298 247.3 299.2 244.2 293.4 237.5 290.4 231.1 292 224.7 293.5 220.1 299.2 220 305.8 215.6 305 211.1 306.7 208.4 310.2 205.6 313.7 205 318.4 206.8 322.5 208.6 326.6 212.5 329.3 217 329.6L265 329.6C270.2 329.3 274.1 325.1 274.1 320Z" stroke="#FFFFFF" fill="#9EDDFD"/></g></svg>