<svg width="96" height="96" xmlns="http://www.w3.org/2000/svg" xmlns:xlink="http://www.w3.org/1999/xlink" xml:space="preserve" overflow="hidden"><defs><clipPath id="clip0"><rect x="765" y="0" width="96" height="96"/></clipPath></defs><g clip-path="url(#clip0)" transform="translate(-765 0)"><path d="M820.1 72.5C820.1 76.4 817 79.5 813.1 79.5 809.2 79.5 806.1 76.4 806.1 72.5 806.1 68.6 813.1 58.5 813.1 58.5 813.1 58.5 820.1 68.7 820.1 72.5Z" stroke="#FFFFFF" fill="#3597C7"/><path d="M835.1 68.5C835.1 71.3 832.9 73.5 830.1 73.5 827.3 73.5 825.1 71.3 825.1 68.5 825.1 65.7 830.1 58.5 830.1 58.5 830.1 58.5 835.1 65.8 835.1 68.5Z" stroke="#FFFFFF" fill="#3597C7"/><path d="M801.1 68.5C801.1 71.3 798.9 73.5 796.1 73.5 793.3 73.5 791.1 71.3 791.1 68.5 791.1 65.7 796.1 58.5 796.1 58.5 796.1 58.5 801.1 65.8 801.1 68.5Z" stroke="#FFFFFF" fill="#3597C7"/><path d="M847.1 45C847.1 42.2 845.9 39.6 843.8 37.8 841.7 36 838.9 35.2 836.1 35.7L836.1 35.6C836.1 31.8 834.3 28.1 831.1 25.9 828 23.6 824 23 820.3 24.2 817.2 18.4 810.5 15.4 804.1 17 797.7 18.5 793.1 24.2 793 30.8 788.6 30 784.1 31.7 781.4 35.2 778.6 38.7 778 43.4 779.8 47.5 781.6 51.6 785.5 54.3 790 54.6L838 54.6C843.2 54.3 847.1 50.1 847.1 45Z" stroke="#FFFFFF" fill="#3597C7"/></g></svg>