<svg width="96" height="96" xmlns="http://www.w3.org/2000/svg" xmlns:xlink="http://www.w3.org/1999/xlink" xml:space="preserve" overflow="hidden"><defs><clipPath id="clip0"><rect x="381" y="0" width="96" height="96"/></clipPath></defs><g clip-path="url(#clip0)" transform="translate(-381 0)"><path d="M436.1 72.5C436.1 76.4 433 79.5 429.1 79.5 425.2 79.5 422.1 76.4 422.1 72.5 422.1 68.6 429.1 58.5 429.1 58.5 429.1 58.5 436.1 68.7 436.1 72.5Z" stroke="#FFFFFF" fill="#026494"/><path d="M451.1 68.5C451.1 71.3 448.9 73.5 446.1 73.5 443.3 73.5 441.1 71.3 441.1 68.5 441.1 65.7 446.1 58.5 446.1 58.5 446.1 58.5 451.1 65.8 451.1 68.5Z" stroke="#FFFFFF" fill="#026494"/><path d="M417.1 68.5C417.1 71.3 414.9 73.5 412.1 73.5 409.3 73.5 407.1 71.3 407.1 68.5 407.1 65.7 412.1 58.5 412.1 58.5 412.1 58.5 417.1 65.8 417.1 68.5Z" stroke="#FFFFFF" fill="#026494"/><path d="M463.1 45C463.1 42.2 461.9 39.6 459.8 37.8 457.7 36 454.9 35.2 452.1 35.7L452.1 35.6C452.1 31.8 450.3 28.1 447.1 25.9 444 23.6 440 23 436.3 24.2 433.2 18.4 426.5 15.4 420.1 17 413.7 18.5 409.1 24.2 409 30.8 404.6 30 400.1 31.7 397.4 35.2 394.6 38.7 394 43.4 395.8 47.5 397.6 51.6 401.5 54.3 406 54.6L454 54.6C459.2 54.3 463.1 50.1 463.1 45Z" stroke="#FFFFFF" fill="#026494"/></g></svg>