<svg width="96" height="96" xmlns="http://www.w3.org/2000/svg" xmlns:xlink="http://www.w3.org/1999/xlink" xml:space="preserve" overflow="hidden"><defs><clipPath id="clip0"><rect x="765" y="179" width="96" height="96"/></clipPath></defs><g clip-path="url(#clip0)" transform="translate(-765 -179)"><path d="M820.1 251.5C820.1 255.4 817 258.5 813.1 258.5 809.2 258.5 806.1 255.4 806.1 251.5 806.1 247.6 813.1 237.5 813.1 237.5 813.1 237.5 820.1 247.7 820.1 251.5Z" stroke="#FFFFFF" fill="#56C4FC"/><path d="M835.1 247.5C835.1 250.3 832.9 252.5 830.1 252.5 827.3 252.5 825.1 250.3 825.1 247.5 825.1 244.7 830.1 237.5 830.1 237.5 830.1 237.5 835.1 244.8 835.1 247.5Z" stroke="#FFFFFF" fill="#56C4FC"/><path d="M801.1 247.5C801.1 250.3 798.9 252.5 796.1 252.5 793.3 252.5 791.1 250.3 791.1 247.5 791.1 244.7 796.1 237.5 796.1 237.5 796.1 237.5 801.1 244.8 801.1 247.5Z" stroke="#FFFFFF" fill="#56C4FC"/><path d="M847.1 224C847.1 221.2 845.9 218.6 843.8 216.8 841.7 215 838.9 214.2 836.1 214.7L836.1 214.6C836.1 210.8 834.3 207.1 831.1 204.9 828 202.6 824 202 820.3 203.2 817.2 197.4 810.5 194.4 804.1 196 797.7 197.5 793.1 203.2 793 209.8 788.6 209 784.1 210.7 781.4 214.2 778.6 217.7 778 222.4 779.8 226.5 781.6 230.6 785.5 233.3 790 233.6L838 233.6C843.2 233.3 847.1 229.1 847.1 224Z" stroke="#FFFFFF" fill="#56C4FC"/></g></svg>