<svg width="96" height="96" xmlns="http://www.w3.org/2000/svg" xmlns:xlink="http://www.w3.org/1999/xlink" xml:space="preserve" overflow="hidden"><defs><clipPath id="clip0"><rect x="573" y="371" width="96" height="96"/></clipPath></defs><g clip-path="url(#clip0)" transform="translate(-573 -371)"><path d="M628.1 443.5C628.1 447.4 625 450.5 621.1 450.5 617.2 450.5 614.1 447.4 614.1 443.5 614.1 439.6 621.1 429.5 621.1 429.5 621.1 429.5 628.1 439.7 628.1 443.5Z" stroke="#FFFFFF" fill="#4E67E0"/><path d="M643.1 439.5C643.1 442.3 640.9 444.5 638.1 444.5 635.3 444.5 633.1 442.3 633.1 439.5 633.1 436.7 638.1 429.5 638.1 429.5 638.1 429.5 643.1 436.8 643.1 439.5Z" stroke="#FFFFFF" fill="#4E67E0"/><path d="M609.1 439.5C609.1 442.3 606.9 444.5 604.1 444.5 601.3 444.5 599.1 442.3 599.1 439.5 599.1 436.7 604.1 429.5 604.1 429.5 604.1 429.5 609.1 436.8 609.1 439.5Z" stroke="#FFFFFF" fill="#4E67E0"/><path d="M655.1 416C655.1 413.2 653.9 410.6 651.8 408.8 649.7 407 646.9 406.2 644.1 406.7L644.1 406.6C644.1 402.8 642.3 399.1 639.1 396.9 636 394.6 632 394 628.3 395.2 625.2 389.4 618.5 386.4 612.1 388 605.7 389.5 601.1 395.2 601 401.8 596.6 401 592.1 402.7 589.4 406.2 586.6 409.7 586 414.4 587.8 418.5 589.6 422.6 593.5 425.3 598 425.6L646 425.6C651.2 425.3 655.1 421.1 655.1 416Z" stroke="#FFFFFF" fill="#4E67E0"/></g></svg>