<svg width="96" height="96" xmlns="http://www.w3.org/2000/svg" xmlns:xlink="http://www.w3.org/1999/xlink" xml:space="preserve" overflow="hidden"><defs><clipPath id="clip0"><rect x="573" y="467" width="96" height="96"/></clipPath></defs><g clip-path="url(#clip0)" transform="translate(-573 -467)"><path d="M628.1 539.5C628.1 543.4 625 546.5 621.1 546.5 617.2 546.5 614.1 543.4 614.1 539.5 614.1 535.6 621.1 525.5 621.1 525.5 621.1 525.5 628.1 535.7 628.1 539.5Z" stroke="#FFFFFF" fill="#03BFC4"/><path d="M643.1 535.5C643.1 538.3 640.9 540.5 638.1 540.5 635.3 540.5 633.1 538.3 633.1 535.5 633.1 532.7 638.1 525.5 638.1 525.5 638.1 525.5 643.1 532.8 643.1 535.5Z" stroke="#FFFFFF" fill="#03BFC4"/><path d="M609.1 535.5C609.1 538.3 606.9 540.5 604.1 540.5 601.3 540.5 599.1 538.3 599.1 535.5 599.1 532.7 604.1 525.5 604.1 525.5 604.1 525.5 609.1 532.8 609.1 535.5Z" stroke="#FFFFFF" fill="#03BFC4"/><path d="M655.1 512C655.1 509.2 653.9 506.6 651.8 504.8 649.7 503 646.9 502.2 644.1 502.7L644.1 502.6C644.1 498.8 642.3 495.1 639.1 492.9 636 490.6 632 490 628.3 491.2 625.2 485.4 618.5 482.4 612.1 484 605.7 485.5 601.1 491.2 601 497.8 596.6 497 592.1 498.7 589.4 502.2 586.6 505.7 586 510.4 587.8 514.5 589.6 518.6 593.5 521.3 598 521.6L646 521.6C651.2 521.3 655.1 517.1 655.1 512Z" stroke="#FFFFFF" fill="#03BFC4"/></g></svg>