<svg width="96" height="96" xmlns="http://www.w3.org/2000/svg" xmlns:xlink="http://www.w3.org/1999/xlink" xml:space="preserve" overflow="hidden"><defs><clipPath id="clip0"><rect x="765" y="467" width="96" height="96"/></clipPath></defs><g clip-path="url(#clip0)" transform="translate(-765 -467)"><path d="M820.1 539.5C820.1 543.4 817 546.5 813.1 546.5 809.2 546.5 806.1 543.4 806.1 539.5 806.1 535.6 813.1 525.5 813.1 525.5 813.1 525.5 820.1 535.7 820.1 539.5Z" stroke="#FFFFFF" fill="#18F6FB"/><path d="M835.1 535.5C835.1 538.3 832.9 540.5 830.1 540.5 827.3 540.5 825.1 538.3 825.1 535.5 825.1 532.7 830.1 525.5 830.1 525.5 830.1 525.5 835.1 532.8 835.1 535.5Z" stroke="#FFFFFF" fill="#18F6FB"/><path d="M801.1 535.5C801.1 538.3 798.9 540.5 796.1 540.5 793.3 540.5 791.1 538.3 791.1 535.5 791.1 532.7 796.1 525.5 796.1 525.5 796.1 525.5 801.1 532.8 801.1 535.5Z" stroke="#FFFFFF" fill="#18F6FB"/><path d="M847.1 512C847.1 509.2 845.9 506.6 843.8 504.8 841.7 503 838.9 502.2 836.1 502.7L836.1 502.6C836.1 498.8 834.3 495.1 831.1 492.9 828 490.6 824 490 820.3 491.2 817.2 485.4 810.5 482.4 804.1 484 797.7 485.5 793.1 491.2 793 497.8 788.6 497 784.1 498.7 781.4 502.2 778.6 505.7 778 510.4 779.8 514.5 781.6 518.6 785.5 521.3 790 521.6L838 521.6C843.2 521.3 847.1 517.1 847.1 512Z" stroke="#FFFFFF" fill="#18F6FB"/></g></svg>