<svg width="96" height="96" xmlns="http://www.w3.org/2000/svg" xmlns:xlink="http://www.w3.org/1999/xlink" xml:space="preserve" overflow="hidden"><defs><clipPath id="clip0"><rect x="285" y="96" width="96" height="96"/></clipPath></defs><g clip-path="url(#clip0)" transform="translate(-285 -96)"><path d="M340.1 168.5C340.1 172.4 337 175.5 333.1 175.5 329.2 175.5 326.1 172.4 326.1 168.5 326.1 164.6 333.1 154.5 333.1 154.5 333.1 154.5 340.1 164.7 340.1 168.5Z" stroke="#FFFFFF" fill="#B3D8EA"/><path d="M355.1 164.5C355.1 167.3 352.9 169.5 350.1 169.5 347.3 169.5 345.1 167.3 345.1 164.5 345.1 161.7 350.1 154.5 350.1 154.5 350.1 154.5 355.1 161.8 355.1 164.5Z" stroke="#FFFFFF" fill="#B3D8EA"/><path d="M321.1 164.5C321.1 167.3 318.9 169.5 316.1 169.5 313.3 169.5 311.1 167.3 311.1 164.5 311.1 161.7 316.1 154.5 316.1 154.5 316.1 154.5 321.1 161.8 321.1 164.5Z" stroke="#FFFFFF" fill="#B3D8EA"/><path d="M367.1 141C367.1 138.2 365.9 135.6 363.8 133.8 361.7 132 358.9 131.2 356.1 131.7L356.1 131.6C356.1 127.8 354.3 124.1 351.1 121.9 348 119.6 344 119 340.3 120.2 337.2 114.4 330.5 111.4 324.1 113 317.7 114.5 313.1 120.2 313 126.8 308.6 126 304.1 127.7 301.4 131.2 298.6 134.7 298 139.4 299.8 143.5 301.6 147.6 305.5 150.3 310 150.6L358 150.6C363.2 150.3 367.1 146.1 367.1 141Z" stroke="#FFFFFF" fill="#B3D8EA"/></g></svg>