<svg width="96" height="96" xmlns="http://www.w3.org/2000/svg" xmlns:xlink="http://www.w3.org/1999/xlink" xml:space="preserve" overflow="hidden"><defs><clipPath id="clip0"><rect x="669" y="563" width="96" height="96"/></clipPath></defs><g clip-path="url(#clip0)" transform="translate(-669 -563)"><path d="M724.1 635.5C724.1 639.4 721 642.5 717.1 642.5 713.2 642.5 710.1 639.4 710.1 635.5 710.1 631.6 717.1 621.5 717.1 621.5 717.1 621.5 724.1 631.7 724.1 635.5Z" stroke="#FFFFFF" fill="#4AD4FC"/><path d="M739.1 631.5C739.1 634.3 736.9 636.5 734.1 636.5 731.3 636.5 729.1 634.3 729.1 631.5 729.1 628.7 734.1 621.5 734.1 621.5 734.1 621.5 739.1 628.8 739.1 631.5Z" stroke="#FFFFFF" fill="#4AD4FC"/><path d="M705.1 631.5C705.1 634.3 702.9 636.5 700.1 636.5 697.3 636.5 695.1 634.3 695.1 631.5 695.1 628.7 700.1 621.5 700.1 621.5 700.1 621.5 705.1 628.8 705.1 631.5Z" stroke="#FFFFFF" fill="#4AD4FC"/><path d="M751.1 608C751.1 605.2 749.9 602.6 747.8 600.8 745.7 599 742.9 598.2 740.1 598.7L740.1 598.6C740.1 594.8 738.3 591.1 735.1 588.9 732 586.6 728 586 724.3 587.2 721.2 581.4 714.5 578.4 708.1 580 701.7 581.5 697.1 587.2 697 593.8 692.6 593 688.1 594.7 685.4 598.2 682.6 601.7 682 606.4 683.8 610.5 685.6 614.6 689.5 617.3 694 617.6L742 617.6C747.2 617.3 751.1 613.1 751.1 608Z" stroke="#FFFFFF" fill="#4AD4FC"/></g></svg>