<svg width="96" height="96" xmlns="http://www.w3.org/2000/svg" xmlns:xlink="http://www.w3.org/1999/xlink" xml:space="preserve" overflow="hidden"><defs><clipPath id="clip0"><rect x="96" y="179" width="96" height="96"/></clipPath></defs><g clip-path="url(#clip0)" transform="translate(-96 -179)"><path d="M151.1 251.5C151.1 255.4 148 258.5 144.1 258.5 140.2 258.5 137.1 255.4 137.1 251.5 137.1 247.6 144.1 237.5 144.1 237.5 144.1 237.5 151.1 247.7 151.1 251.5Z" stroke="#FFFFFF" fill="#025B88"/><path d="M166.1 247.5C166.1 250.3 163.9 252.5 161.1 252.5 158.3 252.5 156.1 250.3 156.1 247.5 156.1 244.7 161.1 237.5 161.1 237.5 161.1 237.5 166.1 244.8 166.1 247.5Z" stroke="#FFFFFF" fill="#025B88"/><path d="M132.1 247.5C132.1 250.3 129.9 252.5 127.1 252.5 124.3 252.5 122.1 250.3 122.1 247.5 122.1 244.7 127.1 237.5 127.1 237.5 127.1 237.5 132.1 244.8 132.1 247.5Z" stroke="#FFFFFF" fill="#025B88"/><path d="M178.1 224C178.1 221.2 176.9 218.6 174.8 216.8 172.7 215 169.9 214.2 167.1 214.7L167.1 214.6C167.1 210.8 165.3 207.1 162.1 204.9 159 202.6 155 202 151.3 203.2 148.2 197.4 141.5 194.4 135.1 196 128.7 197.5 124.1 203.2 124 209.8 119.6 209 115.1 210.7 112.4 214.2 109.6 217.7 109 222.4 110.8 226.5 112.6 230.6 116.5 233.3 121 233.6L169 233.6C174.2 233.3 178.1 229.1 178.1 224Z" stroke="#FFFFFF" fill="#025B88"/></g></svg>