<svg width="96" height="96" xmlns="http://www.w3.org/2000/svg" xmlns:xlink="http://www.w3.org/1999/xlink" xml:space="preserve" overflow="hidden"><defs><clipPath id="clip0"><rect x="669" y="467" width="96" height="96"/></clipPath></defs><g clip-path="url(#clip0)" transform="translate(-669 -467)"><path d="M724.1 539.5C724.1 543.4 721 546.5 717.1 546.5 713.2 546.5 710.1 543.4 710.1 539.5 710.1 535.6 717.1 525.5 717.1 525.5 717.1 525.5 724.1 535.7 724.1 539.5Z" stroke="#FFFFFF" fill="#04F0F6"/><path d="M739.1 535.5C739.1 538.3 736.9 540.5 734.1 540.5 731.3 540.5 729.1 538.3 729.1 535.5 729.1 532.7 734.1 525.5 734.1 525.5 734.1 525.5 739.1 532.8 739.1 535.5Z" stroke="#FFFFFF" fill="#04F0F6"/><path d="M705.1 535.5C705.1 538.3 702.9 540.5 700.1 540.5 697.3 540.5 695.1 538.3 695.1 535.5 695.1 532.7 700.1 525.5 700.1 525.5 700.1 525.5 705.1 532.8 705.1 535.5Z" stroke="#FFFFFF" fill="#04F0F6"/><path d="M751.1 512C751.1 509.2 749.9 506.6 747.8 504.8 745.7 503 742.9 502.2 740.1 502.7L740.1 502.6C740.1 498.8 738.3 495.1 735.1 492.9 732 490.6 728 490 724.3 491.2 721.2 485.4 714.5 482.4 708.1 484 701.7 485.5 697.1 491.2 697 497.8 692.6 497 688.1 498.7 685.4 502.2 682.6 505.7 682 510.4 683.8 514.5 685.6 518.6 689.5 521.3 694 521.6L742 521.6C747.2 521.3 751.1 517.1 751.1 512Z" stroke="#FFFFFF" fill="#04F0F6"/></g></svg>