<svg width="96" height="96" xmlns="http://www.w3.org/2000/svg" xmlns:xlink="http://www.w3.org/1999/xlink" xml:space="preserve" overflow="hidden"><defs><clipPath id="clip0"><rect x="192" y="179" width="96" height="96"/></clipPath></defs><g clip-path="url(#clip0)" transform="translate(-192 -179)"><path d="M247.1 251.5C247.1 255.4 244 258.5 240.1 258.5 236.2 258.5 233.1 255.4 233.1 251.5 233.1 247.6 240.1 237.5 240.1 237.5 240.1 237.5 247.1 247.7 247.1 251.5Z" stroke="#FFFFFF" fill="#036CA1"/><path d="M262.1 247.5C262.1 250.3 259.9 252.5 257.1 252.5 254.3 252.5 252.1 250.3 252.1 247.5 252.1 244.7 257.1 237.5 257.1 237.5 257.1 237.5 262.1 244.8 262.1 247.5Z" stroke="#FFFFFF" fill="#036CA1"/><path d="M228.1 247.5C228.1 250.3 225.9 252.5 223.1 252.5 220.3 252.5 218.1 250.3 218.1 247.5 218.1 244.7 223.1 237.5 223.1 237.5 223.1 237.5 228.1 244.8 228.1 247.5Z" stroke="#FFFFFF" fill="#036CA1"/><path d="M274.1 224C274.1 221.2 272.9 218.6 270.8 216.8 268.7 215 265.9 214.2 263.1 214.7L263.1 214.6C263.1 210.8 261.3 207.1 258.1 204.9 255 202.6 251 202 247.3 203.2 244.2 197.4 237.5 194.4 231.1 196 224.7 197.5 220.1 203.2 220 209.8 215.6 209 211.1 210.7 208.4 214.2 205.6 217.7 205 222.4 206.8 226.5 208.6 230.6 212.5 233.3 217 233.6L265 233.6C270.2 233.3 274.1 229.1 274.1 224Z" stroke="#FFFFFF" fill="#036CA1"/></g></svg>