<svg width="96" height="96" xmlns="http://www.w3.org/2000/svg" xmlns:xlink="http://www.w3.org/1999/xlink" xml:space="preserve" overflow="hidden"><defs><clipPath id="clip0"><rect x="573" y="179" width="96" height="96"/></clipPath></defs><g clip-path="url(#clip0)" transform="translate(-573 -179)"><path d="M628.1 251.5C628.1 255.4 625 258.5 621.1 258.5 617.2 258.5 614.1 255.4 614.1 251.5 614.1 247.6 621.1 237.5 621.1 237.5 621.1 237.5 628.1 247.7 628.1 251.5Z" stroke="#FFFFFF" fill="#26B4FB"/><path d="M643.1 247.5C643.1 250.3 640.9 252.5 638.1 252.5 635.3 252.5 633.1 250.3 633.1 247.5 633.1 244.7 638.1 237.5 638.1 237.5 638.1 237.5 643.1 244.8 643.1 247.5Z" stroke="#FFFFFF" fill="#26B4FB"/><path d="M609.1 247.5C609.1 250.3 606.9 252.5 604.1 252.5 601.3 252.5 599.1 250.3 599.1 247.5 599.1 244.7 604.1 237.5 604.1 237.5 604.1 237.5 609.1 244.8 609.1 247.5Z" stroke="#FFFFFF" fill="#26B4FB"/><path d="M655.1 224C655.1 221.2 653.9 218.6 651.8 216.8 649.7 215 646.9 214.2 644.1 214.7L644.1 214.6C644.1 210.8 642.3 207.1 639.1 204.9 636 202.6 632 202 628.3 203.2 625.2 197.4 618.5 194.4 612.1 196 605.7 197.5 601.1 203.2 601 209.8 596.6 209 592.1 210.7 589.4 214.2 586.6 217.7 586 222.4 587.8 226.5 589.6 230.6 593.5 233.3 598 233.6L646 233.6C651.2 233.3 655.1 229.1 655.1 224Z" stroke="#FFFFFF" fill="#26B4FB"/></g></svg>