<svg width="129" height="129" xmlns="http://www.w3.org/2000/svg" xmlns:xlink="http://www.w3.org/1999/xlink" xml:space="preserve" overflow="hidden"><defs><clipPath id="clip0"><rect x="602" y="409" width="129" height="129"/></clipPath></defs><g clip-path="url(#clip0)" transform="translate(-602 -409)"><path d="M723.677 516.5 671.163 425.125C669.686 422.55 666.401 421.659 663.826 423.136 662.998 423.611 662.312 424.297 661.837 425.125L609.323 516.5C607.839 519.071 608.72 522.358 611.291 523.842 612.106 524.313 613.031 524.562 613.973 524.562L719.027 524.562C721.996 524.559 724.4 522.15 724.397 519.182 724.396 518.24 724.147 517.316 723.677 516.5ZM688.107 479.507C689.176 479.818 689.79 480.937 689.478 482.006 689.227 482.866 688.439 483.457 687.543 483.457 687.348 483.457 687.153 483.43 686.965 483.377L677.25 480.487 672.668 483.081C672.738 483.467 672.774 483.858 672.775 484.25 672.78 484.701 672.74 485.151 672.654 485.594L676.981 488.107 686.952 485.419C688.028 485.133 689.132 485.774 689.418 486.85 689.703 487.926 689.063 489.03 687.987 489.316L681.94 490.969 689.344 495.215C690.325 495.741 690.695 496.962 690.169 497.943 689.644 498.925 688.422 499.294 687.441 498.769 687.398 498.746 687.356 498.721 687.315 498.695L680.072 494.476 681.55 500.509C681.874 501.575 681.272 502.7 680.207 503.024 679.142 503.347 678.016 502.746 677.693 501.681 677.671 501.61 677.653 501.537 677.64 501.463L675.221 491.654 670.666 488.967C670.044 489.497 669.328 489.907 668.556 490.176L668.556 495.323 675.826 502.35C676.612 503.137 676.612 504.412 675.826 505.199 675.454 505.597 674.932 505.821 674.388 505.817 673.885 505.802 673.407 505.601 673.044 505.253L668.516 500.953 668.516 509.472C668.516 510.585 667.613 511.488 666.5 511.488 665.387 511.488 664.484 510.585 664.484 509.472L664.484 500.805 660.037 505.253C659.222 506.012 657.947 505.967 657.188 505.152 656.466 504.378 656.466 503.178 657.188 502.404L664.484 495.108 664.484 490.203C663.673 489.911 662.932 489.453 662.307 488.859L657.819 491.385 655.266 501.168C655.034 502.054 654.234 502.672 653.318 502.673 653.145 502.677 652.973 502.654 652.807 502.606 651.732 502.323 651.088 501.223 651.369 500.147L652.942 494.14 645.511 498.319C644.572 498.918 643.326 498.642 642.727 497.703 642.129 496.765 642.404 495.519 643.343 494.92 643.405 494.881 643.469 494.844 643.535 494.812L651.087 490.552 645 488.94C643.928 488.639 643.302 487.526 643.602 486.454 643.903 485.381 645.016 484.756 646.088 485.056L656.019 487.824 660.278 485.419C660.208 485.033 660.172 484.642 660.171 484.25 660.166 483.799 660.207 483.349 660.292 482.906L655.871 480.326 646.142 483.014C645.07 483.318 643.954 482.695 643.65 481.623 643.345 480.551 643.968 479.435 645.04 479.13L651.06 477.531 643.656 473.285C642.675 472.759 642.305 471.538 642.831 470.557 643.356 469.575 644.578 469.206 645.559 469.731 645.602 469.754 645.644 469.779 645.685 469.805L653.17 474.158 651.611 468.125C651.289 467.059 651.892 465.935 652.958 465.613 654.023 465.29 655.148 465.893 655.47 466.959 655.485 467.007 655.497 467.055 655.508 467.104L658.196 477.074 662.428 479.547C663.05 479.016 663.766 478.606 664.538 478.337L664.538 473.258 657.242 465.962C656.427 465.203 656.382 463.927 657.141 463.113 657.9 462.298 659.175 462.253 659.99 463.012 660.024 463.045 660.058 463.078 660.09 463.113L664.538 467.561 664.538 459.028C664.538 457.915 665.441 457.012 666.554 457.012 667.667 457.012 668.569 457.915 668.569 459.028L668.569 467.413 673.031 463.086C673.832 462.31 675.111 462.331 675.886 463.133 676.662 463.935 676.641 465.213 675.839 465.988L668.516 473.016 668.516 478.297C669.327 478.589 670.068 479.047 670.693 479.641L675.087 477.168 677.855 467.238C678.12 466.157 679.211 465.495 680.292 465.76 681.373 466.026 682.035 467.117 681.77 468.198 681.761 468.237 681.75 468.275 681.738 468.313L680.058 474.306 687.489 470.114C688.428 469.515 689.674 469.791 690.273 470.729 690.871 471.668 690.596 472.914 689.657 473.513 689.595 473.552 689.531 473.588 689.465 473.621L682.155 477.746Z" stroke="#FFFFFF" stroke-width="1.34375" fill="#03C0C5"/></g></svg>