<svg width="129" height="129" xmlns="http://www.w3.org/2000/svg" xmlns:xlink="http://www.w3.org/1999/xlink" xml:space="preserve" overflow="hidden"><defs><clipPath id="clip0"><rect x="305" y="409" width="129" height="129"/></clipPath></defs><g clip-path="url(#clip0)" transform="translate(-305 -409)"><path d="M426.677 516.5 374.163 425.125C372.686 422.55 369.401 421.659 366.826 423.136 365.998 423.611 365.312 424.297 364.837 425.125L312.323 516.5C310.839 519.071 311.72 522.358 314.291 523.842 315.106 524.313 316.031 524.562 316.973 524.562L422.027 524.562C424.996 524.559 427.4 522.15 427.397 519.182 427.396 518.24 427.147 517.316 426.677 516.5ZM391.108 479.507C392.176 479.818 392.79 480.937 392.478 482.006 392.227 482.866 391.439 483.457 390.543 483.457 390.348 483.457 390.153 483.43 389.965 483.377L380.25 480.487 375.668 483.081C375.738 483.467 375.774 483.858 375.775 484.25 375.78 484.701 375.74 485.151 375.654 485.594L379.981 488.107 389.952 485.419C391.028 485.133 392.132 485.774 392.418 486.85 392.703 487.926 392.063 489.03 390.987 489.316L384.94 490.969 392.344 495.215C393.325 495.741 393.695 496.962 393.169 497.943 392.644 498.925 391.422 499.294 390.441 498.769 390.398 498.746 390.356 498.721 390.315 498.695L383.072 494.476 384.55 500.509C384.874 501.575 384.272 502.7 383.207 503.024 382.142 503.347 381.016 502.746 380.693 501.681 380.671 501.61 380.653 501.537 380.64 501.463L378.221 491.654 373.666 488.967C373.044 489.497 372.328 489.907 371.556 490.176L371.556 495.323 378.826 502.35C379.612 503.137 379.612 504.412 378.826 505.199 378.454 505.597 377.932 505.821 377.388 505.817 376.886 505.802 376.407 505.601 376.044 505.253L371.516 500.953 371.516 509.472C371.516 510.585 370.613 511.488 369.5 511.488 368.387 511.488 367.484 510.585 367.484 509.472L367.484 500.805 363.037 505.253C362.222 506.012 360.947 505.967 360.188 505.152 359.466 504.378 359.466 503.178 360.188 502.404L367.484 495.108 367.484 490.203C366.673 489.911 365.932 489.453 365.307 488.859L360.819 491.385 358.266 501.168C358.034 502.054 357.234 502.672 356.318 502.673 356.145 502.677 355.973 502.654 355.807 502.606 354.732 502.323 354.088 501.223 354.369 500.147L355.942 494.14 348.511 498.319C347.572 498.918 346.326 498.642 345.727 497.703 345.129 496.765 345.404 495.519 346.343 494.92 346.405 494.881 346.469 494.844 346.535 494.812L354.087 490.552 348 488.94C346.928 488.639 346.302 487.526 346.603 486.454 346.903 485.381 348.016 484.756 349.088 485.056L359.019 487.824 363.278 485.419C363.208 485.033 363.172 484.642 363.171 484.25 363.166 483.799 363.207 483.349 363.292 482.906L358.871 480.326 349.142 483.014C348.07 483.318 346.954 482.695 346.65 481.623 346.345 480.551 346.968 479.435 348.04 479.13L354.06 477.531 346.656 473.285C345.675 472.759 345.305 471.538 345.831 470.557 346.356 469.575 347.578 469.206 348.559 469.731 348.602 469.754 348.644 469.779 348.685 469.805L356.17 474.158 354.611 468.125C354.289 467.059 354.892 465.935 355.958 465.613 357.023 465.29 358.148 465.893 358.47 466.959 358.485 467.007 358.497 467.055 358.508 467.104L361.196 477.074 365.428 479.547C366.05 479.016 366.766 478.606 367.538 478.337L367.538 473.258 360.242 465.962C359.427 465.203 359.382 463.927 360.141 463.113 360.9 462.298 362.175 462.253 362.99 463.012 363.024 463.045 363.058 463.078 363.09 463.113L367.538 467.561 367.538 459.028C367.538 457.915 368.441 457.012 369.554 457.012 370.667 457.012 371.569 457.915 371.569 459.028L371.569 467.413 376.031 463.086C376.832 462.31 378.111 462.331 378.886 463.133 379.662 463.935 379.641 465.213 378.839 465.988L371.516 473.016 371.516 478.297C372.327 478.589 373.068 479.047 373.693 479.641L378.087 477.168 380.855 467.238C381.12 466.157 382.211 465.495 383.292 465.76 384.373 466.026 385.035 467.117 384.77 468.198 384.761 468.237 384.75 468.275 384.738 468.313L383.058 474.306 390.489 470.114C391.428 469.515 392.674 469.791 393.273 470.729 393.871 471.668 393.596 472.914 392.657 473.513 392.595 473.552 392.531 473.588 392.465 473.621L385.155 477.746Z" stroke="#FFFFFF" stroke-width="1.34375" fill="#02787B"/></g></svg>