<svg width="129" height="129" xmlns="http://www.w3.org/2000/svg" xmlns:xlink="http://www.w3.org/1999/xlink" xml:space="preserve" overflow="hidden"><defs><clipPath id="clip0"><rect x="297" y="136" width="129" height="129"/></clipPath></defs><g clip-path="url(#clip0)" transform="translate(-297 -136)"><path d="M418.677 243.5 366.163 152.125C364.686 149.55 361.401 148.659 358.826 150.136 357.998 150.611 357.312 151.297 356.837 152.125L304.323 243.5C302.839 246.071 303.72 249.358 306.291 250.842 307.106 251.313 308.031 251.562 308.973 251.562L414.027 251.562C416.996 251.559 419.4 249.15 419.397 246.182 419.396 245.24 419.147 244.316 418.677 243.5ZM383.108 206.507C384.176 206.818 384.79 207.937 384.478 209.006 384.227 209.866 383.439 210.457 382.543 210.457 382.348 210.457 382.153 210.43 381.965 210.377L372.25 207.488 367.668 210.081C367.738 210.467 367.774 210.858 367.775 211.25 367.78 211.701 367.74 212.151 367.654 212.594L371.981 215.107 381.952 212.419C383.028 212.133 384.132 212.774 384.418 213.85 384.703 214.926 384.063 216.03 382.987 216.316L376.94 217.969 384.344 222.215C385.325 222.741 385.695 223.962 385.169 224.943 384.644 225.925 383.422 226.294 382.441 225.769 382.398 225.746 382.356 225.721 382.315 225.695L375.072 221.476 376.55 227.509C376.874 228.575 376.272 229.7 375.207 230.024 374.142 230.347 373.016 229.746 372.693 228.681 372.671 228.61 372.653 228.537 372.64 228.463L370.221 218.654 365.666 215.967C365.044 216.497 364.328 216.907 363.556 217.176L363.556 222.322 370.826 229.35C371.612 230.137 371.612 231.412 370.826 232.199 370.454 232.597 369.932 232.821 369.388 232.817 368.886 232.802 368.407 232.601 368.044 232.253L363.516 227.953 363.516 236.472C363.516 237.585 362.613 238.488 361.5 238.488 360.387 238.488 359.484 237.585 359.484 236.472L359.484 227.805 355.037 232.253C354.222 233.012 352.947 232.967 352.188 232.152 351.466 231.378 351.466 230.178 352.188 229.404L359.484 222.108 359.484 217.203C358.673 216.911 357.932 216.453 357.307 215.859L352.819 218.385 350.266 228.168C350.034 229.054 349.234 229.672 348.318 229.673 348.145 229.677 347.973 229.654 347.807 229.606 346.732 229.323 346.088 228.223 346.369 227.147L347.942 221.14 340.511 225.319C339.572 225.918 338.326 225.642 337.727 224.703 337.129 223.765 337.404 222.519 338.343 221.92 338.405 221.881 338.469 221.844 338.535 221.812L346.087 217.552 340 215.94C338.928 215.639 338.302 214.526 338.603 213.454 338.903 212.381 340.016 211.756 341.088 212.056L351.019 214.824 355.278 212.419C355.208 212.033 355.172 211.642 355.171 211.25 355.166 210.799 355.207 210.349 355.292 209.906L350.871 207.326 341.142 210.014C340.07 210.318 338.954 209.695 338.65 208.623 338.345 207.551 338.968 206.435 340.04 206.13L346.06 204.531 338.656 200.285C337.675 199.759 337.305 198.538 337.831 197.557 338.356 196.575 339.578 196.206 340.559 196.731 340.602 196.754 340.644 196.779 340.685 196.805L348.17 201.158 346.611 195.125C346.289 194.059 346.892 192.935 347.958 192.613 349.023 192.29 350.148 192.893 350.47 193.959 350.485 194.007 350.497 194.055 350.508 194.104L353.196 204.074 357.428 206.547C358.05 206.016 358.766 205.606 359.538 205.337L359.538 200.258 352.242 192.962C351.427 192.203 351.382 190.927 352.141 190.113 352.9 189.298 354.175 189.253 354.99 190.012 355.024 190.045 355.058 190.078 355.09 190.113L359.538 194.561 359.538 186.028C359.538 184.915 360.441 184.012 361.554 184.012 362.667 184.012 363.569 184.915 363.569 186.028L363.569 194.413 368.031 190.086C368.832 189.31 370.111 189.331 370.886 190.133 371.662 190.935 371.641 192.213 370.839 192.988L363.516 200.016 363.516 205.297C364.327 205.589 365.068 206.047 365.693 206.641L370.087 204.168 372.855 194.238C373.12 193.157 374.211 192.495 375.292 192.76 376.373 193.026 377.035 194.117 376.77 195.198 376.761 195.237 376.75 195.275 376.738 195.313L375.058 201.306 382.489 197.114C383.428 196.515 384.674 196.791 385.273 197.729 385.871 198.668 385.596 199.914 384.657 200.513 384.595 200.552 384.531 200.588 384.465 200.621L377.155 204.746Z" stroke="#FFFFFF" stroke-width="1.34375" fill="#0EACFB"/></g></svg>