<svg width="129" height="129" xmlns="http://www.w3.org/2000/svg" xmlns:xlink="http://www.w3.org/1999/xlink" xml:space="preserve" overflow="hidden"><defs><clipPath id="clip0"><rect x="0" y="136" width="129" height="129"/></clipPath></defs><g clip-path="url(#clip0)" transform="matrix(1 0 0 1 0 -136)"><path d="M121.677 243.5 69.1628 152.125C67.6862 149.55 64.4015 148.659 61.8263 150.136 60.9985 150.611 60.3119 151.297 59.8372 152.125L7.32344 243.5C5.83917 246.071 6.72 249.358 9.29082 250.842 10.1063 251.313 11.0312 251.562 11.9728 251.562L117.027 251.562C119.996 251.559 122.4 249.15 122.397 246.182 122.396 245.24 122.147 244.316 121.677 243.5ZM86.1075 206.507C87.1762 206.818 87.7899 207.937 87.4781 209.006 87.2272 209.866 86.439 210.457 85.5431 210.457 85.3477 210.457 85.1533 210.43 84.9653 210.377L75.25 207.488 70.6678 210.081C70.7381 210.467 70.7741 210.858 70.7753 211.25 70.7802 211.701 70.7397 212.151 70.6544 212.594L74.9812 215.107 84.9519 212.419C86.0279 212.133 87.132 212.774 87.4177 213.85 87.7033 214.926 87.0626 216.03 85.9866 216.316L79.9397 217.969 87.3438 222.215C88.3251 222.741 88.6946 223.962 88.1692 224.943 87.6437 225.925 86.4222 226.294 85.4407 225.769 85.3979 225.746 85.3558 225.721 85.3147 225.695L78.0719 221.476 79.55 227.509C79.8736 228.575 79.2724 229.7 78.2073 230.024 77.1421 230.347 76.0163 229.746 75.6928 228.681 75.6711 228.61 75.6534 228.537 75.6397 228.463L73.2209 218.654 68.6656 215.967C68.0436 216.497 67.3282 216.907 66.5559 217.176L66.5559 222.322 73.8256 229.35C74.6116 230.137 74.6116 231.412 73.8256 232.199 73.4538 232.597 72.9324 232.821 72.3878 232.817 71.8855 232.802 71.4066 232.601 71.0441 232.253L66.5156 227.953 66.5156 236.472C66.5156 237.585 65.6132 238.488 64.5 238.488 63.3868 238.488 62.4844 237.585 62.4844 236.472L62.4844 227.805 58.0366 232.253C57.2221 233.012 55.9468 232.967 55.1878 232.152 54.4665 231.378 54.4665 230.178 55.1878 229.404L62.4844 222.108 62.4844 217.203C61.6733 216.911 60.9319 216.453 60.3075 215.859L55.8194 218.385 53.2663 228.168C53.0342 229.054 52.2338 229.672 51.3178 229.673 51.1451 229.677 50.9729 229.654 50.8072 229.606 49.7317 229.323 49.0881 228.223 49.3694 227.147L50.9416 221.14 43.5106 225.319C42.572 225.918 41.326 225.642 40.7273 224.703 40.1288 223.765 40.4044 222.519 41.3429 221.92 41.405 221.881 41.4692 221.844 41.5353 221.812L49.0872 217.552 43 215.94C41.9276 215.639 41.3019 214.526 41.6025 213.454 41.9031 212.381 43.016 211.756 44.0884 212.056L54.0187 214.824 58.2784 212.419C58.2082 212.033 58.1721 211.642 58.1709 211.25 58.1661 210.799 58.2066 210.349 58.2919 209.906L53.8709 207.326 44.1422 210.014C43.0697 210.318 41.9538 209.695 41.6495 208.623 41.3453 207.551 41.9679 206.435 43.0403 206.13L49.0603 204.531 41.6562 200.285C40.6749 199.759 40.3054 198.538 40.8308 197.557 41.3563 196.575 42.5778 196.206 43.5593 196.731 43.6021 196.754 43.6442 196.779 43.6853 196.805L51.17 201.158 49.6112 195.125C49.2893 194.059 49.8921 192.935 50.9577 192.613 52.0233 192.29 53.1483 192.893 53.4702 193.959 53.4846 194.007 53.4972 194.055 53.5081 194.104L56.1956 204.074 60.4284 206.547C61.0505 206.016 61.7659 205.606 62.5381 205.337L62.5381 200.258 55.2416 192.962C54.4271 192.203 54.3821 190.927 55.141 190.113 55.8999 189.298 57.1754 189.253 57.9898 190.012 58.0245 190.045 58.0579 190.078 58.0903 190.113L62.5381 194.561 62.5381 186.028C62.5381 184.915 63.4406 184.012 64.5537 184.012 65.6669 184.012 66.5694 184.915 66.5694 186.028L66.5694 194.413 71.0306 190.086C71.8322 189.31 73.1106 189.331 73.8861 190.133 74.6616 190.935 74.6406 192.213 73.8391 192.988L66.5156 200.016 66.5156 205.297C67.3267 205.589 68.0681 206.047 68.6925 206.641L73.0866 204.168 75.8547 194.238C76.1198 193.157 77.2111 192.495 78.2923 192.76 79.3734 193.026 80.0351 194.117 79.77 195.198 79.7606 195.237 79.7498 195.275 79.7381 195.313L78.0584 201.306 85.4894 197.114C86.428 196.515 87.674 196.791 88.2727 197.729 88.8712 198.668 88.5956 199.914 87.6571 200.513 87.595 200.552 87.5308 200.588 87.4647 200.621L80.1547 204.746Z" stroke="#FFFFFF" stroke-width="1.34375" fill="#024A6F"/></g></svg>