<svg width="128" height="128" xmlns="http://www.w3.org/2000/svg" xmlns:xlink="http://www.w3.org/1999/xlink" xml:space="preserve" overflow="hidden"><defs><clipPath id="clip0"><rect x="149" y="273" width="128" height="128"/></clipPath></defs><g clip-path="url(#clip0)" transform="translate(-149 -273)"><path d="M269.733 379.667 217.627 289C216.161 286.445 212.902 285.561 210.347 287.026 209.526 287.497 208.844 288.179 208.373 289L156.267 379.667C154.794 382.218 155.668 385.479 158.219 386.952 159.028 387.419 159.946 387.666 160.88 387.667L265.12 387.667C268.065 387.664 270.451 385.273 270.448 382.328 270.447 381.393 270.201 380.476 269.733 379.667ZM234.44 342.96C235.5 343.269 236.109 344.38 235.8 345.44 235.551 346.293 234.769 346.88 233.88 346.88 233.686 346.88 233.493 346.853 233.307 346.8L223.667 343.933 219.12 346.507C219.19 346.889 219.225 347.278 219.227 347.667 219.231 348.114 219.191 348.561 219.107 349L223.4 351.493 233.293 348.827C234.361 348.543 235.457 349.179 235.74 350.247 236.023 351.314 235.388 352.41 234.32 352.693L228.32 354.333 235.667 358.547C236.64 359.068 237.007 360.28 236.486 361.254 235.964 362.228 234.752 362.594 233.778 362.073 233.736 362.05 233.694 362.026 233.653 362L226.467 357.813 227.933 363.8C228.254 364.857 227.658 365.974 226.601 366.295 225.544 366.616 224.427 366.019 224.106 364.963 224.085 364.892 224.067 364.82 224.053 364.747L221.653 355.013 217.133 352.347C216.516 352.873 215.806 353.28 215.04 353.547L215.04 358.653 222.253 365.627C223.033 366.407 223.033 367.673 222.253 368.453 221.884 368.848 221.367 369.071 220.827 369.067 220.328 369.052 219.853 368.852 219.493 368.507L215 364.24 215 372.693C215 373.798 214.105 374.693 213 374.693 211.895 374.693 211 373.798 211 372.693L211 364.093 206.587 368.507C205.779 369.26 204.513 369.215 203.76 368.407 203.044 367.639 203.044 366.448 203.76 365.68L211 358.44 211 353.573C210.195 353.284 209.46 352.83 208.84 352.24L204.387 354.747 201.853 364.453C201.623 365.333 200.829 365.946 199.92 365.947 199.749 365.951 199.578 365.928 199.413 365.88 198.346 365.599 197.708 364.508 197.987 363.44L199.547 357.48 192.173 361.627C191.242 362.221 190.006 361.947 189.412 361.016 188.818 360.085 189.091 358.848 190.022 358.254 190.084 358.215 190.148 358.179 190.213 358.147L197.707 353.92 191.667 352.32C190.603 352.022 189.982 350.917 190.28 349.853 190.578 348.789 191.683 348.168 192.747 348.467L202.6 351.213 206.827 348.827C206.757 348.444 206.721 348.056 206.72 347.667 206.715 347.219 206.755 346.773 206.84 346.333L202.453 343.773 192.8 346.44C191.736 346.742 190.629 346.124 190.327 345.06 190.025 343.996 190.643 342.889 191.707 342.587L197.68 341 190.333 336.787C189.36 336.265 188.993 335.053 189.514 334.079 190.036 333.106 191.248 332.739 192.222 333.26 192.264 333.283 192.306 333.307 192.347 333.333L199.773 337.653 198.227 331.667C197.907 330.609 198.505 329.493 199.563 329.174 200.62 328.854 201.736 329.452 202.056 330.51 202.07 330.557 202.083 330.605 202.093 330.653L204.76 340.547 208.96 343C209.577 342.473 210.287 342.067 211.053 341.8L211.053 336.76 203.813 329.52C203.005 328.767 202.961 327.501 203.714 326.693 204.467 325.885 205.732 325.841 206.54 326.594 206.575 326.626 206.608 326.659 206.64 326.693L211.053 331.107 211.053 322.64C211.053 321.535 211.949 320.64 213.053 320.64 214.158 320.64 215.053 321.535 215.053 322.64L215.053 330.96 219.48 326.667C220.275 325.897 221.544 325.918 222.313 326.713 223.083 327.509 223.062 328.777 222.267 329.547L215 336.52 215 341.76C215.805 342.05 216.54 342.504 217.16 343.093L221.52 340.64 224.267 330.787C224.53 329.714 225.613 329.057 226.685 329.32 227.758 329.583 228.415 330.666 228.152 331.739 228.142 331.777 228.132 331.816 228.12 331.853L226.453 337.8 233.827 333.64C234.758 333.046 235.994 333.319 236.588 334.251 237.182 335.182 236.909 336.419 235.978 337.013 235.916 337.052 235.852 337.088 235.787 337.12L228.533 341.213Z" stroke="#FFFFFF" stroke-width="1.33333" fill="#021A93"/></g></svg>