<svg width="128" height="128" xmlns="http://www.w3.org/2000/svg" xmlns:xlink="http://www.w3.org/1999/xlink" xml:space="preserve" overflow="hidden"><defs><clipPath id="clip0"><rect x="743" y="273" width="128" height="128"/></clipPath></defs><g clip-path="url(#clip0)" transform="translate(-743 -273)"><path d="M863.733 379.667 811.627 289C810.161 286.445 806.902 285.561 804.347 287.026 803.526 287.497 802.844 288.179 802.373 289L750.267 379.667C748.794 382.218 749.668 385.479 752.219 386.952 753.028 387.419 753.946 387.666 754.88 387.667L859.12 387.667C862.065 387.664 864.451 385.273 864.448 382.328 864.447 381.393 864.201 380.476 863.733 379.667ZM828.44 342.96C829.5 343.269 830.109 344.38 829.8 345.44 829.551 346.293 828.769 346.88 827.88 346.88 827.686 346.88 827.493 346.853 827.307 346.8L817.667 343.933 813.12 346.507C813.19 346.889 813.225 347.278 813.227 347.667 813.231 348.114 813.191 348.561 813.107 349L817.4 351.493 827.293 348.827C828.361 348.543 829.457 349.179 829.74 350.247 830.023 351.314 829.388 352.41 828.32 352.693L822.32 354.333 829.667 358.547C830.64 359.068 831.007 360.28 830.486 361.254 829.964 362.228 828.752 362.594 827.778 362.073 827.736 362.05 827.694 362.026 827.653 362L820.467 357.813 821.933 363.8C822.254 364.857 821.658 365.974 820.601 366.295 819.544 366.616 818.427 366.019 818.106 364.963 818.085 364.892 818.067 364.82 818.053 364.747L815.653 355.013 811.133 352.347C810.516 352.873 809.806 353.28 809.04 353.547L809.04 358.653 816.253 365.627C817.033 366.407 817.033 367.673 816.253 368.453 815.884 368.848 815.367 369.071 814.827 369.067 814.328 369.052 813.853 368.852 813.493 368.507L809 364.24 809 372.693C809 373.798 808.105 374.693 807 374.693 805.895 374.693 805 373.798 805 372.693L805 364.093 800.587 368.507C799.779 369.26 798.513 369.215 797.76 368.407 797.044 367.639 797.044 366.448 797.76 365.68L805 358.44 805 353.573C804.195 353.284 803.46 352.83 802.84 352.24L798.387 354.747 795.853 364.453C795.623 365.333 794.829 365.946 793.92 365.947 793.749 365.951 793.578 365.928 793.413 365.88 792.346 365.599 791.708 364.508 791.987 363.44L793.547 357.48 786.173 361.627C785.242 362.221 784.006 361.947 783.412 361.016 782.818 360.085 783.091 358.848 784.022 358.254 784.084 358.215 784.148 358.179 784.213 358.147L791.707 353.92 785.667 352.32C784.603 352.022 783.982 350.917 784.28 349.853 784.578 348.789 785.683 348.168 786.747 348.467L796.6 351.213 800.827 348.827C800.757 348.444 800.721 348.056 800.72 347.667 800.715 347.219 800.755 346.773 800.84 346.333L796.453 343.773 786.8 346.44C785.736 346.742 784.629 346.124 784.327 345.06 784.025 343.996 784.643 342.889 785.707 342.587L791.68 341 784.333 336.787C783.36 336.265 782.993 335.053 783.514 334.079 784.036 333.106 785.248 332.739 786.222 333.26 786.264 333.283 786.306 333.307 786.347 333.333L793.773 337.653 792.227 331.667C791.907 330.609 792.505 329.493 793.563 329.174 794.62 328.854 795.736 329.452 796.056 330.51 796.07 330.557 796.083 330.605 796.093 330.653L798.76 340.547 802.96 343C803.577 342.473 804.287 342.067 805.053 341.8L805.053 336.76 797.813 329.52C797.005 328.767 796.961 327.501 797.714 326.693 798.467 325.885 799.732 325.841 800.54 326.594 800.575 326.626 800.608 326.659 800.64 326.693L805.053 331.107 805.053 322.64C805.053 321.535 805.949 320.64 807.053 320.64 808.158 320.64 809.053 321.535 809.053 322.64L809.053 330.96 813.48 326.667C814.275 325.897 815.544 325.918 816.313 326.713 817.083 327.509 817.062 328.777 816.267 329.547L809 336.52 809 341.76C809.805 342.05 810.54 342.504 811.16 343.093L815.52 340.64 818.267 330.787C818.53 329.714 819.613 329.057 820.685 329.32 821.758 329.583 822.415 330.666 822.152 331.739 822.142 331.777 822.132 331.816 822.12 331.853L820.453 337.8 827.827 333.64C828.758 333.046 829.994 333.319 830.588 334.251 831.182 335.182 830.909 336.419 829.978 337.013 829.916 337.052 829.852 337.088 829.787 337.12L822.533 341.213Z" stroke="#FFFFFF" stroke-width="1.33333" fill="#677CE4"/></g></svg>