<svg width="129" height="129" xmlns="http://www.w3.org/2000/svg" xmlns:xlink="http://www.w3.org/1999/xlink" xml:space="preserve" overflow="hidden"><defs><clipPath id="clip0"><rect x="594" y="0" width="129" height="129"/></clipPath></defs><g clip-path="url(#clip0)" transform="translate(-594 0)"><path d="M715.677 107.5 663.163 16.125C661.686 13.5498 658.401 12.6593 655.826 14.1358 654.998 14.6106 654.312 15.2971 653.837 16.125L601.323 107.5C599.839 110.071 600.72 113.358 603.291 114.842 604.106 115.313 605.031 115.562 605.973 115.562L711.027 115.562C713.996 115.559 716.4 113.15 716.397 110.182 716.396 109.24 716.147 108.316 715.677 107.5ZM680.107 70.5066C681.176 70.8183 681.79 71.9372 681.478 73.0059 681.227 73.8659 680.439 74.4572 679.543 74.4572 679.348 74.4569 679.153 74.4298 678.965 74.3766L669.25 71.4875 664.668 74.0809C664.738 74.4667 664.774 74.8579 664.775 75.25 664.78 75.7008 664.74 76.151 664.654 76.5938L668.981 79.1066 678.952 76.4191C680.028 76.1334 681.132 76.7741 681.418 77.8502 681.703 78.9262 681.063 80.0303 679.987 80.3159L673.94 81.9688 681.344 86.215C682.325 86.7405 682.695 87.962 682.169 88.9434 681.644 89.9248 680.422 90.2944 679.441 89.7688 679.398 89.7458 679.356 89.7214 679.315 89.6953L672.072 85.4759 673.55 91.5094C673.874 92.5746 673.272 93.7002 672.207 94.0238 671.142 94.3474 670.016 93.7462 669.693 92.6811 669.671 92.6096 669.653 92.5369 669.64 92.4634L667.221 82.6541 662.666 79.9666C662.044 80.4972 661.328 80.9073 660.556 81.1759L660.556 86.3225 667.826 93.3503C668.612 94.1372 668.612 95.4122 667.826 96.1991 667.454 96.5969 666.932 96.8211 666.388 96.8172 665.885 96.802 665.407 96.6008 665.044 96.2528L660.516 91.9528 660.516 100.472C660.516 101.585 659.613 102.488 658.5 102.488 657.387 102.488 656.484 101.585 656.484 100.472L656.484 91.805 652.037 96.2528C651.222 97.0118 649.947 96.9666 649.188 96.1523 648.466 95.3782 648.466 94.1782 649.188 93.4041L656.484 86.1075 656.484 81.2028C655.673 80.9108 654.932 80.4533 654.307 79.8591L649.819 82.3853 647.266 92.1678C647.034 93.0539 646.234 93.6721 645.318 93.6728 645.145 93.677 644.973 93.6544 644.807 93.6056 643.732 93.3229 643.088 92.2225 643.369 91.1466L644.942 85.14 637.511 89.3191C636.572 89.9177 635.326 89.6421 634.727 88.7035 634.129 87.7649 634.404 86.5188 635.343 85.9202 635.405 85.8807 635.469 85.8444 635.535 85.8119L643.087 81.5522 637 79.9397C635.928 79.6391 635.302 78.5262 635.602 77.4538 635.903 76.3814 637.016 75.7557 638.088 76.0563L648.019 78.8244 652.278 76.4191C652.208 76.0333 652.172 75.6421 652.171 75.25 652.166 74.7992 652.207 74.349 652.292 73.9062L647.871 71.3263 638.142 74.0138C637.07 74.318 635.954 73.6954 635.65 72.623 635.345 71.5507 635.968 70.4345 637.04 70.1303L643.06 68.5312 635.656 64.285C634.675 63.7595 634.305 62.538 634.831 61.5567 635.356 60.5753 636.578 60.2056 637.559 60.7312 637.602 60.7542 637.644 60.7786 637.685 60.8047L645.17 65.1584 643.611 59.125C643.289 58.0594 643.892 56.9346 644.958 56.6126 646.023 56.2905 647.148 56.8934 647.47 57.959 647.485 58.0067 647.497 58.0551 647.508 58.1038L650.196 68.0744 654.428 70.5469C655.05 70.0162 655.766 69.6061 656.538 69.3375L656.538 64.2581 649.242 56.9616C648.427 56.2026 648.382 54.9273 649.141 54.1128 649.9 53.2984 651.175 53.2534 651.99 54.0123 652.024 54.0446 652.058 54.0781 652.09 54.1128L656.538 58.5606 656.538 50.0278C656.538 48.9146 657.441 48.0122 658.554 48.0122 659.667 48.0122 660.569 48.9146 660.569 50.0278L660.569 58.4128 665.031 54.0859C665.832 53.3105 667.111 53.3314 667.886 54.133 668.662 54.9345 668.641 56.213 667.839 56.9884L660.516 64.0163 660.516 69.2972C661.327 69.5892 662.068 70.0467 662.693 70.6409L667.087 68.1684 669.855 58.2381C670.12 57.1569 671.211 56.4954 672.292 56.7604 673.373 57.0255 674.035 58.1168 673.77 59.198 673.761 59.2367 673.75 59.2751 673.738 59.3131L672.058 65.3063 679.489 61.1138C680.428 60.5151 681.674 60.7907 682.273 61.7293 682.871 62.6679 682.596 63.914 681.657 64.5126 681.595 64.5521 681.531 64.5884 681.465 64.6209L674.155 68.7462Z" stroke="#FFFFFF" stroke-width="1.34375" fill="#4EA4CE"/></g></svg>