<svg width="129" height="129" xmlns="http://www.w3.org/2000/svg" xmlns:xlink="http://www.w3.org/1999/xlink" xml:space="preserve" overflow="hidden"><defs><clipPath id="clip0"><rect x="297" y="0" width="129" height="129"/></clipPath></defs><g clip-path="url(#clip0)" transform="translate(-297 0)"><path d="M418.677 107.5 366.163 16.125C364.686 13.5498 361.401 12.6593 358.826 14.1358 357.998 14.6106 357.312 15.2971 356.837 16.125L304.323 107.5C302.839 110.071 303.72 113.358 306.291 114.842 307.106 115.313 308.031 115.562 308.973 115.562L414.027 115.562C416.996 115.559 419.4 113.15 419.397 110.182 419.396 109.24 419.147 108.316 418.677 107.5ZM383.108 70.5066C384.176 70.8183 384.79 71.9372 384.478 73.0059 384.227 73.8659 383.439 74.4572 382.543 74.4572 382.348 74.4569 382.153 74.4298 381.965 74.3766L372.25 71.4875 367.668 74.0809C367.738 74.4667 367.774 74.8579 367.775 75.25 367.78 75.7008 367.74 76.151 367.654 76.5938L371.981 79.1066 381.952 76.4191C383.028 76.1334 384.132 76.7741 384.418 77.8502 384.703 78.9262 384.063 80.0303 382.987 80.3159L376.94 81.9688 384.344 86.215C385.325 86.7405 385.695 87.962 385.169 88.9434 384.644 89.9248 383.422 90.2944 382.441 89.7688 382.398 89.7458 382.356 89.7214 382.315 89.6953L375.072 85.4759 376.55 91.5094C376.874 92.5746 376.272 93.7002 375.207 94.0238 374.142 94.3474 373.016 93.7462 372.693 92.6811 372.671 92.6096 372.653 92.5369 372.64 92.4634L370.221 82.6541 365.666 79.9666C365.044 80.4972 364.328 80.9073 363.556 81.1759L363.556 86.3225 370.826 93.3503C371.612 94.1372 371.612 95.4122 370.826 96.1991 370.454 96.5969 369.932 96.8211 369.388 96.8172 368.886 96.802 368.407 96.6008 368.044 96.2528L363.516 91.9528 363.516 100.472C363.516 101.585 362.613 102.488 361.5 102.488 360.387 102.488 359.484 101.585 359.484 100.472L359.484 91.805 355.037 96.2528C354.222 97.0118 352.947 96.9666 352.188 96.1523 351.466 95.3782 351.466 94.1782 352.188 93.4041L359.484 86.1075 359.484 81.2028C358.673 80.9108 357.932 80.4533 357.307 79.8591L352.819 82.3853 350.266 92.1678C350.034 93.0539 349.234 93.6721 348.318 93.6728 348.145 93.677 347.973 93.6544 347.807 93.6056 346.732 93.3229 346.088 92.2225 346.369 91.1466L347.942 85.14 340.511 89.3191C339.572 89.9177 338.326 89.6421 337.727 88.7035 337.129 87.7649 337.404 86.5188 338.343 85.9202 338.405 85.8807 338.469 85.8444 338.535 85.8119L346.087 81.5522 340 79.9397C338.928 79.6391 338.302 78.5262 338.603 77.4538 338.903 76.3814 340.016 75.7557 341.088 76.0563L351.019 78.8244 355.278 76.4191C355.208 76.0333 355.172 75.6421 355.171 75.25 355.166 74.7992 355.207 74.349 355.292 73.9062L350.871 71.3263 341.142 74.0138C340.07 74.318 338.954 73.6954 338.65 72.623 338.345 71.5507 338.968 70.4345 340.04 70.1303L346.06 68.5312 338.656 64.285C337.675 63.7595 337.305 62.538 337.831 61.5567 338.356 60.5753 339.578 60.2056 340.559 60.7312 340.602 60.7542 340.644 60.7786 340.685 60.8047L348.17 65.1584 346.611 59.125C346.289 58.0594 346.892 56.9346 347.958 56.6126 349.023 56.2905 350.148 56.8934 350.47 57.959 350.485 58.0067 350.497 58.0551 350.508 58.1038L353.196 68.0744 357.428 70.5469C358.05 70.0162 358.766 69.6061 359.538 69.3375L359.538 64.2581 352.242 56.9616C351.427 56.2026 351.382 54.9273 352.141 54.1128 352.9 53.2984 354.175 53.2534 354.99 54.0123 355.024 54.0446 355.058 54.0781 355.09 54.1128L359.538 58.5606 359.538 50.0278C359.538 48.9146 360.441 48.0122 361.554 48.0122 362.667 48.0122 363.569 48.9146 363.569 50.0278L363.569 58.4128 368.031 54.0859C368.832 53.3105 370.111 53.3314 370.886 54.133 371.662 54.9345 371.641 56.213 370.839 56.9884L363.516 64.0163 363.516 69.2972C364.327 69.5892 365.068 70.0467 365.693 70.6409L370.087 68.1684 372.855 58.2381C373.12 57.1569 374.211 56.4954 375.292 56.7604 376.373 57.0255 377.035 58.1168 376.77 59.198 376.761 59.2367 376.75 59.2751 376.738 59.3131L375.058 65.3063 382.489 61.1138C383.428 60.5151 384.674 60.7907 385.273 61.7293 385.871 62.6679 385.596 63.914 384.657 64.5126 384.595 64.5521 384.531 64.5884 384.465 64.6209L377.155 68.7462Z" stroke="#FFFFFF" stroke-width="1.34375" fill="#0372A9"/></g></svg>