<svg width="129" height="129" xmlns="http://www.w3.org/2000/svg" xmlns:xlink="http://www.w3.org/1999/xlink" xml:space="preserve" overflow="hidden"><defs><clipPath id="clip0"><rect x="594" y="136" width="129" height="129"/></clipPath></defs><g clip-path="url(#clip0)" transform="translate(-594 -136)"><path d="M715.677 243.5 663.163 152.125C661.686 149.55 658.401 148.659 655.826 150.136 654.998 150.611 654.312 151.297 653.837 152.125L601.323 243.5C599.839 246.071 600.72 249.358 603.291 250.842 604.106 251.313 605.031 251.562 605.973 251.562L711.027 251.562C713.996 251.559 716.4 249.15 716.397 246.182 716.396 245.24 716.147 244.316 715.677 243.5ZM680.107 206.507C681.176 206.818 681.79 207.937 681.478 209.006 681.227 209.866 680.439 210.457 679.543 210.457 679.348 210.457 679.153 210.43 678.965 210.377L669.25 207.488 664.668 210.081C664.738 210.467 664.774 210.858 664.775 211.25 664.78 211.701 664.74 212.151 664.654 212.594L668.981 215.107 678.952 212.419C680.028 212.133 681.132 212.774 681.418 213.85 681.703 214.926 681.063 216.03 679.987 216.316L673.94 217.969 681.344 222.215C682.325 222.741 682.695 223.962 682.169 224.943 681.644 225.925 680.422 226.294 679.441 225.769 679.398 225.746 679.356 225.721 679.315 225.695L672.072 221.476 673.55 227.509C673.874 228.575 673.272 229.7 672.207 230.024 671.142 230.347 670.016 229.746 669.693 228.681 669.671 228.61 669.653 228.537 669.64 228.463L667.221 218.654 662.666 215.967C662.044 216.497 661.328 216.907 660.556 217.176L660.556 222.322 667.826 229.35C668.612 230.137 668.612 231.412 667.826 232.199 667.454 232.597 666.932 232.821 666.388 232.817 665.885 232.802 665.407 232.601 665.044 232.253L660.516 227.953 660.516 236.472C660.516 237.585 659.613 238.488 658.5 238.488 657.387 238.488 656.484 237.585 656.484 236.472L656.484 227.805 652.037 232.253C651.222 233.012 649.947 232.967 649.188 232.152 648.466 231.378 648.466 230.178 649.188 229.404L656.484 222.108 656.484 217.203C655.673 216.911 654.932 216.453 654.307 215.859L649.819 218.385 647.266 228.168C647.034 229.054 646.234 229.672 645.318 229.673 645.145 229.677 644.973 229.654 644.807 229.606 643.732 229.323 643.088 228.223 643.369 227.147L644.942 221.14 637.511 225.319C636.572 225.918 635.326 225.642 634.727 224.703 634.129 223.765 634.404 222.519 635.343 221.92 635.405 221.881 635.469 221.844 635.535 221.812L643.087 217.552 637 215.94C635.928 215.639 635.302 214.526 635.602 213.454 635.903 212.381 637.016 211.756 638.088 212.056L648.019 214.824 652.278 212.419C652.208 212.033 652.172 211.642 652.171 211.25 652.166 210.799 652.207 210.349 652.292 209.906L647.871 207.326 638.142 210.014C637.07 210.318 635.954 209.695 635.65 208.623 635.345 207.551 635.968 206.435 637.04 206.13L643.06 204.531 635.656 200.285C634.675 199.759 634.305 198.538 634.831 197.557 635.356 196.575 636.578 196.206 637.559 196.731 637.602 196.754 637.644 196.779 637.685 196.805L645.17 201.158 643.611 195.125C643.289 194.059 643.892 192.935 644.958 192.613 646.023 192.29 647.148 192.893 647.47 193.959 647.485 194.007 647.497 194.055 647.508 194.104L650.196 204.074 654.428 206.547C655.05 206.016 655.766 205.606 656.538 205.337L656.538 200.258 649.242 192.962C648.427 192.203 648.382 190.927 649.141 190.113 649.9 189.298 651.175 189.253 651.99 190.012 652.024 190.045 652.058 190.078 652.09 190.113L656.538 194.561 656.538 186.028C656.538 184.915 657.441 184.012 658.554 184.012 659.667 184.012 660.569 184.915 660.569 186.028L660.569 194.413 665.031 190.086C665.832 189.31 667.111 189.331 667.886 190.133 668.662 190.935 668.641 192.213 667.839 192.988L660.516 200.016 660.516 205.297C661.327 205.589 662.068 206.047 662.693 206.641L667.087 204.168 669.855 194.238C670.12 193.157 671.211 192.495 672.292 192.76 673.373 193.026 674.035 194.117 673.77 195.198 673.761 195.237 673.75 195.275 673.738 195.313L672.058 201.306 679.489 197.114C680.428 196.515 681.674 196.791 682.273 197.729 682.871 198.668 682.596 199.914 681.657 200.513 681.595 200.552 681.531 200.588 681.465 200.621L674.155 204.746Z" stroke="#FFFFFF" stroke-width="1.34375" fill="#6ECDFC"/></g></svg>