<svg width="128" height="128" xmlns="http://www.w3.org/2000/svg" xmlns:xlink="http://www.w3.org/1999/xlink" xml:space="preserve" overflow="hidden"><defs><clipPath id="clip0"><rect x="149" y="546" width="128" height="128"/></clipPath></defs><g clip-path="url(#clip0)" transform="translate(-149 -546)"><path d="M269.733 652.667 217.627 562C216.161 559.445 212.902 558.561 210.347 560.026 209.526 560.497 208.844 561.179 208.373 562L156.267 652.667C154.794 655.218 155.668 658.479 158.219 659.952 159.028 660.419 159.946 660.666 160.88 660.667L265.12 660.667C268.065 660.664 270.451 658.273 270.448 655.328 270.447 654.393 270.201 653.476 269.733 652.667ZM234.44 615.96C235.5 616.269 236.109 617.38 235.8 618.44 235.551 619.293 234.769 619.88 233.88 619.88 233.686 619.88 233.493 619.853 233.307 619.8L223.667 616.933 219.12 619.507C219.19 619.889 219.225 620.278 219.227 620.667 219.231 621.114 219.191 621.561 219.107 622L223.4 624.493 233.293 621.827C234.361 621.543 235.457 622.179 235.74 623.247 236.023 624.314 235.388 625.41 234.32 625.693L228.32 627.333 235.667 631.547C236.64 632.068 237.007 633.28 236.486 634.254 235.964 635.228 234.752 635.594 233.778 635.073 233.736 635.05 233.694 635.026 233.653 635L226.467 630.813 227.933 636.8C228.254 637.857 227.658 638.974 226.601 639.295 225.544 639.616 224.427 639.019 224.106 637.963 224.085 637.892 224.067 637.82 224.053 637.747L221.653 628.013 217.133 625.347C216.516 625.873 215.806 626.28 215.04 626.547L215.04 631.653 222.253 638.627C223.033 639.407 223.033 640.673 222.253 641.453 221.884 641.848 221.367 642.071 220.827 642.067 220.328 642.052 219.853 641.852 219.493 641.507L215 637.24 215 645.693C215 646.798 214.105 647.693 213 647.693 211.895 647.693 211 646.798 211 645.693L211 637.093 206.587 641.507C205.779 642.26 204.513 642.215 203.76 641.407 203.044 640.639 203.044 639.448 203.76 638.68L211 631.44 211 626.573C210.195 626.284 209.46 625.83 208.84 625.24L204.387 627.747 201.853 637.453C201.623 638.333 200.829 638.946 199.92 638.947 199.749 638.951 199.578 638.928 199.413 638.88 198.346 638.599 197.708 637.508 197.987 636.44L199.547 630.48 192.173 634.627C191.242 635.221 190.006 634.947 189.412 634.016 188.818 633.085 189.091 631.848 190.022 631.254 190.084 631.215 190.148 631.179 190.213 631.147L197.707 626.92 191.667 625.32C190.603 625.022 189.982 623.917 190.28 622.853 190.578 621.789 191.683 621.168 192.747 621.467L202.6 624.213 206.827 621.827C206.757 621.444 206.721 621.056 206.72 620.667 206.715 620.219 206.755 619.773 206.84 619.333L202.453 616.773 192.8 619.44C191.736 619.742 190.629 619.124 190.327 618.06 190.025 616.996 190.643 615.889 191.707 615.587L197.68 614 190.333 609.787C189.36 609.265 188.993 608.053 189.514 607.079 190.036 606.106 191.248 605.739 192.222 606.26 192.264 606.283 192.306 606.307 192.347 606.333L199.773 610.653 198.227 604.667C197.907 603.609 198.505 602.493 199.563 602.174 200.62 601.854 201.736 602.452 202.056 603.51 202.07 603.557 202.083 603.605 202.093 603.653L204.76 613.547 208.96 616C209.577 615.473 210.287 615.067 211.053 614.8L211.053 609.76 203.813 602.52C203.005 601.767 202.961 600.501 203.714 599.693 204.467 598.885 205.732 598.841 206.54 599.594 206.575 599.626 206.608 599.659 206.64 599.693L211.053 604.107 211.053 595.64C211.053 594.535 211.949 593.64 213.053 593.64 214.158 593.64 215.053 594.535 215.053 595.64L215.053 603.96 219.48 599.667C220.275 598.897 221.544 598.918 222.313 599.713 223.083 600.509 223.062 601.777 222.267 602.547L215 609.52 215 614.76C215.805 615.05 216.54 615.504 217.16 616.093L221.52 613.64 224.267 603.787C224.53 602.714 225.613 602.057 226.685 602.32 227.758 602.583 228.415 603.666 228.152 604.739 228.142 604.777 228.132 604.816 228.12 604.853L226.453 610.8 233.827 606.64C234.758 606.046 235.994 606.319 236.588 607.251 237.182 608.182 236.909 609.419 235.978 610.013 235.916 610.052 235.852 610.088 235.787 610.12L228.533 614.213Z" stroke="#FFFFFF" stroke-width="1.33333" fill="#007FDE"/></g></svg>