<svg width="128" height="129" xmlns="http://www.w3.org/2000/svg" xmlns:xlink="http://www.w3.org/1999/xlink" xml:space="preserve" overflow="hidden"><defs><clipPath id="clip0"><rect x="157" y="409" width="128" height="129"/></clipPath></defs><g clip-path="url(#clip0)" transform="translate(-157 -409)"><path d="M120.733 106.667 68.6267 16C67.1615 13.4448 63.9023 12.5611 61.3471 14.0263 60.5256 14.4973 59.8444 15.1785 59.3733 16L7.26667 106.667C5.79391 109.218 6.66791 112.479 9.2188 113.952 10.028 114.419 10.9457 114.666 11.88 114.667L116.12 114.667C119.065 114.664 121.451 112.273 121.448 109.328 121.447 108.393 121.201 107.476 120.733 106.667ZM85.44 69.96C86.5004 70.2693 87.1093 71.3796 86.8 72.44 86.5511 73.2933 85.7689 73.88 84.88 73.88 84.6861 73.8797 84.4932 73.8528 84.3067 73.8L74.6667 70.9333 70.12 73.5067C70.1897 73.8895 70.2255 74.2776 70.2267 74.6667 70.2315 75.114 70.1913 75.5607 70.1067 76L74.4 78.4933 84.2933 75.8267C85.3611 75.5432 86.4565 76.1789 86.74 77.2467 87.0235 78.3144 86.3877 79.4099 85.32 79.6933L79.32 81.3333 86.6667 85.5467C87.6404 86.0681 88.0071 87.2801 87.4857 88.2539 86.9643 89.2277 85.7523 89.5944 84.7784 89.0729 84.7359 89.0501 84.6941 89.0259 84.6533 89L77.4667 84.8133 78.9333 90.8C79.2544 91.8569 78.6579 92.9739 77.6011 93.2949 76.5441 93.616 75.4271 93.0195 75.106 91.9627 75.0845 91.8917 75.0669 91.8196 75.0533 91.7467L72.6533 82.0133 68.1333 79.3467C67.5161 79.8732 66.8063 80.2801 66.04 80.5467L66.04 85.6533 73.2533 92.6267C74.0332 93.4075 74.0332 94.6725 73.2533 95.4533 72.8844 95.8481 72.3671 96.0705 71.8267 96.0667 71.3283 96.0516 70.8531 95.852 70.4933 95.5067L66 91.24 66 99.6933C66 100.798 65.1045 101.693 64 101.693 62.8955 101.693 62 100.798 62 99.6933L62 91.0933 57.5867 95.5067C56.7785 96.2597 55.5131 96.2149 54.76 95.4069 54.0443 94.6388 54.0443 93.4481 54.76 92.68L62 85.44 62 80.5733C61.1952 80.2836 60.4596 79.8296 59.84 79.24L55.3867 81.7467 52.8533 91.4533C52.6231 92.3325 51.8289 92.946 50.92 92.9467 50.7487 92.9508 50.5777 92.9284 50.4133 92.88 49.3461 92.5995 48.7076 91.5076 48.9867 90.44L50.5467 84.48 43.1733 88.6267C42.242 89.2207 41.0056 88.9472 40.4116 88.0159 39.8177 87.0845 40.0912 85.8481 41.0224 85.2541 41.084 85.2149 41.1477 85.1789 41.2133 85.1467L48.7067 80.92 42.6667 79.32C41.6025 79.0217 40.9817 77.9175 41.28 76.8533 41.5783 75.7893 42.6825 75.1684 43.7467 75.4667L53.6 78.2133 57.8267 75.8267C57.7569 75.4439 57.7212 75.0557 57.72 74.6667 57.7152 74.2193 57.7553 73.7727 57.84 73.3333L53.4533 70.7733 43.8 73.44C42.7359 73.7419 41.6285 73.1241 41.3267 72.06 41.0248 70.996 41.6425 69.8885 42.7067 69.5867L48.68 68 41.3333 63.7867C40.3596 63.2652 39.9929 62.0532 40.5143 61.0795 41.0357 60.1057 42.2477 59.7389 43.2216 60.2604 43.2641 60.2832 43.3059 60.3075 43.3467 60.3333L50.7733 64.6533 49.2267 58.6667C48.9072 57.6093 49.5053 56.4932 50.5627 56.1737 51.62 55.8541 52.7363 56.4524 53.0557 57.5097 53.07 57.5571 53.0825 57.6051 53.0933 57.6533L55.76 67.5467 59.96 70C60.5772 69.4735 61.2871 69.0665 62.0533 68.8L62.0533 63.76 54.8133 56.52C54.0052 55.7669 53.9605 54.5015 54.7136 53.6933 55.4665 52.8852 56.7321 52.8405 57.5403 53.5936 57.5747 53.6256 57.6079 53.6589 57.64 53.6933L62.0533 58.1067 62.0533 49.64C62.0533 48.5355 62.9488 47.64 64.0533 47.64 65.1579 47.64 66.0533 48.5355 66.0533 49.64L66.0533 57.96 70.48 53.6667C71.2753 52.8972 72.5439 52.918 73.3133 53.7133 74.0828 54.5087 74.062 55.7772 73.2667 56.5467L66 63.52 66 68.76C66.8048 69.0497 67.5404 69.5037 68.16 70.0933L72.52 67.64 75.2667 57.7867C75.5297 56.7139 76.6125 56.0575 77.6853 56.3204 78.7581 56.5835 79.4147 57.6663 79.1516 58.7391 79.1423 58.7775 79.1316 58.8156 79.12 58.8533L77.4533 64.8 84.8267 60.64C85.758 60.046 86.9944 60.3195 87.5884 61.2508 88.1823 62.1821 87.9088 63.4185 86.9776 64.0125 86.916 64.0517 86.8523 64.0877 86.7867 64.12L79.5333 68.2133Z" stroke="#FFFFFF" stroke-width="1.33333" fill="#016062" transform="matrix(1 0 0 1.00781 157 409)"/></g></svg>