<svg width="129" height="129" xmlns="http://www.w3.org/2000/svg" xmlns:xlink="http://www.w3.org/1999/xlink" xml:space="preserve" overflow="hidden"><defs><clipPath id="clip0"><rect x="899" y="409" width="129" height="129"/></clipPath></defs><g clip-path="url(#clip0)" transform="translate(-899 -409)"><path d="M1020.68 516.5 968.163 425.125C966.686 422.55 963.401 421.659 960.826 423.136 959.998 423.611 959.312 424.297 958.837 425.125L906.323 516.5C904.839 519.071 905.72 522.358 908.291 523.842 909.106 524.313 910.031 524.562 910.973 524.562L1016.03 524.562C1019 524.559 1021.4 522.15 1021.4 519.182 1021.4 518.24 1021.15 517.316 1020.68 516.5ZM985.107 479.507C986.176 479.818 986.79 480.937 986.478 482.006 986.227 482.866 985.439 483.457 984.543 483.457 984.348 483.457 984.153 483.43 983.965 483.377L974.25 480.487 969.668 483.081C969.738 483.467 969.774 483.858 969.775 484.25 969.78 484.701 969.74 485.151 969.654 485.594L973.981 488.107 983.952 485.419C985.028 485.133 986.132 485.774 986.418 486.85 986.703 487.926 986.063 489.03 984.987 489.316L978.94 490.969 986.344 495.215C987.325 495.741 987.695 496.962 987.169 497.943 986.644 498.925 985.422 499.294 984.441 498.769 984.398 498.746 984.356 498.721 984.315 498.695L977.072 494.476 978.55 500.509C978.874 501.575 978.272 502.7 977.207 503.024 976.142 503.347 975.016 502.746 974.693 501.681 974.671 501.61 974.653 501.537 974.64 501.463L972.221 491.654 967.666 488.967C967.044 489.497 966.328 489.907 965.556 490.176L965.556 495.323 972.826 502.35C973.612 503.137 973.612 504.412 972.826 505.199 972.454 505.597 971.932 505.821 971.388 505.817 970.885 505.802 970.407 505.601 970.044 505.253L965.516 500.953 965.516 509.472C965.516 510.585 964.613 511.488 963.5 511.488 962.387 511.488 961.484 510.585 961.484 509.472L961.484 500.805 957.037 505.253C956.222 506.012 954.947 505.967 954.188 505.152 953.466 504.378 953.466 503.178 954.188 502.404L961.484 495.108 961.484 490.203C960.673 489.911 959.932 489.453 959.307 488.859L954.819 491.385 952.266 501.168C952.034 502.054 951.234 502.672 950.318 502.673 950.145 502.677 949.973 502.654 949.807 502.606 948.732 502.323 948.088 501.223 948.369 500.147L949.942 494.14 942.511 498.319C941.572 498.918 940.326 498.642 939.727 497.703 939.129 496.765 939.404 495.519 940.343 494.92 940.405 494.881 940.469 494.844 940.535 494.812L948.087 490.552 942 488.94C940.928 488.639 940.302 487.526 940.602 486.454 940.903 485.381 942.016 484.756 943.088 485.056L953.019 487.824 957.278 485.419C957.208 485.033 957.172 484.642 957.171 484.25 957.166 483.799 957.207 483.349 957.292 482.906L952.871 480.326 943.142 483.014C942.07 483.318 940.954 482.695 940.65 481.623 940.345 480.551 940.968 479.435 942.04 479.13L948.06 477.531 940.656 473.285C939.675 472.759 939.305 471.538 939.831 470.557 940.356 469.575 941.578 469.206 942.559 469.731 942.602 469.754 942.644 469.779 942.685 469.805L950.17 474.158 948.611 468.125C948.289 467.059 948.892 465.935 949.958 465.613 951.023 465.29 952.148 465.893 952.47 466.959 952.485 467.007 952.497 467.055 952.508 467.104L955.196 477.074 959.428 479.547C960.05 479.016 960.766 478.606 961.538 478.337L961.538 473.258 954.242 465.962C953.427 465.203 953.382 463.927 954.141 463.113 954.9 462.298 956.175 462.253 956.99 463.012 957.024 463.045 957.058 463.078 957.09 463.113L961.538 467.561 961.538 459.028C961.538 457.915 962.441 457.012 963.554 457.012 964.667 457.012 965.569 457.915 965.569 459.028L965.569 467.413 970.031 463.086C970.832 462.31 972.111 462.331 972.886 463.133 973.662 463.935 973.641 465.213 972.839 465.988L965.516 473.016 965.516 478.297C966.327 478.589 967.068 479.047 967.693 479.641L972.087 477.168 974.855 467.238C975.12 466.157 976.211 465.495 977.292 465.76 978.373 466.026 979.035 467.117 978.77 468.198 978.761 468.237 978.75 468.275 978.738 468.313L977.058 474.306 984.489 470.114C985.428 469.515 986.674 469.791 987.273 470.729 987.871 471.668 987.596 472.914 986.657 473.513 986.595 473.552 986.531 473.588 986.465 473.621L979.155 477.746Z" stroke="#FFFFFF" stroke-width="1.34375" fill="#4AF8FC"/></g></svg>