<svg width="129" height="129" xmlns="http://www.w3.org/2000/svg" xmlns:xlink="http://www.w3.org/1999/xlink" xml:space="preserve" overflow="hidden"><defs><clipPath id="clip0"><rect x="8" y="409" width="129" height="129"/></clipPath></defs><g clip-path="url(#clip0)" transform="translate(-8 -409)"><path d="M129.677 516.5 77.1628 425.125C75.6862 422.55 72.4015 421.659 69.8263 423.136 68.9985 423.611 68.3119 424.297 67.8372 425.125L15.3234 516.5C13.8392 519.071 14.72 522.358 17.2908 523.842 18.1063 524.313 19.0312 524.562 19.9728 524.562L125.027 524.562C127.996 524.559 130.4 522.15 130.397 519.182 130.396 518.24 130.147 517.316 129.677 516.5ZM94.1075 479.507C95.1762 479.818 95.7899 480.937 95.4781 482.006 95.2272 482.866 94.439 483.457 93.5431 483.457 93.3477 483.457 93.1533 483.43 92.9653 483.377L83.25 480.487 78.6678 483.081C78.7381 483.467 78.7741 483.858 78.7753 484.25 78.7802 484.701 78.7397 485.151 78.6544 485.594L82.9812 488.107 92.9519 485.419C94.0279 485.133 95.132 485.774 95.4177 486.85 95.7033 487.926 95.0626 489.03 93.9866 489.316L87.9397 490.969 95.3438 495.215C96.3251 495.741 96.6946 496.962 96.1692 497.943 95.6437 498.925 94.4222 499.294 93.4407 498.769 93.3979 498.746 93.3558 498.721 93.3147 498.695L86.0719 494.476 87.55 500.509C87.8736 501.575 87.2724 502.7 86.2073 503.024 85.1421 503.347 84.0163 502.746 83.6928 501.681 83.6711 501.61 83.6534 501.537 83.6397 501.463L81.2209 491.654 76.6656 488.967C76.0436 489.497 75.3282 489.907 74.5559 490.176L74.5559 495.323 81.8256 502.35C82.6116 503.137 82.6116 504.412 81.8256 505.199 81.4538 505.597 80.9324 505.821 80.3878 505.817 79.8855 505.802 79.4066 505.601 79.0441 505.253L74.5156 500.953 74.5156 509.472C74.5156 510.585 73.6132 511.488 72.5 511.488 71.3868 511.488 70.4844 510.585 70.4844 509.472L70.4844 500.805 66.0366 505.253C65.2221 506.012 63.9468 505.967 63.1878 505.152 62.4665 504.378 62.4665 503.178 63.1878 502.404L70.4844 495.108 70.4844 490.203C69.6733 489.911 68.9319 489.453 68.3075 488.859L63.8194 491.385 61.2663 501.168C61.0342 502.054 60.2338 502.672 59.3178 502.673 59.1451 502.677 58.9729 502.654 58.8072 502.606 57.7317 502.323 57.0881 501.223 57.3694 500.147L58.9416 494.14 51.5106 498.319C50.572 498.918 49.326 498.642 48.7273 497.703 48.1288 496.765 48.4044 495.519 49.3429 494.92 49.405 494.881 49.4692 494.844 49.5353 494.812L57.0872 490.552 51 488.94C49.9276 488.639 49.3019 487.526 49.6025 486.454 49.9031 485.381 51.016 484.756 52.0884 485.056L62.0187 487.824 66.2784 485.419C66.2082 485.033 66.1721 484.642 66.1709 484.25 66.1661 483.799 66.2066 483.349 66.2919 482.906L61.8709 480.326 52.1422 483.014C51.0697 483.318 49.9538 482.695 49.6495 481.623 49.3453 480.551 49.9679 479.435 51.0403 479.13L57.0603 477.531 49.6562 473.285C48.6749 472.759 48.3054 471.538 48.8308 470.557 49.3563 469.575 50.5778 469.206 51.5593 469.731 51.6021 469.754 51.6442 469.779 51.6853 469.805L59.17 474.158 57.6112 468.125C57.2893 467.059 57.8921 465.935 58.9577 465.613 60.0233 465.29 61.1483 465.893 61.4702 466.959 61.4846 467.007 61.4972 467.055 61.5081 467.104L64.1956 477.074 68.4284 479.547C69.0505 479.016 69.7659 478.606 70.5381 478.337L70.5381 473.258 63.2416 465.962C62.4271 465.203 62.3821 463.927 63.141 463.113 63.8999 462.298 65.1754 462.253 65.9898 463.012 66.0245 463.045 66.0579 463.078 66.0903 463.113L70.5381 467.561 70.5381 459.028C70.5381 457.915 71.4406 457.012 72.5537 457.012 73.6669 457.012 74.5694 457.915 74.5694 459.028L74.5694 467.413 79.0306 463.086C79.8322 462.31 81.1106 462.331 81.8861 463.133 82.6616 463.935 82.6406 465.213 81.8391 465.988L74.5156 473.016 74.5156 478.297C75.3267 478.589 76.0681 479.047 76.6925 479.641L81.0866 477.168 83.8547 467.238C84.1198 466.157 85.2111 465.495 86.2923 465.76 87.3734 466.026 88.0351 467.117 87.77 468.198 87.7606 468.237 87.7498 468.275 87.7381 468.313L86.0584 474.306 93.4894 470.114C94.428 469.515 95.674 469.791 96.2727 470.729 96.8712 471.668 96.5956 472.914 95.6571 473.513 95.595 473.552 95.5308 473.588 95.4647 473.621L88.1547 477.746Z" stroke="#FFFFFF" stroke-width="1.34375" fill="#003031"/></g></svg>