<svg width="128" height="128" xmlns="http://www.w3.org/2000/svg" xmlns:xlink="http://www.w3.org/1999/xlink" xml:space="preserve" overflow="hidden"><defs><clipPath id="clip0"><rect x="743" y="546" width="128" height="128"/></clipPath></defs><g clip-path="url(#clip0)" transform="translate(-743 -546)"><path d="M863.733 652.667 811.627 562C810.161 559.445 806.902 558.561 804.347 560.026 803.526 560.497 802.844 561.179 802.373 562L750.267 652.667C748.794 655.218 749.668 658.479 752.219 659.952 753.028 660.419 753.946 660.666 754.88 660.667L859.12 660.667C862.065 660.664 864.451 658.273 864.448 655.328 864.447 654.393 864.201 653.476 863.733 652.667ZM828.44 615.96C829.5 616.269 830.109 617.38 829.8 618.44 829.551 619.293 828.769 619.88 827.88 619.88 827.686 619.88 827.493 619.853 827.307 619.8L817.667 616.933 813.12 619.507C813.19 619.889 813.225 620.278 813.227 620.667 813.231 621.114 813.191 621.561 813.107 622L817.4 624.493 827.293 621.827C828.361 621.543 829.457 622.179 829.74 623.247 830.023 624.314 829.388 625.41 828.32 625.693L822.32 627.333 829.667 631.547C830.64 632.068 831.007 633.28 830.486 634.254 829.964 635.228 828.752 635.594 827.778 635.073 827.736 635.05 827.694 635.026 827.653 635L820.467 630.813 821.933 636.8C822.254 637.857 821.658 638.974 820.601 639.295 819.544 639.616 818.427 639.019 818.106 637.963 818.085 637.892 818.067 637.82 818.053 637.747L815.653 628.013 811.133 625.347C810.516 625.873 809.806 626.28 809.04 626.547L809.04 631.653 816.253 638.627C817.033 639.407 817.033 640.673 816.253 641.453 815.884 641.848 815.367 642.071 814.827 642.067 814.328 642.052 813.853 641.852 813.493 641.507L809 637.24 809 645.693C809 646.798 808.105 647.693 807 647.693 805.895 647.693 805 646.798 805 645.693L805 637.093 800.587 641.507C799.779 642.26 798.513 642.215 797.76 641.407 797.044 640.639 797.044 639.448 797.76 638.68L805 631.44 805 626.573C804.195 626.284 803.46 625.83 802.84 625.24L798.387 627.747 795.853 637.453C795.623 638.333 794.829 638.946 793.92 638.947 793.749 638.951 793.578 638.928 793.413 638.88 792.346 638.599 791.708 637.508 791.987 636.44L793.547 630.48 786.173 634.627C785.242 635.221 784.006 634.947 783.412 634.016 782.818 633.085 783.091 631.848 784.022 631.254 784.084 631.215 784.148 631.179 784.213 631.147L791.707 626.92 785.667 625.32C784.603 625.022 783.982 623.917 784.28 622.853 784.578 621.789 785.683 621.168 786.747 621.467L796.6 624.213 800.827 621.827C800.757 621.444 800.721 621.056 800.72 620.667 800.715 620.219 800.755 619.773 800.84 619.333L796.453 616.773 786.8 619.44C785.736 619.742 784.629 619.124 784.327 618.06 784.025 616.996 784.643 615.889 785.707 615.587L791.68 614 784.333 609.787C783.36 609.265 782.993 608.053 783.514 607.079 784.036 606.106 785.248 605.739 786.222 606.26 786.264 606.283 786.306 606.307 786.347 606.333L793.773 610.653 792.227 604.667C791.907 603.609 792.505 602.493 793.563 602.174 794.62 601.854 795.736 602.452 796.056 603.51 796.07 603.557 796.083 603.605 796.093 603.653L798.76 613.547 802.96 616C803.577 615.473 804.287 615.067 805.053 614.8L805.053 609.76 797.813 602.52C797.005 601.767 796.961 600.501 797.714 599.693 798.467 598.885 799.732 598.841 800.54 599.594 800.575 599.626 800.608 599.659 800.64 599.693L805.053 604.107 805.053 595.64C805.053 594.535 805.949 593.64 807.053 593.64 808.158 593.64 809.053 594.535 809.053 595.64L809.053 603.96 813.48 599.667C814.275 598.897 815.544 598.918 816.313 599.713 817.083 600.509 817.062 601.777 816.267 602.547L809 609.52 809 614.76C809.805 615.05 810.54 615.504 811.16 616.093L815.52 613.64 818.267 603.787C818.53 602.714 819.613 602.057 820.685 602.32 821.758 602.583 822.415 603.666 822.152 604.739 822.142 604.777 822.132 604.816 822.12 604.853L820.453 610.8 827.827 606.64C828.758 606.046 829.994 606.319 830.588 607.251 831.182 608.182 830.909 609.419 829.978 610.013 829.916 610.052 829.852 610.088 829.787 610.12L822.533 614.213Z" stroke="#FFFFFF" stroke-width="1.33333" fill="#6DC0FF"/></g></svg>