<svg width="129" height="129" xmlns="http://www.w3.org/2000/svg" xmlns:xlink="http://www.w3.org/1999/xlink" xml:space="preserve" overflow="hidden"><defs><clipPath id="clip0"><rect x="891" y="136" width="129" height="129"/></clipPath></defs><g clip-path="url(#clip0)" transform="translate(-891 -136)"><path d="M1012.68 243.5 960.163 152.125C958.686 149.55 955.401 148.659 952.826 150.136 951.998 150.611 951.312 151.297 950.837 152.125L898.323 243.5C896.839 246.071 897.72 249.358 900.291 250.842 901.106 251.313 902.031 251.562 902.973 251.562L1008.03 251.562C1011 251.559 1013.4 249.15 1013.4 246.182 1013.4 245.24 1013.15 244.316 1012.68 243.5ZM977.107 206.507C978.176 206.818 978.79 207.937 978.478 209.006 978.227 209.866 977.439 210.457 976.543 210.457 976.348 210.457 976.153 210.43 975.965 210.377L966.25 207.488 961.668 210.081C961.738 210.467 961.774 210.858 961.775 211.25 961.78 211.701 961.74 212.151 961.654 212.594L965.981 215.107 975.952 212.419C977.028 212.133 978.132 212.774 978.418 213.85 978.703 214.926 978.063 216.03 976.987 216.316L970.94 217.969 978.344 222.215C979.325 222.741 979.695 223.962 979.169 224.943 978.644 225.925 977.422 226.294 976.441 225.769 976.398 225.746 976.356 225.721 976.315 225.695L969.072 221.476 970.55 227.509C970.874 228.575 970.272 229.7 969.207 230.024 968.142 230.347 967.016 229.746 966.693 228.681 966.671 228.61 966.653 228.537 966.64 228.463L964.221 218.654 959.666 215.967C959.044 216.497 958.328 216.907 957.556 217.176L957.556 222.322 964.826 229.35C965.612 230.137 965.612 231.412 964.826 232.199 964.454 232.597 963.932 232.821 963.388 232.817 962.885 232.802 962.407 232.601 962.044 232.253L957.516 227.953 957.516 236.472C957.516 237.585 956.613 238.488 955.5 238.488 954.387 238.488 953.484 237.585 953.484 236.472L953.484 227.805 949.037 232.253C948.222 233.012 946.947 232.967 946.188 232.152 945.466 231.378 945.466 230.178 946.188 229.404L953.484 222.108 953.484 217.203C952.673 216.911 951.932 216.453 951.307 215.859L946.819 218.385 944.266 228.168C944.034 229.054 943.234 229.672 942.318 229.673 942.145 229.677 941.973 229.654 941.807 229.606 940.732 229.323 940.088 228.223 940.369 227.147L941.942 221.14 934.511 225.319C933.572 225.918 932.326 225.642 931.727 224.703 931.129 223.765 931.404 222.519 932.343 221.92 932.405 221.881 932.469 221.844 932.535 221.812L940.087 217.552 934 215.94C932.928 215.639 932.302 214.526 932.602 213.454 932.903 212.381 934.016 211.756 935.088 212.056L945.019 214.824 949.278 212.419C949.208 212.033 949.172 211.642 949.171 211.25 949.166 210.799 949.207 210.349 949.292 209.906L944.871 207.326 935.142 210.014C934.07 210.318 932.954 209.695 932.65 208.623 932.345 207.551 932.968 206.435 934.04 206.13L940.06 204.531 932.656 200.285C931.675 199.759 931.305 198.538 931.831 197.557 932.356 196.575 933.578 196.206 934.559 196.731 934.602 196.754 934.644 196.779 934.685 196.805L942.17 201.158 940.611 195.125C940.289 194.059 940.892 192.935 941.958 192.613 943.023 192.29 944.148 192.893 944.47 193.959 944.485 194.007 944.497 194.055 944.508 194.104L947.196 204.074 951.428 206.547C952.05 206.016 952.766 205.606 953.538 205.337L953.538 200.258 946.242 192.962C945.427 192.203 945.382 190.927 946.141 190.113 946.9 189.298 948.175 189.253 948.99 190.012 949.024 190.045 949.058 190.078 949.09 190.113L953.538 194.561 953.538 186.028C953.538 184.915 954.441 184.012 955.554 184.012 956.667 184.012 957.569 184.915 957.569 186.028L957.569 194.413 962.031 190.086C962.832 189.31 964.111 189.331 964.886 190.133 965.662 190.935 965.641 192.213 964.839 192.988L957.516 200.016 957.516 205.297C958.327 205.589 959.068 206.047 959.693 206.641L964.087 204.168 966.855 194.238C967.12 193.157 968.211 192.495 969.292 192.76 970.373 193.026 971.035 194.117 970.77 195.198 970.761 195.237 970.75 195.275 970.738 195.313L969.058 201.306 976.489 197.114C977.428 196.515 978.674 196.791 979.273 197.729 979.871 198.668 979.596 199.914 978.657 200.513 978.595 200.552 978.531 200.588 978.465 200.621L971.155 204.746Z" stroke="#FFFFFF" stroke-width="1.34375" fill="#9DDDFD"/></g></svg>