<svg width="128" height="128" xmlns="http://www.w3.org/2000/svg" xmlns:xlink="http://www.w3.org/1999/xlink" xml:space="preserve" overflow="hidden"><defs><clipPath id="clip0"><rect x="446" y="546" width="128" height="128"/></clipPath></defs><g clip-path="url(#clip0)" transform="translate(-446 -546)"><path d="M566.733 652.667 514.627 562C513.161 559.445 509.902 558.561 507.347 560.026 506.526 560.497 505.844 561.179 505.373 562L453.267 652.667C451.794 655.218 452.668 658.479 455.219 659.952 456.028 660.419 456.946 660.666 457.88 660.667L562.12 660.667C565.065 660.664 567.451 658.273 567.448 655.328 567.447 654.393 567.201 653.476 566.733 652.667ZM531.44 615.96C532.5 616.269 533.109 617.38 532.8 618.44 532.551 619.293 531.769 619.88 530.88 619.88 530.686 619.88 530.493 619.853 530.307 619.8L520.667 616.933 516.12 619.507C516.19 619.889 516.225 620.278 516.227 620.667 516.231 621.114 516.191 621.561 516.107 622L520.4 624.493 530.293 621.827C531.361 621.543 532.457 622.179 532.74 623.247 533.023 624.314 532.388 625.41 531.32 625.693L525.32 627.333 532.667 631.547C533.64 632.068 534.007 633.28 533.486 634.254 532.964 635.228 531.752 635.594 530.778 635.073 530.736 635.05 530.694 635.026 530.653 635L523.467 630.813 524.933 636.8C525.254 637.857 524.658 638.974 523.601 639.295 522.544 639.616 521.427 639.019 521.106 637.963 521.085 637.892 521.067 637.82 521.053 637.747L518.653 628.013 514.133 625.347C513.516 625.873 512.806 626.28 512.04 626.547L512.04 631.653 519.253 638.627C520.033 639.407 520.033 640.673 519.253 641.453 518.884 641.848 518.367 642.071 517.827 642.067 517.328 642.052 516.853 641.852 516.493 641.507L512 637.24 512 645.693C512 646.798 511.105 647.693 510 647.693 508.895 647.693 508 646.798 508 645.693L508 637.093 503.587 641.507C502.779 642.26 501.513 642.215 500.76 641.407 500.044 640.639 500.044 639.448 500.76 638.68L508 631.44 508 626.573C507.195 626.284 506.46 625.83 505.84 625.24L501.387 627.747 498.853 637.453C498.623 638.333 497.829 638.946 496.92 638.947 496.749 638.951 496.578 638.928 496.413 638.88 495.346 638.599 494.708 637.508 494.987 636.44L496.547 630.48 489.173 634.627C488.242 635.221 487.006 634.947 486.412 634.016 485.818 633.085 486.091 631.848 487.022 631.254 487.084 631.215 487.148 631.179 487.213 631.147L494.707 626.92 488.667 625.32C487.603 625.022 486.982 623.917 487.28 622.853 487.578 621.789 488.683 621.168 489.747 621.467L499.6 624.213 503.827 621.827C503.757 621.444 503.721 621.056 503.72 620.667 503.715 620.219 503.755 619.773 503.84 619.333L499.453 616.773 489.8 619.44C488.736 619.742 487.629 619.124 487.327 618.06 487.025 616.996 487.643 615.889 488.707 615.587L494.68 614 487.333 609.787C486.36 609.265 485.993 608.053 486.514 607.079 487.036 606.106 488.248 605.739 489.222 606.26 489.264 606.283 489.306 606.307 489.347 606.333L496.773 610.653 495.227 604.667C494.907 603.609 495.505 602.493 496.563 602.174 497.62 601.854 498.736 602.452 499.056 603.51 499.07 603.557 499.083 603.605 499.093 603.653L501.76 613.547 505.96 616C506.577 615.473 507.287 615.067 508.053 614.8L508.053 609.76 500.813 602.52C500.005 601.767 499.961 600.501 500.714 599.693 501.467 598.885 502.732 598.841 503.54 599.594 503.575 599.626 503.608 599.659 503.64 599.693L508.053 604.107 508.053 595.64C508.053 594.535 508.949 593.64 510.053 593.64 511.158 593.64 512.053 594.535 512.053 595.64L512.053 603.96 516.48 599.667C517.275 598.897 518.544 598.918 519.313 599.713 520.083 600.509 520.062 601.777 519.267 602.547L512 609.52 512 614.76C512.805 615.05 513.54 615.504 514.16 616.093L518.52 613.64 521.267 603.787C521.53 602.714 522.613 602.057 523.685 602.32 524.758 602.583 525.415 603.666 525.152 604.739 525.142 604.777 525.132 604.816 525.12 604.853L523.453 610.8 530.827 606.64C531.758 606.046 532.994 606.319 533.588 607.251 534.182 608.182 533.909 609.419 532.978 610.013 532.916 610.052 532.852 610.088 532.787 610.12L525.533 614.213Z" stroke="#FFFFFF" stroke-width="1.33333" fill="#1D9EFF"/></g></svg>