<svg width="129" height="129" xmlns="http://www.w3.org/2000/svg" xmlns:xlink="http://www.w3.org/1999/xlink" xml:space="preserve" overflow="hidden"><defs><clipPath id="clip0"><rect x="891" y="0" width="129" height="129"/></clipPath></defs><g clip-path="url(#clip0)" transform="translate(-891 0)"><path d="M1012.68 107.5 960.163 16.125C958.686 13.5498 955.401 12.6593 952.826 14.1358 951.998 14.6106 951.312 15.2971 950.837 16.125L898.323 107.5C896.839 110.071 897.72 113.358 900.291 114.842 901.106 115.313 902.031 115.562 902.973 115.562L1008.03 115.562C1011 115.559 1013.4 113.15 1013.4 110.182 1013.4 109.24 1013.15 108.316 1012.68 107.5ZM977.107 70.5066C978.176 70.8183 978.79 71.9372 978.478 73.0059 978.227 73.8659 977.439 74.4572 976.543 74.4572 976.348 74.4569 976.153 74.4298 975.965 74.3766L966.25 71.4875 961.668 74.0809C961.738 74.4667 961.774 74.8579 961.775 75.25 961.78 75.7008 961.74 76.151 961.654 76.5938L965.981 79.1066 975.952 76.4191C977.028 76.1334 978.132 76.7741 978.418 77.8502 978.703 78.9262 978.063 80.0303 976.987 80.3159L970.94 81.9688 978.344 86.215C979.325 86.7405 979.695 87.962 979.169 88.9434 978.644 89.9248 977.422 90.2944 976.441 89.7688 976.398 89.7458 976.356 89.7214 976.315 89.6953L969.072 85.4759 970.55 91.5094C970.874 92.5746 970.272 93.7002 969.207 94.0238 968.142 94.3474 967.016 93.7462 966.693 92.6811 966.671 92.6096 966.653 92.5369 966.64 92.4634L964.221 82.6541 959.666 79.9666C959.044 80.4972 958.328 80.9073 957.556 81.1759L957.556 86.3225 964.826 93.3503C965.612 94.1372 965.612 95.4122 964.826 96.1991 964.454 96.5969 963.932 96.8211 963.388 96.8172 962.885 96.802 962.407 96.6008 962.044 96.2528L957.516 91.9528 957.516 100.472C957.516 101.585 956.613 102.488 955.5 102.488 954.387 102.488 953.484 101.585 953.484 100.472L953.484 91.805 949.037 96.2528C948.222 97.0118 946.947 96.9666 946.188 96.1523 945.466 95.3782 945.466 94.1782 946.188 93.4041L953.484 86.1075 953.484 81.2028C952.673 80.9108 951.932 80.4533 951.307 79.8591L946.819 82.3853 944.266 92.1678C944.034 93.0539 943.234 93.6721 942.318 93.6728 942.145 93.677 941.973 93.6544 941.807 93.6056 940.732 93.3229 940.088 92.2225 940.369 91.1466L941.942 85.14 934.511 89.3191C933.572 89.9177 932.326 89.6421 931.727 88.7035 931.129 87.7649 931.404 86.5188 932.343 85.9202 932.405 85.8807 932.469 85.8444 932.535 85.8119L940.087 81.5522 934 79.9397C932.928 79.6391 932.302 78.5262 932.602 77.4538 932.903 76.3814 934.016 75.7557 935.088 76.0563L945.019 78.8244 949.278 76.4191C949.208 76.0333 949.172 75.6421 949.171 75.25 949.166 74.7992 949.207 74.349 949.292 73.9062L944.871 71.3263 935.142 74.0138C934.07 74.318 932.954 73.6954 932.65 72.623 932.345 71.5507 932.968 70.4345 934.04 70.1303L940.06 68.5312 932.656 64.285C931.675 63.7595 931.305 62.538 931.831 61.5567 932.356 60.5753 933.578 60.2056 934.559 60.7312 934.602 60.7542 934.644 60.7786 934.685 60.8047L942.17 65.1584 940.611 59.125C940.289 58.0594 940.892 56.9346 941.958 56.6126 943.023 56.2905 944.148 56.8934 944.47 57.959 944.485 58.0067 944.497 58.0551 944.508 58.1038L947.196 68.0744 951.428 70.5469C952.05 70.0162 952.766 69.6061 953.538 69.3375L953.538 64.2581 946.242 56.9616C945.427 56.2026 945.382 54.9273 946.141 54.1128 946.9 53.2984 948.175 53.2534 948.99 54.0123 949.024 54.0446 949.058 54.0781 949.09 54.1128L953.538 58.5606 953.538 50.0278C953.538 48.9146 954.441 48.0122 955.554 48.0122 956.667 48.0122 957.569 48.9146 957.569 50.0278L957.569 58.4128 962.031 54.0859C962.832 53.3105 964.111 53.3314 964.886 54.133 965.662 54.9345 965.641 56.213 964.839 56.9884L957.516 64.0163 957.516 69.2972C958.327 69.5892 959.068 70.0467 959.693 70.6409L964.087 68.1684 966.855 58.2381C967.12 57.1569 968.211 56.4954 969.292 56.7604 970.373 57.0255 971.035 58.1168 970.77 59.198 970.761 59.2367 970.75 59.2751 970.738 59.3131L969.058 65.3063 976.489 61.1138C977.428 60.5151 978.674 60.7907 979.273 61.7293 979.871 62.6679 979.596 63.914 978.657 64.5126 978.595 64.5521 978.531 64.5884 978.465 64.6209L971.155 68.7462Z" stroke="#FFFFFF" stroke-width="1.34375" fill="#9ACBE3"/></g></svg>