<svg width="129" height="129" xmlns="http://www.w3.org/2000/svg" xmlns:xlink="http://www.w3.org/1999/xlink" xml:space="preserve" overflow="hidden"><defs><clipPath id="clip0"><rect x="0" y="0" width="129" height="129"/></clipPath></defs><g clip-path="url(#clip0)"><path d="M121.677 107.5 69.1628 16.125C67.6862 13.5498 64.4015 12.6593 61.8263 14.1358 60.9985 14.6106 60.3119 15.2971 59.8372 16.125L7.32344 107.5C5.83917 110.071 6.72 113.358 9.29082 114.842 10.1063 115.313 11.0312 115.562 11.9728 115.562L117.027 115.562C119.996 115.559 122.4 113.15 122.397 110.182 122.396 109.24 122.147 108.316 121.677 107.5ZM86.1075 70.5066C87.1762 70.8183 87.7899 71.9372 87.4781 73.0059 87.2272 73.8659 86.439 74.4572 85.5431 74.4572 85.3477 74.4569 85.1533 74.4298 84.9653 74.3766L75.25 71.4875 70.6678 74.0809C70.7381 74.4667 70.7741 74.8579 70.7753 75.25 70.7802 75.7008 70.7397 76.151 70.6544 76.5938L74.9812 79.1066 84.9519 76.4191C86.0279 76.1334 87.132 76.7741 87.4177 77.8502 87.7033 78.9262 87.0626 80.0303 85.9866 80.3159L79.9397 81.9688 87.3438 86.215C88.3251 86.7405 88.6946 87.962 88.1692 88.9434 87.6437 89.9248 86.4222 90.2944 85.4407 89.7688 85.3979 89.7458 85.3558 89.7214 85.3147 89.6953L78.0719 85.4759 79.55 91.5094C79.8736 92.5746 79.2724 93.7002 78.2073 94.0238 77.1421 94.3474 76.0163 93.7462 75.6928 92.6811 75.6711 92.6096 75.6534 92.5369 75.6397 92.4634L73.2209 82.6541 68.6656 79.9666C68.0436 80.4972 67.3282 80.9073 66.5559 81.1759L66.5559 86.3225 73.8256 93.3503C74.6116 94.1372 74.6116 95.4122 73.8256 96.1991 73.4538 96.5969 72.9324 96.8211 72.3878 96.8172 71.8855 96.802 71.4066 96.6008 71.0441 96.2528L66.5156 91.9528 66.5156 100.472C66.5156 101.585 65.6132 102.488 64.5 102.488 63.3868 102.488 62.4844 101.585 62.4844 100.472L62.4844 91.805 58.0366 96.2528C57.2221 97.0118 55.9468 96.9666 55.1878 96.1523 54.4665 95.3782 54.4665 94.1782 55.1878 93.4041L62.4844 86.1075 62.4844 81.2028C61.6733 80.9108 60.9319 80.4533 60.3075 79.8591L55.8194 82.3853 53.2663 92.1678C53.0342 93.0539 52.2338 93.6721 51.3178 93.6728 51.1451 93.677 50.9729 93.6544 50.8072 93.6056 49.7317 93.3229 49.0881 92.2225 49.3694 91.1466L50.9416 85.14 43.5106 89.3191C42.572 89.9177 41.326 89.6421 40.7273 88.7035 40.1288 87.7649 40.4044 86.5188 41.3429 85.9202 41.405 85.8807 41.4692 85.8444 41.5353 85.8119L49.0872 81.5522 43 79.9397C41.9276 79.6391 41.3019 78.5262 41.6025 77.4538 41.9031 76.3814 43.016 75.7557 44.0884 76.0563L54.0187 78.8244 58.2784 76.4191C58.2082 76.0333 58.1721 75.6421 58.1709 75.25 58.1661 74.7992 58.2066 74.349 58.2919 73.9062L53.8709 71.3263 44.1422 74.0138C43.0697 74.318 41.9538 73.6954 41.6495 72.623 41.3453 71.5507 41.9679 70.4345 43.0403 70.1303L49.0603 68.5312 41.6562 64.285C40.6749 63.7595 40.3054 62.538 40.8308 61.5567 41.3563 60.5753 42.5778 60.2056 43.5593 60.7312 43.6021 60.7542 43.6442 60.7786 43.6853 60.8047L51.17 65.1584 49.6112 59.125C49.2893 58.0594 49.8921 56.9346 50.9577 56.6126 52.0233 56.2905 53.1483 56.8934 53.4702 57.959 53.4846 58.0067 53.4972 58.0551 53.5081 58.1038L56.1956 68.0744 60.4284 70.5469C61.0505 70.0162 61.7659 69.6061 62.5381 69.3375L62.5381 64.2581 55.2416 56.9616C54.4271 56.2026 54.3821 54.9273 55.141 54.1128 55.8999 53.2984 57.1754 53.2534 57.9898 54.0123 58.0245 54.0446 58.0579 54.0781 58.0903 54.1128L62.5381 58.5606 62.5381 50.0278C62.5381 48.9146 63.4406 48.0122 64.5537 48.0122 65.6669 48.0122 66.5694 48.9146 66.5694 50.0278L66.5694 58.4128 71.0306 54.0859C71.8322 53.3105 73.1106 53.3314 73.8861 54.133 74.6616 54.9345 74.6406 56.213 73.8391 56.9884L66.5156 64.0163 66.5156 69.2972C67.3267 69.5892 68.0681 70.0467 68.6925 70.6409L73.0866 68.1684 75.8547 58.2381C76.1198 57.1569 77.2111 56.4954 78.2923 56.7604 79.3734 57.0255 80.0351 58.1168 79.77 59.198 79.7606 59.2367 79.7498 59.2751 79.7381 59.3131L78.0584 65.3063 85.4894 61.1138C86.428 60.5151 87.674 60.7907 88.2727 61.7293 88.8712 62.6679 88.5956 63.914 87.6571 64.5126 87.595 64.5521 87.5308 64.5884 87.4647 64.6209L80.1547 68.7462Z" stroke="#FFFFFF" stroke-width="1.34375" fill="#01324A"/></g></svg>