<svg width="128" height="128" xmlns="http://www.w3.org/2000/svg" xmlns:xlink="http://www.w3.org/1999/xlink" xml:space="preserve" overflow="hidden"><defs><clipPath id="clip0"><rect x="1040" y="273" width="128" height="128"/></clipPath></defs><g clip-path="url(#clip0)" transform="translate(-1040 -273)"><path d="M1160.73 379.667 1108.63 289C1107.16 286.445 1103.9 285.561 1101.35 287.026 1100.53 287.497 1099.84 288.179 1099.37 289L1047.27 379.667C1045.79 382.218 1046.67 385.479 1049.22 386.952 1050.03 387.419 1050.95 387.666 1051.88 387.667L1156.12 387.667C1159.07 387.664 1161.45 385.273 1161.45 382.328 1161.45 381.393 1161.2 380.476 1160.73 379.667ZM1125.44 342.96C1126.5 343.269 1127.11 344.38 1126.8 345.44 1126.55 346.293 1125.77 346.88 1124.88 346.88 1124.69 346.88 1124.49 346.853 1124.31 346.8L1114.67 343.933 1110.12 346.507C1110.19 346.889 1110.23 347.278 1110.23 347.667 1110.23 348.114 1110.19 348.561 1110.11 349L1114.4 351.493 1124.29 348.827C1125.36 348.543 1126.46 349.179 1126.74 350.247 1127.02 351.314 1126.39 352.41 1125.32 352.693L1119.32 354.333 1126.67 358.547C1127.64 359.068 1128.01 360.28 1127.49 361.254 1126.96 362.228 1125.75 362.594 1124.78 362.073 1124.74 362.05 1124.69 362.026 1124.65 362L1117.47 357.813 1118.93 363.8C1119.25 364.857 1118.66 365.974 1117.6 366.295 1116.54 366.616 1115.43 366.019 1115.11 364.963 1115.08 364.892 1115.07 364.82 1115.05 364.747L1112.65 355.013 1108.13 352.347C1107.52 352.873 1106.81 353.28 1106.04 353.547L1106.04 358.653 1113.25 365.627C1114.03 366.407 1114.03 367.673 1113.25 368.453 1112.88 368.848 1112.37 369.071 1111.83 369.067 1111.33 369.052 1110.85 368.852 1110.49 368.507L1106 364.24 1106 372.693C1106 373.798 1105.1 374.693 1104 374.693 1102.9 374.693 1102 373.798 1102 372.693L1102 364.093 1097.59 368.507C1096.78 369.26 1095.51 369.215 1094.76 368.407 1094.04 367.639 1094.04 366.448 1094.76 365.68L1102 358.44 1102 353.573C1101.2 353.284 1100.46 352.83 1099.84 352.24L1095.39 354.747 1092.85 364.453C1092.62 365.333 1091.83 365.946 1090.92 365.947 1090.75 365.951 1090.58 365.928 1090.41 365.88 1089.35 365.599 1088.71 364.508 1088.99 363.44L1090.55 357.48 1083.17 361.627C1082.24 362.221 1081.01 361.947 1080.41 361.016 1079.82 360.085 1080.09 358.848 1081.02 358.254 1081.08 358.215 1081.15 358.179 1081.21 358.147L1088.71 353.92 1082.67 352.32C1081.6 352.022 1080.98 350.917 1081.28 349.853 1081.58 348.789 1082.68 348.168 1083.75 348.467L1093.6 351.213 1097.83 348.827C1097.76 348.444 1097.72 348.056 1097.72 347.667 1097.72 347.219 1097.76 346.773 1097.84 346.333L1093.45 343.773 1083.8 346.44C1082.74 346.742 1081.63 346.124 1081.33 345.06 1081.02 343.996 1081.64 342.889 1082.71 342.587L1088.68 341 1081.33 336.787C1080.36 336.265 1079.99 335.053 1080.51 334.079 1081.04 333.106 1082.25 332.739 1083.22 333.26 1083.26 333.283 1083.31 333.307 1083.35 333.333L1090.77 337.653 1089.23 331.667C1088.91 330.609 1089.51 329.493 1090.56 329.174 1091.62 328.854 1092.74 329.452 1093.06 330.51 1093.07 330.557 1093.08 330.605 1093.09 330.653L1095.76 340.547 1099.96 343C1100.58 342.473 1101.29 342.067 1102.05 341.8L1102.05 336.76 1094.81 329.52C1094.01 328.767 1093.96 327.501 1094.71 326.693 1095.47 325.885 1096.73 325.841 1097.54 326.594 1097.57 326.626 1097.61 326.659 1097.64 326.693L1102.05 331.107 1102.05 322.64C1102.05 321.535 1102.95 320.64 1104.05 320.64 1105.16 320.64 1106.05 321.535 1106.05 322.64L1106.05 330.96 1110.48 326.667C1111.28 325.897 1112.54 325.918 1113.31 326.713 1114.08 327.509 1114.06 328.777 1113.27 329.547L1106 336.52 1106 341.76C1106.8 342.05 1107.54 342.504 1108.16 343.093L1112.52 340.64 1115.27 330.787C1115.53 329.714 1116.61 329.057 1117.69 329.32 1118.76 329.583 1119.41 330.666 1119.15 331.739 1119.14 331.777 1119.13 331.816 1119.12 331.853L1117.45 337.8 1124.83 333.64C1125.76 333.046 1126.99 333.319 1127.59 334.251 1128.18 335.182 1127.91 336.419 1126.98 337.013 1126.92 337.052 1126.85 337.088 1126.79 337.12L1119.53 341.213Z" stroke="#FFFFFF" stroke-width="1.33333" fill="#B3BDF1"/></g></svg>