<svg width="128" height="128" xmlns="http://www.w3.org/2000/svg" xmlns:xlink="http://www.w3.org/1999/xlink" xml:space="preserve" overflow="hidden"><defs><clipPath id="clip0"><rect x="446" y="273" width="128" height="128"/></clipPath></defs><g clip-path="url(#clip0)" transform="translate(-446 -273)"><path d="M566.733 379.667 514.627 289C513.161 286.445 509.902 285.561 507.347 287.026 506.526 287.497 505.844 288.179 505.373 289L453.267 379.667C451.794 382.218 452.668 385.479 455.219 386.952 456.028 387.419 456.946 387.666 457.88 387.667L562.12 387.667C565.065 387.664 567.451 385.273 567.448 382.328 567.447 381.393 567.201 380.476 566.733 379.667ZM531.44 342.96C532.5 343.269 533.109 344.38 532.8 345.44 532.551 346.293 531.769 346.88 530.88 346.88 530.686 346.88 530.493 346.853 530.307 346.8L520.667 343.933 516.12 346.507C516.19 346.889 516.225 347.278 516.227 347.667 516.231 348.114 516.191 348.561 516.107 349L520.4 351.493 530.293 348.827C531.361 348.543 532.457 349.179 532.74 350.247 533.023 351.314 532.388 352.41 531.32 352.693L525.32 354.333 532.667 358.547C533.64 359.068 534.007 360.28 533.486 361.254 532.964 362.228 531.752 362.594 530.778 362.073 530.736 362.05 530.694 362.026 530.653 362L523.467 357.813 524.933 363.8C525.254 364.857 524.658 365.974 523.601 366.295 522.544 366.616 521.427 366.019 521.106 364.963 521.085 364.892 521.067 364.82 521.053 364.747L518.653 355.013 514.133 352.347C513.516 352.873 512.806 353.28 512.04 353.547L512.04 358.653 519.253 365.627C520.033 366.407 520.033 367.673 519.253 368.453 518.884 368.848 518.367 369.071 517.827 369.067 517.328 369.052 516.853 368.852 516.493 368.507L512 364.24 512 372.693C512 373.798 511.105 374.693 510 374.693 508.895 374.693 508 373.798 508 372.693L508 364.093 503.587 368.507C502.779 369.26 501.513 369.215 500.76 368.407 500.044 367.639 500.044 366.448 500.76 365.68L508 358.44 508 353.573C507.195 353.284 506.46 352.83 505.84 352.24L501.387 354.747 498.853 364.453C498.623 365.333 497.829 365.946 496.92 365.947 496.749 365.951 496.578 365.928 496.413 365.88 495.346 365.599 494.708 364.508 494.987 363.44L496.547 357.48 489.173 361.627C488.242 362.221 487.006 361.947 486.412 361.016 485.818 360.085 486.091 358.848 487.022 358.254 487.084 358.215 487.148 358.179 487.213 358.147L494.707 353.92 488.667 352.32C487.603 352.022 486.982 350.917 487.28 349.853 487.578 348.789 488.683 348.168 489.747 348.467L499.6 351.213 503.827 348.827C503.757 348.444 503.721 348.056 503.72 347.667 503.715 347.219 503.755 346.773 503.84 346.333L499.453 343.773 489.8 346.44C488.736 346.742 487.629 346.124 487.327 345.06 487.025 343.996 487.643 342.889 488.707 342.587L494.68 341 487.333 336.787C486.36 336.265 485.993 335.053 486.514 334.079 487.036 333.106 488.248 332.739 489.222 333.26 489.264 333.283 489.306 333.307 489.347 333.333L496.773 337.653 495.227 331.667C494.907 330.609 495.505 329.493 496.563 329.174 497.62 328.854 498.736 329.452 499.056 330.51 499.07 330.557 499.083 330.605 499.093 330.653L501.76 340.547 505.96 343C506.577 342.473 507.287 342.067 508.053 341.8L508.053 336.76 500.813 329.52C500.005 328.767 499.961 327.501 500.714 326.693 501.467 325.885 502.732 325.841 503.54 326.594 503.575 326.626 503.608 326.659 503.64 326.693L508.053 331.107 508.053 322.64C508.053 321.535 508.949 320.64 510.053 320.64 511.158 320.64 512.053 321.535 512.053 322.64L512.053 330.96 516.48 326.667C517.275 325.897 518.544 325.918 519.313 326.713 520.083 327.509 520.062 328.777 519.267 329.547L512 336.52 512 341.76C512.805 342.05 513.54 342.504 514.16 343.093L518.52 340.64 521.267 330.787C521.53 329.714 522.613 329.057 523.685 329.32 524.758 329.583 525.415 330.666 525.152 331.739 525.142 331.777 525.132 331.816 525.12 331.853L523.453 337.8 530.827 333.64C531.758 333.046 532.994 333.319 533.588 334.251 534.182 335.182 533.909 336.419 532.978 337.013 532.916 337.052 532.852 337.088 532.787 337.12L525.533 341.213Z" stroke="#FFFFFF" stroke-width="1.33333" fill="#0222BD"/></g></svg>