<svg width="128" height="129" xmlns="http://www.w3.org/2000/svg" xmlns:xlink="http://www.w3.org/1999/xlink" xml:space="preserve" overflow="hidden"><defs><clipPath id="clip0"><rect x="170" y="280" width="128" height="129"/></clipPath></defs><g clip-path="url(#clip0)" transform="translate(-170 -280)"><path d="M62.8 108.133 81.8667 89.0667 108.933 111.067C109.467 111.6 110.4 111.467 110.933 110.933 111.467 110.4 111.467 109.6 111.067 108.933L89.0667 82 108.133 62.9333C109.6 61.4667 110 59.3333 109.333 57.3333 108.667 55.3333 106.8 54 104.8 53.8667 99.4667 53.3333 92.9333 55.0667 86.2667 58.6667L58 36C60.4 31.3333 61.4667 26.1333 61.0667 20.9333 60.5333 17.2 55.8667 15.2 53.3333 17.7333L17.7333 53.3333C15.2 55.8667 17.2 60.5333 20.9333 61.0667 26.1333 61.4667 31.3333 60.5333 36 58L58.6667 86.2667C55.0667 92.9333 53.4667 99.4667 53.8667 104.8 54 106.8 55.3333 108.667 57.3333 109.333 59.2 110.133 61.3333 109.6 62.8 108.133Z" stroke="#FFFFFF" stroke-width="1.33333" fill="#00FFFF" transform="matrix(1 0 0 1.00781 170 280)"/></g></svg>