<svg width="128" height="128" xmlns="http://www.w3.org/2000/svg" xmlns:xlink="http://www.w3.org/1999/xlink" xml:space="preserve" overflow="hidden"><defs><clipPath id="clip0"><rect x="319" y="420" width="128" height="128"/></clipPath></defs><g clip-path="url(#clip0)" transform="translate(-319 -420)"><path d="M381.8 528.133 400.867 509.067 427.933 531.067C428.467 531.6 429.4 531.467 429.933 530.933 430.467 530.4 430.467 529.6 430.067 528.933L408.067 502 427.133 482.933C428.6 481.467 429 479.333 428.333 477.333 427.667 475.333 425.8 474 423.8 473.867 418.467 473.333 411.933 475.067 405.267 478.667L377 456C379.4 451.333 380.467 446.133 380.067 440.933 379.533 437.2 374.867 435.2 372.333 437.733L336.733 473.333C334.2 475.867 336.2 480.533 339.933 481.067 345.133 481.467 350.333 480.533 355 478L377.667 506.267C374.067 512.933 372.467 519.467 372.867 524.8 373 526.8 374.333 528.667 376.333 529.333 378.2 530.133 380.333 529.6 381.8 528.133Z" stroke="#FFFFFF" stroke-width="1.33333" fill="#FF6600"/></g></svg>