<svg width="128" height="128" xmlns="http://www.w3.org/2000/svg" xmlns:xlink="http://www.w3.org/1999/xlink" xml:space="preserve" overflow="hidden"><defs><clipPath id="clip0"><rect x="21" y="420" width="128" height="128"/></clipPath></defs><g clip-path="url(#clip0)" transform="translate(-21 -420)"><path d="M83.8 528.133 102.867 509.067 129.933 531.067C130.467 531.6 131.4 531.467 131.933 530.933 132.467 530.4 132.467 529.6 132.067 528.933L110.067 502 129.133 482.933C130.6 481.467 131 479.333 130.333 477.333 129.667 475.333 127.8 474 125.8 473.867 120.467 473.333 113.933 475.067 107.267 478.667L79 456C81.4 451.333 82.4667 446.133 82.0667 440.933 81.5333 437.2 76.8667 435.2 74.3333 437.733L38.7333 473.333C36.2 475.867 38.2 480.533 41.9333 481.067 47.1333 481.467 52.3333 480.533 57 478L79.6667 506.267C76.0667 512.933 74.4667 519.467 74.8667 524.8 75 526.8 76.3333 528.667 78.3333 529.333 80.2 530.133 82.3333 529.6 83.8 528.133Z" stroke="#FFFFFF" stroke-width="1.33333" fill="#FFFF00"/></g></svg>