<?xml version="1.0" encoding="UTF-8"?><svg xmlns="http://www.w3.org/2000/svg" viewBox="0 0 128 128"><defs><style>.cls-1{fill:#063;}.cls-2{fill:#ffec00;}.cls-3{fill:#35a8e0;}</style></defs><g id="cuadrobase"><g><rect class="cls-1" x="2" y="2" width="124" height="124" rx="22" ry="22"/><path class="cls-3" d="M104,4c11.03,0,20,8.97,20,20V104c0,11.03-8.97,20-20,20H24c-11.03,0-20-8.97-20-20V24C4,12.97,12.97,4,24,4H104m0-4H24C10.75,0,0,10.75,0,24V104c0,13.25,10.75,24,24,24H104c13.25,0,24-10.75,24-24V24c0-13.25-10.75-24-24-24h0Z"/></g></g><g id="figura"><path class="cls-2" d="M64,12.5c-26.45,0-47.89,19.53-47.89,39.63,0,15.95,30.15,48.62,42.61,62.77,2.87,3.26,7.69,3.26,10.57,0,12.46-14.15,42.61-46.81,42.61-62.77,0-20.11-21.44-39.63-47.89-39.63Zm-22.64,59.05c-2.65-4.57-5.9-10.23-5.9-10.23-.34-.57-.49-1.19-.49-1.83s.17-1.29,.51-1.87l3.72-6.43-1.27-.73-4.77-2.75,16.7-3.56,5.59,16.44-4.78-2.77-1.25-.72-7.28,12.57c-.34,.59-.58,1.22-.77,1.87Zm21.48,5.99h-14.68c-1.58,.01-3.05-.82-3.83-2.18-.4-.68-.6-1.43-.6-2.2s.2-1.54,.61-2.23c0,0,2.36-4.08,3.01-5.2h15.48v11.82Zm-6.85-32.12c-1.84-1.05-8.41-4.84-10.25-5.89,1.17-2.01,7.36-12.72,7.36-12.72,.76-1.38,2.23-2.23,3.8-2.24,.78,.02,1.53,.22,2.19,.59,.67,.39,1.23,.96,1.63,1.65,0,0,2.35,4.09,3,5.21-.67,1.16-6.63,11.49-7.73,13.4Zm6.9-19.9c-.33-.59-.75-1.12-1.22-1.6h11.82c.64,0,1.27,.16,1.82,.48,.55,.32,1.04,.79,1.37,1.37l3.7,6.45,1.27-.74,4.78-2.75-5.03,17.14-17.28-4.28,4.8-2.75,1.24-.74-7.26-12.57Zm23.67,50.02c-.32,.57-.78,1.02-1.34,1.34-.55,.33-1.21,.5-1.89,.5h-7.42s0,1.44,0,1.44v5.5l-11.59-12.87,11.63-12.87-.02,5.52v1.46h14.54c.67,.01,1.35-.11,2-.25-2.62,4.57-5.91,10.23-5.91,10.23Zm7.73-14.71c-.41,.69-.96,1.23-1.6,1.6-.68,.39-1.46,.6-2.26,.6h-6c-.67-1.17-6.63-11.51-7.73-13.42,1.83-1.05,8.41-4.84,10.23-5.91,1.16,2.01,7.34,12.73,7.34,12.73,.78,1.35,.8,3.03,.03,4.4Z"/></g></svg>