<?xml version="1.0" encoding="UTF-8"?><svg xmlns="http://www.w3.org/2000/svg" viewBox="0 0 128 128"><defs><style>.cls-1{fill:#fff;}.cls-2{fill:#936037;}</style></defs><g id="cuadrobase"><g><rect class="cls-2" x="2" y="2" width="124" height="124" rx="22" ry="22"/><path class="cls-1" d="M104,4c11.03,0,20,8.97,20,20V104c0,11.03-8.97,20-20,20H24c-11.03,0-20-8.97-20-20V24C4,12.97,12.97,4,24,4H104M104,0H24C10.75,0,0,10.75,0,24V104C0,117.25,10.75,128,24,128H104c13.25,0,24-10.75,24-24V24C128,10.75,117.25,0,104,0h0Z"/></g></g><g id="figura"><g><path class="cls-1" d="M21.85,39.27v11.71h-2.31v-13.02c-.52-.16-1.05-.24-1.6-.24-.61,0-1.21,.11-1.78,.3v12.95h-2.31v-11.56c-2.34,2.11-3.92,5.98-3.92,10.4,0,5.27,2.23,9.75,5.34,11.41v31.23c0,1.47,1.2,2.67,2.67,2.67s2.67-1.2,2.67-2.67v-31.23c3.11-1.66,5.34-6.14,5.34-11.41,0-4.53-1.65-8.48-4.09-10.56Z"/><path class="cls-1" d="M110.55,37.73c-4.42,0-8.01,5.42-8.01,12.1,0,5.27,2.23,9.75,5.34,11.41v31.23c0,1.47,1.2,2.67,2.67,2.67s2.67-1.2,2.67-2.67v-31.23c3.11-1.66,5.34-6.14,5.34-11.41,0-6.68-3.59-12.1-8.01-12.1Z"/><path class="cls-1" d="M64,34c-18.57,0-33.62,15.05-33.62,33.62s15.05,33.62,33.62,33.62,33.62-15.05,33.62-33.62-15.05-33.62-33.62-33.62Z"/></g></g></svg>