<?xml version="1.0" encoding="UTF-8"?><svg xmlns="http://www.w3.org/2000/svg" viewBox="0 0 128 128"><defs><style>.cls-1{fill:#e61b72;}.cls-2{fill:#ffec00;}.cls-3{fill:#ececec;}</style></defs><g id="cuadrobase"><g><rect class="cls-3" x="2" y="2" width="124" height="124" rx="22" ry="22"/><path class="cls-2" d="M104,4c11.03,0,20,8.97,20,20V104c0,11.03-8.97,20-20,20H24c-11.03,0-20-8.97-20-20V24C4,12.97,12.97,4,24,4H104m0-4H24C10.75,0,0,10.75,0,24V104c0,13.25,10.75,24,24,24H104c13.25,0,24-10.75,24-24V24c0-13.25-10.75-24-24-24h0Z"/></g></g><g id="figura"><g><path class="cls-1" d="M101.25,75.66l-6.25-19.15c-1.15-3.03-3.69-5.64-8.48-5.64H41.43c-4.77,0-7.3,2.61-8.48,5.64l-6.2,19.15c-2.46,.3-6.81,3.19-6.81,8.64v20.37h6.05v6.55c-.01,8,11.34,7.91,11.33,0v-6.55h53.37v6.55c-.02,7.91,11.32,8,11.33,0v-6.55h6.05v-20.37c-.01-5.45-4.37-8.34-6.81-8.64ZM31.83,96.05c-3.71-.01-6.72-3.11-6.71-6.91-.01-3.86,3-6.96,6.71-6.97,3.71,.01,6.72,3.12,6.71,6.97,.01,3.8-3,6.9-6.71,6.91Zm1.37-20.55l4.67-15.74c.57-1.75,1.44-3.03,3.51-3.05h45.24c2.04,.02,2.92,1.29,3.51,3.05l4.67,15.74H33.2Zm62.98,20.99c-3.98-.01-7.18-3.31-7.21-7.35,.03-4.11,3.23-7.41,7.21-7.42,3.92,.01,7.12,3.31,7.14,7.42-.02,4.04-3.22,7.34-7.14,7.35Z"/><path class="cls-1" d="M42.58,40.68c5.74,.01,10.75-3.14,13.43-7.82h3.47l5.83-7.31,8.82,7.53,8.41-7.62,8.82,7.56,8.88-7.78c.95-.95,.97-1.63,0-2.64l-5.33-5.33H56.04c-2.67-4.73-7.7-7.92-13.47-7.93-8.58,.02-15.52,7.03-15.55,15.7,.02,8.65,6.97,15.67,15.55,15.65Zm-5.4-21.92c2.82,.03,5.11,2.35,5.13,5.19-.01,2.88-2.31,5.21-5.13,5.19-2.85,.02-5.15-2.31-5.13-5.19-.02-2.84,2.28-5.16,5.13-5.19Z"/></g></g></svg>