<?xml version="1.0" encoding="UTF-8"?><svg id="iconoAGUA" xmlns="http://www.w3.org/2000/svg" viewBox="0 0 128 128"><defs><style>.cls-1{fill:#fff;}.cls-2{fill:#ffed00;}.cls-3{fill:#7b6a58;}</style></defs><g><rect class="cls-3" x="2" y="2" width="124" height="124" rx="22" ry="22"/><path class="cls-2" d="M104,4c11.03,0,20,8.97,20,20V104c0,11.03-8.97,20-20,20H24c-11.03,0-20-8.97-20-20V24C4,12.97,12.97,4,24,4H104M104,0H24C10.75,0,0,10.75,0,24V104C0,117.25,10.75,128,24,128H104c13.25,0,24-10.75,24-24V24C128,10.75,117.25,0,104,0h0Z"/></g><path class="cls-1" d="M51.75,11.06c-4.52,0-6.14,4.14-8.16,8.21l-.87,1.64c-.87,1.64-2.58,2.67-4.45,2.67h-15.31c-6.64,0-12.03,5.41-12.03,12.09v60.91c0,14.3,8.07,20.36,20.25,20.36H96.82c13.56,0,20.25-6.9,20.25-20.36V35.67c0-6.68-5.39-12.09-12.03-12.09h-15.36c-1.92,0-3.66-1.08-4.51-2.8l-.75-1.52c-2.04-4.1-3.64-8.21-8.16-8.21h-24.49ZM25.26,31.42c6.63-1.09,12.28,4.55,11.2,11.16-.66,4-3.9,7.23-7.91,7.89-6.63,1.09-12.28-4.55-11.2-11.16,.66-4,3.9-7.23,7.91-7.89Zm38.35,10.06c17.51-1.1,31.94,13.29,30.84,30.75-.91,14.4-12.63,26.09-27.07,26.99-17.51,1.1-31.94-13.29-30.84-30.75,.91-14.4,12.63-26.09,27.07-26.99Zm3.62,15.66c-8.74-1.1-16.09,6.23-14.99,14.95,.75,5.94,5.56,10.74,11.52,11.48,8.74,1.1,16.09-6.23,14.99-14.95-.75-5.94-5.56-10.74-11.52-11.48Z"/></svg>