<?xml version="1.0" encoding="UTF-8"?><svg id="iconoAGUA" xmlns="http://www.w3.org/2000/svg" viewBox="0 0 128 128"><defs><style>.cls-1{fill:#fff;}.cls-2{fill:#ffed00;}.cls-3{fill:#7b6a58;}</style></defs><g><rect class="cls-3" x="2" y="2" width="124" height="124" rx="22" ry="22"/><path class="cls-2" d="M104,4c11.03,0,20,8.97,20,20V104c0,11.03-8.97,20-20,20H24c-11.03,0-20-8.97-20-20V24C4,12.97,12.97,4,24,4H104M104,0H24C10.74,0,0,10.75,0,24V104C0,117.25,10.74,128,24,128H104c13.25,0,24-10.75,24-24V24C128,10.75,117.25,0,104,0h0Z"/></g><rect class="cls-2" x="16.63" y="18.38" width="97.1" height="8.43"/><rect class="cls-2" x="16.63" y="37.13" width="97.1" height="8.43"/><rect class="cls-2" x="16.63" y="55.88" width="50.89" height="8.43"/><polygon class="cls-1" points="96.11 120.5 87.23 109.81 78.29 120.5 78.29 83.81 96.11 83.81 96.11 120.5"/><polygon class="cls-1" points="87.2 65.28 93.35 60.28 95.39 67.94 103.3 67.51 100.45 74.91 107.11 79.21 100.45 83.52 103.3 90.91 95.39 90.49 93.35 98.14 87.2 93.15 81.05 98.14 79.01 90.49 71.1 90.91 73.95 83.52 67.3 79.21 73.95 74.91 71.1 67.51 79.01 67.94 81.05 60.28 87.2 65.28"/><g><path class="cls-1" d="M87.2,85.74c-3.6,0-6.53-2.93-6.53-6.53s2.93-6.53,6.53-6.53,6.53,2.93,6.53,6.53-2.93,6.53-6.53,6.53Z"/><path class="cls-3" d="M87.2,73.69c3.05,0,5.53,2.48,5.53,5.53s-2.48,5.53-5.53,5.53-5.53-2.48-5.53-5.53,2.48-5.53,5.53-5.53m0-2c-4.16,0-7.53,3.37-7.53,7.53s3.37,7.53,7.53,7.53,7.53-3.37,7.53-7.53-3.37-7.53-7.53-7.53h0Z"/></g></svg>