<svg xmlns="http://www.w3.org/2000/svg" id="iconoAGUA" viewBox="0 0 128 128"><defs><style>.cls-1{fill:#ffed00}.cls-2{fill:#662483}.cls-3{fill:#7b6a58}</style></defs><g><rect width="124" height="124" x="2" y="1.82" class="cls-1" rx="22" ry="22"/><path d="M104,3.82c11.03,0,20,8.97,20,20V103.82c0,11.03-8.97,20-20,20H24c-11.03,0-20-8.97-20-20V23.82C4,12.79,12.97,3.82,24,3.82H104m0-4H24C10.75-.18,0,10.56,0,23.82V103.82C0,117.07,10.75,127.82,24,127.82H104c13.25,0,24-10.75,24-24V23.82C128,10.56,117.25-.18,104-.18h0Z" class="cls-3"/></g><path d="M30.28,116.52c-4.23-1.4-7.83-2.66-8-2.81s1.55-4.56,3.83-9.8l4.15-9.53v-30.56s.01-30.56,.01-30.56l-4.14-9.29c-2.28-5.11-4.14-9.44-4.14-9.61,0-.58,17.8-5.88,18.31-5.45,.27,.23,2.92,6.28,5.89,13.44l5.39,13.01,.03,28.5,.03,28.5-5.58,13.43c-3.07,7.38-6.14,13.39-6.83,13.36s-4.71-1.21-8.94-2.61h0Zm57.51,1.83c-.34-.47-2.76-6.01-5.4-12.33l-4.78-11.48V33.41l4.81-11.57c2.65-6.36,5.27-11.97,5.82-12.45,1.19-1.04,16.63,3.41,17.36,5,.27,.59-1.38,5.31-3.69,10.47l-4.19,9.39v29.55s.02,29.55,.02,29.55l4.13,9.38c2.27,5.16,4.13,9.78,4.13,10.27s-3.76,2.08-8.35,3.54c-9.49,3.01-9.06,2.93-9.87,1.8h0Z" class="cls-2"/></svg>