<?xml version="1.0" encoding="UTF-8"?><svg xmlns="http://www.w3.org/2000/svg" viewBox="0 0 128 128"><defs><style>.cls-1{fill:#ffec00;}.cls-2{fill:#86134d;}</style></defs><g id="basecuadro"><g><rect class="cls-2" x="2" y="2" width="124" height="124" rx="22" ry="22"/><path class="cls-1" d="M104,4c11.03,0,20,8.97,20,20V104c0,11.03-8.97,20-20,20H24c-11.03,0-20-8.97-20-20V24C4,12.97,12.97,4,24,4H104M104,0H24C10.75,0,0,10.75,0,24V104C0,117.26,10.75,128,24,128H104c13.25,0,24-10.75,24-24V24C128,10.75,117.26,0,104,0h0Z"/></g></g><g id="figura"><g><path class="cls-1" d="M91.95,73.1c-.77,1.33-1.61,2.59-2.5,3.8,0,0,8.18,2,14.24,5.53,6.06,3.52,11.31,9.33,11.31,9.33,11.71-21.56,.38-50.99-25.73-66.6,9.73,14.51,11.39,32.93,2.67,47.94Z"/><path class="cls-1" d="M36.84,46.31c.61-1.37,1.3-2.73,2.07-4.05,8.73-15.01,25.34-22.8,42.46-21.7-.23-.14-.46-.28-.69-.42C54.03,4.65,22.38,9.26,9.31,30.31c0,0,7.42,2.78,13.78,6.48,6.37,3.7,13.74,9.52,13.74,9.52Z"/><path class="cls-1" d="M44.16,45.17c-.77,1.32-1.46,2.67-2.07,4.04,0,0,12.69,5.14,21.98,10.54,9.29,5.4,20.1,13.73,20.1,13.73,.89-1.21,1.72-2.47,2.49-3.79,8.69-14.95,4.68-32.77-1.73-46.87-.02-.01-.04-.02-.05-.03-17.8,1.69-32.02,7.43-40.71,22.38Z"/><polygon class="cls-1" points="91.13 13.76 90.23 13.23 85.57 17.08 90.24 19.79 91.13 13.76"/><path class="cls-1" d="M39.63,105.6l23.08-40.11-4.67-2.72-24.66,42.83H4.05c0,10.42,8.44,18.86,18.86,18.86H105.1c10.42,0,18.86-8.44,18.86-18.86h0s-84.33,0-84.33,0Z"/></g></g></svg>