<svg xmlns="http://www.w3.org/2000/svg" viewBox="0 0 128 128"><defs><style>.cls-1{fill:#dddb00}.cls-2,.cls-3{fill:#35a8e0}.cls-3{fill-rule:evenodd}</style></defs><g id="cuadrobase"><g><rect width="124" height="124" x="2" y="2" class="cls-1" rx="22" ry="22"/><path d="M104,4c11.03,0,20,8.97,20,20V104c0,11.03-8.97,20-20,20H24c-11.03,0-20-8.97-20-20V24C4,12.97,12.97,4,24,4H104m0-4H24C10.75,0,0,10.75,0,24V104c0,13.25,10.75,24,24,24H104c13.25,0,24-10.75,24-24V24c0-13.25-10.75-24-24-24h0Z" class="cls-2"/></g></g><g id="figura"><g><polygon points="102.61 17.95 102.61 17.96 102.61 17.96 102.61 17.95" class="cls-3"/><path d="M84.74,24.17l.1-.09s-.07-.03-.1,.09Z" class="cls-3"/><polygon points="33.36 33.19 33.36 33.19 33.36 33.19 33.36 33.19" class="cls-3"/><path d="M47.45,38.24c-.02-.1-.08-.07-.08-.07l.08,.07Z" class="cls-3"/><path d="M109.18,105.11c-2.92-10.76-15.44-19.49-31.92-22.71,1.59-17.56,4.63-27.63,12.54-42.28,2.3,2.2,4.47,5.69,5.24,6.39,.89,.8,2.1,1.69,2.1,1.69l1.06-.5-.17,.83,.61-.78-.87,1.32s-.4-.37,1.04,1.72,1.79,5.95,2.05,5.41c.26-.54,1.35-2.54,1.35-2.54l-.86-1.37,1.15,.27-1.65-.93,1.24,.32s.26-.54-.39-3.53c-.64-2.93-4.6-6.63-8.9-9.54,.9,.23,2.45,.79,4.99,2.15,4.76,2.56,9.68,5.57,10.16,6.02s1.54,.11,1.54,.11c0,0-5.18-6.54-7.94-9-1.12-1-1.69-1.6-1.96-1.95,1.09-.27,2.25-.65,2.25-.65l.21-1.15,.58,.62-.28-.95,.57,1.48s-.54,.11,2,.15c2.54,.04,5.89,2,5.6,1.47-.29-.52-1.29-2.57-1.29-2.57l-1.61-.1,.89-.79-1.72,.8,.98-.82s-.29-.52-3.11-1.73c-1.72-.74-4.43-.6-7.41,.06l-1.66-2.32,2.44,1.6-1.44-1.64,1.96,1.06-1.87-1.98,2.33,1.18s1.03-1.62,2.3-5.32c1.27-3.69,1.29-6.6,1.29-6.63l-2.79,4.33,.36,1.37-1.04-.96-.14,1.61s-.46,1.24-5.14,3.94c-.61,.35-1.24,.71-1.86,1.05,.51-3.45,.4-6.57-.76-8.3-1.71-2.57-2.34-2.76-2.34-2.76l-.8,1.12,.68-1.84-.76,1.02-.31-1.57s-2.42-.63-3.04-.82c-.62-.19,1.99,2.77,2.36,5.27,.37,2.5,.43,1.95,.43,1.95l1.73,.3-1.1-.11,.77,.46-1.26,.41s-.34,1.49-.48,2.69c-.08,.66,.22,2.53,.39,4.62-.03,.02-.06,.03-.09,.05-.53-1.72-1.1-3.4-1.62-4.54-.96-2.15-1.08-2.83-1.04-3.04l-2.36,2.22,1.26-2.64-1.43,1.65,.78-2.09-1.71,2.12,.86-2.47s-1.74-.81-5.58-1.57c-3.84-.76-6.74-.39-6.74-.39l4.66,2.19,1.31-.54-.81,1.16,1.61-.08s1.29,.29,4.59,4.57c.51,.66,1.02,1.34,1.52,2.01-2.27-2.85-4.75-5.02-6.88-5.35-3.05-.47-3.61-.14-3.61-.14l.29,1.34-.9-1.74,.23,1.25-1.37-.83s-2.1,1.36-2.66,1.69,3.39,.4,5.48,1.81c2.09,1.41,1.72,1,1.72,1l1.39-1.07-.83,.74,.86-.25-.55,1.21s.87,1.25,1.66,2.17c.12,.14,.32,.31,.58,.52-3.5-.39-6.66-.17-8.36,1.06-2.5,1.81-2.67,2.44-2.67,2.44l1.15,.75-1.86-.61,1.04,.73-1.56,.37s-.54,2.44-.7,3.07c-.17,.63,2.69-2.1,5.17-2.56,2.48-.46,1.93-.5,1.93-.5l.24-1.74-.07,1.11,.43-.78,.46,1.24s1.5,.29,2.71,.38c.95,.08,4.36-.72,7.38-.75,.21,.21,.41,.41,.6,.62-.23,0-.46,.02-.7,.03-5.29,.29-10.76,1.48-12.84,3.73-2.08,2.25-2.13,2.85-2.13,2.85l1.24,.35-1.89-.03,1.13,.35-1.43,.75s-.08,2.28-.13,2.88c-.05,.6,2.21-2.56,4.51-3.63,2.3-1.07,1.76-.96,1.76-.96l-.08-1.58,.13,.98,.28-.8,.66,.97s1.49-.15,2.67-.39c1.12-.23,5.46-2.54,8.71-3.04-7.22,13.08-10.76,28.06-14.99,41.49-2.49-.26-5.05-.4-7.66-.4-2,0-3.96,.09-5.89,.24-2.91-9.97-5.69-20.72-10.78-30.23,2.57,.41,5.98,2.29,6.87,2.47,.93,.2,2.1,.32,2.1,.32l.52-.78,.22,.65,.1-.8-.07,1.28s-.42-.1,1.39,.78c1.81,.87,3.59,3.43,3.56,2.95-.04-.48-.1-2.34-.1-2.34l-1.13-.61,.89-.29-1.49,.02,.97-.29s-.04-.48-1.68-2.31c-1.64-1.83-5.95-2.8-10.13-3.03-.19-.01-.37-.02-.55-.03,.15-.17,.31-.34,.47-.51,2.38,.02,5.07,.67,5.82,.61,.95-.08,2.14-.31,2.14-.31l.36-1.01,.34,.64-.05-.9,.19,1.41s-.44,.03,1.52,.41c1.96,.38,4.21,2.59,4.08,2.08s-.55-2.5-.55-2.5l-1.23-.3,.82-.59-1.47,.49,.91-.61s-.13-.51-2.1-1.98c-1.34-1-3.83-1.18-6.59-.86,.21-.17,.37-.31,.46-.42,.63-.75,1.31-1.77,1.31-1.77l-.43-.98,.68,.21-.65-.6,1.09,.87s-.29,.34,1.36-.81c1.65-1.15,4.76-1.2,4.32-1.47-.44-.27-2.1-1.38-2.1-1.38l-1.08,.67,.18-1.02-.71,1.41,.23-1.09s-.44-.27-2.85,.11c-1.68,.27-3.63,2.03-5.42,4.35,.39-.54,.79-1.09,1.2-1.63,2.6-3.48,3.62-3.71,3.62-3.71l1.27,.06-.64-.94,1.03,.44,3.68-1.78s-2.29-.31-5.31,.32c-3.03,.62-4.4,1.28-4.4,1.28l.68,2.01-1.35-1.72,.62,1.7-1.13-1.34,.99,2.14-1.86-1.8c.03,.17-.06,.73-.82,2.47-.4,.93-.85,2.29-1.27,3.69-.02-.01-.05-.03-.07-.04,.13-1.7,.37-3.21,.31-3.75-.11-.98-.38-2.19-.38-2.19l-.99-.33,.6-.38-.87,.09,1.36-.24s.04,.45,.34-1.58c.29-2.03,2.36-4.43,1.86-4.28-.49,.15-2.4,.66-2.4,.66l-.25,1.28-.6-.83,.53,1.49-.63-.91s-.49,.15-1.84,2.24c-.91,1.41-1,3.94-.6,6.75-.49-.28-.98-.57-1.46-.85-3.69-2.19-4.05-3.2-4.05-3.2l-.11-1.31-.82,.78,.28-1.11-2.2-3.52s.01,2.38,1.01,5.38c1,3.01,1.82,4.33,1.82,4.33l1.84-.96-1.47,1.61,1.55-.86-1.14,1.33,1.93-1.3-1.31,1.88c-2.35-.53-4.49-.64-5.84-.05-2.22,.98-2.45,1.41-2.45,1.41l.78,.67-1.35-.65,.7,.64-1.27,.08s-.79,1.66-1.02,2.09c-.23,.43,2.41-1.16,4.41-1.2,2-.03,1.58-.12,1.58-.12l.45-1.2-.22,.77,.46-.5,.16,.94s.92,.31,1.78,.53c-.22,.29-.66,.77-1.54,1.58-2.17,2-6.26,7.31-6.26,7.31,0,0,.84,.27,1.21-.09,.37-.36,4.26-2.81,8.01-4.89,2-1.11,3.23-1.56,3.93-1.75-3.4,2.36-6.52,5.37-7.02,7.75-.51,2.43-.31,2.87-.31,2.87l.98-.26-1.3,.76,.91-.22-.68,1.11s.86,1.63,1.06,2.07c.21,.44,.48-2.7,1.62-4.4,1.13-1.7,.82-1.39,.82-1.39l-.69-1.07,.48,.64-.13-.68,.83,.41s.95-.72,1.66-1.37c.61-.56,2.32-3.4,4.13-5.19,5.66,10.81,8.16,18.56,9.51,30.57-18.33,2.55-32.56,11.78-35.7,23.34H3.99c0,10.41,8.44,18.85,18.85,18.85H105.16c10.41,0,18.85-8.44,18.85-18.85h-14.83Zm-11.01-68.74c.41-.01,.75-.04,.98-.07l-1.04,2.49,.06-2.41Zm-.14,0l-.48,1.58-.1-1.56c.2,0,.4,0,.58-.01Zm-.79,.02l-.52,1.97-.17-1.95c.25,0,.46,0,.69-.01Zm-6.14-2.71c.46-.09,.9-.17,1.32-.26-.34,.12-.67,.24-1,.37-.13,.05-.26,.1-.39,.15,.02-.09,.05-.17,.07-.26Zm-6.37-.57c-.08-.12-.16-.24-.24-.36,.08,.12,.17,.24,.25,.35,0,0,0,0-.01,0Zm-37.06,12.1c-.06,.1-.13,.19-.19,.29h-.01c.06-.1,.13-.2,.2-.29Zm-11.56,2.88c.18,.03,.44,.05,.77,.06l.05,1.96-.82-2.02Zm1.26,1.35l-.38-1.28c.14,0,.3,0,.45,.01l-.08,1.27Zm.66,.33l-.41-1.6c.18,0,.35,0,.54,.01l-.13,1.59Zm4.18-3.71c-.26-.1-.53-.2-.79-.3,.33,.07,.68,.14,1.04,.21,.02,.07,.04,.14,.05,.21-.1-.04-.2-.08-.31-.12Z" class="cls-3"/></g></g></svg>