<?xml version="1.0" encoding="UTF-8"?><svg xmlns="http://www.w3.org/2000/svg" viewBox="0 0 128 128"><defs><style>.cls-1{letter-spacing:0em;}.cls-2{letter-spacing:0em;}.cls-3{fill:#fff;}.cls-4{fill:#ffec00;}.cls-5{fill:#29235c;}.cls-6{letter-spacing:0em;}.cls-7{letter-spacing:0em;}.cls-8{font-family:MyriadPro-Regular, 'Myriad Pro';font-size:12px;}.cls-9{letter-spacing:-.02em;}.cls-10{letter-spacing:0em;}.cls-11{letter-spacing:-.01em;}.cls-12{letter-spacing:0em;}.cls-13{letter-spacing:0em;}</style></defs><g id="cuadrobase"><g><rect class="cls-5" x="2" y="2" width="124" height="124" rx="22" ry="22"/><path class="cls-4" d="M104,4c11.03,0,20,8.97,20,20V104c0,11.03-8.97,20-20,20H24c-11.03,0-20-8.97-20-20V24C4,12.97,12.97,4,24,4H104m0-4H24C10.75,0,0,10.75,0,24V104C0,117.25,10.75,128,24,128H104c13.25,0,24-10.75,24-24V24c0-13.25-10.75-24-24-24h0Z"/></g></g><g id="figura"><text class="cls-8" transform="translate(-143.95 39.84)"><tspan x="0" y="0">Isla</tspan><tspan class="cls-1" x="0" y="14.4">A</tspan><tspan x="7.31" y="14.4">ldea</tspan><tspan class="cls-11" x="0" y="28.8">P</tspan><tspan class="cls-7" x="6.2" y="28.8">ueblo</tspan><tspan class="cls-1" x="0" y="43.2">C</tspan><tspan x="6.92" y="43.2">iudad</tspan><tspan class="cls-9" x="0" y="57.6">V</tspan><tspan x="6.5" y="57.6">illa</tspan><tspan x="0" y="72">Subu</tspan><tspan class="cls-2" x="25.97" y="72">r</tspan><tspan x="29.94" y="72">bio</tspan><tspan x="0" y="86.4">G</tspan><tspan class="cls-12" x="7.75" y="86.4">r</tspan><tspan x="11.62" y="86.4">anja</tspan><tspan class="cls-2" x="0" y="100.8">R</tspan><tspan x="6.5" y="100.8">e</tspan><tspan class="cls-6" x="12.52" y="100.8">g</tspan><tspan class="cls-13" x="19.15" y="100.8">ión</tspan><tspan class="cls-10" x="0" y="115.2">C</tspan><tspan x="6.88" y="115.2">apital Nacional</tspan></text><g><path class="cls-3" d="M109.35,79.06H41.82v-3.33l62.02-8.21c3.32-.53,5.6-3.14,5.7-6.5v-20.47c-.01-3.42-2.76-6.16-6.17-6.17H41.82v-4.69c-.02-4.18-3.36-7.52-7.54-7.54h-12c-2.65,0-4.8,2.15-4.8,4.8s2.15,4.8,4.8,4.8h9.94v49.36c.02,4.18,3.36,7.52,7.54,7.54H109.35c2.65,0,4.8-2.15,4.8-4.8s-2.15-4.8-4.8-4.8Zm-17.77-37.82h11.1v19.52l-11.1,1.47v-20.99Zm-17.27,0h11.79v21.71l-11.79,1.56v-23.27Zm-17.27,0h11.79v24l-11.79,1.56v-25.56Zm-15.22,0h9.73v26.29l-9.73,1.29v-27.58Z"/><path class="cls-3" d="M54.04,89.57c-5.24,0-9.48,4.25-9.48,9.48s4.25,9.49,9.48,9.49,9.48-4.25,9.48-9.49-4.25-9.48-9.48-9.48Z"/><path class="cls-3" d="M99.75,89.57c-5.24,0-9.48,4.25-9.48,9.48s4.25,9.49,9.48,9.49,9.48-4.25,9.48-9.49-4.25-9.48-9.48-9.48Z"/></g></g></svg>