<?xml version="1.0" encoding="UTF-8"?><svg xmlns="http://www.w3.org/2000/svg" viewBox="0 0 128 128"><defs><style>.cls-1{fill:#fff;}.cls-2{fill:#ffec00;}.cls-3{fill:#29235c;}</style></defs><g id="basecuadro"><g><rect class="cls-3" x="2" y="2" width="124" height="124" rx="22" ry="22"/><path class="cls-2" d="M104,4c11.03,0,20,8.97,20,20V104c0,11.03-8.97,20-20,20H24c-11.03,0-20-8.97-20-20V24C4,12.97,12.97,4,24,4H104M104,0H24C10.75,0,0,10.74,0,24V104C0,117.25,10.75,128,24,128H104c13.25,0,24-10.75,24-24V24C128,10.74,117.26,0,104,0h0Z"/></g></g><g id="figura"><path class="cls-1" d="M24.39,124.01H103.74c8.58,0,16.5-4.89,19.56-14.54l-18.7-61.41c-1.77-5.81-9.9-5.81-11.67,0l-4.52,14.84-17.87-37.15c-2.69-5.59-10.56-5.59-13.25,0l-25.82,53.68-2.97-10.33c-1.79-6.22-10.51-6.22-12.3,0L4.64,109.33c2.67,8.36,9.62,14.68,19.75,14.68Z"/></g></svg>