<?xml version="1.0" encoding="UTF-8"?><svg id="iconoAGUA" xmlns="http://www.w3.org/2000/svg" viewBox="0 0 128 128"><defs><style>.cls-1{fill:#ffed00;}.cls-2{fill:#29235c;}.cls-3{fill:#2d2e83;}</style></defs><g><rect class="cls-1" x="2" y="2" width="124" height="124" rx="22" ry="22"/><path class="cls-2" d="M104,4c11.03,0,20,8.97,20,20V104c0,11.03-8.97,20-20,20H24c-11.03,0-20-8.97-20-20V24C4,12.97,12.97,4,24,4H104M104,0H24C10.74,0,0,10.75,0,24V104C0,117.25,10.74,128,24,128H104c13.25,0,24-10.75,24-24V24C128,10.75,117.25,0,104,0h0Z"/></g><g><path class="cls-3" d="M123.75,81.18h-12.76l-1.83-41.39h-10.62l-1.83,41.39h-7.47l-1.83-41.39h-10.62l-1.83,41.39h-6.66v-11.75l-30.87,11.75h-1.4v-11.75l-30.87,11.75h-.9c-.15,0-.27,.12-.27,.27v22.52c0,11.13,9.02,20.15,20.15,20.15H103.88c11.13,0,20.15-9.02,20.15-20.15v-22.52c0-.15-.12-.27-.27-.27Z"/><path class="cls-3" d="M23.27,33.3c4.47,.3,9.01-.49,12.73-1.63,1.23-.38,2.42-.8,3.8-1.06,1.38-.26,3.04-.32,4.33,.02,2.15,.57,2.4,1.95,4.2,2.73,.95,.41,2.27,.61,3.57,.7,2.83,.19,5.81-.11,8.18-.83,.92-.28,1.75-.61,2.73-.84,2.27-.53,5.23-.39,7.2,.34,.75,.28,1.36,.64,2.08,.93,2.64,1.08,6.48,1.28,10.05,1.43,1.44,.06,3.04,.1,4.17-.31,1.68-.6,1.31-1.77,.78-2.7l-.57-.72c.2-1.94-2.8-3.86-6.95-4.45-4.43-.63-9.17,.18-13.48,.96-.73,.13-1.5,.27-2.29,.25-.87-.01-1.68-.21-2.35-.46-3.12-1.14-3.61-3.23-6.42-4.52-1.65-.76-3.97-1.17-6.32-1.31-2-.12-4.09-.06-5.92,.32s-3.35,1.1-3.78,1.98c-.2,.4-.18,.83-.6,1.2-.73,.63-2.56,.85-4.12,.74-1.56-.11-2.98-.46-4.45-.71-3.33-.57-7.2-.59-10.35,.15s-5.42,2.28-5.19,3.87c.29,2.02,4.49,3.62,8.96,3.92Z"/><path class="cls-3" d="M42.81,13.54c3.91,1.65,9.32,2.44,14.44,2.68,1.69,.08,3.4,.11,5.08,.33,1.67,.23,3.36,.69,4.15,1.38,1.31,1.14-.3,2.35,.4,3.55,.37,.63,1.37,1.21,2.51,1.7,2.47,1.05,5.74,1.74,8.98,1.9,1.26,.06,2.51,.05,3.76,.17,2.89,.28,5.56,1.33,6.47,2.55,.35,.47,.45,.95,.75,1.42,1.09,1.71,4.52,3.08,7.76,4.33,1.31,.5,2.8,1.04,4.42,1.06,2.42,.04,3.63-1.03,4.37-1.96l.42-.77c2.79-1.52,2.47-4.03-.73-5.82-3.43-1.91-9.07-2.74-14.27-3.46-.88-.12-1.8-.25-2.54-.51-.82-.29-1.34-.7-1.66-1.11-1.48-1.91,.85-3.77-.13-5.71-.57-1.14-2.26-2.2-4.33-3.06-1.76-.73-3.86-1.34-6.12-1.6s-4.7-.15-6.3,.43c-.73,.27-1.28,.62-2.18,.79-1.54,.28-3.59-.11-4.96-.69s-2.25-1.31-3.33-1.98c-2.44-1.51-6.15-2.75-10.17-3.14-4.02-.4-8.27,.15-10.18,1.52-2.42,1.74-.53,4.37,3.37,6.02Z"/></g></svg>