<?xml version="1.0" encoding="UTF-8"?><svg xmlns="http://www.w3.org/2000/svg" viewBox="0 0 128 128"><defs><style>.cls-1{fill:#e5332a;}.cls-2{fill:#00a099;}.cls-3{fill:#35a8e0;}</style></defs><g id="cuadrobase"><g><rect class="cls-2" x="2" y="2" width="124" height="124" rx="22" ry="22"/><path class="cls-3" d="M104,4c11.03,0,20,8.97,20,20V104c0,11.03-8.97,20-20,20H24c-11.03,0-20-8.97-20-20V24C4,12.97,12.97,4,24,4H104m0-4H24C10.75,0,0,10.75,0,24V104c0,13.25,10.75,24,24,24H104c13.25,0,24-10.75,24-24V24c0-13.25-10.75-24-24-24h0Z"/></g></g><g id="figura"><path class="cls-1" d="M86.63,11.19H41.37c-3.9,0-7.09,3.19-7.09,7.09V107.41c0,3.9,3.19,7.09,7.09,7.09h45.27c3.9,0,7.09-3.19,7.09-7.09V18.27c0-3.9-3.19-7.09-7.09-7.09Zm-27.83,2.72h10.38c1.01,0,1.84,.83,1.84,1.84s-.83,1.84-1.84,1.84h-10.38c-1.01,0-1.84-.83-1.84-1.84s.83-1.84,1.84-1.84Zm5.19,97.47c-2.96,0-5.36-2.4-5.36-5.36s2.4-5.36,5.36-5.36,5.36,2.4,5.36,5.36-2.4,5.36-5.36,5.36Zm23.61-13.73H40.39V21.61h47.23V97.65Z"/></g></svg>