<svg width="442" height="441" xmlns="http://www.w3.org/2000/svg" xmlns:xlink="http://www.w3.org/1999/xlink" xml:space="preserve" overflow="hidden"><defs><clipPath id="clip0"><rect x="2213" y="28" width="442" height="441"/></clipPath><clipPath id="clip1"><rect x="2350" y="195" width="165" height="165"/></clipPath><clipPath id="clip2"><rect x="2350" y="195" width="165" height="165"/></clipPath><clipPath id="clip3"><rect x="2350" y="195" width="165" height="165"/></clipPath></defs><g clip-path="url(#clip0)" transform="translate(-2213 -28)"><path d="M220.5 45.9375C220.5 45.9375 105.656 207.638 105.656 280.219 105.656 343.613 157.106 395.063 220.5 395.063 283.894 395.063 335.344 343.613 335.344 280.219 335.344 207.178 220.5 45.9375 220.5 45.9375Z" stroke="#FFFFFF" stroke-width="4.59375" fill="#67B1D5" transform="matrix(1.00227 0 0 1 2213 27.9998)"/><g clip-path="url(#clip1)"><g clip-path="url(#clip2)"><g clip-path="url(#clip3)"><path d="M2433 213.083C2433 213.083 2390.29 273.217 2390.29 300.208 2390.29 323.783 2409.43 342.917 2433 342.917 2456.57 342.917 2475.71 323.783 2475.71 300.208 2475.71 273.046 2433 213.083 2433 213.083Z" stroke="#FFFFFF" stroke-width="1.70823" fill="#FFFFFF"/></g></g></g></g></svg>