<svg width="442" height="441" xmlns="http://www.w3.org/2000/svg" xmlns:xlink="http://www.w3.org/1999/xlink" xml:space="preserve" overflow="hidden"><defs><clipPath id="clip0"><rect x="467" y="28" width="442" height="441"/></clipPath><clipPath id="clip1"><rect x="605" y="195" width="164" height="165"/></clipPath><clipPath id="clip2"><rect x="605" y="195" width="164" height="165"/></clipPath><clipPath id="clip3"><rect x="605" y="195" width="164" height="165"/></clipPath></defs><g clip-path="url(#clip0)" transform="translate(-467 -28)"><path d="M220.5 45.9375C220.5 45.9375 105.656 207.638 105.656 280.219 105.656 343.613 157.106 395.063 220.5 395.063 283.894 395.063 335.344 343.613 335.344 280.219 335.344 207.178 220.5 45.9375 220.5 45.9375Z" stroke="#FFFFFF" stroke-width="4.59375" fill="#016191" transform="matrix(1.00227 0 0 1 467 27.9998)"/><g clip-path="url(#clip1)"><g clip-path="url(#clip2)"><g clip-path="url(#clip3)"><path d="M687 213.083C687 213.083 644.292 273.217 644.292 300.208 644.292 323.783 663.425 342.917 687 342.917 710.575 342.917 729.708 323.783 729.708 300.208 729.708 273.046 687 213.083 687 213.083Z" stroke="#FFFFFF" stroke-width="1.70823" fill="#FFFFFF"/></g></g></g></g></svg>