<svg width="441" height="441" xmlns="http://www.w3.org/2000/svg" xmlns:xlink="http://www.w3.org/1999/xlink" xml:space="preserve" overflow="hidden"><defs><clipPath id="clip0"><rect x="3043" y="1860" width="441" height="441"/></clipPath><clipPath id="clip1"><rect x="3181" y="2028" width="163" height="165"/></clipPath><clipPath id="clip2"><rect x="3181" y="2028" width="163" height="165"/></clipPath><clipPath id="clip3"><rect x="3181" y="2028" width="163" height="165"/></clipPath></defs><g clip-path="url(#clip0)" transform="translate(-3043 -1860)"><path d="M3263.5 1905.94C3263.5 1905.94 3148.66 2067.64 3148.66 2140.22 3148.66 2203.61 3200.11 2255.06 3263.5 2255.06 3326.89 2255.06 3378.34 2203.61 3378.34 2140.22 3378.34 2067.18 3263.5 1905.94 3263.5 1905.94Z" stroke="#FFFFFF" stroke-width="4.59375" fill="#BDE3FF"/><g clip-path="url(#clip1)"><g clip-path="url(#clip2)"><g clip-path="url(#clip3)"><path d="M81.5 16.9792C81.5 16.9792 39.0521 76.7458 39.0521 103.573 39.0521 127.004 58.0687 146.021 81.5 146.021 104.931 146.021 123.948 127.004 123.948 103.573 123.948 76.576 81.5 16.9792 81.5 16.9792Z" stroke="#FFFFFF" stroke-width="1.69781" fill="#FFFFFF" transform="matrix(1 0 0 1.00614 3181 2028)"/></g></g></g></g></svg>