<svg width="442" height="441" xmlns="http://www.w3.org/2000/svg" xmlns:xlink="http://www.w3.org/1999/xlink" xml:space="preserve" overflow="hidden"><defs><clipPath id="clip0"><rect x="3086" y="28" width="442" height="441"/></clipPath><clipPath id="clip1"><rect x="3224" y="195" width="164" height="165"/></clipPath><clipPath id="clip2"><rect x="3224" y="195" width="164" height="165"/></clipPath><clipPath id="clip3"><rect x="3224" y="195" width="164" height="165"/></clipPath></defs><g clip-path="url(#clip0)" transform="translate(-3086 -28)"><path d="M220.5 45.9375C220.5 45.9375 105.656 207.638 105.656 280.219 105.656 343.613 157.106 395.063 220.5 395.063 283.894 395.063 335.344 343.613 335.344 280.219 335.344 207.178 220.5 45.9375 220.5 45.9375Z" stroke="#FFFFFF" stroke-width="4.59375" fill="#CCE5F1" transform="matrix(1.00227 0 0 1 3086 27.9998)"/><g clip-path="url(#clip1)"><g clip-path="url(#clip2)"><g clip-path="url(#clip3)"><path d="M3306 213.083C3306 213.083 3263.29 273.217 3263.29 300.208 3263.29 323.783 3282.43 342.917 3306 342.917 3329.57 342.917 3348.71 323.783 3348.71 300.208 3348.71 273.046 3306 213.083 3306 213.083Z" stroke="#FFFFFF" stroke-width="1.70823" fill="#FFFFFF"/></g></g></g></g></svg>