<svg xmlns="http://www.w3.org/2000/svg" xmlns:xlink="http://www.w3.org/1999/xlink" width="442" height="441" overflow="hidden" xml:space="preserve"><defs><clipPath id="clip0"><rect width="442" height="441" x="3055" y="942"/></clipPath><clipPath id="clip1"><rect width="165" height="165" x="3193" y="1109"/></clipPath><clipPath id="clip2"><rect width="165" height="165" x="3193" y="1109"/></clipPath><clipPath id="clip3"><rect width="165" height="165" x="3193" y="1109"/></clipPath></defs><g clip-path="url(#clip0)" transform="translate(-3055 -942)"><path fill="#B3BDF1" stroke="#FFF" stroke-width="4.594" d="M220.5 45.9375C220.5 45.9375 105.656 207.638 105.656 280.219 105.656 343.613 157.106 395.063 220.5 395.063 283.894 395.063 335.344 343.613 335.344 280.219 335.344 207.178 220.5 45.9375 220.5 45.9375Z" transform="matrix(1.00227 0 0 1 3055 942)"/><g clip-path="url(#clip1)"><g clip-path="url(#clip2)"><g clip-path="url(#clip3)"><path fill="#FFF" stroke="#FFF" stroke-width="1.708" d="M3275 1127.08C3275 1127.08 3232.29 1187.22 3232.29 1214.21 3232.29 1237.78 3251.43 1256.92 3275 1256.92 3298.57 1256.92 3317.71 1237.78 3317.71 1214.21 3317.71 1187.05 3275 1127.08 3275 1127.08Z"/></g></g></g></g></svg>