<svg width="442" height="441" xmlns="http://www.w3.org/2000/svg" xmlns:xlink="http://www.w3.org/1999/xlink" xml:space="preserve" overflow="hidden"><defs><clipPath id="clip0"><rect x="31" y="28" width="442" height="441"/></clipPath><clipPath id="clip1"><rect x="169" y="195" width="165" height="165"/></clipPath><clipPath id="clip2"><rect x="169" y="195" width="165" height="165"/></clipPath><clipPath id="clip3"><rect x="169" y="195" width="165" height="165"/></clipPath></defs><g clip-path="url(#clip0)" transform="translate(-31 -28)"><path d="M220.5 45.9375C220.5 45.9375 105.656 207.638 105.656 280.219 105.656 343.613 157.106 395.063 220.5 395.063 283.894 395.063 335.344 343.613 335.344 280.219 335.344 207.178 220.5 45.9375 220.5 45.9375Z" stroke="#FFFFFF" stroke-width="4.59375" fill="#01324A" transform="matrix(1.00227 0 0 1 30.9999 27.9998)"/><g clip-path="url(#clip1)"><g clip-path="url(#clip2)"><g clip-path="url(#clip3)"><path d="M251 213.083C251 213.083 208.292 273.217 208.292 300.208 208.292 323.783 227.425 342.917 251 342.917 274.575 342.917 293.708 323.783 293.708 300.208 293.708 273.046 251 213.083 251 213.083Z" stroke="#FFFFFF" stroke-width="1.70823" fill="#FFFFFF"/></g></g></g></g></svg>