<svg width="441" height="441" xmlns="http://www.w3.org/2000/svg" xmlns:xlink="http://www.w3.org/1999/xlink" xml:space="preserve" overflow="hidden"><defs><clipPath id="clip0"><rect x="-12" y="1860" width="441" height="441"/></clipPath><clipPath id="clip1"><rect x="125" y="2028" width="165" height="165"/></clipPath><clipPath id="clip2"><rect x="125" y="2028" width="165" height="165"/></clipPath><clipPath id="clip3"><rect x="125" y="2028" width="165" height="165"/></clipPath></defs><g clip-path="url(#clip0)" transform="translate(12 -1860)"><path d="M208.5 1905.94C208.5 1905.94 93.6562 2067.64 93.6562 2140.22 93.6562 2203.61 145.106 2255.06 208.5 2255.06 271.894 2255.06 323.344 2203.61 323.344 2140.22 323.344 2067.18 208.5 1905.94 208.5 1905.94Z" stroke="#FFFFFF" stroke-width="4.59375" fill="#0070C0"/><g clip-path="url(#clip1)"><g clip-path="url(#clip2)"><g clip-path="url(#clip3)"><path d="M207 2045.08C207 2045.08 164.292 2105.22 164.292 2132.21 164.292 2155.78 183.425 2174.92 207 2174.92 230.575 2174.92 249.708 2155.78 249.708 2132.21 249.708 2105.05 207 2045.08 207 2045.08Z" stroke="#FFFFFF" stroke-width="1.70823" fill="#FFFFFF"/></g></g></g></g></svg>