<svg width="442" height="442" xmlns="http://www.w3.org/2000/svg" xmlns:xlink="http://www.w3.org/1999/xlink" xml:space="preserve" overflow="hidden"><defs><clipPath id="clip0"><rect x="431" y="1412" width="442" height="442"/></clipPath><clipPath id="clip1"><rect x="568" y="1580" width="165" height="165"/></clipPath><clipPath id="clip2"><rect x="568" y="1580" width="165" height="165"/></clipPath><clipPath id="clip3"><rect x="568" y="1580" width="165" height="165"/></clipPath></defs><g clip-path="url(#clip0)" transform="translate(-431 -1412)"><path d="M221 46.0416C221 46.0416 105.896 208.108 105.896 280.854 105.896 344.391 157.462 395.958 221 395.958 284.537 395.958 336.104 344.391 336.104 280.854 336.104 207.648 221 46.0416 221 46.0416Z" stroke="#FFFFFF" stroke-width="4.60416" fill="#005E60" transform="matrix(1 0 0 1 431 1412)"/><g clip-path="url(#clip1)"><g clip-path="url(#clip2)"><g clip-path="url(#clip3)"><path d="M651 1598.08C651 1598.08 608.292 1658.22 608.292 1685.21 608.292 1708.78 627.425 1727.92 651 1727.92 674.575 1727.92 693.708 1708.78 693.708 1685.21 693.708 1658.05 651 1598.08 651 1598.08Z" stroke="#FFFFFF" stroke-width="1.70823" fill="#FFFFFF"/></g></g></g></g></svg>