<svg xmlns="http://www.w3.org/2000/svg" xmlns:xlink="http://www.w3.org/1999/xlink" width="442" height="441" overflow="hidden" xml:space="preserve"><defs><clipPath id="clip0"><rect width="442" height="441" x="1340" y="28"/></clipPath><clipPath id="clip1"><rect width="165" height="165" x="1478" y="195"/></clipPath><clipPath id="clip2"><rect width="165" height="165" x="1478" y="195"/></clipPath><clipPath id="clip3"><rect width="165" height="165" x="1478" y="195"/></clipPath></defs><g clip-path="url(#clip0)" transform="translate(-1340 -28)"><path fill="#1C8AC0" stroke="#FFF" stroke-width="4.594" d="M220.5 45.9375C220.5 45.9375 105.656 207.638 105.656 280.219 105.656 343.613 157.106 395.063 220.5 395.063 283.894 395.063 335.344 343.613 335.344 280.219 335.344 207.178 220.5 45.9375 220.5 45.9375Z" transform="matrix(1.00227 0 0 1 1340 27.9998)"/><g clip-path="url(#clip1)"><g clip-path="url(#clip2)"><g clip-path="url(#clip3)"><path fill="#FFF" stroke="#FFF" stroke-width="1.708" d="M1560 213.083C1560 213.083 1517.29 273.217 1517.29 300.208 1517.29 323.783 1536.43 342.917 1560 342.917 1583.58 342.917 1602.71 323.783 1602.71 300.208 1602.71 273.046 1560 213.083 1560 213.083Z"/></g></g></g></g></svg>