<svg width="442" height="442" xmlns="http://www.w3.org/2000/svg" xmlns:xlink="http://www.w3.org/1999/xlink" xml:space="preserve" overflow="hidden"><defs><clipPath id="clip0"><rect x="1746" y="500" width="442" height="442"/></clipPath><clipPath id="clip1"><rect x="1884" y="668" width="164" height="164"/></clipPath><clipPath id="clip2"><rect x="1884" y="668" width="164" height="164"/></clipPath><clipPath id="clip3"><rect x="1884" y="668" width="164" height="164"/></clipPath></defs><g clip-path="url(#clip0)" transform="translate(-1746 -500)"><path d="M221 46.0416C221 46.0416 105.896 208.108 105.896 280.854 105.896 344.391 157.462 395.958 221 395.958 284.537 395.958 336.104 344.391 336.104 280.854 336.104 207.648 221 46.0416 221 46.0416Z" stroke="#FFFFFF" stroke-width="4.60416" fill="#6ECDFC" transform="matrix(1 0 0 1 1746 500)"/><g clip-path="url(#clip1)"><g clip-path="url(#clip2)"><g clip-path="url(#clip3)"><path d="M1965.5 685.979C1965.5 685.979 1923.05 745.746 1923.05 772.573 1923.05 796.004 1942.07 815.021 1965.5 815.021 1988.93 815.021 2007.95 796.004 2007.95 772.573 2007.95 745.576 1965.5 685.979 1965.5 685.979Z" stroke="#FFFFFF" stroke-width="1.69781" fill="#FFFFFF"/></g></g></g></g></svg>