<svg width="442" height="441" xmlns="http://www.w3.org/2000/svg" xmlns:xlink="http://www.w3.org/1999/xlink" xml:space="preserve" overflow="hidden"><defs><clipPath id="clip0"><rect x="1733" y="1860" width="442" height="441"/></clipPath><clipPath id="clip1"><rect x="1871" y="2028" width="164" height="165"/></clipPath><clipPath id="clip2"><rect x="1871" y="2028" width="164" height="165"/></clipPath><clipPath id="clip3"><rect x="1871" y="2028" width="164" height="165"/></clipPath></defs><g clip-path="url(#clip0)" transform="translate(-1733 -1860)"><path d="M220.5 45.9375C220.5 45.9375 105.656 207.638 105.656 280.219 105.656 343.613 157.106 395.063 220.5 395.063 283.894 395.063 335.344 343.613 335.344 280.219 335.344 207.178 220.5 45.9375 220.5 45.9375Z" stroke="#FFFFFF" stroke-width="4.59375" fill="#43AEFF" transform="matrix(1.00227 0 0 1 1733 1860)"/><g clip-path="url(#clip1)"><g clip-path="url(#clip2)"><g clip-path="url(#clip3)"><path d="M1953 2045.08C1953 2045.08 1910.29 2105.22 1910.29 2132.21 1910.29 2155.78 1929.43 2174.92 1953 2174.92 1976.57 2174.92 1995.71 2155.78 1995.71 2132.21 1995.71 2105.05 1953 2045.08 1953 2045.08Z" stroke="#FFFFFF" stroke-width="1.70823" fill="#FFFFFF"/></g></g></g></g></svg>