<svg xmlns="http://www.w3.org/2000/svg" xmlns:xlink="http://www.w3.org/1999/xlink" width="442" height="442" overflow="hidden" xml:space="preserve"><defs><clipPath id="clip0"><rect width="442" height="442" x="873" y="500"/></clipPath><clipPath id="clip1"><rect width="165" height="164" x="1010" y="668"/></clipPath><clipPath id="clip2"><rect width="165" height="164" x="1010" y="668"/></clipPath><clipPath id="clip3"><rect width="165" height="164" x="1010" y="668"/></clipPath></defs><g clip-path="url(#clip0)" transform="translate(-873 -500)"><path fill="#07AAFB" stroke="#FFF" stroke-width="4.604" d="M1094 546.042C1094 546.042 978.896 708.108 978.896 780.854 978.896 844.392 1030.46 895.958 1094 895.958 1157.54 895.958 1209.1 844.392 1209.1 780.854 1209.1 707.648 1094 546.042 1094 546.042Z"/><g clip-path="url(#clip1)"><g clip-path="url(#clip2)"><g clip-path="url(#clip3)"><path fill="#FFF" stroke="#FFF" stroke-width="1.698" d="M81.5 16.9792C81.5 16.9792 39.0521 76.7458 39.0521 103.573 39.0521 127.004 58.0687 146.021 81.5 146.021 104.931 146.021 123.948 127.004 123.948 103.573 123.948 76.576 81.5 16.9792 81.5 16.9792Z" transform="matrix(1.00614 0 0 1 1011 669)"/></g></g></g></g></svg>