<svg xmlns="http://www.w3.org/2000/svg" xmlns:xlink="http://www.w3.org/1999/xlink" width="442" height="442" overflow="hidden" xml:space="preserve"><defs><clipPath id="clip0"><rect width="442" height="442" x="3050" y="1412"/></clipPath><clipPath id="clip1"><rect width="165" height="165" x="3187" y="1580"/></clipPath><clipPath id="clip2"><rect width="165" height="165" x="3187" y="1580"/></clipPath><clipPath id="clip3"><rect width="165" height="165" x="3187" y="1580"/></clipPath></defs><g clip-path="url(#clip0)" transform="translate(-3050 -1412)"><path fill="#A6FCFE" stroke="#FFF" stroke-width="4.604" d="M221 46.0416C221 46.0416 105.896 208.108 105.896 280.854 105.896 344.391 157.462 395.958 221 395.958 284.537 395.958 336.104 344.391 336.104 280.854 336.104 207.648 221 46.0416 221 46.0416Z" transform="matrix(1 0 0 1 3050 1412)"/><g clip-path="url(#clip1)"><g clip-path="url(#clip2)"><g clip-path="url(#clip3)"><path fill="#FFF" stroke="#FFF" stroke-width="1.708" d="M3270 1598.08C3270 1598.08 3227.29 1658.22 3227.29 1685.21 3227.29 1708.78 3246.43 1727.92 3270 1727.92 3293.57 1727.92 3312.71 1708.78 3312.71 1685.21 3312.71 1658.05 3270 1598.08 3270 1598.08Z"/></g></g></g></g></svg>