<svg width="442" height="441" xmlns="http://www.w3.org/2000/svg" xmlns:xlink="http://www.w3.org/1999/xlink" xml:space="preserve" overflow="hidden"><defs><clipPath id="clip0"><rect x="436" y="942" width="442" height="441"/></clipPath><clipPath id="clip1"><rect x="574" y="1109" width="165" height="165"/></clipPath><clipPath id="clip2"><rect x="574" y="1109" width="165" height="165"/></clipPath><clipPath id="clip3"><rect x="574" y="1109" width="165" height="165"/></clipPath></defs><g clip-path="url(#clip0)" transform="translate(-436 -942)"><path d="M220.5 45.9375C220.5 45.9375 105.656 207.638 105.656 280.219 105.656 343.613 157.106 395.063 220.5 395.063 283.894 395.063 335.344 343.613 335.344 280.219 335.344 207.178 220.5 45.9375 220.5 45.9375Z" stroke="#FFFFFF" stroke-width="4.59375" fill="#021A93" transform="matrix(1.00227 0 0 1 436 942)"/><g clip-path="url(#clip1)"><g clip-path="url(#clip2)"><g clip-path="url(#clip3)"><path d="M656 1127.08C656 1127.08 613.292 1187.22 613.292 1214.21 613.292 1237.78 632.425 1256.92 656 1256.92 679.575 1256.92 698.708 1237.78 698.708 1214.21 698.708 1187.05 656 1127.08 656 1127.08Z" stroke="#FFFFFF" stroke-width="1.70823" fill="#FFFFFF"/></g></g></g></g></svg>