<svg width="442" height="441" xmlns="http://www.w3.org/2000/svg" xmlns:xlink="http://www.w3.org/1999/xlink" xml:space="preserve" overflow="hidden"><defs><clipPath id="clip0"><rect x="1309" y="942" width="442" height="441"/></clipPath><clipPath id="clip1"><rect x="1446" y="1109" width="166" height="165"/></clipPath><clipPath id="clip2"><rect x="1446" y="1109" width="166" height="165"/></clipPath><clipPath id="clip3"><rect x="1446" y="1109" width="166" height="165"/></clipPath></defs><g clip-path="url(#clip0)" transform="translate(-1309 -942)"><path d="M220.5 45.9375C220.5 45.9375 105.656 207.638 105.656 280.219 105.656 343.613 157.106 395.063 220.5 395.063 283.894 395.063 335.344 343.613 335.344 280.219 335.344 207.178 220.5 45.9375 220.5 45.9375Z" stroke="#FFFFFF" stroke-width="4.59375" fill="#0222BD" transform="matrix(1.00227 0 0 1 1309 942)"/><g clip-path="url(#clip1)"><g clip-path="url(#clip2)"><g clip-path="url(#clip3)"><path d="M82 17.0833C82 17.0833 39.2917 77.2167 39.2917 104.208 39.2917 127.783 58.425 146.917 82 146.917 105.575 146.917 124.708 127.783 124.708 104.208 124.708 77.0458 82 17.0833 82 17.0833Z" stroke="#FFFFFF" stroke-width="1.70823" fill="#FFFFFF" transform="matrix(1 0 0 1 1447 1110)"/></g></g></g></g></svg>