<svg width="442" height="441" xmlns="http://www.w3.org/2000/svg" xmlns:xlink="http://www.w3.org/1999/xlink" xml:space="preserve" overflow="hidden"><defs><clipPath id="clip0"><rect x="873" y="942" width="442" height="441"/></clipPath><clipPath id="clip1"><rect x="1010" y="1109" width="165" height="165"/></clipPath><clipPath id="clip2"><rect x="1010" y="1109" width="165" height="165"/></clipPath><clipPath id="clip3"><rect x="1010" y="1109" width="165" height="165"/></clipPath></defs><g clip-path="url(#clip0)" transform="translate(-873 -942)"><path d="M220.5 45.9375C220.5 45.9375 105.656 207.638 105.656 280.219 105.656 343.613 157.106 395.063 220.5 395.063 283.894 395.063 335.344 343.613 335.344 280.219 335.344 207.178 220.5 45.9375 220.5 45.9375Z" stroke="#FFFFFF" stroke-width="4.59375" fill="#021EA8" transform="matrix(1.00227 0 0 1 873 942)"/><g clip-path="url(#clip1)"><g clip-path="url(#clip2)"><g clip-path="url(#clip3)"><path d="M1093 1127.08C1093 1127.08 1050.29 1187.22 1050.29 1214.21 1050.29 1237.78 1069.42 1256.92 1093 1256.92 1116.57 1256.92 1135.71 1237.78 1135.71 1214.21 1135.71 1187.05 1093 1127.08 1093 1127.08Z" stroke="#FFFFFF" stroke-width="1.70823" fill="#FFFFFF"/></g></g></g></g></svg>