<svg width="442" height="442" xmlns="http://www.w3.org/2000/svg" xmlns:xlink="http://www.w3.org/1999/xlink" xml:space="preserve" overflow="hidden"><defs><clipPath id="clip0"><rect x="1304" y="1412" width="442" height="442"/></clipPath><clipPath id="clip1"><rect x="1442" y="1580" width="164" height="165"/></clipPath><clipPath id="clip2"><rect x="1442" y="1580" width="164" height="165"/></clipPath><clipPath id="clip3"><rect x="1442" y="1580" width="164" height="165"/></clipPath></defs><g clip-path="url(#clip0)" transform="translate(-1304 -1412)"><path d="M221 46.0416C221 46.0416 105.896 208.108 105.896 280.854 105.896 344.391 157.462 395.958 221 395.958 284.537 395.958 336.104 344.391 336.104 280.854 336.104 207.648 221 46.0416 221 46.0416Z" stroke="#FFFFFF" stroke-width="4.60416" fill="#03A7AB" transform="matrix(1 0 0 1 1304 1412)"/><g clip-path="url(#clip1)"><g clip-path="url(#clip2)"><g clip-path="url(#clip3)"><path d="M1524 1598.08C1524 1598.08 1481.29 1658.22 1481.29 1685.21 1481.29 1708.78 1500.43 1727.92 1524 1727.92 1547.57 1727.92 1566.71 1708.78 1566.71 1685.21 1566.71 1658.05 1524 1598.08 1524 1598.08Z" stroke="#FFFFFF" stroke-width="1.70823" fill="#FFFFFF"/></g></g></g></g></svg>