<svg width="441" height="442" xmlns="http://www.w3.org/2000/svg" xmlns:xlink="http://www.w3.org/1999/xlink" xml:space="preserve" overflow="hidden"><defs><clipPath id="clip0"><rect x="1741" y="1412" width="441" height="442"/></clipPath><clipPath id="clip1"><rect x="1877" y="1580" width="165" height="165"/></clipPath><clipPath id="clip2"><rect x="1877" y="1580" width="165" height="165"/></clipPath><clipPath id="clip3"><rect x="1877" y="1580" width="165" height="165"/></clipPath></defs><g clip-path="url(#clip0)" transform="translate(-1741 -1412)"><path d="M220.5 45.9375C220.5 45.9375 105.656 207.638 105.656 280.219 105.656 343.613 157.106 395.063 220.5 395.063 283.894 395.063 335.344 343.613 335.344 280.219 335.344 207.178 220.5 45.9375 220.5 45.9375Z" stroke="#FFFFFF" stroke-width="4.59375" fill="#00BFC4" transform="matrix(1 0 0 1.00227 1741 1412)"/><g clip-path="url(#clip1)"><g clip-path="url(#clip2)"><g clip-path="url(#clip3)"><path d="M1960 1598.08C1960 1598.08 1917.29 1658.22 1917.29 1685.21 1917.29 1708.78 1936.42 1727.92 1960 1727.92 1983.57 1727.92 2002.71 1708.78 2002.71 1685.21 2002.71 1658.05 1960 1598.08 1960 1598.08Z" stroke="#FFFFFF" stroke-width="1.70823" fill="#FFFFFF"/></g></g></g></g></svg>