<svg width="442" height="442" xmlns="http://www.w3.org/2000/svg" xmlns:xlink="http://www.w3.org/1999/xlink" xml:space="preserve" overflow="hidden"><defs><clipPath id="clip0"><rect x="2613" y="1412" width="442" height="442"/></clipPath><clipPath id="clip1"><rect x="2751" y="1580" width="164" height="165"/></clipPath><clipPath id="clip2"><rect x="2751" y="1580" width="164" height="165"/></clipPath><clipPath id="clip3"><rect x="2751" y="1580" width="164" height="165"/></clipPath></defs><g clip-path="url(#clip0)" transform="translate(-2613 -1412)"><path d="M221 46.0416C221 46.0416 105.896 208.108 105.896 280.854 105.896 344.391 157.462 395.958 221 395.958 284.537 395.958 336.104 344.391 336.104 280.854 336.104 207.648 221 46.0416 221 46.0416Z" stroke="#FFFFFF" stroke-width="4.60416" fill="#4AF8FC" transform="matrix(1 0 0 1 2613 1412)"/><g clip-path="url(#clip1)"><g clip-path="url(#clip2)"><g clip-path="url(#clip3)"><path d="M2833 1598.08C2833 1598.08 2790.29 1658.22 2790.29 1685.21 2790.29 1708.78 2809.43 1727.92 2833 1727.92 2856.57 1727.92 2875.71 1708.78 2875.71 1685.21 2875.71 1658.05 2833 1598.08 2833 1598.08Z" stroke="#FFFFFF" stroke-width="1.70823" fill="#FFFFFF"/></g></g></g></g></svg>