<svg width="442" height="442" xmlns="http://www.w3.org/2000/svg" xmlns:xlink="http://www.w3.org/1999/xlink" xml:space="preserve" overflow="hidden"><defs><clipPath id="clip0"><rect x="2182" y="500" width="442" height="442"/></clipPath><clipPath id="clip1"><rect x="2319" y="668" width="165" height="164"/></clipPath><clipPath id="clip2"><rect x="2319" y="668" width="165" height="164"/></clipPath><clipPath id="clip3"><rect x="2319" y="668" width="165" height="164"/></clipPath></defs><g clip-path="url(#clip0)" transform="translate(-2182 -500)"><path d="M2403 546.042C2403 546.042 2287.9 708.108 2287.9 780.854 2287.9 844.392 2339.46 895.958 2403 895.958 2466.54 895.958 2518.1 844.392 2518.1 780.854 2518.1 707.648 2403 546.042 2403 546.042Z" stroke="#FFFFFF" stroke-width="4.60416" fill="#86D5FD"/><g clip-path="url(#clip1)"><g clip-path="url(#clip2)"><g clip-path="url(#clip3)"><path d="M81.5 16.9792C81.5 16.9792 39.0521 76.7458 39.0521 103.573 39.0521 127.004 58.0687 146.021 81.5 146.021 104.931 146.021 123.948 127.004 123.948 103.573 123.948 76.576 81.5 16.9792 81.5 16.9792Z" stroke="#FFFFFF" stroke-width="1.69781" fill="#FFFFFF" transform="matrix(1.00614 0 0 1 2320 669)"/></g></g></g></g></svg>