<svg width="441" height="442" xmlns="http://www.w3.org/2000/svg" xmlns:xlink="http://www.w3.org/1999/xlink" xml:space="preserve" overflow="hidden"><defs><clipPath id="clip0"><rect x="-5" y="1412" width="441" height="442"/></clipPath><clipPath id="clip1"><rect x="132" y="1580" width="164" height="165"/></clipPath><clipPath id="clip2"><rect x="132" y="1580" width="164" height="165"/></clipPath><clipPath id="clip3"><rect x="132" y="1580" width="164" height="165"/></clipPath></defs><g clip-path="url(#clip0)" transform="translate(5 -1412)"><path d="M220.5 45.9375C220.5 45.9375 105.656 207.638 105.656 280.219 105.656 343.613 157.106 395.063 220.5 395.063 283.894 395.063 335.344 343.613 335.344 280.219 335.344 207.178 220.5 45.9375 220.5 45.9375Z" stroke="#FFFFFF" stroke-width="4.59375" fill="#003031" transform="matrix(1 0 0 1.00227 -5.00016 1412)"/><g clip-path="url(#clip1)"><g clip-path="url(#clip2)"><g clip-path="url(#clip3)"><path d="M214 1598.08C214 1598.08 171.292 1658.22 171.292 1685.21 171.292 1708.78 190.425 1727.92 214 1727.92 237.575 1727.92 256.708 1708.78 256.708 1685.21 256.708 1658.05 214 1598.08 214 1598.08Z" stroke="#FFFFFF" stroke-width="1.70823" fill="#FFFFFF"/></g></g></g></g></svg>