<svg width="442" height="442" xmlns="http://www.w3.org/2000/svg" xmlns:xlink="http://www.w3.org/1999/xlink" xml:space="preserve" overflow="hidden"><defs><clipPath id="clip0"><rect x="2659" y="82" width="442" height="442"/></clipPath><clipPath id="clip1"><rect x="2797" y="250" width="165" height="165"/></clipPath><clipPath id="clip2"><rect x="2797" y="250" width="165" height="165"/></clipPath><clipPath id="clip3"><rect x="2797" y="250" width="165" height="165"/></clipPath></defs><g clip-path="url(#clip0)" transform="translate(-2659 -82)"><path d="M221 46.0416C221 46.0416 105.896 208.108 105.896 280.854 105.896 344.391 157.462 395.958 221 395.958 284.537 395.958 336.104 344.391 336.104 280.854 336.104 207.648 221 46.0416 221 46.0416Z" stroke="#FFFFFF" stroke-width="4.60416" fill="#9ACBE3" transform="matrix(1 0 0 1 2659 82.0002)"/><g clip-path="url(#clip1)"><g clip-path="url(#clip2)"><g clip-path="url(#clip3)"><path d="M2879 268.083C2879 268.083 2836.29 328.217 2836.29 355.208 2836.29 378.783 2855.43 397.917 2879 397.917 2902.57 397.917 2921.71 378.783 2921.71 355.208 2921.71 328.046 2879 268.083 2879 268.083Z" stroke="#FFFFFF" stroke-width="1.70823" fill="#FFFFFF"/></g></g></g></g></svg>