<svg xmlns="http://www.w3.org/2000/svg" xmlns:xlink="http://www.w3.org/1999/xlink" width="441" height="441" overflow="hidden" xml:space="preserve"><defs><clipPath id="clip0"><rect width="441" height="441" x="2619" y="942"/></clipPath><clipPath id="clip1"><rect width="165" height="165" x="2756" y="1109"/></clipPath><clipPath id="clip2"><rect width="165" height="165" x="2756" y="1109"/></clipPath><clipPath id="clip3"><rect width="165" height="165" x="2756" y="1109"/></clipPath></defs><g clip-path="url(#clip0)" transform="translate(-2619 -942)"><path fill="#9AA8ED" stroke="#FFF" stroke-width="4.594" d="M2839.5 987.937C2839.5 987.937 2724.66 1149.64 2724.66 1222.22 2724.66 1285.61 2776.11 1337.06 2839.5 1337.06 2902.89 1337.06 2954.34 1285.61 2954.34 1222.22 2954.34 1149.18 2839.5 987.937 2839.5 987.937Z"/><g clip-path="url(#clip1)"><g clip-path="url(#clip2)"><g clip-path="url(#clip3)"><path fill="#FFF" stroke="#FFF" stroke-width="1.698" d="M81.5001 16.9792C81.5001 16.9792 39.0522 76.746 39.0522 103.573 39.0522 127.004 58.0689 146.021 81.5001 146.021 104.931 146.021 123.948 127.004 123.948 103.573 123.948 76.5762 81.5001 16.9792 81.5001 16.9792Z" transform="matrix(1 0 0 1.00613 2757 1110)"/></g></g></g></g></svg>