<svg width="442" height="442" xmlns="http://www.w3.org/2000/svg" xmlns:xlink="http://www.w3.org/1999/xlink" xml:space="preserve" overflow="hidden"><defs><clipPath id="clip0"><rect x="2177" y="1412" width="442" height="442"/></clipPath><clipPath id="clip1"><rect x="2315" y="1580" width="165" height="165"/></clipPath><clipPath id="clip2"><rect x="2315" y="1580" width="165" height="165"/></clipPath><clipPath id="clip3"><rect x="2315" y="1580" width="165" height="165"/></clipPath></defs><g clip-path="url(#clip0)" transform="translate(-2177 -1412)"><path d="M221 46.0416C221 46.0416 105.896 208.108 105.896 280.854 105.896 344.391 157.462 395.958 221 395.958 284.537 395.958 336.104 344.391 336.104 280.854 336.104 207.648 221 46.0416 221 46.0416Z" stroke="#FFFFFF" stroke-width="4.60416" fill="#03D6DB" transform="matrix(1 0 0 1 2177 1412)"/><g clip-path="url(#clip1)"><g clip-path="url(#clip2)"><g clip-path="url(#clip3)"><path d="M2397 1598.08C2397 1598.08 2354.29 1658.22 2354.29 1685.21 2354.29 1708.78 2373.43 1727.92 2397 1727.92 2420.58 1727.92 2439.71 1708.78 2439.71 1685.21 2439.71 1658.05 2397 1598.08 2397 1598.08Z" stroke="#FFFFFF" stroke-width="1.70823" fill="#FFFFFF"/></g></g></g></g></svg>