<svg width="441" height="441" xmlns="http://www.w3.org/2000/svg" xmlns:xlink="http://www.w3.org/1999/xlink" xml:space="preserve" overflow="hidden"><defs><clipPath id="clip0"><rect x="2619" y="942" width="441" height="441"/></clipPath><clipPath id="clip1"><rect x="2758" y="1050" width="165" height="166"/></clipPath><clipPath id="clip2"><rect x="2758" y="1050" width="165" height="166"/></clipPath><clipPath id="clip3"><rect x="2758" y="1050" width="165" height="166"/></clipPath></defs><g clip-path="url(#clip0)" transform="translate(-2619 -942)"><path d="M2839.5 1337.06C2839.5 1337.06 2954.34 1175.36 2954.34 1102.78 2954.34 1039.39 2902.89 987.937 2839.5 987.937 2776.11 987.937 2724.66 1039.39 2724.66 1102.78 2724.66 1175.82 2839.5 1337.06 2839.5 1337.06Z" stroke="#FFFFFF" stroke-width="4.59375" fill="#37ABC8"/><g clip-path="url(#clip1)"><g clip-path="url(#clip2)"><g clip-path="url(#clip3)"><path d="M82 17.0833C82 17.0833 39.2917 77.2167 39.2917 104.208 39.2917 127.783 58.425 146.917 82 146.917 105.575 146.917 124.708 127.783 124.708 104.208 124.708 77.0458 82 17.0833 82 17.0833Z" stroke="#FFFFFF" stroke-width="1.70823" fill="#FFFFFF" transform="matrix(-1 1.22465e-16 -1.22465e-16 -1 2923 1215)"/></g></g></g></g></svg>