<svg xmlns="http://www.w3.org/2000/svg" xmlns:xlink="http://www.w3.org/1999/xlink" width="441" height="442" overflow="hidden" xml:space="preserve"><defs><clipPath id="clip0"><rect width="441" height="442" x="2619" y="500"/></clipPath><clipPath id="clip1"><rect width="165" height="165" x="2758" y="609"/></clipPath><clipPath id="clip2"><rect width="165" height="165" x="2758" y="609"/></clipPath><clipPath id="clip3"><rect width="165" height="165" x="2758" y="609"/></clipPath></defs><g clip-path="url(#clip0)" transform="translate(-2619 -500)"><path fill="#782144" stroke="#FFF" stroke-width="4.594" d="M220.5 45.9375C220.5 45.9375 105.656 207.638 105.656 280.219 105.656 343.613 157.106 395.063 220.5 395.063 283.894 395.063 335.344 343.613 335.344 280.219 335.344 207.178 220.5 45.9375 220.5 45.9375Z" transform="matrix(-1 1.22465e-16 -1.22742e-16 -1.00227 3060 942)"/><g clip-path="url(#clip1)"><g clip-path="url(#clip2)"><g clip-path="url(#clip3)"><path fill="#FFF" stroke="#FFF" stroke-width="1.708" d="M2841 755.917C2841 755.917 2883.71 695.783 2883.71 668.792 2883.71 645.217 2864.57 626.083 2841 626.083 2817.43 626.083 2798.29 645.217 2798.29 668.792 2798.29 695.954 2841 755.917 2841 755.917Z"/></g></g></g></g></svg>