<?xml version="1.0" encoding="UTF-8"?><svg xmlns="http://www.w3.org/2000/svg" viewBox="0 0 128 128"><defs><style>.cls-1{fill:#fff;}.cls-2{fill:#1d70b7;}.cls-3{fill:#35a8e0;}</style></defs><g id="cuadrobase"><g><rect class="cls-3" x="2" y="2" width="124" height="124" rx="22" ry="22"/><path class="cls-2" d="M104,4c11.03,0,20,8.97,20,20V104c0,11.03-8.97,20-20,20H24c-11.03,0-20-8.97-20-20V24C4,12.97,12.97,4,24,4H104m0-4H24C10.75,0,0,10.75,0,24V104c0,13.25,10.75,24,24,24H104c13.25,0,24-10.75,24-24V24c0-13.25-10.75-24-24-24h0Z"/></g></g><g id="figura"><g><path class="cls-1" d="M95.39,103.5c-4.02,0-6.39-.88-10.57-2.58-4.84-1.96-10.87-4.4-20.58-4.4s-15.84,2.4-21.01,4.33c-4.43,1.65-7.12,2.59-10.72,2.59-4.55,0-7.78-1.31-11.88-2.97-4.5-1.83-9.6-3.9-16.59-3.9v10.37c1.81,0,3.93,.83,7.25,2.17,4.88,1.98,11.57,4.7,21.21,4.7,8.52,0,14.62-2.27,19.51-4.1,4.22-1.58,7.56-2.82,12.22-2.82s7.27,1.07,11.26,2.68c4.73,1.91,10.61,4.29,19.89,4.29,10.37,0,17.07-2.75,21.97-4.76,3.12-1.28,4.97-2,6.61-2v-10.37c-6.86,0-11.94,2.08-16.02,3.76-4.1,1.68-7.33,3.01-12.56,3.01Z"/><path class="cls-1" d="M107.95,78.47c-3.54,1.45-6.45,2.64-10.55,2.93-.11-4.01-.16-27.62-.16-50.28,0-2.97-1.19-7.85-3.86-12.08-3.64-5.77-9.21-8.94-15.67-8.94-12.51,0-16.7,13.56-17.16,20.73l8.98,.6c0-.12,.96-12.33,8.18-12.33,8.57,0,10.53,10.45,10.53,12.02,0,.94,0,4.63,0,9.62H51.41c0-3.19,0-6.42,0-9.62,0-2.97-1.19-7.85-3.86-12.08-3.64-5.77-9.21-8.94-15.67-8.94-12.51,0-16.7,13.56-17.16,20.73l8.98,.6c0-.12,.96-12.33,8.18-12.33,8.57,0,10.53,10.45,10.53,12.02,0,1.87,0,14.67,.03,27.01,.01,6.17,.03,12.23,.06,16.75,.01,1.63,.02,3.05,.04,4.21-4.02,1.49-6.62,2.34-10.03,2.34-4.55,0-7.78-1.31-11.88-2.97-4.5-1.83-9.6-3.9-16.59-3.9v10.37c1.81,0,3.93,.83,7.25,2.17,4.88,1.98,11.57,4.7,21.21,4.7,8.52,0,14.62-2.27,19.51-4.1,4.22-1.58,7.56-2.82,12.22-2.82s7.27,1.07,11.26,2.68c4.73,1.91,10.61,4.29,19.89,4.29,10.37,0,17.07-2.75,21.97-4.76,3.12-1.28,4.97-2,6.61-2v-10.37c-6.86,0-11.94,2.08-16.02,3.76Zm-56.53-28.72h36.83c0,2.73,0,5.57,.01,8.38,0,.25,0,.5,0,.74H51.44c0-2.9-.01-5.96-.02-9.13Zm33.4,29.16c-4.84-1.96-10.87-4.4-20.58-4.4-5,0-9.15,.68-12.73,1.61-.02-2.24-.03-5.03-.04-8.23h36.83c0,2.56,.02,4.95,.03,7,.01,2.23,.03,4.08,.05,5.39-1.08-.37-2.23-.82-3.57-1.37Z"/></g></g></svg>