<?xml version="1.0" encoding="UTF-8"?><svg xmlns="http://www.w3.org/2000/svg" viewBox="0 0 128 128"><defs><style>.cls-1{fill:#eaa1c7;}.cls-2,.cls-3{fill:#e61b72;}.cls-4{fill:#662482;}.cls-3{fill-rule:evenodd;}</style></defs><g id="cuadrobase"><g><rect class="cls-4" x="2" y="2" width="124" height="124" rx="22" ry="22"/><path class="cls-1" d="M104,4c11.03,0,20,8.97,20,20V104c0,11.03-8.97,20-20,20H24c-11.03,0-20-8.97-20-20V24C4,12.97,12.97,4,24,4H104m0-4H24C10.75,0,0,10.75,0,24V104C0,117.25,10.75,128,24,128H104c13.25,0,24-10.75,24-24V24c0-13.25-10.75-24-24-24h0Z"/></g></g><g id="figura"><g><path class="cls-3" d="M53.54,25.98c.59,.57,.85,1.39,.71,2.2l-1.16,6.77c-.35,2.03,1.78,3.58,3.61,2.62l6.08-3.2c.72-.38,1.59-.38,2.31,0l6.08,3.2c1.82,.96,3.96-.59,3.61-2.62l-1.16-6.77c-.14-.81,.13-1.63,.71-2.2l4.92-4.79c1.48-1.44,.66-3.95-1.38-4.24l-6.8-.99c-.81-.12-1.51-.63-1.87-1.36l-3.04-6.16c-.91-1.85-3.55-1.85-4.46,0l-3.04,6.16c-.36,.73-1.06,1.24-1.87,1.36l-6.8,.99c-2.04,.3-2.85,2.8-1.38,4.24l4.92,4.79Z"/><path class="cls-3" d="M14.33,41.08c.59,.57,.85,1.39,.72,2.2l-1.16,6.77c-.35,2.03,1.78,3.58,3.61,2.62l6.08-3.2c.72-.38,1.59-.38,2.31,0l6.08,3.2c1.82,.96,3.96-.59,3.61-2.62l-1.16-6.77c-.14-.81,.13-1.63,.72-2.2l4.92-4.79c1.48-1.44,.66-3.95-1.38-4.24l-6.8-.99c-.81-.12-1.51-.63-1.87-1.36l-3.04-6.16c-.91-1.85-3.55-1.85-4.46,0l-3.04,6.16c-.36,.73-1.06,1.24-1.87,1.36l-6.8,.99c-2.04,.3-2.85,2.8-1.38,4.24l4.92,4.79Z"/><path class="cls-3" d="M91.87,41.08c.59,.57,.85,1.39,.72,2.2l-1.16,6.77c-.35,2.03,1.78,3.58,3.61,2.62l6.08-3.2c.72-.38,1.59-.38,2.31,0l6.08,3.2c1.82,.96,3.96-.59,3.61-2.62l-1.16-6.77c-.14-.81,.13-1.63,.72-2.2l4.92-4.79c1.48-1.44,.66-3.95-1.38-4.24l-6.8-.99c-.81-.12-1.51-.63-1.87-1.36l-3.04-6.16c-.91-1.85-3.55-1.85-4.46,0l-3.04,6.16c-.36,.73-1.06,1.24-1.87,1.36l-6.8,.99c-2.04,.3-2.85,2.8-1.38,4.24l4.92,4.79Z"/><path class="cls-3" d="M101.64,105.63l-36.64-63.46L28.36,105.63H4.02v.48c0,9.89,8.02,17.91,17.91,17.91H106.07c9.89,0,17.9-8.02,17.9-17.91v-.48h-22.34Zm-22.57,9.39v-26.55h-15.01v26.55H28.76l36.24-62.76,36.24,62.76h-22.16Z"/><rect class="cls-2" x="46.64" y="88.46" width="13.04" height="13.04"/></g></g></svg>