<svg xmlns="http://www.w3.org/2000/svg" viewBox="0 0 128 128"><defs><style>.cls-1,.cls-2{fill:#fff}.cls-3{fill:#ffec00}.cls-4{fill:#7a6a58}.cls-2{font-family:AcuminConcept-Bold,&apos;Acumin Variable Concept&apos;;font-size:49.12px;font-variation-settings:&apos;wght&apos; 700,&apos;wdth&apos; 100,&apos;slnt&apos; 0}</style></defs><g id="cuadrobase"><g><rect width="124" height="124" x="2" y="2" class="cls-4" rx="22" ry="22"/><path d="M104,4c11.03,0,20,8.97,20,20V104c0,11.03-8.97,20-20,20H24c-11.03,0-20-8.97-20-20V24C4,12.97,12.97,4,24,4H104m0-4H24C10.75,0,0,10.75,0,24V104c0,13.25,10.75,24,24,24H104c13.25,0,24-10.75,24-24V24c0-13.25-10.75-24-24-24h0Z" class="cls-3"/></g></g><g id="figura"><g><rect width="109.16" height="5.75" x="9.42" y="99.45" class="cls-1"/><rect width="11.2" height="44.42" x="24.4" y="40.41" class="cls-1"/><rect width="11.2" height="44.42" x="93.3" y="40.41" class="cls-1"/><path d="M109.66,28.26H18.73v8.4H109.66v-8.4Z" class="cls-1"/><polygon points="64.14 10.01 19.88 23.16 108.41 23.16 64.14 10.01" class="cls-1"/><rect width="88.76" height="5.75" x="19.62" y="88.98" class="cls-1"/><path d="M4.05,105.16c0,10.42,8.44,18.86,18.86,18.86H105.1c10.42,0,18.86-8.44,18.86-18.86H4.05Z" class="cls-1"/><g><text class="cls-2" transform="translate(42.97 78.96) scale(1.39 1)"><tspan x="0" y="0">S</tspan></text><rect width="6.57" height="8.76" x="52.42" y="40.64" class="cls-1"/><rect width="6.57" height="8.14" x="68.22" y="40.64" class="cls-1"/><rect width="6.57" height="8.76" x="52.42" y="74.68" class="cls-1"/><rect width="6.57" height="8.14" x="68.22" y="75.29" class="cls-1"/></g></g></g></svg>