<?xml version="1.0" encoding="UTF-8"?><svg xmlns="http://www.w3.org/2000/svg" viewBox="0 0 128 128"><defs><style>.cls-1{fill:#dddb00;}.cls-2{fill:#35a8e0;}</style></defs><g id="cuadrobase"><g><rect class="cls-1" x="2" y="2" width="124" height="124" rx="22" ry="22"/><path class="cls-2" d="M104,4c11.03,0,20,8.97,20,20V104c0,11.03-8.97,20-20,20H24c-11.03,0-20-8.97-20-20V24C4,12.97,12.97,4,24,4H104m0-4H24C10.75,0,0,10.75,0,24V104c0,13.25,10.75,24,24,24H104c13.25,0,24-10.75,24-24V24c0-13.25-10.75-24-24-24h0Z"/></g></g><g id="figura"><g><path class="cls-2" d="M113.65,102.42h-28.58c.84-.92,.82,1.56,1.2-.26,2.24-.45,6-6.31,5.86-13.04,7.23,.25,17.87-1.18,21.73-8.47,5.02-9.47,2-20.43-6.74-24.48-2.54-1.18-5.28-1.63-8.01-1.47-.34-.02-4.95-.04-5.29-.04v-1.31c0-1.81-2.01-3.28-4.5-3.28h-29.27c-.23-.04-.66-.12-1.26-.25,.5,.13,.95,.21,1.21,.25h-23.43c-2.48,0-4.5,1.47-4.5,3.28v33.83c0,1.4,1.21,2.6,2.91,3.07-.08,.48-.13,.97-.13,1.48,0,3.28,3.44,10.36,5.74,10.82,.39,1.83-.62-1.06,.22-.14H13.19c-.81,0-1.47,.69-1.47,1.54s.66,1.54,1.47,1.54h6.44c-.04,.19,.06-.18,.06,.05,0,.55,9.52,4.64,13.87,6.44,.57,.41,1.24,.68,1.97,.79,.08,.03,.14,.05,.15,.05h.36c.06,0,.11,.02,.17,.02h55.61c.06,0,.11-.01,.17-.02h1.08c.24,0,13.74-6.6,13.74-7.31,0-.23,.1,.17,.06-.02h6.8c.81,0,1.47-.69,1.47-1.54s-.66-1.54-1.47-1.54Zm-20.75-21.26l.57-18.87c.19-.01,.38-.03,.57-.04,1.52,.08,5.87,.31,7.29,.75,6.94,2.14,9.33,7.93,5.35,12.93-2.3,2.89-9.63,4.88-13.87,5.64,.05-.13,.08-.27,.08-.41Z"/><path class="cls-2" d="M63.56,36.98c2.16,2.36,6.85,3.69,9.22,4.23-2.51-.72-6.34-3.02,5.81-9.71,15.95-8.78-9.22-26.74-2.13-20,5.48,5.2-.62,9.06-6.94,14.21-2.27-7.38-11.76-13.78-7.05-9.31,7.09,6.73-5.23,11.22-12.32,19.18-5.81,6.52,4.66,9.62,8.64,10.52-2.44-.7-6.11-2.89,4.78-9.12Z"/><path class="cls-2" d="M72.78,41.2c.78,.22,1.44,.29,1.44,.29,0,0-.56-.09-1.44-.29Z"/></g></g></svg>