<?xml version="1.0" encoding="UTF-8"?><svg xmlns="http://www.w3.org/2000/svg" viewBox="0 0 128 128"><defs><style>.cls-1{fill:#ffec00;}.cls-2{fill:#29235c;}.cls-3{fill:#2d2e82;}</style></defs><g id="cuadrobase"><g><rect class="cls-1" x="2" y="2" width="124" height="124" rx="22" ry="22"/><path class="cls-2" d="M104,4c11.03,0,20,8.97,20,20V104c0,11.03-8.97,20-20,20H24c-11.03,0-20-8.97-20-20V24C4,12.97,12.97,4,24,4H104m0-4H24C10.75,0,0,10.75,0,24V104C0,117.25,10.75,128,24,128H104c13.25,0,24-10.75,24-24V24c0-13.25-10.75-24-24-24h0Z"/></g></g><g id="figura"><path class="cls-3" d="M116.56,63.91c-.53-.56-1.14-1.05-1.55-1.71-.33-.53-.64-1.07-1.06-1.54-.52-.63-1.39-.97-2.19-.81-.43,.08-.78,.38-1.01,.74-.3-.16-.64-.19-.97-.18-.13-.27-.36-.45-.65-.48-.11-.29-.35-.49-.66-.53-.12-.21-.27-.47-.54-.48-.59-.03-1.19,0-1.78,.01-.9-7.69-3.98-15.09-8.78-21.16,.41-.41,.82-.84,1.23-1.26,.2-.18,.15-.47,.12-.71,.22-.24,.23-.55,.12-.84,.17-.24,.19-.52,.1-.8,.23-.22,.44-.47,.55-.77,.36,.06,.75,.06,1.08-.12,.66-.34,1.06-1.08,1.12-1.8,.03-.72-.15-1.43-.32-2.13-.19-.77-.14-1.56-.13-2.35,.04-.22-.24-.2-.39-.2-.75,.03-1.52,.04-2.25-.15-.59-.15-1.18-.28-1.79-.3-.79-.03-1.63,.36-2.02,1.07-.2,.35-.22,.76-.13,1.14-.33,.09-.59,.31-.82,.56-.27-.09-.56-.07-.78,.12-.29-.11-.61-.1-.86,.1-.26-.06-.58-.14-.79,.08-.4,.4-.8,.81-1.2,1.21-6.06-4.77-13.44-7.84-21.1-8.74-.03-.59,.05-1.19,0-1.78-.03-.28-.28-.43-.51-.54,0-.33-.23-.56-.52-.67,0-.3-.2-.51-.46-.63,0-.34-.03-.68-.18-.99,.33-.22,.62-.53,.72-.92,.19-.73-.07-1.54-.58-2.08-.54-.55-1.22-.92-1.87-1.33-.6-.4-1.05-.97-1.57-1.46-.08-.08-.21-.02-.27,.05-.55,.54-1.06,1.15-1.74,1.55-.5,.3-1,.61-1.44,.99-.64,.53-.99,1.42-.8,2.24,.09,.41,.38,.73,.71,.96-.13,.3-.17,.62-.16,.94-.26,.12-.45,.34-.48,.63-.3,.11-.51,.37-.51,.7-.2,.13-.42,.29-.42,.56-.04,.59,0,1.19-.02,1.78-7.68,.89-15.09,3.96-21.16,8.74-.41-.4-.81-.82-1.22-1.22-.2-.21-.52-.14-.77-.08-.25-.19-.57-.2-.86-.1-.22-.19-.51-.21-.78-.12-.23-.24-.5-.45-.83-.56,.21-.78-.26-1.6-.96-1.93-.92-.51-2.01-.21-2.97,.01-.86,.24-1.76,.13-2.64,.17-.03,.79,.07,1.6-.11,2.38-.15,.66-.33,1.32-.35,2.01-.04,.8,.36,1.63,1.06,2.04,.34,.2,.76,.22,1.14,.15,.11,.3,.31,.56,.55,.77-.08,.27-.08,.56,.1,.79-.11,.29-.1,.62,.13,.85-.03,.23-.08,.52,.11,.7,.41,.43,.82,.85,1.24,1.27-4.8,6.07-7.88,13.48-8.78,21.17-.6-.02-1.19-.05-1.79-.01-.27,.03-.41,.28-.53,.49-.32,.03-.55,.24-.67,.53-.3,.03-.51,.22-.64,.48-.34-.01-.68,.02-.98,.18-.18-.28-.43-.55-.75-.67-.69-.27-1.49-.06-2.06,.36-.66,.54-1.06,1.32-1.51,2.02-.43,.64-1.06,1.1-1.55,1.7,.54,.59,1.18,1.09,1.61,1.77,.38,.61,.75,1.25,1.26,1.76,.54,.5,1.33,.75,2.06,.58,.4-.09,.71-.38,.94-.71,.3,.13,.62,.17,.94,.17,.12,.25,.34,.44,.63,.46,.11,.3,.36,.51,.68,.52,.13,.16,.26,.38,.48,.4,.62,.03,1.24,.04,1.86,.03,.89,7.68,3.96,15.09,8.75,21.16-.4,.41-.82,.8-1.22,1.21-.21,.21-.14,.52-.07,.77-.2,.25-.21,.57-.1,.86-.18,.23-.22,.51-.12,.78-.24,.23-.46,.5-.56,.83-.34-.07-.71-.07-1.04,.08-.65,.29-1.04,.97-1.16,1.65-.15,1.18,.44,2.28,.44,3.45,.02,.4-.02,.79-.01,1.19,0,.11,.06,.25,.2,.22,.79,0,1.59-.06,2.36,.13,.66,.16,1.34,.32,2.02,.32,.7-.03,1.41-.37,1.8-.97,.25-.36,.29-.82,.21-1.24,.3-.11,.56-.31,.77-.55,.27,.09,.56,.07,.8-.1,.29,.11,.62,.09,.85-.13,.23,.04,.51,.08,.69-.11,.43-.41,.85-.82,1.27-1.24,6.09,4.81,13.51,7.9,21.22,8.78,0,.59-.02,1.18,.01,1.77,0,.27,.22,.44,.42,.58,0,.33,.23,.57,.51,.7,.04,.28,.22,.5,.47,.63,0,.32,.04,.64,.17,.94-.29,.2-.56,.46-.67,.8-.25,.73,0,1.57,.49,2.14,.48,.51,1.09,.88,1.69,1.24,.62,.37,1.12,.9,1.61,1.42,.1,.13,.25,.17,.41,.2,.57-.59,1.13-1.23,1.85-1.65,.52-.3,1.02-.63,1.47-1.04,.59-.54,.9-1.41,.71-2.19-.1-.4-.38-.71-.72-.93,.16-.3,.2-.65,.19-.98,.25-.13,.46-.34,.46-.64,.3-.1,.51-.34,.53-.66,.22-.13,.49-.27,.51-.56,.03-.59-.03-1.18-.01-1.77,7.68-.9,15.09-3.98,21.15-8.78,.43,.43,.86,.86,1.3,1.27,.18,.17,.44,.11,.66,.08,.24,.22,.56,.24,.85,.13,.23,.17,.52,.19,.79,.1,.23,.23,.47,.44,.78,.55-.06,.35-.06,.73,.11,1.06,.35,.7,1.12,1.11,1.89,1.15,.69,0,1.37-.15,2.04-.32,.76-.19,1.56-.14,2.34-.13,.13,.02,.24-.09,.22-.22-.01-.79-.06-1.59,.14-2.36,.17-.69,.34-1.4,.31-2.11-.06-.72-.46-1.46-1.12-1.79-.34-.18-.73-.18-1.09-.1-.1-.33-.31-.6-.55-.83,.08-.27,.06-.56-.13-.78,.12-.29,.11-.61-.1-.86,.06-.24,.15-.53-.04-.74-.4-.43-.84-.83-1.25-1.25,4.79-6.07,7.85-13.48,8.74-21.16,.61,0,1.23,0,1.84-.03,.24,0,.38-.23,.51-.4,.33-.02,.57-.23,.69-.53,.29-.02,.5-.21,.62-.46,.32,0,.65-.05,.95-.17,.23,.32,.53,.61,.92,.7,.79,.19,1.65-.11,2.19-.7,.39-.43,.71-.92,1.01-1.42,.37-.65,.91-1.18,1.45-1.68,.12-.12,.28-.24,.22-.43h0ZM38.09,45.29c.15,.13,.28,.29,.46,.36,.19,.05,.39,0,.58-.04,.24,.13,.52,.12,.77,.02,.2,.12,.42,.15,.64,.14,.46,.48,.83,1.04,1.13,1.63,.31,.59,.53,1.23,.92,1.78,.22,.33,.58,.59,.99,.6,.25,.02,.5-.05,.76-.07,.18,.07,.34,.15,.53,.17,.05,.04,.1,.07,.14,.11-.1,.16-.25,.33-.24,.54-.04,.49,.51,.94,.98,.76,.08,0,.21-.1,.24,.02-.06,.43-.18,.9,.05,1.3,.3,.53,.9,.77,1.42,1.03,.93,.42,1.85,.89,2.57,1.64-.02,.24,.04,.47,.17,.67-.05,.23-.15,.52,.04,.72,.28,.32,.6,.6,.9,.91-.29,.62-.57,1.25-.78,1.9-.41-.02-.82-.05-1.23,0-.27,.02-.4,.28-.52,.48-.25,.04-.45,.18-.61,.37-.77,0-1.53-.15-2.25-.4-.63-.2-1.24-.5-1.91-.59-.41-.07-.84,.08-1.13,.38-.18,.19-.31,.41-.46,.62-.12-.21-.22-.48-.47-.56-.29-.11-.66-.09-.88,.15-.17,.16-.18,.41-.24,.62-.21-.12-.41-.26-.66-.3-.2-.33-.43-.68-.81-.82-.61-.25-1.26,.04-1.84,.23-.9,.35-1.84,.63-2.81,.68-.15-.18-.33-.32-.56-.37-.1-.25-.28-.46-.55-.52-.12-.14-.23-.33-.43-.38-.19-.05-.38-.03-.58-.04,.77-4.93,2.73-9.66,5.65-13.7h0Zm6.78,32.84c-.26-.02-.47,.22-.74,.14-.31-.06-.65-.09-.94,.05-.51,.23-.78,.77-1.02,1.25-.43,.95-.88,1.91-1.62,2.66-.22-.02-.45,.02-.64,.14-.25-.1-.53-.11-.77,.02-.18-.01-.36-.06-.53,.02-.18,.09-.32,.25-.47,.39-2.93-4.03-4.91-8.75-5.69-13.67,.18-.02,.38,0,.56-.06,.2-.09,.29-.29,.41-.46,.27-.07,.46-.27,.56-.53,.23-.04,.41-.18,.55-.35,.82,.02,1.63,.21,2.4,.5,.64,.21,1.28,.53,1.97,.47,.52-.05,.89-.47,1.12-.9,.18-.03,.36-.08,.48-.23,.07-.01,.13-.02,.2-.03,.05,.2,.07,.42,.22,.58,.23,.23,.61,.26,.9,.15,.24-.09,.33-.35,.46-.55,.25,.32,.46,.71,.85,.88,.51,.24,1.09,.05,1.6-.12,1.04-.37,2.11-.81,3.23-.74,.19,.14,.37,.3,.62,.33,.11,.2,.24,.45,.49,.48,.44,.03,.87,0,1.31,.01,.23,.64,.48,1.27,.78,1.87-.29,.31-.63,.58-.89,.92-.15,.2-.06,.46,0,.68-.15,.2-.17,.44-.21,.68-.64,.72-1.52,1.18-2.39,1.58-.57,.28-1.24,.52-1.59,1.1-.24,.4-.12,.87-.06,1.3-.06,.13-.23,0-.33,0-.4-.11-.79,.23-.88,.6-.07,.27,.09,.52,.23,.73-.04,.03-.11,.08-.15,.1h0Zm15.61,9.42c-.18,.09-.22,.28-.23,.47-.42,.24-.85,.6-.91,1.12-.06,.68,.25,1.32,.46,1.95,.29,.78,.49,1.59,.53,2.43-.19,.14-.32,.33-.36,.55-.26,.1-.46,.29-.53,.57-.16,.09-.34,.17-.43,.34-.1,.19-.07,.41-.09,.61-4.9-.78-9.59-2.74-13.61-5.64,.13-.15,.3-.28,.37-.47,.04-.19-.01-.38-.05-.56,.12-.24,.13-.51,.03-.77,.11-.2,.14-.42,.13-.64,.62-.61,1.38-1.04,2.16-1.4,.56-.28,1.2-.49,1.61-1,.28-.34,.28-.81,.2-1.23-.08-.26,.15-.46,.15-.71,.03-.04,.08-.11,.1-.15,.17,.1,.34,.25,.55,.24,.33,.03,.63-.23,.76-.52,.1-.24-.02-.5-.04-.74,.52,.13,1.13,.22,1.57-.17,.52-.48,.75-1.18,1.06-1.8,.35-.75,.8-1.46,1.39-2.04,.24,.02,.48-.04,.68-.18,.23,.06,.52,.15,.72-.04,.31-.28,.59-.6,.9-.89,.61,.3,1.24,.56,1.89,.78,0,.43-.02,.87,0,1.31,.01,.26,.28,.38,.47,.51,.04,.24,.17,.44,.36,.59,0,.91-.23,1.8-.55,2.65-.21,.63-.53,1.27-.42,1.95,.1,.52,.57,.83,.98,1.1-.19,.12-.43,.2-.53,.41-.15,.31-.12,.74,.15,.98,.15,.14,.36,.14,.54,.18,0,.07,0,.14,0,.21h0Zm-.57-46.66c-.23,.22-.25,.59-.14,.88,.1,.24,.36,.34,.56,.47-.33,.24-.73,.46-.9,.87-.23,.51-.04,1.07,.12,1.57,.37,1.05,.82,2.13,.75,3.26-.15,.18-.31,.37-.34,.61-.19,.11-.45,.22-.47,.48-.03,.44,0,.88-.01,1.32-.65,.21-1.27,.48-1.88,.77-.31-.29-.58-.63-.92-.89-.2-.15-.45-.05-.67,0-.2-.15-.43-.19-.68-.18-.52-.51-.94-1.1-1.26-1.75-.29-.55-.51-1.15-.84-1.68-.21-.32-.51-.63-.9-.7-.34-.09-.69,.03-1.03,.07-.01-.25,.12-.5,.01-.74-.13-.28-.42-.52-.75-.51-.21,0-.38,.15-.54,.25-.04-.05-.08-.1-.11-.14,.01-.26-.23-.47-.14-.74,.06-.36,.09-.75-.11-1.07-.29-.48-.83-.72-1.31-.96-.91-.41-1.82-.87-2.55-1.56,.03-.22-.02-.44-.12-.64,.08-.25,.1-.52-.03-.76,0-.18,.06-.37-.02-.55-.1-.18-.25-.31-.39-.46,4.03-2.93,8.75-4.91,13.67-5.69,.02,.2,0,.41,.08,.6,.09,.17,.28,.26,.44,.35,.07,.27,.27,.47,.53,.57,.04,.23,.18,.42,.36,.55-.03,.88-.26,1.73-.57,2.55-.2,.59-.48,1.19-.42,1.82,.06,.51,.47,.88,.9,1.12,.04,.24,.18,.44,.3,.66-.21,.06-.46,.07-.62,.25h0Zm3.86,63.58c.05,.03,.11,.04,.17,.05-.06,0-.12-.02-.17-.05Zm3.82-64.01c.16-.12,.2-.3,.23-.48,.4-.21,.77-.53,.88-.98,.11-.57-.11-1.14-.29-1.67-.34-.9-.66-1.83-.65-2.81,.16-.15,.29-.33,.34-.55,.25-.1,.45-.28,.52-.55,.14-.12,.33-.23,.38-.43,.03-.19,.03-.39,.04-.58,4.96,.77,9.71,2.76,13.77,5.71-.18,.21-.46,.41-.42,.72,.04,.36-.17,.7,0,1.05-.12,.19-.16,.41-.14,.63-.67,.64-1.49,1.09-2.32,1.46-.53,.25-1.11,.48-1.47,.97-.25,.33-.26,.77-.17,1.16,.08,.26-.16,.47-.14,.73-.03,.04-.08,.12-.1,.15-.2-.13-.41-.29-.66-.25-.41,.05-.79,.49-.66,.91,0,.11,.09,.23,0,.33-.4-.07-.82-.18-1.21,0-.53,.24-.8,.8-1.04,1.3-.46,.98-.92,2.01-1.74,2.73-.24,.04-.48,.06-.68,.21-.22-.07-.48-.15-.68,0-.33,.27-.6,.59-.91,.88-.61-.29-1.24-.56-1.88-.77-.01-.43,.03-.87-.02-1.3-.05-.24-.29-.34-.48-.45-.02-.24-.16-.44-.33-.6-.04-.92,.21-1.83,.53-2.68,.22-.64,.53-1.3,.42-1.99-.11-.51-.57-.8-.97-1.08,.2-.12,.46-.22,.55-.46,.12-.29,.08-.67-.15-.9-.15-.15-.38-.17-.58-.22,0-.06,.02-.13,.03-.19h0Zm1.46,55.14c-.02-.2,0-.41-.05-.6-.06-.19-.24-.29-.38-.41-.07-.27-.27-.45-.52-.54-.05-.22-.18-.4-.34-.56,0-.93,.29-1.83,.61-2.7,.2-.57,.46-1.17,.33-1.79-.11-.47-.51-.77-.9-.99,0-.11-.02-.22-.02-.33-.05-.02-.15-.07-.19-.09,0-.08,0-.17,0-.25,.2-.04,.43-.05,.58-.21,.24-.25,.26-.67,.11-.97-.11-.2-.34-.28-.52-.39,.39-.27,.84-.55,.96-1.04,.14-.64-.14-1.26-.34-1.85-.35-.91-.64-1.87-.6-2.86,.18-.16,.31-.36,.33-.61,.2-.1,.45-.2,.48-.45,.04-.43,0-.86,.01-1.29,.65-.21,1.27-.48,1.89-.78,.31,.3,.6,.63,.93,.91,.2,.16,.47,.06,.69,.02,.19,.13,.42,.19,.66,.17,.82,.78,1.31,1.82,1.77,2.83,.26,.54,.61,1.18,1.27,1.28,.33,.09,.66-.1,.99-.04-.03,.22-.14,.46-.05,.68,.12,.29,.41,.54,.74,.53,.22,0,.39-.14,.57-.24,.04,.05,.08,.1,.12,.16-.02,.19,.05,.35,.17,.5-.11,.43-.17,.93,.08,1.33,.35,.54,1,.77,1.55,1.05,.8,.37,1.6,.77,2.23,1.4,.1,.21,.06,.48,.2,.69-.1,.26-.1,.53,.02,.77-.03,.18-.09,.37-.04,.55,.07,.19,.24,.33,.37,.48-4.05,2.92-8.78,4.89-13.71,5.66h0Zm20.87-12.81c-.14-.12-.27-.26-.43-.36-.17-.12-.39-.06-.58-.04-.25-.13-.52-.12-.77-.02-.19-.13-.42-.15-.64-.14-.6-.65-1.05-1.42-1.4-2.22-.28-.56-.5-1.2-1.02-1.58-.4-.29-.92-.24-1.37-.12-.15-.11-.32-.2-.52-.17-.04-.03-.12-.09-.16-.11,.11-.18,.26-.35,.25-.57,.02-.3-.2-.57-.46-.71-.25-.14-.52-.02-.78,.03,.05-.42,.19-.86,0-1.27-.26-.58-.89-.85-1.43-1.11-.94-.43-1.91-.9-2.61-1.68-.04-.24-.06-.48-.2-.68,.05-.23,.14-.49-.02-.69-.26-.33-.59-.59-.87-.9,.3-.61,.56-1.23,.77-1.87,.43,0,.87,.02,1.3-.01,.26-.02,.39-.28,.51-.48,.25-.03,.44-.17,.61-.35,.79,0,1.56,.16,2.3,.42,.72,.23,1.44,.62,2.22,.55,.55-.07,.89-.56,1.17-.98,.14,.21,.25,.49,.51,.57,.28,.06,.63,.07,.84-.16,.16-.15,.17-.38,.21-.58,.07,0,.14,.01,.21,.02,.12,.16,.29,.21,.48,.24,.24,.4,.56,.8,1.04,.89,.62,.1,1.21-.17,1.79-.36,.85-.33,1.75-.58,2.67-.6,.14,.18,.32,.32,.55,.35,.09,.26,.29,.46,.56,.54,.11,.16,.21,.36,.39,.45,.18,.07,.38,.05,.57,.07-.79,4.92-2.76,9.64-5.69,13.67h0Zm5.11-23.76c-.19,.05-.3,.24-.42,.38-.27,.06-.45,.28-.55,.52-.23,.05-.41,.19-.55,.37-.91-.05-1.8-.29-2.64-.62-.55-.19-1.12-.44-1.72-.37-.52,.07-.87,.5-1.11,.92-.18,.02-.37,.05-.47,.23-.07,0-.14,0-.21,0-.04-.19-.05-.4-.18-.54-.21-.25-.58-.28-.87-.2-.27,.08-.39,.36-.52,.58-.27-.44-.61-.92-1.16-.99-.71-.08-1.38,.27-2.03,.48-.82,.3-1.68,.5-2.55,.5-.16-.19-.36-.33-.61-.36-.1-.19-.22-.44-.46-.48-.42-.07-.85,0-1.27-.01-.25-.63-.48-1.28-.8-1.88,.29-.3,.6-.59,.89-.9,.2-.19,.1-.49,.05-.72,.14-.21,.14-.46,.21-.69,.73-.8,1.73-1.25,2.69-1.7,.5-.25,1.07-.51,1.3-1.05,.19-.41,.05-.85,0-1.27,.34,.12,.76,.16,1.02-.14,.33-.29,.26-.8-.02-1.1,.04-.02,.11-.07,.15-.1,.18-.02,.35-.1,.52-.17,.38,.03,.79,.15,1.16-.03,.56-.25,.82-.85,1.08-1.37,.42-.91,.86-1.84,1.58-2.56,.22,.01,.45-.03,.65-.14,.25,.1,.52,.09,.77-.03,.18,.03,.37,.09,.56,.05,.19-.07,.33-.24,.48-.37,2.92,4.04,4.88,8.78,5.66,13.71-.2,0-.4,0-.59,.04h0Z"/></g></svg>