<?xml version="1.0" encoding="UTF-8"?><svg id="iconoAGUA" xmlns="http://www.w3.org/2000/svg" viewBox="0 0 128 128"><defs><style>.cls-1{fill:#936037;}.cls-2{fill:#dedc00;}.cls-3{fill:#36a9e1;}</style></defs><g><rect class="cls-2" x="2" y="2" width="124" height="124" rx="22" ry="22"/><path class="cls-3" d="M104,4c11.03,0,20,8.97,20,20V104c0,11.03-8.97,20-20,20H24c-11.03,0-20-8.97-20-20V24C4,12.97,12.97,4,24,4H104M104,0H24C10.75,0,0,10.75,0,24V104C0,117.25,10.75,128,24,128H104c13.25,0,24-10.75,24-24V24C128,10.75,117.25,0,104,0h0Z"/></g><path class="cls-1" d="M86.48,84.73c-2.35,.36-4.86-.26-6.79-1.9l-13.69-11.63-4.33-3.68-8.67-7.37c-1.04-.88-1.16-2.44-.27-3.45l.02-.03c.89-1.02,2.48-1.12,3.52-.24l8.49,7.21,2.05-2.33-15.58-13.24c-1.17-1-1.31-2.75-.3-3.9s2.8-1.27,3.97-.27l15.58,13.24,2.01-2.29-17.73-15.06c-1.17-1-1.31-2.75-.3-3.9s2.8-1.27,3.97-.27l17.73,15.06,1.83-2.08-14.19-12.05c-1.17-1-1.31-2.75-.3-3.9,1.01-1.15,2.8-1.27,3.97-.27l14.37,12.21,2.92,2.48,5.17,4.4c.03-.38,.12-.75,.26-1.11,1.6-3.9-1.25-3.81-.66-8.65,.25-2.09,2.12-4.36,3.49-4.76,1.38-.4,1.72,.49,2.24,1.96l7.17,20.13c1.17,1.66,1.72,3.64,1.6,5.6l2.95,2.51,2.96-3.55c3.15-3.78,4.22-8.58,3.35-13.07,0,0,10.69-11.59,10.69-13.21,0-14.66,1.49-21.65-7.09-28.55-7.45-5.99-12.46-4.89-28.92-4.89-1.39,0-15.67,13.85-15.67,13.85-3.89-.14-7.79,.98-11.01,3.29l-39.5,14.53c-2.88,1.06-4.61,1.75-3.74,4.37,.88,2.62,5.51,6.09,9.67,6.49,9.65,.93,9.28-4.52,17.12-1.62,.72,.26,1.46,.41,2.21,.46l-8.4,10.07-4.73,5.68-23.32,27.97c-1.91,2.29-1.55,5.7,.79,7.58,2.34,1.88,5.81,1.55,7.72-.73l23.02-27.62,4.25,3.42-28.78,34.52c-1.91,2.29-1.55,5.7,.79,7.58,2.34,1.88,5.81,1.55,7.72-.73l28.78-34.52,4.66,3.75-25.29,30.33c-1.91,2.29-1.55,5.7,.79,7.58,2.34,1.88,5.81,1.55,7.72-.73l25.29-30.33,4.76,3.83-13.78,16.53c-1.69,2.02-1.37,5.05,.7,6.72l.05,.04c2.07,1.67,5.15,1.38,6.84-.65l14.08-16.88,7.03-8.43,2.16-2.6-3.43-2.91Z"/></svg>