<?xml version="1.0" encoding="UTF-8"?><svg xmlns="http://www.w3.org/2000/svg" viewBox="0 0 128 128"><defs><style>.cls-1{fill:#fff;}.cls-2{fill:#ffec00;}.cls-3{fill:#d60b51;}</style></defs><g id="cuadrobase"><g><rect class="cls-3" x="2" y="2" width="124" height="124" rx="22" ry="22"/><path class="cls-2" d="M104,4c11.03,0,20,8.97,20,20V104c0,11.03-8.97,20-20,20H24c-11.03,0-20-8.97-20-20V24C4,12.97,12.97,4,24,4H104m0-4H24C10.75,0,0,10.75,0,24V104C0,117.25,10.75,128,24,128H104c13.25,0,24-10.75,24-24V24c0-13.25-10.75-24-24-24h0Z"/></g></g><g id="figura"><path class="cls-2" d="M64,119.58c-12.71,0-25.01-8.23-34.65-23.18-7.98-12.38-12.94-27.86-12.94-40.4,0-26.24,21.34-47.58,47.58-47.58s47.58,21.34,47.58,47.58c0,12.54-4.96,28.03-12.94,40.4-9.63,14.95-21.94,23.18-34.65,23.18Zm0-96.16c-17.96,0-32.58,14.62-32.58,32.58,0,9.67,4.14,22.34,10.54,32.28,6.68,10.36,14.71,16.3,22.04,16.3s15.36-5.94,22.04-16.3c6.4-9.94,10.54-22.61,10.54-32.28,0-17.96-14.62-32.58-32.58-32.58Z"/><circle class="cls-1" cx="64" cy="56" r="13.37"/></g></svg>