<?xml version="1.0" encoding="UTF-8"?><svg xmlns="http://www.w3.org/2000/svg" viewBox="0 0 128 128"><defs><style>.cls-1{fill:#bd1622;}.cls-2{fill:#35a8e0;}</style></defs><g id="cuadrobase"><g><rect class="cls-2" x="2" y="2" width="124" height="124" rx="22" ry="22"/><path class="cls-1" d="M104,4c11.03,0,20,8.97,20,20V104c0,11.03-8.97,20-20,20H24c-11.03,0-20-8.97-20-20V24C4,12.97,12.97,4,24,4H104m0-4H24C10.75,0,0,10.75,0,24V104c0,13.25,10.75,24,24,24H104c13.25,0,24-10.75,24-24V24c0-13.25-10.75-24-24-24h0Z"/></g></g><g id="figura"><g><path class="cls-1" d="M62.04,17.72h6.9V109.29h-6.9V17.72Z"/><path class="cls-1" d="M37.37,34.48c4.95,0,8.49,4.29,9.23,6.62l6.06,20.99c1.21,4.49-4.24,6.37-5.54,1.98l-5.45-19.25h-4.87l11.09,34.22h-8.9v26.71c0,4.56-6.5,4.53-6.5,0v-26.87h-3.32v26.82c0,4.61-6.54,4.61-6.54,0v-26.65H13.9l10.96-34.22h-4.94l-5.47,19.31c-1.29,4.2-6.78,2.5-5.53-2.03l6.06-20.99c.65-2.39,3.52-6.62,8.49-6.62h13.9Z"/><path class="cls-1" d="M30.79,30.36c3.9,0,7.06-3.33,7.06-7.43s-3.17-7.45-7.06-7.45-7.06,3.33-7.06,7.45c0,4.1,3.16,7.43,7.06,7.43Z"/><path class="cls-1" d="M99.44,30.23c3.92,0,7.08-3.31,7.08-7.44s-3.17-7.43-7.08-7.43-7.06,3.33-7.06,7.43c0,4.12,3.17,7.44,7.06,7.44Z"/><path class="cls-1" d="M89.88,104.9c0,2.31,1.75,4.17,3.94,4.17s3.97-1.87,3.97-4.17v-34.98h3.32v34.98c0,2.31,1.78,4.17,3.97,4.17s3.95-1.87,3.95-4.17l-1.13-60.3h4.45v22.23c0,4.48,5.53,4.48,5.53,0v-22.72c0-4.94-3.65-9.76-9.14-9.76l-18.73-.03c-5.02,0-9.04,4.3-9.04,9.65v22.85c0,4.42,5.56,4.42,5.56,0v-22.23h4.59l-1.24,60.3h0Z"/></g></g></svg>