<svg xmlns="http://www.w3.org/2000/svg" xmlns:xlink="http://www.w3.org/1999/xlink" width="442" height="441" overflow="hidden" xml:space="preserve"><defs><clipPath id="clip0"><rect width="442" height="441" x="467" y="28"/></clipPath><clipPath id="clip1"><rect width="164" height="165" x="608" y="137"/></clipPath><clipPath id="clip2"><rect width="164" height="165" x="608" y="137"/></clipPath><clipPath id="clip3"><rect width="164" height="165" x="608" y="137"/></clipPath></defs><g clip-path="url(#clip0)" transform="translate(-467 -28)"><path fill="#442178" stroke="#FFF" stroke-width="4.594" d="M220.5 45.9375C220.5 45.9375 105.656 207.638 105.656 280.219 105.656 343.613 157.106 395.063 220.5 395.063 283.894 395.063 335.344 343.613 335.344 280.219 335.344 207.178 220.5 45.9375 220.5 45.9375Z" transform="matrix(-1.00227 1.22742e-16 -1.22465e-16 -1 909 469)"/><g clip-path="url(#clip1)"><g clip-path="url(#clip2)"><g clip-path="url(#clip3)"><path fill="#FFF" stroke="#FFF" stroke-width="1.698" d="M81.5 16.9792C81.5 16.9792 39.0521 76.7458 39.0521 103.573 39.0521 127.004 58.0687 146.021 81.5 146.021 104.931 146.021 123.948 127.004 123.948 103.573 123.948 76.576 81.5 16.9792 81.5 16.9792Z" transform="matrix(-1 1.22465e-16 -1.23216e-16 -1.00614 771 301)"/></g></g></g></g></svg>