<svg xmlns="http://www.w3.org/2000/svg" xmlns:xlink="http://www.w3.org/1999/xlink" width="441" height="442" overflow="hidden" xml:space="preserve"><defs><clipPath id="clip0"><rect width="441" height="442" x="1741" y="1412"/></clipPath><clipPath id="clip1"><rect width="165" height="164" x="1880" y="1522"/></clipPath><clipPath id="clip2"><rect width="165" height="164" x="1880" y="1522"/></clipPath><clipPath id="clip3"><rect width="165" height="164" x="1880" y="1522"/></clipPath></defs><g clip-path="url(#clip0)" transform="translate(-1741 -1412)"><path fill="#F5D" stroke="#FFF" stroke-width="4.594" d="M220.5 45.9375C220.5 45.9375 105.656 207.638 105.656 280.219 105.656 343.613 157.106 395.063 220.5 395.063 283.894 395.063 335.344 343.613 335.344 280.219 335.344 207.178 220.5 45.9375 220.5 45.9375Z" transform="matrix(-1 1.22465e-16 -1.22742e-16 -1.00227 2182 1854)"/><g clip-path="url(#clip1)"><g clip-path="url(#clip2)"><g clip-path="url(#clip3)"><path fill="#FFF" stroke="#FFF" stroke-width="1.698" d="M81.5 16.9792C81.5 16.9792 39.0521 76.7458 39.0521 103.573 39.0521 127.004 58.0687 146.021 81.5 146.021 104.931 146.021 123.948 127.004 123.948 103.573 123.948 76.576 81.5 16.9792 81.5 16.9792Z" transform="matrix(-1.00614 1.23216e-16 -1.22465e-16 -1 2045 1685)"/></g></g></g></g></svg>