<svg width="442" height="442" xmlns="http://www.w3.org/2000/svg" xmlns:xlink="http://www.w3.org/1999/xlink" xml:space="preserve" overflow="hidden"><defs><clipPath id="clip0"><rect x="2182" y="500" width="442" height="442"/></clipPath><clipPath id="clip1"><rect x="2322" y="609" width="164" height="165"/></clipPath><clipPath id="clip2"><rect x="2322" y="609" width="164" height="165"/></clipPath><clipPath id="clip3"><rect x="2322" y="609" width="164" height="165"/></clipPath></defs><g clip-path="url(#clip0)" transform="translate(-2182 -500)"><path d="M2403 895.958C2403 895.958 2518.1 733.892 2518.1 661.146 2518.1 597.608 2466.54 546.042 2403 546.042 2339.46 546.042 2287.9 597.608 2287.9 661.146 2287.9 734.352 2403 895.958 2403 895.958Z" stroke="#FFFFFF" stroke-width="4.60416" fill="#A02C89"/><g clip-path="url(#clip1)"><g clip-path="url(#clip2)"><g clip-path="url(#clip3)"><path d="M2404 755.917C2404 755.917 2446.71 695.783 2446.71 668.792 2446.71 645.217 2427.57 626.083 2404 626.083 2380.43 626.083 2361.29 645.217 2361.29 668.792 2361.29 695.954 2404 755.917 2404 755.917Z" stroke="#FFFFFF" stroke-width="1.70823" fill="#FFFFFF"/></g></g></g></g></svg>