<svg xmlns="http://www.w3.org/2000/svg" xmlns:xlink="http://www.w3.org/1999/xlink" width="442" height="442" overflow="hidden" xml:space="preserve"><defs><clipPath id="clip0"><rect width="442" height="442" x="3055" y="500"/></clipPath><clipPath id="clip1"><rect width="165" height="165" x="3195" y="609"/></clipPath><clipPath id="clip2"><rect width="165" height="165" x="3195" y="609"/></clipPath><clipPath id="clip3"><rect width="165" height="165" x="3195" y="609"/></clipPath></defs><g clip-path="url(#clip0)" transform="translate(-3055 -500)"><path fill="#90F" stroke="#FFF" stroke-width="4.604" d="M221 46.0416C221 46.0416 105.896 208.108 105.896 280.854 105.896 344.391 157.462 395.958 221 395.958 284.537 395.958 336.104 344.391 336.104 280.854 336.104 207.648 221 46.0416 221 46.0416Z" transform="matrix(-1 1.22465e-16 -1.22465e-16 -1 3497 942)"/><g clip-path="url(#clip1)"><g clip-path="url(#clip2)"><g clip-path="url(#clip3)"><path fill="#FFF" stroke="#FFF" stroke-width="1.708" d="M3277 755.917C3277 755.917 3319.71 695.783 3319.71 668.792 3319.71 645.217 3300.58 626.083 3277 626.083 3253.43 626.083 3234.29 645.217 3234.29 668.792 3234.29 695.954 3277 755.917 3277 755.917Z"/></g></g></g></g></svg>