<svg xmlns="http://www.w3.org/2000/svg" xmlns:xlink="http://www.w3.org/1999/xlink" width="441" height="441" overflow="hidden" xml:space="preserve"><defs><clipPath id="clip0"><rect width="441" height="441" x="3043" y="1860"/></clipPath><clipPath id="clip1"><rect width="165" height="164" x="3183" y="1969"/></clipPath><clipPath id="clip2"><rect width="165" height="164" x="3183" y="1969"/></clipPath><clipPath id="clip3"><rect width="165" height="164" x="3183" y="1969"/></clipPath></defs><g clip-path="url(#clip0)" transform="translate(-3043 -1860)"><path fill="#F99" stroke="#FFF" stroke-width="4.594" d="M3263.5 2255.06C3263.5 2255.06 3378.34 2093.36 3378.34 2020.78 3378.34 1957.39 3326.89 1905.94 3263.5 1905.94 3200.11 1905.94 3148.66 1957.39 3148.66 2020.78 3148.66 2093.82 3263.5 2255.06 3263.5 2255.06Z"/><g clip-path="url(#clip1)"><g clip-path="url(#clip2)"><g clip-path="url(#clip3)"><path fill="#FFF" stroke="#FFF" stroke-width="1.708" d="M3265 2115.92C3265 2115.92 3307.71 2055.78 3307.71 2028.79 3307.71 2005.22 3288.57 1986.08 3265 1986.08 3241.43 1986.08 3222.29 2005.22 3222.29 2028.79 3222.29 2055.95 3265 2115.92 3265 2115.92Z"/></g></g></g></g></svg>