<svg width="441" height="442" xmlns="http://www.w3.org/2000/svg" xmlns:xlink="http://www.w3.org/1999/xlink" xml:space="preserve" overflow="hidden"><defs><clipPath id="clip0"><rect x="2617" y="1830" width="441" height="442"/></clipPath><clipPath id="clip1"><rect x="2756" y="1939" width="165" height="165"/></clipPath><clipPath id="clip2"><rect x="2756" y="1939" width="165" height="165"/></clipPath><clipPath id="clip3"><rect x="2756" y="1939" width="165" height="165"/></clipPath></defs><g clip-path="url(#clip0)" transform="translate(-2617 -1830)"><path d="M220.5 45.9375C220.5 45.9375 105.656 207.638 105.656 280.219 105.656 343.613 157.106 395.063 220.5 395.063 283.894 395.063 335.344 343.613 335.344 280.219 335.344 207.178 220.5 45.9375 220.5 45.9375Z" stroke="#FFFFFF" stroke-width="4.59375" fill="#FFD5E5" transform="matrix(-1 1.22465e-16 -1.22742e-16 -1.00227 3058 2272)"/><g clip-path="url(#clip1)"><g clip-path="url(#clip2)"><g clip-path="url(#clip3)"><path d="M2839 2085.92C2839 2085.92 2881.71 2025.78 2881.71 1998.79 2881.71 1975.22 2862.57 1956.08 2839 1956.08 2815.42 1956.08 2796.29 1975.22 2796.29 1998.79 2796.29 2025.95 2839 2085.92 2839 2085.92Z" stroke="#FFFFFF" stroke-width="1.70823" fill="#FFFFFF"/></g></g></g></g></svg>