<svg width="129" height="129" xmlns="http://www.w3.org/2000/svg" xmlns:xlink="http://www.w3.org/1999/xlink" xml:space="preserve" overflow="hidden"><defs><clipPath id="clip0"><rect x="0" y="393" width="129" height="129"/></clipPath></defs><g clip-path="url(#clip0)" transform="matrix(1 0 0 1 0 -393)"><path d="M30.9062 403.884C28.6219 403.884 26.875 405.631 26.875 407.916L26.875 511.384 34.9375 511.384 34.9375 407.916C34.9375 405.631 33.1906 403.884 30.9062 403.884Z" stroke="#FFFFFF" stroke-width="1.34375" fill="#FF0000"/><path d="M57.3781 403.616C45.5531 403.616 40.3125 407.513 40.3125 407.513L40.3125 451.991C40.3125 451.991 45.4188 448.094 57.3781 448.094 71.6219 448.094 85.5969 455.888 102.125 448.362L102.125 403.884C81.2969 410.066 71.6219 403.616 57.3781 403.616Z" stroke="#FFFFFF" stroke-width="1.34375" fill="#FF0000"/></g></svg>