<svg width="129" height="129" xmlns="http://www.w3.org/2000/svg" xmlns:xlink="http://www.w3.org/1999/xlink" xml:space="preserve" overflow="hidden"><defs><clipPath id="clip0"><rect x="0" y="136" width="129" height="129"/></clipPath></defs><g clip-path="url(#clip0)" transform="matrix(1 0 0 1 0 -136)"><path d="M30.9062 146.884C28.6219 146.884 26.875 148.631 26.875 150.916L26.875 254.384 34.9375 254.384 34.9375 150.916C34.9375 148.631 33.1906 146.884 30.9062 146.884Z" stroke="#FFFFFF" stroke-width="1.34375" fill="#FF5599"/><path d="M57.3781 146.616C45.5531 146.616 40.3125 150.512 40.3125 150.512L40.3125 194.991C40.3125 194.991 45.4188 191.094 57.3781 191.094 71.6219 191.094 85.5969 198.887 102.125 191.363L102.125 146.884C81.2969 153.066 71.6219 146.616 57.3781 146.616Z" stroke="#FFFFFF" stroke-width="1.34375" fill="#FF5599"/></g></svg>