<svg width="129" height="129" xmlns="http://www.w3.org/2000/svg" xmlns:xlink="http://www.w3.org/1999/xlink" xml:space="preserve" overflow="hidden"><defs><clipPath id="clip0"><rect x="468" y="280" width="129" height="129"/></clipPath></defs><g clip-path="url(#clip0)" transform="translate(-468 -280)"><path d="M531.291 388.978 550.506 369.763 577.784 391.934C578.322 392.472 579.263 392.337 579.8 391.8 580.338 391.263 580.338 390.456 579.934 389.784L557.763 362.641 576.978 343.425C578.456 341.947 578.859 339.797 578.188 337.781 577.516 335.766 575.634 334.422 573.619 334.288 568.244 333.75 561.659 335.497 554.941 339.125L526.453 316.281C528.872 311.578 529.947 306.337 529.544 301.097 529.006 297.334 524.303 295.319 521.75 297.872L485.872 333.75C483.319 336.303 485.334 341.006 489.097 341.544 494.337 341.947 499.578 341.006 504.281 338.453L527.125 366.941C523.497 373.659 521.884 380.244 522.287 385.619 522.422 387.634 523.766 389.516 525.781 390.188 527.662 390.994 529.812 390.456 531.291 388.978Z" stroke="#FFFFFF" stroke-width="1.34375" fill="#BC5FD3"/></g></svg>