<svg width="129" height="129" xmlns="http://www.w3.org/2000/svg" xmlns:xlink="http://www.w3.org/1999/xlink" xml:space="preserve" overflow="hidden"><defs><clipPath id="clip0"><rect x="915" y="548" width="129" height="129"/></clipPath></defs><g clip-path="url(#clip0)" transform="translate(-915 -548)"><path d="M978.291 656.978 997.506 637.763 1024.78 659.934C1025.32 660.472 1026.26 660.338 1026.8 659.8 1027.34 659.263 1027.34 658.456 1026.93 657.784L1004.76 630.641 1023.98 611.425C1025.46 609.947 1025.86 607.797 1025.19 605.781 1024.52 603.766 1022.63 602.422 1020.62 602.287 1015.24 601.75 1008.66 603.497 1001.94 607.125L973.453 584.281C975.872 579.578 976.947 574.338 976.544 569.097 976.006 565.334 971.303 563.319 968.75 565.872L932.872 601.75C930.319 604.303 932.334 609.006 936.097 609.544 941.338 609.947 946.578 609.006 951.281 606.453L974.125 634.941C970.497 641.659 968.884 648.244 969.287 653.619 969.422 655.634 970.766 657.516 972.781 658.188 974.662 658.994 976.812 658.456 978.291 656.978Z" stroke="#FFFFFF" stroke-width="1.34375" fill="#FFD5E5"/></g></svg>