<svg width="128" height="128" xmlns="http://www.w3.org/2000/svg" xmlns:xlink="http://www.w3.org/1999/xlink" xml:space="preserve" overflow="hidden"><defs><clipPath id="clip0"><rect x="308" y="152" width="128" height="128"/></clipPath></defs><g clip-path="url(#clip0)" transform="translate(-308 -152)"><path d="M370.8 260.133 389.867 241.067 416.933 263.067C417.467 263.6 418.4 263.467 418.933 262.933 419.467 262.4 419.467 261.6 419.067 260.933L397.067 234 416.133 214.933C417.6 213.467 418 211.333 417.333 209.333 416.667 207.333 414.8 206 412.8 205.867 407.467 205.333 400.933 207.067 394.267 210.667L366 188C368.4 183.333 369.467 178.133 369.067 172.933 368.533 169.2 363.867 167.2 361.333 169.733L325.733 205.333C323.2 207.867 325.2 212.533 328.933 213.067 334.133 213.467 339.333 212.533 344 210L366.667 238.267C363.067 244.933 361.467 251.467 361.867 256.8 362 258.8 363.333 260.667 365.333 261.333 367.2 262.133 369.333 261.6 370.8 260.133Z" stroke="#FFFFFF" stroke-width="1.33333" fill="#AA00D4"/></g></svg>