<svg width="128" height="128" xmlns="http://www.w3.org/2000/svg" xmlns:xlink="http://www.w3.org/1999/xlink" xml:space="preserve" overflow="hidden"><defs><clipPath id="clip0"><rect x="1065" y="420" width="128" height="128"/></clipPath></defs><g clip-path="url(#clip0)" transform="translate(-1065 -420)"><path d="M1127.8 528.133 1146.87 509.067 1173.93 531.067C1174.47 531.6 1175.4 531.467 1175.93 530.933 1176.47 530.4 1176.47 529.6 1176.07 528.933L1154.07 502 1173.13 482.933C1174.6 481.467 1175 479.333 1174.33 477.333 1173.67 475.333 1171.8 474 1169.8 473.867 1164.47 473.333 1157.93 475.067 1151.27 478.667L1123 456C1125.4 451.333 1126.47 446.133 1126.07 440.933 1125.53 437.2 1120.87 435.2 1118.33 437.733L1082.73 473.333C1080.2 475.867 1082.2 480.533 1085.93 481.067 1091.13 481.467 1096.33 480.533 1101 478L1123.67 506.267C1120.07 512.933 1118.47 519.467 1118.87 524.8 1119 526.8 1120.33 528.667 1122.33 529.333 1124.2 530.133 1126.33 529.6 1127.8 528.133Z" stroke="#FFFFFF" stroke-width="1.33333" fill="#FF7C80"/></g></svg>