<svg width="129" height="129" xmlns="http://www.w3.org/2000/svg" xmlns:xlink="http://www.w3.org/1999/xlink" xml:space="preserve" overflow="hidden"><defs><clipPath id="clip0"><rect x="447" y="0" width="129" height="129"/></clipPath></defs><g clip-path="url(#clip0)" transform="translate(-447 0)"><path d="M510.291 108.978 529.506 89.7625 556.784 111.934C557.322 112.472 558.263 112.338 558.8 111.8 559.338 111.263 559.338 110.456 558.934 109.784L536.763 82.6406 555.978 63.425C557.456 61.9469 557.859 59.7969 557.188 57.7812 556.516 55.7656 554.634 54.4219 552.619 54.2875 547.244 53.75 540.659 55.4969 533.941 59.125L505.453 36.2812C507.872 31.5781 508.947 26.3375 508.544 21.0969 508.006 17.3344 503.303 15.3187 500.75 17.8719L464.872 53.75C462.319 56.3031 464.334 61.0063 468.097 61.5438 473.337 61.9469 478.578 61.0063 483.281 58.4531L506.125 86.9406C502.497 93.6594 500.884 100.244 501.288 105.619 501.422 107.634 502.766 109.516 504.781 110.188 506.663 110.994 508.812 110.456 510.291 108.978Z" stroke="#FFFFFF" stroke-width="1.34375" fill="#672178"/></g></svg>