<?xml version="1.0" encoding="UTF-8"?><svg xmlns="http://www.w3.org/2000/svg" viewBox="0 0 128 128"><defs><style>.cls-1{fill:#eaa1c7;}.cls-2{fill:#662482;}.cls-3{fill:#e61b72;fill-rule:evenodd;}</style></defs><g id="cuadrobase"><g><rect class="cls-2" x="2" y="2" width="124" height="124" rx="22" ry="22"/><path class="cls-1" d="M104,4c11.03,0,20,8.97,20,20V104c0,11.03-8.97,20-20,20H24c-11.03,0-20-8.97-20-20V24C4,12.97,12.97,4,24,4H104m0-4H24C10.75,0,0,10.75,0,24V104c0,13.25,10.75,24,24,24H104c13.25,0,24-10.75,24-24V24c0-13.25-10.75-24-24-24h0Z"/></g></g><g id="figura"><g><path class="cls-3" d="M96.65,35.7H31.32c-1.64,0-2.97,1.33-2.97,2.97V103.07c0,1.64,1.33,2.97,2.97,2.97H96.65c1.64,0,2.97-1.33,2.97-2.97V38.67c0-1.64-1.33-2.97-2.97-2.97Zm-33.25,58c-14.54,0-26.33-11.79-26.33-26.33s11.79-26.33,26.33-26.33,26.32,11.79,26.32,26.33-11.79,26.33-26.32,26.33Z"/><path class="cls-3" d="M73.25,72.21c-6.86,0-9.81-7.52-9.81-9.72,0,2.2-4.46,9.72-10.88,9.72-5.89,0-9.19-7.5-9.19-9.69-.42,1.63-.56,3.29-.56,5.05,0,11.37,9.22,20.59,20.59,20.59s20.59-9.22,20.59-20.59c0-1.77-.23-3.49-.65-5.13,0,2.2-3.08,9.77-10.09,9.77Z"/><path class="cls-3" d="M99.63,19.54h0c-.01-1.64-1.33-2.97-2.97-2.97H31.33c-1.64,0-2.96,1.33-2.97,2.97l-.02,9.8H99.66l-.03-9.8Zm-22.89,7.46c-2.39,0-4.32-1.93-4.32-4.32s1.93-4.32,4.32-4.32,4.32,1.93,4.32,4.32-1.93,4.32-4.32,4.32Zm14.99,0c-2.38,0-4.32-1.93-4.32-4.32s1.94-4.32,4.32-4.32,4.32,1.93,4.32,4.32-1.94,4.32-4.32,4.32Z"/></g></g></svg>