<?xml version="1.0" encoding="UTF-8"?><svg xmlns="http://www.w3.org/2000/svg" viewBox="0 0 128 128"><defs><style>.cls-1{fill:#008d36;}.cls-2{fill:#d9d9d9;}.cls-3{fill:#93c01f;}</style></defs><g id="basecuadro"><g><rect class="cls-3" x="2" y="2" width="124" height="124" rx="22" ry="22"/><path class="cls-2" d="M104,4c11.03,0,20,8.97,20,20V104c0,11.03-8.97,20-20,20H24c-11.03,0-20-8.97-20-20V24C4,12.97,12.97,4,24,4H104M104,0H24C10.75,0,0,10.74,0,24V104C0,117.25,10.75,128,24,128H104c13.25,0,24-10.75,24-24V24C128,10.74,117.26,0,104,0h0Z"/></g></g><g id="figura"><path class="cls-1" d="M98.78,84.23v-31.86c0-22.46-14.49-40.67-37.27-39.11-20.67,1.42-32.58,19.1-32.58,39.82v31.15L6.65,113.9c3.44,6.52,10.72,10.17,17.51,10.06H103.79c5.75,0,14.37-2.25,18.17-11.39l-23.19-28.33Zm-11.17,20.34l-19.8-14.74,5.96,34.1h-20.64l5.85-33.96-19.3,15.31-12.02-5.82,35.83-22.96,35.82,22.96-11.71,5.11Z"/></g></svg>