<?xml version="1.0" encoding="UTF-8"?><svg xmlns="http://www.w3.org/2000/svg" viewBox="0 0 128 128"><defs><style>.cls-1{fill:#ffec00;}.cls-2,.cls-3{fill:#662482;}.cls-4{fill:#7a6a58;}.cls-3{fill-rule:evenodd;}</style></defs><g id="cuadrobase"><g><rect class="cls-1" x="2" y="2" width="124" height="124" rx="22" ry="22"/><path class="cls-4" d="M104,4c11.03,0,20,8.97,20,20V104c0,11.03-8.97,20-20,20H24c-11.03,0-20-8.97-20-20V24C4,12.97,12.97,4,24,4H104m0-4H24C10.75,0,0,10.75,0,24V104C0,117.25,10.75,128,24,128H104c13.25,0,24-10.75,24-24V24c0-13.25-10.75-24-24-24h0Z"/></g></g><g id="figura"><g><rect class="cls-2" x="34.46" y="89.79" width="59.08" height="5.75"/><polygon class="cls-3" points="88.47 69.41 79.11 69.41 69.33 16.75 58.68 16.75 48.89 69.41 39.53 69.41 39.53 85.91 88.47 85.91 88.47 69.41"/><path class="cls-3" d="M99.91,105.94v-5.44H28.09v5.44H4.02v.48c0,9.89,8.02,17.91,17.91,17.91H106.07c9.89,0,17.9-8.02,17.9-17.91v-.48h-24.07Z"/></g></g></svg>