<?xml version="1.0" encoding="UTF-8"?><svg id="iconoAGUA" xmlns="http://www.w3.org/2000/svg" viewBox="0 0 128 128"><defs><style>.cls-1{fill:#ffed00;}.cls-2{fill:#d60b52;}</style></defs><g><rect class="cls-2" x="2" y="2" width="124" height="124" rx="22" ry="22"/><path class="cls-1" d="M104,4c11.03,0,20,8.97,20,20V104c0,11.03-8.97,20-20,20H24c-11.03,0-20-8.97-20-20V24C4,12.97,12.97,4,24,4H104M104,0H24C10.74,0,0,10.75,0,24V104C0,117.25,10.74,128,24,128H104c13.25,0,24-10.75,24-24V24C128,10.75,117.25,0,104,0h0Z"/></g><path class="cls-1" d="M69.13,35.46c-.12-.09-.41-.3-.7-.51-4.22-3.01-6.32-7.19-6.48-12.31-.11-3.68,1.85-6.2,5.04-7.73,4.67-2.23,9.65-1.35,13.13,2.22,1.85,1.9,2.73,4.29,2.85,6.86,.09,2.06-.15,4.15-.5,6.19-.16,.93,.07,1.33,.75,1.82,2.13,1.54,4.33,3.03,6.31,4.75,4.46,3.88,7.79,8.64,10.32,13.98,.64,1.35,.73,1.36,2.09,.67q1.72-.88,2.8,.68c2.13,3.09,4.26,6.18,6.39,9.27,.71,1.03,.67,1.23-.42,1.91-1.73,1.09-3.46,2.17-5.2,3.25-.6,.37-.92,.79-.9,1.6,.07,2.52-2.19,4.02-4.51,3.01-.69-.3-1.19-.21-1.74,.22-.41,.32-.85,.59-1.29,.88q-1.49,1-2.6-.43c-.13-.17-.29-.32-.65-.39,.22,.58,.41,1.17,.67,1.73,.3,.67,.07,1.06-.58,1.29-.04,.01-.07,.02-.11,.03-2.29,.87-2.22,.85-1.62,3.22,.89,3.52,1.66,7.08,2.49,10.62,.97,4.11,1.96,8.22,2.93,12.34,.77,3.25,1.57,6.49,2.23,9.76,.1,.51-.3,1.32-.73,1.69-1.56,1.35-3.41,2.11-5.49,2.15-2.16,.05-4.31-.01-6.47,0-.65,0-1.26-.09-1.29-.88-.03-.87-.43-1.94,.8-2.39,.94-.35,1.89-.66,2.85-.95,.7-.21,.94-.54,.68-1.31-1.6-4.71-3.15-9.44-4.72-14.15-1.74-5.21-3.49-10.41-5.25-15.62-.1-.31-.24-.6-.49-1.21-.42,1.49-.78,2.66-1.08,3.85-1.33,5.21-2.66,10.42-3.98,15.63-1.25,4.96-2.49,9.93-3.71,14.89-.48,1.95-.72,2.16-2.71,2.15-3.05-.01-6.1,0-9.15-.02-.54,0-1.15,.14-1.31-.67-.23-1.12,.08-2.29,.79-2.53,1.02-.35,2.04-.68,3.08-.95,.98-.26,1.47-.8,1.62-1.84,.82-5.96,1.71-11.91,2.56-17.86,.6-4.19,1.18-8.38,1.78-12.57,.1-.68-.16-.93-.83-.97-2.16-.14-2.16-.16-2.16-2.3,0-3.87,0-7.74,0-11.61,0-.35-.03-.71-.06-1.3-.66,.54-1.14,.91-1.61,1.32-1.83,1.57-3.69,3.12-5.47,4.76-.39,.36-.73,1.12-.64,1.61,.32,1.74,.83,3.45,1.31,5.32,.57-.19,1.09-.35,1.58-.55,.65-.26,1.11-.17,1.45,.53,.95,1.97,1.95,3.93,2.95,5.87,.42,.8,.2,1.24-.64,1.49-.57,.17-1.1,.44-1.67,.63-1.3,.44-2.33,.93-2.54,2.63-.19,1.57-2.52,2.28-3.62,1.09-1.2-1.31-2.23-1.04-3.49-.4-.71,.36-1.42,.53-2.11-.32,.18,1.28,.35,2.56,.53,3.84,.55,3.71,1.11,7.42,1.66,11.13,.46,3.12,.87,6.25,1.4,9.37,.21,1.23-.22,1.82-1.32,2.3-2.63,1.15-5.22,2.4-8.21,1.97-.43-.06-1.06-.27-1.17-.56-.15-.4-.03-1.08,.24-1.42,.58-.71,1.32-1.3,2.03-1.89,.56-.47,.68-.98,.49-1.68-1.48-5.52-2.92-11.05-4.39-16.58-.08-.31-.24-.59-.51-1.22-.56,1.91-1.04,3.49-1.49,5.08-1.3,4.64-2.59,9.29-3.88,13.93-.31,1.11-.63,2.21-.95,3.32-.22,.77-.76,1.07-1.52,.99-2.85-.3-5.69-.57-8.53-.94-.41-.05-1.04-.56-1.06-.89-.04-.48,.23-1.2,.62-1.48,.89-.65,1.92-1.12,2.92-1.62,.69-.35,1.07-.82,1.16-1.62,.39-3.65,.84-7.3,1.26-10.96,.22-1.92,.4-3.84,.66-5.76,.12-.85,.03-1.39-1.01-1.35-1.01,.04-.99-.69-.93-1.39,.24-2.78,.5-5.55,.73-8.33,.07-.84,.08-1.68,.13-2.88-.52,.47-.78,.77-1.09,.98-1.64,1.08-3.28,2.15-4.94,3.18-.26,.16-.64,.13-.96,.23-.38,.11-.84,.16-1.11,.41-1.08,.98-2.82,1.14-3.74,.27-.98-.94-1.02-2.61,.14-3.69,1.24-1.16,2.7-2.08,4.01-3.16,1.72-1.42,3.58-2.73,5.03-4.38,2.99-3.4,4.72-7.42,4.88-12.03,.02-.56-.01-1.12,0-1.67,0-1.39,.38-1.9,1.71-2.4,.48-.18,.94-.4,1.62-.69-.4-.35-.64-.59-.91-.8-1.79-1.43-3.36-3.02-4.33-5.15-1.29-2.84-.89-5.46,1.04-7.81,2.06-2.51,4.82-3.7,8.05-3.59,3.86,.13,6.86,3.1,7.18,7.2,.16,2.03-.04,4.08,.02,6.12,.02,.57,.21,1.26,.57,1.68,2.17,2.5,4.42,4.93,6.61,7.4,.53,.59,.93,.62,1.59,.16,3.9-2.69,6.75-6.31,8.84-10.45,1.63-3.23,2.71-6.73,4.11-10.08,.46-1.09,1.17-2.08,1.84-3.24Zm-21.91,26.68c-.11,.03-.21,.05-.32,.08,.74,5.14,1.48,10.28,2.25,15.57,.98-.37,1.77-.54,2.4-.95,.38-.25,.73-.9,.7-1.34-.3-4.97-2.53-9.22-5.03-13.35Zm42.18-2.77c1.09-.66,1.95-1.24,2.86-1.71,.82-.42,.8-.9,.38-1.59-1.34-2.18-2.59-4.42-4.01-6.54-1.04-1.55-2.29-2.96-3.44-4.43-.12,.07-.25,.14-.37,.21,1.5,4.62,3.01,9.23,4.58,14.06Z"/></svg>