<?xml version="1.0" encoding="UTF-8"?><svg id="iconoAGUA" xmlns="http://www.w3.org/2000/svg" viewBox="0 0 128 128"><defs><style>.cls-1{fill:#fff;}.cls-2{fill:#ffed00;}.cls-3{fill:#29235c;}.cls-4{fill:#2d2e83;}</style></defs><g><rect class="cls-2" x="2" y="2" width="124" height="124" rx="22" ry="22"/><path class="cls-3" d="M104,4c11.03,0,20,8.97,20,20V104c0,11.03-8.97,20-20,20H24c-11.03,0-20-8.97-20-20V24C4,12.97,12.97,4,24,4H104M104,0H24C10.74,0,0,10.75,0,24V104C0,117.25,10.74,128,24,128H104c13.25,0,24-10.75,24-24V24C128,10.75,117.25,0,104,0h0Z"/></g><g><path class="cls-4" d="M111.26,52.56c-4.75-13.33,8.08-26.67,8.08-26.67l-14.97-17.69-12.6,7.44s-12.26-9.88-27.11-9.8c-.08,0-.15,0-.23,0-.08,0-.15,0-.23,0-14.85-.08-27.11,9.8-27.11,9.8l-12.6-7.44L9.52,25.9s12.83,13.33,8.08,26.67c-4.75,13.33-11.45,23.23-6.18,37.44,6.65,17.95,26.08,23.02,40.41,25.13,10.46,1.54,12.36,8.21,12.36,8.21h.49s1.9-6.67,12.36-8.21c14.32-2.11,33.75-7.18,40.41-25.13,5.27-14.21-1.43-24.11-6.18-37.44Z"/><path class="cls-4" d="M63.56,123.52c-.08-.26-1.95-6.29-11.83-7.74-14.28-2.1-34.06-7.04-40.92-25.55-4.32-11.66-.8-20.36,3.28-30.42,.97-2.39,1.97-4.87,2.9-7.46,4.56-12.79-7.81-25.87-7.94-26l-.41-.42L24.35,7.36l12.69,7.49c2.15-1.61,13.56-9.67,26.98-9.67,.06,0,.12,0,.18,0h.13s.2,.65,.2,.65v-.65s.14,0,.14,0c.06,0,.12,0,.18,0,13.41,0,24.82,8.06,26.97,9.67l12.69-7.49,15.71,18.56-.41,.42c-.13,.13-12.5,13.21-7.94,26,.93,2.6,1.93,5.07,2.9,7.46,4.08,10.07,7.6,18.76,3.28,30.42-6.86,18.51-26.64,23.45-40.92,25.55-9.87,1.45-11.75,7.49-11.83,7.74h-1.74Zm1.46-2.36c1.42-2.22,4.72-5.61,11.91-6.67,13.95-2.05,33.27-6.85,39.89-24.71,4.15-11.19,.71-19.67-3.27-29.48-.98-2.41-1.98-4.89-2.92-7.51-4.41-12.37,5.62-24.45,7.83-26.91l-14.25-16.84-12.51,7.39-.35-.28c-.12-.1-12.16-9.66-26.52-9.66-.06,0-.12,0-.17,0h-.33s-.13,0-.13,0c-14.51-.11-26.58,9.56-26.7,9.66l-.35,.28-12.51-7.39L10.39,25.88c2.21,2.45,12.23,14.54,7.83,26.91-.93,2.62-1.94,5.11-2.92,7.51-3.98,9.81-7.41,18.29-3.27,29.48,6.62,17.87,25.94,22.66,39.89,24.71,7.19,1.06,10.49,4.45,11.91,6.67h1.19Z"/></g><g><g><rect class="cls-1" x="42" y="97.51" width="47.01" height="6.95"/><rect class="cls-1" x="35.55" y="95.05" width="7.96" height="6.95"/><rect class="cls-1" x="86.71" y="94.81" width="7.96" height="6.95"/></g><path class="cls-1" d="M107.58,75.64l-20.1-11.62-6.26,2.86-2.92-5.82c2.57-4.59,4.65-8.76,5.88-11.34l8.17-4.21,9.96-5.25-1.99-3.63-35.26,17.61L29.79,36.63l-1.99,3.63,9.96,5.25,7.08,3.65c1.25,2.62,3.63,7.43,6.59,12.66l-2.54,5.05-6.26-2.86-20.1,11.62,8.89,12.83,4.05-4.05c3.07,2.16,6.92,3.52,11.26,3.52,4.74,0,10.04-1.6,15.5-5.47,.8-.57,1.61-1.26,2.42-2.04,.81,.78,1.62,1.47,2.42,2.04,5.45,3.87,10.76,5.47,15.5,5.47s8.59-1.49,11.74-3.85l4.39,4.39,8.89-12.83Zm-27.11-24c-1.12,2.22-2.53,4.94-4.14,7.83l-3.09-1.13-2.93-1.46,10.16-5.24Zm-15.83,25.25c-2.51-2.78-5.06-6.4-7.43-10.19l3.05-4.65,4.79-2.47,4.79,2.47,2.63,4c-2.49,4.01-5.18,7.89-7.83,10.83Zm-4.85-20.01l-2.93,1.46-3.77,1.38c-1.8-3.23-3.37-6.26-4.56-8.64l11.26,5.8Zm1,23.57c-9.73,6.91-18.15,5.84-23.55,2.21l7.43-7.43,7.85-1.36,3.2-4.88c2.3,3.58,4.75,6.99,7.2,9.68-.72,.68-1.43,1.29-2.13,1.79Zm7.71,0c-.7-.5-1.41-1.1-2.13-1.79,2.59-2.85,5.19-6.5,7.61-10.31l3.62,5.51,7.85,1.36,7.09,7.08c-5.38,3.9-14,5.26-24.03-1.87Z"/><rect class="cls-1" x="28.31" y="25.7" width="53.66" height="5.82" rx="2.77" ry="2.77"/><rect class="cls-1" x="51.39" y="35.55" width="26.11" height="5.82" rx="2.8" ry="2.8"/><rect class="cls-1" x="83.82" y="25.7" width="13.87" height="5.82" rx="2.8" ry="2.8"/></g></svg>