<svg width="128" height="128" xmlns="http://www.w3.org/2000/svg" xmlns:xlink="http://www.w3.org/1999/xlink" xml:space="preserve" overflow="hidden"><defs><clipPath id="clip0"><rect x="159" y="152" width="128" height="128"/></clipPath></defs><g clip-path="url(#clip0)" transform="translate(-159 -152)"><path d="M221.8 260.133 240.867 241.067 267.933 263.067C268.467 263.6 269.4 263.467 269.933 262.933 270.467 262.4 270.467 261.6 270.067 260.933L248.067 234 267.133 214.933C268.6 213.467 269 211.333 268.333 209.333 267.667 207.333 265.8 206 263.8 205.867 258.467 205.333 251.933 207.067 245.267 210.667L217 188C219.4 183.333 220.467 178.133 220.067 172.933 219.533 169.2 214.867 167.2 212.333 169.733L176.733 205.333C174.2 207.867 176.2 212.533 179.933 213.067 185.133 213.467 190.333 212.533 195 210L217.667 238.267C214.067 244.933 212.467 251.467 212.867 256.8 213 258.8 214.333 260.667 216.333 261.333 218.2 262.133 220.333 261.6 221.8 260.133Z" stroke="#FFFFFF" stroke-width="1.33333" fill="#677821"/></g></svg>