<svg width="129" height="129" xmlns="http://www.w3.org/2000/svg" xmlns:xlink="http://www.w3.org/1999/xlink" xml:space="preserve" overflow="hidden"><defs><clipPath id="clip0"><rect x="0" y="0" width="129" height="129"/></clipPath></defs><g clip-path="url(#clip0)"><path d="M63.2906 108.978 82.5062 89.7625 109.784 111.934C110.322 112.472 111.263 112.338 111.8 111.8 112.338 111.263 112.338 110.456 111.934 109.784L89.7625 82.6406 108.978 63.425C110.456 61.9469 110.859 59.7969 110.188 57.7812 109.516 55.7656 107.634 54.4219 105.619 54.2875 100.244 53.75 93.6594 55.4969 86.9406 59.125L58.4531 36.2812C60.8719 31.5781 61.9469 26.3375 61.5438 21.0969 61.0063 17.3344 56.3031 15.3187 53.75 17.8719L17.8719 53.75C15.3187 56.3031 17.3344 61.0063 21.0969 61.5438 26.3375 61.9469 31.5781 61.0063 36.2812 58.4531L59.125 86.9406C55.4969 93.6594 53.8844 100.244 54.2875 105.619 54.4219 107.634 55.7656 109.516 57.7812 110.188 59.6625 110.994 61.8125 110.456 63.2906 108.978Z" stroke="#FFFFFF" stroke-width="1.34375" fill="#445500"/></g></svg>