<svg width="129" height="129" xmlns="http://www.w3.org/2000/svg" xmlns:xlink="http://www.w3.org/1999/xlink" xml:space="preserve" overflow="hidden"><defs><clipPath id="clip0"><rect x="298" y="0" width="129" height="129"/></clipPath></defs><g clip-path="url(#clip0)" transform="translate(-298 0)"><path d="M361.291 108.978 380.506 89.7625 407.784 111.934C408.322 112.472 409.263 112.338 409.8 111.8 410.337 111.263 410.337 110.456 409.934 109.784L387.763 82.6406 406.978 63.425C408.456 61.9469 408.859 59.7969 408.188 57.7812 407.516 55.7656 405.634 54.4219 403.619 54.2875 398.244 53.75 391.659 55.4969 384.941 59.125L356.453 36.2812C358.872 31.5781 359.947 26.3375 359.544 21.0969 359.006 17.3344 354.303 15.3187 351.75 17.8719L315.872 53.75C313.319 56.3031 315.334 61.0063 319.097 61.5438 324.337 61.9469 329.578 61.0063 334.281 58.4531L357.125 86.9406C353.497 93.6594 351.884 100.244 352.288 105.619 352.422 107.634 353.766 109.516 355.781 110.188 357.663 110.994 359.812 110.456 361.291 108.978Z" stroke="#FFFFFF" stroke-width="1.34375" fill="#338000"/></g></svg>