<svg width="129" height="129" xmlns="http://www.w3.org/2000/svg" xmlns:xlink="http://www.w3.org/1999/xlink" xml:space="preserve" overflow="hidden"><defs><clipPath id="clip0"><rect x="915" y="280" width="129" height="129"/></clipPath></defs><g clip-path="url(#clip0)" transform="translate(-915 -280)"><path d="M978.291 388.978 997.506 369.763 1024.78 391.934C1025.32 392.472 1026.26 392.337 1026.8 391.8 1027.34 391.263 1027.34 390.456 1026.93 389.784L1004.76 362.641 1023.98 343.425C1025.46 341.947 1025.86 339.797 1025.19 337.781 1024.52 335.766 1022.63 334.422 1020.62 334.288 1015.24 333.75 1008.66 335.497 1001.94 339.125L973.453 316.281C975.872 311.578 976.947 306.337 976.544 301.097 976.006 297.334 971.303 295.319 968.75 297.872L932.872 333.75C930.319 336.303 932.334 341.006 936.097 341.544 941.338 341.947 946.578 341.006 951.281 338.453L974.125 366.941C970.497 373.659 968.884 380.244 969.287 385.619 969.422 387.634 970.766 389.516 972.781 390.188 974.662 390.994 976.812 390.456 978.291 388.978Z" stroke="#FFFFFF" stroke-width="1.34375" fill="#93AC93"/></g></svg>