<svg width="129" height="129" xmlns="http://www.w3.org/2000/svg" xmlns:xlink="http://www.w3.org/1999/xlink" xml:space="preserve" overflow="hidden"><defs><clipPath id="clip0"><rect x="766" y="546" width="129" height="129"/></clipPath></defs><g clip-path="url(#clip0)" transform="translate(-766 -546)"><path d="M829.291 654.978 848.506 635.763 875.784 657.934C876.322 658.472 877.263 658.338 877.8 657.8 878.338 657.263 878.338 656.456 877.934 655.784L855.763 628.641 874.978 609.425C876.456 607.947 876.859 605.797 876.188 603.781 875.516 601.766 873.634 600.422 871.619 600.287 866.244 599.75 859.659 601.497 852.941 605.125L824.453 582.281C826.872 577.578 827.947 572.338 827.544 567.097 827.006 563.334 822.303 561.319 819.75 563.872L783.872 599.75C781.319 602.303 783.334 607.006 787.097 607.544 792.338 607.947 797.578 607.006 802.281 604.453L825.125 632.941C821.497 639.659 819.884 646.244 820.287 651.619 820.422 653.634 821.766 655.516 823.781 656.188 825.662 656.994 827.812 656.456 829.291 654.978Z" stroke="#FFFFFF" stroke-width="1.34375" fill="#D7F4D7"/></g></svg>