<?xml version="1.0" encoding="UTF-8"?><svg xmlns="http://www.w3.org/2000/svg" viewBox="0 0 128 128"><defs><style>.cls-1{fill:#fff;}.cls-2{fill:#e84e1b;}.cls-3{fill:#35a8e0;fill-rule:evenodd;}</style></defs><g id="cuadrobase"><g><rect class="cls-1" x="2" y="2" width="124" height="124" rx="22" ry="22"/><path class="cls-2" d="M104,4c11.03,0,20,8.97,20,20V104c0,11.03-8.97,20-20,20H24c-11.03,0-20-8.97-20-20V24C4,12.97,12.97,4,24,4H104m0-4H24C10.75,0,0,10.75,0,24V104C0,117.25,10.75,128,24,128H104c13.25,0,24-10.75,24-24V24c0-13.25-10.75-24-24-24h0Z"/></g></g><g id="figura"><g><path class="cls-3" d="M86.82,22.28c4.66,7.04,7.38,15.49,7.38,24.56,0,24.63-19.96,44.59-44.59,44.59-7.95,0-15.41-2.09-21.88-5.74,7.98,12.06,21.66,20.02,37.21,20.02,24.63,0,44.59-19.96,44.59-44.59,0-16.67-9.16-31.2-22.71-38.85Z"/><polygon class="cls-3" points="46.33 53.27 35.6 58.91 37.65 46.96 28.96 38.49 40.96 36.74 46.33 25.87 51.7 36.74 63.71 38.49 55.02 46.96 57.07 58.91 46.33 53.27"/></g></g></svg>