<svg width="129" height="129" xmlns="http://www.w3.org/2000/svg" xmlns:xlink="http://www.w3.org/1999/xlink" xml:space="preserve" overflow="hidden"><defs><clipPath id="clip0"><rect x="468" y="548" width="129" height="129"/></clipPath></defs><g clip-path="url(#clip0)" transform="translate(-468 -548)"><path d="M531.291 656.978 550.506 637.763 577.784 659.934C578.322 660.472 579.263 660.338 579.8 659.8 580.338 659.263 580.338 658.456 579.934 657.784L557.763 630.641 576.978 611.425C578.456 609.947 578.859 607.797 578.188 605.781 577.516 603.766 575.634 602.422 573.619 602.287 568.244 601.75 561.659 603.497 554.941 607.125L526.453 584.281C528.872 579.578 529.947 574.338 529.544 569.097 529.006 565.334 524.303 563.319 521.75 565.872L485.872 601.75C483.319 604.303 485.334 609.006 489.097 609.544 494.337 609.947 499.578 609.006 504.281 606.453L527.125 634.941C523.497 641.659 521.884 648.244 522.287 653.619 522.422 655.634 523.766 657.516 525.781 658.188 527.662 658.994 529.812 658.456 531.291 656.978Z" stroke="#FFFFFF" stroke-width="1.34375" fill="#1D9EFF"/></g></svg>