<svg xmlns="http://www.w3.org/2000/svg" xmlns:xlink="http://www.w3.org/1999/xlink" width="129" height="129" overflow="hidden" xml:space="preserve"><defs><clipPath id="clip0"><rect width="129" height="129" x="617" y="280"/></clipPath></defs><g clip-path="url(#clip0)" transform="translate(-617 -280)"><path fill="#3551DB" stroke="#FFF" stroke-width="1.344" d="M680.291 388.978 699.506 369.763 726.784 391.934C727.322 392.472 728.263 392.337 728.8 391.8 729.338 391.263 729.338 390.456 728.934 389.784L706.763 362.641 725.978 343.425C727.456 341.947 727.859 339.797 727.188 337.781 726.516 335.766 724.634 334.422 722.619 334.288 717.244 333.75 710.659 335.497 703.941 339.125L675.453 316.281C677.872 311.578 678.947 306.337 678.544 301.097 678.006 297.334 673.303 295.319 670.75 297.872L634.872 333.75C632.319 336.303 634.334 341.006 638.097 341.544 643.338 341.947 648.578 341.006 653.281 338.453L676.125 366.941C672.497 373.659 670.884 380.244 671.287 385.619 671.422 387.634 672.766 389.516 674.781 390.188 676.662 390.994 678.812 390.456 680.291 388.978Z"/></g></svg>