<svg width="128" height="128" xmlns="http://www.w3.org/2000/svg" xmlns:xlink="http://www.w3.org/1999/xlink" xml:space="preserve" overflow="hidden"><defs><clipPath id="clip0"><rect x="457" y="152" width="128" height="128"/></clipPath></defs><g clip-path="url(#clip0)" transform="translate(-457 -152)"><path d="M519.8 260.133 538.867 241.067 565.933 263.067C566.467 263.6 567.4 263.467 567.933 262.933 568.467 262.4 568.467 261.6 568.067 260.933L546.067 234 565.133 214.933C566.6 213.467 567 211.333 566.333 209.333 565.667 207.333 563.8 206 561.8 205.867 556.467 205.333 549.933 207.067 543.267 210.667L515 188C517.4 183.333 518.467 178.133 518.067 172.933 517.533 169.2 512.867 167.2 510.333 169.733L474.733 205.333C472.2 207.867 474.2 212.533 477.933 213.067 483.133 213.467 488.333 212.533 493 210L515.667 238.267C512.067 244.933 510.467 251.467 510.867 256.8 511 258.8 512.333 260.667 514.333 261.333 516.2 262.133 518.333 261.6 519.8 260.133Z" stroke="#FFFFFF" stroke-width="1.33333" fill="#56C4FC"/></g></svg>