<svg xmlns="http://www.w3.org/2000/svg" xmlns:xlink="http://www.w3.org/1999/xlink" width="128" height="128" overflow="hidden" xml:space="preserve"><defs><clipPath id="clip0"><rect width="128" height="128" x="606" y="152"/></clipPath></defs><g clip-path="url(#clip0)" transform="translate(-606 -152)"><path fill="#6ECDFC" stroke="#FFF" stroke-width="1.333" d="M668.8 260.133 687.867 241.067 714.933 263.067C715.467 263.6 716.4 263.467 716.933 262.933 717.467 262.4 717.467 261.6 717.067 260.933L695.067 234 714.133 214.933C715.6 213.467 716 211.333 715.333 209.333 714.667 207.333 712.8 206 710.8 205.867 705.467 205.333 698.933 207.067 692.267 210.667L664 188C666.4 183.333 667.467 178.133 667.067 172.933 666.533 169.2 661.867 167.2 659.333 169.733L623.733 205.333C621.2 207.867 623.2 212.533 626.933 213.067 632.133 213.467 637.333 212.533 642 210L664.667 238.267C661.067 244.933 659.467 251.467 659.867 256.8 660 258.8 661.333 260.667 663.333 261.333 665.2 262.133 667.333 261.6 668.8 260.133Z"/></g></svg>