<svg width="128" height="128" xmlns="http://www.w3.org/2000/svg" xmlns:xlink="http://www.w3.org/1999/xlink" xml:space="preserve" overflow="hidden"><defs><clipPath id="clip0"><rect x="170" y="420" width="128" height="128"/></clipPath></defs><g clip-path="url(#clip0)" transform="translate(-170 -420)"><path d="M232.8 528.133 251.867 509.067 278.933 531.067C279.467 531.6 280.4 531.467 280.933 530.933 281.467 530.4 281.467 529.6 281.067 528.933L259.067 502 278.133 482.933C279.6 481.467 280 479.333 279.333 477.333 278.667 475.333 276.8 474 274.8 473.867 269.467 473.333 262.933 475.067 256.267 478.667L228 456C230.4 451.333 231.467 446.133 231.067 440.933 230.533 437.2 225.867 435.2 223.333 437.733L187.733 473.333C185.2 475.867 187.2 480.533 190.933 481.067 196.133 481.467 201.333 480.533 206 478L228.667 506.267C225.067 512.933 223.467 519.467 223.867 524.8 224 526.8 225.333 528.667 227.333 529.333 229.2 530.133 231.333 529.6 232.8 528.133Z" stroke="#FFFFFF" stroke-width="1.33333" fill="#016062"/></g></svg>