<svg width="129" height="129" xmlns="http://www.w3.org/2000/svg" xmlns:xlink="http://www.w3.org/1999/xlink" xml:space="preserve" overflow="hidden"><defs><clipPath id="clip0"><rect x="766" y="548" width="129" height="129"/></clipPath></defs><g clip-path="url(#clip0)" transform="translate(-766 -548)"><path d="M829.291 656.978 848.506 637.763 875.784 659.934C876.322 660.472 877.263 660.338 877.8 659.8 878.338 659.263 878.338 658.456 877.934 657.784L855.763 630.641 874.978 611.425C876.456 609.947 876.859 607.797 876.188 605.781 875.516 603.766 873.634 602.422 871.619 602.287 866.244 601.75 859.659 603.497 852.941 607.125L824.453 584.281C826.872 579.578 827.947 574.338 827.544 569.097 827.006 565.334 822.303 563.319 819.75 565.872L783.872 601.75C781.319 604.303 783.334 609.006 787.097 609.544 792.338 609.947 797.578 609.006 802.281 606.453L825.125 634.941C821.497 641.659 819.884 648.244 820.287 653.619 820.422 655.634 821.766 657.516 823.781 658.188 825.662 658.994 827.812 658.456 829.291 656.978Z" stroke="#FFFFFF" stroke-width="1.34375" fill="#6DC0FF"/></g></svg>