<?xml version="1.0" encoding="UTF-8"?><svg xmlns="http://www.w3.org/2000/svg" viewBox="0 0 128 128"><defs><style>.cls-1{fill:#008d36;}.cls-2{fill:#ffec00;}</style></defs><g id="cuadrobase"><g><rect class="cls-1" x="2" y="2" width="124" height="124" rx="22" ry="22"/><path class="cls-2" d="M104,4c11.03,0,20,8.97,20,20V104c0,11.03-8.97,20-20,20H24c-11.03,0-20-8.97-20-20V24C4,12.97,12.97,4,24,4H104m0-4H24C10.75,0,0,10.75,0,24V104c0,13.25,10.75,24,24,24H104c13.25,0,24-10.75,24-24V24c0-13.25-10.75-24-24-24h0Z"/></g></g><g id="figura"><path class="cls-2" d="M115.95,78.49l-16.36-44.36h1.91l.46-4.47c.03-.29-.04-.69-.32-.87-.19-.12-.41-.05-.58,0-.1,.03-.19,.06-.26,.06-3.4-.47-6.83-1.45-10.15-2.4-5.64-1.62-11.48-3.29-17.37-2.51-2.59,.34-4.53,1.27-5.92,2.82-.2,.2-.61,.61-.61,.61-.19,.19-.34,.27-.47,.24-.31-.07-.55-.8-.77-1.44l-.06-.18c-.47-1.53-.86-6.65-1.12-10.04q-.25-3.29-.45-3.29t-.45,3.29c-.26,3.39-.66,8.51-1.12,10.04l-.06,.18c-.21,.64-.46,1.37-.77,1.44-.12,.03-.28-.05-.47-.24,0,0-.41-.41-.61-.61-1.57-1.51-3.45-2.4-5.92-2.82-5.41-.91-10.65,.74-15.72,2.33-3.83,1.2-7.79,2.45-11.79,2.58-.08,0-.17-.03-.27-.06-.17-.06-.39-.12-.58,0-.28,.18-.35,.58-.32,.87l.46,4.47h1.77L11.74,78.28l.57,.21h-.87l-.02-.03-.12,.04,.03,.16-.11,.07c1.98,3.19,5.19,5.21,8.37,6.92,3.18,1.71,6.86,2.57,10.67,2.57,2.45,0,4.96-.36,7.42-1.09,4.72-1.4,8.38-4.76,12.02-8.38l.27-.27h-.82l-16.36-44.36h29.63l-2,58.29c-.03,1.01,.18,2.1,.39,3.15,.38,1.95,.75,3.8-.33,5.2-2.17,2.82-7.02,5.49-14.04,7.72-5.32,1.69-10.04,2.55-10.06,2.55v.31h55.01l.03-.31s-4.76-.86-10.06-2.55c-6.99-2.23-11.82-4.9-13.96-7.73-1.06-1.39-.67-3.22-.26-5.15,.23-1.07,.46-2.18,.43-3.21l-2-58.29h29.27l-16.28,44.15,.57,.21h-.87l-.02-.03-.12,.04,.03,.16-.11,.07c1.98,3.19,5.19,5.21,8.37,6.92,3.18,1.71,6.86,2.57,10.67,2.57,2.45,0,4.96-.36,7.42-1.09,4.72-1.4,8.38-4.76,12.02-8.38l.27-.27h-.82Zm-99.98,0l14.43-39.14,14.43,39.14H15.97Zm66.81,0l14.43-39.14,14.43,39.14h-28.86Z"/></g></svg>