<?xml version="1.0" encoding="UTF-8"?><svg xmlns="http://www.w3.org/2000/svg" viewBox="0 0 128 128"><defs><style>.cls-1{fill:#fff;}.cls-2{fill:#e84e1b;}.cls-3{fill:#35a8e0;}</style></defs><g id="basecuadro"><g><rect class="cls-1" x="2" y="2" width="124" height="124" rx="22" ry="22"/><path class="cls-2" d="M104,4c11.03,0,20,8.97,20,20V104c0,11.03-8.97,20-20,20H24c-11.03,0-20-8.97-20-20V24C4,12.97,12.97,4,24,4H104M104,0H24C10.75,0,0,10.74,0,24V104C0,117.25,10.75,128,24,128H104c13.25,0,24-10.75,24-24V24C128,10.74,117.26,0,104,0h0Z"/></g></g><g id="figura"><g><path class="cls-3" d="M38.84,108.38c0,5.01,4,9.07,8.92,9.07s8.92-4.06,8.92-9.07-8.92-15.56-8.92-15.56c0,0-8.92,10.55-8.92,15.56Z"/><path class="cls-3" d="M63.8,23.54h12.9c.36,2.31,2.47,4.09,5.05,4.09h.41c2.58,0,4.69-1.78,5.05-4.09h12.9c2.32,0,4.2-1.76,4.2-3.92v-1.06c0-2.17-1.88-3.92-4.2-3.92h-13.07c-.65-1.95-2.57-3.38-4.87-3.38h-.41c-2.3,0-4.23,1.43-4.87,3.38h-13.07c-2.32,0-4.2,1.76-4.2,3.92v1.06c0,2.17,1.88,3.92,4.2,3.92Z"/><path class="cls-3" d="M123.88,57.65h-30.29v-10.61c0-4.17-3.62-7.55-8.08-7.55h-7.11c-4.46,0-8.08,3.38-8.08,7.55v10.61h-13.56c-9.39,0-17.01,7.11-17.01,15.89v.17c0,.06,.01,.12,.02,.18h-.02v11.03h17.16v-9H123.88v-18.27Z"/></g></g></svg>