<?xml version="1.0" encoding="UTF-8"?><svg xmlns="http://www.w3.org/2000/svg" viewBox="0 0 128 128"><defs><style>.cls-1{fill:#eaa1c7;}.cls-2{fill:#ffec00;}.cls-3{fill:#662482;}</style></defs><g id="cuadrobase"><g><rect class="cls-1" x="2" y="2" width="124" height="124" rx="22" ry="22"/><path class="cls-3" d="M104,4c11.03,0,20,8.97,20,20V104c0,11.03-8.97,20-20,20H24c-11.03,0-20-8.97-20-20V24C4,12.97,12.97,4,24,4H104m0-4H24C10.75,0,0,10.75,0,24V104c0,13.25,10.75,24,24,24H104c13.25,0,24-10.75,24-24V24c0-13.25-10.75-24-24-24h0Z"/></g></g><g id="figura"><g><path class="cls-2" d="M20.37,77.66c.48,.86,1.16,.98,1.96,.5,.38-.23,.74-.52,1.07-.81,.7-.63,.72-1.1-.27-1.48-1.14-.43-2.28-.91-3.33-1.52-.47-.27-.96-.88-1.05-1.4-.33-1.92-.52-3.86-.7-5.8-.12-1.33-.59-1.76-2.31-1.72,.12,.53,.19,.96,.31,1.38,.2,.69,.47,1.36,.63,2.06,.25,1.11,.34,2.26,.67,3.34,.39,1.32,.27,2.38-.89,3.26-.86,.65-.68,1.53-.24,2.32,.5,.89,1.18,1.67,2.32,1.42,.31-.07,.63-.67,.7-1.07,.11-.69,.03-1.41,.03-2.44,.48,.85,.79,1.4,1.1,1.96Z"/><path class="cls-2" d="M17.06,72.87c-.6-1.89-1.36-3.73-2.12-5.56-.11-.25-.59-.52-.85-.49-.22,.03-.42,.49-.53,.8-.09,.26-.02,.56-.02,.85-.08,.03-.15,.05-.23,.08,.39,1.05,.75,2.11,1.19,3.14,.25,.59,.63,1.14,.99,1.68,.22,.33,.52,.62,.78,.92,.28-.48,.9-1.07,.79-1.42Z"/><path class="cls-2" d="M112.83,74.16c1.11-.39,2.16-.76,3.2-1.13-.02-.16-.04-.32-.06-.49-.75-.28-1.48-.61-2.25-.82-.99-.28-1.31-.87-1.04-1.84,.18-.63,.42-1.25,.51-1.89,.2-1.44,.43-3.11-1.07-3.86-1.25-.63-2.92-.25-4.2-1.37,.23,.94,.71,1.61,1.04,2.35,.25,.55,.31,1.19,.46,1.78-.57,.08-1.15,.25-1.72,.23-.81-.03-1.62-.31-2.42-.28-3.62,.12-7.24,.35-10.87,.46-2.07,.07-2.24-.14-2.63-2.21-.4-2.1-.74-2.66-2.85-2.98-2.58-.39-8.93-.23-11.48,.38-1.61,.38-3.29,.47-4.95,.6-.34,.03-1.01-.27-1.02-.45-.1-1.27-.24-8.32,0-9.55,.08-.41,1.28-.81,1.97-.83,1.92-.05,3.84,.24,5.76,.16,6.16-.26,12.32-.62,18.48-.94,2.45-.13,4.9-.37,7.35-.36,2.18,0,2.42-.16,2.45-2.38,.02-1.17-.49-1.55-1.54-1.49-1.67,.11-3.34,.27-5.02,.3-5.48,.1-10.97,.16-16.45,.2-.69,0-1.38-.12-2.06-.27-.3-.07-.55-.35-.82-.53,.33-.18,.64-.48,.98-.51,.56-.04,1.14,.13,1.71,.15,1.59,.07,3.19,.19,4.78,.13,4.37-.15,8.74-.4,13.11-.58,1.1-.05,2.22,.08,3.31,0,.38-.03,.96-.39,1.06-.71,.49-1.64-.43-2.84-2.11-2.8-3.06,.07-6.12,.27-9.18,.26-3.76,0-7.52-.17-11.27-.29-.48-.02-.98-.13-1.43-.32-.25-.1-.57-.45-.56-.67,0-.22,.36-.56,.61-.62,.5-.13,1.05-.15,1.58-.16,3.56-.05,7.11-.09,10.67-.12,1.87-.02,3.74-.03,5.61,0,1.47,.02,2.95,.2,4.41,.13,.55-.02,1.35-.4,1.57-.85,.62-1.23-.09-2.6-1.44-3.02-.78-.24-1.6-.44-2.4-.44-1.59,0-3.17,.14-4.76,.23-3.95,.22-7.93,.05-11.85,.89-1.38,.3-2.89,.05-4.31,.05-.1-1.96,.39-2.39,1.93-2.11,.96,.18,1.95,.38,2.91,.35,4.9-.15,9.79-.38,14.69-.59,1.06-.05,2.12-.15,3.18-.25,.78-.07,1.35-.36,1.31-1.28-.04-.95,.03-2.09-1.13-2.31-1.62-.3-3.29-.42-4.94-.42-1.79,0-3.58,.31-5.38,.38-2.9,.12-5.81,.13-8.71,.23-1.7,.06-3.39-1.32-5.16-1.22,0-1.35-.06-2.58,.02-3.79,.09-1.54,.26-3.07,.47-4.6,.24-1.78,.59-3.55,.82-5.33,.11-.85-.05-1.68-1.13-1.86-.97-.16-1.94-.95-2.91-1.1-.88-.13-1.43,.16-1.5,1.12-.03,.37-.11,.73-.14,1.1-.12,1.82-.09,3.67-.37,5.47-.26,1.67-.57,3.29,.03,4.95,.18,.49,.22,1.04,.3,1.56,.16,1.02-.33,1.56-1.32,1.65-.96,.09-1.93,.13-3.06,.2,.07-.85,.14-1.68,.21-2.52,.3-3.7-.12-7.45,.82-11.12,.27-1.03-.29-1.98-1.43-2.23-.83-.18-1.7-.18-2.55-.24-1.04-.07-1.51,.44-1.51,1.46,0,1.35-.02,2.7-.02,4.06,0,1.76,.12,3.53-.02,5.28-.13,1.68-.51,3.35-.83,5.02-.05,.26-.34,.59-.59,.68-2.11,.72-3.32-.19-3.27-2.41,0-.29,.02-.57,.05-.86,.25-2.32,.45-4.64,.77-6.94,.14-1.03,.39-2.09,.8-3.04,.73-1.68,.38-2.82-1.35-3.37-.8-.26-1.68-.31-2.53-.36-.22-.01-.64,.29-.68,.5-.43,2.28-.92,4.55-1.17,6.86-.29,2.64-.33,5.3-.52,7.94-.06,.84-.33,1.46-1.44,1.33-1.53-.18-1.98-.43-1.98-1.59,0-2.66,.12-5.3,.96-7.88,.52-1.58,.78-3.26,1-4.91,.21-1.56-.17-2.04-1.67-2.46-.46-.13-.97-.1-1.45-.17-1.08-.15-1.67,.93-1.91,2.02-.6,2.71-1.32,5.39-1.87,8.1-.27,1.35-.22,2.76-.4,4.13-.27,2.05-.87,3.9-2.89,3.57-1.89-.31-3.81-.59-5.72-.68-3.95-.18-7.91-.16-11.87-.35-2.62-.13-2.78-.05-2.75,2.57,0,.77,.25,1.28,1.04,1.4,1.57,.25,3.15,.66,4.72,.68,4.5,.04,8.99-.09,13.49-.14,.78,0,1.55,.02,2.33,.08,.79,.06,1.13,.49,1.1,1.31-.03,.77-.38,1.13-1.13,1.13-.57,0-1.14-.01-1.71-.03-3.3-.13-6.6-.29-9.91-.4-3.43-.11-6.86-.19-10.29-.26-.34,0-.96,.09-.98,.21-.14,.87-.29,1.79-.14,2.64,.05,.26,.99,.4,1.53,.54,.31,.08,.65,.04,.98,.06,3.96,.17,7.93,.6,11.85-.41,.31-.08,.65-.03,.97-.02,2.36,.05,4.72,.16,7.07,.12,1.03-.02,1.62,.14,1.75,1.29,.18,1.56,.06,1.87-1.25,2.12-.4,.07-.81,.08-1.22,.07-2.7-.07-5.4-.14-8.1-.24-4.53-.17-9.05-.38-13.58-.54-.41-.01-1.17,.15-1.19,.3-.12,.9-.22,1.87,.02,2.72,.1,.37,1.01,.73,1.56,.74,2.7,.05,5.4-.02,8.09-.06,4.57-.06,9.15-.12,13.72-.17,.28,0,.57,.05,.84,.12,.81,.21,1.09,.74,1.01,1.57-.08,.81-.61,1-1.27,1.03-.74,.03-1.47,.06-2.21,.05-6.54-.11-13.08-.26-19.62-.32-2.32-.02-2.75,.54-2.6,2.75,.06,.89,.48,1.34,1.38,1.37,2.94,.09,5.88,.25,8.82,.28,4.86,.05,9.73,0,14.6,.02,3.19,.02,6.38,.1,9.56,.14,.77,0,1.15,.26,1.29,1.11,.25,1.46,.52,8.62-.04,10.07-.12,.32-.04,.74,.03,1.09,.23,1.15-.4,1.99-1.56,1.79-1.55-.27-3.14-.57-4.59-1.16-2.37-.96-8.64-.76-11.01-.26-.29,.06-.75,.26-.79,.45-.2,1.23-.71,2.3-1.24,3.43-.81,1.74-1.06,3.76-1.44,5.68-.95,4.76-1.75,9.55-2.8,14.29-.67,3.05-1.6,6.06-2.55,9.04-.37,1.18-.63,2.53-1.86,3.43-.31-.42-.56-.73-.78-1.07-2.94-4.65-3.8-10.05-5.52-15.15-.05-.15-.07-.33-.06-.49,.16-2.02-.98-2.58-2.87-2.56-1.64,.02-1.98,.51-1.37,2.05,.53,1.33,1.19,2.61,1.69,3.94,1.45,3.86,2.61,7.84,4.35,11.56,1.12,2.4,2.97,4.48,4.67,6.57,1,1.23,2.08,.96,2.74-.51,.52-1.16,.95-2.36,1.31-3.57,2.22-7.52,4.43-15.05,6.61-22.59,.82-2.82,1.51-5.68,2.35-8.49,.1-.35,.75-.69,1.18-.75,.8-.12,5.58,.09,6.38-.05,1.28-.22,1.42,.36,1.37,1.42-.07,1.62,.01,3.25,.01,4.87,0,.96,.09,1.94-.1,2.86-.43,2.14-.65,4.24-.31,6.44,.24,1.51,.15,3.08,.07,4.62-.12,2.24-.37,4.46-.54,6.7-.07,.94-.13,1.88-.15,2.82-.07,3.34-.68,6.69,.29,10.01,.18,.61,.1,1.3,.08,1.95-.06,1.67-.13,3.34-.19,5h27.57c-.13-.95-.33-1.91-.08-2.74,.82-2.64,.24-5.16,0-7.75-.36-3.74-.74-7.5-.68-11.25,.1-7.28,.49-14.56,.79-21.85,.04-.89,.18-1.8,.41-2.66,.25-.94,.78-1.72,1.85-1.93,1.08-.2,5.34,.38,5.95,1.15,1.42,1.81,2.01,3.91,2.16,6.16,.26,4.02,.68,7.99,2.54,11.67,.32,.64,.56,1.41,.57,2.12,.04,2.75,.88,5.3,1.64,7.9,.81,2.74,1.9,5.43,1.58,8.38-.12,1.14-.21,2.28-.32,3.42-.09,.9,.27,1.41,1.13,1.77,3.2,1.33,4.35,.78,5.16-2.62,.09-.36,.14-.72,.19-1.08,.53-3.68,.76-7.43,1.65-11.02,1.03-4.15,2.59-8.17,3.99-12.22,.82-2.35,1.76-4.67,2.68-6.98,.22-.55,.49-1.1,1.35-.92,1.49,.31,1.76-.04,1.29-1.51-.08-.27-.16-.53-.26-.85Zm-56.42-28.74c-3.02-.04-5.43-2.52-5.4-5.57,.02-2.23,3.25-5.35,5.44-5.26,1.88,.08,5.19,3.34,5.18,5.09-.03,2.62-2.89,5.77-5.22,5.74Zm13.53,6.13c-2.53,.2-5.11,.23-7.63-.02-2.28-.23-3.57-1.98-3.34-4.15,.24-2.23,2.36-1.71,3.91-1.82,.51-.04,1.03,0,1.54,0,.01-.07,.02-.15,.03-.22,1.67,.22,3.35,.6,5.02,.62,1.74,.02,2.48,.72,2.62,2.41,.14,1.71-.4,3.05-2.15,3.19Zm1.21-16.53c2.28-1.05,6.27-.13,7.09,1.86,.61,1.5,1.13,3.53,.6,4.89-.75,1.9-2.69,3.1-5.05,2.92-4.13-.37-6.43-1.53-6.45-5.06-.02-2.7,1.84-3.71,3.82-4.62Zm35.65,40.41c-.44,2.51-.96,5.05-1.79,7.45-1.09,3.15-2.56,6.16-3.79,9.26-.51,1.29-1.63,.94-2.49,.96-.55,.01-1.39-.47-1.62-.96-.58-1.2-1.13-2.51-1.24-3.82-.27-3.29-.32-6.61-.41-9.91-.04-1.39,.61-2.81-.34-4.16-.09-.13,.54-1.03,.99-1.21,.61-.25,1.36-.17,2.05-.23,.01,.08,.03,.16,.04,.24,1.07-.2,2.15-.37,3.21-.63,.79-.19,1.32-.06,1.92,.59,.41,.45,1.22,.68,1.88,.73,1.6,.13,1.87,.18,1.6,1.69Z"/></g></g></svg>