<?xml version="1.0" encoding="UTF-8"?><svg xmlns="http://www.w3.org/2000/svg" viewBox="0 0 128 128"><defs><style>.cls-1{fill:#fff;}.cls-2{fill:#e84e1b;}.cls-3{fill:#35a8e0;}</style></defs><g id="cuadrobase"><g><rect class="cls-1" x="2" y="2" width="124" height="124" rx="22" ry="22"/><path class="cls-2" d="M104,4c11.03,0,20,8.97,20,20V104c0,11.03-8.97,20-20,20H24c-11.03,0-20-8.97-20-20V24C4,12.97,12.97,4,24,4H104m0-4H24C10.75,0,0,10.75,0,24V104c0,13.25,10.75,24,24,24H104c13.25,0,24-10.75,24-24V24c0-13.25-10.75-24-24-24h0Z"/></g></g><g id="figura"><path class="cls-3" d="M80.76,113.69s-.02,0-.03,0c0,0,0,0,.02,0h0s0,0,0,0h0ZM45.1,17.47c-7.27,0-12.26,3.68-16.29,8.01-18.13,19.47-3.62,36.58-1.9,38.46h0c5.09,5.6,7.4,9.6,8.55,14.74,.16,.73,.69,3.57,.73,4.57h0c1.22,28.84,10.3,30.31,10.69,30.34h0s0,0,.02,0h.05s.65,.1,.65,.1h0c.47,.15,.87,.21,1.21,.21,.65,0,1.1-.21,1.44-.42h0c3.69-2.27,5.36-12.68,6.45-19.44h0s0-.02,0-.03c.57-3.57,1.07-6.62,1.74-8.71h0c.58-1.81,2.24-6.83,5.94-6.83,.09,0,.19,0,.28,0h0c3.63,.31,5.67,5.69,5.88,7.15h0c.2,1.38,.35,3.16,.51,5.17l.02,.2h0s0,.02,0,.02h0c.69,8.59,1.74,21.94,9.12,22.59h0l.46,.09h0s.02,0,.02,.01h0s0,0-.01,0h.01s.02,0,.03,0c.02,0,.04,0,.06,0h0c.19-.01,.86-.07,1.8-.73h0c2.19-1.54,6.18-6.58,8.86-23.06h0s.34-2.22,.34-2.22h0c.87-5.99,2.2-14.95,7.86-20.91,5.02-5.27,10.53-18.67,7.88-30.16-1.74-7.55-6.72-12.89-14.77-15.87-2.72-1.01-7.02-1.86-11.3-1.86-4.45,0-8.93,.92-11.59,3.59-.04,.04-.05,.09-.05,.14,0,.05,.03,.1,.07,.12,3.13,2.07,6.46,4.54,10.01,7.45h0c.87,.72,1,2,.28,2.87h0c-.41,.49-.99,.74-1.58,.74-.46,0-.91-.15-1.3-.46h0c-14.3-11.74-24.51-15.87-32.21-15.87Z"/></g></svg>