<?xml version="1.0" encoding="UTF-8"?><svg xmlns="http://www.w3.org/2000/svg" viewBox="0 0 128 128"><defs><style>.cls-1{fill:#fff;}.cls-2{fill:#1d70b7;}.cls-3{fill:#35a8e0;}</style></defs><g id="cuadrobase"><g><rect class="cls-3" x="2" y="2" width="124" height="124" rx="22" ry="22"/><path class="cls-2" d="M104,4c11.03,0,20,8.97,20,20V104c0,11.03-8.97,20-20,20H24c-11.03,0-20-8.97-20-20V24C4,12.97,12.97,4,24,4H104m0-4H24C10.75,0,0,10.75,0,24V104c0,13.25,10.75,24,24,24H104c13.25,0,24-10.75,24-24V24c0-13.25-10.75-24-24-24h0Z"/></g></g><g id="figura"><path class="cls-1" d="M64,12.5c-26.45,0-47.89,19.53-47.89,39.63,0,15.95,30.15,48.62,42.61,62.77,2.87,3.26,7.69,3.26,10.57,0,12.46-14.15,42.61-46.81,42.61-62.77,0-20.11-21.44-39.63-47.89-39.63Zm-13.23,10.69c0-1.45,1.26-2.62,2.81-2.62h8.74c.43-1.31,1.72-2.26,3.26-2.26h.27c1.54,0,2.83,.95,3.26,2.26h8.74c1.55,0,2.81,1.17,2.81,2.62v.71c0,1.45-1.26,2.62-2.81,2.62h-8.62c-.24,1.55-1.65,2.74-3.38,2.74h-.27c-1.72,0-3.13-1.19-3.38-2.74h-8.62c-1.55,0-2.81-1.17-2.81-2.62v-.71Zm-7.92,62.08c-3.29,0-5.96-2.72-5.96-6.07s5.96-10.4,5.96-10.4c0,0,5.97,7.05,5.97,10.4s-2.67,6.07-5.97,6.07Zm50.88-23.73H48.97v6.02h-11.47v-7.37h.01s-.01-.08-.01-.12v-.12c0-5.87,5.09-10.62,11.37-10.62h9.07v-7.09c0-2.79,2.42-5.05,5.4-5.05h4.75c2.98,0,5.4,2.26,5.4,5.05v7.09h20.25v12.21Z"/></g></svg>