<svg width="128" height="128" xmlns="http://www.w3.org/2000/svg" xmlns:xlink="http://www.w3.org/1999/xlink" xml:space="preserve" overflow="hidden"><defs><clipPath id="clip0"><rect x="911" y="446" width="128" height="128"/></clipPath></defs><g clip-path="url(#clip0)" transform="translate(-911 -446)"><path d="M1002.52 465.681 1017.43 465.681C1019.14 465.681 1020.53 464.295 1020.53 462.584 1020.53 460.873 1019.14 459.487 1017.43 459.487L1017.17 459.487C1017.18 457.359 1015.46 455.628 1013.33 455.621 1012.88 455.62 1012.43 455.698 1012.01 455.851 1010.84 453.581 1008.05 452.69 1005.78 453.86 1004.26 454.645 1003.3 456.205 1003.28 457.916 1001.13 457.74 999.246 459.338 999.071 461.486 998.898 463.588 1000.43 465.446 1002.52 465.681Z" stroke="#FFFFFF" stroke-width="1.33333" fill="#4AF8FC"/><path d="M927.533 473.279 940.333 473.279C941.803 473.192 942.925 471.929 942.838 470.459 942.758 469.11 941.682 468.035 940.333 467.955L940.112 467.955C940.118 466.127 938.641 464.641 936.813 464.635 936.426 464.634 936.041 464.7 935.677 464.832 934.671 462.882 932.274 462.117 930.324 463.123 929.018 463.797 928.191 465.137 928.173 466.607 926.325 466.505 924.744 467.921 924.643 469.77 924.547 471.509 925.8 473.032 927.525 473.273Z" stroke="#FFFFFF" stroke-width="1.33333" fill="#4AF8FC"/><path d="M1023 491.092C1020.45 490.078 1017.74 489.505 1015 489.399 1012.26 489.505 1009.55 490.078 1007 491.092 1006.25 491.397 1005.49 491.65 1004.7 491.847L993.425 466.913C992.944 465.849 991.825 465.222 990.665 465.367L981.479 466.515 971.745 454.347C970.822 453.199 969.143 453.017 967.996 453.941 967.921 454.001 967.849 454.065 967.781 454.133L954.448 467.467C954.137 467.779 953.908 468.164 953.781 468.587L949.905 481.508 943.153 491.153C943.104 491.133 943.053 491.119 943.004 491.097 940.453 490.083 937.747 489.511 935.004 489.404 932.261 489.511 929.555 490.083 927.004 491.097 925.306 491.801 923.505 492.224 921.671 492.352L921.671 500.352C924.414 500.246 927.119 499.673 929.671 498.659 931.364 497.928 933.166 497.478 935.004 497.325 936.842 497.478 938.644 497.928 940.337 498.659 942.889 499.673 945.594 500.246 948.337 500.352 951.081 500.246 953.786 499.673 956.337 498.659 958.031 497.928 959.832 497.478 961.671 497.325 963.504 497.452 965.306 497.876 967.004 498.579 969.548 499.627 972.255 500.227 975.004 500.352 977.747 500.246 980.453 499.673 983.004 498.659 984.698 497.928 986.499 497.478 988.337 497.325 990.176 497.478 991.977 497.928 993.671 498.659 996.222 499.673 998.927 500.246 1001.67 500.352 1004.41 500.246 1007.12 499.673 1009.67 498.659 1011.36 497.928 1013.17 497.478 1015 497.325 1016.84 497.452 1018.64 497.876 1020.34 498.579 1022.88 499.627 1025.59 500.227 1028.34 500.352L1028.34 492.352C1026.5 492.223 1024.7 491.798 1023 491.092ZM988.333 489.399C985.59 489.505 982.885 490.078 980.333 491.092 978.635 491.795 976.834 492.219 975 492.347 973.166 492.219 971.365 491.795 969.667 491.092 967.115 490.078 964.41 489.505 961.667 489.399 958.923 489.505 956.218 490.078 953.667 491.092 952.134 491.724 950.517 492.128 948.867 492.292L954.523 484.215C954.685 483.981 954.81 483.723 954.892 483.451L958.699 470.761 969.263 460.197 981.472 480.5 989.387 470.915 998.891 491.921C998.018 491.713 997.163 491.435 996.333 491.092 993.782 490.078 991.077 489.505 988.333 489.399Z" stroke="#FFFFFF" stroke-width="1.33333" fill="#4AF8FC"/><path d="M1011.03 505.828C1009.66 506.111 1008.31 506.513 1007 507.028 1005.31 507.731 1003.5 508.155 1001.67 508.283 999.837 508.155 998.036 507.731 996.337 507.028 993.786 506.014 991.081 505.441 988.337 505.335 985.594 505.441 982.889 506.014 980.337 507.028 978.639 507.731 976.838 508.155 975.004 508.283 973.17 508.155 971.369 507.731 969.671 507.028 967.119 506.014 964.414 505.441 961.671 505.335 958.927 505.441 956.222 506.014 953.671 507.028 951.972 507.731 950.171 508.155 948.337 508.283 946.503 508.155 944.702 507.731 943.004 507.028 941.471 506.426 939.881 505.983 938.259 505.704L933.723 527.467C933.531 528.383 933.835 529.333 934.523 529.969L951.416 545.564 959.191 565.004C959.595 566.017 960.576 566.681 961.667 566.681 961.801 566.681 961.934 566.67 962.067 566.649L979.4 563.983C980.091 563.878 980.714 563.507 981.133 562.948L988.685 552.879 1001.32 547.823C1001.78 547.641 1002.17 547.339 1002.47 546.948L1018.47 525.615C1019.05 524.836 1019.16 523.801 1018.76 522.915Z" stroke="#FFFFFF" stroke-width="1.33333" fill="#4AF8FC"/></g></svg>