<svg width="128" height="128" xmlns="http://www.w3.org/2000/svg" xmlns:xlink="http://www.w3.org/1999/xlink" xml:space="preserve" overflow="hidden"><defs><clipPath id="clip0"><rect x="455" y="446" width="128" height="128"/></clipPath></defs><g clip-path="url(#clip0)" transform="translate(-455 -446)"><path d="M546.524 465.681 561.431 465.681C563.141 465.681 564.528 464.295 564.528 462.584 564.528 460.873 563.141 459.487 561.431 459.487L561.173 459.487C561.18 457.359 559.46 455.628 557.332 455.621 556.881 455.62 556.434 455.698 556.011 455.851 554.84 453.581 552.051 452.69 549.782 453.86 548.261 454.645 547.297 456.205 547.277 457.916 545.13 457.74 543.246 459.338 543.071 461.486 542.898 463.588 544.428 465.446 546.524 465.681Z" stroke="#FFFFFF" stroke-width="1.33333" fill="#03A7AB"/><path d="M471.533 473.279 484.333 473.279C485.803 473.192 486.925 471.929 486.838 470.459 486.758 469.11 485.682 468.035 484.333 467.955L484.112 467.955C484.118 466.127 482.641 464.641 480.813 464.635 480.426 464.634 480.041 464.7 479.677 464.832 478.671 462.882 476.274 462.117 474.324 463.123 473.018 463.797 472.191 465.137 472.173 466.607 470.325 466.505 468.744 467.921 468.643 469.77 468.547 471.509 469.8 473.032 471.525 473.273Z" stroke="#FFFFFF" stroke-width="1.33333" fill="#03A7AB"/><path d="M567 491.092C564.449 490.078 561.743 489.505 559 489.399 556.257 489.505 553.551 490.078 551 491.092 550.253 491.397 549.486 491.65 548.704 491.847L537.425 466.913C536.944 465.849 535.825 465.222 534.665 465.367L525.479 466.515 515.745 454.347C514.822 453.199 513.143 453.017 511.996 453.941 511.921 454.001 511.849 454.065 511.781 454.133L498.448 467.467C498.137 467.779 497.908 468.164 497.781 468.587L493.905 481.508 487.153 491.153C487.104 491.133 487.053 491.119 487.004 491.097 484.453 490.083 481.747 489.511 479.004 489.404 476.261 489.511 473.555 490.083 471.004 491.097 469.306 491.801 467.505 492.224 465.671 492.352L465.671 500.352C468.414 500.246 471.119 499.673 473.671 498.659 475.364 497.928 477.166 497.478 479.004 497.325 480.842 497.478 482.644 497.928 484.337 498.659 486.889 499.673 489.594 500.246 492.337 500.352 495.081 500.246 497.786 499.673 500.337 498.659 502.031 497.928 503.832 497.478 505.671 497.325 507.504 497.452 509.306 497.876 511.004 498.579 513.548 499.627 516.255 500.227 519.004 500.352 521.747 500.246 524.453 499.673 527.004 498.659 528.698 497.928 530.499 497.478 532.337 497.325 534.176 497.478 535.977 497.928 537.671 498.659 540.222 499.673 542.927 500.246 545.671 500.352 548.414 500.246 551.119 499.673 553.671 498.659 555.364 497.928 557.166 497.478 559.004 497.325 560.838 497.452 562.639 497.876 564.337 498.579 566.882 499.627 569.588 500.227 572.337 500.352L572.337 492.352C570.502 492.223 568.699 491.798 567 491.092ZM532.333 489.399C529.59 489.505 526.885 490.078 524.333 491.092 522.635 491.795 520.834 492.219 519 492.347 517.166 492.219 515.365 491.795 513.667 491.092 511.115 490.078 508.41 489.505 505.667 489.399 502.923 489.505 500.218 490.078 497.667 491.092 496.134 491.724 494.517 492.128 492.867 492.292L498.523 484.215C498.685 483.981 498.81 483.723 498.892 483.451L502.699 470.761 513.263 460.197 525.472 480.5 533.387 470.915 542.891 491.921C542.018 491.713 541.163 491.435 540.333 491.092 537.782 490.078 535.077 489.505 532.333 489.399Z" stroke="#FFFFFF" stroke-width="1.33333" fill="#03A7AB"/><path d="M555.033 505.828C553.658 506.111 552.31 506.513 551.004 507.028 549.306 507.731 547.505 508.155 545.671 508.283 543.837 508.155 542.036 507.731 540.337 507.028 537.786 506.014 535.081 505.441 532.337 505.335 529.594 505.441 526.889 506.014 524.337 507.028 522.639 507.731 520.838 508.155 519.004 508.283 517.17 508.155 515.369 507.731 513.671 507.028 511.119 506.014 508.414 505.441 505.671 505.335 502.927 505.441 500.222 506.014 497.671 507.028 495.972 507.731 494.171 508.155 492.337 508.283 490.503 508.155 488.702 507.731 487.004 507.028 485.471 506.426 483.881 505.983 482.259 505.704L477.723 527.467C477.531 528.383 477.835 529.333 478.523 529.969L495.416 545.564 503.191 565.004C503.595 566.017 504.576 566.681 505.667 566.681 505.801 566.681 505.934 566.67 506.067 566.649L523.4 563.983C524.091 563.878 524.714 563.507 525.133 562.948L532.685 552.879 545.324 547.823C545.778 547.641 546.173 547.339 546.467 546.948L562.467 525.615C563.051 524.836 563.164 523.801 562.763 522.915Z" stroke="#FFFFFF" stroke-width="1.33333" fill="#03A7AB"/></g></svg>