<svg width="128" height="128" xmlns="http://www.w3.org/2000/svg" xmlns:xlink="http://www.w3.org/1999/xlink" xml:space="preserve" overflow="hidden"><defs><clipPath id="clip0"><rect x="759" y="446" width="128" height="128"/></clipPath></defs><g clip-path="url(#clip0)" transform="translate(-759 -446)"><path d="M850.524 465.681 865.431 465.681C867.141 465.681 868.528 464.295 868.528 462.584 868.528 460.873 867.141 459.487 865.431 459.487L865.173 459.487C865.18 457.359 863.46 455.628 861.332 455.621 860.881 455.62 860.434 455.698 860.011 455.851 858.84 453.581 856.051 452.69 853.782 453.86 852.261 454.645 851.297 456.205 851.277 457.916 849.13 457.74 847.246 459.338 847.071 461.486 846.898 463.588 848.428 465.446 850.524 465.681Z" stroke="#FFFFFF" stroke-width="1.33333" fill="#03D6DB"/><path d="M775.533 473.279 788.333 473.279C789.803 473.192 790.925 471.929 790.838 470.459 790.758 469.11 789.682 468.035 788.333 467.955L788.112 467.955C788.118 466.127 786.641 464.641 784.813 464.635 784.426 464.634 784.041 464.7 783.677 464.832 782.671 462.882 780.274 462.117 778.324 463.123 777.018 463.797 776.191 465.137 776.173 466.607 774.325 466.505 772.744 467.921 772.643 469.77 772.547 471.509 773.8 473.032 775.525 473.273Z" stroke="#FFFFFF" stroke-width="1.33333" fill="#03D6DB"/><path d="M871 491.092C868.449 490.078 865.743 489.505 863 489.399 860.257 489.505 857.551 490.078 855 491.092 854.253 491.397 853.486 491.65 852.704 491.847L841.425 466.913C840.944 465.849 839.825 465.222 838.665 465.367L829.479 466.515 819.745 454.347C818.822 453.199 817.143 453.017 815.996 453.941 815.921 454.001 815.849 454.065 815.781 454.133L802.448 467.467C802.137 467.779 801.908 468.164 801.781 468.587L797.905 481.508 791.153 491.153C791.104 491.133 791.053 491.119 791.004 491.097 788.453 490.083 785.747 489.511 783.004 489.404 780.261 489.511 777.555 490.083 775.004 491.097 773.306 491.801 771.505 492.224 769.671 492.352L769.671 500.352C772.414 500.246 775.119 499.673 777.671 498.659 779.364 497.928 781.166 497.478 783.004 497.325 784.842 497.478 786.644 497.928 788.337 498.659 790.889 499.673 793.594 500.246 796.337 500.352 799.081 500.246 801.786 499.673 804.337 498.659 806.031 497.928 807.832 497.478 809.671 497.325 811.504 497.452 813.306 497.876 815.004 498.579 817.548 499.627 820.255 500.227 823.004 500.352 825.747 500.246 828.453 499.673 831.004 498.659 832.698 497.928 834.499 497.478 836.337 497.325 838.176 497.478 839.977 497.928 841.671 498.659 844.222 499.673 846.927 500.246 849.671 500.352 852.414 500.246 855.119 499.673 857.671 498.659 859.364 497.928 861.166 497.478 863.004 497.325 864.838 497.452 866.639 497.876 868.337 498.579 870.882 499.627 873.588 500.227 876.337 500.352L876.337 492.352C874.502 492.223 872.699 491.798 871 491.092ZM836.333 489.399C833.59 489.505 830.885 490.078 828.333 491.092 826.635 491.795 824.834 492.219 823 492.347 821.166 492.219 819.365 491.795 817.667 491.092 815.115 490.078 812.41 489.505 809.667 489.399 806.923 489.505 804.218 490.078 801.667 491.092 800.134 491.724 798.517 492.128 796.867 492.292L802.523 484.215C802.685 483.981 802.81 483.723 802.892 483.451L806.699 470.761 817.263 460.197 829.472 480.5 837.387 470.915 846.891 491.921C846.018 491.713 845.163 491.435 844.333 491.092 841.782 490.078 839.077 489.505 836.333 489.399Z" stroke="#FFFFFF" stroke-width="1.33333" fill="#03D6DB"/><path d="M859.033 505.828C857.658 506.111 856.31 506.513 855.004 507.028 853.306 507.731 851.505 508.155 849.671 508.283 847.837 508.155 846.036 507.731 844.337 507.028 841.786 506.014 839.081 505.441 836.337 505.335 833.594 505.441 830.889 506.014 828.337 507.028 826.639 507.731 824.838 508.155 823.004 508.283 821.17 508.155 819.369 507.731 817.671 507.028 815.119 506.014 812.414 505.441 809.671 505.335 806.927 505.441 804.222 506.014 801.671 507.028 799.972 507.731 798.171 508.155 796.337 508.283 794.503 508.155 792.702 507.731 791.004 507.028 789.471 506.426 787.881 505.983 786.259 505.704L781.723 527.467C781.531 528.383 781.835 529.333 782.523 529.969L799.416 545.564 807.191 565.004C807.595 566.017 808.576 566.681 809.667 566.681 809.801 566.681 809.934 566.67 810.067 566.649L827.4 563.983C828.091 563.878 828.714 563.507 829.133 562.948L836.685 552.879 849.324 547.823C849.778 547.641 850.173 547.339 850.467 546.948L866.467 525.615C867.051 524.836 867.164 523.801 866.763 522.915Z" stroke="#FFFFFF" stroke-width="1.33333" fill="#03D6DB"/></g></svg>