<svg width="128" height="128" xmlns="http://www.w3.org/2000/svg" xmlns:xlink="http://www.w3.org/1999/xlink" xml:space="preserve" overflow="hidden"><defs><clipPath id="clip0"><rect x="303" y="303" width="128" height="128"/></clipPath></defs><g clip-path="url(#clip0)" transform="translate(-303 -303)"><path d="M394.524 322.681 409.431 322.681C411.141 322.681 412.528 321.295 412.528 319.584 412.528 317.873 411.141 316.487 409.431 316.487L409.173 316.487C409.18 314.359 407.46 312.628 405.332 312.621 404.881 312.62 404.434 312.698 404.011 312.851 402.84 310.581 400.051 309.69 397.782 310.86 396.261 311.645 395.297 313.205 395.277 314.916 393.13 314.74 391.246 316.338 391.071 318.486 390.898 320.588 392.428 322.446 394.524 322.681Z" stroke="#FFFFFF" stroke-width="1.33333" fill="#021EA8"/><path d="M319.533 330.279 332.333 330.279C333.803 330.192 334.925 328.929 334.838 327.459 334.758 326.11 333.682 325.035 332.333 324.955L332.112 324.955C332.118 323.127 330.641 321.641 328.813 321.635 328.426 321.634 328.041 321.7 327.677 321.832 326.671 319.882 324.274 319.117 322.324 320.123 321.018 320.797 320.191 322.137 320.173 323.607 318.325 323.505 316.744 324.921 316.643 326.77 316.547 328.509 317.8 330.032 319.525 330.273Z" stroke="#FFFFFF" stroke-width="1.33333" fill="#021EA8"/><path d="M415 348.092C412.449 347.078 409.743 346.505 407 346.399 404.257 346.505 401.551 347.078 399 348.092 398.253 348.397 397.486 348.65 396.704 348.847L385.425 323.913C384.944 322.849 383.825 322.222 382.665 322.367L373.479 323.515 363.745 311.347C362.822 310.199 361.143 310.017 359.996 310.941 359.921 311.001 359.849 311.065 359.781 311.133L346.448 324.467C346.137 324.779 345.908 325.164 345.781 325.587L341.905 338.508 335.153 348.153C335.104 348.133 335.053 348.119 335.004 348.097 332.453 347.083 329.747 346.511 327.004 346.404 324.261 346.511 321.555 347.083 319.004 348.097 317.306 348.801 315.505 349.224 313.671 349.352L313.671 357.352C316.414 357.246 319.119 356.673 321.671 355.659 323.364 354.928 325.166 354.478 327.004 354.325 328.842 354.478 330.644 354.928 332.337 355.659 334.889 356.673 337.594 357.246 340.337 357.352 343.081 357.246 345.786 356.673 348.337 355.659 350.031 354.928 351.832 354.478 353.671 354.325 355.504 354.452 357.306 354.876 359.004 355.579 361.548 356.627 364.255 357.227 367.004 357.352 369.747 357.246 372.453 356.673 375.004 355.659 376.698 354.928 378.499 354.478 380.337 354.325 382.176 354.478 383.977 354.928 385.671 355.659 388.222 356.673 390.927 357.246 393.671 357.352 396.414 357.246 399.119 356.673 401.671 355.659 403.364 354.928 405.166 354.478 407.004 354.325 408.838 354.452 410.639 354.876 412.337 355.579 414.882 356.627 417.588 357.227 420.337 357.352L420.337 349.352C418.502 349.223 416.699 348.798 415 348.092ZM380.333 346.399C377.59 346.505 374.885 347.078 372.333 348.092 370.635 348.795 368.834 349.219 367 349.347 365.166 349.219 363.365 348.795 361.667 348.092 359.115 347.078 356.41 346.505 353.667 346.399 350.923 346.505 348.218 347.078 345.667 348.092 344.134 348.724 342.517 349.128 340.867 349.292L346.523 341.215C346.685 340.981 346.81 340.723 346.892 340.451L350.699 327.761 361.263 317.197 373.472 337.5 381.387 327.915 390.891 348.921C390.018 348.713 389.163 348.435 388.333 348.092 385.782 347.078 383.077 346.505 380.333 346.399Z" stroke="#FFFFFF" stroke-width="1.33333" fill="#021EA8"/><path d="M403.033 362.828C401.658 363.111 400.31 363.513 399.004 364.028 397.306 364.731 395.505 365.155 393.671 365.283 391.837 365.155 390.036 364.731 388.337 364.028 385.786 363.014 383.081 362.441 380.337 362.335 377.594 362.441 374.889 363.014 372.337 364.028 370.639 364.731 368.838 365.155 367.004 365.283 365.17 365.155 363.369 364.731 361.671 364.028 359.119 363.014 356.414 362.441 353.671 362.335 350.927 362.441 348.222 363.014 345.671 364.028 343.972 364.731 342.171 365.155 340.337 365.283 338.503 365.155 336.702 364.731 335.004 364.028 333.471 363.426 331.881 362.983 330.259 362.704L325.723 384.467C325.531 385.383 325.835 386.333 326.523 386.969L343.416 402.564 351.191 422.004C351.595 423.017 352.576 423.681 353.667 423.681 353.801 423.681 353.934 423.67 354.067 423.649L371.4 420.983C372.091 420.878 372.713 420.507 373.133 419.948L380.685 409.879 393.324 404.823C393.778 404.641 394.173 404.339 394.467 403.948L410.467 382.615C411.051 381.836 411.164 380.801 410.763 379.915Z" stroke="#FFFFFF" stroke-width="1.33333" fill="#021EA8"/></g></svg>