<svg width="128" height="128" xmlns="http://www.w3.org/2000/svg" xmlns:xlink="http://www.w3.org/1999/xlink" xml:space="preserve" overflow="hidden"><defs><clipPath id="clip0"><rect x="303" y="446" width="128" height="128"/></clipPath></defs><g clip-path="url(#clip0)" transform="translate(-303 -446)"><path d="M394.524 465.681 409.431 465.681C411.141 465.681 412.528 464.295 412.528 462.584 412.528 460.873 411.141 459.487 409.431 459.487L409.173 459.487C409.18 457.359 407.46 455.628 405.332 455.621 404.881 455.62 404.434 455.698 404.011 455.851 402.84 453.581 400.051 452.69 397.782 453.86 396.261 454.645 395.297 456.205 395.277 457.916 393.13 457.74 391.246 459.338 391.071 461.486 390.898 463.588 392.428 465.446 394.524 465.681Z" stroke="#FFFFFF" stroke-width="1.33333" fill="#02787B"/><path d="M319.533 473.279 332.333 473.279C333.803 473.192 334.925 471.929 334.838 470.459 334.758 469.11 333.682 468.035 332.333 467.955L332.112 467.955C332.118 466.127 330.641 464.641 328.813 464.635 328.426 464.634 328.041 464.7 327.677 464.832 326.671 462.882 324.274 462.117 322.324 463.123 321.018 463.797 320.191 465.137 320.173 466.607 318.325 466.505 316.744 467.921 316.643 469.77 316.547 471.509 317.8 473.032 319.525 473.273Z" stroke="#FFFFFF" stroke-width="1.33333" fill="#02787B"/><path d="M415 491.092C412.449 490.078 409.743 489.505 407 489.399 404.257 489.505 401.551 490.078 399 491.092 398.253 491.397 397.486 491.65 396.704 491.847L385.425 466.913C384.944 465.849 383.825 465.222 382.665 465.367L373.479 466.515 363.745 454.347C362.822 453.199 361.143 453.017 359.996 453.941 359.921 454.001 359.849 454.065 359.781 454.133L346.448 467.467C346.137 467.779 345.908 468.164 345.781 468.587L341.905 481.508 335.153 491.153C335.104 491.133 335.053 491.119 335.004 491.097 332.453 490.083 329.747 489.511 327.004 489.404 324.261 489.511 321.555 490.083 319.004 491.097 317.306 491.801 315.505 492.224 313.671 492.352L313.671 500.352C316.414 500.246 319.119 499.673 321.671 498.659 323.364 497.928 325.166 497.478 327.004 497.325 328.842 497.478 330.644 497.928 332.337 498.659 334.889 499.673 337.594 500.246 340.337 500.352 343.081 500.246 345.786 499.673 348.337 498.659 350.031 497.928 351.832 497.478 353.671 497.325 355.504 497.452 357.306 497.876 359.004 498.579 361.548 499.627 364.255 500.227 367.004 500.352 369.747 500.246 372.453 499.673 375.004 498.659 376.698 497.928 378.499 497.478 380.337 497.325 382.176 497.478 383.977 497.928 385.671 498.659 388.222 499.673 390.927 500.246 393.671 500.352 396.414 500.246 399.119 499.673 401.671 498.659 403.364 497.928 405.166 497.478 407.004 497.325 408.838 497.452 410.639 497.876 412.337 498.579 414.882 499.627 417.588 500.227 420.337 500.352L420.337 492.352C418.502 492.223 416.699 491.798 415 491.092ZM380.333 489.399C377.59 489.505 374.885 490.078 372.333 491.092 370.635 491.795 368.834 492.219 367 492.347 365.166 492.219 363.365 491.795 361.667 491.092 359.115 490.078 356.41 489.505 353.667 489.399 350.923 489.505 348.218 490.078 345.667 491.092 344.134 491.724 342.517 492.128 340.867 492.292L346.523 484.215C346.685 483.981 346.81 483.723 346.892 483.451L350.699 470.761 361.263 460.197 373.472 480.5 381.387 470.915 390.891 491.921C390.018 491.713 389.163 491.435 388.333 491.092 385.782 490.078 383.077 489.505 380.333 489.399Z" stroke="#FFFFFF" stroke-width="1.33333" fill="#02787B"/><path d="M403.033 505.828C401.658 506.111 400.31 506.513 399.004 507.028 397.306 507.731 395.505 508.155 393.671 508.283 391.837 508.155 390.036 507.731 388.337 507.028 385.786 506.014 383.081 505.441 380.337 505.335 377.594 505.441 374.889 506.014 372.337 507.028 370.639 507.731 368.838 508.155 367.004 508.283 365.17 508.155 363.369 507.731 361.671 507.028 359.119 506.014 356.414 505.441 353.671 505.335 350.927 505.441 348.222 506.014 345.671 507.028 343.972 507.731 342.171 508.155 340.337 508.283 338.503 508.155 336.702 507.731 335.004 507.028 333.471 506.426 331.881 505.983 330.259 505.704L325.723 527.467C325.531 528.383 325.835 529.333 326.523 529.969L343.416 545.564 351.191 565.004C351.595 566.017 352.576 566.681 353.667 566.681 353.801 566.681 353.934 566.67 354.067 566.649L371.4 563.983C372.091 563.878 372.713 563.507 373.133 562.948L380.685 552.879 393.324 547.823C393.778 547.641 394.173 547.339 394.467 546.948L410.467 525.615C411.051 524.836 411.164 523.801 410.763 522.915Z" stroke="#FFFFFF" stroke-width="1.33333" fill="#02787B"/></g></svg>