<svg width="128" height="129" xmlns="http://www.w3.org/2000/svg" xmlns:xlink="http://www.w3.org/1999/xlink" xml:space="preserve" overflow="hidden"><defs><clipPath id="clip0"><rect x="-1" y="0" width="128" height="129"/></clipPath></defs><g clip-path="url(#clip0)" transform="translate(1 0)"><path d="M91.524 19.6813 106.431 19.6813C108.141 19.6813 109.528 18.2947 109.528 16.584 109.528 14.8733 108.141 13.4867 106.431 13.4867L106.173 13.4867C106.18 11.3585 104.46 9.628 102.332 9.6214 101.881 9.62001 101.434 9.6976 101.011 9.85067 99.8401 7.58097 97.0512 6.68993 94.7816 7.86048 93.2607 8.64483 92.2973 10.2049 92.2773 11.916 90.1299 11.7401 88.2464 13.3384 88.0705 15.4859 87.8984 17.588 89.428 19.4463 91.524 19.6813Z" stroke="#FFFFFF" stroke-width="1.33333" fill="#01324A" transform="matrix(1 0 0 1.00781 -1 0)"/><path d="M16.5333 27.2787 29.3333 27.2787C30.8035 27.1916 31.9247 25.9292 31.8376 24.4589 31.7577 23.1104 30.682 22.0345 29.3333 21.9547L29.112 21.9547C29.1179 20.1269 27.6409 18.6407 25.8132 18.6348 25.426 18.6336 25.0415 18.7003 24.6773 18.832 23.6711 16.8819 21.2744 16.1168 19.3244 17.1231 18.0183 17.7971 17.1908 19.1371 17.1733 20.6067 15.3248 20.5051 13.744 21.9212 13.6425 23.7697 13.5469 25.5093 14.7999 27.0321 16.5253 27.2733Z" stroke="#FFFFFF" stroke-width="1.33333" fill="#01324A" transform="matrix(1 0 0 1.00781 -1 0)"/><path d="M112 45.092C109.449 44.0779 106.743 43.5052 104 43.3987 101.257 43.5052 98.5513 44.0777 96 45.092 95.2535 45.3975 94.4863 45.6497 93.704 45.8467L82.4253 20.9133C81.9436 19.8488 80.8248 19.2219 79.6653 19.3667L70.4787 20.5147 60.7453 8.34667C59.8221 7.19919 58.1435 7.01737 56.996 7.94057 56.9211 8.00091 56.8493 8.06525 56.7813 8.13333L43.448 21.4667C43.1371 21.7795 42.9081 22.1643 42.7813 22.5867L38.9053 35.508 32.1533 45.1533C32.104 45.1333 32.0533 45.1187 32.004 45.0973 29.4527 44.0832 26.7475 43.5105 24.004 43.404 21.2605 43.5105 18.5553 44.0831 16.004 45.0973 14.3056 45.8007 12.5045 46.2244 10.6707 46.352L10.6707 54.352C13.4141 54.2457 16.1195 53.6731 18.6707 52.6587 20.3644 51.928 22.1657 51.4777 24.004 51.3253 25.8423 51.4777 27.6436 51.928 29.3373 52.6587 31.8885 53.6731 34.5939 54.2457 37.3373 54.352 40.0808 54.2457 42.7861 53.6731 45.3373 52.6587 47.0311 51.928 48.8324 51.4777 50.6707 51.3253 52.5044 51.4524 54.3056 51.8757 56.004 52.5787 58.5484 53.6268 61.2551 54.2267 64.004 54.352 66.7475 54.2457 69.4528 53.6731 72.004 52.6587 73.6977 51.928 75.4991 51.4777 77.3373 51.3253 79.1756 51.4777 80.9769 51.928 82.6707 52.6587 85.2219 53.6731 87.9272 54.2457 90.6707 54.352 93.4141 54.2457 96.1195 53.6731 98.6707 52.6587 100.364 51.928 102.166 51.4777 104.004 51.3253 105.838 51.4524 107.639 51.8757 109.337 52.5787 111.882 53.6268 114.588 54.2267 117.337 54.352L117.337 46.352C115.502 46.2232 113.699 45.7976 112 45.092ZM77.3333 43.3987C74.5899 43.5052 71.8847 44.0777 69.3333 45.092 67.6349 45.7953 65.8339 46.2191 64 46.3467 62.1661 46.2191 60.3651 45.7953 58.6667 45.092 56.1153 44.0779 53.4101 43.5052 50.6667 43.3987 47.9232 43.5052 45.218 44.0777 42.6667 45.092 41.1337 45.724 39.5167 46.1283 37.8667 46.292L43.5227 38.2147C43.6851 37.9809 43.8096 37.7231 43.892 37.4507L47.6987 24.7613 58.2627 14.1973 70.472 34.5 78.3867 24.9147 87.8907 45.9213C87.0177 45.7128 86.1625 45.4355 85.3333 45.092 82.782 44.0779 80.0768 43.5052 77.3333 43.3987Z" stroke="#FFFFFF" stroke-width="1.33333" fill="#01324A" transform="matrix(1 0 0 1.00781 -1 0)"/><path d="M100.033 59.828C98.6581 60.1112 97.31 60.5127 96.004 61.028 94.3056 61.7313 92.5045 62.1551 90.6707 62.2827 88.8368 62.1551 87.0357 61.7313 85.3373 61.028 82.786 60.0139 80.0808 59.4412 77.3373 59.3347 74.5939 59.4412 71.8887 60.0137 69.3373 61.028 67.6389 61.7313 65.8379 62.1551 64.004 62.2827 62.1701 62.1551 60.3691 61.7313 58.6707 61.028 56.1193 60.0139 53.4141 59.4412 50.6707 59.3347 47.9272 59.4412 45.222 60.0137 42.6707 61.028 40.9723 61.7313 39.1712 62.1551 37.3373 62.2827 35.5035 62.1551 33.7024 61.7313 32.004 61.028 30.4715 60.4263 28.8813 59.9827 27.2587 59.704L22.7227 81.4667C22.5313 82.3835 22.8351 83.3335 23.5227 83.9693L40.416 99.564 48.1907 119.004C48.5953 120.017 49.576 120.681 50.6667 120.681 50.8007 120.681 50.9344 120.67 51.0667 120.649L68.4 117.983C69.0911 117.878 69.7135 117.507 70.1333 116.948L77.6853 106.879 90.324 101.823C90.7779 101.641 91.1731 101.339 91.4667 100.948L107.467 79.6147C108.051 78.8361 108.164 77.8012 107.763 76.9147Z" stroke="#FFFFFF" stroke-width="1.33333" fill="#01324A" transform="matrix(1 0 0 1.00781 -1 0)"/></g></svg>