<svg width="128" height="128" xmlns="http://www.w3.org/2000/svg" xmlns:xlink="http://www.w3.org/1999/xlink" xml:space="preserve" overflow="hidden"><defs><clipPath id="clip0"><rect x="151" y="446" width="128" height="128"/></clipPath></defs><g clip-path="url(#clip0)" transform="translate(-151 -446)"><path d="M242.524 465.681 257.431 465.681C259.141 465.681 260.528 464.295 260.528 462.584 260.528 460.873 259.141 459.487 257.431 459.487L257.173 459.487C257.18 457.359 255.46 455.628 253.332 455.621 252.881 455.62 252.434 455.698 252.011 455.851 250.84 453.581 248.051 452.69 245.782 453.86 244.261 454.645 243.297 456.205 243.277 457.916 241.13 457.74 239.246 459.338 239.071 461.486 238.898 463.588 240.428 465.446 242.524 465.681Z" stroke="#FFFFFF" stroke-width="1.33333" fill="#016062"/><path d="M167.533 473.279 180.333 473.279C181.803 473.192 182.925 471.929 182.838 470.459 182.758 469.11 181.682 468.035 180.333 467.955L180.112 467.955C180.118 466.127 178.641 464.641 176.813 464.635 176.426 464.634 176.041 464.7 175.677 464.832 174.671 462.882 172.274 462.117 170.324 463.123 169.018 463.797 168.191 465.137 168.173 466.607 166.325 466.505 164.744 467.921 164.643 469.77 164.547 471.509 165.8 473.032 167.525 473.273Z" stroke="#FFFFFF" stroke-width="1.33333" fill="#016062"/><path d="M263 491.092C260.449 490.078 257.743 489.505 255 489.399 252.257 489.505 249.551 490.078 247 491.092 246.253 491.397 245.486 491.65 244.704 491.847L233.425 466.913C232.944 465.849 231.825 465.222 230.665 465.367L221.479 466.515 211.745 454.347C210.822 453.199 209.143 453.017 207.996 453.941 207.921 454.001 207.849 454.065 207.781 454.133L194.448 467.467C194.137 467.779 193.908 468.164 193.781 468.587L189.905 481.508 183.153 491.153C183.104 491.133 183.053 491.119 183.004 491.097 180.453 490.083 177.747 489.511 175.004 489.404 172.261 489.511 169.555 490.083 167.004 491.097 165.306 491.801 163.505 492.224 161.671 492.352L161.671 500.352C164.414 500.246 167.119 499.673 169.671 498.659 171.364 497.928 173.166 497.478 175.004 497.325 176.842 497.478 178.644 497.928 180.337 498.659 182.889 499.673 185.594 500.246 188.337 500.352 191.081 500.246 193.786 499.673 196.337 498.659 198.031 497.928 199.832 497.478 201.671 497.325 203.504 497.452 205.306 497.876 207.004 498.579 209.548 499.627 212.255 500.227 215.004 500.352 217.747 500.246 220.453 499.673 223.004 498.659 224.698 497.928 226.499 497.478 228.337 497.325 230.176 497.478 231.977 497.928 233.671 498.659 236.222 499.673 238.927 500.246 241.671 500.352 244.414 500.246 247.119 499.673 249.671 498.659 251.364 497.928 253.166 497.478 255.004 497.325 256.838 497.452 258.639 497.876 260.337 498.579 262.882 499.627 265.588 500.227 268.337 500.352L268.337 492.352C266.502 492.223 264.699 491.798 263 491.092ZM228.333 489.399C225.59 489.505 222.885 490.078 220.333 491.092 218.635 491.795 216.834 492.219 215 492.347 213.166 492.219 211.365 491.795 209.667 491.092 207.115 490.078 204.41 489.505 201.667 489.399 198.923 489.505 196.218 490.078 193.667 491.092 192.134 491.724 190.517 492.128 188.867 492.292L194.523 484.215C194.685 483.981 194.81 483.723 194.892 483.451L198.699 470.761 209.263 460.197 221.472 480.5 229.387 470.915 238.891 491.921C238.018 491.713 237.163 491.435 236.333 491.092 233.782 490.078 231.077 489.505 228.333 489.399Z" stroke="#FFFFFF" stroke-width="1.33333" fill="#016062"/><path d="M251.033 505.828C249.658 506.111 248.31 506.513 247.004 507.028 245.306 507.731 243.505 508.155 241.671 508.283 239.837 508.155 238.036 507.731 236.337 507.028 233.786 506.014 231.081 505.441 228.337 505.335 225.594 505.441 222.889 506.014 220.337 507.028 218.639 507.731 216.838 508.155 215.004 508.283 213.17 508.155 211.369 507.731 209.671 507.028 207.119 506.014 204.414 505.441 201.671 505.335 198.927 505.441 196.222 506.014 193.671 507.028 191.972 507.731 190.171 508.155 188.337 508.283 186.503 508.155 184.702 507.731 183.004 507.028 181.471 506.426 179.881 505.983 178.259 505.704L173.723 527.467C173.531 528.383 173.835 529.333 174.523 529.969L191.416 545.564 199.191 565.004C199.595 566.017 200.576 566.681 201.667 566.681 201.801 566.681 201.934 566.67 202.067 566.649L219.4 563.983C220.091 563.878 220.713 563.507 221.133 562.948L228.685 552.879 241.324 547.823C241.778 547.641 242.173 547.339 242.467 546.948L258.467 525.615C259.051 524.836 259.164 523.801 258.763 522.915Z" stroke="#FFFFFF" stroke-width="1.33333" fill="#016062"/></g></svg>