<svg width="128" height="128" xmlns="http://www.w3.org/2000/svg" xmlns:xlink="http://www.w3.org/1999/xlink" xml:space="preserve" overflow="hidden"><defs><clipPath id="clip0"><rect x="759" y="303" width="128" height="128"/></clipPath></defs><g clip-path="url(#clip0)" transform="translate(-759 -303)"><path d="M850.524 322.681 865.431 322.681C867.141 322.681 868.528 321.295 868.528 319.584 868.528 317.873 867.141 316.487 865.431 316.487L865.173 316.487C865.18 314.359 863.46 312.628 861.332 312.621 860.881 312.62 860.434 312.698 860.011 312.851 858.84 310.581 856.051 309.69 853.782 310.86 852.261 311.645 851.297 313.205 851.277 314.916 849.13 314.74 847.246 316.338 847.071 318.486 846.898 320.588 848.428 322.446 850.524 322.681Z" stroke="#FFFFFF" stroke-width="1.33333" fill="#677CE4"/><path d="M775.533 330.279 788.333 330.279C789.803 330.192 790.925 328.929 790.838 327.459 790.758 326.11 789.682 325.035 788.333 324.955L788.112 324.955C788.118 323.127 786.641 321.641 784.813 321.635 784.426 321.634 784.041 321.7 783.677 321.832 782.671 319.882 780.274 319.117 778.324 320.123 777.018 320.797 776.191 322.137 776.173 323.607 774.325 323.505 772.744 324.921 772.643 326.77 772.547 328.509 773.8 330.032 775.525 330.273Z" stroke="#FFFFFF" stroke-width="1.33333" fill="#677CE4"/><path d="M871 348.092C868.449 347.078 865.743 346.505 863 346.399 860.257 346.505 857.551 347.078 855 348.092 854.253 348.397 853.486 348.65 852.704 348.847L841.425 323.913C840.944 322.849 839.825 322.222 838.665 322.367L829.479 323.515 819.745 311.347C818.822 310.199 817.143 310.017 815.996 310.941 815.921 311.001 815.849 311.065 815.781 311.133L802.448 324.467C802.137 324.779 801.908 325.164 801.781 325.587L797.905 338.508 791.153 348.153C791.104 348.133 791.053 348.119 791.004 348.097 788.453 347.083 785.747 346.511 783.004 346.404 780.261 346.511 777.555 347.083 775.004 348.097 773.306 348.801 771.505 349.224 769.671 349.352L769.671 357.352C772.414 357.246 775.119 356.673 777.671 355.659 779.364 354.928 781.166 354.478 783.004 354.325 784.842 354.478 786.644 354.928 788.337 355.659 790.889 356.673 793.594 357.246 796.337 357.352 799.081 357.246 801.786 356.673 804.337 355.659 806.031 354.928 807.832 354.478 809.671 354.325 811.504 354.452 813.306 354.876 815.004 355.579 817.548 356.627 820.255 357.227 823.004 357.352 825.747 357.246 828.453 356.673 831.004 355.659 832.698 354.928 834.499 354.478 836.337 354.325 838.176 354.478 839.977 354.928 841.671 355.659 844.222 356.673 846.927 357.246 849.671 357.352 852.414 357.246 855.119 356.673 857.671 355.659 859.364 354.928 861.166 354.478 863.004 354.325 864.838 354.452 866.639 354.876 868.337 355.579 870.882 356.627 873.588 357.227 876.337 357.352L876.337 349.352C874.502 349.223 872.699 348.798 871 348.092ZM836.333 346.399C833.59 346.505 830.885 347.078 828.333 348.092 826.635 348.795 824.834 349.219 823 349.347 821.166 349.219 819.365 348.795 817.667 348.092 815.115 347.078 812.41 346.505 809.667 346.399 806.923 346.505 804.218 347.078 801.667 348.092 800.134 348.724 798.517 349.128 796.867 349.292L802.523 341.215C802.685 340.981 802.81 340.723 802.892 340.451L806.699 327.761 817.263 317.197 829.472 337.5 837.387 327.915 846.891 348.921C846.018 348.713 845.163 348.435 844.333 348.092 841.782 347.078 839.077 346.505 836.333 346.399Z" stroke="#FFFFFF" stroke-width="1.33333" fill="#677CE4"/><path d="M859.033 362.828C857.658 363.111 856.31 363.513 855.004 364.028 853.306 364.731 851.505 365.155 849.671 365.283 847.837 365.155 846.036 364.731 844.337 364.028 841.786 363.014 839.081 362.441 836.337 362.335 833.594 362.441 830.889 363.014 828.337 364.028 826.639 364.731 824.838 365.155 823.004 365.283 821.17 365.155 819.369 364.731 817.671 364.028 815.119 363.014 812.414 362.441 809.671 362.335 806.927 362.441 804.222 363.014 801.671 364.028 799.972 364.731 798.171 365.155 796.337 365.283 794.503 365.155 792.702 364.731 791.004 364.028 789.471 363.426 787.881 362.983 786.259 362.704L781.723 384.467C781.531 385.383 781.835 386.333 782.523 386.969L799.416 402.564 807.191 422.004C807.595 423.017 808.576 423.681 809.667 423.681 809.801 423.681 809.934 423.67 810.067 423.649L827.4 420.983C828.091 420.878 828.714 420.507 829.133 419.948L836.685 409.879 849.324 404.823C849.778 404.641 850.173 404.339 850.467 403.948L866.467 382.615C867.051 381.836 867.164 380.801 866.763 379.915Z" stroke="#FFFFFF" stroke-width="1.33333" fill="#677CE4"/></g></svg>