<svg width="128" height="128" xmlns="http://www.w3.org/2000/svg" xmlns:xlink="http://www.w3.org/1999/xlink" xml:space="preserve" overflow="hidden"><defs><clipPath id="clip0"><rect x="607" y="303" width="128" height="128"/></clipPath></defs><g clip-path="url(#clip0)" transform="translate(-607 -303)"><path d="M698.524 322.681 713.431 322.681C715.141 322.681 716.528 321.295 716.528 319.584 716.528 317.873 715.141 316.487 713.431 316.487L713.173 316.487C713.18 314.359 711.46 312.628 709.332 312.621 708.881 312.62 708.434 312.698 708.011 312.851 706.84 310.581 704.051 309.69 701.782 310.86 700.261 311.645 699.297 313.205 699.277 314.916 697.13 314.74 695.246 316.338 695.071 318.486 694.898 320.588 696.428 322.446 698.524 322.681Z" stroke="#FFFFFF" stroke-width="1.33333" fill="#3551DB"/><path d="M623.533 330.279 636.333 330.279C637.803 330.192 638.925 328.929 638.838 327.459 638.758 326.11 637.682 325.035 636.333 324.955L636.112 324.955C636.118 323.127 634.641 321.641 632.813 321.635 632.426 321.634 632.041 321.7 631.677 321.832 630.671 319.882 628.274 319.117 626.324 320.123 625.018 320.797 624.191 322.137 624.173 323.607 622.325 323.505 620.744 324.921 620.643 326.77 620.547 328.509 621.8 330.032 623.525 330.273Z" stroke="#FFFFFF" stroke-width="1.33333" fill="#3551DB"/><path d="M719 348.092C716.449 347.078 713.743 346.505 711 346.399 708.257 346.505 705.551 347.078 703 348.092 702.253 348.397 701.486 348.65 700.704 348.847L689.425 323.913C688.944 322.849 687.825 322.222 686.665 322.367L677.479 323.515 667.745 311.347C666.822 310.199 665.143 310.017 663.996 310.941 663.921 311.001 663.849 311.065 663.781 311.133L650.448 324.467C650.137 324.779 649.908 325.164 649.781 325.587L645.905 338.508 639.153 348.153C639.104 348.133 639.053 348.119 639.004 348.097 636.453 347.083 633.747 346.511 631.004 346.404 628.261 346.511 625.555 347.083 623.004 348.097 621.306 348.801 619.505 349.224 617.671 349.352L617.671 357.352C620.414 357.246 623.119 356.673 625.671 355.659 627.364 354.928 629.166 354.478 631.004 354.325 632.842 354.478 634.644 354.928 636.337 355.659 638.889 356.673 641.594 357.246 644.337 357.352 647.081 357.246 649.786 356.673 652.337 355.659 654.031 354.928 655.832 354.478 657.671 354.325 659.504 354.452 661.306 354.876 663.004 355.579 665.548 356.627 668.255 357.227 671.004 357.352 673.747 357.246 676.453 356.673 679.004 355.659 680.698 354.928 682.499 354.478 684.337 354.325 686.176 354.478 687.977 354.928 689.671 355.659 692.222 356.673 694.927 357.246 697.671 357.352 700.414 357.246 703.119 356.673 705.671 355.659 707.364 354.928 709.166 354.478 711.004 354.325 712.838 354.452 714.639 354.876 716.337 355.579 718.882 356.627 721.588 357.227 724.337 357.352L724.337 349.352C722.502 349.223 720.699 348.798 719 348.092ZM684.333 346.399C681.59 346.505 678.885 347.078 676.333 348.092 674.635 348.795 672.834 349.219 671 349.347 669.166 349.219 667.365 348.795 665.667 348.092 663.115 347.078 660.41 346.505 657.667 346.399 654.923 346.505 652.218 347.078 649.667 348.092 648.134 348.724 646.517 349.128 644.867 349.292L650.523 341.215C650.685 340.981 650.81 340.723 650.892 340.451L654.699 327.761 665.263 317.197 677.472 337.5 685.387 327.915 694.891 348.921C694.018 348.713 693.163 348.435 692.333 348.092 689.782 347.078 687.077 346.505 684.333 346.399Z" stroke="#FFFFFF" stroke-width="1.33333" fill="#3551DB"/><path d="M707.033 362.828C705.658 363.111 704.31 363.513 703.004 364.028 701.306 364.731 699.505 365.155 697.671 365.283 695.837 365.155 694.036 364.731 692.337 364.028 689.786 363.014 687.081 362.441 684.337 362.335 681.594 362.441 678.889 363.014 676.337 364.028 674.639 364.731 672.838 365.155 671.004 365.283 669.17 365.155 667.369 364.731 665.671 364.028 663.119 363.014 660.414 362.441 657.671 362.335 654.927 362.441 652.222 363.014 649.671 364.028 647.972 364.731 646.171 365.155 644.337 365.283 642.503 365.155 640.702 364.731 639.004 364.028 637.471 363.426 635.881 362.983 634.259 362.704L629.723 384.467C629.531 385.383 629.835 386.333 630.523 386.969L647.416 402.564 655.191 422.004C655.595 423.017 656.576 423.681 657.667 423.681 657.801 423.681 657.934 423.67 658.067 423.649L675.4 420.983C676.091 420.878 676.714 420.507 677.133 419.948L684.685 409.879 697.324 404.823C697.778 404.641 698.173 404.339 698.467 403.948L714.467 382.615C715.051 381.836 715.164 380.801 714.763 379.915Z" stroke="#FFFFFF" stroke-width="1.33333" fill="#3551DB"/></g></svg>