<svg width="128" height="128" xmlns="http://www.w3.org/2000/svg" xmlns:xlink="http://www.w3.org/1999/xlink" xml:space="preserve" overflow="hidden"><defs><clipPath id="clip0"><rect x="-1" y="303" width="128" height="128"/></clipPath></defs><g clip-path="url(#clip0)" transform="translate(1 -303)"><path d="M90.524 322.681 105.431 322.681C107.141 322.681 108.528 321.295 108.528 319.584 108.528 317.873 107.141 316.487 105.431 316.487L105.173 316.487C105.18 314.359 103.46 312.628 101.332 312.621 100.881 312.62 100.434 312.698 100.011 312.851 98.8401 310.581 96.0512 309.69 93.7816 310.86 92.2607 311.645 91.2973 313.205 91.2773 314.916 89.1299 314.74 87.2464 316.338 87.0705 318.486 86.8984 320.588 88.428 322.446 90.524 322.681Z" stroke="#FFFFFF" stroke-width="1.33333" fill="#011369"/><path d="M15.5333 330.279 28.3333 330.279C29.8035 330.192 30.9247 328.929 30.8376 327.459 30.7577 326.11 29.682 325.035 28.3333 324.955L28.112 324.955C28.1179 323.127 26.6409 321.641 24.8132 321.635 24.426 321.634 24.0415 321.7 23.6773 321.832 22.6711 319.882 20.2744 319.117 18.3244 320.123 17.0183 320.797 16.1908 322.137 16.1733 323.607 14.3248 323.505 12.744 324.921 12.6425 326.77 12.5469 328.509 13.7999 330.032 15.5253 330.273Z" stroke="#FFFFFF" stroke-width="1.33333" fill="#011369"/><path d="M111 348.092C108.449 347.078 105.743 346.505 103 346.399 100.257 346.505 97.5513 347.078 95 348.092 94.2535 348.397 93.4863 348.65 92.704 348.847L81.4253 323.913C80.9436 322.849 79.8248 322.222 78.6653 322.367L69.4787 323.515 59.7453 311.347C58.8221 310.199 57.1435 310.017 55.996 310.941 55.9211 311.001 55.8493 311.065 55.7813 311.133L42.448 324.467C42.1371 324.779 41.9081 325.164 41.7813 325.587L37.9053 338.508 31.1533 348.153C31.104 348.133 31.0533 348.119 31.004 348.097 28.4527 347.083 25.7475 346.511 23.004 346.404 20.2605 346.511 17.5553 347.083 15.004 348.097 13.3056 348.801 11.5045 349.224 9.67067 349.352L9.67067 357.352C12.4141 357.246 15.1195 356.673 17.6707 355.659 19.3644 354.928 21.1657 354.478 23.004 354.325 24.8423 354.478 26.6436 354.928 28.3373 355.659 30.8885 356.673 33.5939 357.246 36.3373 357.352 39.0808 357.246 41.7861 356.673 44.3373 355.659 46.0311 354.928 47.8324 354.478 49.6707 354.325 51.5044 354.452 53.3056 354.876 55.004 355.579 57.5484 356.627 60.2551 357.227 63.004 357.352 65.7475 357.246 68.4528 356.673 71.004 355.659 72.6977 354.928 74.4991 354.478 76.3373 354.325 78.1756 354.478 79.9769 354.928 81.6707 355.659 84.2219 356.673 86.9272 357.246 89.6707 357.352 92.4141 357.246 95.1195 356.673 97.6707 355.659 99.3644 354.928 101.166 354.478 103.004 354.325 104.838 354.452 106.639 354.876 108.337 355.579 110.882 356.627 113.588 357.227 116.337 357.352L116.337 349.352C114.502 349.223 112.699 348.798 111 348.092ZM76.3333 346.399C73.5899 346.505 70.8847 347.078 68.3333 348.092 66.6349 348.795 64.8339 349.219 63 349.347 61.1661 349.219 59.3651 348.795 57.6667 348.092 55.1153 347.078 52.4101 346.505 49.6667 346.399 46.9232 346.505 44.218 347.078 41.6667 348.092 40.1337 348.724 38.5167 349.128 36.8667 349.292L42.5227 341.215C42.6851 340.981 42.8096 340.723 42.892 340.451L46.6987 327.761 57.2627 317.197 69.472 337.5 77.3867 327.915 86.8907 348.921C86.0177 348.713 85.1625 348.435 84.3333 348.092 81.782 347.078 79.0768 346.505 76.3333 346.399Z" stroke="#FFFFFF" stroke-width="1.33333" fill="#011369"/><path d="M99.0333 362.828C97.6581 363.111 96.31 363.513 95.004 364.028 93.3056 364.731 91.5045 365.155 89.6707 365.283 87.8368 365.155 86.0357 364.731 84.3373 364.028 81.786 363.014 79.0808 362.441 76.3373 362.335 73.5939 362.441 70.8887 363.014 68.3373 364.028 66.6389 364.731 64.8379 365.155 63.004 365.283 61.1701 365.155 59.3691 364.731 57.6707 364.028 55.1193 363.014 52.4141 362.441 49.6707 362.335 46.9272 362.441 44.222 363.014 41.6707 364.028 39.9723 364.731 38.1712 365.155 36.3373 365.283 34.5035 365.155 32.7024 364.731 31.004 364.028 29.4715 363.426 27.8813 362.983 26.2587 362.704L21.7227 384.467C21.5313 385.383 21.8351 386.333 22.5227 386.969L39.416 402.564 47.1907 422.004C47.5953 423.017 48.576 423.681 49.6667 423.681 49.8007 423.681 49.9344 423.67 50.0667 423.649L67.4 420.983C68.0911 420.878 68.7135 420.507 69.1333 419.948L76.6853 409.879 89.324 404.823C89.7779 404.641 90.1731 404.339 90.4667 403.948L106.467 382.615C107.051 381.836 107.164 380.801 106.763 379.915Z" stroke="#FFFFFF" stroke-width="1.33333" fill="#011369"/></g></svg>