<svg width="128" height="128" xmlns="http://www.w3.org/2000/svg" xmlns:xlink="http://www.w3.org/1999/xlink" xml:space="preserve" overflow="hidden"><defs><clipPath id="clip0"><rect x="607" y="446" width="128" height="128"/></clipPath></defs><g clip-path="url(#clip0)" transform="translate(-607 -446)"><path d="M698.524 465.681 713.431 465.681C715.141 465.681 716.528 464.295 716.528 462.584 716.528 460.873 715.141 459.487 713.431 459.487L713.173 459.487C713.18 457.359 711.46 455.628 709.332 455.621 708.881 455.62 708.434 455.698 708.011 455.851 706.84 453.581 704.051 452.69 701.782 453.86 700.261 454.645 699.297 456.205 699.277 457.916 697.13 457.74 695.246 459.338 695.071 461.486 694.898 463.588 696.428 465.446 698.524 465.681Z" stroke="#FFFFFF" stroke-width="1.33333" fill="#03C0C5"/><path d="M623.533 473.279 636.333 473.279C637.803 473.192 638.925 471.929 638.838 470.459 638.758 469.11 637.682 468.035 636.333 467.955L636.112 467.955C636.118 466.127 634.641 464.641 632.813 464.635 632.426 464.634 632.041 464.7 631.677 464.832 630.671 462.882 628.274 462.117 626.324 463.123 625.018 463.797 624.191 465.137 624.173 466.607 622.325 466.505 620.744 467.921 620.643 469.77 620.547 471.509 621.8 473.032 623.525 473.273Z" stroke="#FFFFFF" stroke-width="1.33333" fill="#03C0C5"/><path d="M719 491.092C716.449 490.078 713.743 489.505 711 489.399 708.257 489.505 705.551 490.078 703 491.092 702.253 491.397 701.486 491.65 700.704 491.847L689.425 466.913C688.944 465.849 687.825 465.222 686.665 465.367L677.479 466.515 667.745 454.347C666.822 453.199 665.143 453.017 663.996 453.941 663.921 454.001 663.849 454.065 663.781 454.133L650.448 467.467C650.137 467.779 649.908 468.164 649.781 468.587L645.905 481.508 639.153 491.153C639.104 491.133 639.053 491.119 639.004 491.097 636.453 490.083 633.747 489.511 631.004 489.404 628.261 489.511 625.555 490.083 623.004 491.097 621.306 491.801 619.505 492.224 617.671 492.352L617.671 500.352C620.414 500.246 623.119 499.673 625.671 498.659 627.364 497.928 629.166 497.478 631.004 497.325 632.842 497.478 634.644 497.928 636.337 498.659 638.889 499.673 641.594 500.246 644.337 500.352 647.081 500.246 649.786 499.673 652.337 498.659 654.031 497.928 655.832 497.478 657.671 497.325 659.504 497.452 661.306 497.876 663.004 498.579 665.548 499.627 668.255 500.227 671.004 500.352 673.747 500.246 676.453 499.673 679.004 498.659 680.698 497.928 682.499 497.478 684.337 497.325 686.176 497.478 687.977 497.928 689.671 498.659 692.222 499.673 694.927 500.246 697.671 500.352 700.414 500.246 703.119 499.673 705.671 498.659 707.364 497.928 709.166 497.478 711.004 497.325 712.838 497.452 714.639 497.876 716.337 498.579 718.882 499.627 721.588 500.227 724.337 500.352L724.337 492.352C722.502 492.223 720.699 491.798 719 491.092ZM684.333 489.399C681.59 489.505 678.885 490.078 676.333 491.092 674.635 491.795 672.834 492.219 671 492.347 669.166 492.219 667.365 491.795 665.667 491.092 663.115 490.078 660.41 489.505 657.667 489.399 654.923 489.505 652.218 490.078 649.667 491.092 648.134 491.724 646.517 492.128 644.867 492.292L650.523 484.215C650.685 483.981 650.81 483.723 650.892 483.451L654.699 470.761 665.263 460.197 677.472 480.5 685.387 470.915 694.891 491.921C694.018 491.713 693.163 491.435 692.333 491.092 689.782 490.078 687.077 489.505 684.333 489.399Z" stroke="#FFFFFF" stroke-width="1.33333" fill="#03C0C5"/><path d="M707.033 505.828C705.658 506.111 704.31 506.513 703.004 507.028 701.306 507.731 699.505 508.155 697.671 508.283 695.837 508.155 694.036 507.731 692.337 507.028 689.786 506.014 687.081 505.441 684.337 505.335 681.594 505.441 678.889 506.014 676.337 507.028 674.639 507.731 672.838 508.155 671.004 508.283 669.17 508.155 667.369 507.731 665.671 507.028 663.119 506.014 660.414 505.441 657.671 505.335 654.927 505.441 652.222 506.014 649.671 507.028 647.972 507.731 646.171 508.155 644.337 508.283 642.503 508.155 640.702 507.731 639.004 507.028 637.471 506.426 635.881 505.983 634.259 505.704L629.723 527.467C629.531 528.383 629.835 529.333 630.523 529.969L647.416 545.564 655.191 565.004C655.595 566.017 656.576 566.681 657.667 566.681 657.801 566.681 657.934 566.67 658.067 566.649L675.4 563.983C676.091 563.878 676.714 563.507 677.133 562.948L684.685 552.879 697.324 547.823C697.778 547.641 698.173 547.339 698.467 546.948L714.467 525.615C715.051 524.836 715.164 523.801 714.763 522.915Z" stroke="#FFFFFF" stroke-width="1.33333" fill="#03C0C5"/></g></svg>