<svg width="128" height="128" xmlns="http://www.w3.org/2000/svg" xmlns:xlink="http://www.w3.org/1999/xlink" xml:space="preserve" overflow="hidden"><defs><clipPath id="clip0"><rect x="1063" y="446" width="128" height="128"/></clipPath></defs><g clip-path="url(#clip0)" transform="translate(-1063 -446)"><path d="M1154.52 465.681 1169.43 465.681C1171.14 465.681 1172.53 464.295 1172.53 462.584 1172.53 460.873 1171.14 459.487 1169.43 459.487L1169.17 459.487C1169.18 457.359 1167.46 455.628 1165.33 455.621 1164.88 455.62 1164.43 455.698 1164.01 455.851 1162.84 453.581 1160.05 452.69 1157.78 453.86 1156.26 454.645 1155.3 456.205 1155.28 457.916 1153.13 457.74 1151.25 459.338 1151.07 461.486 1150.9 463.588 1152.43 465.446 1154.52 465.681Z" stroke="#FFFFFF" stroke-width="1.33333" fill="#A8FCFE"/><path d="M1079.53 473.279 1092.33 473.279C1093.8 473.192 1094.92 471.929 1094.84 470.459 1094.76 469.11 1093.68 468.035 1092.33 467.955L1092.11 467.955C1092.12 466.127 1090.64 464.641 1088.81 464.635 1088.43 464.634 1088.04 464.7 1087.68 464.832 1086.67 462.882 1084.27 462.117 1082.32 463.123 1081.02 463.797 1080.19 465.137 1080.17 466.607 1078.32 466.505 1076.74 467.921 1076.64 469.77 1076.55 471.509 1077.8 473.032 1079.53 473.273Z" stroke="#FFFFFF" stroke-width="1.33333" fill="#A8FCFE"/><path d="M1175 491.092C1172.45 490.078 1169.74 489.505 1167 489.399 1164.26 489.505 1161.55 490.078 1159 491.092 1158.25 491.397 1157.49 491.65 1156.7 491.847L1145.43 466.913C1144.94 465.849 1143.82 465.222 1142.67 465.367L1133.48 466.515 1123.75 454.347C1122.82 453.199 1121.14 453.017 1120 453.941 1119.92 454.001 1119.85 454.065 1119.78 454.133L1106.45 467.467C1106.14 467.779 1105.91 468.164 1105.78 468.587L1101.91 481.508 1095.15 491.153C1095.1 491.133 1095.05 491.119 1095 491.097 1092.45 490.083 1089.75 489.511 1087 489.404 1084.26 489.511 1081.56 490.083 1079 491.097 1077.31 491.801 1075.5 492.224 1073.67 492.352L1073.67 500.352C1076.41 500.246 1079.12 499.673 1081.67 498.659 1083.36 497.928 1085.17 497.478 1087 497.325 1088.84 497.478 1090.64 497.928 1092.34 498.659 1094.89 499.673 1097.59 500.246 1100.34 500.352 1103.08 500.246 1105.79 499.673 1108.34 498.659 1110.03 497.928 1111.83 497.478 1113.67 497.325 1115.5 497.452 1117.31 497.876 1119 498.579 1121.55 499.627 1124.26 500.227 1127 500.352 1129.75 500.246 1132.45 499.673 1135 498.659 1136.7 497.928 1138.5 497.478 1140.34 497.325 1142.18 497.478 1143.98 497.928 1145.67 498.659 1148.22 499.673 1150.93 500.246 1153.67 500.352 1156.41 500.246 1159.12 499.673 1161.67 498.659 1163.36 497.928 1165.17 497.478 1167 497.325 1168.84 497.452 1170.64 497.876 1172.34 498.579 1174.88 499.627 1177.59 500.227 1180.34 500.352L1180.34 492.352C1178.5 492.223 1176.7 491.798 1175 491.092ZM1140.33 489.399C1137.59 489.505 1134.88 490.078 1132.33 491.092 1130.63 491.795 1128.83 492.219 1127 492.347 1125.17 492.219 1123.37 491.795 1121.67 491.092 1119.12 490.078 1116.41 489.505 1113.67 489.399 1110.92 489.505 1108.22 490.078 1105.67 491.092 1104.13 491.724 1102.52 492.128 1100.87 492.292L1106.52 484.215C1106.69 483.981 1106.81 483.723 1106.89 483.451L1110.7 470.761 1121.26 460.197 1133.47 480.5 1141.39 470.915 1150.89 491.921C1150.02 491.713 1149.16 491.435 1148.33 491.092 1145.78 490.078 1143.08 489.505 1140.33 489.399Z" stroke="#FFFFFF" stroke-width="1.33333" fill="#A8FCFE"/><path d="M1163.03 505.828C1161.66 506.111 1160.31 506.513 1159 507.028 1157.31 507.731 1155.5 508.155 1153.67 508.283 1151.84 508.155 1150.04 507.731 1148.34 507.028 1145.79 506.014 1143.08 505.441 1140.34 505.335 1137.59 505.441 1134.89 506.014 1132.34 507.028 1130.64 507.731 1128.84 508.155 1127 508.283 1125.17 508.155 1123.37 507.731 1121.67 507.028 1119.12 506.014 1116.41 505.441 1113.67 505.335 1110.93 505.441 1108.22 506.014 1105.67 507.028 1103.97 507.731 1102.17 508.155 1100.34 508.283 1098.5 508.155 1096.7 507.731 1095 507.028 1093.47 506.426 1091.88 505.983 1090.26 505.704L1085.72 527.467C1085.53 528.383 1085.84 529.333 1086.52 529.969L1103.42 545.564 1111.19 565.004C1111.6 566.017 1112.58 566.681 1113.67 566.681 1113.8 566.681 1113.93 566.67 1114.07 566.649L1131.4 563.983C1132.09 563.878 1132.71 563.507 1133.13 562.948L1140.69 552.879 1153.32 547.823C1153.78 547.641 1154.17 547.339 1154.47 546.948L1170.47 525.615C1171.05 524.836 1171.16 523.801 1170.76 522.915Z" stroke="#FFFFFF" stroke-width="1.33333" fill="#A8FCFE"/></g></svg>