<svg width="128" height="128" xmlns="http://www.w3.org/2000/svg" xmlns:xlink="http://www.w3.org/1999/xlink" xml:space="preserve" overflow="hidden"><defs><clipPath id="clip0"><rect x="-1" y="446" width="128" height="128"/></clipPath></defs><g clip-path="url(#clip0)" transform="translate(1 -446)"><path d="M90.524 465.681 105.431 465.681C107.141 465.681 108.528 464.295 108.528 462.584 108.528 460.873 107.141 459.487 105.431 459.487L105.173 459.487C105.18 457.359 103.46 455.628 101.332 455.621 100.881 455.62 100.434 455.698 100.011 455.851 98.8401 453.581 96.0512 452.69 93.7816 453.86 92.2607 454.645 91.2973 456.205 91.2773 457.916 89.1299 457.74 87.2464 459.338 87.0705 461.486 86.8984 463.588 88.428 465.446 90.524 465.681Z" stroke="#FFFFFF" stroke-width="1.33333" fill="#003031"/><path d="M15.5333 473.279 28.3333 473.279C29.8035 473.192 30.9247 471.929 30.8376 470.459 30.7577 469.11 29.682 468.035 28.3333 467.955L28.112 467.955C28.1179 466.127 26.6409 464.641 24.8132 464.635 24.426 464.634 24.0415 464.7 23.6773 464.832 22.6711 462.882 20.2744 462.117 18.3244 463.123 17.0183 463.797 16.1908 465.137 16.1733 466.607 14.3248 466.505 12.744 467.921 12.6425 469.77 12.5469 471.509 13.7999 473.032 15.5253 473.273Z" stroke="#FFFFFF" stroke-width="1.33333" fill="#003031"/><path d="M111 491.092C108.449 490.078 105.743 489.505 103 489.399 100.257 489.505 97.5513 490.078 95 491.092 94.2535 491.397 93.4863 491.65 92.704 491.847L81.4253 466.913C80.9436 465.849 79.8248 465.222 78.6653 465.367L69.4787 466.515 59.7453 454.347C58.8221 453.199 57.1435 453.017 55.996 453.941 55.9211 454.001 55.8493 454.065 55.7813 454.133L42.448 467.467C42.1371 467.779 41.9081 468.164 41.7813 468.587L37.9053 481.508 31.1533 491.153C31.104 491.133 31.0533 491.119 31.004 491.097 28.4527 490.083 25.7475 489.511 23.004 489.404 20.2605 489.511 17.5553 490.083 15.004 491.097 13.3056 491.801 11.5045 492.224 9.67067 492.352L9.67067 500.352C12.4141 500.246 15.1195 499.673 17.6707 498.659 19.3644 497.928 21.1657 497.478 23.004 497.325 24.8423 497.478 26.6436 497.928 28.3373 498.659 30.8885 499.673 33.5939 500.246 36.3373 500.352 39.0808 500.246 41.7861 499.673 44.3373 498.659 46.0311 497.928 47.8324 497.478 49.6707 497.325 51.5044 497.452 53.3056 497.876 55.004 498.579 57.5484 499.627 60.2551 500.227 63.004 500.352 65.7475 500.246 68.4528 499.673 71.004 498.659 72.6977 497.928 74.4991 497.478 76.3373 497.325 78.1756 497.478 79.9769 497.928 81.6707 498.659 84.2219 499.673 86.9272 500.246 89.6707 500.352 92.4141 500.246 95.1195 499.673 97.6707 498.659 99.3644 497.928 101.166 497.478 103.004 497.325 104.838 497.452 106.639 497.876 108.337 498.579 110.882 499.627 113.588 500.227 116.337 500.352L116.337 492.352C114.502 492.223 112.699 491.798 111 491.092ZM76.3333 489.399C73.5899 489.505 70.8847 490.078 68.3333 491.092 66.6349 491.795 64.8339 492.219 63 492.347 61.1661 492.219 59.3651 491.795 57.6667 491.092 55.1153 490.078 52.4101 489.505 49.6667 489.399 46.9232 489.505 44.218 490.078 41.6667 491.092 40.1337 491.724 38.5167 492.128 36.8667 492.292L42.5227 484.215C42.6851 483.981 42.8096 483.723 42.892 483.451L46.6987 470.761 57.2627 460.197 69.472 480.5 77.3867 470.915 86.8907 491.921C86.0177 491.713 85.1625 491.435 84.3333 491.092 81.782 490.078 79.0768 489.505 76.3333 489.399Z" stroke="#FFFFFF" stroke-width="1.33333" fill="#003031"/><path d="M99.0333 505.828C97.6581 506.111 96.31 506.513 95.004 507.028 93.3056 507.731 91.5045 508.155 89.6707 508.283 87.8368 508.155 86.0357 507.731 84.3373 507.028 81.786 506.014 79.0808 505.441 76.3373 505.335 73.5939 505.441 70.8887 506.014 68.3373 507.028 66.6389 507.731 64.8379 508.155 63.004 508.283 61.1701 508.155 59.3691 507.731 57.6707 507.028 55.1193 506.014 52.4141 505.441 49.6707 505.335 46.9272 505.441 44.222 506.014 41.6707 507.028 39.9723 507.731 38.1712 508.155 36.3373 508.283 34.5035 508.155 32.7024 507.731 31.004 507.028 29.4715 506.426 27.8813 505.983 26.2587 505.704L21.7227 527.467C21.5313 528.383 21.8351 529.333 22.5227 529.969L39.416 545.564 47.1907 565.004C47.5953 566.017 48.576 566.681 49.6667 566.681 49.8007 566.681 49.9344 566.67 50.0667 566.649L67.4 563.983C68.0911 563.878 68.7135 563.507 69.1333 562.948L76.6853 552.879 89.324 547.823C89.7779 547.641 90.1731 547.339 90.4667 546.948L106.467 525.615C107.051 524.836 107.164 523.801 106.763 522.915Z" stroke="#FFFFFF" stroke-width="1.33333" fill="#003031"/></g></svg>