<svg width="128" height="128" xmlns="http://www.w3.org/2000/svg" xmlns:xlink="http://www.w3.org/1999/xlink" xml:space="preserve" overflow="hidden"><defs><clipPath id="clip0"><rect x="455" y="303" width="128" height="128"/></clipPath></defs><g clip-path="url(#clip0)" transform="translate(-455 -303)"><path d="M546.524 322.681 561.431 322.681C563.141 322.681 564.528 321.295 564.528 319.584 564.528 317.873 563.141 316.487 561.431 316.487L561.173 316.487C561.18 314.359 559.46 312.628 557.332 312.621 556.881 312.62 556.434 312.698 556.011 312.851 554.84 310.581 552.051 309.69 549.782 310.86 548.261 311.645 547.297 313.205 547.277 314.916 545.13 314.74 543.246 316.338 543.071 318.486 542.898 320.588 544.428 322.446 546.524 322.681Z" stroke="#FFFFFF" stroke-width="1.33333" fill="#0222BD"/><path d="M471.533 330.279 484.333 330.279C485.803 330.192 486.925 328.929 486.838 327.459 486.758 326.11 485.682 325.035 484.333 324.955L484.112 324.955C484.118 323.127 482.641 321.641 480.813 321.635 480.426 321.634 480.041 321.7 479.677 321.832 478.671 319.882 476.274 319.117 474.324 320.123 473.018 320.797 472.191 322.137 472.173 323.607 470.325 323.505 468.744 324.921 468.643 326.77 468.547 328.509 469.8 330.032 471.525 330.273Z" stroke="#FFFFFF" stroke-width="1.33333" fill="#0222BD"/><path d="M567 348.092C564.449 347.078 561.743 346.505 559 346.399 556.257 346.505 553.551 347.078 551 348.092 550.253 348.397 549.486 348.65 548.704 348.847L537.425 323.913C536.944 322.849 535.825 322.222 534.665 322.367L525.479 323.515 515.745 311.347C514.822 310.199 513.143 310.017 511.996 310.941 511.921 311.001 511.849 311.065 511.781 311.133L498.448 324.467C498.137 324.779 497.908 325.164 497.781 325.587L493.905 338.508 487.153 348.153C487.104 348.133 487.053 348.119 487.004 348.097 484.453 347.083 481.747 346.511 479.004 346.404 476.261 346.511 473.555 347.083 471.004 348.097 469.306 348.801 467.505 349.224 465.671 349.352L465.671 357.352C468.414 357.246 471.119 356.673 473.671 355.659 475.364 354.928 477.166 354.478 479.004 354.325 480.842 354.478 482.644 354.928 484.337 355.659 486.889 356.673 489.594 357.246 492.337 357.352 495.081 357.246 497.786 356.673 500.337 355.659 502.031 354.928 503.832 354.478 505.671 354.325 507.504 354.452 509.306 354.876 511.004 355.579 513.548 356.627 516.255 357.227 519.004 357.352 521.747 357.246 524.453 356.673 527.004 355.659 528.698 354.928 530.499 354.478 532.337 354.325 534.176 354.478 535.977 354.928 537.671 355.659 540.222 356.673 542.927 357.246 545.671 357.352 548.414 357.246 551.119 356.673 553.671 355.659 555.364 354.928 557.166 354.478 559.004 354.325 560.838 354.452 562.639 354.876 564.337 355.579 566.882 356.627 569.588 357.227 572.337 357.352L572.337 349.352C570.502 349.223 568.699 348.798 567 348.092ZM532.333 346.399C529.59 346.505 526.885 347.078 524.333 348.092 522.635 348.795 520.834 349.219 519 349.347 517.166 349.219 515.365 348.795 513.667 348.092 511.115 347.078 508.41 346.505 505.667 346.399 502.923 346.505 500.218 347.078 497.667 348.092 496.134 348.724 494.517 349.128 492.867 349.292L498.523 341.215C498.685 340.981 498.81 340.723 498.892 340.451L502.699 327.761 513.263 317.197 525.472 337.5 533.387 327.915 542.891 348.921C542.018 348.713 541.163 348.435 540.333 348.092 537.782 347.078 535.077 346.505 532.333 346.399Z" stroke="#FFFFFF" stroke-width="1.33333" fill="#0222BD"/><path d="M555.033 362.828C553.658 363.111 552.31 363.513 551.004 364.028 549.306 364.731 547.505 365.155 545.671 365.283 543.837 365.155 542.036 364.731 540.337 364.028 537.786 363.014 535.081 362.441 532.337 362.335 529.594 362.441 526.889 363.014 524.337 364.028 522.639 364.731 520.838 365.155 519.004 365.283 517.17 365.155 515.369 364.731 513.671 364.028 511.119 363.014 508.414 362.441 505.671 362.335 502.927 362.441 500.222 363.014 497.671 364.028 495.972 364.731 494.171 365.155 492.337 365.283 490.503 365.155 488.702 364.731 487.004 364.028 485.471 363.426 483.881 362.983 482.259 362.704L477.723 384.467C477.531 385.383 477.835 386.333 478.523 386.969L495.416 402.564 503.191 422.004C503.595 423.017 504.576 423.681 505.667 423.681 505.801 423.681 505.934 423.67 506.067 423.649L523.4 420.983C524.091 420.878 524.714 420.507 525.133 419.948L532.685 409.879 545.324 404.823C545.778 404.641 546.173 404.339 546.467 403.948L562.467 382.615C563.051 381.836 563.164 380.801 562.763 379.915Z" stroke="#FFFFFF" stroke-width="1.33333" fill="#0222BD"/></g></svg>