<svg width="128" height="128" xmlns="http://www.w3.org/2000/svg" xmlns:xlink="http://www.w3.org/1999/xlink" xml:space="preserve" overflow="hidden"><defs><clipPath id="clip0"><rect x="151" y="303" width="128" height="128"/></clipPath></defs><g clip-path="url(#clip0)" transform="translate(-151 -303)"><path d="M242.524 322.681 257.431 322.681C259.141 322.681 260.528 321.295 260.528 319.584 260.528 317.873 259.141 316.487 257.431 316.487L257.173 316.487C257.18 314.359 255.46 312.628 253.332 312.621 252.881 312.62 252.434 312.698 252.011 312.851 250.84 310.581 248.051 309.69 245.782 310.86 244.261 311.645 243.297 313.205 243.277 314.916 241.13 314.74 239.246 316.338 239.071 318.486 238.898 320.588 240.428 322.446 242.524 322.681Z" stroke="#FFFFFF" stroke-width="1.33333" fill="#021A93"/><path d="M167.533 330.279 180.333 330.279C181.803 330.192 182.925 328.929 182.838 327.459 182.758 326.11 181.682 325.035 180.333 324.955L180.112 324.955C180.118 323.127 178.641 321.641 176.813 321.635 176.426 321.634 176.041 321.7 175.677 321.832 174.671 319.882 172.274 319.117 170.324 320.123 169.018 320.797 168.191 322.137 168.173 323.607 166.325 323.505 164.744 324.921 164.643 326.77 164.547 328.509 165.8 330.032 167.525 330.273Z" stroke="#FFFFFF" stroke-width="1.33333" fill="#021A93"/><path d="M263 348.092C260.449 347.078 257.743 346.505 255 346.399 252.257 346.505 249.551 347.078 247 348.092 246.253 348.397 245.486 348.65 244.704 348.847L233.425 323.913C232.944 322.849 231.825 322.222 230.665 322.367L221.479 323.515 211.745 311.347C210.822 310.199 209.143 310.017 207.996 310.941 207.921 311.001 207.849 311.065 207.781 311.133L194.448 324.467C194.137 324.779 193.908 325.164 193.781 325.587L189.905 338.508 183.153 348.153C183.104 348.133 183.053 348.119 183.004 348.097 180.453 347.083 177.747 346.511 175.004 346.404 172.261 346.511 169.555 347.083 167.004 348.097 165.306 348.801 163.505 349.224 161.671 349.352L161.671 357.352C164.414 357.246 167.119 356.673 169.671 355.659 171.364 354.928 173.166 354.478 175.004 354.325 176.842 354.478 178.644 354.928 180.337 355.659 182.889 356.673 185.594 357.246 188.337 357.352 191.081 357.246 193.786 356.673 196.337 355.659 198.031 354.928 199.832 354.478 201.671 354.325 203.504 354.452 205.306 354.876 207.004 355.579 209.548 356.627 212.255 357.227 215.004 357.352 217.747 357.246 220.453 356.673 223.004 355.659 224.698 354.928 226.499 354.478 228.337 354.325 230.176 354.478 231.977 354.928 233.671 355.659 236.222 356.673 238.927 357.246 241.671 357.352 244.414 357.246 247.119 356.673 249.671 355.659 251.364 354.928 253.166 354.478 255.004 354.325 256.838 354.452 258.639 354.876 260.337 355.579 262.882 356.627 265.588 357.227 268.337 357.352L268.337 349.352C266.502 349.223 264.699 348.798 263 348.092ZM228.333 346.399C225.59 346.505 222.885 347.078 220.333 348.092 218.635 348.795 216.834 349.219 215 349.347 213.166 349.219 211.365 348.795 209.667 348.092 207.115 347.078 204.41 346.505 201.667 346.399 198.923 346.505 196.218 347.078 193.667 348.092 192.134 348.724 190.517 349.128 188.867 349.292L194.523 341.215C194.685 340.981 194.81 340.723 194.892 340.451L198.699 327.761 209.263 317.197 221.472 337.5 229.387 327.915 238.891 348.921C238.018 348.713 237.163 348.435 236.333 348.092 233.782 347.078 231.077 346.505 228.333 346.399Z" stroke="#FFFFFF" stroke-width="1.33333" fill="#021A93"/><path d="M251.033 362.828C249.658 363.111 248.31 363.513 247.004 364.028 245.306 364.731 243.505 365.155 241.671 365.283 239.837 365.155 238.036 364.731 236.337 364.028 233.786 363.014 231.081 362.441 228.337 362.335 225.594 362.441 222.889 363.014 220.337 364.028 218.639 364.731 216.838 365.155 215.004 365.283 213.17 365.155 211.369 364.731 209.671 364.028 207.119 363.014 204.414 362.441 201.671 362.335 198.927 362.441 196.222 363.014 193.671 364.028 191.972 364.731 190.171 365.155 188.337 365.283 186.503 365.155 184.702 364.731 183.004 364.028 181.471 363.426 179.881 362.983 178.259 362.704L173.723 384.467C173.531 385.383 173.835 386.333 174.523 386.969L191.416 402.564 199.191 422.004C199.595 423.017 200.576 423.681 201.667 423.681 201.801 423.681 201.934 423.67 202.067 423.649L219.4 420.983C220.091 420.878 220.713 420.507 221.133 419.948L228.685 409.879 241.324 404.823C241.778 404.641 242.173 404.339 242.467 403.948L258.467 382.615C259.051 381.836 259.164 380.801 258.763 379.915Z" stroke="#FFFFFF" stroke-width="1.33333" fill="#021A93"/></g></svg>