<svg width="128" height="128" xmlns="http://www.w3.org/2000/svg" xmlns:xlink="http://www.w3.org/1999/xlink" xml:space="preserve" overflow="hidden"><defs><clipPath id="clip0"><rect x="911" y="303" width="128" height="128"/></clipPath></defs><g clip-path="url(#clip0)" transform="translate(-911 -303)"><path d="M1002.52 322.681 1017.43 322.681C1019.14 322.681 1020.53 321.295 1020.53 319.584 1020.53 317.873 1019.14 316.487 1017.43 316.487L1017.17 316.487C1017.18 314.359 1015.46 312.628 1013.33 312.621 1012.88 312.62 1012.43 312.698 1012.01 312.851 1010.84 310.581 1008.05 309.69 1005.78 310.86 1004.26 311.645 1003.3 313.205 1003.28 314.916 1001.13 314.74 999.246 316.338 999.071 318.486 998.898 320.588 1000.43 322.446 1002.52 322.681Z" stroke="#FFFFFF" stroke-width="1.33333" fill="#9AA8ED"/><path d="M927.533 330.279 940.333 330.279C941.803 330.192 942.925 328.929 942.838 327.459 942.758 326.11 941.682 325.035 940.333 324.955L940.112 324.955C940.118 323.127 938.641 321.641 936.813 321.635 936.426 321.634 936.041 321.7 935.677 321.832 934.671 319.882 932.274 319.117 930.324 320.123 929.018 320.797 928.191 322.137 928.173 323.607 926.325 323.505 924.744 324.921 924.643 326.77 924.547 328.509 925.8 330.032 927.525 330.273Z" stroke="#FFFFFF" stroke-width="1.33333" fill="#9AA8ED"/><path d="M1023 348.092C1020.45 347.078 1017.74 346.505 1015 346.399 1012.26 346.505 1009.55 347.078 1007 348.092 1006.25 348.397 1005.49 348.65 1004.7 348.847L993.425 323.913C992.944 322.849 991.825 322.222 990.665 322.367L981.479 323.515 971.745 311.347C970.822 310.199 969.143 310.017 967.996 310.941 967.921 311.001 967.849 311.065 967.781 311.133L954.448 324.467C954.137 324.779 953.908 325.164 953.781 325.587L949.905 338.508 943.153 348.153C943.104 348.133 943.053 348.119 943.004 348.097 940.453 347.083 937.747 346.511 935.004 346.404 932.261 346.511 929.555 347.083 927.004 348.097 925.306 348.801 923.505 349.224 921.671 349.352L921.671 357.352C924.414 357.246 927.119 356.673 929.671 355.659 931.364 354.928 933.166 354.478 935.004 354.325 936.842 354.478 938.644 354.928 940.337 355.659 942.889 356.673 945.594 357.246 948.337 357.352 951.081 357.246 953.786 356.673 956.337 355.659 958.031 354.928 959.832 354.478 961.671 354.325 963.504 354.452 965.306 354.876 967.004 355.579 969.548 356.627 972.255 357.227 975.004 357.352 977.747 357.246 980.453 356.673 983.004 355.659 984.698 354.928 986.499 354.478 988.337 354.325 990.176 354.478 991.977 354.928 993.671 355.659 996.222 356.673 998.927 357.246 1001.67 357.352 1004.41 357.246 1007.12 356.673 1009.67 355.659 1011.36 354.928 1013.17 354.478 1015 354.325 1016.84 354.452 1018.64 354.876 1020.34 355.579 1022.88 356.627 1025.59 357.227 1028.34 357.352L1028.34 349.352C1026.5 349.223 1024.7 348.798 1023 348.092ZM988.333 346.399C985.59 346.505 982.885 347.078 980.333 348.092 978.635 348.795 976.834 349.219 975 349.347 973.166 349.219 971.365 348.795 969.667 348.092 967.115 347.078 964.41 346.505 961.667 346.399 958.923 346.505 956.218 347.078 953.667 348.092 952.134 348.724 950.517 349.128 948.867 349.292L954.523 341.215C954.685 340.981 954.81 340.723 954.892 340.451L958.699 327.761 969.263 317.197 981.472 337.5 989.387 327.915 998.891 348.921C998.018 348.713 997.163 348.435 996.333 348.092 993.782 347.078 991.077 346.505 988.333 346.399Z" stroke="#FFFFFF" stroke-width="1.33333" fill="#9AA8ED"/><path d="M1011.03 362.828C1009.66 363.111 1008.31 363.513 1007 364.028 1005.31 364.731 1003.5 365.155 1001.67 365.283 999.837 365.155 998.036 364.731 996.337 364.028 993.786 363.014 991.081 362.441 988.337 362.335 985.594 362.441 982.889 363.014 980.337 364.028 978.639 364.731 976.838 365.155 975.004 365.283 973.17 365.155 971.369 364.731 969.671 364.028 967.119 363.014 964.414 362.441 961.671 362.335 958.927 362.441 956.222 363.014 953.671 364.028 951.972 364.731 950.171 365.155 948.337 365.283 946.503 365.155 944.702 364.731 943.004 364.028 941.471 363.426 939.881 362.983 938.259 362.704L933.723 384.467C933.531 385.383 933.835 386.333 934.523 386.969L951.416 402.564 959.191 422.004C959.595 423.017 960.576 423.681 961.667 423.681 961.801 423.681 961.934 423.67 962.067 423.649L979.4 420.983C980.091 420.878 980.714 420.507 981.133 419.948L988.685 409.879 1001.32 404.823C1001.78 404.641 1002.17 404.339 1002.47 403.948L1018.47 382.615C1019.05 381.836 1019.16 380.801 1018.76 379.915Z" stroke="#FFFFFF" stroke-width="1.33333" fill="#9AA8ED"/></g></svg>