<?xml version="1.0" encoding="UTF-8"?><svg xmlns="http://www.w3.org/2000/svg" viewBox="0 0 128 128"><defs><style>.cls-1{fill:#ffec00;}.cls-2{fill:#d60b51;}</style></defs><g id="basecuadro"><g><rect class="cls-1" x="2" y="2" width="124" height="124" rx="22" ry="22"/><path class="cls-1" d="M104,4c11.03,0,20,8.97,20,20V104c0,11.03-8.97,20-20,20H24c-11.03,0-20-8.97-20-20V24C4,12.97,12.97,4,24,4H104M104,0H24C10.75,0,0,10.75,0,24V104C0,117.25,10.75,128,24,128H104c13.25,0,24-10.75,24-24V24C128,10.75,117.26,0,104,0h0Z"/></g></g><g id="figura"><path class="cls-2" d="M24.14,123.97H103.8c10.63,0,21.05-8.33,20.16-22.52-10.85-8.2-26.3-20.78-34.4-31.47-13.29-17.55-9.42-39.11-9.42-39.11-8.14-6.77-9.07,8.5-15.69,8.42-6.05-.07-6.05-16.85-15.19-8.42,0,0,4.05,16.13-8.43,33.77-7.85,11.1-25.09,26.42-36.82,36.27v.03c-.93,15.63,10.14,23.02,20.12,23.02Z"/></g></svg>