<svg width="129" height="129" xmlns="http://www.w3.org/2000/svg" xmlns:xlink="http://www.w3.org/1999/xlink" xml:space="preserve" overflow="hidden"><defs><clipPath id="clip0"><rect x="333" y="0" width="129" height="129"/></clipPath></defs><g clip-path="url(#clip0)" transform="translate(-333 0)"><path d="M396.291 108.978 415.506 89.7625 442.784 111.934C443.322 112.472 444.263 112.338 444.8 111.8 445.337 111.263 445.337 110.456 444.934 109.784L422.763 82.6406 441.978 63.425C443.456 61.9469 443.859 59.7969 443.188 57.7812 442.516 55.7656 440.634 54.4219 438.619 54.2875 433.244 53.75 426.659 55.4969 419.941 59.125L391.453 36.2812C393.872 31.5781 394.947 26.3375 394.544 21.0969 394.006 17.3344 389.303 15.3187 386.75 17.8719L350.872 53.75C348.319 56.3031 350.334 61.0063 354.097 61.5438 359.337 61.9469 364.578 61.0063 369.281 58.4531L392.125 86.9406C388.497 93.6594 386.884 100.244 387.288 105.619 387.422 107.634 388.766 109.516 390.781 110.188 392.663 110.994 394.812 110.456 396.291 108.978Z" stroke="#FFFFFF" stroke-width="1.34375" fill="#FF6600"/></g></svg>