<svg width="129" height="129" xmlns="http://www.w3.org/2000/svg" xmlns:xlink="http://www.w3.org/1999/xlink" xml:space="preserve" overflow="hidden"><defs><clipPath id="clip0"><rect x="768" y="368" width="129" height="129"/></clipPath></defs><g clip-path="url(#clip0)" transform="translate(-768 -368)"><path d="M831.291 476.978 850.506 457.763 877.784 479.934C878.322 480.472 879.263 480.337 879.8 479.8 880.338 479.263 880.338 478.456 879.934 477.784L857.763 450.641 876.978 431.425C878.456 429.947 878.859 427.797 878.188 425.781 877.516 423.766 875.634 422.422 873.619 422.288 868.244 421.75 861.659 423.497 854.941 427.125L826.453 404.281C828.872 399.578 829.947 394.337 829.544 389.097 829.006 385.334 824.303 383.319 821.75 385.872L785.872 421.75C783.319 424.303 785.334 429.006 789.097 429.544 794.338 429.947 799.578 429.006 804.281 426.453L827.125 454.941C823.497 461.659 821.884 468.244 822.287 473.619 822.422 475.634 823.766 477.516 825.781 478.188 827.662 478.994 829.812 478.456 831.291 476.978Z" stroke="#FFFFFF" stroke-width="1.34375" fill="#808000"/></g></svg>