<svg width="128" height="128" xmlns="http://www.w3.org/2000/svg" xmlns:xlink="http://www.w3.org/1999/xlink" xml:space="preserve" overflow="hidden"><defs><clipPath id="clip0"><rect x="1032" y="478" width="128" height="128"/></clipPath></defs><g clip-path="url(#clip0)" transform="translate(-1032 -478)"><path d="M1094.8 586.133 1113.87 567.067 1140.93 589.067C1141.47 589.6 1142.4 589.467 1142.93 588.933 1143.47 588.4 1143.47 587.6 1143.07 586.933L1121.07 560 1140.13 540.933C1141.6 539.467 1142 537.333 1141.33 535.333 1140.67 533.333 1138.8 532 1136.8 531.867 1131.47 531.333 1124.93 533.067 1118.27 536.667L1090 514C1092.4 509.333 1093.47 504.133 1093.07 498.933 1092.53 495.2 1087.87 493.2 1085.33 495.733L1049.73 531.333C1047.2 533.867 1049.2 538.533 1052.93 539.067 1058.13 539.467 1063.33 538.533 1068 536L1090.67 564.267C1087.07 570.933 1085.47 577.467 1085.87 582.8 1086 584.8 1087.33 586.667 1089.33 587.333 1091.2 588.133 1093.33 587.6 1094.8 586.133Z" stroke="#FFFFFF" stroke-width="1.33333" fill="#7030A0"/></g></svg>