<svg width="129" height="129" xmlns="http://www.w3.org/2000/svg" xmlns:xlink="http://www.w3.org/1999/xlink" xml:space="preserve" overflow="hidden"><defs><clipPath id="clip0"><rect x="641" y="127" width="129" height="129"/></clipPath></defs><g clip-path="url(#clip0)" transform="translate(-641 -127)"><path d="M704.291 235.978 723.506 216.763 750.784 238.934C751.322 239.472 752.263 239.337 752.8 238.8 753.338 238.263 753.338 237.456 752.934 236.784L730.763 209.641 749.978 190.425C751.456 188.947 751.859 186.797 751.188 184.781 750.516 182.766 748.634 181.422 746.619 181.288 741.244 180.75 734.659 182.497 727.941 186.125L699.453 163.281C701.872 158.578 702.947 153.337 702.544 148.097 702.006 144.334 697.303 142.319 694.75 144.872L658.872 180.75C656.319 183.303 658.334 188.006 662.097 188.544 667.338 188.947 672.578 188.006 677.281 185.453L700.125 213.941C696.497 220.659 694.884 227.244 695.287 232.619 695.422 234.634 696.766 236.516 698.781 237.188 700.662 237.994 702.812 237.456 704.291 235.978Z" stroke="#FFFFFF" stroke-width="1.34375" fill="#C83771"/></g></svg>