<svg width="129" height="129" xmlns="http://www.w3.org/2000/svg" xmlns:xlink="http://www.w3.org/1999/xlink" xml:space="preserve" overflow="hidden"><defs><clipPath id="clip0"><rect x="768" y="127" width="129" height="129"/></clipPath></defs><g clip-path="url(#clip0)" transform="translate(-768 -127)"><path d="M831.291 235.978 850.506 216.763 877.784 238.934C878.322 239.472 879.263 239.337 879.8 238.8 880.338 238.263 880.338 237.456 879.934 236.784L857.763 209.641 876.978 190.425C878.456 188.947 878.859 186.797 878.188 184.781 877.516 182.766 875.634 181.422 873.619 181.288 868.244 180.75 861.659 182.497 854.941 186.125L826.453 163.281C828.872 158.578 829.947 153.337 829.544 148.097 829.006 144.334 824.303 142.319 821.75 144.872L785.872 180.75C783.319 183.303 785.334 188.006 789.097 188.544 794.338 188.947 799.578 188.006 804.281 185.453L827.125 213.941C823.497 220.659 821.884 227.244 822.287 232.619 822.422 234.634 823.766 236.516 825.781 237.188 827.662 237.994 829.812 237.456 831.291 235.978Z" stroke="#FFFFFF" stroke-width="1.34375" fill="#E5FF80"/></g></svg>