<svg width="129" height="129" xmlns="http://www.w3.org/2000/svg" xmlns:xlink="http://www.w3.org/1999/xlink" xml:space="preserve" overflow="hidden"><defs><clipPath id="clip0"><rect x="768" y="484" width="129" height="129"/></clipPath></defs><g clip-path="url(#clip0)" transform="translate(-768 -484)"><path d="M831.291 592.978 850.506 573.763 877.784 595.934C878.322 596.472 879.263 596.338 879.8 595.8 880.338 595.263 880.338 594.456 879.934 593.784L857.763 566.641 876.978 547.425C878.456 545.947 878.859 543.797 878.188 541.781 877.516 539.766 875.634 538.422 873.619 538.287 868.244 537.75 861.659 539.497 854.941 543.125L826.453 520.281C828.872 515.578 829.947 510.337 829.544 505.097 829.006 501.334 824.303 499.319 821.75 501.872L785.872 537.75C783.319 540.303 785.334 545.006 789.097 545.544 794.338 545.947 799.578 545.006 804.281 542.453L827.125 570.941C823.497 577.659 821.884 584.244 822.287 589.619 822.422 591.634 823.766 593.516 825.781 594.188 827.662 594.994 829.812 594.456 831.291 592.978Z" stroke="#FFFFFF" stroke-width="1.34375" fill="#6F917C"/></g></svg>