<svg width="129" height="129" xmlns="http://www.w3.org/2000/svg" xmlns:xlink="http://www.w3.org/1999/xlink" xml:space="preserve" overflow="hidden"><defs><clipPath id="clip0"><rect x="641" y="465" width="129" height="129"/></clipPath></defs><g clip-path="url(#clip0)" transform="translate(-641 -465)"><path d="M704.291 573.978 723.506 554.763 750.784 576.934C751.322 577.472 752.263 577.338 752.8 576.8 753.338 576.263 753.338 575.456 752.934 574.784L730.763 547.641 749.978 528.425C751.456 526.947 751.859 524.797 751.188 522.781 750.516 520.766 748.634 519.422 746.619 519.287 741.244 518.75 734.659 520.497 727.941 524.125L699.453 501.281C701.872 496.578 702.947 491.337 702.544 486.097 702.006 482.334 697.303 480.319 694.75 482.872L658.872 518.75C656.319 521.303 658.334 526.006 662.097 526.544 667.338 526.947 672.578 526.006 677.281 523.453L700.125 551.941C696.497 558.659 694.884 565.244 695.287 570.619 695.422 572.634 696.766 574.516 698.781 575.188 700.662 575.994 702.812 575.456 704.291 573.978Z" stroke="#FFFFFF" stroke-width="1.34375" fill="#B380FF"/></g></svg>