<svg width="129" height="129" xmlns="http://www.w3.org/2000/svg" xmlns:xlink="http://www.w3.org/1999/xlink" xml:space="preserve" overflow="hidden"><defs><clipPath id="clip0"><rect x="903" y="253" width="129" height="129"/></clipPath></defs><g clip-path="url(#clip0)" transform="translate(-903 -253)"><path d="M966.291 361.978 985.506 342.763 1012.78 364.934C1013.32 365.472 1014.26 365.337 1014.8 364.8 1015.34 364.263 1015.34 363.456 1014.93 362.784L992.763 335.641 1011.98 316.425C1013.46 314.947 1013.86 312.797 1013.19 310.781 1012.52 308.766 1010.63 307.422 1008.62 307.288 1003.24 306.75 996.659 308.497 989.941 312.125L961.453 289.281C963.872 284.578 964.947 279.337 964.544 274.097 964.006 270.334 959.303 268.319 956.75 270.872L920.872 306.75C918.319 309.303 920.334 314.006 924.097 314.544 929.338 314.947 934.578 314.006 939.281 311.453L962.125 339.941C958.497 346.659 956.884 353.244 957.287 358.619 957.422 360.634 958.766 362.516 960.781 363.188 962.662 363.994 964.812 363.456 966.291 361.978Z" stroke="#FFFFFF" stroke-width="1.34375" fill="#8787DE"/></g></svg>