<svg xmlns="http://www.w3.org/2000/svg" xmlns:xlink="http://www.w3.org/1999/xlink" width="129" height="129" overflow="hidden" xml:space="preserve"><defs><clipPath id="clip0"><rect width="129" height="129" x="641" y="242"/></clipPath></defs><g clip-path="url(#clip0)" transform="translate(-641 -242)"><path fill="#782144" stroke="#FFF" stroke-width="1.344" d="M704.291 350.978 723.506 331.763 750.784 353.934C751.322 354.472 752.263 354.337 752.8 353.8 753.338 353.263 753.338 352.456 752.934 351.784L730.763 324.641 749.978 305.425C751.456 303.947 751.859 301.797 751.188 299.781 750.516 297.766 748.634 296.422 746.619 296.288 741.244 295.75 734.659 297.497 727.941 301.125L699.453 278.281C701.872 273.578 702.947 268.337 702.544 263.097 702.006 259.334 697.303 257.319 694.75 259.872L658.872 295.75C656.319 298.303 658.334 303.006 662.097 303.544 667.338 303.947 672.578 303.006 677.281 300.453L700.125 328.941C696.497 335.659 694.884 342.244 695.287 347.619 695.422 349.634 696.766 351.516 698.781 352.188 700.662 352.994 702.812 352.456 704.291 350.978Z"/></g></svg>