<svg width="129" height="129" xmlns="http://www.w3.org/2000/svg" xmlns:xlink="http://www.w3.org/1999/xlink" xml:space="preserve" overflow="hidden"><defs><clipPath id="clip0"><rect x="9" y="248" width="129" height="129"/></clipPath></defs><g clip-path="url(#clip0)" transform="translate(-9 -248)"><path d="M72.2906 356.978 91.5062 337.763 118.784 359.934C119.322 360.472 120.263 360.337 120.8 359.8 121.338 359.263 121.338 358.456 120.934 357.784L98.7625 330.641 117.978 311.425C119.456 309.947 119.859 307.797 119.188 305.781 118.516 303.766 116.634 302.422 114.619 302.288 109.244 301.75 102.659 303.497 95.9406 307.125L67.4531 284.281C69.8719 279.578 70.9469 274.337 70.5437 269.097 70.0063 265.334 65.3031 263.319 62.75 265.872L26.8719 301.75C24.3187 304.303 26.3344 309.006 30.0969 309.544 35.3375 309.947 40.5781 309.006 45.2812 306.453L68.125 334.941C64.4969 341.659 62.8844 348.244 63.2875 353.619 63.4219 355.634 64.7656 357.516 66.7812 358.188 68.6625 358.994 70.8125 358.456 72.2906 356.978Z" stroke="#FFFFFF" stroke-width="1.34375" fill="#800080"/></g></svg>