<svg width="129" height="129" xmlns="http://www.w3.org/2000/svg" xmlns:xlink="http://www.w3.org/1999/xlink" xml:space="preserve" overflow="hidden"><defs><clipPath id="clip0"><rect x="498" y="254" width="129" height="129"/></clipPath></defs><g clip-path="url(#clip0)" transform="translate(-498 -254)"><path d="M561.291 362.978 580.506 343.763 607.784 365.934C608.322 366.472 609.263 366.337 609.8 365.8 610.338 365.263 610.338 364.456 609.934 363.784L587.763 336.641 606.978 317.425C608.456 315.947 608.859 313.797 608.188 311.781 607.516 309.766 605.634 308.422 603.619 308.288 598.244 307.75 591.659 309.497 584.941 313.125L556.453 290.281C558.872 285.578 559.947 280.337 559.544 275.097 559.006 271.334 554.303 269.319 551.75 271.872L515.872 307.75C513.319 310.303 515.334 315.006 519.097 315.544 524.338 315.947 529.578 315.006 534.281 312.453L557.125 340.941C553.497 347.659 551.884 354.244 552.287 359.619 552.422 361.634 553.766 363.516 555.781 364.188 557.662 364.994 559.812 364.456 561.291 362.978Z" stroke="#FFFFFF" stroke-width="1.34375" fill="#FF9955"/></g></svg>