<svg width="128" height="128" xmlns="http://www.w3.org/2000/svg" xmlns:xlink="http://www.w3.org/1999/xlink" xml:space="preserve" overflow="hidden"><defs><clipPath id="clip0"><rect x="1032" y="120" width="128" height="128"/></clipPath></defs><g clip-path="url(#clip0)" transform="translate(-1032 -120)"><path d="M1094.8 228.133 1113.87 209.067 1140.93 231.067C1141.47 231.6 1142.4 231.467 1142.93 230.933 1143.47 230.4 1143.47 229.6 1143.07 228.933L1121.07 202 1140.13 182.933C1141.6 181.467 1142 179.333 1141.33 177.333 1140.67 175.333 1138.8 174 1136.8 173.867 1131.47 173.333 1124.93 175.067 1118.27 178.667L1090 156C1092.4 151.333 1093.47 146.133 1093.07 140.933 1092.53 137.2 1087.87 135.2 1085.33 137.733L1049.73 173.333C1047.2 175.867 1049.2 180.533 1052.93 181.067 1058.13 181.467 1063.33 180.533 1068 178L1090.67 206.267C1087.07 212.933 1085.47 219.467 1085.87 224.8 1086 226.8 1087.33 228.667 1089.33 229.333 1091.2 230.133 1093.33 229.6 1094.8 228.133Z" stroke="#FFFFFF" stroke-width="1.33333" fill="#FFCC00"/></g></svg>