<svg width="129" height="129" xmlns="http://www.w3.org/2000/svg" xmlns:xlink="http://www.w3.org/1999/xlink" xml:space="preserve" overflow="hidden"><defs><clipPath id="clip0"><rect x="903" y="0" width="129" height="129"/></clipPath></defs><g clip-path="url(#clip0)" transform="translate(-903 0)"><path d="M966.291 108.978 985.506 89.7625 1012.78 111.934C1013.32 112.472 1014.26 112.338 1014.8 111.8 1015.34 111.263 1015.34 110.456 1014.93 109.784L992.763 82.6406 1011.98 63.425C1013.46 61.9469 1013.86 59.7969 1013.19 57.7812 1012.52 55.7656 1010.63 54.4219 1008.62 54.2875 1003.24 53.75 996.659 55.4969 989.941 59.125L961.453 36.2812C963.872 31.5781 964.947 26.3375 964.544 21.0969 964.006 17.3344 959.303 15.3187 956.75 17.8719L920.872 53.75C918.319 56.3031 920.334 61.0063 924.097 61.5438 929.338 61.9469 934.578 61.0063 939.281 58.4531L962.125 86.9406C958.497 93.6594 956.884 100.244 957.287 105.619 957.422 107.634 958.766 109.516 960.781 110.188 962.662 110.994 964.812 110.456 966.291 108.978Z" stroke="#FFFFFF" stroke-width="1.34375" fill="#008000"/></g></svg>