<svg width="129" height="129" xmlns="http://www.w3.org/2000/svg" xmlns:xlink="http://www.w3.org/1999/xlink" xml:space="preserve" overflow="hidden"><defs><clipPath id="clip0"><rect x="9" y="0" width="129" height="129"/></clipPath></defs><g clip-path="url(#clip0)" transform="translate(-9 0)"><path d="M72.2906 108.978 91.5062 89.7625 118.784 111.934C119.322 112.472 120.263 112.338 120.8 111.8 121.338 111.263 121.338 110.456 120.934 109.784L98.7625 82.6406 117.978 63.425C119.456 61.9469 119.859 59.7969 119.188 57.7812 118.516 55.7656 116.634 54.4219 114.619 54.2875 109.244 53.75 102.659 55.4969 95.9406 59.125L67.4531 36.2812C69.8719 31.5781 70.9469 26.3375 70.5437 21.0969 70.0063 17.3344 65.3031 15.3187 62.75 17.8719L26.8719 53.75C24.3187 56.3031 26.3344 61.0063 30.0969 61.5438 35.3375 61.9469 40.5781 61.0063 45.2812 58.4531L68.125 86.9406C64.4969 93.6594 62.8844 100.244 63.2875 105.619 63.4219 107.634 64.7656 109.516 66.7812 110.188 68.6625 110.994 70.8125 110.456 72.2906 108.978Z" stroke="#FFFFFF" stroke-width="1.34375" fill="#00FF00"/></g></svg>