<svg width="128" height="128" xmlns="http://www.w3.org/2000/svg" xmlns:xlink="http://www.w3.org/1999/xlink" xml:space="preserve" overflow="hidden"><defs><clipPath id="clip0"><rect x="175" y="254" width="128" height="128"/></clipPath></defs><g clip-path="url(#clip0)" transform="translate(-175 -254)"><path d="M237.8 362.133 256.867 343.067 283.933 365.067C284.467 365.6 285.4 365.467 285.933 364.933 286.467 364.4 286.467 363.6 286.067 362.933L264.067 336 283.133 316.933C284.6 315.467 285 313.333 284.333 311.333 283.667 309.333 281.8 308 279.8 307.867 274.467 307.333 267.933 309.067 261.267 312.667L233 290C235.4 285.333 236.467 280.133 236.067 274.933 235.533 271.2 230.867 269.2 228.333 271.733L192.733 307.333C190.2 309.867 192.2 314.533 195.933 315.067 201.133 315.467 206.333 314.533 211 312L233.667 340.267C230.067 346.933 228.467 353.467 228.867 358.8 229 360.8 230.333 362.667 232.333 363.333 234.2 364.133 236.333 363.6 237.8 362.133Z" stroke="#FFFFFF" stroke-width="1.33333" fill="#C5E0B4"/></g></svg>