<svg width="128" height="128" xmlns="http://www.w3.org/2000/svg" xmlns:xlink="http://www.w3.org/1999/xlink" xml:space="preserve" overflow="hidden"><defs><clipPath id="clip0"><rect x="175" y="478" width="128" height="128"/></clipPath></defs><g clip-path="url(#clip0)" transform="translate(-175 -478)"><path d="M237.8 586.133 256.867 567.067 283.933 589.067C284.467 589.6 285.4 589.467 285.933 588.933 286.467 588.4 286.467 587.6 286.067 586.933L264.067 560 283.133 540.933C284.6 539.467 285 537.333 284.333 535.333 283.667 533.333 281.8 532 279.8 531.867 274.467 531.333 267.933 533.067 261.267 536.667L233 514C235.4 509.333 236.467 504.133 236.067 498.933 235.533 495.2 230.867 493.2 228.333 495.733L192.733 531.333C190.2 533.867 192.2 538.533 195.933 539.067 201.133 539.467 206.333 538.533 211 536L233.667 564.267C230.067 570.933 228.467 577.467 228.867 582.8 229 584.8 230.333 586.667 232.333 587.333 234.2 588.133 236.333 587.6 237.8 586.133Z" stroke="#FFFFFF" stroke-width="1.33333" fill="#87DECD"/></g></svg>