<?xml version="1.0" encoding="UTF-8"?><svg xmlns="http://www.w3.org/2000/svg" viewBox="0 0 128 128"><defs><style>.cls-1{fill:#063;}.cls-2{fill:#ffec00;}.cls-3{fill:#35a8e0;}</style></defs><g id="basecuadro"><g><rect class="cls-1" x="2" y="2" width="124" height="124" rx="22" ry="22"/><path class="cls-3" d="M104,4c11.03,0,20,8.97,20,20V104c0,11.03-8.97,20-20,20H24c-11.03,0-20-8.97-20-20V24C4,12.97,12.97,4,24,4H104M104,0H24C10.74,0,0,10.75,0,24V104C0,117.25,10.74,128,24,128H104c13.25,0,24-10.75,24-24V24C128,10.75,117.25,0,104,0h0Z"/></g></g><g id="trsnsfuga"><path class="cls-2" d="M46.17,93.24c-2.4,1.01-4.74,2.31-7.24,2.95-11.42,2.96-21.8-6.19-20.06-17.62,.81-5.33,4.13-9.06,8.35-12.09,1.24-.89,2.58-1.65,3.89-2.48-1.55-.99-3.05-1.83-4.41-2.85-3.94-2.95-7.01-6.57-7.82-11.6-1.81-11.17,8.32-20.51,19.49-17.86,3.17,.75,6.17,2.26,9.01,3.34,.36-2.61,.5-5.6,1.2-8.45,2.57-10.32,12.96-15.29,22.51-10.83,5.31,2.48,7.81,7.09,8.83,12.59,.43,2.29,.47,4.65,.7,7.15,.5-.28,.91-.56,1.35-.76,2.21-.96,4.36-2.13,6.66-2.81,6.11-1.81,13.5-.75,17.97,6.52,3.75,6.1,3.64,12.22-.54,18.02-2.05,2.85-4.71,4.92-7.7,6.65-.45,.26-.9,.53-1.34,.79,.09,.18,.1,.24,.13,.26,.43,.26,.86,.52,1.29,.76,4.03,2.27,7.38,5.25,9.44,9.44,4.05,8.22-.79,19.19-9.59,21.8-4.58,1.36-8.98,.54-13.24-1.33-1.54-.68-3.01-1.53-4.63-2.36,0,.98,.02,1.83,0,2.68-.18,5.39-1.4,10.44-5.38,14.34-8.69,8.52-23.49,4.01-26.45-8.09-.7-2.84-.84-5.82-1.24-8.81-.31,.17-.72,.44-1.16,.63Zm32.24-29.23c0-8.79-6.74-14.18-13.71-14.43-8.43-.3-15.06,6.35-15.01,14.61,.04,7.88,6.44,14.15,14.42,14.14,7.89-.01,14.29-6.43,14.3-14.33Z"/></g></svg>