<?xml version="1.0" encoding="UTF-8"?><svg xmlns="http://www.w3.org/2000/svg" viewBox="0 0 128 128"><defs><style>.cls-1{fill:#008d36;}.cls-2{fill:#d9d9d9;}.cls-3{fill:#93c01f;}</style></defs><g id="basecuadro"><g><rect class="cls-2" x="2" y="2" width="124" height="124" rx="22" ry="22"/><path class="cls-3" d="M104,4c11.03,0,20,8.97,20,20V104c0,11.03-8.97,20-20,20H24c-11.03,0-20-8.97-20-20V24C4,12.97,12.97,4,24,4H104M104,0H24C10.75,0,0,10.75,0,24V104C0,117.25,10.75,128,24,128H104c13.25,0,24-10.75,24-24V24C128,10.75,117.26,0,104,0h0Z"/></g></g><g id="figura"><g><path class="cls-1" d="M117.53,51.4c0-.09-.02-.17-.04-.26-.01-.11-.03-.23-.05-.34-.07-.42-.18-.83-.32-1.23,0-.01,0-.03-.01-.04,0-.01,0-.02-.01-.03-.06-.17-.13-.33-.2-.49-.01-.03-.02-.06-.04-.09-.01-.02-.02-.05-.04-.07-.08-.18-.17-.35-.26-.53-.09-.17-.18-.34-.28-.5-.02-.03-.03-.05-.05-.08-.08-.13-.17-.25-.26-.38-.08-.11-.16-.21-.24-.31-.11-.14-.21-.28-.33-.41-.23-.26-.47-.52-.72-.76-.08-.08-.16-.15-.24-.22-.01,0-.03-.02-.04-.03-.11-.1-.22-.19-.33-.29-.07-.06-.15-.13-.22-.19,0,0-.02-.01-.02-.02-.18-.15-.37-.29-.57-.42-.03-.02-.05-.04-.08-.06-.18-.12-.36-.25-.54-.36l-.15-.1c-.17-.1-.34-.2-.51-.29l-.22-.12c-.16-.08-.31-.16-.47-.24,3.5-3.35,4.13-8.05,1.06-11.93-2.8-3.54-7.94-5.48-13.17-5.38-.5,0-1.01,.05-1.51,.1-.01-.16-.03-.33-.06-.49,0-.04-.02-.09-.02-.13-.06-.35-.14-.7-.25-1.04,0-.03-.02-.05-.02-.08-.01-.04-.02-.07-.04-.11-.07-.2-.15-.4-.24-.6-.09-.2-.18-.39-.28-.59-.08-.16-.16-.33-.26-.48-.04-.06-.08-.13-.12-.19-.1-.16-.21-.31-.32-.46-.02-.02-.03-.05-.05-.07-.12-.16-.25-.33-.38-.48-.08-.09-.15-.19-.24-.28-.18-.2-.37-.39-.57-.58-.06-.06-.12-.12-.18-.17-.1-.09-.21-.18-.32-.28-.16-.13-.32-.27-.49-.4-.05-.04-.1-.08-.15-.12-.24-.18-.49-.35-.75-.52-.13-.09-.26-.17-.4-.25,0,0-.01-.01-.02-.02-.01,0-.02-.01-.04-.02-.28-.17-.57-.32-.88-.48-.15-.07-.3-.15-.45-.22-.17-.08-.34-.16-.52-.23-.32-.13-.65-.25-.97-.36-.02,0-.04-.02-.06-.03-.2-.07-.39-.14-.59-.2-.15-.05-.3-.09-.45-.13-.13-.04-.26-.07-.39-.1-.05-.01-.09-.02-.14-.03-.23-.06-.46-.11-.7-.16-.13-.03-.25-.05-.38-.07-.16-.03-.3-.05-.46-.08-.02,0-.05,0-.07,0h-.05c-.25-.05-.5-.08-.75-.1-.19-.02-.38-.04-.57-.05-.17-.01-.35-.03-.52-.03-.46-.02-.92-.03-1.38-.02h-.25c-.23,.02-.46,.03-.69,.04-.24,.02-.49,.04-.73,.07l-.22,.03c-.53,.06-1.05,.14-1.56,.25-.26,.05-.52,.12-.78,.18-.02,0-.03,0-.05,0-.26,.07-.52,.15-.78,.22-.26,.08-.53,.16-.78,.25-2.22-3.89-7.48-6.63-13.62-6.63h0c-6.14,0-11.4,2.74-13.62,6.64-.01,0-.02,0-.04,0-.25-.09-.49-.17-.75-.25-.26-.08-.53-.16-.79-.22-.27-.07-.54-.13-.82-.19-.27-.06-.54-.1-.82-.15-.26-.04-.52-.08-.78-.11h-.06s-.05-.02-.05-.02c-.27-.03-.54-.05-.8-.07-.26-.02-.53-.04-.79-.04h-.14c-.25,0-.5,0-.75,0h-.07c-.25,0-.5,.02-.75,.03-.07,0-.13,0-.2,0-.23,.02-.46,.04-.69,.06-.01,0-.02,0-.04,0-.03,0-.06,0-.09,0-.25,.03-.51,.06-.76,.1-.23,.04-.47,.08-.7,.12-.29,.06-.59,.12-.88,.19-.49,.12-.98,.26-1.46,.42-.09,.03-.19,.06-.28,.1-.01,0-.02,.01-.04,.02-.27,.1-.54,.2-.8,.31-.18,.07-.35,.15-.52,.23-.15,.07-.3,.15-.45,.22-.3,.15-.59,.31-.88,.48-.02,.01-.04,.02-.06,.03-.14,.08-.27,.17-.4,.25-.14,.09-.28,.18-.41,.28-.11,.08-.22,.16-.33,.24-.05,.04-.1,.08-.15,.12-.08,.06-.17,.13-.25,.19-.14,.11-.26,.22-.39,.34-.12,.1-.23,.2-.34,.31-.22,.21-.43,.43-.63,.66-.1,.11-.19,.22-.28,.34-.09,.11-.19,.23-.27,.35-.07,.1-.13,.2-.2,.29-.04,.05-.07,.1-.11,.16-.04,.06-.08,.12-.12,.18-.02,.03-.03,.06-.05,.09-.03,.05-.05,.1-.08,.15-.05,.09-.12,.18-.17,.28-.03,.05-.06,.1-.08,.16-.05,.09-.08,.18-.12,.27-.1,.21-.19,.42-.27,.64-.09,.24-.17,.48-.24,.73v.04s-.02,.02-.02,.03c-.03,.11-.05,.23-.07,.35-.03,.13-.05,.26-.07,.4-.01,.09-.04,.19-.05,.29,0,.04,0,.09-.01,.13,0,.03,0,.05-.01,.08-.74-.07-1.47-.11-2.21-.1-4.98,.08-9.79,2-12.46,5.38-3.07,3.88-2.45,8.58,1.05,11.93-.03,.02-.06,.04-.09,.05-.59,.3-1.16,.63-1.68,.99-.13,.09-.26,.18-.39,.28-.25,.19-.5,.38-.73,.58-.12,.1-.23,.21-.34,.31-.11,.1-.22,.19-.32,.29,0,0,0,.02-.01,.03-.05,.05-.11,.1-.15,.15-.12,.13-.24,.26-.35,.39-.02,.02-.03,.04-.05,.06-.13,.15-.25,.3-.37,.46-.06,.08-.12,.16-.18,.24-.02,.03-.04,.05-.06,.08-.16,.22-.3,.45-.44,.68-.07,.13-.14,.25-.2,.38-.06,.13-.13,.24-.19,.37-.03,.06-.05,.12-.07,.17-.07,.16-.13,.32-.19,.48-.06,.17-.12,.35-.17,.53-.02,.07-.04,.15-.06,.22-.08,.33-.14,.66-.18,1,0,0,0,.01,0,.02-.01,.11-.03,.22-.04,.34-.01,.16-.01,.32-.01,.48s0,.33,.01,.49c0,.1,.02,.21,.04,.31,0,.01,0,.03,0,.04,.04,.38,.12,.75,.21,1.11,.06,.21,.12,.42,.19,.63,.07,.21,.16,.41,.25,.61,.09,.2,.19,.4,.3,.6,.1,.19,.21,.39,.33,.57,.05,.07,.09,.15,.14,.22,.05,.08,.11,.15,.17,.22,.05,.06,.09,.13,.14,.19,.12,.16,.24,.31,.37,.46,.02,.02,.03,.04,.05,.06,.11,.13,.23,.25,.35,.38,.04,.05,.09,.09,.13,.14,.11,.12,.23,.23,.35,.35,.04,.04,.08,.07,.12,.1,.15,.14,.31,.27,.47,.41l.08,.07s.02,.01,.02,.02c.02,.01,.03,.02,.05,.03,.13,.1,.27,.2,.4,.3,.08,.06,.17,.12,.25,.17,.15,.11,.3,.22,.46,.32,.01,0,.02,.01,.04,.02,.2,.12,.41,.25,.62,.36,.02,.01,.05,.02,.07,.03,.21,.12,.42,.23,.64,.34l.04,.02c-3.51,3.35-4.13,8.05-1.06,11.94,3.07,3.88,8.95,5.84,14.68,5.29,0,.03,0,.06,.01,.1,.01,.1,.02,.2,.04,.3,0,.05,.01,.11,.02,.16,.01,.07,.02,.15,.04,.22,0,.03,.02,.06,.02,.1,.02,.1,.05,.21,.07,.31,0,.03,.02,.05,.02,.08,.03,.1,.05,.19,.08,.29,.03,.1,.06,.21,.09,.31,.01,.04,.02,.08,.04,.12,0,.02,.02,.03,.02,.05,.03,.09,.08,.18,.12,.28,.03,.06,.05,.13,.08,.19,.08,.19,.16,.37,.26,.55,.02,.03,.04,.07,.06,.1,.06,.11,.12,.23,.19,.35,.01,.02,.02,.03,.04,.05,.05,.08,.09,.15,.14,.22,.02,.03,.05,.06,.07,.1,.06,.09,.12,.17,.18,.26l.07,.1c.09,.12,.17,.23,.26,.35,.09,.11,.18,.21,.27,.32,0,.01,.01,.02,.02,.03,.16,.19,.34,.37,.52,.54,.07,.07,.13,.13,.2,.2l.13,.12c1.07,.97,2.39,1.81,3.95,2.47,5.38,2.27,11.97,1.66,16.4-1.18,0,.01,.01,.02,.02,.03l.57-6.57c-12.49-2.2-27.75-9.66-27.25-27.13,1.43,5.44,5.74,10.3,11.98,14.03,3.05-3.07-1.58-8.75-4.99-11.34,7.89-1.6,14.48,10.93,11.09,14.25,4.53,2.51,5.7,2.14,11.09,3.38,.37-.35,.17-.38,.62-.68-3.71-3.1-5.45-10.13-5.09-15.19-7.36-3.84-11.3-10.45-3.01-15.01-1.73,7.14,1.05,7.38,3.77,8.3,2.04-7.94,3.44-10.23,11.76-15.29,0,0,0,0,0,0h0s0,0,0,0c-6.65,9.31-10.91,25.93-1.82,34.65,.95-.21,.91,.34,1.96,.34,2.44,0,2.35-.02,4.09,.98,5.55-9.34,4.28-19.74,5.35-27.85,2.81,4.73,4.47,8.18,4.81,13.88,7.38-2.23,8.83-5.56,8.36-9.63,5.58,5.97,1.64,14.4-8.53,17.34-1.27,3.7-1.9,6.99-4.83,9.68,.49,.58,.34,.28,.58,.95l.03,.42c14.34-3.18,25.06-10.75,27.49-19.98,4.53,10.61-4.25,21.89-26.88,26.82l.21,3.77c4.42,2.69,10.84,3.23,16.11,1,1.56-.66,2.87-1.5,3.94-2.47h.01c.06-.05,.12-.11,.18-.16,.04-.04,.08-.08,.12-.12,.09-.09,.18-.18,.26-.27,.1-.11,.2-.21,.3-.32l.02-.03c.05-.05,.09-.1,.13-.16,.07-.09,.14-.17,.21-.26,.09-.11,.18-.23,.26-.35,.06-.09,.13-.17,.19-.26,.02-.03,.04-.06,.06-.1,.12-.18,.22-.36,.32-.54,.02-.03,.04-.06,.06-.09,.08-.15,.15-.3,.22-.46,.04-.09,.09-.19,.13-.29,.01-.03,.02-.06,.04-.1,.04-.09,.08-.19,.12-.29,.01-.03,.02-.06,.04-.1,.03-.1,.06-.19,.09-.29,0-.03,.01-.06,.02-.1,.04-.13,.07-.25,.11-.38,.03-.1,.05-.2,.07-.3,.02-.11,.04-.21,.06-.32,0-.05,.02-.11,.02-.16,.02-.13,.04-.26,.05-.39,5.73,.54,11.61-1.41,14.68-5.29,3.07-3.88,2.44-8.58-1.08-11.94,.24-.12,.47-.24,.7-.36,.23-.13,.45-.25,.66-.39l.05-.03c.41-.26,.79-.53,1.16-.82,0,0,0-.01,.01-.02,.38-.31,.74-.63,1.08-.97,.16-.16,.32-.32,.46-.49l.04-.04c.15-.17,.28-.34,.41-.52,.28-.37,.52-.75,.73-1.14,.11-.2,.21-.4,.3-.6,.09-.2,.18-.41,.25-.61,.07-.21,.13-.42,.19-.63,.1-.37,.17-.74,.21-1.12,0,0,0-.01,0-.02,.01-.11,.03-.22,.04-.34,0-.02,0-.04,0-.06,0-.14,.01-.28,.01-.42,0-.24-.01-.49-.04-.73Z"/><path class="cls-1" d="M72.2,118.24h-16.23l1.62-40.92s1.53-3.3,6.39-3.3c4.47,0,5.63,3.3,5.63,3.3l2.6,40.92Z"/></g></g></svg>