<?xml version="1.0" encoding="UTF-8"?><svg id="iconoAGUA" xmlns="http://www.w3.org/2000/svg" viewBox="0 0 128 128"><defs><style>.cls-1{fill:#e6332a;}.cls-2{fill:#00a19a;}.cls-3{fill:#36a9e1;}</style></defs><g><rect class="cls-2" x="2" y="2" width="124" height="124" rx="22" ry="22"/><path class="cls-3" d="M104,4c11.03,0,20,8.97,20,20V104c0,11.03-8.97,20-20,20H24c-11.03,0-20-8.97-20-20V24C4,12.97,12.97,4,24,4H104M104,0H24C10.74,0,0,10.75,0,24V104C0,117.25,10.74,128,24,128H104c13.25,0,24-10.75,24-24V24C128,10.75,117.25,0,104,0h0Z"/></g><path class="cls-1" d="M106.24,44.29h-22.52V21.76c0-2.88-2.34-5.22-5.22-5.22h-28.99c-2.88,0-5.22,2.34-5.22,5.22v22.52H21.76c-2.88,0-5.22,2.34-5.22,5.22v28.99c0,2.88,2.34,5.22,5.22,5.22h22.52v22.52c0,2.88,2.34,5.22,5.22,5.22h28.99c2.88,0,5.22-2.34,5.22-5.22v-22.52h22.52c2.88,0,5.22-2.34,5.22-5.22v-28.99c0-2.88-2.34-5.22-5.22-5.22Z"/></svg>