<?xml version="1.0" encoding="UTF-8"?><svg xmlns="http://www.w3.org/2000/svg" viewBox="0 0 128 128"><defs><style>.cls-1{fill:#f29100;}.cls-2{fill:#fff;}.cls-3{fill:#662482;}</style></defs><g id="cuadrobase"><g><rect class="cls-3" x="2" y="2" width="124" height="124" rx="22" ry="22"/><path class="cls-1" d="M104,4c11.03,0,20,8.97,20,20V104c0,11.03-8.97,20-20,20H24c-11.03,0-20-8.97-20-20V24C4,12.97,12.97,4,24,4H104m0-4H24C10.75,0,0,10.75,0,24V104c0,13.25,10.75,24,24,24H104c13.25,0,24-10.75,24-24V24c0-13.25-10.75-24-24-24h0Z"/></g></g><g id="figura"><g><polygon class="cls-2" points="27.78 13.14 27.78 102.63 56.19 113.15 56.19 56.88 37.85 13.14 27.78 13.14"/><path class="cls-2" d="M103.41,55.94L85.48,13.13H43.15l18.04,43.04v57.76l42.33-1.45-.23-54.52,.14-2.02Zm-44.2-13.47l-7.32-17.93,23.66-.15,3.24,18.08h-19.58Zm3.38,8.22l17.35-.3,14.09,6.2-28.85,.28-2.59-6.18Zm34.29,23.03h-14.68v-8.28h14.68v8.28Zm-13.5-24.88l-5.19-29.19-28.29,.15-1.58-3.26h33.42l15.86,36.75-14.23-4.45Z"/></g></g></svg>