<?xml version="1.0" encoding="UTF-8"?><svg xmlns="http://www.w3.org/2000/svg" viewBox="0 0 128 128"><defs><style>.cls-1{fill:#ffec00;}.cls-2{fill:#662482;}</style></defs><g id="basecuadro"><g><rect class="cls-2" x="2" y="2" width="124" height="124" rx="22" ry="22"/><path class="cls-1" d="M104,4c11.03,0,20,8.97,20,20V104c0,11.03-8.97,20-20,20H24c-11.03,0-20-8.97-20-20V24C4,12.97,12.97,4,24,4H104M104,0H24C10.75,0,0,10.74,0,24V104C0,117.25,10.75,128,24,128H104c13.25,0,24-10.75,24-24V24C128,10.74,117.25,0,104,0h0Z"/></g></g><g id="figura"><path class="cls-1" d="M64,11.35c-24.64,0-44.62,21.45-44.62,41.57,0,14.86,24.34,47.75,37.06,60.84,3.74,3.85,11.37,3.85,15.11,0,12.73-13.09,37.06-45.98,37.06-60.84,0-20.12-19.98-41.57-44.62-41.57Zm0,48.84c-8.69,0-15.74-7.05-15.74-15.74s7.05-15.74,15.74-15.74,15.74,7.05,15.74,15.74-7.05,15.74-15.74,15.74Z"/></g></svg>