<?xml version="1.0" encoding="UTF-8"?><svg xmlns="http://www.w3.org/2000/svg" viewBox="0 0 128 128"><defs><style>.cls-1{fill:#ffec00;}.cls-2{fill:#7a6a58;}</style></defs><g id="cuadrobase"><g><rect class="cls-2" x="2" y="2" width="124" height="124" rx="22" ry="22"/><path class="cls-1" d="M104,4c11.03,0,20,8.97,20,20V104c0,11.03-8.97,20-20,20H24c-11.03,0-20-8.97-20-20V24C4,12.97,12.97,4,24,4H104m0-4H24C10.75,0,0,10.75,0,24V104c0,13.25,10.75,24,24,24H104c13.25,0,24-10.75,24-24V24c0-13.25-10.75-24-24-24h0Z"/></g></g><g id="figura"><g><path class="cls-1" d="M115.01,87.46c0-14.42-13.79-11.6-13.79-11.6-7.52,.94-15.04-1.25-15.04-1.25-24.44-4.07-23.35-53.59-23.35-53.59H23.97V60.82l-4.54,12.22v15.36H53.59l7.52,6.98h53.9v-7.92ZM54.55,25.4c3.24,0,5.87,2.62,5.87,5.86s-2.63,5.86-5.87,5.86-5.86-2.63-5.86-5.86,2.63-5.86,5.86-5.86Zm-4.45,22.41c0-3.24,2.63-5.86,5.87-5.86s5.86,2.63,5.86,5.86-2.62,5.86-5.86,5.86-5.87-2.62-5.87-5.86Zm10.6,23.01c-3.24,0-5.86-2.63-5.86-5.86s2.62-5.86,5.86-5.86,5.86,2.62,5.86,5.86-2.62,5.86-5.86,5.86Z"/><rect class="cls-1" x="19.12" y="95.29" width="32.12" height="11.44"/><polygon class="cls-1" points="115.17 100.94 65.97 100.94 71.92 107.05 117.21 107.36 115.17 100.94"/></g></g></svg>