<svg xmlns="http://www.w3.org/2000/svg" viewBox="0 0 128 128"><defs><style>.cls-1{fill:#eaa1c7}.cls-2{fill:#ffec00}.cls-3{fill:#662482}</style></defs><g id="cuadrobase"><g><rect width="124" height="124" x="2" y="2" class="cls-1" rx="22" ry="22"/><path d="M104,4c11.03,0,20,8.97,20,20V104c0,11.03-8.97,20-20,20H24c-11.03,0-20-8.97-20-20V24C4,12.97,12.97,4,24,4H104m0-4H24C10.75,0,0,10.75,0,24V104C0,117.25,10.75,128,24,128H104c13.25,0,24-10.75,24-24V24c0-13.25-10.75-24-24-24h0Z" class="cls-3"/></g></g><g id="figura"><g><rect width="20.94" height="97.04" x="53.53" y="15.48" class="cls-2"/><rect width="20.73" height="71.81" x="53.64" y="12.89" class="cls-2" transform="translate(112.79 -15.21) rotate(90)"/></g></g></svg>