<?xml version="1.0" encoding="UTF-8"?><svg id="iconoAGUA" xmlns="http://www.w3.org/2000/svg" viewBox="0 0 128 128"><defs><style>.cls-1{fill:#e6332a;}.cls-2{fill:#2fac66;}.cls-3{fill:#36a9e1;}</style></defs><g><rect class="cls-2" x="2" y="2" width="124" height="124" rx="22" ry="22"/><path class="cls-3" d="M104,4c11.03,0,20,8.97,20,20V104c0,11.03-8.97,20-20,20H24c-11.03,0-20-8.97-20-20V24C4,12.97,12.97,4,24,4H104M104,0H24C10.75,0,0,10.75,0,24V104C0,117.25,10.75,128,24,128H104c13.25,0,24-10.75,24-24V24C128,10.75,117.25,0,104,0h0Z"/></g><polygon class="cls-1" points="120.63 100.63 80.58 66.05 109.78 66.05 74.18 35.74 97.39 35.74 64 7.66 30.81 35.74 51.15 35.74 17.54 66.05 44.75 66.05 7.37 100.63 51.45 100.63 51.45 120.34 76.55 120.34 76.55 100.63 120.63 100.63"/></svg>