<?xml version="1.0" encoding="UTF-8"?><svg xmlns="http://www.w3.org/2000/svg" viewBox="0 0 128 128"><defs><style>.cls-1{fill:#ffec00;}.cls-2{fill:#ececec;}.cls-3{fill:#e61b72;fill-rule:evenodd;}</style></defs><g id="cuadrobase"><g><rect class="cls-2" x="2" y="2" width="124" height="124" rx="22" ry="22"/><path class="cls-1" d="M104,4c11.03,0,20,8.97,20,20V104c0,11.03-8.97,20-20,20H24c-11.03,0-20-8.97-20-20V24C4,12.97,12.97,4,24,4H104m0-4H24C10.75,0,0,10.75,0,24V104c0,13.25,10.75,24,24,24H104c13.25,0,24-10.75,24-24V24c0-13.25-10.75-24-24-24h0Z"/></g></g><g id="figura"><path class="cls-3" d="M107.28,89.28c.11,.53,.17,1.07,.17,1.61,0,10.04-19.14,11.64-42.71,11.64s-42.71-1.6-42.71-11.64c0-.54,.06-1.08,.17-1.61H107.28Zm-2.92-12.1H24.29c-5.68,0-10.29-1.77-10.29-3.96s4.61-3.96,10.29-3.96h24.44c8.59,1.43,15.25,3.65,15.26,3.65,.02,0,6.67-2.22,15.26-3.65h25.1c5.68,0,10.29,1.77,10.29,3.96s-4.61,3.96-10.29,3.96h0Zm-40.36-24.33c12.44-.01,39,.42,44.76,1.7,1.61,.36,5.24,1.64,6.38,3.85-7.45-3.46-17.18-3.44-27.13-2.34-12.37,1.36-23.99,8.08-24.01,8.06-.02,.02-11.64-6.7-24.01-8.06-9.95-1.09-19.67-1.11-27.13,2.34,1.14-2.2,4.77-3.49,6.38-3.85,5.76-1.28,32.32-1.72,44.76-1.7h0Zm43.29-9.97H22.19c-.11-.53-.17-1.07-.17-1.61,0-10.04,19.14-18.2,42.71-18.2s42.71,8.16,42.71,18.2c0,.54-.06,1.08-.17,1.61h0Z"/></g></svg>