<?xml version="1.0" encoding="UTF-8"?><svg xmlns="http://www.w3.org/2000/svg" viewBox="0 0 128 128"><defs><style>.cls-1{fill:#f29100;}.cls-2{fill:#fff;}.cls-3{fill:#662482;}</style></defs><g id="basecuadro"><g><rect class="cls-3" x="2" y="2" width="124" height="124" rx="22" ry="22"/><path class="cls-1" d="M104,4c11.03,0,20,8.97,20,20V104c0,11.03-8.97,20-20,20H24c-11.03,0-20-8.97-20-20V24C4,12.97,12.97,4,24,4H104M104,0H24C10.75,0,0,10.74,0,24V104C0,117.25,10.75,128,24,128H104c13.25,0,24-10.75,24-24V24C128,10.74,117.26,0,104,0h0Z"/></g></g><g id="figura"><g><path class="cls-2" d="M95.39,107.84c-9.28,0-15.16-2.76-19.89-4.98-3.99-1.88-6.63-3.12-11.26-3.12s-7.99,1.45-12.22,3.27c-4.9,2.12-10.99,4.76-19.51,4.76-9.64,0-16.33-3.15-21.21-5.45-3.32-1.56-5.45-2.52-7.25-2.52v-12.04c6.99,0,12.09,2.4,16.59,4.52,4.09,1.93,7.33,3.45,11.88,3.45,3.6,0,6.29-1.09,10.72-3.01,5.17-2.24,11.61-5.03,21.01-5.03s15.74,2.83,20.58,5.11c4.19,1.97,6.56,2.99,10.57,2.99,5.23,0,8.47-1.54,12.56-3.49,4.08-1.94,9.16-4.36,16.02-4.36v12.04c-1.64,0-3.49,.84-6.61,2.33-4.9,2.33-11.6,5.52-21.97,5.52Z"/><path class="cls-2" d="M95.39,79.01c-9.28,0-15.16-2.76-19.89-4.98-3.99-1.88-6.63-3.12-11.26-3.12s-7.99,1.45-12.22,3.27c-4.9,2.12-10.99,4.76-19.51,4.76-9.64,0-16.33-3.15-21.21-5.45-3.32-1.56-5.45-2.52-7.25-2.52v-12.04c6.99,0,12.09,2.4,16.59,4.52,4.09,1.93,7.33,3.45,11.88,3.45,3.6,0,6.29-1.09,10.72-3.01,5.17-2.24,11.61-5.03,21.01-5.03s15.74,2.83,20.58,5.11c4.19,1.97,6.56,2.99,10.57,2.99,5.23,0,8.47-1.54,12.56-3.49,4.08-1.94,9.16-4.36,16.02-4.36v12.04c-1.64,0-3.49,.84-6.61,2.33-4.9,2.33-11.6,5.52-21.97,5.52Z"/><path class="cls-2" d="M78.13,33.34c0,7.5-5.61,13.57-12.52,13.57s-12.52-6.08-12.52-13.57c0-5.54,6.83-19.71,10.4-24.59,1.05-1.43,3.19-1.43,4.24,0,3.57,4.88,10.4,19.05,10.4,24.59Z"/></g></g></svg>