<?xml version="1.0" encoding="UTF-8"?><svg xmlns="http://www.w3.org/2000/svg" viewBox="0 0 128 128"><defs><style>.cls-1{fill:#e5332a;}.cls-2{fill:#00a099;}.cls-3{fill:#35a8e0;}</style></defs><g id="cuadrobase"><g><rect class="cls-2" x="2" y="2" width="124" height="124" rx="22" ry="22"/><path class="cls-3" d="M104,4c11.03,0,20,8.97,20,20V104c0,11.03-8.97,20-20,20H24c-11.03,0-20-8.97-20-20V24C4,12.97,12.97,4,24,4H104m0-4H24C10.75,0,0,10.75,0,24V104c0,13.25,10.75,24,24,24H104c13.25,0,24-10.75,24-24V24c0-13.25-10.75-24-24-24h0Z"/></g></g><g id="figura"><g><g><path class="cls-1" d="M24.17,73.17c1.54-.25,4.93-1.06,6.47-1.32,.65-.11,1.7,.27,1.94,.91,.08,.22,.42,1.04,.4,1.28-.1,1.11-.12,2.28-.22,3.4-.08,.89-.61,1.99,.07,2.52,.82,.63,1.18-.98,1.79-1.83s1.34-1.78,2.16-2.41c.88-.68,3.16-.8,3.91-.55,.88,.29,2.34,.65,3.03,1.53,.61,.78,1.74,2.64,2.67,2.92,1.59,.48,.99-.89,.11-2.37-.3-.52-.56-1.52-.25-2.03,.1-.17,.28-.27,.45-.34,1.17-.47,2.87-.25,4.11-.08s4.19,1.16,4.02-.15c-.14-1.07-3.86-1.33-4.86-1.53-1.89-.39-4.75-.92-6.65-1.32,1.74-1.17,6-2.74,7.74-3.91,.29-.19,.57-.85,.37-1.35-.12-.29-.83-.98-1.08-1.15-2.83-1.97-6.85,.52-8.74,3.49-.87-.05-1.44-2.79-1.57-3.7-.13-.91-.56-2.05-1.43-1.98-.7,.06-1.06,.92-1.13,1.66s.62,3.55,.18,4.13l-.84-.91c-.51-1.35-6.97-1.57-9.97-.58-.91,1.42,3.2,.89,4.42,1.69-2.03,.37-5.44,.75-7.4,1.42-.9,.31-1.99,1.15-1.56,2.03,.32,.64,1.18,.63,1.87,.51Z"/><path class="cls-1" d="M49.03,70.33c-.47,.3-.94,.59-1.41,.89,2.35,.46,4.69,.92,7.04,1.38,1.24,.24,2.75,.75,2.93,2,.22,1.53-1.8,2.4-3.34,2.2,.71,.68,2.38,2.67,2.76,3.66,1.58,4.11-.48,7.18-1.63,9.06-1.15,1.88-2.45,2.11-2.45,2.11,0,0,2.14-5.41-.31-10.58-1.21-2.56-1.89-3.04-3.31-4.42-.07,.06-.14,.12-.19,.2-.39,.6,.27,1.3,.64,1.9,1.09,1.74-.9,4.38-2.88,3.82-1.15-.33-1.9-1.38-2.66-2.3-.86-1.04-1.86-2.01-3.11-2.53-.33-.14-.68-.23-1.03-.29,.28,1.3,1.56,4.33,1.21,5.85-.59,2.58-1.96,6.95-1.96,6.95,0,0-1.04-4.2-1.27-8.31-.09-1.58,.52-3.76,.74-4.5-.56,.08-1.1,.26-1.56,.6-1.01,.74-1.47,2-2.23,3s-2.21,1.76-3.23,1.02c-.85-.62-.84-1.87-.74-2.91,.12-1.31,.25-2.61,.37-3.92,.01-.15,.03-.31,.02-.47-1.22,1.37-2.35,.68-3.47,3.57-2,5.17,.08,11.93,.08,11.93,0,0-1.06-.23-2-2.11-.94-1.88-2.61-6.13-1.32-10.24,.62-1.96,2.82-3.25,4.07-4.09-1.77,.27-3.53,.55-5.3,.82-.84,.13-1.92,.15-2.31-.6-.09-.18-.13-.35-.12-.52-2.74,1.99-4.36,5.01-4.36,9.54,0,11.4,10.22,20.65,22.82,20.65s22.82-9.25,22.82-20.65c0-8.35-5.48-11.56-13.36-12.69Z"/></g><g><path class="cls-1" d="M58.58,53.68c2.25,4.05,16.78,23.26,20.43,21.23s-4.96-24.52-7.21-28.57-7.03-5.68-10.68-3.66-4.79,6.95-2.55,11Z"/><path class="cls-1" d="M59.55,40.14c.09,.01,.19,.02,.28,.01-.06-.04-.12-.08-.17-.13l-.11,.12Z"/><path class="cls-1" d="M59.51,40.18l.04-.04s-.05-.01-.07-.02c.01,.02,.02,.04,.03,.06Z"/><path class="cls-1" d="M55.86,17.3c.11,1.7,.45,3.38,1,4.99,.13,.36,.26,.72,.4,1.08,.3,.72,.64,1.42,.89,2.15,.06,.18,.11,.42-.04,.55-.1,.09-.26,.09-.4,.07-.59-.09-1.19-.33-1.78-.22-.1,.02-.21,.05-.28,.14-.08,.1-.07,.23-.05,.36,.18,1.35,1.08,2.4,1.96,3.47,0,.1,.04,.19,.13,.24,.03,.02,.06,.03,.1,.04,.08,.02,.17,.02,.26,.03,.31,.05,.52,.35,.68,.62,1,1.66,1.81,3.43,2.41,5.27,.28,.87,.52,1.8,.26,2.68-.21,.72-.88,1.35-1.59,1.4,.56,.36,1.39,.17,1.87-.32,.53-.55,.72-1.33,.86-2.08,.28-1.6,.37-3.22,.29-4.84-.01-.27-.05-.56-.26-.73-.08-.06-.19-.1-.24-.19-.1-.17,.06-.37,.21-.5,.68-.57,1.44-1.1,1.89-1.87,.5-.87,.52-1.93,.49-2.93-.02-.56-.17-1.26-.72-1.37-.3-.06-.59,.11-.84,.29-.25,.18-.5,.38-.8,.43-.3,.05-.67-.16-.65-.46,0-.19,.16-.35,.28-.5,.88-1.04,.9-2.54,.75-3.9-.13-1.1-.34-2.19-.65-3.25-.37-1.26-1.02-2.63-2.27-3-.65-.19-1.35-.08-2.02,.05-.77,.14-1.63,.36-1.99,1.05-.2,.39-.19,.84-.16,1.27Z"/><path class="cls-1" d="M41.41,13.95c-.73,.58-1.52,1.29-1.51,2.22,0,.52,.27,1,.54,1.44,1.31,2.12,2.96,4.03,4.89,5.62,.71,.59,1.47,1.14,2.14,1.77,.17,.16,.35,.38,.27,.6-.06,.16-.23,.24-.38,.29-.68,.24-1.44,.32-2,.76-.1,.08-.2,.18-.22,.3-.02,.15,.06,.29,.14,.41,1.53,2.14,4.61,2.4,6.73,3.96,.27,.2,.54,.46,.54,.79,0,.22-.13,.42-.27,.59-.38,.51-.84,.96-1.35,1.34-.16,.12-.33,.26-.32,.45,0,.13,.11,.24,.2,.34,1.87,1.91,4,3.56,6.31,4.9l.07-.26s.07,.02,.1,.02c.02,0,.05,.01,.07,.02l.11-.12c.05,.05,.11,.09,.17,.13,.71-.05,1.38-.68,1.59-1.4,.26-.87,.02-1.81-.26-2.68-.6-1.84-1.23-2.53-2.23-4.19-.16-.27-.37-.57-.68-.62-.09-.01-.18-.01-.26-.03-.03,0-.07-.02-.1-.04-.09-.05-.12-.14-.13-.24-.89-1.07-2.31-4.06-2.49-5.41-.02-.12-.02-.26,.05-.36,.06-.08,.17-.12,.28-.14,.59-.11,1.19-.57,1.78-.48,.14,.02,.29,.03,.4-.07,.15-.13,.1-.36,.04-.55-.25-.73-.25-.58-.54-1.3-.15-.36-.28-.72-.4-1.08-.27-.23-.58-.37-.91-.26-.35,.11-.57,.45-.73,.77-.16,.33-.31,1.39-.6,1.61-.29,.22-.79,.21-.95-.12-.1-.21-.03-.45,.02-.68,.34-1.59-.47-3.19-1.39-4.53-.75-1.09-1.59-2.12-2.51-3.07-1.09-1.12-2.55-2.21-4.08-1.9-.8,.16-1.47,.68-2.11,1.18Z"/></g><g><path class="cls-1" d="M94.54,78.34l2.92-.03s-.27-13.9-2.92-23.1-10.45-21.25-10.45-21.25c0,0,7.87,19.75,9,29.73,1.13,9.98,1.45,14.65,1.45,14.65Z"/><path class="cls-1" d="M98.74,63.97c1.05,8.81,1.39,13.82,1.39,13.82l1.6,.39s-2.15-21.65-2.87-32.33,1.82-22.92,1.82-22.92c0,0-1.64,2.29-4.04,6.81-2.39,4.52-2.89,17.13-2.61,17.95s3.66,7.46,4.71,16.28Z"/><path class="cls-1" d="M105.04,106.25c4.14-2.27,6.81-6.8,6.47-11.83s-3.66-11.24-8.07-14.2c-1.46,.52-3.11,.88-4.86,.99-2.04,.14-3.98-.05-5.68-.5-4.13,3.46-6.71,10.33-6.37,15.41s3.61,9.17,8.04,10.85c-.25,.48,.76,.38,1.47,.46,.13,.03,.26,.06,.4,.09,.03,.01,.05,.02,.08,.03-.86,.22-2.3,.48-3.12,.82-.37,.16-.82,.55-.61,.91,.15,.27,.52,.23,.81,.17,.65-.15,2.07-.6,2.72-.75,.27-.06,.73,.07,.85,.33,.04,.09,.21,.43,.21,.53-.01,.48,.02,.98,0,1.46,0,.38-.2,.87,.1,1.07,.37,.24,.48-.45,.71-.83,.24-.38,.52-.8,.85-1.09,.36-.32,1.33-.43,1.65-.35,.38,.1,1.02,.21,1.34,.57,.28,.32,.82,1.08,1.22,1.17,.69,.16,.4-.41-.02-1.02-.14-.21-.28-.63-.17-.86,.04-.07,.11-.12,.18-.16,.48-.23,1.22-.19,1.75-.15,.53,.04,1.82,.37,1.71-.18-.09-.45-1.68-.45-2.12-.51-.82-.11-2.06-.26-2.88-.37,.71-.55,2.48-1.34,3.19-1.89,.05-.04,.09-.1,.12-.18Z"/></g></g></g></svg>