<?xml version="1.0" encoding="UTF-8"?><svg xmlns="http://www.w3.org/2000/svg" viewBox="0 0 128 128"><defs><style>.cls-1{fill:#eaa1c7;}.cls-2{fill:#e61b72;}.cls-3{fill:#fff;}.cls-4{fill:#662482;}</style></defs><g id="basecuadro"><g><rect class="cls-4" x="2" y="2" width="124" height="124" rx="22" ry="22"/><path class="cls-1" d="M104,4c11.03,0,20,8.97,20,20V104c0,11.03-8.97,20-20,20H24c-11.03,0-20-8.97-20-20V24C4,12.97,12.97,4,24,4H104M104,0H24C10.75,0,0,10.75,0,24V104C0,117.25,10.75,128,24,128H104c13.25,0,24-10.75,24-24V24C128,10.75,117.26,0,104,0h0Z"/></g></g><g id="trsnsfuga"><path class="cls-2" d="M24,124H104c9.16,0,16.88-6.2,19.24-14.62l-9.58-27.7-20.05-6.37L63.03,16.22l-21.8,39.56-26.85,17.91-10.34,31.07c.41,10.67,9.19,19.24,19.96,19.24Z"/><path class="cls-3" d="M44.03,104.05l20.99-28.29-2.05-45.15-17.05,32.04-26.52,17.36-11.04,36.6c4.44,5.4,10.81,7.48,15.63,7.39h61.69l-8.48-35.87-33.18,15.91Z"/></g></svg>