<svg xmlns="http://www.w3.org/2000/svg" viewBox="0 0 128 128"><defs><style>.cls-1{fill:#ffec00}.cls-2{fill:#1d70b7}</style></defs><g id="cuadrobase"><g><rect width="124" height="124" x="2" y="2" class="cls-2" rx="22" ry="22"/><path d="M104,4c11.03,0,20,8.97,20,20V104c0,11.03-8.97,20-20,20H24c-11.03,0-20-8.97-20-20V24C4,12.97,12.97,4,24,4H104m0-4H24C10.75,0,0,10.75,0,24V104c0,13.25,10.75,24,24,24H104c13.25,0,24-10.75,24-24V24c0-13.25-10.75-24-24-24h0Z" class="cls-1"/></g></g><g id="gt"><g><rect width="109.16" height="5.75" x="9.42" y="93.74" class="cls-1"/><rect width="11.2" height="37.6" x="24.4" y="40.44" class="cls-1"/><rect width="11.2" height="37.6" x="93.3" y="40.44" class="cls-1"/><path d="M41.4,78.72h15.63v-19.12h15.19v19.12h15.38V37.47h21.88v-5.86H18.77v5.86h22.62v41.25Zm33.14-37.83h8.23v8.54h-8.23v-8.54Zm-14.46,0h8.23v8.54h-8.23v-8.54Zm-15.86,0h8.23v8.54h-8.23v-8.54Z" class="cls-1"/><polygon points="64.14 14.08 19.88 27.23 108.41 27.23 64.14 14.08" class="cls-1"/><rect width="88.76" height="5.75" x="19.62" y="83.27" class="cls-1"/><path d="M4.05,105.19c0,10.42,8.44,18.86,18.86,18.86H105.1c10.42,0,18.86-8.44,18.86-18.86H4.05Z" class="cls-1"/></g></g></svg>