<?xml version="1.0" encoding="UTF-8"?><svg xmlns="http://www.w3.org/2000/svg" viewBox="0 0 128 128"><defs><style>.cls-1{fill:#ffec00;}.cls-2{fill:#662482;}</style></defs><g id="cuadrobase"><g><rect class="cls-2" x="2" y="2" width="124" height="124" rx="22" ry="22"/><path class="cls-1" d="M104,4c11.03,0,20,8.97,20,20V104c0,11.03-8.97,20-20,20H24c-11.03,0-20-8.97-20-20V24C4,12.97,12.97,4,24,4H104m0-4H24C10.75,0,0,10.75,0,24V104c0,13.25,10.75,24,24,24H104c13.25,0,24-10.75,24-24V24c0-13.25-10.75-24-24-24h0Z"/></g></g><g id="figura"><path class="cls-1" d="M90.75,105.2h-21.03v-40.5L107.71,15.96H20.29s38.67,48.51,38.67,48.51v40.73h-20.67c-7.11,0-7.11,10.63,0,10.63h52.45c7.11,0,7.05-10.63,0-10.63ZM57.63,42.95c0-6.1,4.95-11.05,11.05-11.05s11.05,4.95,11.05,11.05-4.95,11.05-11.05,11.05-11.05-4.95-11.05-11.05Z"/></g></svg>