<svg width="96" height="96" xmlns="http://www.w3.org/2000/svg" xmlns:xlink="http://www.w3.org/1999/xlink" xml:space="preserve" overflow="hidden"><defs><clipPath id="clip0"><rect x="294" y="346" width="96" height="96"/></clipPath></defs><g clip-path="url(#clip0)" transform="translate(-294 -346)"><path d="M365.668 390.912C363.04 392.564 360.935 394.929 359.598 397.731 359.176 398.624 360.278 399.273 361.077 398.616 362.896 397.112 365.016 396.015 367.294 395.4 369.094 394.918 370.075 392.988 369.238 391.576L369.198 391.509C368.405 390.372 366.84 390.094 365.703 390.887 365.691 390.895 365.68 390.904 365.668 390.912Z" stroke="#FFFFFF" fill="#021EA8"/><path d="M322.75 394.622C324.493 395.014 326.112 395.831 327.462 397 327.775 397.272 328.249 397.24 328.521 396.927 328.7 396.722 328.754 396.436 328.662 396.18 327.803 393.952 326.259 392.054 324.252 390.76 323.315 390.17 322.076 390.451 321.486 391.389 321.474 391.407 321.463 391.425 321.452 391.444L321.418 391.503C320.822 392.491 321.139 393.776 322.128 394.372 322.32 394.488 322.53 394.573 322.75 394.622Z" stroke="#FFFFFF" fill="#021EA8"/><path d="M375.941 408.572 375.926 408.506C375.677 407.427 374.6 406.753 373.52 407.002 373.499 407.007 373.478 407.012 373.457 407.018 371.156 407.656 369.116 409.008 367.632 410.879 367.38 411.209 367.443 411.681 367.773 411.933 367.993 412.101 368.287 412.135 368.539 412.021 370.176 411.305 371.965 411.006 373.746 411.15 374.897 411.241 375.903 410.382 375.994 409.231 376.011 409.01 375.993 408.787 375.941 408.572Z" stroke="#FFFFFF" fill="#021EA8"/><path d="M311.391 411.748C313.716 411.34 316.1 411.436 318.385 412.028 319.385 412.284 320.11 411.228 319.35 410.6 316.953 408.627 314.044 407.376 310.963 406.993 309.602 406.732 308.286 407.625 308.026 408.987 308.023 409.001 308.021 409.016 308.018 409.03L308.01 409.107C307.85 410.741 309.558 412.073 311.391 411.748Z" stroke="#FFFFFF" fill="#021EA8"/><path d="M345.654 400.523C346.185 400.474 346.603 400.048 346.641 399.516 346.881 396.033 348.207 383.288 355.056 372.704 356.821 369.922 356.23 366.259 353.678 364.174L353.678 364.174C350.903 361.864 346.78 362.242 344.47 365.017 343.759 365.872 343.277 366.895 343.071 367.988 340.846 380.526 343.671 395.734 344.479 399.656 344.592 400.203 345.098 400.576 345.654 400.523Z" stroke="#FFFFFF" fill="#021EA8"/><path d="M363.481 416.911C364.881 416.273 365.708 415.529 365.708 414.731 365.708 413.231 362.851 411.915 358.547 411.159 360.153 410.305 361.866 409.669 363.64 409.266 365.782 408.779 367.124 406.647 366.636 404.505 366.543 404.093 366.384 403.699 366.167 403.338L366.101 403.227C365.035 401.408 362.697 400.797 360.878 401.863 360.843 401.884 360.808 401.905 360.773 401.927 357.478 404.048 354.832 407.037 353.127 410.565 352.373 410.525 351.596 410.503 350.807 410.494 356.788 394.242 364.662 384.6 369.634 380.551 372.029 378.661 372.437 375.187 370.547 372.792 368.657 370.398 365.183 369.989 362.788 371.879 362.506 372.102 362.247 372.352 362.013 372.625 353.369 382.344 349.372 398.325 347.523 410.546 346.261 410.604 345.048 410.7 343.909 410.836 343.909 410.827 343.909 410.818 343.909 410.809 341.214 395.438 335.55 374.464 323.883 362.209 321.311 359.403 316.951 359.213 314.144 361.785 311.338 364.357 311.148 368.717 313.72 371.524 314.021 371.853 314.354 372.151 314.713 372.416 321.343 377.45 332.149 389.886 340.438 411.409 339.65 411.58 338.925 411.771 338.273 411.98 336.139 407.606 332.846 403.901 328.753 401.269 326.528 399.866 323.587 400.532 322.183 402.757 322.155 402.802 322.127 402.848 322.1 402.894L322.018 403.032C320.605 405.381 321.363 408.431 323.712 409.845 324.164 410.117 324.657 410.315 325.172 410.432 328.018 411.075 330.732 412.198 333.2 413.754 331.987 413.654 330.706 413.602 329.378 413.602 321.941 413.602 315.912 415.246 315.912 417.275 315.912 418.497 318.112 419.575 321.481 420.245 321.259 420.577 321.137 420.966 321.128 421.365 321.124 425.03 332.016 428 345.451 428 358.886 428 369.778 425.03 369.778 421.365 369.778 419.651 367.394 418.089 363.481 416.911Z" stroke="#FFFFFF" fill="#021EA8"/><path d="M312.792 420.947C310.8 420.947 309.185 421.387 309.185 421.931 309.185 422.475 310.8 422.915 312.792 422.915 314.784 422.915 316.399 422.474 316.399 421.931 316.399 421.388 314.784 420.947 312.792 420.947Z" stroke="#FFFFFF" fill="#021EA8"/></g></svg>