<svg width="96" height="96" xmlns="http://www.w3.org/2000/svg" xmlns:xlink="http://www.w3.org/1999/xlink" xml:space="preserve" overflow="hidden"><defs><clipPath id="clip0"><rect x="376" y="0" width="96" height="96"/></clipPath></defs><g clip-path="url(#clip0)" transform="translate(-376 0)"><path d="M447.668 44.912C445.04 46.5641 442.935 48.9289 441.598 51.731 441.176 52.624 442.278 53.273 443.077 52.616 444.896 51.1117 447.016 50.015 449.294 49.4 451.094 48.918 452.075 46.988 451.238 45.576L451.198 45.509C450.405 44.3722 448.84 44.0937 447.703 44.8869 447.691 44.8952 447.68 44.9035 447.668 44.912Z" stroke="#FFFFFF" fill="#026494"/><path d="M404.75 48.622C406.493 49.0137 408.112 49.8307 409.462 51 409.775 51.2723 410.249 51.2395 410.521 50.9267 410.7 50.7216 410.754 50.436 410.662 50.18 409.803 47.9518 408.259 46.0539 406.252 44.76 405.315 44.1697 404.076 44.4511 403.486 45.3887 403.474 45.4069 403.463 45.4254 403.452 45.444L403.418 45.503C402.822 46.4913 403.139 47.7759 404.128 48.3722 404.32 48.4884 404.53 48.5728 404.75 48.622Z" stroke="#FFFFFF" fill="#026494"/><path d="M457.941 62.572 457.926 62.506C457.677 61.4265 456.6 60.7532 455.52 61.0023 455.499 61.0072 455.478 61.0124 455.457 61.018 453.156 61.656 451.116 63.0079 449.632 64.879 449.38 65.209 449.443 65.6809 449.773 65.9331 449.993 66.1011 450.287 66.1349 450.539 66.021 452.176 65.3048 453.965 65.0056 455.746 65.15 456.897 65.2408 457.903 64.3815 457.994 63.2308 458.011 63.0098 457.993 62.7874 457.941 62.572Z" stroke="#FFFFFF" fill="#026494"/><path d="M393.391 65.748C395.716 65.3401 398.1 65.4356 400.385 66.028 401.385 66.284 402.11 65.228 401.35 64.6 398.953 62.6272 396.044 61.3763 392.963 60.993 391.602 60.7324 390.286 61.6249 390.026 62.9865 390.023 63.0009 390.021 63.0155 390.018 63.03L390.01 63.107C389.85 64.741 391.558 66.073 393.391 65.748Z" stroke="#FFFFFF" fill="#026494"/><path d="M427.654 54.523C428.185 54.4744 428.603 54.0481 428.641 53.516 428.881 50.033 430.207 37.288 437.056 26.704 438.821 23.9216 438.23 20.259 435.678 18.174L435.678 18.174C432.903 15.8642 428.78 16.2417 426.47 19.0172 425.759 19.8723 425.277 20.8948 425.071 21.988 422.846 34.526 425.671 49.734 426.479 53.656 426.592 54.2026 427.098 54.5764 427.654 54.523Z" stroke="#FFFFFF" fill="#026494"/><path d="M445.481 70.911C446.881 70.273 447.708 69.529 447.708 68.731 447.708 67.231 444.851 65.915 440.547 65.159 442.153 64.3053 443.866 63.6687 445.64 63.266 447.782 62.7785 449.124 60.6468 448.636 58.5045 448.543 58.0933 448.384 57.6995 448.167 57.338L448.101 57.227C447.035 55.4081 444.697 54.7975 442.878 55.8631 442.843 55.8839 442.808 55.9052 442.773 55.927 439.478 58.0477 436.832 61.0368 435.127 64.565 434.373 64.525 433.596 64.503 432.807 64.494 438.788 48.242 446.662 38.6 451.634 34.551 454.029 32.6606 454.437 29.187 452.547 26.7924 450.657 24.3978 447.183 23.9891 444.788 25.8794 444.506 26.1021 444.247 26.3518 444.013 26.625 435.369 36.344 431.372 52.325 429.523 64.546 428.261 64.604 427.048 64.7 425.909 64.836 425.909 64.827 425.909 64.818 425.909 64.809 423.214 49.438 417.55 28.464 405.883 16.209 403.311 13.4026 398.951 13.2127 396.144 15.7849 393.338 18.3571 393.148 22.7174 395.72 25.5239 396.021 25.8527 396.354 26.1514 396.713 26.416 403.343 31.45 414.149 43.886 422.438 65.409 421.65 65.58 420.925 65.771 420.273 65.98 418.139 61.6062 414.846 57.9015 410.753 55.269 408.528 53.8657 405.587 54.5317 404.183 56.7566 404.155 56.802 404.127 56.8478 404.1 56.894L404.018 57.032C402.605 59.3811 403.363 62.4312 405.712 63.8447 406.164 64.1168 406.657 64.3151 407.172 64.432 410.018 65.0746 412.732 66.198 415.2 67.754 413.987 67.654 412.706 67.602 411.378 67.602 403.941 67.602 397.912 69.246 397.912 71.275 397.912 72.497 400.112 73.575 403.481 74.245 403.259 74.5772 403.137 74.9657 403.128 75.365 403.124 79.03 414.016 82 427.451 82 440.886 82 451.778 79.03 451.778 75.365 451.778 73.651 449.394 72.089 445.481 70.911Z" stroke="#FFFFFF" fill="#026494"/><path d="M394.792 74.947C392.8 74.947 391.185 75.387 391.185 75.931 391.185 76.475 392.8 76.915 394.792 76.915 396.784 76.915 398.399 76.474 398.399 75.931 398.399 75.388 396.784 74.947 394.792 74.947Z" stroke="#FFFFFF" fill="#026494"/></g></svg>