<svg width="96" height="96" xmlns="http://www.w3.org/2000/svg" xmlns:xlink="http://www.w3.org/1999/xlink" xml:space="preserve" overflow="hidden"><defs><clipPath id="clip0"><rect x="857" y="346" width="96" height="96"/></clipPath></defs><g clip-path="url(#clip0)" transform="translate(-857 -346)"><path d="M928.668 390.912C926.04 392.564 923.935 394.929 922.598 397.731 922.176 398.624 923.278 399.273 924.077 398.616 925.896 397.112 928.016 396.015 930.294 395.4 932.094 394.918 933.075 392.988 932.238 391.576L932.198 391.509C931.405 390.372 929.84 390.094 928.703 390.887 928.691 390.895 928.68 390.904 928.668 390.912Z" stroke="#FFFFFF" fill="#B3BDF1"/><path d="M885.75 394.622C887.493 395.014 889.112 395.831 890.462 397 890.775 397.272 891.249 397.24 891.521 396.927 891.7 396.722 891.754 396.436 891.662 396.18 890.803 393.952 889.259 392.054 887.252 390.76 886.315 390.17 885.076 390.451 884.486 391.389 884.474 391.407 884.463 391.425 884.452 391.444L884.418 391.503C883.822 392.491 884.14 393.776 885.128 394.372 885.32 394.488 885.531 394.573 885.75 394.622Z" stroke="#FFFFFF" fill="#B3BDF1"/><path d="M938.941 408.572 938.926 408.506C938.677 407.427 937.6 406.753 936.52 407.002 936.499 407.007 936.478 407.012 936.457 407.018 934.156 407.656 932.116 409.008 930.632 410.879 930.38 411.209 930.443 411.681 930.773 411.933 930.993 412.101 931.287 412.135 931.539 412.021 933.176 411.305 934.965 411.006 936.746 411.15 937.897 411.241 938.903 410.382 938.994 409.231 939.011 409.01 938.994 408.787 938.941 408.572Z" stroke="#FFFFFF" fill="#B3BDF1"/><path d="M874.391 411.748C876.716 411.34 879.101 411.436 881.385 412.028 882.385 412.284 883.11 411.228 882.35 410.6 879.953 408.627 877.044 407.376 873.963 406.993 872.602 406.732 871.286 407.625 871.026 408.987 871.023 409.001 871.021 409.016 871.018 409.03L871.01 409.107C870.85 410.741 872.558 412.073 874.391 411.748Z" stroke="#FFFFFF" fill="#B3BDF1"/><path d="M908.654 400.523C909.185 400.474 909.603 400.048 909.641 399.516 909.881 396.033 911.207 383.288 918.056 372.704 919.821 369.922 919.23 366.259 916.678 364.174L916.678 364.174C913.903 361.864 909.78 362.242 907.47 365.017 906.759 365.872 906.277 366.895 906.071 367.988 903.846 380.526 906.671 395.734 907.479 399.656 907.592 400.203 908.098 400.576 908.654 400.523Z" stroke="#FFFFFF" fill="#B3BDF1"/><path d="M926.481 416.911C927.881 416.273 928.708 415.529 928.708 414.731 928.708 413.231 925.851 411.915 921.547 411.159 923.153 410.305 924.866 409.669 926.64 409.266 928.782 408.779 930.124 406.647 929.636 404.505 929.543 404.093 929.384 403.699 929.167 403.338L929.101 403.227C928.035 401.408 925.697 400.797 923.878 401.863 923.843 401.884 923.808 401.905 923.773 401.927 920.478 404.048 917.832 407.037 916.127 410.565 915.373 410.525 914.596 410.503 913.807 410.494 919.788 394.242 927.662 384.6 932.634 380.551 935.029 378.661 935.437 375.187 933.547 372.792 931.657 370.398 928.183 369.989 925.788 371.879 925.506 372.102 925.247 372.352 925.013 372.625 916.369 382.344 912.372 398.325 910.523 410.546 909.261 410.604 908.048 410.7 906.909 410.836 906.909 410.827 906.909 410.818 906.909 410.809 904.214 395.438 898.55 374.464 886.883 362.209 884.311 359.403 879.951 359.213 877.144 361.785 874.338 364.357 874.148 368.717 876.72 371.524 877.021 371.853 877.354 372.151 877.713 372.416 884.343 377.45 895.149 389.886 903.438 411.409 902.65 411.58 901.925 411.771 901.273 411.98 899.139 407.606 895.846 403.901 891.753 401.269 889.528 399.866 886.587 400.532 885.183 402.757 885.155 402.802 885.127 402.848 885.1 402.894L885.018 403.032C883.605 405.381 884.363 408.431 886.712 409.845 887.164 410.117 887.657 410.315 888.172 410.432 891.018 411.075 893.732 412.198 896.2 413.754 894.987 413.654 893.706 413.602 892.378 413.602 884.941 413.602 878.912 415.246 878.912 417.275 878.912 418.497 881.112 419.575 884.481 420.245 884.259 420.577 884.137 420.966 884.128 421.365 884.124 425.03 895.016 428 908.451 428 921.886 428 932.778 425.03 932.778 421.365 932.778 419.651 930.394 418.089 926.481 416.911Z" stroke="#FFFFFF" fill="#B3BDF1"/><path d="M875.792 420.947C873.8 420.947 872.185 421.387 872.185 421.931 872.185 422.475 873.8 422.915 875.792 422.915 877.784 422.915 879.399 422.474 879.399 421.931 879.399 421.388 877.784 420.947 875.792 420.947Z" stroke="#FFFFFF" fill="#B3BDF1"/></g></svg>