<svg width="96" height="96" xmlns="http://www.w3.org/2000/svg" xmlns:xlink="http://www.w3.org/1999/xlink" xml:space="preserve" overflow="hidden"><defs><clipPath id="clip0"><rect x="487" y="528" width="96" height="96"/></clipPath></defs><g clip-path="url(#clip0)" transform="translate(-487 -528)"><path d="M558.668 572.912C556.04 574.564 553.935 576.929 552.598 579.731 552.176 580.624 553.278 581.273 554.077 580.616 555.896 579.112 558.016 578.015 560.294 577.4 562.094 576.918 563.075 574.988 562.238 573.576L562.198 573.509C561.405 572.372 559.84 572.094 558.703 572.887 558.691 572.895 558.68 572.904 558.668 572.912Z" stroke="#FFFFFF" fill="#31CEFC"/><path d="M515.75 576.622C517.493 577.014 519.112 577.831 520.462 579 520.775 579.272 521.249 579.24 521.521 578.927 521.7 578.722 521.754 578.436 521.662 578.18 520.803 575.952 519.259 574.054 517.252 572.76 516.315 572.17 515.076 572.451 514.486 573.389 514.474 573.407 514.463 573.425 514.452 573.444L514.418 573.503C513.822 574.491 514.14 575.776 515.128 576.372 515.32 576.488 515.531 576.573 515.75 576.622Z" stroke="#FFFFFF" fill="#31CEFC"/><path d="M568.941 590.572 568.926 590.506C568.677 589.427 567.6 588.753 566.52 589.002 566.499 589.007 566.478 589.012 566.457 589.018 564.156 589.656 562.116 591.008 560.632 592.879 560.38 593.209 560.443 593.681 560.773 593.933 560.993 594.101 561.287 594.135 561.539 594.021 563.176 593.305 564.965 593.006 566.746 593.15 567.897 593.241 568.903 592.381 568.994 591.231 569.011 591.01 568.994 590.787 568.941 590.572Z" stroke="#FFFFFF" fill="#31CEFC"/><path d="M504.391 593.748C506.716 593.34 509.1 593.436 511.385 594.028 512.385 594.284 513.11 593.228 512.35 592.6 509.953 590.627 507.044 589.376 503.963 588.993 502.602 588.732 501.286 589.625 501.026 590.987 501.023 591.001 501.021 591.016 501.018 591.03L501.01 591.107C500.85 592.741 502.558 594.073 504.391 593.748Z" stroke="#FFFFFF" fill="#31CEFC"/><path d="M538.654 582.523C539.185 582.474 539.603 582.048 539.641 581.516 539.881 578.033 541.207 565.288 548.056 554.704 549.821 551.922 549.23 548.259 546.678 546.174L546.678 546.174C543.903 543.864 539.78 544.242 537.47 547.017 536.759 547.872 536.277 548.895 536.071 549.988 533.846 562.526 536.671 577.734 537.479 581.656 537.592 582.203 538.098 582.576 538.654 582.523Z" stroke="#FFFFFF" fill="#31CEFC"/><path d="M556.481 598.911C557.881 598.273 558.708 597.529 558.708 596.731 558.708 595.231 555.851 593.915 551.547 593.159 553.153 592.305 554.866 591.669 556.64 591.266 558.782 590.779 560.124 588.647 559.636 586.505 559.543 586.093 559.384 585.7 559.167 585.338L559.101 585.227C558.035 583.408 555.697 582.797 553.878 583.863 553.843 583.884 553.808 583.905 553.773 583.927 550.478 586.048 547.832 589.037 546.127 592.565 545.373 592.525 544.596 592.503 543.807 592.494 549.788 576.242 557.662 566.6 562.634 562.551 565.029 560.661 565.437 557.187 563.547 554.792 561.657 552.398 558.183 551.989 555.788 553.879 555.506 554.102 555.247 554.352 555.013 554.625 546.369 564.344 542.372 580.325 540.523 592.546 539.261 592.604 538.048 592.7 536.909 592.836 536.909 592.827 536.909 592.818 536.909 592.809 534.214 577.438 528.55 556.464 516.883 544.209 514.311 541.403 509.951 541.213 507.144 543.785 504.338 546.357 504.148 550.717 506.72 553.524 507.021 553.853 507.354 554.151 507.713 554.416 514.343 559.45 525.149 571.886 533.438 593.409 532.65 593.58 531.925 593.771 531.273 593.98 529.139 589.606 525.846 585.901 521.753 583.269 519.528 581.866 516.587 582.532 515.183 584.757 515.155 584.802 515.127 584.848 515.1 584.894L515.018 585.032C513.605 587.381 514.363 590.431 516.712 591.845 517.164 592.117 517.657 592.315 518.172 592.432 521.018 593.075 523.732 594.198 526.2 595.754 524.987 595.654 523.706 595.602 522.378 595.602 514.941 595.602 508.912 597.246 508.912 599.275 508.912 600.497 511.112 601.575 514.481 602.245 514.259 602.577 514.137 602.966 514.128 603.365 514.124 607.03 525.016 610 538.451 610 551.886 610 562.778 607.03 562.778 603.365 562.778 601.651 560.394 600.089 556.481 598.911Z" stroke="#FFFFFF" fill="#31CEFC"/><path d="M505.792 602.947C503.8 602.947 502.185 603.387 502.185 603.931 502.185 604.475 503.8 604.915 505.792 604.915 507.784 604.915 509.399 604.474 509.399 603.931 509.399 603.388 507.784 602.947 505.792 602.947Z" stroke="#FFFFFF" fill="#31CEFC"/></g></svg>