<svg width="96" height="96" xmlns="http://www.w3.org/2000/svg" xmlns:xlink="http://www.w3.org/1999/xlink" xml:space="preserve" overflow="hidden"><defs><clipPath id="clip0"><rect x="200" y="346" width="96" height="96"/></clipPath></defs><g clip-path="url(#clip0)" transform="translate(-200 -346)"><path d="M271.668 390.912C269.04 392.564 266.935 394.929 265.598 397.731 265.176 398.624 266.278 399.273 267.077 398.616 268.896 397.112 271.016 396.015 273.294 395.4 275.094 394.918 276.075 392.988 275.238 391.576L275.198 391.509C274.405 390.372 272.84 390.094 271.703 390.887 271.691 390.895 271.68 390.904 271.668 390.912Z" stroke="#FFFFFF" fill="#021A93"/><path d="M228.75 394.622C230.493 395.014 232.112 395.831 233.462 397 233.775 397.272 234.249 397.24 234.521 396.927 234.7 396.722 234.754 396.436 234.662 396.18 233.803 393.952 232.259 392.054 230.252 390.76 229.314 390.17 228.076 390.451 227.486 391.389 227.474 391.407 227.463 391.425 227.452 391.444L227.418 391.503C226.822 392.491 227.139 393.776 228.128 394.372 228.32 394.488 228.531 394.573 228.75 394.622Z" stroke="#FFFFFF" fill="#021A93"/><path d="M281.941 408.572 281.926 408.506C281.677 407.427 280.6 406.753 279.52 407.002 279.499 407.007 279.478 407.012 279.457 407.018 277.156 407.656 275.116 409.008 273.632 410.879 273.38 411.209 273.443 411.681 273.773 411.933 273.993 412.101 274.287 412.135 274.539 412.021 276.176 411.305 277.965 411.006 279.746 411.15 280.897 411.241 281.903 410.382 281.994 409.231 282.011 409.01 281.993 408.787 281.941 408.572Z" stroke="#FFFFFF" fill="#021A93"/><path d="M217.391 411.748C219.715 411.34 222.1 411.436 224.385 412.028 225.385 412.284 226.11 411.228 225.35 410.6 222.953 408.627 220.044 407.376 216.963 406.993 215.602 406.732 214.286 407.625 214.026 408.987 214.023 409.001 214.021 409.016 214.018 409.03L214.01 409.107C213.85 410.741 215.558 412.073 217.391 411.748Z" stroke="#FFFFFF" fill="#021A93"/><path d="M251.654 400.523C252.185 400.474 252.603 400.048 252.641 399.516 252.881 396.033 254.207 383.288 261.056 372.704 262.821 369.922 262.23 366.259 259.678 364.174L259.678 364.174C256.903 361.864 252.78 362.242 250.47 365.017 249.759 365.872 249.277 366.895 249.071 367.988 246.846 380.526 249.671 395.734 250.479 399.656 250.592 400.203 251.098 400.576 251.654 400.523Z" stroke="#FFFFFF" fill="#021A93"/><path d="M269.481 416.911C270.881 416.273 271.708 415.529 271.708 414.731 271.708 413.231 268.851 411.915 264.547 411.159 266.153 410.305 267.866 409.669 269.64 409.266 271.782 408.779 273.124 406.647 272.636 404.505 272.543 404.093 272.384 403.699 272.167 403.338L272.101 403.227C271.035 401.408 268.697 400.797 266.878 401.863 266.843 401.884 266.808 401.905 266.773 401.927 263.478 404.048 260.832 407.037 259.127 410.565 258.373 410.525 257.596 410.503 256.807 410.494 262.788 394.242 270.662 384.6 275.634 380.551 278.029 378.661 278.437 375.187 276.547 372.792 274.657 370.398 271.183 369.989 268.788 371.879 268.506 372.102 268.247 372.352 268.013 372.625 259.369 382.344 255.372 398.325 253.523 410.546 252.261 410.604 251.048 410.7 249.909 410.836 249.909 410.827 249.909 410.818 249.909 410.809 247.214 395.438 241.55 374.464 229.883 362.209 227.311 359.403 222.951 359.213 220.144 361.785 217.338 364.357 217.148 368.717 219.72 371.524 220.021 371.853 220.354 372.151 220.713 372.416 227.343 377.45 238.149 389.886 246.438 411.409 245.65 411.58 244.925 411.771 244.273 411.98 242.139 407.606 238.846 403.901 234.753 401.269 232.528 399.866 229.587 400.532 228.183 402.757 228.155 402.802 228.127 402.848 228.1 402.894L228.018 403.032C226.605 405.381 227.363 408.431 229.712 409.845 230.164 410.117 230.657 410.315 231.172 410.432 234.018 411.075 236.732 412.198 239.2 413.754 237.987 413.654 236.706 413.602 235.378 413.602 227.941 413.602 221.912 415.246 221.912 417.275 221.912 418.497 224.112 419.575 227.481 420.245 227.259 420.577 227.137 420.966 227.128 421.365 227.124 425.03 238.016 428 251.451 428 264.886 428 275.778 425.03 275.778 421.365 275.778 419.651 273.394 418.089 269.481 416.911Z" stroke="#FFFFFF" fill="#021A93"/><path d="M218.792 420.947C216.8 420.947 215.185 421.387 215.185 421.931 215.185 422.475 216.8 422.915 218.792 422.915 220.784 422.915 222.399 422.474 222.399 421.931 222.399 421.388 220.784 420.947 218.792 420.947Z" stroke="#FFFFFF" fill="#021A93"/></g></svg>