<svg width="96" height="96" xmlns="http://www.w3.org/2000/svg" xmlns:xlink="http://www.w3.org/1999/xlink" xml:space="preserve" overflow="hidden"><defs><clipPath id="clip0"><rect x="294" y="264" width="96" height="96"/></clipPath></defs><g clip-path="url(#clip0)" transform="translate(-294 -264)"><path d="M365.668 308.912C363.04 310.564 360.935 312.929 359.598 315.731 359.176 316.624 360.278 317.273 361.077 316.616 362.896 315.112 365.016 314.015 367.294 313.4 369.094 312.918 370.075 310.988 369.238 309.576L369.198 309.509C368.405 308.372 366.84 308.094 365.703 308.887 365.691 308.895 365.68 308.904 365.668 308.912Z" stroke="#FFFFFF" fill="#B6E6FD"/><path d="M322.75 312.622C324.493 313.014 326.112 313.831 327.462 315 327.775 315.272 328.249 315.24 328.521 314.927 328.7 314.722 328.754 314.436 328.662 314.18 327.803 311.952 326.259 310.054 324.252 308.76 323.315 308.17 322.076 308.451 321.486 309.389 321.474 309.407 321.463 309.425 321.452 309.444L321.418 309.503C320.822 310.491 321.139 311.776 322.128 312.372 322.32 312.488 322.53 312.573 322.75 312.622Z" stroke="#FFFFFF" fill="#B6E6FD"/><path d="M375.941 326.572 375.926 326.506C375.677 325.427 374.6 324.753 373.52 325.002 373.499 325.007 373.478 325.012 373.457 325.018 371.156 325.656 369.116 327.008 367.632 328.879 367.38 329.209 367.443 329.681 367.773 329.933 367.993 330.101 368.287 330.135 368.539 330.021 370.176 329.305 371.965 329.006 373.746 329.15 374.897 329.241 375.903 328.382 375.994 327.231 376.011 327.01 375.993 326.787 375.941 326.572Z" stroke="#FFFFFF" fill="#B6E6FD"/><path d="M311.391 329.748C313.716 329.34 316.1 329.436 318.385 330.028 319.385 330.284 320.11 329.228 319.35 328.6 316.953 326.627 314.044 325.376 310.963 324.993 309.602 324.732 308.286 325.625 308.026 326.987 308.023 327.001 308.021 327.016 308.018 327.03L308.01 327.107C307.85 328.741 309.558 330.073 311.391 329.748Z" stroke="#FFFFFF" fill="#B6E6FD"/><path d="M345.654 318.523C346.185 318.474 346.603 318.048 346.641 317.516 346.881 314.033 348.207 301.288 355.056 290.704 356.821 287.922 356.23 284.259 353.678 282.174L353.678 282.174C350.903 279.864 346.78 280.242 344.47 283.017 343.759 283.872 343.277 284.895 343.071 285.988 340.846 298.526 343.671 313.734 344.479 317.656 344.592 318.203 345.098 318.576 345.654 318.523Z" stroke="#FFFFFF" fill="#B6E6FD"/><path d="M363.481 334.911C364.881 334.273 365.708 333.529 365.708 332.731 365.708 331.231 362.851 329.915 358.547 329.159 360.153 328.305 361.866 327.669 363.64 327.266 365.782 326.779 367.124 324.647 366.636 322.505 366.543 322.093 366.384 321.699 366.167 321.338L366.101 321.227C365.035 319.408 362.697 318.797 360.878 319.863 360.843 319.884 360.808 319.905 360.773 319.927 357.478 322.048 354.832 325.037 353.127 328.565 352.373 328.525 351.596 328.503 350.807 328.494 356.788 312.242 364.662 302.6 369.634 298.551 372.029 296.661 372.437 293.187 370.547 290.792 368.657 288.398 365.183 287.989 362.788 289.879 362.506 290.102 362.247 290.352 362.013 290.625 353.369 300.344 349.372 316.325 347.523 328.546 346.261 328.604 345.048 328.7 343.909 328.836 343.909 328.827 343.909 328.818 343.909 328.809 341.214 313.438 335.55 292.464 323.883 280.209 321.311 277.403 316.951 277.213 314.144 279.785 311.338 282.357 311.148 286.717 313.72 289.524 314.021 289.853 314.354 290.151 314.713 290.416 321.343 295.45 332.149 307.886 340.438 329.409 339.65 329.58 338.925 329.771 338.273 329.98 336.139 325.606 332.846 321.901 328.753 319.269 326.528 317.866 323.587 318.532 322.183 320.757 322.155 320.802 322.127 320.848 322.1 320.894L322.018 321.032C320.605 323.381 321.363 326.431 323.712 327.845 324.164 328.117 324.657 328.315 325.172 328.432 328.018 329.075 330.732 330.198 333.2 331.754 331.987 331.654 330.706 331.602 329.378 331.602 321.941 331.602 315.912 333.246 315.912 335.275 315.912 336.497 318.112 337.575 321.481 338.245 321.259 338.577 321.137 338.966 321.128 339.365 321.124 343.03 332.016 346 345.451 346 358.886 346 369.778 343.03 369.778 339.365 369.778 337.651 367.394 336.089 363.481 334.911Z" stroke="#FFFFFF" fill="#B6E6FD"/><path d="M312.792 338.947C310.8 338.947 309.185 339.387 309.185 339.931 309.185 340.475 310.8 340.915 312.792 340.915 314.784 340.915 316.399 340.474 316.399 339.931 316.399 339.388 314.784 338.947 312.792 338.947Z" stroke="#FFFFFF" fill="#B6E6FD"/></g></svg>