<svg width="96" height="96" xmlns="http://www.w3.org/2000/svg" xmlns:xlink="http://www.w3.org/1999/xlink" xml:space="preserve" overflow="hidden"><defs><clipPath id="clip0"><rect x="669" y="346" width="96" height="96"/></clipPath></defs><g clip-path="url(#clip0)" transform="translate(-669 -346)"><path d="M740.668 390.912C738.04 392.564 735.935 394.929 734.598 397.731 734.176 398.624 735.278 399.273 736.077 398.616 737.896 397.112 740.016 396.015 742.294 395.4 744.094 394.918 745.075 392.988 744.238 391.576L744.198 391.509C743.405 390.372 741.84 390.094 740.703 390.887 740.691 390.895 740.68 390.904 740.668 390.912Z" stroke="#FFFFFF" fill="#677CE4"/><path d="M697.75 394.622C699.493 395.014 701.112 395.831 702.462 397 702.775 397.272 703.249 397.24 703.521 396.927 703.7 396.722 703.754 396.436 703.662 396.18 702.803 393.952 701.259 392.054 699.252 390.76 698.315 390.17 697.076 390.451 696.486 391.389 696.474 391.407 696.463 391.425 696.452 391.444L696.418 391.503C695.822 392.491 696.14 393.776 697.128 394.372 697.32 394.488 697.531 394.573 697.75 394.622Z" stroke="#FFFFFF" fill="#677CE4"/><path d="M750.941 408.572 750.926 408.506C750.677 407.427 749.6 406.753 748.52 407.002 748.499 407.007 748.478 407.012 748.457 407.018 746.156 407.656 744.116 409.008 742.632 410.879 742.38 411.209 742.443 411.681 742.773 411.933 742.993 412.101 743.287 412.135 743.539 412.021 745.176 411.305 746.965 411.006 748.746 411.15 749.897 411.241 750.903 410.382 750.994 409.231 751.011 409.01 750.994 408.787 750.941 408.572Z" stroke="#FFFFFF" fill="#677CE4"/><path d="M686.391 411.748C688.716 411.34 691.101 411.436 693.385 412.028 694.385 412.284 695.11 411.228 694.35 410.6 691.953 408.627 689.044 407.376 685.963 406.993 684.602 406.732 683.286 407.625 683.026 408.987 683.023 409.001 683.021 409.016 683.018 409.03L683.01 409.107C682.85 410.741 684.558 412.073 686.391 411.748Z" stroke="#FFFFFF" fill="#677CE4"/><path d="M720.654 400.523C721.185 400.474 721.603 400.048 721.641 399.516 721.881 396.033 723.207 383.288 730.056 372.704 731.821 369.922 731.23 366.259 728.678 364.174L728.678 364.174C725.903 361.864 721.78 362.242 719.47 365.017 718.759 365.872 718.277 366.895 718.071 367.988 715.846 380.526 718.671 395.734 719.479 399.656 719.592 400.203 720.098 400.576 720.654 400.523Z" stroke="#FFFFFF" fill="#677CE4"/><path d="M738.481 416.911C739.881 416.273 740.708 415.529 740.708 414.731 740.708 413.231 737.851 411.915 733.547 411.159 735.153 410.305 736.866 409.669 738.64 409.266 740.782 408.779 742.124 406.647 741.636 404.505 741.543 404.093 741.384 403.699 741.167 403.338L741.101 403.227C740.035 401.408 737.697 400.797 735.878 401.863 735.843 401.884 735.808 401.905 735.773 401.927 732.478 404.048 729.832 407.037 728.127 410.565 727.373 410.525 726.596 410.503 725.807 410.494 731.788 394.242 739.662 384.6 744.634 380.551 747.029 378.661 747.437 375.187 745.547 372.792 743.657 370.398 740.183 369.989 737.788 371.879 737.506 372.102 737.247 372.352 737.013 372.625 728.369 382.344 724.372 398.325 722.523 410.546 721.261 410.604 720.048 410.7 718.909 410.836 718.909 410.827 718.909 410.818 718.909 410.809 716.214 395.438 710.55 374.464 698.883 362.209 696.311 359.403 691.951 359.213 689.144 361.785 686.338 364.357 686.148 368.717 688.72 371.524 689.021 371.853 689.354 372.151 689.713 372.416 696.343 377.45 707.149 389.886 715.438 411.409 714.65 411.58 713.925 411.771 713.273 411.98 711.139 407.606 707.846 403.901 703.753 401.269 701.528 399.866 698.587 400.532 697.183 402.757 697.155 402.802 697.127 402.848 697.1 402.894L697.018 403.032C695.605 405.381 696.363 408.431 698.712 409.845 699.164 410.117 699.657 410.315 700.172 410.432 703.018 411.075 705.732 412.198 708.2 413.754 706.987 413.654 705.706 413.602 704.378 413.602 696.941 413.602 690.912 415.246 690.912 417.275 690.912 418.497 693.112 419.575 696.481 420.245 696.259 420.577 696.137 420.966 696.128 421.365 696.124 425.03 707.016 428 720.451 428 733.886 428 744.778 425.03 744.778 421.365 744.778 419.651 742.394 418.089 738.481 416.911Z" stroke="#FFFFFF" fill="#677CE4"/><path d="M687.792 420.947C685.8 420.947 684.185 421.387 684.185 421.931 684.185 422.475 685.8 422.915 687.792 422.915 689.784 422.915 691.399 422.474 691.399 421.931 691.399 421.388 689.784 420.947 687.792 420.947Z" stroke="#FFFFFF" fill="#677CE4"/></g></svg>