<svg width="96" height="96" xmlns="http://www.w3.org/2000/svg" xmlns:xlink="http://www.w3.org/1999/xlink" xml:space="preserve" overflow="hidden"><defs><clipPath id="clip0"><rect x="569" y="173" width="96" height="96"/></clipPath></defs><g clip-path="url(#clip0)" transform="translate(-569 -173)"><path d="M640.668 217.912C638.04 219.564 635.935 221.929 634.598 224.731 634.176 225.624 635.278 226.273 636.077 225.616 637.896 224.112 640.016 223.015 642.294 222.4 644.094 221.918 645.075 219.988 644.238 218.576L644.198 218.509C643.405 217.372 641.84 217.094 640.703 217.887 640.691 217.895 640.68 217.904 640.668 217.912Z" stroke="#FFFFFF" fill="#26B4FB"/><path d="M597.75 221.622C599.493 222.014 601.112 222.831 602.462 224 602.775 224.272 603.249 224.24 603.521 223.927 603.7 223.722 603.754 223.436 603.662 223.18 602.803 220.952 601.259 219.054 599.252 217.76 598.315 217.17 597.076 217.451 596.486 218.389 596.474 218.407 596.463 218.425 596.452 218.444L596.418 218.503C595.822 219.491 596.14 220.776 597.128 221.372 597.32 221.488 597.531 221.573 597.75 221.622Z" stroke="#FFFFFF" fill="#26B4FB"/><path d="M650.941 235.572 650.926 235.506C650.677 234.426 649.6 233.753 648.52 234.002 648.499 234.007 648.478 234.012 648.457 234.018 646.156 234.656 644.116 236.008 642.632 237.879 642.38 238.209 642.443 238.681 642.773 238.933 642.993 239.101 643.287 239.135 643.539 239.021 645.176 238.305 646.965 238.006 648.746 238.15 649.897 238.241 650.903 237.382 650.994 236.231 651.011 236.01 650.994 235.787 650.941 235.572Z" stroke="#FFFFFF" fill="#26B4FB"/><path d="M586.391 238.748C588.716 238.34 591.101 238.436 593.385 239.028 594.385 239.284 595.11 238.228 594.35 237.6 591.953 235.627 589.044 234.376 585.963 233.993 584.602 233.732 583.286 234.625 583.026 235.986 583.023 236.001 583.021 236.016 583.018 236.03L583.01 236.107C582.85 237.741 584.558 239.073 586.391 238.748Z" stroke="#FFFFFF" fill="#26B4FB"/><path d="M620.654 227.523C621.185 227.474 621.603 227.048 621.641 226.516 621.881 223.033 623.207 210.288 630.056 199.704 631.821 196.922 631.23 193.259 628.678 191.174L628.678 191.174C625.903 188.864 621.78 189.242 619.47 192.017 618.759 192.872 618.277 193.895 618.071 194.988 615.846 207.526 618.671 222.734 619.479 226.656 619.592 227.203 620.098 227.576 620.654 227.523Z" stroke="#FFFFFF" fill="#26B4FB"/><path d="M638.481 243.911C639.881 243.273 640.708 242.529 640.708 241.731 640.708 240.231 637.851 238.915 633.547 238.159 635.153 237.305 636.866 236.669 638.64 236.266 640.782 235.779 642.124 233.647 641.636 231.505 641.543 231.093 641.384 230.699 641.167 230.338L641.101 230.227C640.035 228.408 637.697 227.798 635.878 228.863 635.843 228.884 635.808 228.905 635.773 228.927 632.478 231.048 629.832 234.037 628.127 237.565 627.373 237.525 626.596 237.503 625.807 237.494 631.788 221.242 639.662 211.6 644.634 207.551 647.029 205.661 647.437 202.187 645.547 199.792 643.657 197.398 640.183 196.989 637.788 198.879 637.506 199.102 637.247 199.352 637.013 199.625 628.369 209.344 624.372 225.325 622.523 237.546 621.261 237.604 620.048 237.7 618.909 237.836 618.909 237.827 618.909 237.818 618.909 237.809 616.214 222.438 610.55 201.464 598.883 189.209 596.311 186.403 591.951 186.213 589.144 188.785 586.338 191.357 586.148 195.717 588.72 198.524 589.021 198.853 589.354 199.151 589.713 199.416 596.343 204.45 607.149 216.886 615.438 238.409 614.65 238.58 613.925 238.771 613.273 238.98 611.139 234.606 607.846 230.902 603.753 228.269 601.528 226.866 598.587 227.532 597.183 229.757 597.155 229.802 597.127 229.848 597.1 229.894L597.018 230.032C595.605 232.381 596.363 235.431 598.712 236.845 599.164 237.117 599.657 237.315 600.172 237.432 603.018 238.075 605.732 239.198 608.2 240.754 606.987 240.654 605.706 240.602 604.378 240.602 596.941 240.602 590.912 242.246 590.912 244.275 590.912 245.497 593.112 246.575 596.481 247.245 596.259 247.577 596.137 247.966 596.128 248.365 596.124 252.03 607.016 255 620.451 255 633.886 255 644.778 252.03 644.778 248.365 644.778 246.651 642.394 245.089 638.481 243.911Z" stroke="#FFFFFF" fill="#26B4FB"/><path d="M587.792 247.947C585.8 247.947 584.185 248.387 584.185 248.931 584.185 249.475 585.8 249.915 587.792 249.915 589.784 249.915 591.399 249.474 591.399 248.931 591.399 248.388 589.784 247.947 587.792 247.947Z" stroke="#FFFFFF" fill="#26B4FB"/></g></svg>