<svg width="96" height="96" xmlns="http://www.w3.org/2000/svg" xmlns:xlink="http://www.w3.org/1999/xlink" xml:space="preserve" overflow="hidden"><defs><clipPath id="clip0"><rect x="12" y="346" width="96" height="96"/></clipPath></defs><g clip-path="url(#clip0)" transform="translate(-12 -346)"><path d="M83.668 390.912C81.0396 392.564 78.9346 394.929 77.598 397.731 77.176 398.624 78.278 399.273 79.077 398.616 80.8955 397.112 83.0155 396.015 85.294 395.4 87.094 394.918 88.075 392.988 87.238 391.576L87.198 391.509C86.4047 390.372 84.8401 390.094 83.7033 390.887 83.6914 390.895 83.6797 390.904 83.668 390.912Z" stroke="#FFFFFF" fill="#011369"/><path d="M40.75 394.622C42.4928 395.014 44.1116 395.831 45.462 397 45.7748 397.272 46.2492 397.24 46.5215 396.927 46.7001 396.722 46.7538 396.436 46.662 396.18 45.8033 393.952 44.259 392.054 42.252 390.76 41.3145 390.17 40.0759 390.451 39.4856 391.389 39.4741 391.407 39.4629 391.425 39.452 391.444L39.418 391.503C38.8217 392.491 39.1395 393.776 40.1278 394.372 40.3204 394.488 40.5305 394.573 40.75 394.622Z" stroke="#FFFFFF" fill="#011369"/><path d="M93.941 408.572 93.926 408.506C93.677 407.427 92.5999 406.753 91.5204 407.002 91.4992 407.007 91.4781 407.012 91.457 407.018 89.1556 407.656 87.116 409.008 85.632 410.879 85.3798 411.209 85.4428 411.681 85.7728 411.933 85.9926 412.101 86.2869 412.135 86.539 412.021 88.176 411.305 89.965 411.006 91.746 411.15 92.8967 411.241 93.9031 410.382 93.9939 409.231 94.0113 409.01 93.9935 408.787 93.941 408.572Z" stroke="#FFFFFF" fill="#011369"/><path d="M29.391 411.748C31.7155 411.34 34.1005 411.436 36.385 412.028 37.385 412.284 38.11 411.228 37.35 410.6 34.9526 408.627 32.044 407.376 28.963 406.993 27.6015 406.732 26.2865 407.625 26.0259 408.987 26.0232 409.001 26.0205 409.016 26.018 409.03L26.01 409.107C25.85 410.741 27.558 412.073 29.391 411.748Z" stroke="#FFFFFF" fill="#011369"/><path d="M63.654 400.523C64.1852 400.474 64.6031 400.048 64.641 399.516 64.881 396.033 66.207 383.288 73.056 372.704 74.8213 369.922 74.2296 366.259 71.678 364.174L71.678 364.174C68.9026 361.864 64.7802 362.242 62.4704 365.017 61.7588 365.872 61.2771 366.895 61.071 367.988 58.846 380.526 61.671 395.734 62.479 399.656 62.5918 400.203 63.0984 400.576 63.654 400.523Z" stroke="#FFFFFF" fill="#011369"/><path d="M81.481 416.911C82.881 416.273 83.708 415.529 83.708 414.731 83.708 413.231 80.851 411.915 76.547 411.159 78.1534 410.305 79.866 409.669 81.64 409.266 83.7822 408.779 85.1237 406.647 84.6362 404.505 84.5427 404.093 84.3843 403.699 84.167 403.338L84.101 403.227C83.0353 401.408 80.697 400.797 78.8781 401.863 78.8427 401.884 78.8077 401.905 78.773 401.927 75.4779 404.048 72.832 407.037 71.127 410.565 70.373 410.525 69.596 410.503 68.807 410.494 74.788 394.242 82.662 384.6 87.634 380.551 90.0286 378.661 90.4374 375.187 88.547 372.792 86.6567 370.398 83.183 369.989 80.7884 371.879 80.5063 372.102 80.2466 372.352 80.013 372.625 71.369 382.344 67.372 398.325 65.523 410.546 64.261 410.604 63.048 410.7 61.909 410.836 61.909 410.827 61.909 410.818 61.909 410.809 59.214 395.438 53.55 374.464 41.883 362.209 39.3108 359.403 34.9505 359.213 32.1441 361.785 29.3376 364.357 29.1477 368.717 31.72 371.524 32.0213 371.853 32.3539 372.151 32.713 372.416 39.343 377.45 50.149 389.886 58.438 411.409 57.65 411.58 56.925 411.771 56.273 411.98 54.139 407.606 50.8462 403.901 46.753 401.269 44.5281 399.866 41.5868 400.532 40.1834 402.757 40.1548 402.802 40.127 402.848 40.1 402.894L40.018 403.032C38.6046 405.381 39.363 408.431 41.7121 409.845 42.1644 410.117 42.6572 410.315 43.172 410.432 46.0175 411.075 48.7325 412.198 51.2 413.754 49.987 413.654 48.706 413.602 47.378 413.602 39.941 413.602 33.912 415.246 33.912 417.275 33.912 418.497 36.112 419.575 39.481 420.245 39.2592 420.577 39.1368 420.966 39.128 421.365 39.124 425.03 50.016 428 63.451 428 76.886 428 87.778 425.03 87.778 421.365 87.778 419.651 85.394 418.089 81.481 416.911Z" stroke="#FFFFFF" fill="#011369"/><path d="M30.792 420.947C28.8 420.947 27.185 421.387 27.185 421.931 27.185 422.475 28.8 422.915 30.792 422.915 32.784 422.915 34.399 422.474 34.399 421.931 34.399 421.388 32.784 420.947 30.792 420.947Z" stroke="#FFFFFF" fill="#011369"/></g></svg>