<svg width="96" height="96" xmlns="http://www.w3.org/2000/svg" xmlns:xlink="http://www.w3.org/1999/xlink" xml:space="preserve" overflow="hidden"><defs><clipPath id="clip0"><rect x="194" y="91" width="96" height="96"/></clipPath></defs><g clip-path="url(#clip0)" transform="translate(-194 -91)"><path d="M265.668 135.912C263.04 137.564 260.935 139.929 259.598 142.731 259.176 143.624 260.278 144.273 261.077 143.616 262.896 142.112 265.016 141.015 267.294 140.4 269.094 139.918 270.075 137.988 269.238 136.576L269.198 136.509C268.405 135.372 266.84 135.094 265.703 135.887 265.691 135.895 265.68 135.904 265.668 135.912Z" stroke="#FFFFFF" fill="#9ACBE3"/><path d="M222.75 139.622C224.493 140.014 226.112 140.831 227.462 142 227.775 142.272 228.249 142.24 228.521 141.927 228.7 141.722 228.754 141.436 228.662 141.18 227.803 138.952 226.259 137.054 224.252 135.76 223.314 135.17 222.076 135.451 221.486 136.389 221.474 136.407 221.463 136.425 221.452 136.444L221.418 136.503C220.822 137.491 221.139 138.776 222.128 139.372 222.32 139.488 222.531 139.573 222.75 139.622Z" stroke="#FFFFFF" fill="#9ACBE3"/><path d="M275.941 153.572 275.926 153.506C275.677 152.426 274.6 151.753 273.52 152.002 273.499 152.007 273.478 152.012 273.457 152.018 271.156 152.656 269.116 154.008 267.632 155.879 267.38 156.209 267.443 156.681 267.773 156.933 267.993 157.101 268.287 157.135 268.539 157.021 270.176 156.305 271.965 156.006 273.746 156.15 274.897 156.241 275.903 155.382 275.994 154.231 276.011 154.01 275.993 153.787 275.941 153.572Z" stroke="#FFFFFF" fill="#9ACBE3"/><path d="M211.391 156.748C213.715 156.34 216.1 156.436 218.385 157.028 219.385 157.284 220.11 156.228 219.35 155.6 216.953 153.627 214.044 152.376 210.963 151.993 209.602 151.732 208.286 152.625 208.026 153.986 208.023 154.001 208.021 154.016 208.018 154.03L208.01 154.107C207.85 155.741 209.558 157.073 211.391 156.748Z" stroke="#FFFFFF" fill="#9ACBE3"/><path d="M245.654 145.523C246.185 145.474 246.603 145.048 246.641 144.516 246.881 141.033 248.207 128.288 255.056 117.704 256.821 114.922 256.23 111.259 253.678 109.174L253.678 109.174C250.903 106.864 246.78 107.242 244.47 110.017 243.759 110.872 243.277 111.895 243.071 112.988 240.846 125.526 243.671 140.734 244.479 144.656 244.592 145.203 245.098 145.576 245.654 145.523Z" stroke="#FFFFFF" fill="#9ACBE3"/><path d="M263.481 161.911C264.881 161.273 265.708 160.529 265.708 159.731 265.708 158.231 262.851 156.915 258.547 156.159 260.153 155.305 261.866 154.669 263.64 154.266 265.782 153.779 267.124 151.647 266.636 149.505 266.543 149.093 266.384 148.699 266.167 148.338L266.101 148.227C265.035 146.408 262.697 145.798 260.878 146.863 260.843 146.884 260.808 146.905 260.773 146.927 257.478 149.048 254.832 152.037 253.127 155.565 252.373 155.525 251.596 155.503 250.807 155.494 256.788 139.242 264.662 129.6 269.634 125.551 272.029 123.661 272.437 120.187 270.547 117.792 268.657 115.398 265.183 114.989 262.788 116.879 262.506 117.102 262.247 117.352 262.013 117.625 253.369 127.344 249.372 143.325 247.523 155.546 246.261 155.604 245.048 155.7 243.909 155.836 243.909 155.827 243.909 155.818 243.909 155.809 241.214 140.438 235.55 119.464 223.883 107.209 221.311 104.403 216.951 104.213 214.144 106.785 211.338 109.357 211.148 113.717 213.72 116.524 214.021 116.853 214.354 117.151 214.713 117.416 221.343 122.45 232.149 134.886 240.438 156.409 239.65 156.58 238.925 156.771 238.273 156.98 236.139 152.606 232.846 148.902 228.753 146.269 226.528 144.866 223.587 145.532 222.183 147.757 222.155 147.802 222.127 147.848 222.1 147.894L222.018 148.032C220.605 150.381 221.363 153.431 223.712 154.845 224.164 155.117 224.657 155.315 225.172 155.432 228.018 156.075 230.732 157.198 233.2 158.754 231.987 158.654 230.706 158.602 229.378 158.602 221.941 158.602 215.912 160.246 215.912 162.275 215.912 163.497 218.112 164.575 221.481 165.245 221.259 165.577 221.137 165.966 221.128 166.365 221.124 170.03 232.016 173 245.451 173 258.886 173 269.778 170.03 269.778 166.365 269.778 164.651 267.394 163.089 263.481 161.911Z" stroke="#FFFFFF" fill="#9ACBE3"/><path d="M212.792 165.947C210.8 165.947 209.185 166.387 209.185 166.931 209.185 167.475 210.8 167.915 212.792 167.915 214.784 167.915 216.399 167.474 216.399 166.931 216.399 166.388 214.784 165.947 212.792 165.947Z" stroke="#FFFFFF" fill="#9ACBE3"/></g></svg>