<svg width="96" height="96" xmlns="http://www.w3.org/2000/svg" xmlns:xlink="http://www.w3.org/1999/xlink" xml:space="preserve" overflow="hidden"><defs><clipPath id="clip0"><rect x="100" y="91" width="96" height="96"/></clipPath></defs><g clip-path="url(#clip0)" transform="translate(-100 -91)"><path d="M171.668 135.912C169.04 137.564 166.935 139.929 165.598 142.731 165.176 143.624 166.278 144.273 167.077 143.616 168.896 142.112 171.016 141.015 173.294 140.4 175.094 139.918 176.075 137.988 175.238 136.576L175.198 136.509C174.405 135.372 172.84 135.094 171.703 135.887 171.691 135.895 171.68 135.904 171.668 135.912Z" stroke="#FFFFFF" fill="#81BEDC"/><path d="M128.75 139.622C130.493 140.014 132.112 140.831 133.462 142 133.775 142.272 134.249 142.24 134.521 141.927 134.7 141.722 134.754 141.436 134.662 141.18 133.803 138.952 132.259 137.054 130.252 135.76 129.314 135.17 128.076 135.451 127.486 136.389 127.474 136.407 127.463 136.425 127.452 136.444L127.418 136.503C126.822 137.491 127.139 138.776 128.128 139.372 128.32 139.488 128.531 139.573 128.75 139.622Z" stroke="#FFFFFF" fill="#81BEDC"/><path d="M181.941 153.572 181.926 153.506C181.677 152.426 180.6 151.753 179.52 152.002 179.499 152.007 179.478 152.012 179.457 152.018 177.156 152.656 175.116 154.008 173.632 155.879 173.38 156.209 173.443 156.681 173.773 156.933 173.993 157.101 174.287 157.135 174.539 157.021 176.176 156.305 177.965 156.006 179.746 156.15 180.897 156.241 181.903 155.382 181.994 154.231 182.011 154.01 181.993 153.787 181.941 153.572Z" stroke="#FFFFFF" fill="#81BEDC"/><path d="M117.391 156.748C119.715 156.34 122.101 156.436 124.385 157.028 125.385 157.284 126.11 156.228 125.35 155.6 122.953 153.627 120.044 152.376 116.963 151.993 115.602 151.732 114.286 152.625 114.026 153.986 114.023 154.001 114.021 154.016 114.018 154.03L114.01 154.107C113.85 155.741 115.558 157.073 117.391 156.748Z" stroke="#FFFFFF" fill="#81BEDC"/><path d="M151.654 145.523C152.185 145.474 152.603 145.048 152.641 144.516 152.881 141.033 154.207 128.288 161.056 117.704 162.821 114.922 162.23 111.259 159.678 109.174L159.678 109.174C156.903 106.864 152.78 107.242 150.47 110.017 149.759 110.872 149.277 111.895 149.071 112.988 146.846 125.526 149.671 140.734 150.479 144.656 150.592 145.203 151.098 145.576 151.654 145.523Z" stroke="#FFFFFF" fill="#81BEDC"/><path d="M169.481 161.911C170.881 161.273 171.708 160.529 171.708 159.731 171.708 158.231 168.851 156.915 164.547 156.159 166.153 155.305 167.866 154.669 169.64 154.266 171.782 153.779 173.124 151.647 172.636 149.505 172.543 149.093 172.384 148.699 172.167 148.338L172.101 148.227C171.035 146.408 168.697 145.798 166.878 146.863 166.843 146.884 166.808 146.905 166.773 146.927 163.478 149.048 160.832 152.037 159.127 155.565 158.373 155.525 157.596 155.503 156.807 155.494 162.788 139.242 170.662 129.6 175.634 125.551 178.029 123.661 178.437 120.187 176.547 117.792 174.657 115.398 171.183 114.989 168.788 116.879 168.506 117.102 168.247 117.352 168.013 117.625 159.369 127.344 155.372 143.325 153.523 155.546 152.261 155.604 151.048 155.7 149.909 155.836 149.909 155.827 149.909 155.818 149.909 155.809 147.214 140.438 141.55 119.464 129.883 107.209 127.311 104.403 122.951 104.213 120.144 106.785 117.338 109.357 117.148 113.717 119.72 116.524 120.021 116.853 120.354 117.151 120.713 117.416 127.343 122.45 138.149 134.886 146.438 156.409 145.65 156.58 144.925 156.771 144.273 156.98 142.139 152.606 138.846 148.902 134.753 146.269 132.528 144.866 129.587 145.532 128.183 147.757 128.155 147.802 128.127 147.848 128.1 147.894L128.018 148.032C126.605 150.381 127.363 153.431 129.712 154.845 130.164 155.117 130.657 155.315 131.172 155.432 134.018 156.075 136.732 157.198 139.2 158.754 137.987 158.654 136.706 158.602 135.378 158.602 127.941 158.602 121.912 160.246 121.912 162.275 121.912 163.497 124.112 164.575 127.481 165.245 127.259 165.577 127.137 165.966 127.128 166.365 127.124 170.03 138.016 173 151.451 173 164.886 173 175.778 170.03 175.778 166.365 175.778 164.651 173.394 163.089 169.481 161.911Z" stroke="#FFFFFF" fill="#81BEDC"/><path d="M118.792 165.947C116.8 165.947 115.185 166.387 115.185 166.931 115.185 167.475 116.8 167.915 118.792 167.915 120.784 167.915 122.399 167.474 122.399 166.931 122.399 166.388 120.784 165.947 118.792 165.947Z" stroke="#FFFFFF" fill="#81BEDC"/></g></svg>