<svg width="96" height="96" xmlns="http://www.w3.org/2000/svg" xmlns:xlink="http://www.w3.org/1999/xlink" xml:space="preserve" overflow="hidden"><defs><clipPath id="clip0"><rect x="18" y="437" width="96" height="96"/></clipPath></defs><g clip-path="url(#clip0)" transform="translate(-18 -437)"><path d="M89.668 481.912C87.0396 483.564 84.9346 485.929 83.598 488.731 83.176 489.624 84.278 490.273 85.077 489.616 86.8955 488.112 89.0155 487.015 91.294 486.4 93.094 485.918 94.075 483.988 93.238 482.576L93.198 482.509C92.4047 481.372 90.8401 481.094 89.7033 481.887 89.6914 481.895 89.6797 481.904 89.668 481.912Z" stroke="#FFFFFF" fill="#003031"/><path d="M46.75 485.622C48.4928 486.014 50.1116 486.831 51.462 488 51.7748 488.272 52.2492 488.24 52.5215 487.927 52.7001 487.722 52.7538 487.436 52.662 487.18 51.8033 484.952 50.259 483.054 48.252 481.76 47.3145 481.17 46.0759 481.451 45.4856 482.389 45.4741 482.407 45.4629 482.425 45.452 482.444L45.418 482.503C44.8217 483.491 45.1395 484.776 46.1278 485.372 46.3204 485.488 46.5305 485.573 46.75 485.622Z" stroke="#FFFFFF" fill="#003031"/><path d="M99.941 499.572 99.926 499.506C99.677 498.427 98.5999 497.753 97.5204 498.002 97.4992 498.007 97.4781 498.012 97.457 498.018 95.1556 498.656 93.116 500.008 91.632 501.879 91.3798 502.209 91.4428 502.681 91.7728 502.933 91.9926 503.101 92.2869 503.135 92.539 503.021 94.176 502.305 95.965 502.006 97.746 502.15 98.8967 502.241 99.9031 501.382 99.9939 500.231 100.011 500.01 99.9935 499.787 99.941 499.572Z" stroke="#FFFFFF" fill="#003031"/><path d="M35.391 502.748C37.7155 502.34 40.1005 502.436 42.385 503.028 43.385 503.284 44.11 502.228 43.35 501.6 40.9526 499.627 38.044 498.376 34.963 497.993 33.6015 497.732 32.2865 498.625 32.0259 499.987 32.0232 500.001 32.0205 500.016 32.018 500.03L32.01 500.107C31.85 501.741 33.558 503.073 35.391 502.748Z" stroke="#FFFFFF" fill="#003031"/><path d="M69.654 491.523C70.1852 491.474 70.6031 491.048 70.641 490.516 70.881 487.033 72.207 474.288 79.056 463.704 80.8213 460.922 80.2296 457.259 77.678 455.174L77.678 455.174C74.9026 452.864 70.7802 453.242 68.4704 456.017 67.7588 456.872 67.2771 457.895 67.071 458.988 64.846 471.526 67.671 486.734 68.479 490.656 68.5918 491.203 69.0984 491.576 69.654 491.523Z" stroke="#FFFFFF" fill="#003031"/><path d="M87.481 507.911C88.881 507.273 89.708 506.529 89.708 505.731 89.708 504.231 86.851 502.915 82.547 502.159 84.1534 501.305 85.866 500.669 87.64 500.266 89.7822 499.779 91.1237 497.647 90.6362 495.505 90.5427 495.093 90.3843 494.699 90.167 494.338L90.101 494.227C89.0353 492.408 86.697 491.797 84.8781 492.863 84.8427 492.884 84.8077 492.905 84.773 492.927 81.4779 495.048 78.832 498.037 77.127 501.565 76.373 501.525 75.596 501.503 74.807 501.494 80.788 485.242 88.662 475.6 93.634 471.551 96.0286 469.661 96.4374 466.187 94.547 463.792 92.6567 461.398 89.183 460.989 86.7884 462.879 86.5063 463.102 86.2466 463.352 86.013 463.625 77.369 473.344 73.372 489.325 71.523 501.546 70.261 501.604 69.048 501.7 67.909 501.836 67.909 501.827 67.909 501.818 67.909 501.809 65.214 486.438 59.55 465.464 47.883 453.209 45.3108 450.403 40.9505 450.213 38.1441 452.785 35.3376 455.357 35.1477 459.717 37.72 462.524 38.0213 462.853 38.3539 463.151 38.713 463.416 45.343 468.45 56.149 480.886 64.438 502.409 63.65 502.58 62.925 502.771 62.273 502.98 60.139 498.606 56.8462 494.901 52.753 492.269 50.5281 490.866 47.5868 491.532 46.1834 493.757 46.1548 493.802 46.127 493.848 46.1 493.894L46.018 494.032C44.6046 496.381 45.363 499.431 47.7121 500.845 48.1644 501.117 48.6572 501.315 49.172 501.432 52.0175 502.075 54.7325 503.198 57.2 504.754 55.987 504.654 54.706 504.602 53.378 504.602 45.941 504.602 39.912 506.246 39.912 508.275 39.912 509.497 42.112 510.575 45.481 511.245 45.2592 511.577 45.1368 511.966 45.128 512.365 45.124 516.03 56.016 519 69.451 519 82.886 519 93.778 516.03 93.778 512.365 93.778 510.651 91.394 509.089 87.481 507.911Z" stroke="#FFFFFF" fill="#003031"/><path d="M36.792 511.947C34.8 511.947 33.185 512.387 33.185 512.931 33.185 513.475 34.8 513.915 36.792 513.915 38.784 513.915 40.399 513.474 40.399 512.931 40.399 512.388 38.784 511.947 36.792 511.947Z" stroke="#FFFFFF" fill="#003031"/></g></svg>