<svg width="96" height="96" xmlns="http://www.w3.org/2000/svg" xmlns:xlink="http://www.w3.org/1999/xlink" xml:space="preserve" overflow="hidden"><defs><clipPath id="clip0"><rect x="300" y="528" width="96" height="96"/></clipPath></defs><g clip-path="url(#clip0)" transform="translate(-300 -528)"><path d="M371.668 572.912C369.04 574.564 366.935 576.929 365.598 579.731 365.176 580.624 366.278 581.273 367.077 580.616 368.896 579.112 371.016 578.015 373.294 577.4 375.094 576.918 376.075 574.988 375.238 573.576L375.198 573.509C374.405 572.372 372.84 572.094 371.703 572.887 371.691 572.895 371.68 572.904 371.668 572.912Z" stroke="#FFFFFF" fill="#04BFF6"/><path d="M328.75 576.622C330.493 577.014 332.112 577.831 333.462 579 333.775 579.272 334.249 579.24 334.521 578.927 334.7 578.722 334.754 578.436 334.662 578.18 333.803 575.952 332.259 574.054 330.252 572.76 329.315 572.17 328.076 572.451 327.486 573.389 327.474 573.407 327.463 573.425 327.452 573.444L327.418 573.503C326.822 574.491 327.139 575.776 328.128 576.372 328.32 576.488 328.53 576.573 328.75 576.622Z" stroke="#FFFFFF" fill="#04BFF6"/><path d="M381.941 590.572 381.926 590.506C381.677 589.427 380.6 588.753 379.52 589.002 379.499 589.007 379.478 589.012 379.457 589.018 377.156 589.656 375.116 591.008 373.632 592.879 373.38 593.209 373.443 593.681 373.773 593.933 373.993 594.101 374.287 594.135 374.539 594.021 376.176 593.305 377.965 593.006 379.746 593.15 380.897 593.241 381.903 592.381 381.994 591.231 382.011 591.01 381.993 590.787 381.941 590.572Z" stroke="#FFFFFF" fill="#04BFF6"/><path d="M317.391 593.748C319.716 593.34 322.1 593.436 324.385 594.028 325.385 594.284 326.11 593.228 325.35 592.6 322.953 590.627 320.044 589.376 316.963 588.993 315.602 588.732 314.286 589.625 314.026 590.987 314.023 591.001 314.021 591.016 314.018 591.03L314.01 591.107C313.85 592.741 315.558 594.073 317.391 593.748Z" stroke="#FFFFFF" fill="#04BFF6"/><path d="M351.654 582.523C352.185 582.474 352.603 582.048 352.641 581.516 352.881 578.033 354.207 565.288 361.056 554.704 362.821 551.922 362.23 548.259 359.678 546.174L359.678 546.174C356.903 543.864 352.78 544.242 350.47 547.017 349.759 547.872 349.277 548.895 349.071 549.988 346.846 562.526 349.671 577.734 350.479 581.656 350.592 582.203 351.098 582.576 351.654 582.523Z" stroke="#FFFFFF" fill="#04BFF6"/><path d="M369.481 598.911C370.881 598.273 371.708 597.529 371.708 596.731 371.708 595.231 368.851 593.915 364.547 593.159 366.153 592.305 367.866 591.669 369.64 591.266 371.782 590.779 373.124 588.647 372.636 586.505 372.543 586.093 372.384 585.7 372.167 585.338L372.101 585.227C371.035 583.408 368.697 582.797 366.878 583.863 366.843 583.884 366.808 583.905 366.773 583.927 363.478 586.048 360.832 589.037 359.127 592.565 358.373 592.525 357.596 592.503 356.807 592.494 362.788 576.242 370.662 566.6 375.634 562.551 378.029 560.661 378.437 557.187 376.547 554.792 374.657 552.398 371.183 551.989 368.788 553.879 368.506 554.102 368.247 554.352 368.013 554.625 359.369 564.344 355.372 580.325 353.523 592.546 352.261 592.604 351.048 592.7 349.909 592.836 349.909 592.827 349.909 592.818 349.909 592.809 347.214 577.438 341.55 556.464 329.883 544.209 327.311 541.403 322.951 541.213 320.144 543.785 317.338 546.357 317.148 550.717 319.72 553.524 320.021 553.853 320.354 554.151 320.713 554.416 327.343 559.45 338.149 571.886 346.438 593.409 345.65 593.58 344.925 593.771 344.273 593.98 342.139 589.606 338.846 585.901 334.753 583.269 332.528 581.866 329.587 582.532 328.183 584.757 328.155 584.802 328.127 584.848 328.1 584.894L328.018 585.032C326.605 587.381 327.363 590.431 329.712 591.845 330.164 592.117 330.657 592.315 331.172 592.432 334.018 593.075 336.732 594.198 339.2 595.754 337.987 595.654 336.706 595.602 335.378 595.602 327.941 595.602 321.912 597.246 321.912 599.275 321.912 600.497 324.112 601.575 327.481 602.245 327.259 602.577 327.137 602.966 327.128 603.365 327.124 607.03 338.016 610 351.451 610 364.886 610 375.778 607.03 375.778 603.365 375.778 601.651 373.394 600.089 369.481 598.911Z" stroke="#FFFFFF" fill="#04BFF6"/><path d="M318.792 602.947C316.8 602.947 315.185 603.387 315.185 603.931 315.185 604.475 316.8 604.915 318.792 604.915 320.784 604.915 322.399 604.474 322.399 603.931 322.399 603.388 320.784 602.947 318.792 602.947Z" stroke="#FFFFFF" fill="#04BFF6"/></g></svg>