<svg width="96" height="96" xmlns="http://www.w3.org/2000/svg" xmlns:xlink="http://www.w3.org/1999/xlink" xml:space="preserve" overflow="hidden"><defs><clipPath id="clip0"><rect x="6" y="91" width="96" height="96"/></clipPath></defs><g clip-path="url(#clip0)" transform="translate(-6 -91)"><path d="M77.668 135.912C75.0396 137.564 72.9346 139.929 71.598 142.731 71.176 143.624 72.278 144.273 73.077 143.616 74.8955 142.112 77.0155 141.015 79.294 140.4 81.094 139.918 82.075 137.988 81.238 136.576L81.198 136.509C80.4047 135.372 78.8401 135.094 77.7033 135.887 77.6914 135.895 77.6797 135.904 77.668 135.912Z" stroke="#FFFFFF" fill="#67B1D5"/><path d="M34.75 139.622C36.4928 140.014 38.1116 140.831 39.462 142 39.7748 142.272 40.2492 142.24 40.5215 141.927 40.7001 141.722 40.7538 141.436 40.662 141.18 39.8033 138.952 38.259 137.054 36.252 135.76 35.3145 135.17 34.0759 135.451 33.4856 136.389 33.4741 136.407 33.4629 136.425 33.452 136.444L33.418 136.503C32.8217 137.491 33.1395 138.776 34.1278 139.372 34.3204 139.488 34.5305 139.573 34.75 139.622Z" stroke="#FFFFFF" fill="#67B1D5"/><path d="M87.941 153.572 87.926 153.506C87.677 152.426 86.5999 151.753 85.5204 152.002 85.4992 152.007 85.4781 152.012 85.457 152.018 83.1556 152.656 81.116 154.008 79.632 155.879 79.3798 156.209 79.4428 156.681 79.7728 156.933 79.9926 157.101 80.2869 157.135 80.539 157.021 82.176 156.305 83.965 156.006 85.746 156.15 86.8967 156.241 87.9031 155.382 87.9939 154.231 88.0113 154.01 87.9935 153.787 87.941 153.572Z" stroke="#FFFFFF" fill="#67B1D5"/><path d="M23.391 156.748C25.7155 156.34 28.1005 156.436 30.385 157.028 31.385 157.284 32.11 156.228 31.35 155.6 28.9526 153.627 26.044 152.376 22.963 151.993 21.6015 151.732 20.2865 152.625 20.0259 153.986 20.0232 154.001 20.0205 154.016 20.018 154.03L20.01 154.107C19.85 155.741 21.558 157.073 23.391 156.748Z" stroke="#FFFFFF" fill="#67B1D5"/><path d="M57.654 145.523C58.1852 145.474 58.6031 145.048 58.641 144.516 58.881 141.033 60.207 128.288 67.056 117.704 68.8213 114.922 68.2296 111.259 65.678 109.174L65.678 109.174C62.9026 106.864 58.7802 107.242 56.4704 110.017 55.7588 110.872 55.2771 111.895 55.071 112.988 52.846 125.526 55.671 140.734 56.479 144.656 56.5918 145.203 57.0984 145.576 57.654 145.523Z" stroke="#FFFFFF" fill="#67B1D5"/><path d="M75.481 161.911C76.881 161.273 77.708 160.529 77.708 159.731 77.708 158.231 74.851 156.915 70.547 156.159 72.1534 155.305 73.866 154.669 75.64 154.266 77.7822 153.779 79.1237 151.647 78.6362 149.505 78.5427 149.093 78.3843 148.699 78.167 148.338L78.101 148.227C77.0353 146.408 74.697 145.798 72.8781 146.863 72.8427 146.884 72.8077 146.905 72.773 146.927 69.4779 149.048 66.832 152.037 65.127 155.565 64.373 155.525 63.596 155.503 62.807 155.494 68.788 139.242 76.662 129.6 81.634 125.551 84.0286 123.661 84.4374 120.187 82.547 117.792 80.6567 115.398 77.183 114.989 74.7884 116.879 74.5063 117.102 74.2466 117.352 74.013 117.625 65.369 127.344 61.372 143.325 59.523 155.546 58.261 155.604 57.048 155.7 55.909 155.836 55.909 155.827 55.909 155.818 55.909 155.809 53.214 140.438 47.55 119.464 35.883 107.209 33.3108 104.403 28.9505 104.213 26.1441 106.785 23.3376 109.357 23.1477 113.717 25.72 116.524 26.0213 116.853 26.3539 117.151 26.713 117.416 33.343 122.45 44.149 134.886 52.438 156.409 51.65 156.58 50.925 156.771 50.273 156.98 48.139 152.606 44.8462 148.902 40.753 146.269 38.5281 144.866 35.5868 145.532 34.1834 147.757 34.1548 147.802 34.127 147.848 34.1 147.894L34.018 148.032C32.6046 150.381 33.363 153.431 35.7121 154.845 36.1644 155.117 36.6572 155.315 37.172 155.432 40.0175 156.075 42.7325 157.198 45.2 158.754 43.987 158.654 42.706 158.602 41.378 158.602 33.941 158.602 27.912 160.246 27.912 162.275 27.912 163.497 30.112 164.575 33.481 165.245 33.2592 165.577 33.1368 165.966 33.128 166.365 33.124 170.03 44.016 173 57.451 173 70.886 173 81.778 170.03 81.778 166.365 81.778 164.651 79.394 163.089 75.481 161.911Z" stroke="#FFFFFF" fill="#67B1D5"/><path d="M24.792 165.947C22.8 165.947 21.185 166.387 21.185 166.931 21.185 167.475 22.8 167.915 24.792 167.915 26.784 167.915 28.399 167.474 28.399 166.931 28.399 166.388 26.784 165.947 24.792 165.947Z" stroke="#FFFFFF" fill="#67B1D5"/></g></svg>