<svg width="96" height="96" xmlns="http://www.w3.org/2000/svg" xmlns:xlink="http://www.w3.org/1999/xlink" xml:space="preserve" overflow="hidden"><defs><clipPath id="clip0"><rect x="12" y="264" width="96" height="96"/></clipPath></defs><g clip-path="url(#clip0)" transform="translate(-12 -264)"><path d="M83.668 308.912C81.0396 310.564 78.9346 312.929 77.598 315.731 77.176 316.624 78.278 317.273 79.077 316.616 80.8955 315.112 83.0155 314.015 85.294 313.4 87.094 312.918 88.075 310.988 87.238 309.576L87.198 309.509C86.4047 308.372 84.8401 308.094 83.7033 308.887 83.6914 308.895 83.6797 308.904 83.668 308.912Z" stroke="#FFFFFF" fill="#86D5FD"/><path d="M40.75 312.622C42.4928 313.014 44.1116 313.831 45.462 315 45.7748 315.272 46.2492 315.24 46.5215 314.927 46.7001 314.722 46.7538 314.436 46.662 314.18 45.8033 311.952 44.259 310.054 42.252 308.76 41.3145 308.17 40.0759 308.451 39.4856 309.389 39.4741 309.407 39.4629 309.425 39.452 309.444L39.418 309.503C38.8217 310.491 39.1395 311.776 40.1278 312.372 40.3204 312.488 40.5305 312.573 40.75 312.622Z" stroke="#FFFFFF" fill="#86D5FD"/><path d="M93.941 326.572 93.926 326.506C93.677 325.427 92.5999 324.753 91.5204 325.002 91.4992 325.007 91.4781 325.012 91.457 325.018 89.1556 325.656 87.116 327.008 85.632 328.879 85.3798 329.209 85.4428 329.681 85.7728 329.933 85.9926 330.101 86.2869 330.135 86.539 330.021 88.176 329.305 89.965 329.006 91.746 329.15 92.8967 329.241 93.9031 328.382 93.9939 327.231 94.0113 327.01 93.9935 326.787 93.941 326.572Z" stroke="#FFFFFF" fill="#86D5FD"/><path d="M29.391 329.748C31.7155 329.34 34.1005 329.436 36.385 330.028 37.385 330.284 38.11 329.228 37.35 328.6 34.9526 326.627 32.044 325.376 28.963 324.993 27.6015 324.732 26.2865 325.625 26.0259 326.987 26.0232 327.001 26.0205 327.016 26.018 327.03L26.01 327.107C25.85 328.741 27.558 330.073 29.391 329.748Z" stroke="#FFFFFF" fill="#86D5FD"/><path d="M63.654 318.523C64.1852 318.474 64.6031 318.048 64.641 317.516 64.881 314.033 66.207 301.288 73.056 290.704 74.8213 287.922 74.2296 284.259 71.678 282.174L71.678 282.174C68.9026 279.864 64.7802 280.242 62.4704 283.017 61.7588 283.872 61.2771 284.895 61.071 285.988 58.846 298.526 61.671 313.734 62.479 317.656 62.5918 318.203 63.0984 318.576 63.654 318.523Z" stroke="#FFFFFF" fill="#86D5FD"/><path d="M81.481 334.911C82.881 334.273 83.708 333.529 83.708 332.731 83.708 331.231 80.851 329.915 76.547 329.159 78.1534 328.305 79.866 327.669 81.64 327.266 83.7822 326.779 85.1237 324.647 84.6362 322.505 84.5427 322.093 84.3843 321.699 84.167 321.338L84.101 321.227C83.0353 319.408 80.697 318.797 78.8781 319.863 78.8427 319.884 78.8077 319.905 78.773 319.927 75.4779 322.048 72.832 325.037 71.127 328.565 70.373 328.525 69.596 328.503 68.807 328.494 74.788 312.242 82.662 302.6 87.634 298.551 90.0286 296.661 90.4374 293.187 88.547 290.792 86.6567 288.398 83.183 287.989 80.7884 289.879 80.5063 290.102 80.2466 290.352 80.013 290.625 71.369 300.344 67.372 316.325 65.523 328.546 64.261 328.604 63.048 328.7 61.909 328.836 61.909 328.827 61.909 328.818 61.909 328.809 59.214 313.438 53.55 292.464 41.883 280.209 39.3108 277.403 34.9505 277.213 32.1441 279.785 29.3376 282.357 29.1477 286.717 31.72 289.524 32.0213 289.853 32.3539 290.151 32.713 290.416 39.343 295.45 50.149 307.886 58.438 329.409 57.65 329.58 56.925 329.771 56.273 329.98 54.139 325.606 50.8462 321.901 46.753 319.269 44.5281 317.866 41.5868 318.532 40.1834 320.757 40.1548 320.802 40.127 320.848 40.1 320.894L40.018 321.032C38.6046 323.381 39.363 326.431 41.7121 327.845 42.1644 328.117 42.6572 328.315 43.172 328.432 46.0175 329.075 48.7325 330.198 51.2 331.754 49.987 331.654 48.706 331.602 47.378 331.602 39.941 331.602 33.912 333.246 33.912 335.275 33.912 336.497 36.112 337.575 39.481 338.245 39.2592 338.577 39.1368 338.966 39.128 339.365 39.124 343.03 50.016 346 63.451 346 76.886 346 87.778 343.03 87.778 339.365 87.778 337.651 85.394 336.089 81.481 334.911Z" stroke="#FFFFFF" fill="#86D5FD"/><path d="M30.792 338.947C28.8 338.947 27.185 339.387 27.185 339.931 27.185 340.475 28.8 340.915 30.792 340.915 32.784 340.915 34.399 340.474 34.399 339.931 34.399 339.388 32.784 338.947 30.792 338.947Z" stroke="#FFFFFF" fill="#86D5FD"/></g></svg>