<svg width="96" height="96" xmlns="http://www.w3.org/2000/svg" xmlns:xlink="http://www.w3.org/1999/xlink" xml:space="preserve" overflow="hidden"><defs><clipPath id="clip0"><rect x="475" y="173" width="96" height="96"/></clipPath></defs><g clip-path="url(#clip0)" transform="translate(-475 -173)"><path d="M546.668 217.912C544.04 219.564 541.935 221.929 540.598 224.731 540.176 225.624 541.278 226.273 542.077 225.616 543.896 224.112 546.016 223.015 548.294 222.4 550.094 221.918 551.075 219.988 550.238 218.576L550.198 218.509C549.405 217.372 547.84 217.094 546.703 217.887 546.691 217.895 546.68 217.904 546.668 217.912Z" stroke="#FFFFFF" fill="#0EACFB"/><path d="M503.75 221.622C505.493 222.014 507.112 222.831 508.462 224 508.775 224.272 509.249 224.24 509.521 223.927 509.7 223.722 509.754 223.436 509.662 223.18 508.803 220.952 507.259 219.054 505.252 217.76 504.315 217.17 503.076 217.451 502.486 218.389 502.474 218.407 502.463 218.425 502.452 218.444L502.418 218.503C501.822 219.491 502.139 220.776 503.128 221.372 503.32 221.488 503.53 221.573 503.75 221.622Z" stroke="#FFFFFF" fill="#0EACFB"/><path d="M556.941 235.572 556.926 235.506C556.677 234.426 555.6 233.753 554.52 234.002 554.499 234.007 554.478 234.012 554.457 234.018 552.156 234.656 550.116 236.008 548.632 237.879 548.38 238.209 548.443 238.681 548.773 238.933 548.993 239.101 549.287 239.135 549.539 239.021 551.176 238.305 552.965 238.006 554.746 238.15 555.897 238.241 556.903 237.382 556.994 236.231 557.011 236.01 556.994 235.787 556.941 235.572Z" stroke="#FFFFFF" fill="#0EACFB"/><path d="M492.391 238.748C494.716 238.34 497.1 238.436 499.385 239.028 500.385 239.284 501.11 238.228 500.35 237.6 497.953 235.627 495.044 234.376 491.963 233.993 490.602 233.732 489.286 234.625 489.026 235.986 489.023 236.001 489.021 236.016 489.018 236.03L489.01 236.107C488.85 237.741 490.558 239.073 492.391 238.748Z" stroke="#FFFFFF" fill="#0EACFB"/><path d="M526.654 227.523C527.185 227.474 527.603 227.048 527.641 226.516 527.881 223.033 529.207 210.288 536.056 199.704 537.821 196.922 537.23 193.259 534.678 191.174L534.678 191.174C531.903 188.864 527.78 189.242 525.47 192.017 524.759 192.872 524.277 193.895 524.071 194.988 521.846 207.526 524.671 222.734 525.479 226.656 525.592 227.203 526.098 227.576 526.654 227.523Z" stroke="#FFFFFF" fill="#0EACFB"/><path d="M544.481 243.911C545.881 243.273 546.708 242.529 546.708 241.731 546.708 240.231 543.851 238.915 539.547 238.159 541.153 237.305 542.866 236.669 544.64 236.266 546.782 235.779 548.124 233.647 547.636 231.505 547.543 231.093 547.384 230.699 547.167 230.338L547.101 230.227C546.035 228.408 543.697 227.798 541.878 228.863 541.843 228.884 541.808 228.905 541.773 228.927 538.478 231.048 535.832 234.037 534.127 237.565 533.373 237.525 532.596 237.503 531.807 237.494 537.788 221.242 545.662 211.6 550.634 207.551 553.029 205.661 553.437 202.187 551.547 199.792 549.657 197.398 546.183 196.989 543.788 198.879 543.506 199.102 543.247 199.352 543.013 199.625 534.369 209.344 530.372 225.325 528.523 237.546 527.261 237.604 526.048 237.7 524.909 237.836 524.909 237.827 524.909 237.818 524.909 237.809 522.214 222.438 516.55 201.464 504.883 189.209 502.311 186.403 497.951 186.213 495.144 188.785 492.338 191.357 492.148 195.717 494.72 198.524 495.021 198.853 495.354 199.151 495.713 199.416 502.343 204.45 513.149 216.886 521.438 238.409 520.65 238.58 519.925 238.771 519.273 238.98 517.139 234.606 513.846 230.902 509.753 228.269 507.528 226.866 504.587 227.532 503.183 229.757 503.155 229.802 503.127 229.848 503.1 229.894L503.018 230.032C501.605 232.381 502.363 235.431 504.712 236.845 505.164 237.117 505.657 237.315 506.172 237.432 509.018 238.075 511.732 239.198 514.2 240.754 512.987 240.654 511.706 240.602 510.378 240.602 502.941 240.602 496.912 242.246 496.912 244.275 496.912 245.497 499.112 246.575 502.481 247.245 502.259 247.577 502.137 247.966 502.128 248.365 502.124 252.03 513.016 255 526.451 255 539.886 255 550.778 252.03 550.778 248.365 550.778 246.651 548.394 245.089 544.481 243.911Z" stroke="#FFFFFF" fill="#0EACFB"/><path d="M493.792 247.947C491.8 247.947 490.185 248.387 490.185 248.931 490.185 249.475 491.8 249.915 493.792 249.915 495.784 249.915 497.399 249.474 497.399 248.931 497.399 248.388 495.784 247.947 493.792 247.947Z" stroke="#FFFFFF" fill="#0EACFB"/></g></svg>