<svg width="96" height="96" xmlns="http://www.w3.org/2000/svg" xmlns:xlink="http://www.w3.org/1999/xlink" xml:space="preserve" overflow="hidden"><defs><clipPath id="clip0"><rect x="112" y="528" width="96" height="96"/></clipPath></defs><g clip-path="url(#clip0)" transform="translate(-112 -528)"><path d="M183.668 572.912C181.04 574.564 178.935 576.929 177.598 579.731 177.176 580.624 178.278 581.273 179.077 580.616 180.896 579.112 183.016 578.015 185.294 577.4 187.094 576.918 188.075 574.988 187.238 573.576L187.198 573.509C186.405 572.372 184.84 572.094 183.703 572.887 183.691 572.895 183.68 572.904 183.668 572.912Z" stroke="#FFFFFF" fill="#0398C4"/><path d="M140.75 576.622C142.493 577.014 144.112 577.831 145.462 579 145.775 579.272 146.249 579.24 146.521 578.927 146.7 578.722 146.754 578.436 146.662 578.18 145.803 575.952 144.259 574.054 142.252 572.76 141.314 572.17 140.076 572.451 139.486 573.389 139.474 573.407 139.463 573.425 139.452 573.444L139.418 573.503C138.822 574.491 139.139 575.776 140.128 576.372 140.32 576.488 140.531 576.573 140.75 576.622Z" stroke="#FFFFFF" fill="#0398C4"/><path d="M193.941 590.572 193.926 590.506C193.677 589.427 192.6 588.753 191.52 589.002 191.499 589.007 191.478 589.012 191.457 589.018 189.156 589.656 187.116 591.008 185.632 592.879 185.38 593.209 185.443 593.681 185.773 593.933 185.993 594.101 186.287 594.135 186.539 594.021 188.176 593.305 189.965 593.006 191.746 593.15 192.897 593.241 193.903 592.381 193.994 591.231 194.011 591.01 193.993 590.787 193.941 590.572Z" stroke="#FFFFFF" fill="#0398C4"/><path d="M129.391 593.748C131.715 593.34 134.1 593.436 136.385 594.028 137.385 594.284 138.11 593.228 137.35 592.6 134.953 590.627 132.044 589.376 128.963 588.993 127.602 588.732 126.286 589.625 126.026 590.987 126.023 591.001 126.021 591.016 126.018 591.03L126.01 591.107C125.85 592.741 127.558 594.073 129.391 593.748Z" stroke="#FFFFFF" fill="#0398C4"/><path d="M163.654 582.523C164.185 582.474 164.603 582.048 164.641 581.516 164.881 578.033 166.207 565.288 173.056 554.704 174.821 551.922 174.23 548.259 171.678 546.174L171.678 546.174C168.903 543.864 164.78 544.242 162.47 547.017 161.759 547.872 161.277 548.895 161.071 549.988 158.846 562.526 161.671 577.734 162.479 581.656 162.592 582.203 163.098 582.576 163.654 582.523Z" stroke="#FFFFFF" fill="#0398C4"/><path d="M181.481 598.911C182.881 598.273 183.708 597.529 183.708 596.731 183.708 595.231 180.851 593.915 176.547 593.159 178.153 592.305 179.866 591.669 181.64 591.266 183.782 590.779 185.124 588.647 184.636 586.505 184.543 586.093 184.384 585.7 184.167 585.338L184.101 585.227C183.035 583.408 180.697 582.797 178.878 583.863 178.843 583.884 178.808 583.905 178.773 583.927 175.478 586.048 172.832 589.037 171.127 592.565 170.373 592.525 169.596 592.503 168.807 592.494 174.788 576.242 182.662 566.6 187.634 562.551 190.029 560.661 190.437 557.187 188.547 554.792 186.657 552.398 183.183 551.989 180.788 553.879 180.506 554.102 180.247 554.352 180.013 554.625 171.369 564.344 167.372 580.325 165.523 592.546 164.261 592.604 163.048 592.7 161.909 592.836 161.909 592.827 161.909 592.818 161.909 592.809 159.214 577.438 153.55 556.464 141.883 544.209 139.311 541.403 134.951 541.213 132.144 543.785 129.338 546.357 129.148 550.717 131.72 553.524 132.021 553.853 132.354 554.151 132.713 554.416 139.343 559.45 150.149 571.886 158.438 593.409 157.65 593.58 156.925 593.771 156.273 593.98 154.139 589.606 150.846 585.901 146.753 583.269 144.528 581.866 141.587 582.532 140.183 584.757 140.155 584.802 140.127 584.848 140.1 584.894L140.018 585.032C138.605 587.381 139.363 590.431 141.712 591.845 142.164 592.117 142.657 592.315 143.172 592.432 146.018 593.075 148.732 594.198 151.2 595.754 149.987 595.654 148.706 595.602 147.378 595.602 139.941 595.602 133.912 597.246 133.912 599.275 133.912 600.497 136.112 601.575 139.481 602.245 139.259 602.577 139.137 602.966 139.128 603.365 139.124 607.03 150.016 610 163.451 610 176.886 610 187.778 607.03 187.778 603.365 187.778 601.651 185.394 600.089 181.481 598.911Z" stroke="#FFFFFF" fill="#0398C4"/><path d="M130.792 602.947C128.8 602.947 127.185 603.387 127.185 603.931 127.185 604.475 128.8 604.915 130.792 604.915 132.784 604.915 134.399 604.474 134.399 603.931 134.399 603.388 132.784 602.947 130.792 602.947Z" stroke="#FFFFFF" fill="#0398C4"/></g></svg>