<svg width="96" height="96" xmlns="http://www.w3.org/2000/svg" xmlns:xlink="http://www.w3.org/1999/xlink" xml:space="preserve" overflow="hidden"><defs><clipPath id="clip0"><rect x="675" y="437" width="96" height="96"/></clipPath></defs><g clip-path="url(#clip0)" transform="translate(-675 -437)"><path d="M746.668 481.912C744.04 483.564 741.935 485.929 740.598 488.731 740.176 489.624 741.278 490.273 742.077 489.616 743.896 488.112 746.016 487.015 748.294 486.4 750.094 485.918 751.075 483.988 750.238 482.576L750.198 482.509C749.405 481.372 747.84 481.094 746.703 481.887 746.691 481.895 746.68 481.904 746.668 481.912Z" stroke="#FFFFFF" fill="#04F0F6"/><path d="M703.75 485.622C705.493 486.014 707.112 486.831 708.462 488 708.775 488.272 709.249 488.24 709.521 487.927 709.7 487.722 709.754 487.436 709.662 487.18 708.803 484.952 707.259 483.054 705.252 481.76 704.315 481.17 703.076 481.451 702.486 482.389 702.474 482.407 702.463 482.425 702.452 482.444L702.418 482.503C701.822 483.491 702.14 484.776 703.128 485.372 703.32 485.488 703.531 485.573 703.75 485.622Z" stroke="#FFFFFF" fill="#04F0F6"/><path d="M756.941 499.572 756.926 499.506C756.677 498.427 755.6 497.753 754.52 498.002 754.499 498.007 754.478 498.012 754.457 498.018 752.156 498.656 750.116 500.008 748.632 501.879 748.38 502.209 748.443 502.681 748.773 502.933 748.993 503.101 749.287 503.135 749.539 503.021 751.176 502.305 752.965 502.006 754.746 502.15 755.897 502.241 756.903 501.382 756.994 500.231 757.011 500.01 756.994 499.787 756.941 499.572Z" stroke="#FFFFFF" fill="#04F0F6"/><path d="M692.391 502.748C694.716 502.34 697.101 502.436 699.385 503.028 700.385 503.284 701.11 502.228 700.35 501.6 697.953 499.627 695.044 498.376 691.963 497.993 690.602 497.732 689.286 498.625 689.026 499.987 689.023 500.001 689.021 500.016 689.018 500.03L689.01 500.107C688.85 501.741 690.558 503.073 692.391 502.748Z" stroke="#FFFFFF" fill="#04F0F6"/><path d="M726.654 491.523C727.185 491.474 727.603 491.048 727.641 490.516 727.881 487.033 729.207 474.288 736.056 463.704 737.821 460.922 737.23 457.259 734.678 455.174L734.678 455.174C731.903 452.864 727.78 453.242 725.47 456.017 724.759 456.872 724.277 457.895 724.071 458.988 721.846 471.526 724.671 486.734 725.479 490.656 725.592 491.203 726.098 491.576 726.654 491.523Z" stroke="#FFFFFF" fill="#04F0F6"/><path d="M744.481 507.911C745.881 507.273 746.708 506.529 746.708 505.731 746.708 504.231 743.851 502.915 739.547 502.159 741.153 501.305 742.866 500.669 744.64 500.266 746.782 499.779 748.124 497.647 747.636 495.505 747.543 495.093 747.384 494.699 747.167 494.338L747.101 494.227C746.035 492.408 743.697 491.797 741.878 492.863 741.843 492.884 741.808 492.905 741.773 492.927 738.478 495.048 735.832 498.037 734.127 501.565 733.373 501.525 732.596 501.503 731.807 501.494 737.788 485.242 745.662 475.6 750.634 471.551 753.029 469.661 753.437 466.187 751.547 463.792 749.657 461.398 746.183 460.989 743.788 462.879 743.506 463.102 743.247 463.352 743.013 463.625 734.369 473.344 730.372 489.325 728.523 501.546 727.261 501.604 726.048 501.7 724.909 501.836 724.909 501.827 724.909 501.818 724.909 501.809 722.214 486.438 716.55 465.464 704.883 453.209 702.311 450.403 697.951 450.213 695.144 452.785 692.338 455.357 692.148 459.717 694.72 462.524 695.021 462.853 695.354 463.151 695.713 463.416 702.343 468.45 713.149 480.886 721.438 502.409 720.65 502.58 719.925 502.771 719.273 502.98 717.139 498.606 713.846 494.901 709.753 492.269 707.528 490.866 704.587 491.532 703.183 493.757 703.155 493.802 703.127 493.848 703.1 493.894L703.018 494.032C701.605 496.381 702.363 499.431 704.712 500.845 705.164 501.117 705.657 501.315 706.172 501.432 709.018 502.075 711.732 503.198 714.2 504.754 712.987 504.654 711.706 504.602 710.378 504.602 702.941 504.602 696.912 506.246 696.912 508.275 696.912 509.497 699.112 510.575 702.481 511.245 702.259 511.577 702.137 511.966 702.128 512.365 702.124 516.03 713.016 519 726.451 519 739.886 519 750.778 516.03 750.778 512.365 750.778 510.651 748.394 509.089 744.481 507.911Z" stroke="#FFFFFF" fill="#04F0F6"/><path d="M693.792 511.947C691.8 511.947 690.185 512.387 690.185 512.931 690.185 513.475 691.8 513.915 693.792 513.915 695.784 513.915 697.399 513.474 697.399 512.931 697.399 512.388 695.784 511.947 693.792 511.947Z" stroke="#FFFFFF" fill="#04F0F6"/></g></svg>