<svg width="96" height="96" xmlns="http://www.w3.org/2000/svg" xmlns:xlink="http://www.w3.org/1999/xlink" xml:space="preserve" overflow="hidden"><defs><clipPath id="clip0"><rect x="663" y="173" width="96" height="96"/></clipPath></defs><g clip-path="url(#clip0)" transform="translate(-663 -173)"><path d="M734.668 217.912C732.04 219.564 729.935 221.929 728.598 224.731 728.176 225.624 729.278 226.273 730.077 225.616 731.896 224.112 734.016 223.015 736.294 222.4 738.094 221.918 739.075 219.988 738.238 218.576L738.198 218.509C737.405 217.372 735.84 217.094 734.703 217.887 734.691 217.895 734.68 217.904 734.668 217.912Z" stroke="#FFFFFF" fill="#3EBCFB"/><path d="M691.75 221.622C693.493 222.014 695.112 222.831 696.462 224 696.775 224.272 697.249 224.24 697.521 223.927 697.7 223.722 697.754 223.436 697.662 223.18 696.803 220.952 695.259 219.054 693.252 217.76 692.315 217.17 691.076 217.451 690.486 218.389 690.474 218.407 690.463 218.425 690.452 218.444L690.418 218.503C689.822 219.491 690.14 220.776 691.128 221.372 691.32 221.488 691.531 221.573 691.75 221.622Z" stroke="#FFFFFF" fill="#3EBCFB"/><path d="M744.941 235.572 744.926 235.506C744.677 234.426 743.6 233.753 742.52 234.002 742.499 234.007 742.478 234.012 742.457 234.018 740.156 234.656 738.116 236.008 736.632 237.879 736.38 238.209 736.443 238.681 736.773 238.933 736.993 239.101 737.287 239.135 737.539 239.021 739.176 238.305 740.965 238.006 742.746 238.15 743.897 238.241 744.903 237.382 744.994 236.231 745.011 236.01 744.994 235.787 744.941 235.572Z" stroke="#FFFFFF" fill="#3EBCFB"/><path d="M680.391 238.748C682.716 238.34 685.101 238.436 687.385 239.028 688.385 239.284 689.11 238.228 688.35 237.6 685.953 235.627 683.044 234.376 679.963 233.993 678.602 233.732 677.286 234.625 677.026 235.986 677.023 236.001 677.021 236.016 677.018 236.03L677.01 236.107C676.85 237.741 678.558 239.073 680.391 238.748Z" stroke="#FFFFFF" fill="#3EBCFB"/><path d="M714.654 227.523C715.185 227.474 715.603 227.048 715.641 226.516 715.881 223.033 717.207 210.288 724.056 199.704 725.821 196.922 725.23 193.259 722.678 191.174L722.678 191.174C719.903 188.864 715.78 189.242 713.47 192.017 712.759 192.872 712.277 193.895 712.071 194.988 709.846 207.526 712.671 222.734 713.479 226.656 713.592 227.203 714.098 227.576 714.654 227.523Z" stroke="#FFFFFF" fill="#3EBCFB"/><path d="M732.481 243.911C733.881 243.273 734.708 242.529 734.708 241.731 734.708 240.231 731.851 238.915 727.547 238.159 729.153 237.305 730.866 236.669 732.64 236.266 734.782 235.779 736.124 233.647 735.636 231.505 735.543 231.093 735.384 230.699 735.167 230.338L735.101 230.227C734.035 228.408 731.697 227.798 729.878 228.863 729.843 228.884 729.808 228.905 729.773 228.927 726.478 231.048 723.832 234.037 722.127 237.565 721.373 237.525 720.596 237.503 719.807 237.494 725.788 221.242 733.662 211.6 738.634 207.551 741.029 205.661 741.437 202.187 739.547 199.792 737.657 197.398 734.183 196.989 731.788 198.879 731.506 199.102 731.247 199.352 731.013 199.625 722.369 209.344 718.372 225.325 716.523 237.546 715.261 237.604 714.048 237.7 712.909 237.836 712.909 237.827 712.909 237.818 712.909 237.809 710.214 222.438 704.55 201.464 692.883 189.209 690.311 186.403 685.951 186.213 683.144 188.785 680.338 191.357 680.148 195.717 682.72 198.524 683.021 198.853 683.354 199.151 683.713 199.416 690.343 204.45 701.149 216.886 709.438 238.409 708.65 238.58 707.925 238.771 707.273 238.98 705.139 234.606 701.846 230.902 697.753 228.269 695.528 226.866 692.587 227.532 691.183 229.757 691.155 229.802 691.127 229.848 691.1 229.894L691.018 230.032C689.605 232.381 690.363 235.431 692.712 236.845 693.164 237.117 693.657 237.315 694.172 237.432 697.018 238.075 699.732 239.198 702.2 240.754 700.987 240.654 699.706 240.602 698.378 240.602 690.941 240.602 684.912 242.246 684.912 244.275 684.912 245.497 687.112 246.575 690.481 247.245 690.259 247.577 690.137 247.966 690.128 248.365 690.124 252.03 701.016 255 714.451 255 727.886 255 738.778 252.03 738.778 248.365 738.778 246.651 736.394 245.089 732.481 243.911Z" stroke="#FFFFFF" fill="#3EBCFB"/><path d="M681.792 247.947C679.8 247.947 678.185 248.387 678.185 248.931 678.185 249.475 679.8 249.915 681.792 249.915 683.784 249.915 685.399 249.474 685.399 248.931 685.399 248.388 683.784 247.947 681.792 247.947Z" stroke="#FFFFFF" fill="#3EBCFB"/></g></svg>