<svg width="96" height="96" xmlns="http://www.w3.org/2000/svg" xmlns:xlink="http://www.w3.org/1999/xlink" xml:space="preserve" overflow="hidden"><defs><clipPath id="clip0"><rect x="388" y="346" width="96" height="96"/></clipPath></defs><g clip-path="url(#clip0)" transform="translate(-388 -346)"><path d="M459.668 390.912C457.04 392.564 454.935 394.929 453.598 397.731 453.176 398.624 454.278 399.273 455.077 398.616 456.896 397.112 459.016 396.015 461.294 395.4 463.094 394.918 464.075 392.988 463.238 391.576L463.198 391.509C462.405 390.372 460.84 390.094 459.703 390.887 459.691 390.895 459.68 390.904 459.668 390.912Z" stroke="#FFFFFF" fill="#0222BD"/><path d="M416.75 394.622C418.493 395.014 420.112 395.831 421.462 397 421.775 397.272 422.249 397.24 422.521 396.927 422.7 396.722 422.754 396.436 422.662 396.18 421.803 393.952 420.259 392.054 418.252 390.76 417.315 390.17 416.076 390.451 415.486 391.389 415.474 391.407 415.463 391.425 415.452 391.444L415.418 391.503C414.822 392.491 415.139 393.776 416.128 394.372 416.32 394.488 416.53 394.573 416.75 394.622Z" stroke="#FFFFFF" fill="#0222BD"/><path d="M469.941 408.572 469.926 408.506C469.677 407.427 468.6 406.753 467.52 407.002 467.499 407.007 467.478 407.012 467.457 407.018 465.156 407.656 463.116 409.008 461.632 410.879 461.38 411.209 461.443 411.681 461.773 411.933 461.993 412.101 462.287 412.135 462.539 412.021 464.176 411.305 465.965 411.006 467.746 411.15 468.897 411.241 469.903 410.382 469.994 409.231 470.011 409.01 469.993 408.787 469.941 408.572Z" stroke="#FFFFFF" fill="#0222BD"/><path d="M405.391 411.748C407.716 411.34 410.1 411.436 412.385 412.028 413.385 412.284 414.11 411.228 413.35 410.6 410.953 408.627 408.044 407.376 404.963 406.993 403.602 406.732 402.286 407.625 402.026 408.987 402.023 409.001 402.021 409.016 402.018 409.03L402.01 409.107C401.85 410.741 403.558 412.073 405.391 411.748Z" stroke="#FFFFFF" fill="#0222BD"/><path d="M439.654 400.523C440.185 400.474 440.603 400.048 440.641 399.516 440.881 396.033 442.207 383.288 449.056 372.704 450.821 369.922 450.23 366.259 447.678 364.174L447.678 364.174C444.903 361.864 440.78 362.242 438.47 365.017 437.759 365.872 437.277 366.895 437.071 367.988 434.846 380.526 437.671 395.734 438.479 399.656 438.592 400.203 439.098 400.576 439.654 400.523Z" stroke="#FFFFFF" fill="#0222BD"/><path d="M457.481 416.911C458.881 416.273 459.708 415.529 459.708 414.731 459.708 413.231 456.851 411.915 452.547 411.159 454.153 410.305 455.866 409.669 457.64 409.266 459.782 408.779 461.124 406.647 460.636 404.505 460.543 404.093 460.384 403.699 460.167 403.338L460.101 403.227C459.035 401.408 456.697 400.797 454.878 401.863 454.843 401.884 454.808 401.905 454.773 401.927 451.478 404.048 448.832 407.037 447.127 410.565 446.373 410.525 445.596 410.503 444.807 410.494 450.788 394.242 458.662 384.6 463.634 380.551 466.029 378.661 466.437 375.187 464.547 372.792 462.657 370.398 459.183 369.989 456.788 371.879 456.506 372.102 456.247 372.352 456.013 372.625 447.369 382.344 443.372 398.325 441.523 410.546 440.261 410.604 439.048 410.7 437.909 410.836 437.909 410.827 437.909 410.818 437.909 410.809 435.214 395.438 429.55 374.464 417.883 362.209 415.311 359.403 410.951 359.213 408.144 361.785 405.338 364.357 405.148 368.717 407.72 371.524 408.021 371.853 408.354 372.151 408.713 372.416 415.343 377.45 426.149 389.886 434.438 411.409 433.65 411.58 432.925 411.771 432.273 411.98 430.139 407.606 426.846 403.901 422.753 401.269 420.528 399.866 417.587 400.532 416.183 402.757 416.155 402.802 416.127 402.848 416.1 402.894L416.018 403.032C414.605 405.381 415.363 408.431 417.712 409.845 418.164 410.117 418.657 410.315 419.172 410.432 422.018 411.075 424.732 412.198 427.2 413.754 425.987 413.654 424.706 413.602 423.378 413.602 415.941 413.602 409.912 415.246 409.912 417.275 409.912 418.497 412.112 419.575 415.481 420.245 415.259 420.577 415.137 420.966 415.128 421.365 415.124 425.03 426.016 428 439.451 428 452.886 428 463.778 425.03 463.778 421.365 463.778 419.651 461.394 418.089 457.481 416.911Z" stroke="#FFFFFF" fill="#0222BD"/><path d="M406.792 420.947C404.8 420.947 403.185 421.387 403.185 421.931 403.185 422.475 404.8 422.915 406.792 422.915 408.784 422.915 410.399 422.474 410.399 421.931 410.399 421.388 408.784 420.947 406.792 420.947Z" stroke="#FFFFFF" fill="#0222BD"/></g></svg>