<svg width="96" height="96" xmlns="http://www.w3.org/2000/svg" xmlns:xlink="http://www.w3.org/1999/xlink" xml:space="preserve" overflow="hidden"><defs><clipPath id="clip0"><rect x="206" y="437" width="96" height="96"/></clipPath></defs><g clip-path="url(#clip0)" transform="translate(-206 -437)"><path d="M277.668 481.912C275.04 483.564 272.935 485.929 271.598 488.731 271.176 489.624 272.278 490.273 273.077 489.616 274.896 488.112 277.016 487.015 279.294 486.4 281.094 485.918 282.075 483.988 281.238 482.576L281.198 482.509C280.405 481.372 278.84 481.094 277.703 481.887 277.691 481.895 277.68 481.904 277.668 481.912Z" stroke="#FFFFFF" fill="#016062"/><path d="M234.75 485.622C236.493 486.014 238.112 486.831 239.462 488 239.775 488.272 240.249 488.24 240.521 487.927 240.7 487.722 240.754 487.436 240.662 487.18 239.803 484.952 238.259 483.054 236.252 481.76 235.314 481.17 234.076 481.451 233.486 482.389 233.474 482.407 233.463 482.425 233.452 482.444L233.418 482.503C232.822 483.491 233.139 484.776 234.128 485.372 234.32 485.488 234.531 485.573 234.75 485.622Z" stroke="#FFFFFF" fill="#016062"/><path d="M287.941 499.572 287.926 499.506C287.677 498.427 286.6 497.753 285.52 498.002 285.499 498.007 285.478 498.012 285.457 498.018 283.156 498.656 281.116 500.008 279.632 501.879 279.38 502.209 279.443 502.681 279.773 502.933 279.993 503.101 280.287 503.135 280.539 503.021 282.176 502.305 283.965 502.006 285.746 502.15 286.897 502.241 287.903 501.382 287.994 500.231 288.011 500.01 287.993 499.787 287.941 499.572Z" stroke="#FFFFFF" fill="#016062"/><path d="M223.391 502.748C225.715 502.34 228.1 502.436 230.385 503.028 231.385 503.284 232.11 502.228 231.35 501.6 228.953 499.627 226.044 498.376 222.963 497.993 221.602 497.732 220.286 498.625 220.026 499.987 220.023 500.001 220.021 500.016 220.018 500.03L220.01 500.107C219.85 501.741 221.558 503.073 223.391 502.748Z" stroke="#FFFFFF" fill="#016062"/><path d="M257.654 491.523C258.185 491.474 258.603 491.048 258.641 490.516 258.881 487.033 260.207 474.288 267.056 463.704 268.821 460.922 268.23 457.259 265.678 455.174L265.678 455.174C262.903 452.864 258.78 453.242 256.47 456.017 255.759 456.872 255.277 457.895 255.071 458.988 252.846 471.526 255.671 486.734 256.479 490.656 256.592 491.203 257.098 491.576 257.654 491.523Z" stroke="#FFFFFF" fill="#016062"/><path d="M275.481 507.911C276.881 507.273 277.708 506.529 277.708 505.731 277.708 504.231 274.851 502.915 270.547 502.159 272.153 501.305 273.866 500.669 275.64 500.266 277.782 499.779 279.124 497.647 278.636 495.505 278.543 495.093 278.384 494.699 278.167 494.338L278.101 494.227C277.035 492.408 274.697 491.797 272.878 492.863 272.843 492.884 272.808 492.905 272.773 492.927 269.478 495.048 266.832 498.037 265.127 501.565 264.373 501.525 263.596 501.503 262.807 501.494 268.788 485.242 276.662 475.6 281.634 471.551 284.029 469.661 284.437 466.187 282.547 463.792 280.657 461.398 277.183 460.989 274.788 462.879 274.506 463.102 274.247 463.352 274.013 463.625 265.369 473.344 261.372 489.325 259.523 501.546 258.261 501.604 257.048 501.7 255.909 501.836 255.909 501.827 255.909 501.818 255.909 501.809 253.214 486.438 247.55 465.464 235.883 453.209 233.311 450.403 228.951 450.213 226.144 452.785 223.338 455.357 223.148 459.717 225.72 462.524 226.021 462.853 226.354 463.151 226.713 463.416 233.343 468.45 244.149 480.886 252.438 502.409 251.65 502.58 250.925 502.771 250.273 502.98 248.139 498.606 244.846 494.901 240.753 492.269 238.528 490.866 235.587 491.532 234.183 493.757 234.155 493.802 234.127 493.848 234.1 493.894L234.018 494.032C232.605 496.381 233.363 499.431 235.712 500.845 236.164 501.117 236.657 501.315 237.172 501.432 240.018 502.075 242.732 503.198 245.2 504.754 243.987 504.654 242.706 504.602 241.378 504.602 233.941 504.602 227.912 506.246 227.912 508.275 227.912 509.497 230.112 510.575 233.481 511.245 233.259 511.577 233.137 511.966 233.128 512.365 233.124 516.03 244.016 519 257.451 519 270.886 519 281.778 516.03 281.778 512.365 281.778 510.651 279.394 509.089 275.481 507.911Z" stroke="#FFFFFF" fill="#016062"/><path d="M224.792 511.947C222.8 511.947 221.185 512.387 221.185 512.931 221.185 513.475 222.8 513.915 224.792 513.915 226.784 513.915 228.399 513.474 228.399 512.931 228.399 512.388 226.784 511.947 224.792 511.947Z" stroke="#FFFFFF" fill="#016062"/></g></svg>