<svg xmlns="http://www.w3.org/2000/svg" xmlns:xlink="http://www.w3.org/1999/xlink" width="96" height="96" overflow="hidden" xml:space="preserve"><defs><clipPath id="clip0"><rect width="96" height="96" x="0" y="0"/></clipPath></defs><g clip-path="url(#clip0)"><path fill="#01324A" stroke="#FFF" d="M71.668 44.912C69.0396 46.5641 66.9346 48.9289 65.598 51.731 65.176 52.624 66.278 53.273 67.077 52.616 68.8955 51.1117 71.0155 50.015 73.294 49.4 75.094 48.918 76.075 46.988 75.238 45.576L75.198 45.509C74.4047 44.3722 72.8401 44.0937 71.7033 44.8869 71.6914 44.8952 71.6797 44.9035 71.668 44.912Z"/><path fill="#01324A" stroke="#FFF" d="M28.75 48.622C30.4928 49.0137 32.1116 49.8307 33.462 51 33.7748 51.2723 34.2492 51.2395 34.5215 50.9267 34.7001 50.7216 34.7538 50.436 34.662 50.18 33.8033 47.9518 32.259 46.0539 30.252 44.76 29.3145 44.1697 28.0759 44.4511 27.4856 45.3887 27.4741 45.4069 27.4629 45.4254 27.452 45.444L27.418 45.503C26.8217 46.4913 27.1395 47.7759 28.1278 48.3722 28.3204 48.4884 28.5305 48.5728 28.75 48.622Z"/><path fill="#01324A" stroke="#FFF" d="M81.941 62.572 81.926 62.506C81.677 61.4265 80.5999 60.7532 79.5204 61.0023 79.4992 61.0072 79.4781 61.0124 79.457 61.018 77.1556 61.656 75.116 63.0079 73.632 64.879 73.3798 65.209 73.4428 65.6809 73.7728 65.9331 73.9926 66.1011 74.2869 66.1349 74.539 66.021 76.176 65.3048 77.965 65.0056 79.746 65.15 80.8967 65.2408 81.9031 64.3815 81.9939 63.2308 82.0113 63.0098 81.9935 62.7874 81.941 62.572Z"/><path fill="#01324A" stroke="#FFF" d="M17.391 65.748C19.7155 65.3401 22.1005 65.4356 24.385 66.028 25.385 66.284 26.11 65.228 25.35 64.6 22.9526 62.6272 20.044 61.3763 16.963 60.993 15.6015 60.7324 14.2865 61.6249 14.0259 62.9865 14.0232 63.0009 14.0205 63.0155 14.018 63.03L14.01 63.107C13.85 64.741 15.558 66.073 17.391 65.748Z"/><path fill="#01324A" stroke="#FFF" d="M51.654 54.523C52.1852 54.4744 52.6031 54.0481 52.641 53.516 52.881 50.033 54.207 37.288 61.056 26.704 62.8213 23.9216 62.2296 20.259 59.678 18.174L59.678 18.174C56.9026 15.8642 52.7802 16.2417 50.4704 19.0172 49.7588 19.8723 49.2771 20.8948 49.071 21.988 46.846 34.526 49.671 49.734 50.479 53.656 50.5918 54.2026 51.0984 54.5764 51.654 54.523Z"/><path fill="#01324A" stroke="#FFF" d="M69.481 70.911C70.881 70.273 71.708 69.529 71.708 68.731 71.708 67.231 68.851 65.915 64.547 65.159 66.1534 64.3053 67.866 63.6687 69.64 63.266 71.7822 62.7785 73.1237 60.6468 72.6362 58.5045 72.5427 58.0933 72.3843 57.6995 72.167 57.338L72.101 57.227C71.0353 55.4081 68.697 54.7975 66.8781 55.8631 66.8427 55.8839 66.8077 55.9052 66.773 55.927 63.4779 58.0477 60.832 61.0368 59.127 64.565 58.373 64.525 57.596 64.503 56.807 64.494 62.788 48.242 70.662 38.6 75.634 34.551 78.0286 32.6606 78.4374 29.187 76.547 26.7924 74.6567 24.3978 71.183 23.9891 68.7884 25.8794 68.5063 26.1021 68.2466 26.3518 68.013 26.625 59.369 36.344 55.372 52.325 53.523 64.546 52.261 64.604 51.048 64.7 49.909 64.836 49.909 64.827 49.909 64.818 49.909 64.809 47.214 49.438 41.55 28.464 29.883 16.209 27.3108 13.4026 22.9505 13.2127 20.1441 15.7849 17.3376 18.3571 17.1477 22.7174 19.72 25.5239 20.0213 25.8527 20.3539 26.1514 20.713 26.416 27.343 31.45 38.149 43.886 46.438 65.409 45.65 65.58 44.925 65.771 44.273 65.98 42.139 61.6062 38.8462 57.9015 34.753 55.269 32.5281 53.8657 29.5868 54.5317 28.1834 56.7566 28.1548 56.802 28.127 56.8478 28.1 56.894L28.018 57.032C26.6046 59.3811 27.363 62.4312 29.7121 63.8447 30.1644 64.1168 30.6572 64.3151 31.172 64.432 34.0175 65.0746 36.7325 66.198 39.2 67.754 37.987 67.654 36.706 67.602 35.378 67.602 27.941 67.602 21.912 69.246 21.912 71.275 21.912 72.497 24.112 73.575 27.481 74.245 27.2592 74.5772 27.1368 74.9657 27.128 75.365 27.124 79.03 38.016 82 51.451 82 64.886 82 75.778 79.03 75.778 75.365 75.778 73.651 73.394 72.089 69.481 70.911Z"/><path fill="#01324A" stroke="#FFF" d="M18.792 74.947C16.8 74.947 15.185 75.387 15.185 75.931 15.185 76.475 16.8 76.915 18.792 76.915 20.784 76.915 22.399 76.474 22.399 75.931 22.399 75.388 20.784 74.947 18.792 74.947Z"/></g></svg>