<svg width="96" height="96" xmlns="http://www.w3.org/2000/svg" xmlns:xlink="http://www.w3.org/1999/xlink" xml:space="preserve" overflow="hidden"><defs><clipPath id="clip0"><rect x="288" y="91" width="96" height="96"/></clipPath></defs><g clip-path="url(#clip0)" transform="translate(-288 -91)"><path d="M359.668 135.912C357.04 137.564 354.935 139.929 353.598 142.731 353.176 143.624 354.278 144.273 355.077 143.616 356.896 142.112 359.016 141.015 361.294 140.4 363.094 139.918 364.075 137.988 363.238 136.576L363.198 136.509C362.405 135.372 360.84 135.094 359.703 135.887 359.691 135.895 359.68 135.904 359.668 135.912Z" stroke="#FFFFFF" fill="#B3D8EA"/><path d="M316.75 139.622C318.493 140.014 320.112 140.831 321.462 142 321.775 142.272 322.249 142.24 322.521 141.927 322.7 141.722 322.754 141.436 322.662 141.18 321.803 138.952 320.259 137.054 318.252 135.76 317.315 135.17 316.076 135.451 315.486 136.389 315.474 136.407 315.463 136.425 315.452 136.444L315.418 136.503C314.822 137.491 315.139 138.776 316.128 139.372 316.32 139.488 316.53 139.573 316.75 139.622Z" stroke="#FFFFFF" fill="#B3D8EA"/><path d="M369.941 153.572 369.926 153.506C369.677 152.426 368.6 151.753 367.52 152.002 367.499 152.007 367.478 152.012 367.457 152.018 365.156 152.656 363.116 154.008 361.632 155.879 361.38 156.209 361.443 156.681 361.773 156.933 361.993 157.101 362.287 157.135 362.539 157.021 364.176 156.305 365.965 156.006 367.746 156.15 368.897 156.241 369.903 155.382 369.994 154.231 370.011 154.01 369.993 153.787 369.941 153.572Z" stroke="#FFFFFF" fill="#B3D8EA"/><path d="M305.391 156.748C307.716 156.34 310.1 156.436 312.385 157.028 313.385 157.284 314.11 156.228 313.35 155.6 310.953 153.627 308.044 152.376 304.963 151.993 303.602 151.732 302.286 152.625 302.026 153.986 302.023 154.001 302.021 154.016 302.018 154.03L302.01 154.107C301.85 155.741 303.558 157.073 305.391 156.748Z" stroke="#FFFFFF" fill="#B3D8EA"/><path d="M339.654 145.523C340.185 145.474 340.603 145.048 340.641 144.516 340.881 141.033 342.207 128.288 349.056 117.704 350.821 114.922 350.23 111.259 347.678 109.174L347.678 109.174C344.903 106.864 340.78 107.242 338.47 110.017 337.759 110.872 337.277 111.895 337.071 112.988 334.846 125.526 337.671 140.734 338.479 144.656 338.592 145.203 339.098 145.576 339.654 145.523Z" stroke="#FFFFFF" fill="#B3D8EA"/><path d="M357.481 161.911C358.881 161.273 359.708 160.529 359.708 159.731 359.708 158.231 356.851 156.915 352.547 156.159 354.153 155.305 355.866 154.669 357.64 154.266 359.782 153.779 361.124 151.647 360.636 149.505 360.543 149.093 360.384 148.699 360.167 148.338L360.101 148.227C359.035 146.408 356.697 145.798 354.878 146.863 354.843 146.884 354.808 146.905 354.773 146.927 351.478 149.048 348.832 152.037 347.127 155.565 346.373 155.525 345.596 155.503 344.807 155.494 350.788 139.242 358.662 129.6 363.634 125.551 366.029 123.661 366.437 120.187 364.547 117.792 362.657 115.398 359.183 114.989 356.788 116.879 356.506 117.102 356.247 117.352 356.013 117.625 347.369 127.344 343.372 143.325 341.523 155.546 340.261 155.604 339.048 155.7 337.909 155.836 337.909 155.827 337.909 155.818 337.909 155.809 335.214 140.438 329.55 119.464 317.883 107.209 315.311 104.403 310.951 104.213 308.144 106.785 305.338 109.357 305.148 113.717 307.72 116.524 308.021 116.853 308.354 117.151 308.713 117.416 315.343 122.45 326.149 134.886 334.438 156.409 333.65 156.58 332.925 156.771 332.273 156.98 330.139 152.606 326.846 148.902 322.753 146.269 320.528 144.866 317.587 145.532 316.183 147.757 316.155 147.802 316.127 147.848 316.1 147.894L316.018 148.032C314.605 150.381 315.363 153.431 317.712 154.845 318.164 155.117 318.657 155.315 319.172 155.432 322.018 156.075 324.732 157.198 327.2 158.754 325.987 158.654 324.706 158.602 323.378 158.602 315.941 158.602 309.912 160.246 309.912 162.275 309.912 163.497 312.112 164.575 315.481 165.245 315.259 165.577 315.137 165.966 315.128 166.365 315.124 170.03 326.016 173 339.451 173 352.886 173 363.778 170.03 363.778 166.365 363.778 164.651 361.394 163.089 357.481 161.911Z" stroke="#FFFFFF" fill="#B3D8EA"/><path d="M306.792 165.947C304.8 165.947 303.185 166.387 303.185 166.931 303.185 167.475 304.8 167.915 306.792 167.915 308.784 167.915 310.399 167.474 310.399 166.931 310.399 166.388 308.784 165.947 306.792 165.947Z" stroke="#FFFFFF" fill="#B3D8EA"/></g></svg>