<svg width="96" height="96" xmlns="http://www.w3.org/2000/svg" xmlns:xlink="http://www.w3.org/1999/xlink" xml:space="preserve" overflow="hidden"><defs><clipPath id="clip0"><rect x="769" y="437" width="96" height="96"/></clipPath></defs><g clip-path="url(#clip0)" transform="translate(-769 -437)"><path d="M840.668 481.912C838.04 483.564 835.935 485.929 834.598 488.731 834.176 489.624 835.278 490.273 836.077 489.616 837.896 488.112 840.016 487.015 842.294 486.4 844.094 485.918 845.075 483.988 844.238 482.576L844.198 482.509C843.405 481.372 841.84 481.094 840.703 481.887 840.691 481.895 840.68 481.904 840.668 481.912Z" stroke="#FFFFFF" fill="#18F6FB"/><path d="M797.75 485.622C799.493 486.014 801.112 486.831 802.462 488 802.775 488.272 803.249 488.24 803.521 487.927 803.7 487.722 803.754 487.436 803.662 487.18 802.803 484.952 801.259 483.054 799.252 481.76 798.315 481.17 797.076 481.451 796.486 482.389 796.474 482.407 796.463 482.425 796.452 482.444L796.418 482.503C795.822 483.491 796.14 484.776 797.128 485.372 797.32 485.488 797.531 485.573 797.75 485.622Z" stroke="#FFFFFF" fill="#18F6FB"/><path d="M850.941 499.572 850.926 499.506C850.677 498.427 849.6 497.753 848.52 498.002 848.499 498.007 848.478 498.012 848.457 498.018 846.156 498.656 844.116 500.008 842.632 501.879 842.38 502.209 842.443 502.681 842.773 502.933 842.993 503.101 843.287 503.135 843.539 503.021 845.176 502.305 846.965 502.006 848.746 502.15 849.897 502.241 850.903 501.382 850.994 500.231 851.011 500.01 850.994 499.787 850.941 499.572Z" stroke="#FFFFFF" fill="#18F6FB"/><path d="M786.391 502.748C788.716 502.34 791.101 502.436 793.385 503.028 794.385 503.284 795.11 502.228 794.35 501.6 791.953 499.627 789.044 498.376 785.963 497.993 784.602 497.732 783.286 498.625 783.026 499.987 783.023 500.001 783.021 500.016 783.018 500.03L783.01 500.107C782.85 501.741 784.558 503.073 786.391 502.748Z" stroke="#FFFFFF" fill="#18F6FB"/><path d="M820.654 491.523C821.185 491.474 821.603 491.048 821.641 490.516 821.881 487.033 823.207 474.288 830.056 463.704 831.821 460.922 831.23 457.259 828.678 455.174L828.678 455.174C825.903 452.864 821.78 453.242 819.47 456.017 818.759 456.872 818.277 457.895 818.071 458.988 815.846 471.526 818.671 486.734 819.479 490.656 819.592 491.203 820.098 491.576 820.654 491.523Z" stroke="#FFFFFF" fill="#18F6FB"/><path d="M838.481 507.911C839.881 507.273 840.708 506.529 840.708 505.731 840.708 504.231 837.851 502.915 833.547 502.159 835.153 501.305 836.866 500.669 838.64 500.266 840.782 499.779 842.124 497.647 841.636 495.505 841.543 495.093 841.384 494.699 841.167 494.338L841.101 494.227C840.035 492.408 837.697 491.797 835.878 492.863 835.843 492.884 835.808 492.905 835.773 492.927 832.478 495.048 829.832 498.037 828.127 501.565 827.373 501.525 826.596 501.503 825.807 501.494 831.788 485.242 839.662 475.6 844.634 471.551 847.029 469.661 847.437 466.187 845.547 463.792 843.657 461.398 840.183 460.989 837.788 462.879 837.506 463.102 837.247 463.352 837.013 463.625 828.369 473.344 824.372 489.325 822.523 501.546 821.261 501.604 820.048 501.7 818.909 501.836 818.909 501.827 818.909 501.818 818.909 501.809 816.214 486.438 810.55 465.464 798.883 453.209 796.311 450.403 791.951 450.213 789.144 452.785 786.338 455.357 786.148 459.717 788.72 462.524 789.021 462.853 789.354 463.151 789.713 463.416 796.343 468.45 807.149 480.886 815.438 502.409 814.65 502.58 813.925 502.771 813.273 502.98 811.139 498.606 807.846 494.901 803.753 492.269 801.528 490.866 798.587 491.532 797.183 493.757 797.155 493.802 797.127 493.848 797.1 493.894L797.018 494.032C795.605 496.381 796.363 499.431 798.712 500.845 799.164 501.117 799.657 501.315 800.172 501.432 803.018 502.075 805.732 503.198 808.2 504.754 806.987 504.654 805.706 504.602 804.378 504.602 796.941 504.602 790.912 506.246 790.912 508.275 790.912 509.497 793.112 510.575 796.481 511.245 796.259 511.577 796.137 511.966 796.128 512.365 796.124 516.03 807.016 519 820.451 519 833.886 519 844.778 516.03 844.778 512.365 844.778 510.651 842.394 509.089 838.481 507.911Z" stroke="#FFFFFF" fill="#18F6FB"/><path d="M787.792 511.947C785.8 511.947 784.185 512.387 784.185 512.931 784.185 513.475 785.8 513.915 787.792 513.915 789.784 513.915 791.399 513.474 791.399 512.931 791.399 512.388 789.784 511.947 787.792 511.947Z" stroke="#FFFFFF" fill="#18F6FB"/></g></svg>