<svg width="96" height="96" xmlns="http://www.w3.org/2000/svg" xmlns:xlink="http://www.w3.org/1999/xlink" xml:space="preserve" overflow="hidden"><defs><clipPath id="clip0"><rect x="18" y="528" width="96" height="96"/></clipPath></defs><g clip-path="url(#clip0)" transform="translate(-18 -528)"><path d="M89.668 572.912C87.0396 574.564 84.9346 576.929 83.598 579.731 83.176 580.624 84.278 581.273 85.077 580.616 86.8955 579.112 89.0155 578.015 91.294 577.4 93.094 576.918 94.075 574.988 93.238 573.576L93.198 573.509C92.4047 572.372 90.8401 572.094 89.7033 572.887 89.6914 572.895 89.6797 572.904 89.668 572.912Z" stroke="#FFFFFF" fill="#0385AB"/><path d="M46.75 576.622C48.4928 577.014 50.1116 577.831 51.462 579 51.7748 579.272 52.2492 579.24 52.5215 578.927 52.7001 578.722 52.7538 578.436 52.662 578.18 51.8033 575.952 50.259 574.054 48.252 572.76 47.3145 572.17 46.0759 572.451 45.4856 573.389 45.4741 573.407 45.4629 573.425 45.452 573.444L45.418 573.503C44.8217 574.491 45.1395 575.776 46.1278 576.372 46.3204 576.488 46.5305 576.573 46.75 576.622Z" stroke="#FFFFFF" fill="#0385AB"/><path d="M99.941 590.572 99.926 590.506C99.677 589.427 98.5999 588.753 97.5204 589.002 97.4992 589.007 97.4781 589.012 97.457 589.018 95.1556 589.656 93.116 591.008 91.632 592.879 91.3798 593.209 91.4428 593.681 91.7728 593.933 91.9926 594.101 92.2869 594.135 92.539 594.021 94.176 593.305 95.965 593.006 97.746 593.15 98.8967 593.241 99.9031 592.381 99.9939 591.231 100.011 591.01 99.9935 590.787 99.941 590.572Z" stroke="#FFFFFF" fill="#0385AB"/><path d="M35.391 593.748C37.7155 593.34 40.1005 593.436 42.385 594.028 43.385 594.284 44.11 593.228 43.35 592.6 40.9526 590.627 38.044 589.376 34.963 588.993 33.6015 588.732 32.2865 589.625 32.0259 590.987 32.0232 591.001 32.0205 591.016 32.018 591.03L32.01 591.107C31.85 592.741 33.558 594.073 35.391 593.748Z" stroke="#FFFFFF" fill="#0385AB"/><path d="M69.654 582.523C70.1852 582.474 70.6031 582.048 70.641 581.516 70.881 578.033 72.207 565.288 79.056 554.704 80.8213 551.922 80.2296 548.259 77.678 546.174L77.678 546.174C74.9026 543.864 70.7802 544.242 68.4704 547.017 67.7588 547.872 67.2771 548.895 67.071 549.988 64.846 562.526 67.671 577.734 68.479 581.656 68.5918 582.203 69.0984 582.576 69.654 582.523Z" stroke="#FFFFFF" fill="#0385AB"/><path d="M87.481 598.911C88.881 598.273 89.708 597.529 89.708 596.731 89.708 595.231 86.851 593.915 82.547 593.159 84.1534 592.305 85.866 591.669 87.64 591.266 89.7822 590.779 91.1237 588.647 90.6362 586.505 90.5427 586.093 90.3843 585.7 90.167 585.338L90.101 585.227C89.0353 583.408 86.697 582.797 84.8781 583.863 84.8427 583.884 84.8077 583.905 84.773 583.927 81.4779 586.048 78.832 589.037 77.127 592.565 76.373 592.525 75.596 592.503 74.807 592.494 80.788 576.242 88.662 566.6 93.634 562.551 96.0286 560.661 96.4374 557.187 94.547 554.792 92.6567 552.398 89.183 551.989 86.7884 553.879 86.5063 554.102 86.2466 554.352 86.013 554.625 77.369 564.344 73.372 580.325 71.523 592.546 70.261 592.604 69.048 592.7 67.909 592.836 67.909 592.827 67.909 592.818 67.909 592.809 65.214 577.438 59.55 556.464 47.883 544.209 45.3108 541.403 40.9505 541.213 38.1441 543.785 35.3376 546.357 35.1477 550.717 37.72 553.524 38.0213 553.853 38.3539 554.151 38.713 554.416 45.343 559.45 56.149 571.886 64.438 593.409 63.65 593.58 62.925 593.771 62.273 593.98 60.139 589.606 56.8462 585.901 52.753 583.269 50.5281 581.866 47.5868 582.532 46.1834 584.757 46.1548 584.802 46.127 584.848 46.1 584.894L46.018 585.032C44.6046 587.381 45.363 590.431 47.7121 591.845 48.1644 592.117 48.6572 592.315 49.172 592.432 52.0175 593.075 54.7325 594.198 57.2 595.754 55.987 595.654 54.706 595.602 53.378 595.602 45.941 595.602 39.912 597.246 39.912 599.275 39.912 600.497 42.112 601.575 45.481 602.245 45.2592 602.577 45.1368 602.966 45.128 603.365 45.124 607.03 56.016 610 69.451 610 82.886 610 93.778 607.03 93.778 603.365 93.778 601.651 91.394 600.089 87.481 598.911Z" stroke="#FFFFFF" fill="#0385AB"/><path d="M36.792 602.947C34.8 602.947 33.185 603.387 33.185 603.931 33.185 604.475 34.8 604.915 36.792 604.915 38.784 604.915 40.399 604.474 40.399 603.931 40.399 603.388 38.784 602.947 36.792 602.947Z" stroke="#FFFFFF" fill="#0385AB"/></g></svg>