<svg width="96" height="96" xmlns="http://www.w3.org/2000/svg" xmlns:xlink="http://www.w3.org/1999/xlink" xml:space="preserve" overflow="hidden"><defs><clipPath id="clip0"><rect x="206" y="528" width="96" height="96"/></clipPath></defs><g clip-path="url(#clip0)" transform="translate(-206 -528)"><path d="M277.668 572.912C275.04 574.564 272.935 576.929 271.598 579.731 271.176 580.624 272.278 581.273 273.077 580.616 274.896 579.112 277.016 578.015 279.294 577.4 281.094 576.918 282.075 574.988 281.238 573.576L281.198 573.509C280.405 572.372 278.84 572.094 277.703 572.887 277.691 572.895 277.68 572.904 277.668 572.912Z" stroke="#FFFFFF" fill="#04ACDD"/><path d="M234.75 576.622C236.493 577.014 238.112 577.831 239.462 579 239.775 579.272 240.249 579.24 240.521 578.927 240.7 578.722 240.754 578.436 240.662 578.18 239.803 575.952 238.259 574.054 236.252 572.76 235.314 572.17 234.076 572.451 233.486 573.389 233.474 573.407 233.463 573.425 233.452 573.444L233.418 573.503C232.822 574.491 233.139 575.776 234.128 576.372 234.32 576.488 234.531 576.573 234.75 576.622Z" stroke="#FFFFFF" fill="#04ACDD"/><path d="M287.941 590.572 287.926 590.506C287.677 589.427 286.6 588.753 285.52 589.002 285.499 589.007 285.478 589.012 285.457 589.018 283.156 589.656 281.116 591.008 279.632 592.879 279.38 593.209 279.443 593.681 279.773 593.933 279.993 594.101 280.287 594.135 280.539 594.021 282.176 593.305 283.965 593.006 285.746 593.15 286.897 593.241 287.903 592.381 287.994 591.231 288.011 591.01 287.993 590.787 287.941 590.572Z" stroke="#FFFFFF" fill="#04ACDD"/><path d="M223.391 593.748C225.715 593.34 228.1 593.436 230.385 594.028 231.385 594.284 232.11 593.228 231.35 592.6 228.953 590.627 226.044 589.376 222.963 588.993 221.602 588.732 220.286 589.625 220.026 590.987 220.023 591.001 220.021 591.016 220.018 591.03L220.01 591.107C219.85 592.741 221.558 594.073 223.391 593.748Z" stroke="#FFFFFF" fill="#04ACDD"/><path d="M257.654 582.523C258.185 582.474 258.603 582.048 258.641 581.516 258.881 578.033 260.207 565.288 267.056 554.704 268.821 551.922 268.23 548.259 265.678 546.174L265.678 546.174C262.903 543.864 258.78 544.242 256.47 547.017 255.759 547.872 255.277 548.895 255.071 549.988 252.846 562.526 255.671 577.734 256.479 581.656 256.592 582.203 257.098 582.576 257.654 582.523Z" stroke="#FFFFFF" fill="#04ACDD"/><path d="M275.481 598.911C276.881 598.273 277.708 597.529 277.708 596.731 277.708 595.231 274.851 593.915 270.547 593.159 272.153 592.305 273.866 591.669 275.64 591.266 277.782 590.779 279.124 588.647 278.636 586.505 278.543 586.093 278.384 585.7 278.167 585.338L278.101 585.227C277.035 583.408 274.697 582.797 272.878 583.863 272.843 583.884 272.808 583.905 272.773 583.927 269.478 586.048 266.832 589.037 265.127 592.565 264.373 592.525 263.596 592.503 262.807 592.494 268.788 576.242 276.662 566.6 281.634 562.551 284.029 560.661 284.437 557.187 282.547 554.792 280.657 552.398 277.183 551.989 274.788 553.879 274.506 554.102 274.247 554.352 274.013 554.625 265.369 564.344 261.372 580.325 259.523 592.546 258.261 592.604 257.048 592.7 255.909 592.836 255.909 592.827 255.909 592.818 255.909 592.809 253.214 577.438 247.55 556.464 235.883 544.209 233.311 541.403 228.951 541.213 226.144 543.785 223.338 546.357 223.148 550.717 225.72 553.524 226.021 553.853 226.354 554.151 226.713 554.416 233.343 559.45 244.149 571.886 252.438 593.409 251.65 593.58 250.925 593.771 250.273 593.98 248.139 589.606 244.846 585.901 240.753 583.269 238.528 581.866 235.587 582.532 234.183 584.757 234.155 584.802 234.127 584.848 234.1 584.894L234.018 585.032C232.605 587.381 233.363 590.431 235.712 591.845 236.164 592.117 236.657 592.315 237.172 592.432 240.018 593.075 242.732 594.198 245.2 595.754 243.987 595.654 242.706 595.602 241.378 595.602 233.941 595.602 227.912 597.246 227.912 599.275 227.912 600.497 230.112 601.575 233.481 602.245 233.259 602.577 233.137 602.966 233.128 603.365 233.124 607.03 244.016 610 257.451 610 270.886 610 281.778 607.03 281.778 603.365 281.778 601.651 279.394 600.089 275.481 598.911Z" stroke="#FFFFFF" fill="#04ACDD"/><path d="M224.792 602.947C222.8 602.947 221.185 603.387 221.185 603.931 221.185 604.475 222.8 604.915 224.792 604.915 226.784 604.915 228.399 604.474 228.399 603.931 228.399 603.388 226.784 602.947 224.792 602.947Z" stroke="#FFFFFF" fill="#04ACDD"/></g></svg>