<svg width="96" height="96" xmlns="http://www.w3.org/2000/svg" xmlns:xlink="http://www.w3.org/1999/xlink" xml:space="preserve" overflow="hidden"><defs><clipPath id="clip0"><rect x="563" y="0" width="96" height="96"/></clipPath></defs><g clip-path="url(#clip0)" transform="translate(-563 0)"><path d="M634.668 44.912C632.04 46.5641 629.935 48.9289 628.598 51.731 628.176 52.624 629.278 53.273 630.077 52.616 631.896 51.1117 634.016 50.015 636.294 49.4 638.094 48.918 639.075 46.988 638.238 45.576L638.198 45.509C637.405 44.3722 635.84 44.0937 634.703 44.8869 634.691 44.8952 634.68 44.9035 634.668 44.912Z" stroke="#FFFFFF" fill="#037DBA"/><path d="M591.75 48.622C593.493 49.0137 595.112 49.8307 596.462 51 596.775 51.2723 597.249 51.2395 597.521 50.9267 597.7 50.7216 597.754 50.436 597.662 50.18 596.803 47.9518 595.259 46.0539 593.252 44.76 592.315 44.1697 591.076 44.4511 590.486 45.3887 590.474 45.4069 590.463 45.4254 590.452 45.444L590.418 45.503C589.822 46.4913 590.14 47.7759 591.128 48.3722 591.32 48.4884 591.531 48.5728 591.75 48.622Z" stroke="#FFFFFF" fill="#037DBA"/><path d="M644.941 62.572 644.926 62.506C644.677 61.4265 643.6 60.7532 642.52 61.0023 642.499 61.0072 642.478 61.0124 642.457 61.018 640.156 61.656 638.116 63.0079 636.632 64.879 636.38 65.209 636.443 65.6809 636.773 65.9331 636.993 66.1011 637.287 66.1349 637.539 66.021 639.176 65.3048 640.965 65.0056 642.746 65.15 643.897 65.2408 644.903 64.3815 644.994 63.2308 645.011 63.0098 644.994 62.7874 644.941 62.572Z" stroke="#FFFFFF" fill="#037DBA"/><path d="M580.391 65.748C582.716 65.3401 585.101 65.4356 587.385 66.028 588.385 66.284 589.11 65.228 588.35 64.6 585.953 62.6272 583.044 61.3763 579.963 60.993 578.602 60.7324 577.286 61.6249 577.026 62.9865 577.023 63.0009 577.021 63.0155 577.018 63.03L577.01 63.107C576.85 64.741 578.558 66.073 580.391 65.748Z" stroke="#FFFFFF" fill="#037DBA"/><path d="M614.654 54.523C615.185 54.4744 615.603 54.0481 615.641 53.516 615.881 50.033 617.207 37.288 624.056 26.704 625.821 23.9216 625.23 20.259 622.678 18.174L622.678 18.174C619.903 15.8642 615.78 16.2417 613.47 19.0172 612.759 19.8723 612.277 20.8948 612.071 21.988 609.846 34.526 612.671 49.734 613.479 53.656 613.592 54.2026 614.098 54.5764 614.654 54.523Z" stroke="#FFFFFF" fill="#037DBA"/><path d="M632.481 70.911C633.881 70.273 634.708 69.529 634.708 68.731 634.708 67.231 631.851 65.915 627.547 65.159 629.153 64.3053 630.866 63.6687 632.64 63.266 634.782 62.7785 636.124 60.6468 635.636 58.5045 635.543 58.0933 635.384 57.6995 635.167 57.338L635.101 57.227C634.035 55.4081 631.697 54.7975 629.878 55.8631 629.843 55.8839 629.808 55.9052 629.773 55.927 626.478 58.0477 623.832 61.0368 622.127 64.565 621.373 64.525 620.596 64.503 619.807 64.494 625.788 48.242 633.662 38.6 638.634 34.551 641.029 32.6606 641.437 29.187 639.547 26.7924 637.657 24.3978 634.183 23.9891 631.788 25.8794 631.506 26.1021 631.247 26.3518 631.013 26.625 622.369 36.344 618.372 52.325 616.523 64.546 615.261 64.604 614.048 64.7 612.909 64.836 612.909 64.827 612.909 64.818 612.909 64.809 610.214 49.438 604.55 28.464 592.883 16.209 590.311 13.4026 585.951 13.2127 583.144 15.7849 580.338 18.3571 580.148 22.7174 582.72 25.5239 583.021 25.8527 583.354 26.1514 583.713 26.416 590.343 31.45 601.149 43.886 609.438 65.409 608.65 65.58 607.925 65.771 607.273 65.98 605.139 61.6062 601.846 57.9015 597.753 55.269 595.528 53.8657 592.587 54.5317 591.183 56.7566 591.155 56.802 591.127 56.8478 591.1 56.894L591.018 57.032C589.605 59.3811 590.363 62.4312 592.712 63.8447 593.164 64.1168 593.657 64.3151 594.172 64.432 597.018 65.0746 599.732 66.198 602.2 67.754 600.987 67.654 599.706 67.602 598.378 67.602 590.941 67.602 584.912 69.246 584.912 71.275 584.912 72.497 587.112 73.575 590.481 74.245 590.259 74.5772 590.137 74.9657 590.128 75.365 590.124 79.03 601.016 82 614.451 82 627.886 82 638.778 79.03 638.778 75.365 638.778 73.651 636.394 72.089 632.481 70.911Z" stroke="#FFFFFF" fill="#037DBA"/><path d="M581.792 74.947C579.8 74.947 578.185 75.387 578.185 75.931 578.185 76.475 579.8 76.915 581.792 76.915 583.784 76.915 585.399 76.474 585.399 75.931 585.399 75.388 583.784 74.947 581.792 74.947Z" stroke="#FFFFFF" fill="#037DBA"/></g></svg>