<svg width="96" height="96" xmlns="http://www.w3.org/2000/svg" xmlns:xlink="http://www.w3.org/1999/xlink" xml:space="preserve" overflow="hidden"><defs><clipPath id="clip0"><rect x="581" y="437" width="96" height="96"/></clipPath></defs><g clip-path="url(#clip0)" transform="translate(-581 -437)"><path d="M652.668 481.912C650.04 483.564 647.935 485.929 646.598 488.731 646.176 489.624 647.278 490.273 648.077 489.616 649.896 488.112 652.016 487.015 654.294 486.4 656.094 485.918 657.075 483.988 656.238 482.576L656.198 482.509C655.405 481.372 653.84 481.094 652.703 481.887 652.691 481.895 652.68 481.904 652.668 481.912Z" stroke="#FFFFFF" fill="#03BFC4"/><path d="M609.75 485.622C611.493 486.014 613.112 486.831 614.462 488 614.775 488.272 615.249 488.24 615.521 487.927 615.7 487.722 615.754 487.436 615.662 487.18 614.803 484.952 613.259 483.054 611.252 481.76 610.315 481.17 609.076 481.451 608.486 482.389 608.474 482.407 608.463 482.425 608.452 482.444L608.418 482.503C607.822 483.491 608.14 484.776 609.128 485.372 609.32 485.488 609.531 485.573 609.75 485.622Z" stroke="#FFFFFF" fill="#03BFC4"/><path d="M662.941 499.572 662.926 499.506C662.677 498.427 661.6 497.753 660.52 498.002 660.499 498.007 660.478 498.012 660.457 498.018 658.156 498.656 656.116 500.008 654.632 501.879 654.38 502.209 654.443 502.681 654.773 502.933 654.993 503.101 655.287 503.135 655.539 503.021 657.176 502.305 658.965 502.006 660.746 502.15 661.897 502.241 662.903 501.382 662.994 500.231 663.011 500.01 662.994 499.787 662.941 499.572Z" stroke="#FFFFFF" fill="#03BFC4"/><path d="M598.391 502.748C600.716 502.34 603.101 502.436 605.385 503.028 606.385 503.284 607.11 502.228 606.35 501.6 603.953 499.627 601.044 498.376 597.963 497.993 596.602 497.732 595.286 498.625 595.026 499.987 595.023 500.001 595.021 500.016 595.018 500.03L595.01 500.107C594.85 501.741 596.558 503.073 598.391 502.748Z" stroke="#FFFFFF" fill="#03BFC4"/><path d="M632.654 491.523C633.185 491.474 633.603 491.048 633.641 490.516 633.881 487.033 635.207 474.288 642.056 463.704 643.821 460.922 643.23 457.259 640.678 455.174L640.678 455.174C637.903 452.864 633.78 453.242 631.47 456.017 630.759 456.872 630.277 457.895 630.071 458.988 627.846 471.526 630.671 486.734 631.479 490.656 631.592 491.203 632.098 491.576 632.654 491.523Z" stroke="#FFFFFF" fill="#03BFC4"/><path d="M650.481 507.911C651.881 507.273 652.708 506.529 652.708 505.731 652.708 504.231 649.851 502.915 645.547 502.159 647.153 501.305 648.866 500.669 650.64 500.266 652.782 499.779 654.124 497.647 653.636 495.505 653.543 495.093 653.384 494.699 653.167 494.338L653.101 494.227C652.035 492.408 649.697 491.797 647.878 492.863 647.843 492.884 647.808 492.905 647.773 492.927 644.478 495.048 641.832 498.037 640.127 501.565 639.373 501.525 638.596 501.503 637.807 501.494 643.788 485.242 651.662 475.6 656.634 471.551 659.029 469.661 659.437 466.187 657.547 463.792 655.657 461.398 652.183 460.989 649.788 462.879 649.506 463.102 649.247 463.352 649.013 463.625 640.369 473.344 636.372 489.325 634.523 501.546 633.261 501.604 632.048 501.7 630.909 501.836 630.909 501.827 630.909 501.818 630.909 501.809 628.214 486.438 622.55 465.464 610.883 453.209 608.311 450.403 603.951 450.213 601.144 452.785 598.338 455.357 598.148 459.717 600.72 462.524 601.021 462.853 601.354 463.151 601.713 463.416 608.343 468.45 619.149 480.886 627.438 502.409 626.65 502.58 625.925 502.771 625.273 502.98 623.139 498.606 619.846 494.901 615.753 492.269 613.528 490.866 610.587 491.532 609.183 493.757 609.155 493.802 609.127 493.848 609.1 493.894L609.018 494.032C607.605 496.381 608.363 499.431 610.712 500.845 611.164 501.117 611.657 501.315 612.172 501.432 615.018 502.075 617.732 503.198 620.2 504.754 618.987 504.654 617.706 504.602 616.378 504.602 608.941 504.602 602.912 506.246 602.912 508.275 602.912 509.497 605.112 510.575 608.481 511.245 608.259 511.577 608.137 511.966 608.128 512.365 608.124 516.03 619.016 519 632.451 519 645.886 519 656.778 516.03 656.778 512.365 656.778 510.651 654.394 509.089 650.481 507.911Z" stroke="#FFFFFF" fill="#03BFC4"/><path d="M599.792 511.947C597.8 511.947 596.185 512.387 596.185 512.931 596.185 513.475 597.8 513.915 599.792 513.915 601.784 513.915 603.399 513.474 603.399 512.931 603.399 512.388 601.784 511.947 599.792 511.947Z" stroke="#FFFFFF" fill="#03BFC4"/></g></svg>