<svg width="96" height="96" xmlns="http://www.w3.org/2000/svg" xmlns:xlink="http://www.w3.org/1999/xlink" xml:space="preserve" overflow="hidden"><defs><clipPath id="clip0"><rect x="94" y="0" width="96" height="96"/></clipPath></defs><g clip-path="url(#clip0)" transform="translate(-94 0)"><path d="M165.668 44.912C163.04 46.5641 160.935 48.9289 159.598 51.731 159.176 52.624 160.278 53.273 161.077 52.616 162.896 51.1117 165.016 50.015 167.294 49.4 169.094 48.918 170.075 46.988 169.238 45.576L169.198 45.509C168.405 44.3722 166.84 44.0937 165.703 44.8869 165.691 44.8952 165.68 44.9035 165.668 44.912Z" stroke="#FFFFFF" fill="#013E5D"/><path d="M122.75 48.622C124.493 49.0137 126.112 49.8307 127.462 51 127.775 51.2723 128.249 51.2395 128.521 50.9267 128.7 50.7216 128.754 50.436 128.662 50.18 127.803 47.9518 126.259 46.0539 124.252 44.76 123.314 44.1697 122.076 44.4511 121.486 45.3887 121.474 45.4069 121.463 45.4254 121.452 45.444L121.418 45.503C120.822 46.4913 121.139 47.7759 122.128 48.3722 122.32 48.4884 122.531 48.5728 122.75 48.622Z" stroke="#FFFFFF" fill="#013E5D"/><path d="M175.941 62.572 175.926 62.506C175.677 61.4265 174.6 60.7532 173.52 61.0023 173.499 61.0072 173.478 61.0124 173.457 61.018 171.156 61.656 169.116 63.0079 167.632 64.879 167.38 65.209 167.443 65.6809 167.773 65.9331 167.993 66.1011 168.287 66.1349 168.539 66.021 170.176 65.3048 171.965 65.0056 173.746 65.15 174.897 65.2408 175.903 64.3815 175.994 63.2308 176.011 63.0098 175.993 62.7874 175.941 62.572Z" stroke="#FFFFFF" fill="#013E5D"/><path d="M111.391 65.748C113.715 65.3401 116.101 65.4356 118.385 66.028 119.385 66.284 120.11 65.228 119.35 64.6 116.953 62.6272 114.044 61.3763 110.963 60.993 109.602 60.7324 108.286 61.6249 108.026 62.9865 108.023 63.0009 108.021 63.0155 108.018 63.03L108.01 63.107C107.85 64.741 109.558 66.073 111.391 65.748Z" stroke="#FFFFFF" fill="#013E5D"/><path d="M145.654 54.523C146.185 54.4744 146.603 54.0481 146.641 53.516 146.881 50.033 148.207 37.288 155.056 26.704 156.821 23.9216 156.23 20.259 153.678 18.174L153.678 18.174C150.903 15.8642 146.78 16.2417 144.47 19.0172 143.759 19.8723 143.277 20.8948 143.071 21.988 140.846 34.526 143.671 49.734 144.479 53.656 144.592 54.2026 145.098 54.5764 145.654 54.523Z" stroke="#FFFFFF" fill="#013E5D"/><path d="M163.481 70.911C164.881 70.273 165.708 69.529 165.708 68.731 165.708 67.231 162.851 65.915 158.547 65.159 160.153 64.3053 161.866 63.6687 163.64 63.266 165.782 62.7785 167.124 60.6468 166.636 58.5045 166.543 58.0933 166.384 57.6995 166.167 57.338L166.101 57.227C165.035 55.4081 162.697 54.7975 160.878 55.8631 160.843 55.8839 160.808 55.9052 160.773 55.927 157.478 58.0477 154.832 61.0368 153.127 64.565 152.373 64.525 151.596 64.503 150.807 64.494 156.788 48.242 164.662 38.6 169.634 34.551 172.029 32.6606 172.437 29.187 170.547 26.7924 168.657 24.3978 165.183 23.9891 162.788 25.8794 162.506 26.1021 162.247 26.3518 162.013 26.625 153.369 36.344 149.372 52.325 147.523 64.546 146.261 64.604 145.048 64.7 143.909 64.836 143.909 64.827 143.909 64.818 143.909 64.809 141.214 49.438 135.55 28.464 123.883 16.209 121.311 13.4026 116.951 13.2127 114.144 15.7849 111.338 18.3571 111.148 22.7174 113.72 25.5239 114.021 25.8527 114.354 26.1514 114.713 26.416 121.343 31.45 132.149 43.886 140.438 65.409 139.65 65.58 138.925 65.771 138.273 65.98 136.139 61.6062 132.846 57.9015 128.753 55.269 126.528 53.8657 123.587 54.5317 122.183 56.7566 122.155 56.802 122.127 56.8478 122.1 56.894L122.018 57.032C120.605 59.3811 121.363 62.4312 123.712 63.8447 124.164 64.1168 124.657 64.3151 125.172 64.432 128.018 65.0746 130.732 66.198 133.2 67.754 131.987 67.654 130.706 67.602 129.378 67.602 121.941 67.602 115.912 69.246 115.912 71.275 115.912 72.497 118.112 73.575 121.481 74.245 121.259 74.5772 121.137 74.9657 121.128 75.365 121.124 79.03 132.016 82 145.451 82 158.886 82 169.778 79.03 169.778 75.365 169.778 73.651 167.394 72.089 163.481 70.911Z" stroke="#FFFFFF" fill="#013E5D"/><path d="M112.792 74.947C110.8 74.947 109.185 75.387 109.185 75.931 109.185 76.475 110.8 76.915 112.792 76.915 114.784 76.915 116.399 76.474 116.399 75.931 116.399 75.388 114.784 74.947 112.792 74.947Z" stroke="#FFFFFF" fill="#013E5D"/></g></svg>