<svg width="96" height="96" xmlns="http://www.w3.org/2000/svg" xmlns:xlink="http://www.w3.org/1999/xlink" xml:space="preserve" overflow="hidden"><defs><clipPath id="clip0"><rect x="487" y="437" width="96" height="96"/></clipPath></defs><g clip-path="url(#clip0)" transform="translate(-487 -437)"><path d="M558.668 481.912C556.04 483.564 553.935 485.929 552.598 488.731 552.176 489.624 553.278 490.273 554.077 489.616 555.896 488.112 558.016 487.015 560.294 486.4 562.094 485.918 563.075 483.988 562.238 482.576L562.198 482.509C561.405 481.372 559.84 481.094 558.703 481.887 558.691 481.895 558.68 481.904 558.668 481.912Z" stroke="#FFFFFF" fill="#03A7AB"/><path d="M515.75 485.622C517.493 486.014 519.112 486.831 520.462 488 520.775 488.272 521.249 488.24 521.521 487.927 521.7 487.722 521.754 487.436 521.662 487.18 520.803 484.952 519.259 483.054 517.252 481.76 516.315 481.17 515.076 481.451 514.486 482.389 514.474 482.407 514.463 482.425 514.452 482.444L514.418 482.503C513.822 483.491 514.14 484.776 515.128 485.372 515.32 485.488 515.531 485.573 515.75 485.622Z" stroke="#FFFFFF" fill="#03A7AB"/><path d="M568.941 499.572 568.926 499.506C568.677 498.427 567.6 497.753 566.52 498.002 566.499 498.007 566.478 498.012 566.457 498.018 564.156 498.656 562.116 500.008 560.632 501.879 560.38 502.209 560.443 502.681 560.773 502.933 560.993 503.101 561.287 503.135 561.539 503.021 563.176 502.305 564.965 502.006 566.746 502.15 567.897 502.241 568.903 501.382 568.994 500.231 569.011 500.01 568.994 499.787 568.941 499.572Z" stroke="#FFFFFF" fill="#03A7AB"/><path d="M504.391 502.748C506.716 502.34 509.1 502.436 511.385 503.028 512.385 503.284 513.11 502.228 512.35 501.6 509.953 499.627 507.044 498.376 503.963 497.993 502.602 497.732 501.286 498.625 501.026 499.987 501.023 500.001 501.021 500.016 501.018 500.03L501.01 500.107C500.85 501.741 502.558 503.073 504.391 502.748Z" stroke="#FFFFFF" fill="#03A7AB"/><path d="M538.654 491.523C539.185 491.474 539.603 491.048 539.641 490.516 539.881 487.033 541.207 474.288 548.056 463.704 549.821 460.922 549.23 457.259 546.678 455.174L546.678 455.174C543.903 452.864 539.78 453.242 537.47 456.017 536.759 456.872 536.277 457.895 536.071 458.988 533.846 471.526 536.671 486.734 537.479 490.656 537.592 491.203 538.098 491.576 538.654 491.523Z" stroke="#FFFFFF" fill="#03A7AB"/><path d="M556.481 507.911C557.881 507.273 558.708 506.529 558.708 505.731 558.708 504.231 555.851 502.915 551.547 502.159 553.153 501.305 554.866 500.669 556.64 500.266 558.782 499.779 560.124 497.647 559.636 495.505 559.543 495.093 559.384 494.699 559.167 494.338L559.101 494.227C558.035 492.408 555.697 491.797 553.878 492.863 553.843 492.884 553.808 492.905 553.773 492.927 550.478 495.048 547.832 498.037 546.127 501.565 545.373 501.525 544.596 501.503 543.807 501.494 549.788 485.242 557.662 475.6 562.634 471.551 565.029 469.661 565.437 466.187 563.547 463.792 561.657 461.398 558.183 460.989 555.788 462.879 555.506 463.102 555.247 463.352 555.013 463.625 546.369 473.344 542.372 489.325 540.523 501.546 539.261 501.604 538.048 501.7 536.909 501.836 536.909 501.827 536.909 501.818 536.909 501.809 534.214 486.438 528.55 465.464 516.883 453.209 514.311 450.403 509.951 450.213 507.144 452.785 504.338 455.357 504.148 459.717 506.72 462.524 507.021 462.853 507.354 463.151 507.713 463.416 514.343 468.45 525.149 480.886 533.438 502.409 532.65 502.58 531.925 502.771 531.273 502.98 529.139 498.606 525.846 494.901 521.753 492.269 519.528 490.866 516.587 491.532 515.183 493.757 515.155 493.802 515.127 493.848 515.1 493.894L515.018 494.032C513.605 496.381 514.363 499.431 516.712 500.845 517.164 501.117 517.657 501.315 518.172 501.432 521.018 502.075 523.732 503.198 526.2 504.754 524.987 504.654 523.706 504.602 522.378 504.602 514.941 504.602 508.912 506.246 508.912 508.275 508.912 509.497 511.112 510.575 514.481 511.245 514.259 511.577 514.137 511.966 514.128 512.365 514.124 516.03 525.016 519 538.451 519 551.886 519 562.778 516.03 562.778 512.365 562.778 510.651 560.394 509.089 556.481 507.911Z" stroke="#FFFFFF" fill="#03A7AB"/><path d="M505.792 511.947C503.8 511.947 502.185 512.387 502.185 512.931 502.185 513.475 503.8 513.915 505.792 513.915 507.784 513.915 509.399 513.474 509.399 512.931 509.399 512.388 507.784 511.947 505.792 511.947Z" stroke="#FFFFFF" fill="#03A7AB"/></g></svg>