<svg width="96" height="96" xmlns="http://www.w3.org/2000/svg" xmlns:xlink="http://www.w3.org/1999/xlink" xml:space="preserve" overflow="hidden"><defs><clipPath id="clip0"><rect x="657" y="0" width="96" height="96"/></clipPath></defs><g clip-path="url(#clip0)" transform="translate(-657 0)"><path d="M728.668 44.912C726.04 46.5641 723.935 48.9289 722.598 51.731 722.176 52.624 723.278 53.273 724.077 52.616 725.896 51.1117 728.016 50.015 730.294 49.4 732.094 48.918 733.075 46.988 732.238 45.576L732.198 45.509C731.405 44.3722 729.84 44.0937 728.703 44.8869 728.691 44.8952 728.68 44.9035 728.668 44.912Z" stroke="#FFFFFF" fill="#1C8AC0"/><path d="M685.75 48.622C687.493 49.0137 689.112 49.8307 690.462 51 690.775 51.2723 691.249 51.2395 691.521 50.9267 691.7 50.7216 691.754 50.436 691.662 50.18 690.803 47.9518 689.259 46.0539 687.252 44.76 686.315 44.1697 685.076 44.4511 684.486 45.3887 684.474 45.4069 684.463 45.4254 684.452 45.444L684.418 45.503C683.822 46.4913 684.14 47.7759 685.128 48.3722 685.32 48.4884 685.531 48.5728 685.75 48.622Z" stroke="#FFFFFF" fill="#1C8AC0"/><path d="M738.941 62.572 738.926 62.506C738.677 61.4265 737.6 60.7532 736.52 61.0023 736.499 61.0072 736.478 61.0124 736.457 61.018 734.156 61.656 732.116 63.0079 730.632 64.879 730.38 65.209 730.443 65.6809 730.773 65.9331 730.993 66.1011 731.287 66.1349 731.539 66.021 733.176 65.3048 734.965 65.0056 736.746 65.15 737.897 65.2408 738.903 64.3815 738.994 63.2308 739.011 63.0098 738.994 62.7874 738.941 62.572Z" stroke="#FFFFFF" fill="#1C8AC0"/><path d="M674.391 65.748C676.716 65.3401 679.101 65.4356 681.385 66.028 682.385 66.284 683.11 65.228 682.35 64.6 679.953 62.6272 677.044 61.3763 673.963 60.993 672.602 60.7324 671.286 61.6249 671.026 62.9865 671.023 63.0009 671.021 63.0155 671.018 63.03L671.01 63.107C670.85 64.741 672.558 66.073 674.391 65.748Z" stroke="#FFFFFF" fill="#1C8AC0"/><path d="M708.654 54.523C709.185 54.4744 709.603 54.0481 709.641 53.516 709.881 50.033 711.207 37.288 718.056 26.704 719.821 23.9216 719.23 20.259 716.678 18.174L716.678 18.174C713.903 15.8642 709.78 16.2417 707.47 19.0172 706.759 19.8723 706.277 20.8948 706.071 21.988 703.846 34.526 706.671 49.734 707.479 53.656 707.592 54.2026 708.098 54.5764 708.654 54.523Z" stroke="#FFFFFF" fill="#1C8AC0"/><path d="M726.481 70.911C727.881 70.273 728.708 69.529 728.708 68.731 728.708 67.231 725.851 65.915 721.547 65.159 723.153 64.3053 724.866 63.6687 726.64 63.266 728.782 62.7785 730.124 60.6468 729.636 58.5045 729.543 58.0933 729.384 57.6995 729.167 57.338L729.101 57.227C728.035 55.4081 725.697 54.7975 723.878 55.8631 723.843 55.8839 723.808 55.9052 723.773 55.927 720.478 58.0477 717.832 61.0368 716.127 64.565 715.373 64.525 714.596 64.503 713.807 64.494 719.788 48.242 727.662 38.6 732.634 34.551 735.029 32.6606 735.437 29.187 733.547 26.7924 731.657 24.3978 728.183 23.9891 725.788 25.8794 725.506 26.1021 725.247 26.3518 725.013 26.625 716.369 36.344 712.372 52.325 710.523 64.546 709.261 64.604 708.048 64.7 706.909 64.836 706.909 64.827 706.909 64.818 706.909 64.809 704.214 49.438 698.55 28.464 686.883 16.209 684.311 13.4026 679.951 13.2127 677.144 15.7849 674.338 18.3571 674.148 22.7174 676.72 25.5239 677.021 25.8527 677.354 26.1514 677.713 26.416 684.343 31.45 695.149 43.886 703.438 65.409 702.65 65.58 701.925 65.771 701.273 65.98 699.139 61.6062 695.846 57.9015 691.753 55.269 689.528 53.8657 686.587 54.5317 685.183 56.7566 685.155 56.802 685.127 56.8478 685.1 56.894L685.018 57.032C683.605 59.3811 684.363 62.4312 686.712 63.8447 687.164 64.1168 687.657 64.3151 688.172 64.432 691.018 65.0746 693.732 66.198 696.2 67.754 694.987 67.654 693.706 67.602 692.378 67.602 684.941 67.602 678.912 69.246 678.912 71.275 678.912 72.497 681.112 73.575 684.481 74.245 684.259 74.5772 684.137 74.9657 684.128 75.365 684.124 79.03 695.016 82 708.451 82 721.886 82 732.778 79.03 732.778 75.365 732.778 73.651 730.394 72.089 726.481 70.911Z" stroke="#FFFFFF" fill="#1C8AC0"/><path d="M675.792 74.947C673.8 74.947 672.185 75.387 672.185 75.931 672.185 76.475 673.8 76.915 675.792 76.915 677.784 76.915 679.399 76.474 679.399 75.931 679.399 75.388 677.784 74.947 675.792 74.947Z" stroke="#FFFFFF" fill="#1C8AC0"/></g></svg>