<svg width="96" height="96" xmlns="http://www.w3.org/2000/svg" xmlns:xlink="http://www.w3.org/1999/xlink" xml:space="preserve" overflow="hidden"><defs><clipPath id="clip0"><rect x="394" y="528" width="96" height="96"/></clipPath></defs><g clip-path="url(#clip0)" transform="translate(-394 -528)"><path d="M465.668 572.912C463.04 574.564 460.935 576.929 459.598 579.731 459.176 580.624 460.278 581.273 461.077 580.616 462.896 579.112 465.016 578.015 467.294 577.4 469.094 576.918 470.075 574.988 469.238 573.576L469.198 573.509C468.405 572.372 466.84 572.094 465.703 572.887 465.691 572.895 465.68 572.904 465.668 572.912Z" stroke="#FFFFFF" fill="#18C8FB"/><path d="M422.75 576.622C424.493 577.014 426.112 577.831 427.462 579 427.775 579.272 428.249 579.24 428.521 578.927 428.7 578.722 428.754 578.436 428.662 578.18 427.803 575.952 426.259 574.054 424.252 572.76 423.315 572.17 422.076 572.451 421.486 573.389 421.474 573.407 421.463 573.425 421.452 573.444L421.418 573.503C420.822 574.491 421.139 575.776 422.128 576.372 422.32 576.488 422.53 576.573 422.75 576.622Z" stroke="#FFFFFF" fill="#18C8FB"/><path d="M475.941 590.572 475.926 590.506C475.677 589.427 474.6 588.753 473.52 589.002 473.499 589.007 473.478 589.012 473.457 589.018 471.156 589.656 469.116 591.008 467.632 592.879 467.38 593.209 467.443 593.681 467.773 593.933 467.993 594.101 468.287 594.135 468.539 594.021 470.176 593.305 471.965 593.006 473.746 593.15 474.897 593.241 475.903 592.381 475.994 591.231 476.011 591.01 475.993 590.787 475.941 590.572Z" stroke="#FFFFFF" fill="#18C8FB"/><path d="M411.391 593.748C413.716 593.34 416.1 593.436 418.385 594.028 419.385 594.284 420.11 593.228 419.35 592.6 416.953 590.627 414.044 589.376 410.963 588.993 409.602 588.732 408.286 589.625 408.026 590.987 408.023 591.001 408.021 591.016 408.018 591.03L408.01 591.107C407.85 592.741 409.558 594.073 411.391 593.748Z" stroke="#FFFFFF" fill="#18C8FB"/><path d="M445.654 582.523C446.185 582.474 446.603 582.048 446.641 581.516 446.881 578.033 448.207 565.288 455.056 554.704 456.821 551.922 456.23 548.259 453.678 546.174L453.678 546.174C450.903 543.864 446.78 544.242 444.47 547.017 443.759 547.872 443.277 548.895 443.071 549.988 440.846 562.526 443.671 577.734 444.479 581.656 444.592 582.203 445.098 582.576 445.654 582.523Z" stroke="#FFFFFF" fill="#18C8FB"/><path d="M463.481 598.911C464.881 598.273 465.708 597.529 465.708 596.731 465.708 595.231 462.851 593.915 458.547 593.159 460.153 592.305 461.866 591.669 463.64 591.266 465.782 590.779 467.124 588.647 466.636 586.505 466.543 586.093 466.384 585.7 466.167 585.338L466.101 585.227C465.035 583.408 462.697 582.797 460.878 583.863 460.843 583.884 460.808 583.905 460.773 583.927 457.478 586.048 454.832 589.037 453.127 592.565 452.373 592.525 451.596 592.503 450.807 592.494 456.788 576.242 464.662 566.6 469.634 562.551 472.029 560.661 472.437 557.187 470.547 554.792 468.657 552.398 465.183 551.989 462.788 553.879 462.506 554.102 462.247 554.352 462.013 554.625 453.369 564.344 449.372 580.325 447.523 592.546 446.261 592.604 445.048 592.7 443.909 592.836 443.909 592.827 443.909 592.818 443.909 592.809 441.214 577.438 435.55 556.464 423.883 544.209 421.311 541.403 416.951 541.213 414.144 543.785 411.338 546.357 411.148 550.717 413.72 553.524 414.021 553.853 414.354 554.151 414.713 554.416 421.343 559.45 432.149 571.886 440.438 593.409 439.65 593.58 438.925 593.771 438.273 593.98 436.139 589.606 432.846 585.901 428.753 583.269 426.528 581.866 423.587 582.532 422.183 584.757 422.155 584.802 422.127 584.848 422.1 584.894L422.018 585.032C420.605 587.381 421.363 590.431 423.712 591.845 424.164 592.117 424.657 592.315 425.172 592.432 428.018 593.075 430.732 594.198 433.2 595.754 431.987 595.654 430.706 595.602 429.378 595.602 421.941 595.602 415.912 597.246 415.912 599.275 415.912 600.497 418.112 601.575 421.481 602.245 421.259 602.577 421.137 602.966 421.128 603.365 421.124 607.03 432.016 610 445.451 610 458.886 610 469.778 607.03 469.778 603.365 469.778 601.651 467.394 600.089 463.481 598.911Z" stroke="#FFFFFF" fill="#18C8FB"/><path d="M412.792 602.947C410.8 602.947 409.185 603.387 409.185 603.931 409.185 604.475 410.8 604.915 412.792 604.915 414.784 604.915 416.399 604.474 416.399 603.931 416.399 603.388 414.784 602.947 412.792 602.947Z" stroke="#FFFFFF" fill="#18C8FB"/></g></svg>