<svg width="96" height="96" xmlns="http://www.w3.org/2000/svg" xmlns:xlink="http://www.w3.org/1999/xlink" xml:space="preserve" overflow="hidden"><defs><clipPath id="clip0"><rect x="851" y="173" width="96" height="96"/></clipPath></defs><g clip-path="url(#clip0)" transform="translate(-851 -173)"><path d="M922.668 217.912C920.04 219.564 917.935 221.929 916.598 224.731 916.176 225.624 917.278 226.273 918.077 225.616 919.896 224.112 922.016 223.015 924.294 222.4 926.094 221.918 927.075 219.988 926.238 218.576L926.198 218.509C925.405 217.372 923.84 217.094 922.703 217.887 922.691 217.895 922.68 217.904 922.668 217.912Z" stroke="#FFFFFF" fill="#6ECDFC"/><path d="M879.75 221.622C881.493 222.014 883.112 222.831 884.462 224 884.775 224.272 885.249 224.24 885.521 223.927 885.7 223.722 885.754 223.436 885.662 223.18 884.803 220.952 883.259 219.054 881.252 217.76 880.315 217.17 879.076 217.451 878.486 218.389 878.474 218.407 878.463 218.425 878.452 218.444L878.418 218.503C877.822 219.491 878.14 220.776 879.128 221.372 879.32 221.488 879.531 221.573 879.75 221.622Z" stroke="#FFFFFF" fill="#6ECDFC"/><path d="M932.941 235.572 932.926 235.506C932.677 234.426 931.6 233.753 930.52 234.002 930.499 234.007 930.478 234.012 930.457 234.018 928.156 234.656 926.116 236.008 924.632 237.879 924.38 238.209 924.443 238.681 924.773 238.933 924.993 239.101 925.287 239.135 925.539 239.021 927.176 238.305 928.965 238.006 930.746 238.15 931.897 238.241 932.903 237.382 932.994 236.231 933.011 236.01 932.994 235.787 932.941 235.572Z" stroke="#FFFFFF" fill="#6ECDFC"/><path d="M868.391 238.748C870.716 238.34 873.101 238.436 875.385 239.028 876.385 239.284 877.11 238.228 876.35 237.6 873.953 235.627 871.044 234.376 867.963 233.993 866.602 233.732 865.286 234.625 865.026 235.986 865.023 236.001 865.021 236.016 865.018 236.03L865.01 236.107C864.85 237.741 866.558 239.073 868.391 238.748Z" stroke="#FFFFFF" fill="#6ECDFC"/><path d="M902.654 227.523C903.185 227.474 903.603 227.048 903.641 226.516 903.881 223.033 905.207 210.288 912.056 199.704 913.821 196.922 913.23 193.259 910.678 191.174L910.678 191.174C907.903 188.864 903.78 189.242 901.47 192.017 900.759 192.872 900.277 193.895 900.071 194.988 897.846 207.526 900.671 222.734 901.479 226.656 901.592 227.203 902.098 227.576 902.654 227.523Z" stroke="#FFFFFF" fill="#6ECDFC"/><path d="M920.481 243.911C921.881 243.273 922.708 242.529 922.708 241.731 922.708 240.231 919.851 238.915 915.547 238.159 917.153 237.305 918.866 236.669 920.64 236.266 922.782 235.779 924.124 233.647 923.636 231.505 923.543 231.093 923.384 230.699 923.167 230.338L923.101 230.227C922.035 228.408 919.697 227.798 917.878 228.863 917.843 228.884 917.808 228.905 917.773 228.927 914.478 231.048 911.832 234.037 910.127 237.565 909.373 237.525 908.596 237.503 907.807 237.494 913.788 221.242 921.662 211.6 926.634 207.551 929.029 205.661 929.437 202.187 927.547 199.792 925.657 197.398 922.183 196.989 919.788 198.879 919.506 199.102 919.247 199.352 919.013 199.625 910.369 209.344 906.372 225.325 904.523 237.546 903.261 237.604 902.048 237.7 900.909 237.836 900.909 237.827 900.909 237.818 900.909 237.809 898.214 222.438 892.55 201.464 880.883 189.209 878.311 186.403 873.951 186.213 871.144 188.785 868.338 191.357 868.148 195.717 870.72 198.524 871.021 198.853 871.354 199.151 871.713 199.416 878.343 204.45 889.149 216.886 897.438 238.409 896.65 238.58 895.925 238.771 895.273 238.98 893.139 234.606 889.846 230.902 885.753 228.269 883.528 226.866 880.587 227.532 879.183 229.757 879.155 229.802 879.127 229.848 879.1 229.894L879.018 230.032C877.605 232.381 878.363 235.431 880.712 236.845 881.164 237.117 881.657 237.315 882.172 237.432 885.018 238.075 887.732 239.198 890.2 240.754 888.987 240.654 887.706 240.602 886.378 240.602 878.941 240.602 872.912 242.246 872.912 244.275 872.912 245.497 875.112 246.575 878.481 247.245 878.259 247.577 878.137 247.966 878.128 248.365 878.124 252.03 889.016 255 902.451 255 915.886 255 926.778 252.03 926.778 248.365 926.778 246.651 924.394 245.089 920.481 243.911Z" stroke="#FFFFFF" fill="#6ECDFC"/><path d="M869.792 247.947C867.8 247.947 866.185 248.387 866.185 248.931 866.185 249.475 867.8 249.915 869.792 249.915 871.784 249.915 873.399 249.474 873.399 248.931 873.399 248.388 871.784 247.947 869.792 247.947Z" stroke="#FFFFFF" fill="#6ECDFC"/></g></svg>