<svg width="96" height="96" xmlns="http://www.w3.org/2000/svg" xmlns:xlink="http://www.w3.org/1999/xlink" xml:space="preserve" overflow="hidden"><defs><clipPath id="clip0"><rect x="675" y="528" width="96" height="96"/></clipPath></defs><g clip-path="url(#clip0)" transform="translate(-675 -528)"><path d="M746.668 572.912C744.04 574.564 741.935 576.929 740.598 579.731 740.176 580.624 741.278 581.273 742.077 580.616 743.896 579.112 746.016 578.015 748.294 577.4 750.094 576.918 751.075 574.988 750.238 573.576L750.198 573.509C749.405 572.372 747.84 572.094 746.703 572.887 746.691 572.895 746.68 572.904 746.668 572.912Z" stroke="#FFFFFF" fill="#4AD4FC"/><path d="M703.75 576.622C705.493 577.014 707.112 577.831 708.462 579 708.775 579.272 709.249 579.24 709.521 578.927 709.7 578.722 709.754 578.436 709.662 578.18 708.803 575.952 707.259 574.054 705.252 572.76 704.315 572.17 703.076 572.451 702.486 573.389 702.474 573.407 702.463 573.425 702.452 573.444L702.418 573.503C701.822 574.491 702.14 575.776 703.128 576.372 703.32 576.488 703.531 576.573 703.75 576.622Z" stroke="#FFFFFF" fill="#4AD4FC"/><path d="M756.941 590.572 756.926 590.506C756.677 589.427 755.6 588.753 754.52 589.002 754.499 589.007 754.478 589.012 754.457 589.018 752.156 589.656 750.116 591.008 748.632 592.879 748.38 593.209 748.443 593.681 748.773 593.933 748.993 594.101 749.287 594.135 749.539 594.021 751.176 593.305 752.965 593.006 754.746 593.15 755.897 593.241 756.903 592.381 756.994 591.231 757.011 591.01 756.994 590.787 756.941 590.572Z" stroke="#FFFFFF" fill="#4AD4FC"/><path d="M692.391 593.748C694.716 593.34 697.101 593.436 699.385 594.028 700.385 594.284 701.11 593.228 700.35 592.6 697.953 590.627 695.044 589.376 691.963 588.993 690.602 588.732 689.286 589.625 689.026 590.987 689.023 591.001 689.021 591.016 689.018 591.03L689.01 591.107C688.85 592.741 690.558 594.073 692.391 593.748Z" stroke="#FFFFFF" fill="#4AD4FC"/><path d="M726.654 582.523C727.185 582.474 727.603 582.048 727.641 581.516 727.881 578.033 729.207 565.288 736.056 554.704 737.821 551.922 737.23 548.259 734.678 546.174L734.678 546.174C731.903 543.864 727.78 544.242 725.47 547.017 724.759 547.872 724.277 548.895 724.071 549.988 721.846 562.526 724.671 577.734 725.479 581.656 725.592 582.203 726.098 582.576 726.654 582.523Z" stroke="#FFFFFF" fill="#4AD4FC"/><path d="M744.481 598.911C745.881 598.273 746.708 597.529 746.708 596.731 746.708 595.231 743.851 593.915 739.547 593.159 741.153 592.305 742.866 591.669 744.64 591.266 746.782 590.779 748.124 588.647 747.636 586.505 747.543 586.093 747.384 585.7 747.167 585.338L747.101 585.227C746.035 583.408 743.697 582.797 741.878 583.863 741.843 583.884 741.808 583.905 741.773 583.927 738.478 586.048 735.832 589.037 734.127 592.565 733.373 592.525 732.596 592.503 731.807 592.494 737.788 576.242 745.662 566.6 750.634 562.551 753.029 560.661 753.437 557.187 751.547 554.792 749.657 552.398 746.183 551.989 743.788 553.879 743.506 554.102 743.247 554.352 743.013 554.625 734.369 564.344 730.372 580.325 728.523 592.546 727.261 592.604 726.048 592.7 724.909 592.836 724.909 592.827 724.909 592.818 724.909 592.809 722.214 577.438 716.55 556.464 704.883 544.209 702.311 541.403 697.951 541.213 695.144 543.785 692.338 546.357 692.148 550.717 694.72 553.524 695.021 553.853 695.354 554.151 695.713 554.416 702.343 559.45 713.149 571.886 721.438 593.409 720.65 593.58 719.925 593.771 719.273 593.98 717.139 589.606 713.846 585.901 709.753 583.269 707.528 581.866 704.587 582.532 703.183 584.757 703.155 584.802 703.127 584.848 703.1 584.894L703.018 585.032C701.605 587.381 702.363 590.431 704.712 591.845 705.164 592.117 705.657 592.315 706.172 592.432 709.018 593.075 711.732 594.198 714.2 595.754 712.987 595.654 711.706 595.602 710.378 595.602 702.941 595.602 696.912 597.246 696.912 599.275 696.912 600.497 699.112 601.575 702.481 602.245 702.259 602.577 702.137 602.966 702.128 603.365 702.124 607.03 713.016 610 726.451 610 739.886 610 750.778 607.03 750.778 603.365 750.778 601.651 748.394 600.089 744.481 598.911Z" stroke="#FFFFFF" fill="#4AD4FC"/><path d="M693.792 602.947C691.8 602.947 690.185 603.387 690.185 603.931 690.185 604.475 691.8 604.915 693.792 604.915 695.784 604.915 697.399 604.474 697.399 603.931 697.399 603.388 695.784 602.947 693.792 602.947Z" stroke="#FFFFFF" fill="#4AD4FC"/></g></svg>