<svg width="96" height="96" xmlns="http://www.w3.org/2000/svg" xmlns:xlink="http://www.w3.org/1999/xlink" xml:space="preserve" overflow="hidden"><defs><clipPath id="clip0"><rect x="194" y="173" width="96" height="96"/></clipPath></defs><g clip-path="url(#clip0)" transform="translate(-194 -173)"><path d="M265.668 217.912C263.04 219.564 260.935 221.929 259.598 224.731 259.176 225.624 260.278 226.273 261.077 225.616 262.896 224.112 265.016 223.015 267.294 222.4 269.094 221.918 270.075 219.988 269.238 218.576L269.198 218.509C268.405 217.372 266.84 217.094 265.703 217.887 265.691 217.895 265.68 217.904 265.668 217.912Z" stroke="#FFFFFF" fill="#036CA1"/><path d="M222.75 221.622C224.493 222.014 226.112 222.831 227.462 224 227.775 224.272 228.249 224.24 228.521 223.927 228.7 223.722 228.754 223.436 228.662 223.18 227.803 220.952 226.259 219.054 224.252 217.76 223.314 217.17 222.076 217.451 221.486 218.389 221.474 218.407 221.463 218.425 221.452 218.444L221.418 218.503C220.822 219.491 221.139 220.776 222.128 221.372 222.32 221.488 222.531 221.573 222.75 221.622Z" stroke="#FFFFFF" fill="#036CA1"/><path d="M275.941 235.572 275.926 235.506C275.677 234.426 274.6 233.753 273.52 234.002 273.499 234.007 273.478 234.012 273.457 234.018 271.156 234.656 269.116 236.008 267.632 237.879 267.38 238.209 267.443 238.681 267.773 238.933 267.993 239.101 268.287 239.135 268.539 239.021 270.176 238.305 271.965 238.006 273.746 238.15 274.897 238.241 275.903 237.382 275.994 236.231 276.011 236.01 275.993 235.787 275.941 235.572Z" stroke="#FFFFFF" fill="#036CA1"/><path d="M211.391 238.748C213.715 238.34 216.1 238.436 218.385 239.028 219.385 239.284 220.11 238.228 219.35 237.6 216.953 235.627 214.044 234.376 210.963 233.993 209.602 233.732 208.286 234.625 208.026 235.986 208.023 236.001 208.021 236.016 208.018 236.03L208.01 236.107C207.85 237.741 209.558 239.073 211.391 238.748Z" stroke="#FFFFFF" fill="#036CA1"/><path d="M245.654 227.523C246.185 227.474 246.603 227.048 246.641 226.516 246.881 223.033 248.207 210.288 255.056 199.704 256.821 196.922 256.23 193.259 253.678 191.174L253.678 191.174C250.903 188.864 246.78 189.242 244.47 192.017 243.759 192.872 243.277 193.895 243.071 194.988 240.846 207.526 243.671 222.734 244.479 226.656 244.592 227.203 245.098 227.576 245.654 227.523Z" stroke="#FFFFFF" fill="#036CA1"/><path d="M263.481 243.911C264.881 243.273 265.708 242.529 265.708 241.731 265.708 240.231 262.851 238.915 258.547 238.159 260.153 237.305 261.866 236.669 263.64 236.266 265.782 235.779 267.124 233.647 266.636 231.505 266.543 231.093 266.384 230.699 266.167 230.338L266.101 230.227C265.035 228.408 262.697 227.798 260.878 228.863 260.843 228.884 260.808 228.905 260.773 228.927 257.478 231.048 254.832 234.037 253.127 237.565 252.373 237.525 251.596 237.503 250.807 237.494 256.788 221.242 264.662 211.6 269.634 207.551 272.029 205.661 272.437 202.187 270.547 199.792 268.657 197.398 265.183 196.989 262.788 198.879 262.506 199.102 262.247 199.352 262.013 199.625 253.369 209.344 249.372 225.325 247.523 237.546 246.261 237.604 245.048 237.7 243.909 237.836 243.909 237.827 243.909 237.818 243.909 237.809 241.214 222.438 235.55 201.464 223.883 189.209 221.311 186.403 216.951 186.213 214.144 188.785 211.338 191.357 211.148 195.717 213.72 198.524 214.021 198.853 214.354 199.151 214.713 199.416 221.343 204.45 232.149 216.886 240.438 238.409 239.65 238.58 238.925 238.771 238.273 238.98 236.139 234.606 232.846 230.902 228.753 228.269 226.528 226.866 223.587 227.532 222.183 229.757 222.155 229.802 222.127 229.848 222.1 229.894L222.018 230.032C220.605 232.381 221.363 235.431 223.712 236.845 224.164 237.117 224.657 237.315 225.172 237.432 228.018 238.075 230.732 239.198 233.2 240.754 231.987 240.654 230.706 240.602 229.378 240.602 221.941 240.602 215.912 242.246 215.912 244.275 215.912 245.497 218.112 246.575 221.481 247.245 221.259 247.577 221.137 247.966 221.128 248.365 221.124 252.03 232.016 255 245.451 255 258.886 255 269.778 252.03 269.778 248.365 269.778 246.651 267.394 245.089 263.481 243.911Z" stroke="#FFFFFF" fill="#036CA1"/><path d="M212.792 247.947C210.8 247.947 209.185 248.387 209.185 248.931 209.185 249.475 210.8 249.915 212.792 249.915 214.784 249.915 216.399 249.474 216.399 248.931 216.399 248.388 214.784 247.947 212.792 247.947Z" stroke="#FFFFFF" fill="#036CA1"/></g></svg>