<svg width="96" height="96" xmlns="http://www.w3.org/2000/svg" xmlns:xlink="http://www.w3.org/1999/xlink" xml:space="preserve" overflow="hidden"><defs><clipPath id="clip0"><rect x="282" y="0" width="96" height="96"/></clipPath></defs><g clip-path="url(#clip0)" transform="translate(-282 0)"><path d="M353.668 44.912C351.04 46.5641 348.935 48.9289 347.598 51.731 347.176 52.624 348.278 53.273 349.077 52.616 350.896 51.1117 353.016 50.015 355.294 49.4 357.094 48.918 358.075 46.988 357.238 45.576L357.198 45.509C356.405 44.3722 354.84 44.0937 353.703 44.8869 353.691 44.8952 353.68 44.9035 353.668 44.912Z" stroke="#FFFFFF" fill="#025782"/><path d="M310.75 48.622C312.493 49.0137 314.112 49.8307 315.462 51 315.775 51.2723 316.249 51.2395 316.521 50.9267 316.7 50.7216 316.754 50.436 316.662 50.18 315.803 47.9518 314.259 46.0539 312.252 44.76 311.315 44.1697 310.076 44.4511 309.486 45.3887 309.474 45.4069 309.463 45.4254 309.452 45.444L309.418 45.503C308.822 46.4913 309.139 47.7759 310.128 48.3722 310.32 48.4884 310.53 48.5728 310.75 48.622Z" stroke="#FFFFFF" fill="#025782"/><path d="M363.941 62.572 363.926 62.506C363.677 61.4265 362.6 60.7532 361.52 61.0023 361.499 61.0072 361.478 61.0124 361.457 61.018 359.156 61.656 357.116 63.0079 355.632 64.879 355.38 65.209 355.443 65.6809 355.773 65.9331 355.993 66.1011 356.287 66.1349 356.539 66.021 358.176 65.3048 359.965 65.0056 361.746 65.15 362.897 65.2408 363.903 64.3815 363.994 63.2308 364.011 63.0098 363.993 62.7874 363.941 62.572Z" stroke="#FFFFFF" fill="#025782"/><path d="M299.391 65.748C301.716 65.3401 304.1 65.4356 306.385 66.028 307.385 66.284 308.11 65.228 307.35 64.6 304.953 62.6272 302.044 61.3763 298.963 60.993 297.602 60.7324 296.286 61.6249 296.026 62.9865 296.023 63.0009 296.021 63.0155 296.018 63.03L296.01 63.107C295.85 64.741 297.558 66.073 299.391 65.748Z" stroke="#FFFFFF" fill="#025782"/><path d="M333.654 54.523C334.185 54.4744 334.603 54.0481 334.641 53.516 334.881 50.033 336.207 37.288 343.056 26.704 344.821 23.9216 344.23 20.259 341.678 18.174L341.678 18.174C338.903 15.8642 334.78 16.2417 332.47 19.0172 331.759 19.8723 331.277 20.8948 331.071 21.988 328.846 34.526 331.671 49.734 332.479 53.656 332.592 54.2026 333.098 54.5764 333.654 54.523Z" stroke="#FFFFFF" fill="#025782"/><path d="M351.481 70.911C352.881 70.273 353.708 69.529 353.708 68.731 353.708 67.231 350.851 65.915 346.547 65.159 348.153 64.3053 349.866 63.6687 351.64 63.266 353.782 62.7785 355.124 60.6468 354.636 58.5045 354.543 58.0933 354.384 57.6995 354.167 57.338L354.101 57.227C353.035 55.4081 350.697 54.7975 348.878 55.8631 348.843 55.8839 348.808 55.9052 348.773 55.927 345.478 58.0477 342.832 61.0368 341.127 64.565 340.373 64.525 339.596 64.503 338.807 64.494 344.788 48.242 352.662 38.6 357.634 34.551 360.029 32.6606 360.437 29.187 358.547 26.7924 356.657 24.3978 353.183 23.9891 350.788 25.8794 350.506 26.1021 350.247 26.3518 350.013 26.625 341.369 36.344 337.372 52.325 335.523 64.546 334.261 64.604 333.048 64.7 331.909 64.836 331.909 64.827 331.909 64.818 331.909 64.809 329.214 49.438 323.55 28.464 311.883 16.209 309.311 13.4026 304.951 13.2127 302.144 15.7849 299.338 18.3571 299.148 22.7174 301.72 25.5239 302.021 25.8527 302.354 26.1514 302.713 26.416 309.343 31.45 320.149 43.886 328.438 65.409 327.65 65.58 326.925 65.771 326.273 65.98 324.139 61.6062 320.846 57.9015 316.753 55.269 314.528 53.8657 311.587 54.5317 310.183 56.7566 310.155 56.802 310.127 56.8478 310.1 56.894L310.018 57.032C308.605 59.3811 309.363 62.4312 311.712 63.8447 312.164 64.1168 312.657 64.3151 313.172 64.432 316.018 65.0746 318.732 66.198 321.2 67.754 319.987 67.654 318.706 67.602 317.378 67.602 309.941 67.602 303.912 69.246 303.912 71.275 303.912 72.497 306.112 73.575 309.481 74.245 309.259 74.5772 309.137 74.9657 309.128 75.365 309.124 79.03 320.016 82 333.451 82 346.886 82 357.778 79.03 357.778 75.365 357.778 73.651 355.394 72.089 351.481 70.911Z" stroke="#FFFFFF" fill="#025782"/><path d="M300.792 74.947C298.8 74.947 297.185 75.387 297.185 75.931 297.185 76.475 298.8 76.915 300.792 76.915 302.784 76.915 304.399 76.474 304.399 75.931 304.399 75.388 302.784 74.947 300.792 74.947Z" stroke="#FFFFFF" fill="#025782"/></g></svg>