<svg width="96" height="96" xmlns="http://www.w3.org/2000/svg" xmlns:xlink="http://www.w3.org/1999/xlink" xml:space="preserve" overflow="hidden"><defs><clipPath id="clip0"><rect x="394" y="437" width="96" height="96"/></clipPath></defs><g clip-path="url(#clip0)" transform="translate(-394 -437)"><path d="M465.668 481.912C463.04 483.564 460.935 485.929 459.598 488.731 459.176 489.624 460.278 490.273 461.077 489.616 462.896 488.112 465.016 487.015 467.294 486.4 469.094 485.918 470.075 483.988 469.238 482.576L469.198 482.509C468.405 481.372 466.84 481.094 465.703 481.887 465.691 481.895 465.68 481.904 465.668 481.912Z" stroke="#FFFFFF" fill="#029093"/><path d="M422.75 485.622C424.493 486.014 426.112 486.831 427.462 488 427.775 488.272 428.249 488.24 428.521 487.927 428.7 487.722 428.754 487.436 428.662 487.18 427.803 484.952 426.259 483.054 424.252 481.76 423.315 481.17 422.076 481.451 421.486 482.389 421.474 482.407 421.463 482.425 421.452 482.444L421.418 482.503C420.822 483.491 421.139 484.776 422.128 485.372 422.32 485.488 422.53 485.573 422.75 485.622Z" stroke="#FFFFFF" fill="#029093"/><path d="M475.941 499.572 475.926 499.506C475.677 498.427 474.6 497.753 473.52 498.002 473.499 498.007 473.478 498.012 473.457 498.018 471.156 498.656 469.116 500.008 467.632 501.879 467.38 502.209 467.443 502.681 467.773 502.933 467.993 503.101 468.287 503.135 468.539 503.021 470.176 502.305 471.965 502.006 473.746 502.15 474.897 502.241 475.903 501.382 475.994 500.231 476.011 500.01 475.993 499.787 475.941 499.572Z" stroke="#FFFFFF" fill="#029093"/><path d="M411.391 502.748C413.716 502.34 416.1 502.436 418.385 503.028 419.385 503.284 420.11 502.228 419.35 501.6 416.953 499.627 414.044 498.376 410.963 497.993 409.602 497.732 408.286 498.625 408.026 499.987 408.023 500.001 408.021 500.016 408.018 500.03L408.01 500.107C407.85 501.741 409.558 503.073 411.391 502.748Z" stroke="#FFFFFF" fill="#029093"/><path d="M445.654 491.523C446.185 491.474 446.603 491.048 446.641 490.516 446.881 487.033 448.207 474.288 455.056 463.704 456.821 460.922 456.23 457.259 453.678 455.174L453.678 455.174C450.903 452.864 446.78 453.242 444.47 456.017 443.759 456.872 443.277 457.895 443.071 458.988 440.846 471.526 443.671 486.734 444.479 490.656 444.592 491.203 445.098 491.576 445.654 491.523Z" stroke="#FFFFFF" fill="#029093"/><path d="M463.481 507.911C464.881 507.273 465.708 506.529 465.708 505.731 465.708 504.231 462.851 502.915 458.547 502.159 460.153 501.305 461.866 500.669 463.64 500.266 465.782 499.779 467.124 497.647 466.636 495.505 466.543 495.093 466.384 494.699 466.167 494.338L466.101 494.227C465.035 492.408 462.697 491.797 460.878 492.863 460.843 492.884 460.808 492.905 460.773 492.927 457.478 495.048 454.832 498.037 453.127 501.565 452.373 501.525 451.596 501.503 450.807 501.494 456.788 485.242 464.662 475.6 469.634 471.551 472.029 469.661 472.437 466.187 470.547 463.792 468.657 461.398 465.183 460.989 462.788 462.879 462.506 463.102 462.247 463.352 462.013 463.625 453.369 473.344 449.372 489.325 447.523 501.546 446.261 501.604 445.048 501.7 443.909 501.836 443.909 501.827 443.909 501.818 443.909 501.809 441.214 486.438 435.55 465.464 423.883 453.209 421.311 450.403 416.951 450.213 414.144 452.785 411.338 455.357 411.148 459.717 413.72 462.524 414.021 462.853 414.354 463.151 414.713 463.416 421.343 468.45 432.149 480.886 440.438 502.409 439.65 502.58 438.925 502.771 438.273 502.98 436.139 498.606 432.846 494.901 428.753 492.269 426.528 490.866 423.587 491.532 422.183 493.757 422.155 493.802 422.127 493.848 422.1 493.894L422.018 494.032C420.605 496.381 421.363 499.431 423.712 500.845 424.164 501.117 424.657 501.315 425.172 501.432 428.018 502.075 430.732 503.198 433.2 504.754 431.987 504.654 430.706 504.602 429.378 504.602 421.941 504.602 415.912 506.246 415.912 508.275 415.912 509.497 418.112 510.575 421.481 511.245 421.259 511.577 421.137 511.966 421.128 512.365 421.124 516.03 432.016 519 445.451 519 458.886 519 469.778 516.03 469.778 512.365 469.778 510.651 467.394 509.089 463.481 507.911Z" stroke="#FFFFFF" fill="#029093"/><path d="M412.792 511.947C410.8 511.947 409.185 512.387 409.185 512.931 409.185 513.475 410.8 513.915 412.792 513.915 414.784 513.915 416.399 513.474 416.399 512.931 416.399 512.388 414.784 511.947 412.792 511.947Z" stroke="#FFFFFF" fill="#029093"/></g></svg>