<svg width="96" height="96" xmlns="http://www.w3.org/2000/svg" xmlns:xlink="http://www.w3.org/1999/xlink" xml:space="preserve" overflow="hidden"><defs><clipPath id="clip0"><rect x="288" y="173" width="96" height="96"/></clipPath></defs><g clip-path="url(#clip0)" transform="translate(-288 -173)"><path d="M359.668 217.912C357.04 219.564 354.935 221.929 353.598 224.731 353.176 225.624 354.278 226.273 355.077 225.616 356.896 224.112 359.016 223.015 361.294 222.4 363.094 221.918 364.075 219.988 363.238 218.576L363.198 218.509C362.405 217.372 360.84 217.094 359.703 217.887 359.691 217.895 359.68 217.904 359.668 217.912Z" stroke="#FFFFFF" fill="#038ED3"/><path d="M316.75 221.622C318.493 222.014 320.112 222.831 321.462 224 321.775 224.272 322.249 224.24 322.521 223.927 322.7 223.722 322.754 223.436 322.662 223.18 321.803 220.952 320.259 219.054 318.252 217.76 317.315 217.17 316.076 217.451 315.486 218.389 315.474 218.407 315.463 218.425 315.452 218.444L315.418 218.503C314.822 219.491 315.139 220.776 316.128 221.372 316.32 221.488 316.53 221.573 316.75 221.622Z" stroke="#FFFFFF" fill="#038ED3"/><path d="M369.941 235.572 369.926 235.506C369.677 234.426 368.6 233.753 367.52 234.002 367.499 234.007 367.478 234.012 367.457 234.018 365.156 234.656 363.116 236.008 361.632 237.879 361.38 238.209 361.443 238.681 361.773 238.933 361.993 239.101 362.287 239.135 362.539 239.021 364.176 238.305 365.965 238.006 367.746 238.15 368.897 238.241 369.903 237.382 369.994 236.231 370.011 236.01 369.993 235.787 369.941 235.572Z" stroke="#FFFFFF" fill="#038ED3"/><path d="M305.391 238.748C307.716 238.34 310.1 238.436 312.385 239.028 313.385 239.284 314.11 238.228 313.35 237.6 310.953 235.627 308.044 234.376 304.963 233.993 303.602 233.732 302.286 234.625 302.026 235.986 302.023 236.001 302.021 236.016 302.018 236.03L302.01 236.107C301.85 237.741 303.558 239.073 305.391 238.748Z" stroke="#FFFFFF" fill="#038ED3"/><path d="M339.654 227.523C340.185 227.474 340.603 227.048 340.641 226.516 340.881 223.033 342.207 210.288 349.056 199.704 350.821 196.922 350.23 193.259 347.678 191.174L347.678 191.174C344.903 188.864 340.78 189.242 338.47 192.017 337.759 192.872 337.277 193.895 337.071 194.988 334.846 207.526 337.671 222.734 338.479 226.656 338.592 227.203 339.098 227.576 339.654 227.523Z" stroke="#FFFFFF" fill="#038ED3"/><path d="M357.481 243.911C358.881 243.273 359.708 242.529 359.708 241.731 359.708 240.231 356.851 238.915 352.547 238.159 354.153 237.305 355.866 236.669 357.64 236.266 359.782 235.779 361.124 233.647 360.636 231.505 360.543 231.093 360.384 230.699 360.167 230.338L360.101 230.227C359.035 228.408 356.697 227.798 354.878 228.863 354.843 228.884 354.808 228.905 354.773 228.927 351.478 231.048 348.832 234.037 347.127 237.565 346.373 237.525 345.596 237.503 344.807 237.494 350.788 221.242 358.662 211.6 363.634 207.551 366.029 205.661 366.437 202.187 364.547 199.792 362.657 197.398 359.183 196.989 356.788 198.879 356.506 199.102 356.247 199.352 356.013 199.625 347.369 209.344 343.372 225.325 341.523 237.546 340.261 237.604 339.048 237.7 337.909 237.836 337.909 237.827 337.909 237.818 337.909 237.809 335.214 222.438 329.55 201.464 317.883 189.209 315.311 186.403 310.951 186.213 308.144 188.785 305.338 191.357 305.148 195.717 307.72 198.524 308.021 198.853 308.354 199.151 308.713 199.416 315.343 204.45 326.149 216.886 334.438 238.409 333.65 238.58 332.925 238.771 332.273 238.98 330.139 234.606 326.846 230.902 322.753 228.269 320.528 226.866 317.587 227.532 316.183 229.757 316.155 229.802 316.127 229.848 316.1 229.894L316.018 230.032C314.605 232.381 315.363 235.431 317.712 236.845 318.164 237.117 318.657 237.315 319.172 237.432 322.018 238.075 324.732 239.198 327.2 240.754 325.987 240.654 324.706 240.602 323.378 240.602 315.941 240.602 309.912 242.246 309.912 244.275 309.912 245.497 312.112 246.575 315.481 247.245 315.259 247.577 315.137 247.966 315.128 248.365 315.124 252.03 326.016 255 339.451 255 352.886 255 363.778 252.03 363.778 248.365 363.778 246.651 361.394 245.089 357.481 243.911Z" stroke="#FFFFFF" fill="#038ED3"/><path d="M306.792 247.947C304.8 247.947 303.185 248.387 303.185 248.931 303.185 249.475 304.8 249.915 306.792 249.915 308.784 249.915 310.399 249.474 310.399 248.931 310.399 248.388 308.784 247.947 306.792 247.947Z" stroke="#FFFFFF" fill="#038ED3"/></g></svg>