<svg width="96" height="96" xmlns="http://www.w3.org/2000/svg" xmlns:xlink="http://www.w3.org/1999/xlink" xml:space="preserve" overflow="hidden"><defs><clipPath id="clip0"><rect x="106" y="264" width="96" height="96"/></clipPath></defs><g clip-path="url(#clip0)" transform="translate(-106 -264)"><path d="M177.668 308.912C175.04 310.564 172.935 312.929 171.598 315.731 171.176 316.624 172.278 317.273 173.077 316.616 174.896 315.112 177.016 314.015 179.294 313.4 181.094 312.918 182.075 310.988 181.238 309.576L181.198 309.509C180.405 308.372 178.84 308.094 177.703 308.887 177.691 308.895 177.68 308.904 177.668 308.912Z" stroke="#FFFFFF" fill="#9EDDFD"/><path d="M134.75 312.622C136.493 313.014 138.112 313.831 139.462 315 139.775 315.272 140.249 315.24 140.521 314.927 140.7 314.722 140.754 314.436 140.662 314.18 139.803 311.952 138.259 310.054 136.252 308.76 135.314 308.17 134.076 308.451 133.486 309.389 133.474 309.407 133.463 309.425 133.452 309.444L133.418 309.503C132.822 310.491 133.139 311.776 134.128 312.372 134.32 312.488 134.531 312.573 134.75 312.622Z" stroke="#FFFFFF" fill="#9EDDFD"/><path d="M187.941 326.572 187.926 326.506C187.677 325.427 186.6 324.753 185.52 325.002 185.499 325.007 185.478 325.012 185.457 325.018 183.156 325.656 181.116 327.008 179.632 328.879 179.38 329.209 179.443 329.681 179.773 329.933 179.993 330.101 180.287 330.135 180.539 330.021 182.176 329.305 183.965 329.006 185.746 329.15 186.897 329.241 187.903 328.382 187.994 327.231 188.011 327.01 187.993 326.787 187.941 326.572Z" stroke="#FFFFFF" fill="#9EDDFD"/><path d="M123.391 329.748C125.715 329.34 128.1 329.436 130.385 330.028 131.385 330.284 132.11 329.228 131.35 328.6 128.953 326.627 126.044 325.376 122.963 324.993 121.602 324.732 120.286 325.625 120.026 326.987 120.023 327.001 120.021 327.016 120.018 327.03L120.01 327.107C119.85 328.741 121.558 330.073 123.391 329.748Z" stroke="#FFFFFF" fill="#9EDDFD"/><path d="M157.654 318.523C158.185 318.474 158.603 318.048 158.641 317.516 158.881 314.033 160.207 301.288 167.056 290.704 168.821 287.922 168.23 284.259 165.678 282.174L165.678 282.174C162.903 279.864 158.78 280.242 156.47 283.017 155.759 283.872 155.277 284.895 155.071 285.988 152.846 298.526 155.671 313.734 156.479 317.656 156.592 318.203 157.098 318.576 157.654 318.523Z" stroke="#FFFFFF" fill="#9EDDFD"/><path d="M175.481 334.911C176.881 334.273 177.708 333.529 177.708 332.731 177.708 331.231 174.851 329.915 170.547 329.159 172.153 328.305 173.866 327.669 175.64 327.266 177.782 326.779 179.124 324.647 178.636 322.505 178.543 322.093 178.384 321.699 178.167 321.338L178.101 321.227C177.035 319.408 174.697 318.797 172.878 319.863 172.843 319.884 172.808 319.905 172.773 319.927 169.478 322.048 166.832 325.037 165.127 328.565 164.373 328.525 163.596 328.503 162.807 328.494 168.788 312.242 176.662 302.6 181.634 298.551 184.029 296.661 184.437 293.187 182.547 290.792 180.657 288.398 177.183 287.989 174.788 289.879 174.506 290.102 174.247 290.352 174.013 290.625 165.369 300.344 161.372 316.325 159.523 328.546 158.261 328.604 157.048 328.7 155.909 328.836 155.909 328.827 155.909 328.818 155.909 328.809 153.214 313.438 147.55 292.464 135.883 280.209 133.311 277.403 128.951 277.213 126.144 279.785 123.338 282.357 123.148 286.717 125.72 289.524 126.021 289.853 126.354 290.151 126.713 290.416 133.343 295.45 144.149 307.886 152.438 329.409 151.65 329.58 150.925 329.771 150.273 329.98 148.139 325.606 144.846 321.901 140.753 319.269 138.528 317.866 135.587 318.532 134.183 320.757 134.155 320.802 134.127 320.848 134.1 320.894L134.018 321.032C132.605 323.381 133.363 326.431 135.712 327.845 136.164 328.117 136.657 328.315 137.172 328.432 140.018 329.075 142.732 330.198 145.2 331.754 143.987 331.654 142.706 331.602 141.378 331.602 133.941 331.602 127.912 333.246 127.912 335.275 127.912 336.497 130.112 337.575 133.481 338.245 133.259 338.577 133.137 338.966 133.128 339.365 133.124 343.03 144.016 346 157.451 346 170.886 346 181.778 343.03 181.778 339.365 181.778 337.651 179.394 336.089 175.481 334.911Z" stroke="#FFFFFF" fill="#9EDDFD"/><path d="M124.792 338.947C122.8 338.947 121.185 339.387 121.185 339.931 121.185 340.475 122.8 340.915 124.792 340.915 126.784 340.915 128.399 340.474 128.399 339.931 128.399 339.388 126.784 338.947 124.792 338.947Z" stroke="#FFFFFF" fill="#9EDDFD"/></g></svg>