<svg width="96" height="96" xmlns="http://www.w3.org/2000/svg" xmlns:xlink="http://www.w3.org/1999/xlink" xml:space="preserve" overflow="hidden"><defs><clipPath id="clip0"><rect x="481" y="346" width="96" height="96"/></clipPath></defs><g clip-path="url(#clip0)" transform="translate(-481 -346)"><path d="M552.668 390.912C550.04 392.564 547.935 394.929 546.598 397.731 546.176 398.624 547.278 399.273 548.077 398.616 549.896 397.112 552.016 396.015 554.294 395.4 556.094 394.918 557.075 392.988 556.238 391.576L556.198 391.509C555.405 390.372 553.84 390.094 552.703 390.887 552.691 390.895 552.68 390.904 552.668 390.912Z" stroke="#FFFFFF" fill="#3551DB"/><path d="M509.75 394.622C511.493 395.014 513.112 395.831 514.462 397 514.775 397.272 515.249 397.24 515.521 396.927 515.7 396.722 515.754 396.436 515.662 396.18 514.803 393.952 513.259 392.054 511.252 390.76 510.315 390.17 509.076 390.451 508.486 391.389 508.474 391.407 508.463 391.425 508.452 391.444L508.418 391.503C507.822 392.491 508.139 393.776 509.128 394.372 509.32 394.488 509.53 394.573 509.75 394.622Z" stroke="#FFFFFF" fill="#3551DB"/><path d="M562.941 408.572 562.926 408.506C562.677 407.427 561.6 406.753 560.52 407.002 560.499 407.007 560.478 407.012 560.457 407.018 558.156 407.656 556.116 409.008 554.632 410.879 554.38 411.209 554.443 411.681 554.773 411.933 554.993 412.101 555.287 412.135 555.539 412.021 557.176 411.305 558.965 411.006 560.746 411.15 561.897 411.241 562.903 410.382 562.994 409.231 563.011 409.01 562.994 408.787 562.941 408.572Z" stroke="#FFFFFF" fill="#3551DB"/><path d="M498.391 411.748C500.716 411.34 503.1 411.436 505.385 412.028 506.385 412.284 507.11 411.228 506.35 410.6 503.953 408.627 501.044 407.376 497.963 406.993 496.602 406.732 495.286 407.625 495.026 408.987 495.023 409.001 495.021 409.016 495.018 409.03L495.01 409.107C494.85 410.741 496.558 412.073 498.391 411.748Z" stroke="#FFFFFF" fill="#3551DB"/><path d="M532.654 400.523C533.185 400.474 533.603 400.048 533.641 399.516 533.881 396.033 535.207 383.288 542.056 372.704 543.821 369.922 543.23 366.259 540.678 364.174L540.678 364.174C537.903 361.864 533.78 362.242 531.47 365.017 530.759 365.872 530.277 366.895 530.071 367.988 527.846 380.526 530.671 395.734 531.479 399.656 531.592 400.203 532.098 400.576 532.654 400.523Z" stroke="#FFFFFF" fill="#3551DB"/><path d="M550.481 416.911C551.881 416.273 552.708 415.529 552.708 414.731 552.708 413.231 549.851 411.915 545.547 411.159 547.153 410.305 548.866 409.669 550.64 409.266 552.782 408.779 554.124 406.647 553.636 404.505 553.543 404.093 553.384 403.699 553.167 403.338L553.101 403.227C552.035 401.408 549.697 400.797 547.878 401.863 547.843 401.884 547.808 401.905 547.773 401.927 544.478 404.048 541.832 407.037 540.127 410.565 539.373 410.525 538.596 410.503 537.807 410.494 543.788 394.242 551.662 384.6 556.634 380.551 559.029 378.661 559.437 375.187 557.547 372.792 555.657 370.398 552.183 369.989 549.788 371.879 549.506 372.102 549.247 372.352 549.013 372.625 540.369 382.344 536.372 398.325 534.523 410.546 533.261 410.604 532.048 410.7 530.909 410.836 530.909 410.827 530.909 410.818 530.909 410.809 528.214 395.438 522.55 374.464 510.883 362.209 508.311 359.403 503.951 359.213 501.144 361.785 498.338 364.357 498.148 368.717 500.72 371.524 501.021 371.853 501.354 372.151 501.713 372.416 508.343 377.45 519.149 389.886 527.438 411.409 526.65 411.58 525.925 411.771 525.273 411.98 523.139 407.606 519.846 403.901 515.753 401.269 513.528 399.866 510.587 400.532 509.183 402.757 509.155 402.802 509.127 402.848 509.1 402.894L509.018 403.032C507.605 405.381 508.363 408.431 510.712 409.845 511.164 410.117 511.657 410.315 512.172 410.432 515.018 411.075 517.732 412.198 520.2 413.754 518.987 413.654 517.706 413.602 516.378 413.602 508.941 413.602 502.912 415.246 502.912 417.275 502.912 418.497 505.112 419.575 508.481 420.245 508.259 420.577 508.137 420.966 508.128 421.365 508.124 425.03 519.016 428 532.451 428 545.886 428 556.778 425.03 556.778 421.365 556.778 419.651 554.394 418.089 550.481 416.911Z" stroke="#FFFFFF" fill="#3551DB"/><path d="M499.792 420.947C497.8 420.947 496.185 421.387 496.185 421.931 496.185 422.475 497.8 422.915 499.792 422.915 501.784 422.915 503.399 422.474 503.399 421.931 503.399 421.388 501.784 420.947 499.792 420.947Z" stroke="#FFFFFF" fill="#3551DB"/></g></svg>