<svg width="96" height="96" xmlns="http://www.w3.org/2000/svg" xmlns:xlink="http://www.w3.org/1999/xlink" xml:space="preserve" overflow="hidden"><defs><clipPath id="clip0"><rect x="382" y="173" width="96" height="96"/></clipPath></defs><g clip-path="url(#clip0)" transform="translate(-382 -173)"><path d="M453.668 217.912C451.04 219.564 448.935 221.929 447.598 224.731 447.176 225.624 448.278 226.273 449.077 225.616 450.896 224.112 453.016 223.015 455.294 222.4 457.094 221.918 458.075 219.988 457.238 218.576L457.198 218.509C456.405 217.372 454.84 217.094 453.703 217.887 453.691 217.895 453.68 217.904 453.668 217.912Z" stroke="#FFFFFF" fill="#049FEC"/><path d="M410.75 221.622C412.493 222.014 414.112 222.831 415.462 224 415.775 224.272 416.249 224.24 416.521 223.927 416.7 223.722 416.754 223.436 416.662 223.18 415.803 220.952 414.259 219.054 412.252 217.76 411.315 217.17 410.076 217.451 409.486 218.389 409.474 218.407 409.463 218.425 409.452 218.444L409.418 218.503C408.822 219.491 409.139 220.776 410.128 221.372 410.32 221.488 410.53 221.573 410.75 221.622Z" stroke="#FFFFFF" fill="#049FEC"/><path d="M463.941 235.572 463.926 235.506C463.677 234.426 462.6 233.753 461.52 234.002 461.499 234.007 461.478 234.012 461.457 234.018 459.156 234.656 457.116 236.008 455.632 237.879 455.38 238.209 455.443 238.681 455.773 238.933 455.993 239.101 456.287 239.135 456.539 239.021 458.176 238.305 459.965 238.006 461.746 238.15 462.897 238.241 463.903 237.382 463.994 236.231 464.011 236.01 463.993 235.787 463.941 235.572Z" stroke="#FFFFFF" fill="#049FEC"/><path d="M399.391 238.748C401.716 238.34 404.1 238.436 406.385 239.028 407.385 239.284 408.11 238.228 407.35 237.6 404.953 235.627 402.044 234.376 398.963 233.993 397.602 233.732 396.286 234.625 396.026 235.986 396.023 236.001 396.021 236.016 396.018 236.03L396.01 236.107C395.85 237.741 397.558 239.073 399.391 238.748Z" stroke="#FFFFFF" fill="#049FEC"/><path d="M433.654 227.523C434.185 227.474 434.603 227.048 434.641 226.516 434.881 223.033 436.207 210.288 443.056 199.704 444.821 196.922 444.23 193.259 441.678 191.174L441.678 191.174C438.903 188.864 434.78 189.242 432.47 192.017 431.759 192.872 431.277 193.895 431.071 194.988 428.846 207.526 431.671 222.734 432.479 226.656 432.592 227.203 433.098 227.576 433.654 227.523Z" stroke="#FFFFFF" fill="#049FEC"/><path d="M451.481 243.911C452.881 243.273 453.708 242.529 453.708 241.731 453.708 240.231 450.851 238.915 446.547 238.159 448.153 237.305 449.866 236.669 451.64 236.266 453.782 235.779 455.124 233.647 454.636 231.505 454.543 231.093 454.384 230.699 454.167 230.338L454.101 230.227C453.035 228.408 450.697 227.798 448.878 228.863 448.843 228.884 448.808 228.905 448.773 228.927 445.478 231.048 442.832 234.037 441.127 237.565 440.373 237.525 439.596 237.503 438.807 237.494 444.788 221.242 452.662 211.6 457.634 207.551 460.029 205.661 460.437 202.187 458.547 199.792 456.657 197.398 453.183 196.989 450.788 198.879 450.506 199.102 450.247 199.352 450.013 199.625 441.369 209.344 437.372 225.325 435.523 237.546 434.261 237.604 433.048 237.7 431.909 237.836 431.909 237.827 431.909 237.818 431.909 237.809 429.214 222.438 423.55 201.464 411.883 189.209 409.311 186.403 404.951 186.213 402.144 188.785 399.338 191.357 399.148 195.717 401.72 198.524 402.021 198.853 402.354 199.151 402.713 199.416 409.343 204.45 420.149 216.886 428.438 238.409 427.65 238.58 426.925 238.771 426.273 238.98 424.139 234.606 420.846 230.902 416.753 228.269 414.528 226.866 411.587 227.532 410.183 229.757 410.155 229.802 410.127 229.848 410.1 229.894L410.018 230.032C408.605 232.381 409.363 235.431 411.712 236.845 412.164 237.117 412.657 237.315 413.172 237.432 416.018 238.075 418.732 239.198 421.2 240.754 419.987 240.654 418.706 240.602 417.378 240.602 409.941 240.602 403.912 242.246 403.912 244.275 403.912 245.497 406.112 246.575 409.481 247.245 409.259 247.577 409.137 247.966 409.128 248.365 409.124 252.03 420.016 255 433.451 255 446.886 255 457.778 252.03 457.778 248.365 457.778 246.651 455.394 245.089 451.481 243.911Z" stroke="#FFFFFF" fill="#049FEC"/><path d="M400.792 247.947C398.8 247.947 397.185 248.387 397.185 248.931 397.185 249.475 398.8 249.915 400.792 249.915 402.784 249.915 404.399 249.474 404.399 248.931 404.399 248.388 402.784 247.947 400.792 247.947Z" stroke="#FFFFFF" fill="#049FEC"/></g></svg>