<svg width="96" height="96" xmlns="http://www.w3.org/2000/svg" xmlns:xlink="http://www.w3.org/1999/xlink" xml:space="preserve" overflow="hidden"><defs><clipPath id="clip0"><rect x="469" y="0" width="96" height="96"/></clipPath></defs><g clip-path="url(#clip0)" transform="translate(-469 0)"><path d="M540.668 44.912C538.04 46.5641 535.935 48.9289 534.598 51.731 534.176 52.624 535.278 53.273 536.077 52.616 537.896 51.1117 540.016 50.015 542.294 49.4 544.094 48.918 545.075 46.988 544.238 45.576L544.198 45.509C543.405 44.3722 541.84 44.0937 540.703 44.8869 540.691 44.8952 540.68 44.9035 540.668 44.912Z" stroke="#FFFFFF" fill="#0270A7"/><path d="M497.75 48.622C499.493 49.0137 501.112 49.8307 502.462 51 502.775 51.2723 503.249 51.2395 503.521 50.9267 503.7 50.7216 503.754 50.436 503.662 50.18 502.803 47.9518 501.259 46.0539 499.252 44.76 498.315 44.1697 497.076 44.4511 496.486 45.3887 496.474 45.4069 496.463 45.4254 496.452 45.444L496.418 45.503C495.822 46.4913 496.139 47.7759 497.128 48.3722 497.32 48.4884 497.53 48.5728 497.75 48.622Z" stroke="#FFFFFF" fill="#0270A7"/><path d="M550.941 62.572 550.926 62.506C550.677 61.4265 549.6 60.7532 548.52 61.0023 548.499 61.0072 548.478 61.0124 548.457 61.018 546.156 61.656 544.116 63.0079 542.632 64.879 542.38 65.209 542.443 65.6809 542.773 65.9331 542.993 66.1011 543.287 66.1349 543.539 66.021 545.176 65.3048 546.965 65.0056 548.746 65.15 549.897 65.2408 550.903 64.3815 550.994 63.2308 551.011 63.0098 550.994 62.7874 550.941 62.572Z" stroke="#FFFFFF" fill="#0270A7"/><path d="M486.391 65.748C488.716 65.3401 491.1 65.4356 493.385 66.028 494.385 66.284 495.11 65.228 494.35 64.6 491.953 62.6272 489.044 61.3763 485.963 60.993 484.602 60.7324 483.286 61.6249 483.026 62.9865 483.023 63.0009 483.021 63.0155 483.018 63.03L483.01 63.107C482.85 64.741 484.558 66.073 486.391 65.748Z" stroke="#FFFFFF" fill="#0270A7"/><path d="M520.654 54.523C521.185 54.4744 521.603 54.0481 521.641 53.516 521.881 50.033 523.207 37.288 530.056 26.704 531.821 23.9216 531.23 20.259 528.678 18.174L528.678 18.174C525.903 15.8642 521.78 16.2417 519.47 19.0172 518.759 19.8723 518.277 20.8948 518.071 21.988 515.846 34.526 518.671 49.734 519.479 53.656 519.592 54.2026 520.098 54.5764 520.654 54.523Z" stroke="#FFFFFF" fill="#0270A7"/><path d="M538.481 70.911C539.881 70.273 540.708 69.529 540.708 68.731 540.708 67.231 537.851 65.915 533.547 65.159 535.153 64.3053 536.866 63.6687 538.64 63.266 540.782 62.7785 542.124 60.6468 541.636 58.5045 541.543 58.0933 541.384 57.6995 541.167 57.338L541.101 57.227C540.035 55.4081 537.697 54.7975 535.878 55.8631 535.843 55.8839 535.808 55.9052 535.773 55.927 532.478 58.0477 529.832 61.0368 528.127 64.565 527.373 64.525 526.596 64.503 525.807 64.494 531.788 48.242 539.662 38.6 544.634 34.551 547.029 32.6606 547.437 29.187 545.547 26.7924 543.657 24.3978 540.183 23.9891 537.788 25.8794 537.506 26.1021 537.247 26.3518 537.013 26.625 528.369 36.344 524.372 52.325 522.523 64.546 521.261 64.604 520.048 64.7 518.909 64.836 518.909 64.827 518.909 64.818 518.909 64.809 516.214 49.438 510.55 28.464 498.883 16.209 496.311 13.4026 491.951 13.2127 489.144 15.7849 486.338 18.3571 486.148 22.7174 488.72 25.5239 489.021 25.8527 489.354 26.1514 489.713 26.416 496.343 31.45 507.149 43.886 515.438 65.409 514.65 65.58 513.925 65.771 513.273 65.98 511.139 61.6062 507.846 57.9015 503.753 55.269 501.528 53.8657 498.587 54.5317 497.183 56.7566 497.155 56.802 497.127 56.8478 497.1 56.894L497.018 57.032C495.605 59.3811 496.363 62.4312 498.712 63.8447 499.164 64.1168 499.657 64.3151 500.172 64.432 503.018 65.0746 505.732 66.198 508.2 67.754 506.987 67.654 505.706 67.602 504.378 67.602 496.941 67.602 490.912 69.246 490.912 71.275 490.912 72.497 493.112 73.575 496.481 74.245 496.259 74.5772 496.137 74.9657 496.128 75.365 496.124 79.03 507.016 82 520.451 82 533.886 82 544.778 79.03 544.778 75.365 544.778 73.651 542.394 72.089 538.481 70.911Z" stroke="#FFFFFF" fill="#0270A7"/><path d="M487.792 74.947C485.8 74.947 484.185 75.387 484.185 75.931 484.185 76.475 485.8 76.915 487.792 76.915 489.784 76.915 491.399 76.474 491.399 75.931 491.399 75.388 489.784 74.947 487.792 74.947Z" stroke="#FFFFFF" fill="#0270A7"/></g></svg>