<svg width="96" height="96" xmlns="http://www.w3.org/2000/svg" xmlns:xlink="http://www.w3.org/1999/xlink" xml:space="preserve" overflow="hidden"><defs><clipPath id="clip0"><rect x="845" y="0" width="96" height="96"/></clipPath></defs><g clip-path="url(#clip0)" transform="translate(-845 0)"><path d="M916.668 44.912C914.04 46.5641 911.935 48.9289 910.598 51.731 910.176 52.624 911.278 53.273 912.077 52.616 913.896 51.1117 916.016 50.015 918.294 49.4 920.094 48.918 921.075 46.988 920.238 45.576L920.198 45.509C919.405 44.3722 917.84 44.0937 916.703 44.8869 916.691 44.8952 916.68 44.9035 916.668 44.912Z" stroke="#FFFFFF" fill="#4EA4CE"/><path d="M873.75 48.622C875.493 49.0137 877.112 49.8307 878.462 51 878.775 51.2723 879.249 51.2395 879.521 50.9267 879.7 50.7216 879.754 50.436 879.662 50.18 878.803 47.9518 877.259 46.0539 875.252 44.76 874.315 44.1697 873.076 44.4511 872.486 45.3887 872.474 45.4069 872.463 45.4254 872.452 45.444L872.418 45.503C871.822 46.4913 872.14 47.7759 873.128 48.3722 873.32 48.4884 873.531 48.5728 873.75 48.622Z" stroke="#FFFFFF" fill="#4EA4CE"/><path d="M926.941 62.572 926.926 62.506C926.677 61.4265 925.6 60.7532 924.52 61.0023 924.499 61.0072 924.478 61.0124 924.457 61.018 922.156 61.656 920.116 63.0079 918.632 64.879 918.38 65.209 918.443 65.6809 918.773 65.9331 918.993 66.1011 919.287 66.1349 919.539 66.021 921.176 65.3048 922.965 65.0056 924.746 65.15 925.897 65.2408 926.903 64.3815 926.994 63.2308 927.011 63.0098 926.994 62.7874 926.941 62.572Z" stroke="#FFFFFF" fill="#4EA4CE"/><path d="M862.391 65.748C864.716 65.3401 867.101 65.4356 869.385 66.028 870.385 66.284 871.11 65.228 870.35 64.6 867.953 62.6272 865.044 61.3763 861.963 60.993 860.602 60.7324 859.286 61.6249 859.026 62.9865 859.023 63.0009 859.021 63.0155 859.018 63.03L859.01 63.107C858.85 64.741 860.558 66.073 862.391 65.748Z" stroke="#FFFFFF" fill="#4EA4CE"/><path d="M896.654 54.523C897.185 54.4744 897.603 54.0481 897.641 53.516 897.881 50.033 899.207 37.288 906.056 26.704 907.821 23.9216 907.23 20.259 904.678 18.174L904.678 18.174C901.903 15.8642 897.78 16.2417 895.47 19.0172 894.759 19.8723 894.277 20.8948 894.071 21.988 891.846 34.526 894.671 49.734 895.479 53.656 895.592 54.2026 896.098 54.5764 896.654 54.523Z" stroke="#FFFFFF" fill="#4EA4CE"/><path d="M914.481 70.911C915.881 70.273 916.708 69.529 916.708 68.731 916.708 67.231 913.851 65.915 909.547 65.159 911.153 64.3053 912.866 63.6687 914.64 63.266 916.782 62.7785 918.124 60.6468 917.636 58.5045 917.543 58.0933 917.384 57.6995 917.167 57.338L917.101 57.227C916.035 55.4081 913.697 54.7975 911.878 55.8631 911.843 55.8839 911.808 55.9052 911.773 55.927 908.478 58.0477 905.832 61.0368 904.127 64.565 903.373 64.525 902.596 64.503 901.807 64.494 907.788 48.242 915.662 38.6 920.634 34.551 923.029 32.6606 923.437 29.187 921.547 26.7924 919.657 24.3978 916.183 23.9891 913.788 25.8794 913.506 26.1021 913.247 26.3518 913.013 26.625 904.369 36.344 900.372 52.325 898.523 64.546 897.261 64.604 896.048 64.7 894.909 64.836 894.909 64.827 894.909 64.818 894.909 64.809 892.214 49.438 886.55 28.464 874.883 16.209 872.311 13.4026 867.951 13.2127 865.144 15.7849 862.338 18.3571 862.148 22.7174 864.72 25.5239 865.021 25.8527 865.354 26.1514 865.713 26.416 872.343 31.45 883.149 43.886 891.438 65.409 890.65 65.58 889.925 65.771 889.273 65.98 887.139 61.6062 883.846 57.9015 879.753 55.269 877.528 53.8657 874.587 54.5317 873.183 56.7566 873.155 56.802 873.127 56.8478 873.1 56.894L873.018 57.032C871.605 59.3811 872.363 62.4312 874.712 63.8447 875.164 64.1168 875.657 64.3151 876.172 64.432 879.018 65.0746 881.732 66.198 884.2 67.754 882.987 67.654 881.706 67.602 880.378 67.602 872.941 67.602 866.912 69.246 866.912 71.275 866.912 72.497 869.112 73.575 872.481 74.245 872.259 74.5772 872.137 74.9657 872.128 75.365 872.124 79.03 883.016 82 896.451 82 909.886 82 920.778 79.03 920.778 75.365 920.778 73.651 918.394 72.089 914.481 70.911Z" stroke="#FFFFFF" fill="#4EA4CE"/><path d="M863.792 74.947C861.8 74.947 860.185 75.387 860.185 75.931 860.185 76.475 861.8 76.915 863.792 76.915 865.784 76.915 867.399 76.474 867.399 75.931 867.399 75.388 865.784 74.947 863.792 74.947Z" stroke="#FFFFFF" fill="#4EA4CE"/></g></svg>