<svg width="96" height="96" xmlns="http://www.w3.org/2000/svg" xmlns:xlink="http://www.w3.org/1999/xlink" xml:space="preserve" overflow="hidden"><defs><clipPath id="clip0"><rect x="763" y="346" width="96" height="96"/></clipPath></defs><g clip-path="url(#clip0)" transform="translate(-763 -346)"><path d="M834.668 390.912C832.04 392.564 829.935 394.929 828.598 397.731 828.176 398.624 829.278 399.273 830.077 398.616 831.896 397.112 834.016 396.015 836.294 395.4 838.094 394.918 839.075 392.988 838.238 391.576L838.198 391.509C837.405 390.372 835.84 390.094 834.703 390.887 834.691 390.895 834.68 390.904 834.668 390.912Z" stroke="#FFFFFF" fill="#9AA8ED"/><path d="M791.75 394.622C793.493 395.014 795.112 395.831 796.462 397 796.775 397.272 797.249 397.24 797.521 396.927 797.7 396.722 797.754 396.436 797.662 396.18 796.803 393.952 795.259 392.054 793.252 390.76 792.315 390.17 791.076 390.451 790.486 391.389 790.474 391.407 790.463 391.425 790.452 391.444L790.418 391.503C789.822 392.491 790.14 393.776 791.128 394.372 791.32 394.488 791.531 394.573 791.75 394.622Z" stroke="#FFFFFF" fill="#9AA8ED"/><path d="M844.941 408.572 844.926 408.506C844.677 407.427 843.6 406.753 842.52 407.002 842.499 407.007 842.478 407.012 842.457 407.018 840.156 407.656 838.116 409.008 836.632 410.879 836.38 411.209 836.443 411.681 836.773 411.933 836.993 412.101 837.287 412.135 837.539 412.021 839.176 411.305 840.965 411.006 842.746 411.15 843.897 411.241 844.903 410.382 844.994 409.231 845.011 409.01 844.994 408.787 844.941 408.572Z" stroke="#FFFFFF" fill="#9AA8ED"/><path d="M780.391 411.748C782.716 411.34 785.101 411.436 787.385 412.028 788.385 412.284 789.11 411.228 788.35 410.6 785.953 408.627 783.044 407.376 779.963 406.993 778.602 406.732 777.286 407.625 777.026 408.987 777.023 409.001 777.021 409.016 777.018 409.03L777.01 409.107C776.85 410.741 778.558 412.073 780.391 411.748Z" stroke="#FFFFFF" fill="#9AA8ED"/><path d="M814.654 400.523C815.185 400.474 815.603 400.048 815.641 399.516 815.881 396.033 817.207 383.288 824.056 372.704 825.821 369.922 825.23 366.259 822.678 364.174L822.678 364.174C819.903 361.864 815.78 362.242 813.47 365.017 812.759 365.872 812.277 366.895 812.071 367.988 809.846 380.526 812.671 395.734 813.479 399.656 813.592 400.203 814.098 400.576 814.654 400.523Z" stroke="#FFFFFF" fill="#9AA8ED"/><path d="M832.481 416.911C833.881 416.273 834.708 415.529 834.708 414.731 834.708 413.231 831.851 411.915 827.547 411.159 829.153 410.305 830.866 409.669 832.64 409.266 834.782 408.779 836.124 406.647 835.636 404.505 835.543 404.093 835.384 403.699 835.167 403.338L835.101 403.227C834.035 401.408 831.697 400.797 829.878 401.863 829.843 401.884 829.808 401.905 829.773 401.927 826.478 404.048 823.832 407.037 822.127 410.565 821.373 410.525 820.596 410.503 819.807 410.494 825.788 394.242 833.662 384.6 838.634 380.551 841.029 378.661 841.437 375.187 839.547 372.792 837.657 370.398 834.183 369.989 831.788 371.879 831.506 372.102 831.247 372.352 831.013 372.625 822.369 382.344 818.372 398.325 816.523 410.546 815.261 410.604 814.048 410.7 812.909 410.836 812.909 410.827 812.909 410.818 812.909 410.809 810.214 395.438 804.55 374.464 792.883 362.209 790.311 359.403 785.951 359.213 783.144 361.785 780.338 364.357 780.148 368.717 782.72 371.524 783.021 371.853 783.354 372.151 783.713 372.416 790.343 377.45 801.149 389.886 809.438 411.409 808.65 411.58 807.925 411.771 807.273 411.98 805.139 407.606 801.846 403.901 797.753 401.269 795.528 399.866 792.587 400.532 791.183 402.757 791.155 402.802 791.127 402.848 791.1 402.894L791.018 403.032C789.605 405.381 790.363 408.431 792.712 409.845 793.164 410.117 793.657 410.315 794.172 410.432 797.018 411.075 799.732 412.198 802.2 413.754 800.987 413.654 799.706 413.602 798.378 413.602 790.941 413.602 784.912 415.246 784.912 417.275 784.912 418.497 787.112 419.575 790.481 420.245 790.259 420.577 790.137 420.966 790.128 421.365 790.124 425.03 801.016 428 814.451 428 827.886 428 838.778 425.03 838.778 421.365 838.778 419.651 836.394 418.089 832.481 416.911Z" stroke="#FFFFFF" fill="#9AA8ED"/><path d="M781.792 420.947C779.8 420.947 778.185 421.387 778.185 421.931 778.185 422.475 779.8 422.915 781.792 422.915 783.784 422.915 785.399 422.474 785.399 421.931 785.399 421.388 783.784 420.947 781.792 420.947Z" stroke="#FFFFFF" fill="#9AA8ED"/></g></svg>