<svg width="96" height="96" xmlns="http://www.w3.org/2000/svg" xmlns:xlink="http://www.w3.org/1999/xlink" xml:space="preserve" overflow="hidden"><defs><clipPath id="clip0"><rect x="475" y="91" width="96" height="96"/></clipPath></defs><g clip-path="url(#clip0)" transform="translate(-475 -91)"><path d="M546.668 135.912C544.04 137.564 541.935 139.929 540.598 142.731 540.176 143.624 541.278 144.273 542.077 143.616 543.896 142.112 546.016 141.015 548.294 140.4 550.094 139.918 551.075 137.988 550.238 136.576L550.198 136.509C549.405 135.372 547.84 135.094 546.703 135.887 546.691 135.895 546.68 135.904 546.668 135.912Z" stroke="#FFFFFF" fill="#E5F2F8"/><path d="M503.75 139.622C505.493 140.014 507.112 140.831 508.462 142 508.775 142.272 509.249 142.24 509.521 141.927 509.7 141.722 509.754 141.436 509.662 141.18 508.803 138.952 507.259 137.054 505.252 135.76 504.315 135.17 503.076 135.451 502.486 136.389 502.474 136.407 502.463 136.425 502.452 136.444L502.418 136.503C501.822 137.491 502.139 138.776 503.128 139.372 503.32 139.488 503.53 139.573 503.75 139.622Z" stroke="#FFFFFF" fill="#E5F2F8"/><path d="M556.941 153.572 556.926 153.506C556.677 152.426 555.6 151.753 554.52 152.002 554.499 152.007 554.478 152.012 554.457 152.018 552.156 152.656 550.116 154.008 548.632 155.879 548.38 156.209 548.443 156.681 548.773 156.933 548.993 157.101 549.287 157.135 549.539 157.021 551.176 156.305 552.965 156.006 554.746 156.15 555.897 156.241 556.903 155.382 556.994 154.231 557.011 154.01 556.994 153.787 556.941 153.572Z" stroke="#FFFFFF" fill="#E5F2F8"/><path d="M492.391 156.748C494.716 156.34 497.1 156.436 499.385 157.028 500.385 157.284 501.11 156.228 500.35 155.6 497.953 153.627 495.044 152.376 491.963 151.993 490.602 151.732 489.286 152.625 489.026 153.986 489.023 154.001 489.021 154.016 489.018 154.03L489.01 154.107C488.85 155.741 490.558 157.073 492.391 156.748Z" stroke="#FFFFFF" fill="#E5F2F8"/><path d="M526.654 145.523C527.185 145.474 527.603 145.048 527.641 144.516 527.881 141.033 529.207 128.288 536.056 117.704 537.821 114.922 537.23 111.259 534.678 109.174L534.678 109.174C531.903 106.864 527.78 107.242 525.47 110.017 524.759 110.872 524.277 111.895 524.071 112.988 521.846 125.526 524.671 140.734 525.479 144.656 525.592 145.203 526.098 145.576 526.654 145.523Z" stroke="#FFFFFF" fill="#E5F2F8"/><path d="M544.481 161.911C545.881 161.273 546.708 160.529 546.708 159.731 546.708 158.231 543.851 156.915 539.547 156.159 541.153 155.305 542.866 154.669 544.64 154.266 546.782 153.779 548.124 151.647 547.636 149.505 547.543 149.093 547.384 148.699 547.167 148.338L547.101 148.227C546.035 146.408 543.697 145.798 541.878 146.863 541.843 146.884 541.808 146.905 541.773 146.927 538.478 149.048 535.832 152.037 534.127 155.565 533.373 155.525 532.596 155.503 531.807 155.494 537.788 139.242 545.662 129.6 550.634 125.551 553.029 123.661 553.437 120.187 551.547 117.792 549.657 115.398 546.183 114.989 543.788 116.879 543.506 117.102 543.247 117.352 543.013 117.625 534.369 127.344 530.372 143.325 528.523 155.546 527.261 155.604 526.048 155.7 524.909 155.836 524.909 155.827 524.909 155.818 524.909 155.809 522.214 140.438 516.55 119.464 504.883 107.209 502.311 104.403 497.951 104.213 495.144 106.785 492.338 109.357 492.148 113.717 494.72 116.524 495.021 116.853 495.354 117.151 495.713 117.416 502.343 122.45 513.149 134.886 521.438 156.409 520.65 156.58 519.925 156.771 519.273 156.98 517.139 152.606 513.846 148.902 509.753 146.269 507.528 144.866 504.587 145.532 503.183 147.757 503.155 147.802 503.127 147.848 503.1 147.894L503.018 148.032C501.605 150.381 502.363 153.431 504.712 154.845 505.164 155.117 505.657 155.315 506.172 155.432 509.018 156.075 511.732 157.198 514.2 158.754 512.987 158.654 511.706 158.602 510.378 158.602 502.941 158.602 496.912 160.246 496.912 162.275 496.912 163.497 499.112 164.575 502.481 165.245 502.259 165.577 502.137 165.966 502.128 166.365 502.124 170.03 513.016 173 526.451 173 539.886 173 550.778 170.03 550.778 166.365 550.778 164.651 548.394 163.089 544.481 161.911Z" stroke="#FFFFFF" fill="#E5F2F8"/><path d="M493.792 165.947C491.8 165.947 490.185 166.387 490.185 166.931 490.185 167.475 491.8 167.915 493.792 167.915 495.784 167.915 497.399 167.474 497.399 166.931 497.399 166.388 495.784 165.947 493.792 165.947Z" stroke="#FFFFFF" fill="#E5F2F8"/></g></svg>