<svg width="96" height="96" xmlns="http://www.w3.org/2000/svg" xmlns:xlink="http://www.w3.org/1999/xlink" xml:space="preserve" overflow="hidden"><defs><clipPath id="clip0"><rect x="300" y="437" width="96" height="96"/></clipPath></defs><g clip-path="url(#clip0)" transform="translate(-300 -437)"><path d="M371.668 481.912C369.04 483.564 366.935 485.929 365.598 488.731 365.176 489.624 366.278 490.273 367.077 489.616 368.896 488.112 371.016 487.015 373.294 486.4 375.094 485.918 376.075 483.988 375.238 482.576L375.198 482.509C374.405 481.372 372.84 481.094 371.703 481.887 371.691 481.895 371.68 481.904 371.668 481.912Z" stroke="#FFFFFF" fill="#02787B"/><path d="M328.75 485.622C330.493 486.014 332.112 486.831 333.462 488 333.775 488.272 334.249 488.24 334.521 487.927 334.7 487.722 334.754 487.436 334.662 487.18 333.803 484.952 332.259 483.054 330.252 481.76 329.315 481.17 328.076 481.451 327.486 482.389 327.474 482.407 327.463 482.425 327.452 482.444L327.418 482.503C326.822 483.491 327.139 484.776 328.128 485.372 328.32 485.488 328.53 485.573 328.75 485.622Z" stroke="#FFFFFF" fill="#02787B"/><path d="M381.941 499.572 381.926 499.506C381.677 498.427 380.6 497.753 379.52 498.002 379.499 498.007 379.478 498.012 379.457 498.018 377.156 498.656 375.116 500.008 373.632 501.879 373.38 502.209 373.443 502.681 373.773 502.933 373.993 503.101 374.287 503.135 374.539 503.021 376.176 502.305 377.965 502.006 379.746 502.15 380.897 502.241 381.903 501.382 381.994 500.231 382.011 500.01 381.993 499.787 381.941 499.572Z" stroke="#FFFFFF" fill="#02787B"/><path d="M317.391 502.748C319.716 502.34 322.1 502.436 324.385 503.028 325.385 503.284 326.11 502.228 325.35 501.6 322.953 499.627 320.044 498.376 316.963 497.993 315.602 497.732 314.286 498.625 314.026 499.987 314.023 500.001 314.021 500.016 314.018 500.03L314.01 500.107C313.85 501.741 315.558 503.073 317.391 502.748Z" stroke="#FFFFFF" fill="#02787B"/><path d="M351.654 491.523C352.185 491.474 352.603 491.048 352.641 490.516 352.881 487.033 354.207 474.288 361.056 463.704 362.821 460.922 362.23 457.259 359.678 455.174L359.678 455.174C356.903 452.864 352.78 453.242 350.47 456.017 349.759 456.872 349.277 457.895 349.071 458.988 346.846 471.526 349.671 486.734 350.479 490.656 350.592 491.203 351.098 491.576 351.654 491.523Z" stroke="#FFFFFF" fill="#02787B"/><path d="M369.481 507.911C370.881 507.273 371.708 506.529 371.708 505.731 371.708 504.231 368.851 502.915 364.547 502.159 366.153 501.305 367.866 500.669 369.64 500.266 371.782 499.779 373.124 497.647 372.636 495.505 372.543 495.093 372.384 494.699 372.167 494.338L372.101 494.227C371.035 492.408 368.697 491.797 366.878 492.863 366.843 492.884 366.808 492.905 366.773 492.927 363.478 495.048 360.832 498.037 359.127 501.565 358.373 501.525 357.596 501.503 356.807 501.494 362.788 485.242 370.662 475.6 375.634 471.551 378.029 469.661 378.437 466.187 376.547 463.792 374.657 461.398 371.183 460.989 368.788 462.879 368.506 463.102 368.247 463.352 368.013 463.625 359.369 473.344 355.372 489.325 353.523 501.546 352.261 501.604 351.048 501.7 349.909 501.836 349.909 501.827 349.909 501.818 349.909 501.809 347.214 486.438 341.55 465.464 329.883 453.209 327.311 450.403 322.951 450.213 320.144 452.785 317.338 455.357 317.148 459.717 319.72 462.524 320.021 462.853 320.354 463.151 320.713 463.416 327.343 468.45 338.149 480.886 346.438 502.409 345.65 502.58 344.925 502.771 344.273 502.98 342.139 498.606 338.846 494.901 334.753 492.269 332.528 490.866 329.587 491.532 328.183 493.757 328.155 493.802 328.127 493.848 328.1 493.894L328.018 494.032C326.605 496.381 327.363 499.431 329.712 500.845 330.164 501.117 330.657 501.315 331.172 501.432 334.018 502.075 336.732 503.198 339.2 504.754 337.987 504.654 336.706 504.602 335.378 504.602 327.941 504.602 321.912 506.246 321.912 508.275 321.912 509.497 324.112 510.575 327.481 511.245 327.259 511.577 327.137 511.966 327.128 512.365 327.124 516.03 338.016 519 351.451 519 364.886 519 375.778 516.03 375.778 512.365 375.778 510.651 373.394 509.089 369.481 507.911Z" stroke="#FFFFFF" fill="#02787B"/><path d="M318.792 511.947C316.8 511.947 315.185 512.387 315.185 512.931 315.185 513.475 316.8 513.915 318.792 513.915 320.784 513.915 322.399 513.474 322.399 512.931 322.399 512.388 320.784 511.947 318.792 511.947Z" stroke="#FFFFFF" fill="#02787B"/></g></svg>