<svg width="96" height="96" xmlns="http://www.w3.org/2000/svg" xmlns:xlink="http://www.w3.org/1999/xlink" xml:space="preserve" overflow="hidden"><defs><clipPath id="clip0"><rect x="188" y="0" width="96" height="96"/></clipPath></defs><g clip-path="url(#clip0)" transform="translate(-188 0)"><path d="M259.668 44.912C257.04 46.5641 254.935 48.9289 253.598 51.731 253.176 52.624 254.278 53.273 255.077 52.616 256.896 51.1117 259.016 50.015 261.294 49.4 263.094 48.918 264.075 46.988 263.238 45.576L263.198 45.509C262.405 44.3722 260.84 44.0937 259.703 44.8869 259.691 44.8952 259.68 44.9035 259.668 44.912Z" stroke="#FFFFFF" fill="#014B6F"/><path d="M216.75 48.622C218.493 49.0137 220.112 49.8307 221.462 51 221.775 51.2723 222.249 51.2395 222.521 50.9267 222.7 50.7216 222.754 50.436 222.662 50.18 221.803 47.9518 220.259 46.0539 218.252 44.76 217.314 44.1697 216.076 44.4511 215.486 45.3887 215.474 45.4069 215.463 45.4254 215.452 45.444L215.418 45.503C214.822 46.4913 215.139 47.7759 216.128 48.3722 216.32 48.4884 216.531 48.5728 216.75 48.622Z" stroke="#FFFFFF" fill="#014B6F"/><path d="M269.941 62.572 269.926 62.506C269.677 61.4265 268.6 60.7532 267.52 61.0023 267.499 61.0072 267.478 61.0124 267.457 61.018 265.156 61.656 263.116 63.0079 261.632 64.879 261.38 65.209 261.443 65.6809 261.773 65.9331 261.993 66.1011 262.287 66.1349 262.539 66.021 264.176 65.3048 265.965 65.0056 267.746 65.15 268.897 65.2408 269.903 64.3815 269.994 63.2308 270.011 63.0098 269.993 62.7874 269.941 62.572Z" stroke="#FFFFFF" fill="#014B6F"/><path d="M205.391 65.748C207.715 65.3401 210.1 65.4356 212.385 66.028 213.385 66.284 214.11 65.228 213.35 64.6 210.953 62.6272 208.044 61.3763 204.963 60.993 203.602 60.7324 202.286 61.6249 202.026 62.9865 202.023 63.0009 202.021 63.0155 202.018 63.03L202.01 63.107C201.85 64.741 203.558 66.073 205.391 65.748Z" stroke="#FFFFFF" fill="#014B6F"/><path d="M239.654 54.523C240.185 54.4744 240.603 54.0481 240.641 53.516 240.881 50.033 242.207 37.288 249.056 26.704 250.821 23.9216 250.23 20.259 247.678 18.174L247.678 18.174C244.903 15.8642 240.78 16.2417 238.47 19.0172 237.759 19.8723 237.277 20.8948 237.071 21.988 234.846 34.526 237.671 49.734 238.479 53.656 238.592 54.2026 239.098 54.5764 239.654 54.523Z" stroke="#FFFFFF" fill="#014B6F"/><path d="M257.481 70.911C258.881 70.273 259.708 69.529 259.708 68.731 259.708 67.231 256.851 65.915 252.547 65.159 254.153 64.3053 255.866 63.6687 257.64 63.266 259.782 62.7785 261.124 60.6468 260.636 58.5045 260.543 58.0933 260.384 57.6995 260.167 57.338L260.101 57.227C259.035 55.4081 256.697 54.7975 254.878 55.8631 254.843 55.8839 254.808 55.9052 254.773 55.927 251.478 58.0477 248.832 61.0368 247.127 64.565 246.373 64.525 245.596 64.503 244.807 64.494 250.788 48.242 258.662 38.6 263.634 34.551 266.029 32.6606 266.437 29.187 264.547 26.7924 262.657 24.3978 259.183 23.9891 256.788 25.8794 256.506 26.1021 256.247 26.3518 256.013 26.625 247.369 36.344 243.372 52.325 241.523 64.546 240.261 64.604 239.048 64.7 237.909 64.836 237.909 64.827 237.909 64.818 237.909 64.809 235.214 49.438 229.55 28.464 217.883 16.209 215.311 13.4026 210.951 13.2127 208.144 15.7849 205.338 18.3571 205.148 22.7174 207.72 25.5239 208.021 25.8527 208.354 26.1514 208.713 26.416 215.343 31.45 226.149 43.886 234.438 65.409 233.65 65.58 232.925 65.771 232.273 65.98 230.139 61.6062 226.846 57.9015 222.753 55.269 220.528 53.8657 217.587 54.5317 216.183 56.7566 216.155 56.802 216.127 56.8478 216.1 56.894L216.018 57.032C214.605 59.3811 215.363 62.4312 217.712 63.8447 218.164 64.1168 218.657 64.3151 219.172 64.432 222.018 65.0746 224.732 66.198 227.2 67.754 225.987 67.654 224.706 67.602 223.378 67.602 215.941 67.602 209.912 69.246 209.912 71.275 209.912 72.497 212.112 73.575 215.481 74.245 215.259 74.5772 215.137 74.9657 215.128 75.365 215.124 79.03 226.016 82 239.451 82 252.886 82 263.778 79.03 263.778 75.365 263.778 73.651 261.394 72.089 257.481 70.911Z" stroke="#FFFFFF" fill="#014B6F"/><path d="M206.792 74.947C204.8 74.947 203.185 75.387 203.185 75.931 203.185 76.475 204.8 76.915 206.792 76.915 208.784 76.915 210.399 76.474 210.399 75.931 210.399 75.388 208.784 74.947 206.792 74.947Z" stroke="#FFFFFF" fill="#014B6F"/></g></svg>