<svg width="96" height="96" xmlns="http://www.w3.org/2000/svg" xmlns:xlink="http://www.w3.org/1999/xlink" xml:space="preserve" overflow="hidden"><defs><clipPath id="clip0"><rect x="106" y="346" width="96" height="96"/></clipPath></defs><g clip-path="url(#clip0)" transform="translate(-106 -346)"><path d="M177.668 390.912C175.04 392.564 172.935 394.929 171.598 397.731 171.176 398.624 172.278 399.273 173.077 398.616 174.896 397.112 177.016 396.015 179.294 395.4 181.094 394.918 182.075 392.988 181.238 391.576L181.198 391.509C180.405 390.372 178.84 390.094 177.703 390.887 177.691 390.895 177.68 390.904 177.668 390.912Z" stroke="#FFFFFF" fill="#01167E"/><path d="M134.75 394.622C136.493 395.014 138.112 395.831 139.462 397 139.775 397.272 140.249 397.24 140.521 396.927 140.7 396.722 140.754 396.436 140.662 396.18 139.803 393.952 138.259 392.054 136.252 390.76 135.314 390.17 134.076 390.451 133.486 391.389 133.474 391.407 133.463 391.425 133.452 391.444L133.418 391.503C132.822 392.491 133.139 393.776 134.128 394.372 134.32 394.488 134.531 394.573 134.75 394.622Z" stroke="#FFFFFF" fill="#01167E"/><path d="M187.941 408.572 187.926 408.506C187.677 407.427 186.6 406.753 185.52 407.002 185.499 407.007 185.478 407.012 185.457 407.018 183.156 407.656 181.116 409.008 179.632 410.879 179.38 411.209 179.443 411.681 179.773 411.933 179.993 412.101 180.287 412.135 180.539 412.021 182.176 411.305 183.965 411.006 185.746 411.15 186.897 411.241 187.903 410.382 187.994 409.231 188.011 409.01 187.993 408.787 187.941 408.572Z" stroke="#FFFFFF" fill="#01167E"/><path d="M123.391 411.748C125.715 411.34 128.1 411.436 130.385 412.028 131.385 412.284 132.11 411.228 131.35 410.6 128.953 408.627 126.044 407.376 122.963 406.993 121.602 406.732 120.286 407.625 120.026 408.987 120.023 409.001 120.021 409.016 120.018 409.03L120.01 409.107C119.85 410.741 121.558 412.073 123.391 411.748Z" stroke="#FFFFFF" fill="#01167E"/><path d="M157.654 400.523C158.185 400.474 158.603 400.048 158.641 399.516 158.881 396.033 160.207 383.288 167.056 372.704 168.821 369.922 168.23 366.259 165.678 364.174L165.678 364.174C162.903 361.864 158.78 362.242 156.47 365.017 155.759 365.872 155.277 366.895 155.071 367.988 152.846 380.526 155.671 395.734 156.479 399.656 156.592 400.203 157.098 400.576 157.654 400.523Z" stroke="#FFFFFF" fill="#01167E"/><path d="M175.481 416.911C176.881 416.273 177.708 415.529 177.708 414.731 177.708 413.231 174.851 411.915 170.547 411.159 172.153 410.305 173.866 409.669 175.64 409.266 177.782 408.779 179.124 406.647 178.636 404.505 178.543 404.093 178.384 403.699 178.167 403.338L178.101 403.227C177.035 401.408 174.697 400.797 172.878 401.863 172.843 401.884 172.808 401.905 172.773 401.927 169.478 404.048 166.832 407.037 165.127 410.565 164.373 410.525 163.596 410.503 162.807 410.494 168.788 394.242 176.662 384.6 181.634 380.551 184.029 378.661 184.437 375.187 182.547 372.792 180.657 370.398 177.183 369.989 174.788 371.879 174.506 372.102 174.247 372.352 174.013 372.625 165.369 382.344 161.372 398.325 159.523 410.546 158.261 410.604 157.048 410.7 155.909 410.836 155.909 410.827 155.909 410.818 155.909 410.809 153.214 395.438 147.55 374.464 135.883 362.209 133.311 359.403 128.951 359.213 126.144 361.785 123.338 364.357 123.148 368.717 125.72 371.524 126.021 371.853 126.354 372.151 126.713 372.416 133.343 377.45 144.149 389.886 152.438 411.409 151.65 411.58 150.925 411.771 150.273 411.98 148.139 407.606 144.846 403.901 140.753 401.269 138.528 399.866 135.587 400.532 134.183 402.757 134.155 402.802 134.127 402.848 134.1 402.894L134.018 403.032C132.605 405.381 133.363 408.431 135.712 409.845 136.164 410.117 136.657 410.315 137.172 410.432 140.018 411.075 142.732 412.198 145.2 413.754 143.987 413.654 142.706 413.602 141.378 413.602 133.941 413.602 127.912 415.246 127.912 417.275 127.912 418.497 130.112 419.575 133.481 420.245 133.259 420.577 133.137 420.966 133.128 421.365 133.124 425.03 144.016 428 157.451 428 170.886 428 181.778 425.03 181.778 421.365 181.778 419.651 179.394 418.089 175.481 416.911Z" stroke="#FFFFFF" fill="#01167E"/><path d="M124.792 420.947C122.8 420.947 121.185 421.387 121.185 421.931 121.185 422.475 122.8 422.915 124.792 422.915 126.784 422.915 128.399 422.474 128.399 421.931 128.399 421.388 126.784 420.947 124.792 420.947Z" stroke="#FFFFFF" fill="#01167E"/></g></svg>