<svg width="96" height="96" xmlns="http://www.w3.org/2000/svg" xmlns:xlink="http://www.w3.org/1999/xlink" xml:space="preserve" overflow="hidden"><defs><clipPath id="clip0"><rect x="382" y="91" width="96" height="96"/></clipPath></defs><g clip-path="url(#clip0)" transform="translate(-382 -91)"><path d="M453.668 135.912C451.04 137.564 448.935 139.929 447.598 142.731 447.176 143.624 448.278 144.273 449.077 143.616 450.896 142.112 453.016 141.015 455.294 140.4 457.094 139.918 458.075 137.988 457.238 136.576L457.198 136.509C456.405 135.372 454.84 135.094 453.703 135.887 453.691 135.895 453.68 135.904 453.668 135.912Z" stroke="#FFFFFF" fill="#CCE5F1"/><path d="M410.75 139.622C412.493 140.014 414.112 140.831 415.462 142 415.775 142.272 416.249 142.24 416.521 141.927 416.7 141.722 416.754 141.436 416.662 141.18 415.803 138.952 414.259 137.054 412.252 135.76 411.315 135.17 410.076 135.451 409.486 136.389 409.474 136.407 409.463 136.425 409.452 136.444L409.418 136.503C408.822 137.491 409.139 138.776 410.128 139.372 410.32 139.488 410.53 139.573 410.75 139.622Z" stroke="#FFFFFF" fill="#CCE5F1"/><path d="M463.941 153.572 463.926 153.506C463.677 152.426 462.6 151.753 461.52 152.002 461.499 152.007 461.478 152.012 461.457 152.018 459.156 152.656 457.116 154.008 455.632 155.879 455.38 156.209 455.443 156.681 455.773 156.933 455.993 157.101 456.287 157.135 456.539 157.021 458.176 156.305 459.965 156.006 461.746 156.15 462.897 156.241 463.903 155.382 463.994 154.231 464.011 154.01 463.993 153.787 463.941 153.572Z" stroke="#FFFFFF" fill="#CCE5F1"/><path d="M399.391 156.748C401.716 156.34 404.1 156.436 406.385 157.028 407.385 157.284 408.11 156.228 407.35 155.6 404.953 153.627 402.044 152.376 398.963 151.993 397.602 151.732 396.286 152.625 396.026 153.986 396.023 154.001 396.021 154.016 396.018 154.03L396.01 154.107C395.85 155.741 397.558 157.073 399.391 156.748Z" stroke="#FFFFFF" fill="#CCE5F1"/><path d="M433.654 145.523C434.185 145.474 434.603 145.048 434.641 144.516 434.881 141.033 436.207 128.288 443.056 117.704 444.821 114.922 444.23 111.259 441.678 109.174L441.678 109.174C438.903 106.864 434.78 107.242 432.47 110.017 431.759 110.872 431.277 111.895 431.071 112.988 428.846 125.526 431.671 140.734 432.479 144.656 432.592 145.203 433.098 145.576 433.654 145.523Z" stroke="#FFFFFF" fill="#CCE5F1"/><path d="M451.481 161.911C452.881 161.273 453.708 160.529 453.708 159.731 453.708 158.231 450.851 156.915 446.547 156.159 448.153 155.305 449.866 154.669 451.64 154.266 453.782 153.779 455.124 151.647 454.636 149.505 454.543 149.093 454.384 148.699 454.167 148.338L454.101 148.227C453.035 146.408 450.697 145.798 448.878 146.863 448.843 146.884 448.808 146.905 448.773 146.927 445.478 149.048 442.832 152.037 441.127 155.565 440.373 155.525 439.596 155.503 438.807 155.494 444.788 139.242 452.662 129.6 457.634 125.551 460.029 123.661 460.437 120.187 458.547 117.792 456.657 115.398 453.183 114.989 450.788 116.879 450.506 117.102 450.247 117.352 450.013 117.625 441.369 127.344 437.372 143.325 435.523 155.546 434.261 155.604 433.048 155.7 431.909 155.836 431.909 155.827 431.909 155.818 431.909 155.809 429.214 140.438 423.55 119.464 411.883 107.209 409.311 104.403 404.951 104.213 402.144 106.785 399.338 109.357 399.148 113.717 401.72 116.524 402.021 116.853 402.354 117.151 402.713 117.416 409.343 122.45 420.149 134.886 428.438 156.409 427.65 156.58 426.925 156.771 426.273 156.98 424.139 152.606 420.846 148.902 416.753 146.269 414.528 144.866 411.587 145.532 410.183 147.757 410.155 147.802 410.127 147.848 410.1 147.894L410.018 148.032C408.605 150.381 409.363 153.431 411.712 154.845 412.164 155.117 412.657 155.315 413.172 155.432 416.018 156.075 418.732 157.198 421.2 158.754 419.987 158.654 418.706 158.602 417.378 158.602 409.941 158.602 403.912 160.246 403.912 162.275 403.912 163.497 406.112 164.575 409.481 165.245 409.259 165.577 409.137 165.966 409.128 166.365 409.124 170.03 420.016 173 433.451 173 446.886 173 457.778 170.03 457.778 166.365 457.778 164.651 455.394 163.089 451.481 161.911Z" stroke="#FFFFFF" fill="#CCE5F1"/><path d="M400.792 165.947C398.8 165.947 397.185 166.387 397.185 166.931 397.185 167.475 398.8 167.915 400.792 167.915 402.784 167.915 404.399 167.474 404.399 166.931 404.399 166.388 402.784 165.947 400.792 165.947Z" stroke="#FFFFFF" fill="#CCE5F1"/></g></svg>