<svg width="96" height="96" xmlns="http://www.w3.org/2000/svg" xmlns:xlink="http://www.w3.org/1999/xlink" xml:space="preserve" overflow="hidden"><defs><clipPath id="clip0"><rect x="112" y="437" width="96" height="96"/></clipPath></defs><g clip-path="url(#clip0)" transform="translate(-112 -437)"><path d="M183.668 481.912C181.04 483.564 178.935 485.929 177.598 488.731 177.176 489.624 178.278 490.273 179.077 489.616 180.896 488.112 183.016 487.015 185.294 486.4 187.094 485.918 188.075 483.988 187.238 482.576L187.198 482.509C186.405 481.372 184.84 481.094 183.703 481.887 183.691 481.895 183.68 481.904 183.668 481.912Z" stroke="#FFFFFF" fill="#014849"/><path d="M140.75 485.622C142.493 486.014 144.112 486.831 145.462 488 145.775 488.272 146.249 488.24 146.521 487.927 146.7 487.722 146.754 487.436 146.662 487.18 145.803 484.952 144.259 483.054 142.252 481.76 141.314 481.17 140.076 481.451 139.486 482.389 139.474 482.407 139.463 482.425 139.452 482.444L139.418 482.503C138.822 483.491 139.139 484.776 140.128 485.372 140.32 485.488 140.531 485.573 140.75 485.622Z" stroke="#FFFFFF" fill="#014849"/><path d="M193.941 499.572 193.926 499.506C193.677 498.427 192.6 497.753 191.52 498.002 191.499 498.007 191.478 498.012 191.457 498.018 189.156 498.656 187.116 500.008 185.632 501.879 185.38 502.209 185.443 502.681 185.773 502.933 185.993 503.101 186.287 503.135 186.539 503.021 188.176 502.305 189.965 502.006 191.746 502.15 192.897 502.241 193.903 501.382 193.994 500.231 194.011 500.01 193.993 499.787 193.941 499.572Z" stroke="#FFFFFF" fill="#014849"/><path d="M129.391 502.748C131.715 502.34 134.1 502.436 136.385 503.028 137.385 503.284 138.11 502.228 137.35 501.6 134.953 499.627 132.044 498.376 128.963 497.993 127.602 497.732 126.286 498.625 126.026 499.987 126.023 500.001 126.021 500.016 126.018 500.03L126.01 500.107C125.85 501.741 127.558 503.073 129.391 502.748Z" stroke="#FFFFFF" fill="#014849"/><path d="M163.654 491.523C164.185 491.474 164.603 491.048 164.641 490.516 164.881 487.033 166.207 474.288 173.056 463.704 174.821 460.922 174.23 457.259 171.678 455.174L171.678 455.174C168.903 452.864 164.78 453.242 162.47 456.017 161.759 456.872 161.277 457.895 161.071 458.988 158.846 471.526 161.671 486.734 162.479 490.656 162.592 491.203 163.098 491.576 163.654 491.523Z" stroke="#FFFFFF" fill="#014849"/><path d="M181.481 507.911C182.881 507.273 183.708 506.529 183.708 505.731 183.708 504.231 180.851 502.915 176.547 502.159 178.153 501.305 179.866 500.669 181.64 500.266 183.782 499.779 185.124 497.647 184.636 495.505 184.543 495.093 184.384 494.699 184.167 494.338L184.101 494.227C183.035 492.408 180.697 491.797 178.878 492.863 178.843 492.884 178.808 492.905 178.773 492.927 175.478 495.048 172.832 498.037 171.127 501.565 170.373 501.525 169.596 501.503 168.807 501.494 174.788 485.242 182.662 475.6 187.634 471.551 190.029 469.661 190.437 466.187 188.547 463.792 186.657 461.398 183.183 460.989 180.788 462.879 180.506 463.102 180.247 463.352 180.013 463.625 171.369 473.344 167.372 489.325 165.523 501.546 164.261 501.604 163.048 501.7 161.909 501.836 161.909 501.827 161.909 501.818 161.909 501.809 159.214 486.438 153.55 465.464 141.883 453.209 139.311 450.403 134.951 450.213 132.144 452.785 129.338 455.357 129.148 459.717 131.72 462.524 132.021 462.853 132.354 463.151 132.713 463.416 139.343 468.45 150.149 480.886 158.438 502.409 157.65 502.58 156.925 502.771 156.273 502.98 154.139 498.606 150.846 494.901 146.753 492.269 144.528 490.866 141.587 491.532 140.183 493.757 140.155 493.802 140.127 493.848 140.1 493.894L140.018 494.032C138.605 496.381 139.363 499.431 141.712 500.845 142.164 501.117 142.657 501.315 143.172 501.432 146.018 502.075 148.732 503.198 151.2 504.754 149.987 504.654 148.706 504.602 147.378 504.602 139.941 504.602 133.912 506.246 133.912 508.275 133.912 509.497 136.112 510.575 139.481 511.245 139.259 511.577 139.137 511.966 139.128 512.365 139.124 516.03 150.016 519 163.451 519 176.886 519 187.778 516.03 187.778 512.365 187.778 510.651 185.394 509.089 181.481 507.911Z" stroke="#FFFFFF" fill="#014849"/><path d="M130.792 511.947C128.8 511.947 127.185 512.387 127.185 512.931 127.185 513.475 128.8 513.915 130.792 513.915 132.784 513.915 134.399 513.474 134.399 512.931 134.399 512.388 132.784 511.947 130.792 511.947Z" stroke="#FFFFFF" fill="#014849"/></g></svg>