<svg width="96" height="96" xmlns="http://www.w3.org/2000/svg" xmlns:xlink="http://www.w3.org/1999/xlink" xml:space="preserve" overflow="hidden"><defs><clipPath id="clip0"><rect x="100" y="173" width="96" height="96"/></clipPath></defs><g clip-path="url(#clip0)" transform="translate(-100 -173)"><path d="M171.668 217.912C169.04 219.564 166.935 221.929 165.598 224.731 165.176 225.624 166.278 226.273 167.077 225.616 168.896 224.112 171.016 223.015 173.294 222.4 175.094 221.918 176.075 219.988 175.238 218.576L175.198 218.509C174.405 217.372 172.84 217.094 171.703 217.887 171.691 217.895 171.68 217.904 171.668 217.912Z" stroke="#FFFFFF" fill="#025B88"/><path d="M128.75 221.622C130.493 222.014 132.112 222.831 133.462 224 133.775 224.272 134.249 224.24 134.521 223.927 134.7 223.722 134.754 223.436 134.662 223.18 133.803 220.952 132.259 219.054 130.252 217.76 129.314 217.17 128.076 217.451 127.486 218.389 127.474 218.407 127.463 218.425 127.452 218.444L127.418 218.503C126.822 219.491 127.139 220.776 128.128 221.372 128.32 221.488 128.531 221.573 128.75 221.622Z" stroke="#FFFFFF" fill="#025B88"/><path d="M181.941 235.572 181.926 235.506C181.677 234.426 180.6 233.753 179.52 234.002 179.499 234.007 179.478 234.012 179.457 234.018 177.156 234.656 175.116 236.008 173.632 237.879 173.38 238.209 173.443 238.681 173.773 238.933 173.993 239.101 174.287 239.135 174.539 239.021 176.176 238.305 177.965 238.006 179.746 238.15 180.897 238.241 181.903 237.382 181.994 236.231 182.011 236.01 181.993 235.787 181.941 235.572Z" stroke="#FFFFFF" fill="#025B88"/><path d="M117.391 238.748C119.715 238.34 122.101 238.436 124.385 239.028 125.385 239.284 126.11 238.228 125.35 237.6 122.953 235.627 120.044 234.376 116.963 233.993 115.602 233.732 114.286 234.625 114.026 235.986 114.023 236.001 114.021 236.016 114.018 236.03L114.01 236.107C113.85 237.741 115.558 239.073 117.391 238.748Z" stroke="#FFFFFF" fill="#025B88"/><path d="M151.654 227.523C152.185 227.474 152.603 227.048 152.641 226.516 152.881 223.033 154.207 210.288 161.056 199.704 162.821 196.922 162.23 193.259 159.678 191.174L159.678 191.174C156.903 188.864 152.78 189.242 150.47 192.017 149.759 192.872 149.277 193.895 149.071 194.988 146.846 207.526 149.671 222.734 150.479 226.656 150.592 227.203 151.098 227.576 151.654 227.523Z" stroke="#FFFFFF" fill="#025B88"/><path d="M169.481 243.911C170.881 243.273 171.708 242.529 171.708 241.731 171.708 240.231 168.851 238.915 164.547 238.159 166.153 237.305 167.866 236.669 169.64 236.266 171.782 235.779 173.124 233.647 172.636 231.505 172.543 231.093 172.384 230.699 172.167 230.338L172.101 230.227C171.035 228.408 168.697 227.798 166.878 228.863 166.843 228.884 166.808 228.905 166.773 228.927 163.478 231.048 160.832 234.037 159.127 237.565 158.373 237.525 157.596 237.503 156.807 237.494 162.788 221.242 170.662 211.6 175.634 207.551 178.029 205.661 178.437 202.187 176.547 199.792 174.657 197.398 171.183 196.989 168.788 198.879 168.506 199.102 168.247 199.352 168.013 199.625 159.369 209.344 155.372 225.325 153.523 237.546 152.261 237.604 151.048 237.7 149.909 237.836 149.909 237.827 149.909 237.818 149.909 237.809 147.214 222.438 141.55 201.464 129.883 189.209 127.311 186.403 122.951 186.213 120.144 188.785 117.338 191.357 117.148 195.717 119.72 198.524 120.021 198.853 120.354 199.151 120.713 199.416 127.343 204.45 138.149 216.886 146.438 238.409 145.65 238.58 144.925 238.771 144.273 238.98 142.139 234.606 138.846 230.902 134.753 228.269 132.528 226.866 129.587 227.532 128.183 229.757 128.155 229.802 128.127 229.848 128.1 229.894L128.018 230.032C126.605 232.381 127.363 235.431 129.712 236.845 130.164 237.117 130.657 237.315 131.172 237.432 134.018 238.075 136.732 239.198 139.2 240.754 137.987 240.654 136.706 240.602 135.378 240.602 127.941 240.602 121.912 242.246 121.912 244.275 121.912 245.497 124.112 246.575 127.481 247.245 127.259 247.577 127.137 247.966 127.128 248.365 127.124 252.03 138.016 255 151.451 255 164.886 255 175.778 252.03 175.778 248.365 175.778 246.651 173.394 245.089 169.481 243.911Z" stroke="#FFFFFF" fill="#025B88"/><path d="M118.792 247.947C116.8 247.947 115.185 248.387 115.185 248.931 115.185 249.475 116.8 249.915 118.792 249.915 120.784 249.915 122.399 249.474 122.399 248.931 122.399 248.388 120.784 247.947 118.792 247.947Z" stroke="#FFFFFF" fill="#025B88"/></g></svg>