<svg width="96" height="96" xmlns="http://www.w3.org/2000/svg" xmlns:xlink="http://www.w3.org/1999/xlink" xml:space="preserve" overflow="hidden"><defs><clipPath id="clip0"><rect x="581" y="528" width="96" height="96"/></clipPath></defs><g clip-path="url(#clip0)" transform="translate(-581 -528)"><path d="M652.668 572.912C650.04 574.564 647.935 576.929 646.598 579.731 646.176 580.624 647.278 581.273 648.077 580.616 649.896 579.112 652.016 578.015 654.294 577.4 656.094 576.918 657.075 574.988 656.238 573.576L656.198 573.509C655.405 572.372 653.84 572.094 652.703 572.887 652.691 572.895 652.68 572.904 652.668 572.912Z" stroke="#FFFFFF" fill="#31CEFC"/><path d="M609.75 576.622C611.493 577.014 613.112 577.831 614.462 579 614.775 579.272 615.249 579.24 615.521 578.927 615.7 578.722 615.754 578.436 615.662 578.18 614.803 575.952 613.259 574.054 611.252 572.76 610.315 572.17 609.076 572.451 608.486 573.389 608.474 573.407 608.463 573.425 608.452 573.444L608.418 573.503C607.822 574.491 608.14 575.776 609.128 576.372 609.32 576.488 609.531 576.573 609.75 576.622Z" stroke="#FFFFFF" fill="#31CEFC"/><path d="M662.941 590.572 662.926 590.506C662.677 589.427 661.6 588.753 660.52 589.002 660.499 589.007 660.478 589.012 660.457 589.018 658.156 589.656 656.116 591.008 654.632 592.879 654.38 593.209 654.443 593.681 654.773 593.933 654.993 594.101 655.287 594.135 655.539 594.021 657.176 593.305 658.965 593.006 660.746 593.15 661.897 593.241 662.903 592.381 662.994 591.231 663.011 591.01 662.994 590.787 662.941 590.572Z" stroke="#FFFFFF" fill="#31CEFC"/><path d="M598.391 593.748C600.716 593.34 603.101 593.436 605.385 594.028 606.385 594.284 607.11 593.228 606.35 592.6 603.953 590.627 601.044 589.376 597.963 588.993 596.602 588.732 595.286 589.625 595.026 590.987 595.023 591.001 595.021 591.016 595.018 591.03L595.01 591.107C594.85 592.741 596.558 594.073 598.391 593.748Z" stroke="#FFFFFF" fill="#31CEFC"/><path d="M632.654 582.523C633.185 582.474 633.603 582.048 633.641 581.516 633.881 578.033 635.207 565.288 642.056 554.704 643.821 551.922 643.23 548.259 640.678 546.174L640.678 546.174C637.903 543.864 633.78 544.242 631.47 547.017 630.759 547.872 630.277 548.895 630.071 549.988 627.846 562.526 630.671 577.734 631.479 581.656 631.592 582.203 632.098 582.576 632.654 582.523Z" stroke="#FFFFFF" fill="#31CEFC"/><path d="M650.481 598.911C651.881 598.273 652.708 597.529 652.708 596.731 652.708 595.231 649.851 593.915 645.547 593.159 647.153 592.305 648.866 591.669 650.64 591.266 652.782 590.779 654.124 588.647 653.636 586.505 653.543 586.093 653.384 585.7 653.167 585.338L653.101 585.227C652.035 583.408 649.697 582.797 647.878 583.863 647.843 583.884 647.808 583.905 647.773 583.927 644.478 586.048 641.832 589.037 640.127 592.565 639.373 592.525 638.596 592.503 637.807 592.494 643.788 576.242 651.662 566.6 656.634 562.551 659.029 560.661 659.437 557.187 657.547 554.792 655.657 552.398 652.183 551.989 649.788 553.879 649.506 554.102 649.247 554.352 649.013 554.625 640.369 564.344 636.372 580.325 634.523 592.546 633.261 592.604 632.048 592.7 630.909 592.836 630.909 592.827 630.909 592.818 630.909 592.809 628.214 577.438 622.55 556.464 610.883 544.209 608.311 541.403 603.951 541.213 601.144 543.785 598.338 546.357 598.148 550.717 600.72 553.524 601.021 553.853 601.354 554.151 601.713 554.416 608.343 559.45 619.149 571.886 627.438 593.409 626.65 593.58 625.925 593.771 625.273 593.98 623.139 589.606 619.846 585.901 615.753 583.269 613.528 581.866 610.587 582.532 609.183 584.757 609.155 584.802 609.127 584.848 609.1 584.894L609.018 585.032C607.605 587.381 608.363 590.431 610.712 591.845 611.164 592.117 611.657 592.315 612.172 592.432 615.018 593.075 617.732 594.198 620.2 595.754 618.987 595.654 617.706 595.602 616.378 595.602 608.941 595.602 602.912 597.246 602.912 599.275 602.912 600.497 605.112 601.575 608.481 602.245 608.259 602.577 608.137 602.966 608.128 603.365 608.124 607.03 619.016 610 632.451 610 645.886 610 656.778 607.03 656.778 603.365 656.778 601.651 654.394 600.089 650.481 598.911Z" stroke="#FFFFFF" fill="#31CEFC"/><path d="M599.792 602.947C597.8 602.947 596.185 603.387 596.185 603.931 596.185 604.475 597.8 604.915 599.792 604.915 601.784 604.915 603.399 604.474 603.399 603.931 603.399 603.388 601.784 602.947 599.792 602.947Z" stroke="#FFFFFF" fill="#31CEFC"/></g></svg>