<svg width="96" height="96" xmlns="http://www.w3.org/2000/svg" xmlns:xlink="http://www.w3.org/1999/xlink" xml:space="preserve" overflow="hidden"><defs><clipPath id="clip0"><rect x="863" y="437" width="96" height="96"/></clipPath></defs><g clip-path="url(#clip0)" transform="translate(-863 -437)"><path d="M934.668 481.912C932.04 483.564 929.935 485.929 928.598 488.731 928.176 489.624 929.278 490.273 930.077 489.616 931.896 488.112 934.016 487.015 936.294 486.4 938.094 485.918 939.075 483.988 938.238 482.576L938.198 482.509C937.405 481.372 935.84 481.094 934.703 481.887 934.691 481.895 934.68 481.904 934.668 481.912Z" stroke="#FFFFFF" fill="#4AF8FC"/><path d="M891.75 485.622C893.493 486.014 895.112 486.831 896.462 488 896.775 488.272 897.249 488.24 897.521 487.927 897.7 487.722 897.754 487.436 897.662 487.18 896.803 484.952 895.259 483.054 893.252 481.76 892.315 481.17 891.076 481.451 890.486 482.389 890.474 482.407 890.463 482.425 890.452 482.444L890.418 482.503C889.822 483.491 890.14 484.776 891.128 485.372 891.32 485.488 891.531 485.573 891.75 485.622Z" stroke="#FFFFFF" fill="#4AF8FC"/><path d="M944.941 499.572 944.926 499.506C944.677 498.427 943.6 497.753 942.52 498.002 942.499 498.007 942.478 498.012 942.457 498.018 940.156 498.656 938.116 500.008 936.632 501.879 936.38 502.209 936.443 502.681 936.773 502.933 936.993 503.101 937.287 503.135 937.539 503.021 939.176 502.305 940.965 502.006 942.746 502.15 943.897 502.241 944.903 501.382 944.994 500.231 945.011 500.01 944.994 499.787 944.941 499.572Z" stroke="#FFFFFF" fill="#4AF8FC"/><path d="M880.391 502.748C882.716 502.34 885.101 502.436 887.385 503.028 888.385 503.284 889.11 502.228 888.35 501.6 885.953 499.627 883.044 498.376 879.963 497.993 878.602 497.732 877.286 498.625 877.026 499.987 877.023 500.001 877.021 500.016 877.018 500.03L877.01 500.107C876.85 501.741 878.558 503.073 880.391 502.748Z" stroke="#FFFFFF" fill="#4AF8FC"/><path d="M914.654 491.523C915.185 491.474 915.603 491.048 915.641 490.516 915.881 487.033 917.207 474.288 924.056 463.704 925.821 460.922 925.23 457.259 922.678 455.174L922.678 455.174C919.903 452.864 915.78 453.242 913.47 456.017 912.759 456.872 912.277 457.895 912.071 458.988 909.846 471.526 912.671 486.734 913.479 490.656 913.592 491.203 914.098 491.576 914.654 491.523Z" stroke="#FFFFFF" fill="#4AF8FC"/><path d="M932.481 507.911C933.881 507.273 934.708 506.529 934.708 505.731 934.708 504.231 931.851 502.915 927.547 502.159 929.153 501.305 930.866 500.669 932.64 500.266 934.782 499.779 936.124 497.647 935.636 495.505 935.543 495.093 935.384 494.699 935.167 494.338L935.101 494.227C934.035 492.408 931.697 491.797 929.878 492.863 929.843 492.884 929.808 492.905 929.773 492.927 926.478 495.048 923.832 498.037 922.127 501.565 921.373 501.525 920.596 501.503 919.807 501.494 925.788 485.242 933.662 475.6 938.634 471.551 941.029 469.661 941.437 466.187 939.547 463.792 937.657 461.398 934.183 460.989 931.788 462.879 931.506 463.102 931.247 463.352 931.013 463.625 922.369 473.344 918.372 489.325 916.523 501.546 915.261 501.604 914.048 501.7 912.909 501.836 912.909 501.827 912.909 501.818 912.909 501.809 910.214 486.438 904.55 465.464 892.883 453.209 890.311 450.403 885.951 450.213 883.144 452.785 880.338 455.357 880.148 459.717 882.72 462.524 883.021 462.853 883.354 463.151 883.713 463.416 890.343 468.45 901.149 480.886 909.438 502.409 908.65 502.58 907.925 502.771 907.273 502.98 905.139 498.606 901.846 494.901 897.753 492.269 895.528 490.866 892.587 491.532 891.183 493.757 891.155 493.802 891.127 493.848 891.1 493.894L891.018 494.032C889.605 496.381 890.363 499.431 892.712 500.845 893.164 501.117 893.657 501.315 894.172 501.432 897.018 502.075 899.732 503.198 902.2 504.754 900.987 504.654 899.706 504.602 898.378 504.602 890.941 504.602 884.912 506.246 884.912 508.275 884.912 509.497 887.112 510.575 890.481 511.245 890.259 511.577 890.137 511.966 890.128 512.365 890.124 516.03 901.016 519 914.451 519 927.886 519 938.778 516.03 938.778 512.365 938.778 510.651 936.394 509.089 932.481 507.911Z" stroke="#FFFFFF" fill="#4AF8FC"/><path d="M881.792 511.947C879.8 511.947 878.185 512.387 878.185 512.931 878.185 513.475 879.8 513.915 881.792 513.915 883.784 513.915 885.399 513.474 885.399 512.931 885.399 512.388 883.784 511.947 881.792 511.947Z" stroke="#FFFFFF" fill="#4AF8FC"/></g></svg>