<svg width="96" height="96" xmlns="http://www.w3.org/2000/svg" xmlns:xlink="http://www.w3.org/1999/xlink" xml:space="preserve" overflow="hidden"><defs><clipPath id="clip0"><rect x="6" y="173" width="96" height="96"/></clipPath></defs><g clip-path="url(#clip0)" transform="translate(-6 -173)"><path d="M77.668 217.912C75.0396 219.564 72.9346 221.929 71.598 224.731 71.176 225.624 72.278 226.273 73.077 225.616 74.8955 224.112 77.0155 223.015 79.294 222.4 81.094 221.918 82.075 219.988 81.238 218.576L81.198 218.509C80.4047 217.372 78.8401 217.094 77.7033 217.887 77.6914 217.895 77.6797 217.904 77.668 217.912Z" stroke="#FFFFFF" fill="#024A6F"/><path d="M34.75 221.622C36.4928 222.014 38.1116 222.831 39.462 224 39.7748 224.272 40.2492 224.24 40.5215 223.927 40.7001 223.722 40.7538 223.436 40.662 223.18 39.8033 220.952 38.259 219.054 36.252 217.76 35.3145 217.17 34.0759 217.451 33.4856 218.389 33.4741 218.407 33.4629 218.425 33.452 218.444L33.418 218.503C32.8217 219.491 33.1395 220.776 34.1278 221.372 34.3204 221.488 34.5305 221.573 34.75 221.622Z" stroke="#FFFFFF" fill="#024A6F"/><path d="M87.941 235.572 87.926 235.506C87.677 234.426 86.5999 233.753 85.5204 234.002 85.4992 234.007 85.4781 234.012 85.457 234.018 83.1556 234.656 81.116 236.008 79.632 237.879 79.3798 238.209 79.4428 238.681 79.7728 238.933 79.9926 239.101 80.2869 239.135 80.539 239.021 82.176 238.305 83.965 238.006 85.746 238.15 86.8967 238.241 87.9031 237.382 87.9939 236.231 88.0113 236.01 87.9935 235.787 87.941 235.572Z" stroke="#FFFFFF" fill="#024A6F"/><path d="M23.391 238.748C25.7155 238.34 28.1005 238.436 30.385 239.028 31.385 239.284 32.11 238.228 31.35 237.6 28.9526 235.627 26.044 234.376 22.963 233.993 21.6015 233.732 20.2865 234.625 20.0259 235.986 20.0232 236.001 20.0205 236.016 20.018 236.03L20.01 236.107C19.85 237.741 21.558 239.073 23.391 238.748Z" stroke="#FFFFFF" fill="#024A6F"/><path d="M57.654 227.523C58.1852 227.474 58.6031 227.048 58.641 226.516 58.881 223.033 60.207 210.288 67.056 199.704 68.8213 196.922 68.2296 193.259 65.678 191.174L65.678 191.174C62.9026 188.864 58.7802 189.242 56.4704 192.017 55.7588 192.872 55.2771 193.895 55.071 194.988 52.846 207.526 55.671 222.734 56.479 226.656 56.5918 227.203 57.0984 227.576 57.654 227.523Z" stroke="#FFFFFF" fill="#024A6F"/><path d="M75.481 243.911C76.881 243.273 77.708 242.529 77.708 241.731 77.708 240.231 74.851 238.915 70.547 238.159 72.1534 237.305 73.866 236.669 75.64 236.266 77.7822 235.779 79.1237 233.647 78.6362 231.505 78.5427 231.093 78.3843 230.699 78.167 230.338L78.101 230.227C77.0353 228.408 74.697 227.798 72.8781 228.863 72.8427 228.884 72.8077 228.905 72.773 228.927 69.4779 231.048 66.832 234.037 65.127 237.565 64.373 237.525 63.596 237.503 62.807 237.494 68.788 221.242 76.662 211.6 81.634 207.551 84.0286 205.661 84.4374 202.187 82.547 199.792 80.6567 197.398 77.183 196.989 74.7884 198.879 74.5063 199.102 74.2466 199.352 74.013 199.625 65.369 209.344 61.372 225.325 59.523 237.546 58.261 237.604 57.048 237.7 55.909 237.836 55.909 237.827 55.909 237.818 55.909 237.809 53.214 222.438 47.55 201.464 35.883 189.209 33.3108 186.403 28.9505 186.213 26.1441 188.785 23.3376 191.357 23.1477 195.717 25.72 198.524 26.0213 198.853 26.3539 199.151 26.713 199.416 33.343 204.45 44.149 216.886 52.438 238.409 51.65 238.58 50.925 238.771 50.273 238.98 48.139 234.606 44.8462 230.902 40.753 228.269 38.5281 226.866 35.5868 227.532 34.1834 229.757 34.1548 229.802 34.127 229.848 34.1 229.894L34.018 230.032C32.6046 232.381 33.363 235.431 35.7121 236.845 36.1644 237.117 36.6572 237.315 37.172 237.432 40.0175 238.075 42.7325 239.198 45.2 240.754 43.987 240.654 42.706 240.602 41.378 240.602 33.941 240.602 27.912 242.246 27.912 244.275 27.912 245.497 30.112 246.575 33.481 247.245 33.2592 247.577 33.1368 247.966 33.128 248.365 33.124 252.03 44.016 255 57.451 255 70.886 255 81.778 252.03 81.778 248.365 81.778 246.651 79.394 245.089 75.481 243.911Z" stroke="#FFFFFF" fill="#024A6F"/><path d="M24.792 247.947C22.8 247.947 21.185 248.387 21.185 248.931 21.185 249.475 22.8 249.915 24.792 249.915 26.784 249.915 28.399 249.474 28.399 248.931 28.399 248.388 26.784 247.947 24.792 247.947Z" stroke="#FFFFFF" fill="#024A6F"/></g></svg>