<svg width="96" height="96" xmlns="http://www.w3.org/2000/svg" xmlns:xlink="http://www.w3.org/1999/xlink" xml:space="preserve" overflow="hidden"><defs><clipPath id="clip0"><rect x="200" y="264" width="96" height="96"/></clipPath></defs><g clip-path="url(#clip0)" transform="translate(-200 -264)"><path d="M271.668 308.912C269.04 310.564 266.935 312.929 265.598 315.731 265.176 316.624 266.278 317.273 267.077 316.616 268.896 315.112 271.016 314.015 273.294 313.4 275.094 312.918 276.075 310.988 275.238 309.576L275.198 309.509C274.405 308.372 272.84 308.094 271.703 308.887 271.691 308.895 271.68 308.904 271.668 308.912Z" stroke="#FFFFFF" fill="#9EDDFD"/><path d="M228.75 312.622C230.493 313.014 232.112 313.831 233.462 315 233.775 315.272 234.249 315.24 234.521 314.927 234.7 314.722 234.754 314.436 234.662 314.18 233.803 311.952 232.259 310.054 230.252 308.76 229.314 308.17 228.076 308.451 227.486 309.389 227.474 309.407 227.463 309.425 227.452 309.444L227.418 309.503C226.822 310.491 227.139 311.776 228.128 312.372 228.32 312.488 228.531 312.573 228.75 312.622Z" stroke="#FFFFFF" fill="#9EDDFD"/><path d="M281.941 326.572 281.926 326.506C281.677 325.427 280.6 324.753 279.52 325.002 279.499 325.007 279.478 325.012 279.457 325.018 277.156 325.656 275.116 327.008 273.632 328.879 273.38 329.209 273.443 329.681 273.773 329.933 273.993 330.101 274.287 330.135 274.539 330.021 276.176 329.305 277.965 329.006 279.746 329.15 280.897 329.241 281.903 328.382 281.994 327.231 282.011 327.01 281.993 326.787 281.941 326.572Z" stroke="#FFFFFF" fill="#9EDDFD"/><path d="M217.391 329.748C219.715 329.34 222.1 329.436 224.385 330.028 225.385 330.284 226.11 329.228 225.35 328.6 222.953 326.627 220.044 325.376 216.963 324.993 215.602 324.732 214.286 325.625 214.026 326.987 214.023 327.001 214.021 327.016 214.018 327.03L214.01 327.107C213.85 328.741 215.558 330.073 217.391 329.748Z" stroke="#FFFFFF" fill="#9EDDFD"/><path d="M251.654 318.523C252.185 318.474 252.603 318.048 252.641 317.516 252.881 314.033 254.207 301.288 261.056 290.704 262.821 287.922 262.23 284.259 259.678 282.174L259.678 282.174C256.903 279.864 252.78 280.242 250.47 283.017 249.759 283.872 249.277 284.895 249.071 285.988 246.846 298.526 249.671 313.734 250.479 317.656 250.592 318.203 251.098 318.576 251.654 318.523Z" stroke="#FFFFFF" fill="#9EDDFD"/><path d="M269.481 334.911C270.881 334.273 271.708 333.529 271.708 332.731 271.708 331.231 268.851 329.915 264.547 329.159 266.153 328.305 267.866 327.669 269.64 327.266 271.782 326.779 273.124 324.647 272.636 322.505 272.543 322.093 272.384 321.699 272.167 321.338L272.101 321.227C271.035 319.408 268.697 318.797 266.878 319.863 266.843 319.884 266.808 319.905 266.773 319.927 263.478 322.048 260.832 325.037 259.127 328.565 258.373 328.525 257.596 328.503 256.807 328.494 262.788 312.242 270.662 302.6 275.634 298.551 278.029 296.661 278.437 293.187 276.547 290.792 274.657 288.398 271.183 287.989 268.788 289.879 268.506 290.102 268.247 290.352 268.013 290.625 259.369 300.344 255.372 316.325 253.523 328.546 252.261 328.604 251.048 328.7 249.909 328.836 249.909 328.827 249.909 328.818 249.909 328.809 247.214 313.438 241.55 292.464 229.883 280.209 227.311 277.403 222.951 277.213 220.144 279.785 217.338 282.357 217.148 286.717 219.72 289.524 220.021 289.853 220.354 290.151 220.713 290.416 227.343 295.45 238.149 307.886 246.438 329.409 245.65 329.58 244.925 329.771 244.273 329.98 242.139 325.606 238.846 321.901 234.753 319.269 232.528 317.866 229.587 318.532 228.183 320.757 228.155 320.802 228.127 320.848 228.1 320.894L228.018 321.032C226.605 323.381 227.363 326.431 229.712 327.845 230.164 328.117 230.657 328.315 231.172 328.432 234.018 329.075 236.732 330.198 239.2 331.754 237.987 331.654 236.706 331.602 235.378 331.602 227.941 331.602 221.912 333.246 221.912 335.275 221.912 336.497 224.112 337.575 227.481 338.245 227.259 338.577 227.137 338.966 227.128 339.365 227.124 343.03 238.016 346 251.451 346 264.886 346 275.778 343.03 275.778 339.365 275.778 337.651 273.394 336.089 269.481 334.911Z" stroke="#FFFFFF" fill="#9EDDFD"/><path d="M218.792 338.947C216.8 338.947 215.185 339.387 215.185 339.931 215.185 340.475 216.8 340.915 218.792 340.915 220.784 340.915 222.399 340.474 222.399 339.931 222.399 339.388 220.784 338.947 218.792 338.947Z" stroke="#FFFFFF" fill="#9EDDFD"/></g></svg>