<svg width="96" height="96" xmlns="http://www.w3.org/2000/svg" xmlns:xlink="http://www.w3.org/1999/xlink" xml:space="preserve" overflow="hidden"><defs><clipPath id="clip0"><rect x="757" y="173" width="96" height="96"/></clipPath></defs><g clip-path="url(#clip0)" transform="translate(-757 -173)"><path d="M828.668 217.912C826.04 219.564 823.935 221.929 822.598 224.731 822.176 225.624 823.278 226.273 824.077 225.616 825.896 224.112 828.016 223.015 830.294 222.4 832.094 221.918 833.075 219.988 832.238 218.576L832.198 218.509C831.405 217.372 829.84 217.094 828.703 217.887 828.691 217.895 828.68 217.904 828.668 217.912Z" stroke="#FFFFFF" fill="#56C4FC"/><path d="M785.75 221.622C787.493 222.014 789.112 222.831 790.462 224 790.775 224.272 791.249 224.24 791.521 223.927 791.7 223.722 791.754 223.436 791.662 223.18 790.803 220.952 789.259 219.054 787.252 217.76 786.315 217.17 785.076 217.451 784.486 218.389 784.474 218.407 784.463 218.425 784.452 218.444L784.418 218.503C783.822 219.491 784.14 220.776 785.128 221.372 785.32 221.488 785.531 221.573 785.75 221.622Z" stroke="#FFFFFF" fill="#56C4FC"/><path d="M838.941 235.572 838.926 235.506C838.677 234.426 837.6 233.753 836.52 234.002 836.499 234.007 836.478 234.012 836.457 234.018 834.156 234.656 832.116 236.008 830.632 237.879 830.38 238.209 830.443 238.681 830.773 238.933 830.993 239.101 831.287 239.135 831.539 239.021 833.176 238.305 834.965 238.006 836.746 238.15 837.897 238.241 838.903 237.382 838.994 236.231 839.011 236.01 838.994 235.787 838.941 235.572Z" stroke="#FFFFFF" fill="#56C4FC"/><path d="M774.391 238.748C776.716 238.34 779.101 238.436 781.385 239.028 782.385 239.284 783.11 238.228 782.35 237.6 779.953 235.627 777.044 234.376 773.963 233.993 772.602 233.732 771.286 234.625 771.026 235.986 771.023 236.001 771.021 236.016 771.018 236.03L771.01 236.107C770.85 237.741 772.558 239.073 774.391 238.748Z" stroke="#FFFFFF" fill="#56C4FC"/><path d="M808.654 227.523C809.185 227.474 809.603 227.048 809.641 226.516 809.881 223.033 811.207 210.288 818.056 199.704 819.821 196.922 819.23 193.259 816.678 191.174L816.678 191.174C813.903 188.864 809.78 189.242 807.47 192.017 806.759 192.872 806.277 193.895 806.071 194.988 803.846 207.526 806.671 222.734 807.479 226.656 807.592 227.203 808.098 227.576 808.654 227.523Z" stroke="#FFFFFF" fill="#56C4FC"/><path d="M826.481 243.911C827.881 243.273 828.708 242.529 828.708 241.731 828.708 240.231 825.851 238.915 821.547 238.159 823.153 237.305 824.866 236.669 826.64 236.266 828.782 235.779 830.124 233.647 829.636 231.505 829.543 231.093 829.384 230.699 829.167 230.338L829.101 230.227C828.035 228.408 825.697 227.798 823.878 228.863 823.843 228.884 823.808 228.905 823.773 228.927 820.478 231.048 817.832 234.037 816.127 237.565 815.373 237.525 814.596 237.503 813.807 237.494 819.788 221.242 827.662 211.6 832.634 207.551 835.029 205.661 835.437 202.187 833.547 199.792 831.657 197.398 828.183 196.989 825.788 198.879 825.506 199.102 825.247 199.352 825.013 199.625 816.369 209.344 812.372 225.325 810.523 237.546 809.261 237.604 808.048 237.7 806.909 237.836 806.909 237.827 806.909 237.818 806.909 237.809 804.214 222.438 798.55 201.464 786.883 189.209 784.311 186.403 779.951 186.213 777.144 188.785 774.338 191.357 774.148 195.717 776.72 198.524 777.021 198.853 777.354 199.151 777.713 199.416 784.343 204.45 795.149 216.886 803.438 238.409 802.65 238.58 801.925 238.771 801.273 238.98 799.139 234.606 795.846 230.902 791.753 228.269 789.528 226.866 786.587 227.532 785.183 229.757 785.155 229.802 785.127 229.848 785.1 229.894L785.018 230.032C783.605 232.381 784.363 235.431 786.712 236.845 787.164 237.117 787.657 237.315 788.172 237.432 791.018 238.075 793.732 239.198 796.2 240.754 794.987 240.654 793.706 240.602 792.378 240.602 784.941 240.602 778.912 242.246 778.912 244.275 778.912 245.497 781.112 246.575 784.481 247.245 784.259 247.577 784.137 247.966 784.128 248.365 784.124 252.03 795.016 255 808.451 255 821.886 255 832.778 252.03 832.778 248.365 832.778 246.651 830.394 245.089 826.481 243.911Z" stroke="#FFFFFF" fill="#56C4FC"/><path d="M775.792 247.947C773.8 247.947 772.185 248.387 772.185 248.931 772.185 249.475 773.8 249.915 775.792 249.915 777.784 249.915 779.399 249.474 779.399 248.931 779.399 248.388 777.784 247.947 775.792 247.947Z" stroke="#FFFFFF" fill="#56C4FC"/></g></svg>