<svg width="96" height="96" xmlns="http://www.w3.org/2000/svg" xmlns:xlink="http://www.w3.org/1999/xlink" xml:space="preserve" overflow="hidden"><defs><clipPath id="clip0"><rect x="751" y="0" width="96" height="96"/></clipPath></defs><g clip-path="url(#clip0)" transform="translate(-751 0)"><path d="M822.668 44.912C820.04 46.5641 817.935 48.9289 816.598 51.731 816.176 52.624 817.278 53.273 818.077 52.616 819.896 51.1117 822.016 50.015 824.294 49.4 826.094 48.918 827.075 46.988 826.238 45.576L826.198 45.509C825.405 44.3722 823.84 44.0937 822.703 44.8869 822.691 44.8952 822.68 44.9035 822.668 44.912Z" stroke="#FFFFFF" fill="#3597C7"/><path d="M779.75 48.622C781.493 49.0137 783.112 49.8307 784.462 51 784.775 51.2723 785.249 51.2395 785.521 50.9267 785.7 50.7216 785.754 50.436 785.662 50.18 784.803 47.9518 783.259 46.0539 781.252 44.76 780.315 44.1697 779.076 44.4511 778.486 45.3887 778.474 45.4069 778.463 45.4254 778.452 45.444L778.418 45.503C777.822 46.4913 778.14 47.7759 779.128 48.3722 779.32 48.4884 779.531 48.5728 779.75 48.622Z" stroke="#FFFFFF" fill="#3597C7"/><path d="M832.941 62.572 832.926 62.506C832.677 61.4265 831.6 60.7532 830.52 61.0023 830.499 61.0072 830.478 61.0124 830.457 61.018 828.156 61.656 826.116 63.0079 824.632 64.879 824.38 65.209 824.443 65.6809 824.773 65.9331 824.993 66.1011 825.287 66.1349 825.539 66.021 827.176 65.3048 828.965 65.0056 830.746 65.15 831.897 65.2408 832.903 64.3815 832.994 63.2308 833.011 63.0098 832.994 62.7874 832.941 62.572Z" stroke="#FFFFFF" fill="#3597C7"/><path d="M768.391 65.748C770.716 65.3401 773.101 65.4356 775.385 66.028 776.385 66.284 777.11 65.228 776.35 64.6 773.953 62.6272 771.044 61.3763 767.963 60.993 766.602 60.7324 765.286 61.6249 765.026 62.9865 765.023 63.0009 765.021 63.0155 765.018 63.03L765.01 63.107C764.85 64.741 766.558 66.073 768.391 65.748Z" stroke="#FFFFFF" fill="#3597C7"/><path d="M802.654 54.523C803.185 54.4744 803.603 54.0481 803.641 53.516 803.881 50.033 805.207 37.288 812.056 26.704 813.821 23.9216 813.23 20.259 810.678 18.174L810.678 18.174C807.903 15.8642 803.78 16.2417 801.47 19.0172 800.759 19.8723 800.277 20.8948 800.071 21.988 797.846 34.526 800.671 49.734 801.479 53.656 801.592 54.2026 802.098 54.5764 802.654 54.523Z" stroke="#FFFFFF" fill="#3597C7"/><path d="M820.481 70.911C821.881 70.273 822.708 69.529 822.708 68.731 822.708 67.231 819.851 65.915 815.547 65.159 817.153 64.3053 818.866 63.6687 820.64 63.266 822.782 62.7785 824.124 60.6468 823.636 58.5045 823.543 58.0933 823.384 57.6995 823.167 57.338L823.101 57.227C822.035 55.4081 819.697 54.7975 817.878 55.8631 817.843 55.8839 817.808 55.9052 817.773 55.927 814.478 58.0477 811.832 61.0368 810.127 64.565 809.373 64.525 808.596 64.503 807.807 64.494 813.788 48.242 821.662 38.6 826.634 34.551 829.029 32.6606 829.437 29.187 827.547 26.7924 825.657 24.3978 822.183 23.9891 819.788 25.8794 819.506 26.1021 819.247 26.3518 819.013 26.625 810.369 36.344 806.372 52.325 804.523 64.546 803.261 64.604 802.048 64.7 800.909 64.836 800.909 64.827 800.909 64.818 800.909 64.809 798.214 49.438 792.55 28.464 780.883 16.209 778.311 13.4026 773.951 13.2127 771.144 15.7849 768.338 18.3571 768.148 22.7174 770.72 25.5239 771.021 25.8527 771.354 26.1514 771.713 26.416 778.343 31.45 789.149 43.886 797.438 65.409 796.65 65.58 795.925 65.771 795.273 65.98 793.139 61.6062 789.846 57.9015 785.753 55.269 783.528 53.8657 780.587 54.5317 779.183 56.7566 779.155 56.802 779.127 56.8478 779.1 56.894L779.018 57.032C777.605 59.3811 778.363 62.4312 780.712 63.8447 781.164 64.1168 781.657 64.3151 782.172 64.432 785.018 65.0746 787.732 66.198 790.2 67.754 788.987 67.654 787.706 67.602 786.378 67.602 778.941 67.602 772.912 69.246 772.912 71.275 772.912 72.497 775.112 73.575 778.481 74.245 778.259 74.5772 778.137 74.9657 778.128 75.365 778.124 79.03 789.016 82 802.451 82 815.886 82 826.778 79.03 826.778 75.365 826.778 73.651 824.394 72.089 820.481 70.911Z" stroke="#FFFFFF" fill="#3597C7"/><path d="M769.792 74.947C767.8 74.947 766.185 75.387 766.185 75.931 766.185 76.475 767.8 76.915 769.792 76.915 771.784 76.915 773.399 76.474 773.399 75.931 773.399 75.388 771.784 74.947 769.792 74.947Z" stroke="#FFFFFF" fill="#3597C7"/></g></svg>