<svg width="96" height="96" xmlns="http://www.w3.org/2000/svg" xmlns:xlink="http://www.w3.org/1999/xlink" xml:space="preserve" overflow="hidden"><defs><clipPath id="clip0"><rect x="575" y="346" width="96" height="96"/></clipPath></defs><g clip-path="url(#clip0)" transform="translate(-575 -346)"><path d="M646.668 390.912C644.04 392.564 641.935 394.929 640.598 397.731 640.176 398.624 641.278 399.273 642.077 398.616 643.896 397.112 646.016 396.015 648.294 395.4 650.094 394.918 651.075 392.988 650.238 391.576L650.198 391.509C649.405 390.372 647.84 390.094 646.703 390.887 646.691 390.895 646.68 390.904 646.668 390.912Z" stroke="#FFFFFF" fill="#4E67E0"/><path d="M603.75 394.622C605.493 395.014 607.112 395.831 608.462 397 608.775 397.272 609.249 397.24 609.521 396.927 609.7 396.722 609.754 396.436 609.662 396.18 608.803 393.952 607.259 392.054 605.252 390.76 604.315 390.17 603.076 390.451 602.486 391.389 602.474 391.407 602.463 391.425 602.452 391.444L602.418 391.503C601.822 392.491 602.14 393.776 603.128 394.372 603.32 394.488 603.531 394.573 603.75 394.622Z" stroke="#FFFFFF" fill="#4E67E0"/><path d="M656.941 408.572 656.926 408.506C656.677 407.427 655.6 406.753 654.52 407.002 654.499 407.007 654.478 407.012 654.457 407.018 652.156 407.656 650.116 409.008 648.632 410.879 648.38 411.209 648.443 411.681 648.773 411.933 648.993 412.101 649.287 412.135 649.539 412.021 651.176 411.305 652.965 411.006 654.746 411.15 655.897 411.241 656.903 410.382 656.994 409.231 657.011 409.01 656.994 408.787 656.941 408.572Z" stroke="#FFFFFF" fill="#4E67E0"/><path d="M592.391 411.748C594.716 411.34 597.101 411.436 599.385 412.028 600.385 412.284 601.11 411.228 600.35 410.6 597.953 408.627 595.044 407.376 591.963 406.993 590.602 406.732 589.286 407.625 589.026 408.987 589.023 409.001 589.021 409.016 589.018 409.03L589.01 409.107C588.85 410.741 590.558 412.073 592.391 411.748Z" stroke="#FFFFFF" fill="#4E67E0"/><path d="M626.654 400.523C627.185 400.474 627.603 400.048 627.641 399.516 627.881 396.033 629.207 383.288 636.056 372.704 637.821 369.922 637.23 366.259 634.678 364.174L634.678 364.174C631.903 361.864 627.78 362.242 625.47 365.017 624.759 365.872 624.277 366.895 624.071 367.988 621.846 380.526 624.671 395.734 625.479 399.656 625.592 400.203 626.098 400.576 626.654 400.523Z" stroke="#FFFFFF" fill="#4E67E0"/><path d="M644.481 416.911C645.881 416.273 646.708 415.529 646.708 414.731 646.708 413.231 643.851 411.915 639.547 411.159 641.153 410.305 642.866 409.669 644.64 409.266 646.782 408.779 648.124 406.647 647.636 404.505 647.543 404.093 647.384 403.699 647.167 403.338L647.101 403.227C646.035 401.408 643.697 400.797 641.878 401.863 641.843 401.884 641.808 401.905 641.773 401.927 638.478 404.048 635.832 407.037 634.127 410.565 633.373 410.525 632.596 410.503 631.807 410.494 637.788 394.242 645.662 384.6 650.634 380.551 653.029 378.661 653.437 375.187 651.547 372.792 649.657 370.398 646.183 369.989 643.788 371.879 643.506 372.102 643.247 372.352 643.013 372.625 634.369 382.344 630.372 398.325 628.523 410.546 627.261 410.604 626.048 410.7 624.909 410.836 624.909 410.827 624.909 410.818 624.909 410.809 622.214 395.438 616.55 374.464 604.883 362.209 602.311 359.403 597.951 359.213 595.144 361.785 592.338 364.357 592.148 368.717 594.72 371.524 595.021 371.853 595.354 372.151 595.713 372.416 602.343 377.45 613.149 389.886 621.438 411.409 620.65 411.58 619.925 411.771 619.273 411.98 617.139 407.606 613.846 403.901 609.753 401.269 607.528 399.866 604.587 400.532 603.183 402.757 603.155 402.802 603.127 402.848 603.1 402.894L603.018 403.032C601.605 405.381 602.363 408.431 604.712 409.845 605.164 410.117 605.657 410.315 606.172 410.432 609.018 411.075 611.732 412.198 614.2 413.754 612.987 413.654 611.706 413.602 610.378 413.602 602.941 413.602 596.912 415.246 596.912 417.275 596.912 418.497 599.112 419.575 602.481 420.245 602.259 420.577 602.137 420.966 602.128 421.365 602.124 425.03 613.016 428 626.451 428 639.886 428 650.778 425.03 650.778 421.365 650.778 419.651 648.394 418.089 644.481 416.911Z" stroke="#FFFFFF" fill="#4E67E0"/><path d="M593.792 420.947C591.8 420.947 590.185 421.387 590.185 421.931 590.185 422.475 591.8 422.915 593.792 422.915 595.784 422.915 597.399 422.474 597.399 421.931 597.399 421.388 595.784 420.947 593.792 420.947Z" stroke="#FFFFFF" fill="#4E67E0"/></g></svg>