<svg width="128" height="128" xmlns="http://www.w3.org/2000/svg" xmlns:xlink="http://www.w3.org/1999/xlink" xml:space="preserve" overflow="hidden"><defs><clipPath id="clip0"><rect x="479" y="129" width="128" height="128"/></clipPath></defs><g clip-path="url(#clip0)" transform="translate(-479 -129)"><path d="M526.029 182.137C531.287 182.137 533.928 183.805 534.975 184.712 535.052 184.78 535.17 184.772 535.238 184.695 535.282 184.645 535.296 184.575 535.275 184.512 534.627 182.655 532.847 177.971 530.909 176.541 528.881 174.969 525.517 174.439 523.868 176.675 522.379 178.692 523.463 182.139 526.029 182.137Z" stroke="#FFFFFF" stroke-width="1.33333" fill="#56C4FC"/><path d="M553.099 179.391C554.94 177.753 557.289 176.8 559.751 176.691 561.76 176.46 562.299 173.665 560.951 172.22 559.457 170.62 556.872 171.337 555.427 172.753 554.093 174.001 553.137 177.607 552.768 179.217 552.745 179.322 552.81 179.425 552.915 179.448 552.982 179.463 553.052 179.441 553.099 179.391Z" stroke="#FFFFFF" stroke-width="1.33333" fill="#56C4FC"/><path d="M532.409 194.959C533.643 194.566 534.739 193.829 535.568 192.833 516.66 193.951 502.333 199.244 502.333 205.609 502.333 212.785 520.54 218.6 543 218.6 565.46 218.6 583.667 212.781 583.667 205.605 583.667 199.24 569.345 193.948 550.443 192.831 551.274 193.827 552.372 194.564 553.608 194.957 564.84 196.301 572.903 199.704 572.903 203.648L572.869 204.04 572.689 204.757C570.893 209.416 558.067 212.959 543 212.959 526.6 212.959 513.097 208.757 513.097 203.652 513.097 199.705 521.168 196.301 532.409 194.959Z" stroke="#FFFFFF" stroke-width="1.33333" fill="#56C4FC"/><path d="M548.467 188.505C548.565 188.967 548.676 189.408 548.801 189.824 548.843 189.957 548.899 190.091 548.947 190.216 567.568 191.12 593 196.104 593 205.775 593 216.524 561.571 221.485 543 221.485 524.429 221.485 493 216.524 493 205.775 493 196.103 518.441 191.119 537.069 190.216 537.116 190.083 537.173 189.959 537.213 189.824 537.347 189.408 537.451 188.967 537.548 188.505 506.231 189.343 481.667 197.348 481.667 208.208 481.667 219.691 509.133 229 543 229 576.867 229 604.333 219.691 604.333 208.208 604.333 197.349 579.775 189.344 548.467 188.505Z" stroke="#FFFFFF" stroke-width="1.33333" fill="#56C4FC"/><path d="M554.396 197.028C554.012 196.945 553.629 196.863 553.229 196.788 550.126 196.194 547.528 194.082 546.315 191.164 545.631 189.302 545.283 187.334 545.287 185.351 545.188 177.717 546.952 174.789 549.92 169.733 551 168.157 551.63 166.318 551.744 164.411 551.749 159.588 547.844 155.673 543.021 155.667L542.991 155.667C538.167 155.673 534.261 159.587 534.267 164.411 534.38 166.318 535.01 168.158 536.091 169.733 539.059 174.789 540.823 177.717 540.724 185.351 540.728 187.334 540.379 189.302 539.695 191.164 538.482 194.081 535.884 196.194 532.781 196.788L531.615 197.028C531.356 197.084 531.097 197.137 530.848 197.196 530.427 197.293 530.024 197.396 529.637 197.503L529.252 197.609C529.083 197.659 528.92 197.711 528.757 197.761 524.417 199.083 521.667 200.991 521.667 203.12 521.667 207.104 531.223 210.333 543 210.333 554.777 210.333 564.333 207.104 564.333 203.12 564.333 200.987 561.588 199.083 557.248 197.761 557.085 197.711 556.923 197.659 556.752 197.609L556.368 197.503C555.98 197.396 555.579 197.293 555.157 197.196Z" stroke="#FFFFFF" stroke-width="1.33333" fill="#56C4FC"/></g></svg>