<svg width="129" height="129" xmlns="http://www.w3.org/2000/svg" xmlns:xlink="http://www.w3.org/1999/xlink" xml:space="preserve" overflow="hidden"><defs><clipPath id="clip0"><rect x="1" y="267" width="129" height="129"/></clipPath></defs><g clip-path="url(#clip0)" transform="translate(-1 -267)"><path d="M48.3967 320.552C53.6952 320.552 56.3571 322.233 57.412 323.147 57.49 323.216 57.609 323.208 57.6775 323.13 57.7217 323.08 57.7358 323.009 57.7143 322.946 57.0613 321.074 55.2673 316.353 53.3149 314.913 51.271 313.328 47.8808 312.794 46.2185 315.047 44.7176 317.08 45.81 320.554 48.3967 320.552Z" stroke="#FFFFFF" stroke-width="1.34375" fill="#011369"/><path d="M75.6776 317.784C77.5331 316.134 79.9006 315.173 82.3815 315.063 84.4066 314.831 84.9494 312.014 83.5909 310.558 82.0859 308.945 79.4804 309.668 78.0238 311.095 76.68 312.353 75.7165 315.986 75.3443 317.61 75.3209 317.715 75.387 317.819 75.492 317.842 75.5599 317.857 75.6304 317.835 75.6776 317.784Z" stroke="#FFFFFF" stroke-width="1.34375" fill="#011369"/><path d="M54.8266 333.474C56.0702 333.078 57.1748 332.335 58.0099 331.332 38.9542 332.458 24.5156 337.793 24.5156 344.208 24.5156 351.44 42.8645 357.3 65.5 357.3 88.1355 357.3 106.484 351.436 106.484 344.204 106.484 337.789 92.0512 332.455 73.0008 331.329 73.8384 332.333 74.9451 333.076 76.1909 333.473 87.5106 334.827 95.6363 338.256 95.6363 342.231L95.6027 342.626 95.4213 343.349C93.6112 348.044 80.6844 351.615 65.5 351.615 48.9719 351.615 35.3637 347.38 35.3637 342.235 35.3637 338.258 43.4974 334.827 54.8266 333.474Z" stroke="#FFFFFF" stroke-width="1.34375" fill="#011369"/><path d="M71.0094 326.97C71.1088 327.435 71.2203 327.88 71.3467 328.299 71.3883 328.434 71.4447 328.568 71.4931 328.694 90.2599 329.605 115.891 334.628 115.891 344.374 115.891 355.208 84.2158 360.208 65.5 360.208 46.7842 360.208 15.1094 355.208 15.1094 344.374 15.1094 334.627 40.7495 329.604 59.523 328.694 59.57 328.56 59.6278 328.435 59.6681 328.299 59.8025 327.88 59.9073 327.435 60.0054 326.97 28.4434 327.814 3.6875 335.882 3.6875 346.827 3.6875 358.399 31.3687 367.781 65.5 367.781 99.6312 367.781 127.312 358.399 127.312 346.827 127.312 335.883 102.562 327.815 71.0094 326.97Z" stroke="#FFFFFF" stroke-width="1.34375" fill="#011369"/><path d="M76.985 335.559C76.598 335.476 76.2124 335.393 75.8092 335.318 72.6814 334.719 70.0634 332.59 68.8406 329.65 68.1512 327.773 67.8005 325.79 67.8045 323.791 67.7051 316.098 69.4829 313.147 72.4741 308.052 73.5622 306.463 74.1977 304.609 74.3123 302.687 74.3176 297.827 70.3821 293.882 65.5215 293.875L65.4906 293.875C60.6294 293.881 56.6932 297.826 56.6984 302.687 56.8124 304.609 57.448 306.464 58.5367 308.052 61.5279 313.147 63.3057 316.098 63.2062 323.791 63.2098 325.79 62.8586 327.773 62.1688 329.65 60.9463 332.59 58.3288 334.719 55.2015 335.318L54.0257 335.559C53.765 335.616 53.5043 335.67 53.2531 335.729 52.8284 335.827 52.4226 335.93 52.0329 336.038L51.6446 336.145C51.4739 336.195 51.31 336.247 51.1461 336.299 46.7722 337.63 44 339.553 44 341.699 44 345.714 53.6307 348.969 65.5 348.969 77.3693 348.969 87 345.714 87 341.699 87 339.549 84.2332 337.63 79.8593 336.299 79.6954 336.247 79.5314 336.195 79.3594 336.145L78.9724 336.038C78.5814 335.93 78.1769 335.827 77.7523 335.729Z" stroke="#FFFFFF" stroke-width="1.34375" fill="#011369"/></g></svg>