<svg width="128" height="128" xmlns="http://www.w3.org/2000/svg" xmlns:xlink="http://www.w3.org/1999/xlink" xml:space="preserve" overflow="hidden"><defs><clipPath id="clip0"><rect x="320" y="386" width="128" height="128"/></clipPath></defs><g clip-path="url(#clip0)" transform="translate(-320 -386)"><path d="M367.029 439.137C372.287 439.137 374.928 440.805 375.975 441.712 376.052 441.78 376.17 441.772 376.238 441.695 376.282 441.645 376.296 441.575 376.275 441.512 375.627 439.655 373.847 434.971 371.909 433.541 369.881 431.969 366.517 431.439 364.868 433.675 363.379 435.692 364.463 439.139 367.029 439.137Z" stroke="#FFFFFF" stroke-width="1.33333" fill="#02787B"/><path d="M394.099 436.391C395.94 434.753 398.289 433.8 400.751 433.691 402.76 433.46 403.299 430.665 401.951 429.22 400.457 427.62 397.872 428.337 396.427 429.753 395.093 431.001 394.137 434.607 393.768 436.217 393.745 436.322 393.81 436.425 393.915 436.448 393.982 436.463 394.052 436.441 394.099 436.391Z" stroke="#FFFFFF" stroke-width="1.33333" fill="#02787B"/><path d="M373.409 451.959C374.643 451.566 375.739 450.829 376.568 449.833 357.66 450.951 343.333 456.244 343.333 462.609 343.333 469.785 361.54 475.6 384 475.6 406.46 475.6 424.667 469.781 424.667 462.605 424.667 456.24 410.345 450.948 391.443 449.831 392.274 450.827 393.372 451.564 394.608 451.957 405.84 453.301 413.903 456.704 413.903 460.648L413.869 461.04 413.689 461.757C411.893 466.416 399.067 469.959 384 469.959 367.6 469.959 354.097 465.757 354.097 460.652 354.097 456.705 362.168 453.301 373.409 451.959Z" stroke="#FFFFFF" stroke-width="1.33333" fill="#02787B"/><path d="M389.467 445.505C389.565 445.967 389.676 446.408 389.801 446.824 389.843 446.957 389.899 447.091 389.947 447.216 408.568 448.12 434 453.104 434 462.775 434 473.524 402.571 478.485 384 478.485 365.429 478.485 334 473.524 334 462.775 334 453.103 359.441 448.119 378.069 447.216 378.116 447.083 378.173 446.959 378.213 446.824 378.347 446.408 378.451 445.967 378.548 445.505 347.231 446.343 322.667 454.348 322.667 465.208 322.667 476.691 350.133 486 384 486 417.867 486 445.333 476.691 445.333 465.208 445.333 454.349 420.775 446.344 389.467 445.505Z" stroke="#FFFFFF" stroke-width="1.33333" fill="#02787B"/><path d="M395.396 454.028C395.012 453.945 394.629 453.863 394.229 453.788 391.126 453.194 388.528 451.082 387.315 448.164 386.631 446.302 386.283 444.334 386.287 442.351 386.188 434.717 387.952 431.789 390.92 426.733 392 425.157 392.63 423.318 392.744 421.411 392.749 416.588 388.844 412.673 384.021 412.667L383.991 412.667C379.167 412.673 375.261 416.587 375.267 421.411 375.38 423.318 376.01 425.158 377.091 426.733 380.059 431.789 381.823 434.717 381.724 442.351 381.728 444.334 381.379 446.302 380.695 448.164 379.482 451.081 376.884 453.194 373.781 453.788L372.615 454.028C372.356 454.084 372.097 454.137 371.848 454.196 371.427 454.293 371.024 454.396 370.637 454.503L370.252 454.609C370.083 454.659 369.92 454.711 369.757 454.761 365.417 456.083 362.667 457.991 362.667 460.12 362.667 464.104 372.223 467.333 384 467.333 395.777 467.333 405.333 464.104 405.333 460.12 405.333 457.987 402.588 456.083 398.248 454.761 398.085 454.711 397.923 454.659 397.752 454.609L397.368 454.503C396.98 454.396 396.579 454.293 396.157 454.196Z" stroke="#FFFFFF" stroke-width="1.33333" fill="#02787B"/></g></svg>