<svg width="129" height="129" xmlns="http://www.w3.org/2000/svg" xmlns:xlink="http://www.w3.org/1999/xlink" xml:space="preserve" overflow="hidden"><defs><clipPath id="clip0"><rect x="638" y="495" width="129" height="129"/></clipPath></defs><g clip-path="url(#clip0)" transform="translate(-638 -495)"><path d="M685.397 548.552C690.695 548.552 693.357 550.234 694.412 551.147 694.49 551.216 694.609 551.208 694.677 551.13 694.722 551.08 694.736 551.009 694.714 550.946 694.061 549.074 692.267 544.353 690.315 542.913 688.271 541.328 684.881 540.794 683.219 543.047 681.718 545.08 682.81 548.554 685.397 548.552Z" stroke="#FFFFFF" stroke-width="1.34375" fill="#43AEFF"/><path d="M712.678 545.784C714.533 544.134 716.901 543.173 719.382 543.063 721.407 542.831 721.949 540.014 720.591 538.558 719.086 536.945 716.48 537.668 715.024 539.095 713.68 540.353 712.717 543.986 712.344 545.61 712.321 545.715 712.387 545.819 712.492 545.842 712.56 545.857 712.63 545.835 712.678 545.784Z" stroke="#FFFFFF" stroke-width="1.34375" fill="#43AEFF"/><path d="M691.827 561.474C693.07 561.078 694.175 560.335 695.01 559.332 675.954 560.458 661.516 565.793 661.516 572.208 661.516 579.44 679.865 585.3 702.5 585.3 725.135 585.3 743.484 579.436 743.484 572.204 743.484 565.789 729.051 560.455 710.001 559.329 710.838 560.333 711.945 561.076 713.191 561.473 724.511 562.827 732.636 566.256 732.636 570.231L732.603 570.626 732.421 571.349C730.611 576.044 717.684 579.615 702.5 579.615 685.972 579.615 672.364 575.38 672.364 570.235 672.364 566.258 680.497 562.827 691.827 561.474Z" stroke="#FFFFFF" stroke-width="1.34375" fill="#43AEFF"/><path d="M708.009 554.97C708.109 555.435 708.22 555.88 708.347 556.299 708.388 556.434 708.445 556.568 708.493 556.694 727.26 557.605 752.891 562.628 752.891 572.374 752.891 583.208 721.216 588.208 702.5 588.208 683.784 588.208 652.109 583.208 652.109 572.374 652.109 562.627 677.749 557.604 696.523 556.694 696.57 556.56 696.628 556.435 696.668 556.299 696.802 555.88 696.907 555.435 697.005 554.97 665.443 555.814 640.688 563.882 640.688 574.827 640.688 586.399 668.369 595.781 702.5 595.781 736.631 595.781 764.312 586.399 764.312 574.827 764.312 563.883 739.562 555.815 708.009 554.97Z" stroke="#FFFFFF" stroke-width="1.34375" fill="#43AEFF"/><path d="M713.985 563.559C713.598 563.476 713.212 563.393 712.809 563.318 709.681 562.719 707.063 560.59 705.841 557.65 705.151 555.773 704.8 553.79 704.805 551.791 704.705 544.098 706.483 541.147 709.474 536.052 710.562 534.463 711.198 532.609 711.312 530.687 711.318 525.827 707.382 521.882 702.521 521.875L702.491 521.875C697.629 521.881 693.693 525.826 693.698 530.687 693.812 532.609 694.448 534.464 695.537 536.052 698.528 541.147 700.306 544.098 700.206 551.791 700.21 553.79 699.859 555.773 699.169 557.65 697.946 560.59 695.329 562.719 692.201 563.318L691.026 563.559C690.765 563.616 690.504 563.67 690.253 563.729 689.828 563.827 689.423 563.93 689.033 564.038L688.645 564.145C688.474 564.195 688.31 564.247 688.146 564.299 683.772 565.63 681 567.553 681 569.699 681 573.714 690.631 576.969 702.5 576.969 714.369 576.969 724 573.714 724 569.699 724 567.549 721.233 565.63 716.859 564.299 716.695 564.247 716.531 564.195 716.359 564.145L715.972 564.038C715.581 563.93 715.177 563.827 714.752 563.729Z" stroke="#FFFFFF" stroke-width="1.34375" fill="#43AEFF"/></g></svg>