<svg width="128" height="128" xmlns="http://www.w3.org/2000/svg" xmlns:xlink="http://www.w3.org/1999/xlink" xml:space="preserve" overflow="hidden"><defs><clipPath id="clip0"><rect x="479" y="386" width="128" height="128"/></clipPath></defs><g clip-path="url(#clip0)" transform="translate(-479 -386)"><path d="M526.029 439.137C531.287 439.137 533.928 440.805 534.975 441.712 535.052 441.78 535.17 441.772 535.238 441.695 535.282 441.645 535.296 441.575 535.275 441.512 534.627 439.655 532.847 434.971 530.909 433.541 528.881 431.969 525.517 431.439 523.868 433.675 522.379 435.692 523.463 439.139 526.029 439.137Z" stroke="#FFFFFF" stroke-width="1.33333" fill="#03A7AB"/><path d="M553.099 436.391C554.94 434.753 557.289 433.8 559.751 433.691 561.76 433.46 562.299 430.665 560.951 429.22 559.457 427.62 556.872 428.337 555.427 429.753 554.093 431.001 553.137 434.607 552.768 436.217 552.745 436.322 552.81 436.425 552.915 436.448 552.982 436.463 553.052 436.441 553.099 436.391Z" stroke="#FFFFFF" stroke-width="1.33333" fill="#03A7AB"/><path d="M532.409 451.959C533.643 451.566 534.739 450.829 535.568 449.833 516.66 450.951 502.333 456.244 502.333 462.609 502.333 469.785 520.54 475.6 543 475.6 565.46 475.6 583.667 469.781 583.667 462.605 583.667 456.24 569.345 450.948 550.443 449.831 551.274 450.827 552.372 451.564 553.608 451.957 564.84 453.301 572.903 456.704 572.903 460.648L572.869 461.04 572.689 461.757C570.893 466.416 558.067 469.959 543 469.959 526.6 469.959 513.097 465.757 513.097 460.652 513.097 456.705 521.168 453.301 532.409 451.959Z" stroke="#FFFFFF" stroke-width="1.33333" fill="#03A7AB"/><path d="M548.467 445.505C548.565 445.967 548.676 446.408 548.801 446.824 548.843 446.957 548.899 447.091 548.947 447.216 567.568 448.12 593 453.104 593 462.775 593 473.524 561.571 478.485 543 478.485 524.429 478.485 493 473.524 493 462.775 493 453.103 518.441 448.119 537.069 447.216 537.116 447.083 537.173 446.959 537.213 446.824 537.347 446.408 537.451 445.967 537.548 445.505 506.231 446.343 481.667 454.348 481.667 465.208 481.667 476.691 509.133 486 543 486 576.867 486 604.333 476.691 604.333 465.208 604.333 454.349 579.775 446.344 548.467 445.505Z" stroke="#FFFFFF" stroke-width="1.33333" fill="#03A7AB"/><path d="M554.396 454.028C554.012 453.945 553.629 453.863 553.229 453.788 550.126 453.194 547.528 451.082 546.315 448.164 545.631 446.302 545.283 444.334 545.287 442.351 545.188 434.717 546.952 431.789 549.92 426.733 551 425.157 551.63 423.318 551.744 421.411 551.749 416.588 547.844 412.673 543.021 412.667L542.991 412.667C538.167 412.673 534.261 416.587 534.267 421.411 534.38 423.318 535.01 425.158 536.091 426.733 539.059 431.789 540.823 434.717 540.724 442.351 540.728 444.334 540.379 446.302 539.695 448.164 538.482 451.081 535.884 453.194 532.781 453.788L531.615 454.028C531.356 454.084 531.097 454.137 530.848 454.196 530.427 454.293 530.024 454.396 529.637 454.503L529.252 454.609C529.083 454.659 528.92 454.711 528.757 454.761 524.417 456.083 521.667 457.991 521.667 460.12 521.667 464.104 531.223 467.333 543 467.333 554.777 467.333 564.333 464.104 564.333 460.12 564.333 457.987 561.588 456.083 557.248 454.761 557.085 454.711 556.923 454.659 556.752 454.609L556.368 454.503C555.98 454.396 555.579 454.293 555.157 454.196Z" stroke="#FFFFFF" stroke-width="1.33333" fill="#03A7AB"/></g></svg>