<svg width="129" height="129" xmlns="http://www.w3.org/2000/svg" xmlns:xlink="http://www.w3.org/1999/xlink" xml:space="preserve" overflow="hidden"><defs><clipPath id="clip0"><rect x="160" y="267" width="129" height="129"/></clipPath></defs><g clip-path="url(#clip0)" transform="translate(-160 -267)"><path d="M207.397 320.552C212.695 320.552 215.357 322.233 216.412 323.147 216.49 323.216 216.609 323.208 216.677 323.13 216.722 323.08 216.736 323.009 216.714 322.946 216.061 321.074 214.267 316.353 212.315 314.913 210.271 313.328 206.881 312.794 205.219 315.047 203.718 317.08 204.81 320.554 207.397 320.552Z" stroke="#FFFFFF" stroke-width="1.34375" fill="#021A93"/><path d="M234.678 317.784C236.533 316.134 238.901 315.173 241.382 315.063 243.407 314.831 243.949 312.014 242.591 310.558 241.086 308.945 238.48 309.668 237.024 311.095 235.68 312.353 234.717 315.986 234.344 317.61 234.321 317.715 234.387 317.819 234.492 317.842 234.56 317.857 234.63 317.835 234.678 317.784Z" stroke="#FFFFFF" stroke-width="1.34375" fill="#021A93"/><path d="M213.827 333.474C215.07 333.078 216.175 332.335 217.01 331.332 197.954 332.458 183.516 337.793 183.516 344.208 183.516 351.44 201.865 357.3 224.5 357.3 247.135 357.3 265.484 351.436 265.484 344.204 265.484 337.789 251.051 332.455 232.001 331.329 232.838 332.333 233.945 333.076 235.191 333.473 246.511 334.827 254.636 338.256 254.636 342.231L254.603 342.626 254.421 343.349C252.611 348.044 239.684 351.615 224.5 351.615 207.972 351.615 194.364 347.38 194.364 342.235 194.364 338.258 202.497 334.827 213.827 333.474Z" stroke="#FFFFFF" stroke-width="1.34375" fill="#021A93"/><path d="M230.009 326.97C230.109 327.435 230.22 327.88 230.347 328.299 230.388 328.434 230.445 328.568 230.493 328.694 249.26 329.605 274.891 334.628 274.891 344.374 274.891 355.208 243.216 360.208 224.5 360.208 205.784 360.208 174.109 355.208 174.109 344.374 174.109 334.627 199.749 329.604 218.523 328.694 218.57 328.56 218.628 328.435 218.668 328.299 218.802 327.88 218.907 327.435 219.005 326.97 187.443 327.814 162.688 335.882 162.688 346.827 162.688 358.399 190.369 367.781 224.5 367.781 258.631 367.781 286.312 358.399 286.312 346.827 286.312 335.883 261.562 327.815 230.009 326.97Z" stroke="#FFFFFF" stroke-width="1.34375" fill="#021A93"/><path d="M235.985 335.559C235.598 335.476 235.212 335.393 234.809 335.318 231.681 334.719 229.063 332.59 227.841 329.65 227.151 327.773 226.801 325.79 226.805 323.791 226.705 316.098 228.483 313.147 231.474 308.052 232.562 306.463 233.198 304.609 233.312 302.687 233.318 297.827 229.382 293.882 224.521 293.875L224.491 293.875C219.629 293.881 215.693 297.826 215.698 302.687 215.812 304.609 216.448 306.464 217.537 308.052 220.528 313.147 222.306 316.098 222.206 323.791 222.21 325.79 221.859 327.773 221.169 329.65 219.946 332.59 217.329 334.719 214.202 335.318L213.026 335.559C212.765 335.616 212.504 335.67 212.253 335.729 211.828 335.827 211.423 335.93 211.033 336.038L210.645 336.145C210.474 336.195 210.31 336.247 210.146 336.299 205.772 337.63 203 339.553 203 341.699 203 345.714 212.631 348.969 224.5 348.969 236.369 348.969 246 345.714 246 341.699 246 339.549 243.233 337.63 238.859 336.299 238.695 336.247 238.531 336.195 238.359 336.145L237.972 336.038C237.581 335.93 237.177 335.827 236.752 335.729Z" stroke="#FFFFFF" stroke-width="1.34375" fill="#021A93"/></g></svg>