<svg width="129" height="129" xmlns="http://www.w3.org/2000/svg" xmlns:xlink="http://www.w3.org/1999/xlink" xml:space="preserve" overflow="hidden"><defs><clipPath id="clip0"><rect x="1116" y="267" width="129" height="129"/></clipPath></defs><g clip-path="url(#clip0)" transform="translate(-1116 -267)"><path d="M1163.4 320.552C1168.7 320.552 1171.36 322.233 1172.41 323.147 1172.49 323.216 1172.61 323.208 1172.68 323.13 1172.72 323.08 1172.74 323.009 1172.71 322.946 1172.06 321.074 1170.27 316.353 1168.31 314.913 1166.27 313.328 1162.88 312.794 1161.22 315.047 1159.72 317.08 1160.81 320.554 1163.4 320.552Z" stroke="#FFFFFF" stroke-width="1.34375" fill="#B3BDF1"/><path d="M1190.68 317.784C1192.53 316.134 1194.9 315.173 1197.38 315.063 1199.41 314.831 1199.95 312.014 1198.59 310.558 1197.09 308.945 1194.48 309.668 1193.02 311.095 1191.68 312.353 1190.72 315.986 1190.34 317.61 1190.32 317.715 1190.39 317.819 1190.49 317.842 1190.56 317.857 1190.63 317.835 1190.68 317.784Z" stroke="#FFFFFF" stroke-width="1.34375" fill="#B3BDF1"/><path d="M1169.83 333.474C1171.07 333.078 1172.17 332.335 1173.01 331.332 1153.95 332.458 1139.52 337.793 1139.52 344.208 1139.52 351.44 1157.86 357.3 1180.5 357.3 1203.14 357.3 1221.48 351.436 1221.48 344.204 1221.48 337.789 1207.05 332.455 1188 331.329 1188.84 332.333 1189.95 333.076 1191.19 333.473 1202.51 334.827 1210.64 338.256 1210.64 342.231L1210.6 342.626 1210.42 343.349C1208.61 348.044 1195.68 351.615 1180.5 351.615 1163.97 351.615 1150.36 347.38 1150.36 342.235 1150.36 338.258 1158.5 334.827 1169.83 333.474Z" stroke="#FFFFFF" stroke-width="1.34375" fill="#B3BDF1"/><path d="M1186.01 326.97C1186.11 327.435 1186.22 327.88 1186.35 328.299 1186.39 328.434 1186.44 328.568 1186.49 328.694 1205.26 329.605 1230.89 334.628 1230.89 344.374 1230.89 355.208 1199.22 360.208 1180.5 360.208 1161.78 360.208 1130.11 355.208 1130.11 344.374 1130.11 334.627 1155.75 329.604 1174.52 328.694 1174.57 328.56 1174.63 328.435 1174.67 328.299 1174.8 327.88 1174.91 327.435 1175.01 326.97 1143.44 327.814 1118.69 335.882 1118.69 346.827 1118.69 358.399 1146.37 367.781 1180.5 367.781 1214.63 367.781 1242.31 358.399 1242.31 346.827 1242.31 335.883 1217.56 327.815 1186.01 326.97Z" stroke="#FFFFFF" stroke-width="1.34375" fill="#B3BDF1"/><path d="M1191.98 335.559C1191.6 335.476 1191.21 335.393 1190.81 335.318 1187.68 334.719 1185.06 332.59 1183.84 329.65 1183.15 327.773 1182.8 325.79 1182.8 323.791 1182.71 316.098 1184.48 313.147 1187.47 308.052 1188.56 306.463 1189.2 304.609 1189.31 302.687 1189.32 297.827 1185.38 293.882 1180.52 293.875L1180.49 293.875C1175.63 293.881 1171.69 297.826 1171.7 302.687 1171.81 304.609 1172.45 306.464 1173.54 308.052 1176.53 313.147 1178.31 316.098 1178.21 323.791 1178.21 325.79 1177.86 327.773 1177.17 329.65 1175.95 332.59 1173.33 334.719 1170.2 335.318L1169.03 335.559C1168.77 335.616 1168.5 335.67 1168.25 335.729 1167.83 335.827 1167.42 335.93 1167.03 336.038L1166.64 336.145C1166.47 336.195 1166.31 336.247 1166.15 336.299 1161.77 337.63 1159 339.553 1159 341.699 1159 345.714 1168.63 348.969 1180.5 348.969 1192.37 348.969 1202 345.714 1202 341.699 1202 339.549 1199.23 337.63 1194.86 336.299 1194.7 336.247 1194.53 336.195 1194.36 336.145L1193.97 336.038C1193.58 335.93 1193.18 335.827 1192.75 335.729Z" stroke="#FFFFFF" stroke-width="1.34375" fill="#B3BDF1"/></g></svg>