<svg width="129" height="129" xmlns="http://www.w3.org/2000/svg" xmlns:xlink="http://www.w3.org/1999/xlink" xml:space="preserve" overflow="hidden"><defs><clipPath id="clip0"><rect x="797" y="0" width="129" height="129"/></clipPath></defs><g clip-path="url(#clip0)" transform="translate(-797 0)"><path d="M844.397 53.5525C849.695 53.5525 852.357 55.2335 853.412 56.1473 853.49 56.2158 853.609 56.2081 853.677 56.1299 853.722 56.0795 853.736 56.0092 853.714 55.9457 853.061 54.0738 851.267 49.3533 849.315 47.9127 847.271 46.3285 843.881 45.7937 842.219 48.0471 840.718 50.0802 841.81 53.5538 844.397 53.5525Z" stroke="#FFFFFF" stroke-width="1.34375" fill="#67B1D5"/><path d="M871.678 50.7843C873.533 49.1339 875.901 48.173 878.382 48.0633 880.407 47.8308 880.949 45.0143 879.591 43.5577 878.086 41.9452 875.48 42.6681 874.024 44.0952 872.68 45.3529 871.717 48.9864 871.344 50.6097 871.321 50.7147 871.387 50.8189 871.492 50.8423 871.56 50.8573 871.63 50.8353 871.678 50.7843Z" stroke="#FFFFFF" stroke-width="1.34375" fill="#67B1D5"/><path d="M850.827 66.474C852.07 66.0782 853.175 65.335 854.01 64.332 834.954 65.4581 820.516 70.7928 820.516 77.2078 820.516 84.4399 838.865 90.3 861.5 90.3 884.135 90.3 902.484 84.4359 902.484 77.2038 902.484 70.7887 888.051 65.4554 869.001 64.3293 869.838 65.333 870.945 66.0765 872.191 66.4726 883.511 67.8271 891.636 71.2564 891.636 75.2312L891.603 75.6263 891.421 76.3492C889.611 81.0443 876.684 84.6146 861.5 84.6146 844.972 84.6146 831.364 80.3804 831.364 75.2352 831.364 71.2577 839.497 67.8271 850.827 66.474Z" stroke="#FFFFFF" stroke-width="1.34375" fill="#67B1D5"/><path d="M867.009 59.9702C867.109 60.4352 867.22 60.8799 867.347 61.2992 867.388 61.4336 867.445 61.5679 867.493 61.6942 886.26 62.6053 911.891 67.6283 911.891 77.3745 911.891 88.2078 880.216 93.2079 861.5 93.2079 842.784 93.2079 811.109 88.2078 811.109 77.3745 811.109 67.6269 836.749 62.604 855.523 61.6942 855.57 61.5599 855.628 61.4349 855.668 61.2992 855.802 60.8799 855.907 60.4352 856.005 59.9702 824.443 60.8141 799.688 68.882 799.688 79.8268 799.688 91.3992 827.369 100.781 861.5 100.781 895.631 100.781 923.312 91.3992 923.312 79.8268 923.312 68.8833 898.562 60.8154 867.009 59.9702Z" stroke="#FFFFFF" stroke-width="1.34375" fill="#67B1D5"/><path d="M872.985 68.5595C872.598 68.4762 872.212 68.3928 871.809 68.3176 868.681 67.7194 866.063 65.59 864.841 62.6497 864.151 60.7734 863.8 58.7897 863.805 56.7909 863.705 49.0979 865.483 46.1471 868.474 41.0516 869.562 39.4634 870.198 37.6091 870.312 35.6873 870.318 30.8267 866.382 26.8817 861.521 26.875L861.491 26.875C856.629 26.8809 852.693 30.8262 852.698 35.6873 852.812 37.6091 853.448 39.4637 854.537 41.0516 857.528 46.1471 859.306 49.0979 859.206 56.7909 859.21 58.7899 858.859 60.7735 858.169 62.6497 856.946 65.5896 854.329 67.719 851.201 68.3176L850.026 68.5595C849.765 68.6159 849.504 68.6697 849.253 68.7288 848.828 68.8269 848.423 68.9303 848.033 69.0378L847.645 69.1453C847.474 69.1951 847.31 69.2475 847.146 69.2985 842.772 70.6302 840 72.5531 840 74.6991 840 78.7142 849.631 81.9688 861.5 81.9688 873.369 81.9688 883 78.7142 883 74.6991 883 72.5491 880.233 70.6302 875.859 69.2985 875.695 69.2475 875.531 69.1951 875.359 69.1453L874.972 69.0378C874.581 68.9303 874.177 68.8269 873.752 68.7288Z" stroke="#FFFFFF" stroke-width="1.34375" fill="#67B1D5"/></g></svg>