<svg width="129" height="129" xmlns="http://www.w3.org/2000/svg" xmlns:xlink="http://www.w3.org/1999/xlink" xml:space="preserve" overflow="hidden"><defs><clipPath id="clip0"><rect x="160" y="0" width="129" height="129"/></clipPath></defs><g clip-path="url(#clip0)" transform="translate(-160 0)"><path d="M207.397 53.5525C212.695 53.5525 215.357 55.2335 216.412 56.1473 216.49 56.2158 216.609 56.2081 216.677 56.1299 216.722 56.0795 216.736 56.0092 216.714 55.9457 216.061 54.0738 214.267 49.3533 212.315 47.9127 210.271 46.3285 206.881 45.7937 205.219 48.0471 203.718 50.0802 204.81 53.5538 207.397 53.5525Z" stroke="#FFFFFF" stroke-width="1.34375" fill="#016191"/><path d="M234.678 50.7843C236.533 49.1339 238.901 48.173 241.382 48.0633 243.407 47.8308 243.949 45.0143 242.591 43.5577 241.086 41.9452 238.48 42.6681 237.024 44.0952 235.68 45.3529 234.717 48.9864 234.344 50.6097 234.321 50.7147 234.387 50.8189 234.492 50.8423 234.56 50.8573 234.63 50.8353 234.678 50.7843Z" stroke="#FFFFFF" stroke-width="1.34375" fill="#016191"/><path d="M213.827 66.474C215.07 66.0782 216.175 65.335 217.01 64.332 197.954 65.4581 183.516 70.7928 183.516 77.2078 183.516 84.4399 201.865 90.3 224.5 90.3 247.135 90.3 265.484 84.4359 265.484 77.2038 265.484 70.7887 251.051 65.4554 232.001 64.3293 232.838 65.333 233.945 66.0765 235.191 66.4726 246.511 67.8271 254.636 71.2564 254.636 75.2312L254.603 75.6263 254.421 76.3492C252.611 81.0443 239.684 84.6146 224.5 84.6146 207.972 84.6146 194.364 80.3804 194.364 75.2352 194.364 71.2577 202.497 67.8271 213.827 66.474Z" stroke="#FFFFFF" stroke-width="1.34375" fill="#016191"/><path d="M230.009 59.9702C230.109 60.4352 230.22 60.8799 230.347 61.2992 230.388 61.4336 230.445 61.5679 230.493 61.6942 249.26 62.6053 274.891 67.6283 274.891 77.3745 274.891 88.2078 243.216 93.2079 224.5 93.2079 205.784 93.2079 174.109 88.2078 174.109 77.3745 174.109 67.6269 199.749 62.604 218.523 61.6942 218.57 61.5599 218.628 61.4349 218.668 61.2992 218.802 60.8799 218.907 60.4352 219.005 59.9702 187.443 60.8141 162.688 68.882 162.688 79.8268 162.688 91.3992 190.369 100.781 224.5 100.781 258.631 100.781 286.312 91.3992 286.312 79.8268 286.312 68.8833 261.562 60.8154 230.009 59.9702Z" stroke="#FFFFFF" stroke-width="1.34375" fill="#016191"/><path d="M235.985 68.5595C235.598 68.4762 235.212 68.3928 234.809 68.3176 231.681 67.7194 229.063 65.59 227.841 62.6497 227.151 60.7734 226.801 58.7897 226.805 56.7909 226.705 49.0979 228.483 46.1471 231.474 41.0516 232.562 39.4634 233.198 37.6091 233.312 35.6873 233.318 30.8267 229.382 26.8817 224.521 26.875L224.491 26.875C219.629 26.8809 215.693 30.8262 215.698 35.6873 215.812 37.6091 216.448 39.4637 217.537 41.0516 220.528 46.1471 222.306 49.0979 222.206 56.7909 222.21 58.7899 221.859 60.7735 221.169 62.6497 219.946 65.5896 217.329 67.719 214.202 68.3176L213.026 68.5595C212.765 68.6159 212.504 68.6697 212.253 68.7288 211.828 68.8269 211.423 68.9303 211.033 69.0378L210.645 69.1453C210.474 69.1951 210.31 69.2475 210.146 69.2985 205.772 70.6302 203 72.5531 203 74.6991 203 78.7142 212.631 81.9688 224.5 81.9688 236.369 81.9688 246 78.7142 246 74.6991 246 72.5491 243.233 70.6302 238.859 69.2985 238.695 69.2475 238.531 69.1951 238.359 69.1453L237.972 69.0378C237.581 68.9303 237.177 68.8269 236.752 68.7288Z" stroke="#FFFFFF" stroke-width="1.34375" fill="#016191"/></g></svg>