<svg width="128" height="128" xmlns="http://www.w3.org/2000/svg" xmlns:xlink="http://www.w3.org/1999/xlink" xml:space="preserve" overflow="hidden"><defs><clipPath id="clip0"><rect x="320" y="129" width="128" height="128"/></clipPath></defs><g clip-path="url(#clip0)" transform="translate(-320 -129)"><path d="M367.029 182.137C372.287 182.137 374.928 183.805 375.975 184.712 376.052 184.78 376.17 184.772 376.238 184.695 376.282 184.645 376.296 184.575 376.275 184.512 375.627 182.655 373.847 177.971 371.909 176.541 369.881 174.969 366.517 174.439 364.868 176.675 363.379 178.692 364.463 182.139 367.029 182.137Z" stroke="#FFFFFF" stroke-width="1.33333" fill="#0EACFB"/><path d="M394.099 179.391C395.94 177.753 398.289 176.8 400.751 176.691 402.76 176.46 403.299 173.665 401.951 172.22 400.457 170.62 397.872 171.337 396.427 172.753 395.093 174.001 394.137 177.607 393.768 179.217 393.745 179.322 393.81 179.425 393.915 179.448 393.982 179.463 394.052 179.441 394.099 179.391Z" stroke="#FFFFFF" stroke-width="1.33333" fill="#0EACFB"/><path d="M373.409 194.959C374.643 194.566 375.739 193.829 376.568 192.833 357.66 193.951 343.333 199.244 343.333 205.609 343.333 212.785 361.54 218.6 384 218.6 406.46 218.6 424.667 212.781 424.667 205.605 424.667 199.24 410.345 193.948 391.443 192.831 392.274 193.827 393.372 194.564 394.608 194.957 405.84 196.301 413.903 199.704 413.903 203.648L413.869 204.04 413.689 204.757C411.893 209.416 399.067 212.959 384 212.959 367.6 212.959 354.097 208.757 354.097 203.652 354.097 199.705 362.168 196.301 373.409 194.959Z" stroke="#FFFFFF" stroke-width="1.33333" fill="#0EACFB"/><path d="M389.467 188.505C389.565 188.967 389.676 189.408 389.801 189.824 389.843 189.957 389.899 190.091 389.947 190.216 408.568 191.12 434 196.104 434 205.775 434 216.524 402.571 221.485 384 221.485 365.429 221.485 334 216.524 334 205.775 334 196.103 359.441 191.119 378.069 190.216 378.116 190.083 378.173 189.959 378.213 189.824 378.347 189.408 378.451 188.967 378.548 188.505 347.231 189.343 322.667 197.348 322.667 208.208 322.667 219.691 350.133 229 384 229 417.867 229 445.333 219.691 445.333 208.208 445.333 197.349 420.775 189.344 389.467 188.505Z" stroke="#FFFFFF" stroke-width="1.33333" fill="#0EACFB"/><path d="M395.396 197.028C395.012 196.945 394.629 196.863 394.229 196.788 391.126 196.194 388.528 194.082 387.315 191.164 386.631 189.302 386.283 187.334 386.287 185.351 386.188 177.717 387.952 174.789 390.92 169.733 392 168.157 392.63 166.318 392.744 164.411 392.749 159.588 388.844 155.673 384.021 155.667L383.991 155.667C379.167 155.673 375.261 159.587 375.267 164.411 375.38 166.318 376.01 168.158 377.091 169.733 380.059 174.789 381.823 177.717 381.724 185.351 381.728 187.334 381.379 189.302 380.695 191.164 379.482 194.081 376.884 196.194 373.781 196.788L372.615 197.028C372.356 197.084 372.097 197.137 371.848 197.196 371.427 197.293 371.024 197.396 370.637 197.503L370.252 197.609C370.083 197.659 369.92 197.711 369.757 197.761 365.417 199.083 362.667 200.991 362.667 203.12 362.667 207.104 372.223 210.333 384 210.333 395.777 210.333 405.333 207.104 405.333 203.12 405.333 200.987 402.588 199.083 398.248 197.761 398.085 197.711 397.923 197.659 397.752 197.609L397.368 197.503C396.98 197.396 396.579 197.293 396.157 197.196Z" stroke="#FFFFFF" stroke-width="1.33333" fill="#0EACFB"/></g></svg>