<svg width="129" height="129" xmlns="http://www.w3.org/2000/svg" xmlns:xlink="http://www.w3.org/1999/xlink" xml:space="preserve" overflow="hidden"><defs><clipPath id="clip0"><rect x="640" y="267" width="129" height="129"/></clipPath></defs><g clip-path="url(#clip0)" transform="translate(-640 -267)"><path d="M687.397 320.552C692.695 320.552 695.357 322.233 696.412 323.147 696.49 323.216 696.609 323.208 696.677 323.13 696.722 323.08 696.736 323.009 696.714 322.946 696.061 321.074 694.267 316.353 692.315 314.913 690.271 313.328 686.881 312.794 685.219 315.047 683.718 317.08 684.81 320.554 687.397 320.552Z" stroke="#FFFFFF" stroke-width="1.34375" fill="#3551DB"/><path d="M714.678 317.784C716.533 316.134 718.901 315.173 721.382 315.063 723.407 314.831 723.949 312.014 722.591 310.558 721.086 308.945 718.48 309.668 717.024 311.095 715.68 312.353 714.717 315.986 714.344 317.61 714.321 317.715 714.387 317.819 714.492 317.842 714.56 317.857 714.63 317.835 714.678 317.784Z" stroke="#FFFFFF" stroke-width="1.34375" fill="#3551DB"/><path d="M693.827 333.474C695.07 333.078 696.175 332.335 697.01 331.332 677.954 332.458 663.516 337.793 663.516 344.208 663.516 351.44 681.865 357.3 704.5 357.3 727.135 357.3 745.484 351.436 745.484 344.204 745.484 337.789 731.051 332.455 712.001 331.329 712.838 332.333 713.945 333.076 715.191 333.473 726.511 334.827 734.636 338.256 734.636 342.231L734.603 342.626 734.421 343.349C732.611 348.044 719.684 351.615 704.5 351.615 687.972 351.615 674.364 347.38 674.364 342.235 674.364 338.258 682.497 334.827 693.827 333.474Z" stroke="#FFFFFF" stroke-width="1.34375" fill="#3551DB"/><path d="M710.009 326.97C710.109 327.435 710.22 327.88 710.347 328.299 710.388 328.434 710.445 328.568 710.493 328.694 729.26 329.605 754.891 334.628 754.891 344.374 754.891 355.208 723.216 360.208 704.5 360.208 685.784 360.208 654.109 355.208 654.109 344.374 654.109 334.627 679.749 329.604 698.523 328.694 698.57 328.56 698.628 328.435 698.668 328.299 698.802 327.88 698.907 327.435 699.005 326.97 667.443 327.814 642.688 335.882 642.688 346.827 642.688 358.399 670.369 367.781 704.5 367.781 738.631 367.781 766.312 358.399 766.312 346.827 766.312 335.883 741.562 327.815 710.009 326.97Z" stroke="#FFFFFF" stroke-width="1.34375" fill="#3551DB"/><path d="M715.985 335.559C715.598 335.476 715.212 335.393 714.809 335.318 711.681 334.719 709.063 332.59 707.841 329.65 707.151 327.773 706.8 325.79 706.805 323.791 706.705 316.098 708.483 313.147 711.474 308.052 712.562 306.463 713.198 304.609 713.312 302.687 713.318 297.827 709.382 293.882 704.521 293.875L704.491 293.875C699.629 293.881 695.693 297.826 695.698 302.687 695.812 304.609 696.448 306.464 697.537 308.052 700.528 313.147 702.306 316.098 702.206 323.791 702.21 325.79 701.859 327.773 701.169 329.65 699.946 332.59 697.329 334.719 694.201 335.318L693.026 335.559C692.765 335.616 692.504 335.67 692.253 335.729 691.828 335.827 691.423 335.93 691.033 336.038L690.645 336.145C690.474 336.195 690.31 336.247 690.146 336.299 685.772 337.63 683 339.553 683 341.699 683 345.714 692.631 348.969 704.5 348.969 716.369 348.969 726 345.714 726 341.699 726 339.549 723.233 337.63 718.859 336.299 718.695 336.247 718.531 336.195 718.359 336.145L717.972 336.038C717.581 335.93 717.177 335.827 716.752 335.729Z" stroke="#FFFFFF" stroke-width="1.34375" fill="#3551DB"/></g></svg>