<svg width="128" height="128" xmlns="http://www.w3.org/2000/svg" xmlns:xlink="http://www.w3.org/1999/xlink" xml:space="preserve" overflow="hidden"><defs><clipPath id="clip0"><rect x="957" y="129" width="128" height="128"/></clipPath></defs><g clip-path="url(#clip0)" transform="translate(-957 -129)"><path d="M1004.03 182.137C1009.29 182.137 1011.93 183.805 1012.97 184.712 1013.05 184.78 1013.17 184.772 1013.24 184.695 1013.28 184.645 1013.3 184.575 1013.27 184.512 1012.63 182.655 1010.85 177.971 1008.91 176.541 1006.88 174.969 1003.52 174.439 1001.87 176.675 1000.38 178.692 1001.46 182.139 1004.03 182.137Z" stroke="#FFFFFF" stroke-width="1.33333" fill="#9DDDFD"/><path d="M1031.1 179.391C1032.94 177.753 1035.29 176.8 1037.75 176.691 1039.76 176.46 1040.3 173.665 1038.95 172.22 1037.46 170.62 1034.87 171.337 1033.43 172.753 1032.09 174.001 1031.14 177.607 1030.77 179.217 1030.74 179.322 1030.81 179.425 1030.91 179.448 1030.98 179.463 1031.05 179.441 1031.1 179.391Z" stroke="#FFFFFF" stroke-width="1.33333" fill="#9DDDFD"/><path d="M1010.41 194.959C1011.64 194.566 1012.74 193.829 1013.57 192.833 994.66 193.951 980.333 199.244 980.333 205.609 980.333 212.785 998.54 218.6 1021 218.6 1043.46 218.6 1061.67 212.781 1061.67 205.605 1061.67 199.24 1047.35 193.948 1028.44 192.831 1029.27 193.827 1030.37 194.564 1031.61 194.957 1042.84 196.301 1050.9 199.704 1050.9 203.648L1050.87 204.04 1050.69 204.757C1048.89 209.416 1036.07 212.959 1021 212.959 1004.6 212.959 991.097 208.757 991.097 203.652 991.097 199.705 999.168 196.301 1010.41 194.959Z" stroke="#FFFFFF" stroke-width="1.33333" fill="#9DDDFD"/><path d="M1026.47 188.505C1026.57 188.967 1026.68 189.408 1026.8 189.824 1026.84 189.957 1026.9 190.091 1026.95 190.216 1045.57 191.12 1071 196.104 1071 205.775 1071 216.524 1039.57 221.485 1021 221.485 1002.43 221.485 971 216.524 971 205.775 971 196.103 996.441 191.119 1015.07 190.216 1015.12 190.083 1015.17 189.959 1015.21 189.824 1015.35 189.408 1015.45 188.967 1015.55 188.505 984.231 189.343 959.667 197.348 959.667 208.208 959.667 219.691 987.133 229 1021 229 1054.87 229 1082.33 219.691 1082.33 208.208 1082.33 197.349 1057.77 189.344 1026.47 188.505Z" stroke="#FFFFFF" stroke-width="1.33333" fill="#9DDDFD"/><path d="M1032.4 197.028C1032.01 196.945 1031.63 196.863 1031.23 196.788 1028.13 196.194 1025.53 194.082 1024.31 191.164 1023.63 189.302 1023.28 187.334 1023.29 185.351 1023.19 177.717 1024.95 174.789 1027.92 169.733 1029 168.157 1029.63 166.318 1029.74 164.411 1029.75 159.588 1025.84 155.673 1021.02 155.667L1020.99 155.667C1016.17 155.673 1012.26 159.587 1012.27 164.411 1012.38 166.318 1013.01 168.158 1014.09 169.733 1017.06 174.789 1018.82 177.717 1018.72 185.351 1018.73 187.334 1018.38 189.302 1017.69 191.164 1016.48 194.081 1013.88 196.194 1010.78 196.788L1009.61 197.028C1009.36 197.084 1009.1 197.137 1008.85 197.196 1008.43 197.293 1008.02 197.396 1007.64 197.503L1007.25 197.609C1007.08 197.659 1006.92 197.711 1006.76 197.761 1002.42 199.083 999.667 200.991 999.667 203.12 999.667 207.104 1009.22 210.333 1021 210.333 1032.78 210.333 1042.33 207.104 1042.33 203.12 1042.33 200.987 1039.59 199.083 1035.25 197.761 1035.09 197.711 1034.92 197.659 1034.75 197.609L1034.37 197.503C1033.98 197.396 1033.58 197.293 1033.16 197.196Z" stroke="#FFFFFF" stroke-width="1.33333" fill="#9DDDFD"/></g></svg>