<svg width="129" height="129" xmlns="http://www.w3.org/2000/svg" xmlns:xlink="http://www.w3.org/1999/xlink" xml:space="preserve" overflow="hidden"><defs><clipPath id="clip0"><rect x="160" y="495" width="129" height="129"/></clipPath></defs><g clip-path="url(#clip0)" transform="translate(-160 -495)"><path d="M207.397 548.552C212.695 548.552 215.357 550.234 216.412 551.147 216.49 551.216 216.609 551.208 216.677 551.13 216.722 551.08 216.736 551.009 216.714 550.946 216.061 549.074 214.267 544.353 212.315 542.913 210.271 541.328 206.881 540.794 205.219 543.047 203.718 545.08 204.81 548.554 207.397 548.552Z" stroke="#FFFFFF" stroke-width="1.34375" fill="#007FDE"/><path d="M234.678 545.784C236.533 544.134 238.901 543.173 241.382 543.063 243.407 542.831 243.949 540.014 242.591 538.558 241.086 536.945 238.48 537.668 237.024 539.095 235.68 540.353 234.717 543.986 234.344 545.61 234.321 545.715 234.387 545.819 234.492 545.842 234.56 545.857 234.63 545.835 234.678 545.784Z" stroke="#FFFFFF" stroke-width="1.34375" fill="#007FDE"/><path d="M213.827 561.474C215.07 561.078 216.175 560.335 217.01 559.332 197.954 560.458 183.516 565.793 183.516 572.208 183.516 579.44 201.865 585.3 224.5 585.3 247.135 585.3 265.484 579.436 265.484 572.204 265.484 565.789 251.051 560.455 232.001 559.329 232.838 560.333 233.945 561.076 235.191 561.473 246.511 562.827 254.636 566.256 254.636 570.231L254.603 570.626 254.421 571.349C252.611 576.044 239.684 579.615 224.5 579.615 207.972 579.615 194.364 575.38 194.364 570.235 194.364 566.258 202.497 562.827 213.827 561.474Z" stroke="#FFFFFF" stroke-width="1.34375" fill="#007FDE"/><path d="M230.009 554.97C230.109 555.435 230.22 555.88 230.347 556.299 230.388 556.434 230.445 556.568 230.493 556.694 249.26 557.605 274.891 562.628 274.891 572.374 274.891 583.208 243.216 588.208 224.5 588.208 205.784 588.208 174.109 583.208 174.109 572.374 174.109 562.627 199.749 557.604 218.523 556.694 218.57 556.56 218.628 556.435 218.668 556.299 218.802 555.88 218.907 555.435 219.005 554.97 187.443 555.814 162.688 563.882 162.688 574.827 162.688 586.399 190.369 595.781 224.5 595.781 258.631 595.781 286.312 586.399 286.312 574.827 286.312 563.883 261.562 555.815 230.009 554.97Z" stroke="#FFFFFF" stroke-width="1.34375" fill="#007FDE"/><path d="M235.985 563.559C235.598 563.476 235.212 563.393 234.809 563.318 231.681 562.719 229.063 560.59 227.841 557.65 227.151 555.773 226.801 553.79 226.805 551.791 226.705 544.098 228.483 541.147 231.474 536.052 232.562 534.463 233.198 532.609 233.312 530.687 233.318 525.827 229.382 521.882 224.521 521.875L224.491 521.875C219.629 521.881 215.693 525.826 215.698 530.687 215.812 532.609 216.448 534.464 217.537 536.052 220.528 541.147 222.306 544.098 222.206 551.791 222.21 553.79 221.859 555.773 221.169 557.65 219.946 560.59 217.329 562.719 214.202 563.318L213.026 563.559C212.765 563.616 212.504 563.67 212.253 563.729 211.828 563.827 211.423 563.93 211.033 564.038L210.645 564.145C210.474 564.195 210.31 564.247 210.146 564.299 205.772 565.63 203 567.553 203 569.699 203 573.714 212.631 576.969 224.5 576.969 236.369 576.969 246 573.714 246 569.699 246 567.549 243.233 565.63 238.859 564.299 238.695 564.247 238.531 564.195 238.359 564.145L237.972 564.038C237.581 563.93 237.177 563.827 236.752 563.729Z" stroke="#FFFFFF" stroke-width="1.34375" fill="#007FDE"/></g></svg>