<svg width="129" height="129" xmlns="http://www.w3.org/2000/svg" xmlns:xlink="http://www.w3.org/1999/xlink" xml:space="preserve" overflow="hidden"><defs><clipPath id="clip0"><rect x="1116" y="0" width="129" height="129"/></clipPath></defs><g clip-path="url(#clip0)" transform="translate(-1116 0)"><path d="M1163.4 53.5525C1168.7 53.5525 1171.36 55.2335 1172.41 56.1473 1172.49 56.2158 1172.61 56.2081 1172.68 56.1299 1172.72 56.0795 1172.74 56.0092 1172.71 55.9457 1172.06 54.0738 1170.27 49.3533 1168.31 47.9127 1166.27 46.3285 1162.88 45.7937 1161.22 48.0471 1159.72 50.0802 1160.81 53.5538 1163.4 53.5525Z" stroke="#FFFFFF" stroke-width="1.34375" fill="#CCE5F1"/><path d="M1190.68 50.7843C1192.53 49.1339 1194.9 48.173 1197.38 48.0633 1199.41 47.8308 1199.95 45.0143 1198.59 43.5577 1197.09 41.9452 1194.48 42.6681 1193.02 44.0952 1191.68 45.3529 1190.72 48.9864 1190.34 50.6097 1190.32 50.7147 1190.39 50.8189 1190.49 50.8423 1190.56 50.8573 1190.63 50.8353 1190.68 50.7843Z" stroke="#FFFFFF" stroke-width="1.34375" fill="#CCE5F1"/><path d="M1169.83 66.474C1171.07 66.0782 1172.17 65.335 1173.01 64.332 1153.95 65.4581 1139.52 70.7928 1139.52 77.2078 1139.52 84.4399 1157.86 90.3 1180.5 90.3 1203.14 90.3 1221.48 84.4359 1221.48 77.2038 1221.48 70.7887 1207.05 65.4554 1188 64.3293 1188.84 65.333 1189.95 66.0765 1191.19 66.4726 1202.51 67.8271 1210.64 71.2564 1210.64 75.2312L1210.6 75.6263 1210.42 76.3492C1208.61 81.0443 1195.68 84.6146 1180.5 84.6146 1163.97 84.6146 1150.36 80.3804 1150.36 75.2352 1150.36 71.2577 1158.5 67.8271 1169.83 66.474Z" stroke="#FFFFFF" stroke-width="1.34375" fill="#CCE5F1"/><path d="M1186.01 59.9702C1186.11 60.4352 1186.22 60.8799 1186.35 61.2992 1186.39 61.4336 1186.44 61.5679 1186.49 61.6942 1205.26 62.6053 1230.89 67.6283 1230.89 77.3745 1230.89 88.2078 1199.22 93.2079 1180.5 93.2079 1161.78 93.2079 1130.11 88.2078 1130.11 77.3745 1130.11 67.6269 1155.75 62.604 1174.52 61.6942 1174.57 61.5599 1174.63 61.4349 1174.67 61.2992 1174.8 60.8799 1174.91 60.4352 1175.01 59.9702 1143.44 60.8141 1118.69 68.882 1118.69 79.8268 1118.69 91.3992 1146.37 100.781 1180.5 100.781 1214.63 100.781 1242.31 91.3992 1242.31 79.8268 1242.31 68.8833 1217.56 60.8154 1186.01 59.9702Z" stroke="#FFFFFF" stroke-width="1.34375" fill="#CCE5F1"/><path d="M1191.98 68.5595C1191.6 68.4762 1191.21 68.3928 1190.81 68.3176 1187.68 67.7194 1185.06 65.59 1183.84 62.6497 1183.15 60.7734 1182.8 58.7897 1182.8 56.7909 1182.71 49.0979 1184.48 46.1471 1187.47 41.0516 1188.56 39.4634 1189.2 37.6091 1189.31 35.6873 1189.32 30.8267 1185.38 26.8817 1180.52 26.875L1180.49 26.875C1175.63 26.8809 1171.69 30.8262 1171.7 35.6873 1171.81 37.6091 1172.45 39.4637 1173.54 41.0516 1176.53 46.1471 1178.31 49.0979 1178.21 56.7909 1178.21 58.7899 1177.86 60.7735 1177.17 62.6497 1175.95 65.5896 1173.33 67.719 1170.2 68.3176L1169.03 68.5595C1168.77 68.6159 1168.5 68.6697 1168.25 68.7288 1167.83 68.8269 1167.42 68.9303 1167.03 69.0378L1166.64 69.1453C1166.47 69.1951 1166.31 69.2475 1166.15 69.2985 1161.77 70.6302 1159 72.5531 1159 74.6991 1159 78.7142 1168.63 81.9688 1180.5 81.9688 1192.37 81.9688 1202 78.7142 1202 74.6991 1202 72.5491 1199.23 70.6302 1194.86 69.2985 1194.7 69.2475 1194.53 69.1951 1194.36 69.1453L1193.97 69.0378C1193.58 68.9303 1193.18 68.8269 1192.75 68.7288Z" stroke="#FFFFFF" stroke-width="1.34375" fill="#CCE5F1"/></g></svg>