<svg width="129" height="129" xmlns="http://www.w3.org/2000/svg" xmlns:xlink="http://www.w3.org/1999/xlink" xml:space="preserve" overflow="hidden"><defs><clipPath id="clip0"><rect x="797" y="267" width="129" height="129"/></clipPath></defs><g clip-path="url(#clip0)" transform="translate(-797 -267)"><path d="M844.397 320.552C849.695 320.552 852.357 322.233 853.412 323.147 853.49 323.216 853.609 323.208 853.677 323.13 853.722 323.08 853.736 323.009 853.714 322.946 853.061 321.074 851.267 316.353 849.315 314.913 847.271 313.328 843.881 312.794 842.219 315.047 840.718 317.08 841.81 320.554 844.397 320.552Z" stroke="#FFFFFF" stroke-width="1.34375" fill="#677CE4"/><path d="M871.678 317.784C873.533 316.134 875.901 315.173 878.382 315.063 880.407 314.831 880.949 312.014 879.591 310.558 878.086 308.945 875.48 309.668 874.024 311.095 872.68 312.353 871.717 315.986 871.344 317.61 871.321 317.715 871.387 317.819 871.492 317.842 871.56 317.857 871.63 317.835 871.678 317.784Z" stroke="#FFFFFF" stroke-width="1.34375" fill="#677CE4"/><path d="M850.827 333.474C852.07 333.078 853.175 332.335 854.01 331.332 834.954 332.458 820.516 337.793 820.516 344.208 820.516 351.44 838.865 357.3 861.5 357.3 884.135 357.3 902.484 351.436 902.484 344.204 902.484 337.789 888.051 332.455 869.001 331.329 869.838 332.333 870.945 333.076 872.191 333.473 883.511 334.827 891.636 338.256 891.636 342.231L891.603 342.626 891.421 343.349C889.611 348.044 876.684 351.615 861.5 351.615 844.972 351.615 831.364 347.38 831.364 342.235 831.364 338.258 839.497 334.827 850.827 333.474Z" stroke="#FFFFFF" stroke-width="1.34375" fill="#677CE4"/><path d="M867.009 326.97C867.109 327.435 867.22 327.88 867.347 328.299 867.388 328.434 867.445 328.568 867.493 328.694 886.26 329.605 911.891 334.628 911.891 344.374 911.891 355.208 880.216 360.208 861.5 360.208 842.784 360.208 811.109 355.208 811.109 344.374 811.109 334.627 836.749 329.604 855.523 328.694 855.57 328.56 855.628 328.435 855.668 328.299 855.802 327.88 855.907 327.435 856.005 326.97 824.443 327.814 799.688 335.882 799.688 346.827 799.688 358.399 827.369 367.781 861.5 367.781 895.631 367.781 923.312 358.399 923.312 346.827 923.312 335.883 898.562 327.815 867.009 326.97Z" stroke="#FFFFFF" stroke-width="1.34375" fill="#677CE4"/><path d="M872.985 335.559C872.598 335.476 872.212 335.393 871.809 335.318 868.681 334.719 866.063 332.59 864.841 329.65 864.151 327.773 863.8 325.79 863.805 323.791 863.705 316.098 865.483 313.147 868.474 308.052 869.562 306.463 870.198 304.609 870.312 302.687 870.318 297.827 866.382 293.882 861.521 293.875L861.491 293.875C856.629 293.881 852.693 297.826 852.698 302.687 852.812 304.609 853.448 306.464 854.537 308.052 857.528 313.147 859.306 316.098 859.206 323.791 859.21 325.79 858.859 327.773 858.169 329.65 856.946 332.59 854.329 334.719 851.201 335.318L850.026 335.559C849.765 335.616 849.504 335.67 849.253 335.729 848.828 335.827 848.423 335.93 848.033 336.038L847.645 336.145C847.474 336.195 847.31 336.247 847.146 336.299 842.772 337.63 840 339.553 840 341.699 840 345.714 849.631 348.969 861.5 348.969 873.369 348.969 883 345.714 883 341.699 883 339.549 880.233 337.63 875.859 336.299 875.695 336.247 875.531 336.195 875.359 336.145L874.972 336.038C874.581 335.93 874.177 335.827 873.752 335.729Z" stroke="#FFFFFF" stroke-width="1.34375" fill="#677CE4"/></g></svg>