<svg width="128" height="129" xmlns="http://www.w3.org/2000/svg" xmlns:xlink="http://www.w3.org/1999/xlink" xml:space="preserve" overflow="hidden"><defs><clipPath id="clip0"><rect x="479" y="267" width="128" height="129"/></clipPath></defs><g clip-path="url(#clip0)" transform="translate(-479 -267)"><path d="M47.0293 53.1373C52.2867 53.1373 54.928 54.8053 55.9747 55.712 56.0521 55.78 56.1701 55.7724 56.2381 55.6948 56.282 55.6448 56.296 55.5751 56.2747 55.512 55.6267 53.6547 53.8467 48.9707 51.9093 47.5413 49.8813 45.9693 46.5173 45.4387 44.868 47.6747 43.3787 49.692 44.4627 53.1387 47.0293 53.1373Z" stroke="#FFFFFF" stroke-width="1.33333" fill="#0222BD" transform="matrix(1 0 0 1.00781 479 267)"/><path d="M74.0987 50.3907C75.9399 48.7531 78.2889 47.7996 80.7507 47.6907 82.76 47.46 83.2987 44.6653 81.9507 43.22 80.4573 41.62 77.872 42.3373 76.4267 43.7533 75.0933 45.0013 74.1373 48.6067 73.768 50.2173 73.7448 50.3216 73.8104 50.4249 73.9145 50.4481 73.9819 50.4631 74.0519 50.4412 74.0987 50.3907Z" stroke="#FFFFFF" stroke-width="1.33333" fill="#0222BD" transform="matrix(1 0 0 1.00781 479 267)"/><path d="M53.4093 65.9587C54.6433 65.566 55.7393 64.8285 56.568 63.8333 37.66 64.9507 23.3333 70.244 23.3333 76.6093 23.3333 83.7853 41.54 89.6 64 89.6 86.46 89.6 104.667 83.7813 104.667 76.6053 104.667 70.24 90.3453 64.948 71.4427 63.8307 72.2737 64.8265 73.3719 65.5643 74.608 65.9573 85.84 67.3013 93.9027 70.704 93.9027 74.648L93.8693 75.04 93.6893 75.7573C91.8933 80.416 79.0667 83.9587 64 83.9587 47.6 83.9587 34.0973 79.7573 34.0973 74.652 34.0973 70.7053 42.168 67.3013 53.4093 65.9587Z" stroke="#FFFFFF" stroke-width="1.33333" fill="#0222BD" transform="matrix(1 0 0 1.00781 479 267)"/><path d="M69.4667 59.5053C69.5653 59.9667 69.676 60.408 69.8013 60.824 69.8427 60.9573 69.8987 61.0907 69.9467 61.216 88.568 62.12 114 67.104 114 76.7747 114 87.524 82.5707 92.4853 64 92.4853 45.4293 92.4853 14 87.524 14 76.7747 14 67.1027 39.4413 62.1187 58.0693 61.216 58.116 61.0827 58.1733 60.9587 58.2133 60.824 58.3467 60.408 58.4507 59.9667 58.548 59.5053 27.2307 60.3427 2.66667 68.348 2.66667 79.208 2.66667 90.6907 30.1333 100 64 100 97.8667 100 125.333 90.6907 125.333 79.208 125.333 68.3493 100.775 60.344 69.4667 59.5053Z" stroke="#FFFFFF" stroke-width="1.33333" fill="#0222BD" transform="matrix(1 0 0 1.00781 479 267)"/><path d="M75.396 68.028C75.012 67.9453 74.6293 67.8627 74.2293 67.788 71.1257 67.1944 68.528 65.0816 67.3147 62.164 66.6307 60.3023 66.2827 58.334 66.2867 56.3507 66.188 48.7173 67.952 45.7893 70.92 40.7333 71.9997 39.1575 72.6303 37.3176 72.744 35.4107 72.7492 30.5877 68.8443 26.6733 64.0213 26.6667L63.9907 26.6667C59.1672 26.6725 55.2615 30.5872 55.2667 35.4107 55.3797 37.3176 56.0104 39.1577 57.0907 40.7333 60.0587 45.7893 61.8227 48.7173 61.724 56.3507 61.7276 58.3341 61.3791 60.3024 60.6947 62.164 59.4816 65.0812 56.8844 67.194 53.7813 67.788L52.6147 68.028C52.356 68.084 52.0973 68.1373 51.848 68.196 51.4267 68.2933 51.024 68.396 50.6373 68.5027L50.252 68.6093C50.0827 68.6587 49.92 68.7107 49.7573 68.7613 45.4173 70.0827 42.6667 71.9907 42.6667 74.12 42.6667 78.104 52.2227 81.3333 64 81.3333 75.7773 81.3333 85.3333 78.104 85.3333 74.12 85.3333 71.9867 82.588 70.0827 78.248 68.7613 78.0853 68.7107 77.9227 68.6587 77.752 68.6093L77.368 68.5027C76.98 68.396 76.5787 68.2933 76.1573 68.196Z" stroke="#FFFFFF" stroke-width="1.33333" fill="#0222BD" transform="matrix(1 0 0 1.00781 479 267)"/></g></svg>