<svg width="129" height="129" xmlns="http://www.w3.org/2000/svg" xmlns:xlink="http://www.w3.org/1999/xlink" xml:space="preserve" overflow="hidden"><defs><clipPath id="clip0"><rect x="797" y="490" width="129" height="129"/></clipPath></defs><g clip-path="url(#clip0)" transform="translate(-797 -490)"><path d="M844.397 543.552C849.695 543.552 852.357 545.234 853.412 546.147 853.49 546.216 853.609 546.208 853.677 546.13 853.722 546.08 853.736 546.009 853.714 545.946 853.061 544.074 851.267 539.353 849.315 537.913 847.271 536.328 843.881 535.794 842.219 538.047 840.718 540.08 841.81 543.554 844.397 543.552Z" stroke="#FFFFFF" stroke-width="1.34375" fill="#6DC0FF"/><path d="M871.678 540.784C873.533 539.134 875.901 538.173 878.382 538.063 880.407 537.831 880.949 535.014 879.591 533.558 878.086 531.945 875.48 532.668 874.024 534.095 872.68 535.353 871.717 538.986 871.344 540.61 871.321 540.715 871.387 540.819 871.492 540.842 871.56 540.857 871.63 540.835 871.678 540.784Z" stroke="#FFFFFF" stroke-width="1.34375" fill="#6DC0FF"/><path d="M850.827 556.474C852.07 556.078 853.175 555.335 854.01 554.332 834.954 555.458 820.516 560.793 820.516 567.208 820.516 574.44 838.865 580.3 861.5 580.3 884.135 580.3 902.484 574.436 902.484 567.204 902.484 560.789 888.051 555.455 869.001 554.329 869.838 555.333 870.945 556.076 872.191 556.473 883.511 557.827 891.636 561.256 891.636 565.231L891.603 565.626 891.421 566.349C889.611 571.044 876.684 574.615 861.5 574.615 844.972 574.615 831.364 570.38 831.364 565.235 831.364 561.258 839.497 557.827 850.827 556.474Z" stroke="#FFFFFF" stroke-width="1.34375" fill="#6DC0FF"/><path d="M867.009 549.97C867.109 550.435 867.22 550.88 867.347 551.299 867.388 551.434 867.445 551.568 867.493 551.694 886.26 552.605 911.891 557.628 911.891 567.374 911.891 578.208 880.216 583.208 861.5 583.208 842.784 583.208 811.109 578.208 811.109 567.374 811.109 557.627 836.749 552.604 855.523 551.694 855.57 551.56 855.628 551.435 855.668 551.299 855.802 550.88 855.907 550.435 856.005 549.97 824.443 550.814 799.688 558.882 799.688 569.827 799.688 581.399 827.369 590.781 861.5 590.781 895.631 590.781 923.312 581.399 923.312 569.827 923.312 558.883 898.562 550.815 867.009 549.97Z" stroke="#FFFFFF" stroke-width="1.34375" fill="#6DC0FF"/><path d="M872.985 558.559C872.598 558.476 872.212 558.393 871.809 558.318 868.681 557.719 866.063 555.59 864.841 552.65 864.151 550.773 863.8 548.79 863.805 546.791 863.705 539.098 865.483 536.147 868.474 531.052 869.562 529.463 870.198 527.609 870.312 525.687 870.318 520.827 866.382 516.882 861.521 516.875L861.491 516.875C856.629 516.881 852.693 520.826 852.698 525.687 852.812 527.609 853.448 529.464 854.537 531.052 857.528 536.147 859.306 539.098 859.206 546.791 859.21 548.79 858.859 550.773 858.169 552.65 856.946 555.59 854.329 557.719 851.201 558.318L850.026 558.559C849.765 558.616 849.504 558.67 849.253 558.729 848.828 558.827 848.423 558.93 848.033 559.038L847.645 559.145C847.474 559.195 847.31 559.247 847.146 559.299 842.772 560.63 840 562.553 840 564.699 840 568.714 849.631 571.969 861.5 571.969 873.369 571.969 883 568.714 883 564.699 883 562.549 880.233 560.63 875.859 559.299 875.695 559.247 875.531 559.195 875.359 559.145L874.972 559.038C874.581 558.93 874.177 558.827 873.752 558.729Z" stroke="#FFFFFF" stroke-width="1.34375" fill="#6DC0FF"/></g></svg>