<svg width="129" height="129" xmlns="http://www.w3.org/2000/svg" xmlns:xlink="http://www.w3.org/1999/xlink" xml:space="preserve" overflow="hidden"><defs><clipPath id="clip0"><rect x="1" y="495" width="129" height="129"/></clipPath></defs><g clip-path="url(#clip0)" transform="translate(-1 -495)"><path d="M48.3967 548.552C53.6952 548.552 56.3571 550.234 57.412 551.147 57.49 551.216 57.609 551.208 57.6775 551.13 57.7217 551.08 57.7358 551.009 57.7143 550.946 57.0613 549.074 55.2673 544.353 53.3149 542.913 51.271 541.328 47.8808 540.794 46.2185 543.047 44.7176 545.08 45.81 548.554 48.3967 548.552Z" stroke="#FFFFFF" stroke-width="1.34375" fill="#0070C0"/><path d="M75.6776 545.784C77.5331 544.134 79.9006 543.173 82.3815 543.063 84.4066 542.831 84.9494 540.014 83.5909 538.558 82.0859 536.945 79.4804 537.668 78.0238 539.095 76.68 540.353 75.7165 543.986 75.3443 545.61 75.3209 545.715 75.387 545.819 75.492 545.842 75.5599 545.857 75.6304 545.835 75.6776 545.784Z" stroke="#FFFFFF" stroke-width="1.34375" fill="#0070C0"/><path d="M54.8266 561.474C56.0702 561.078 57.1748 560.335 58.0099 559.332 38.9542 560.458 24.5156 565.793 24.5156 572.208 24.5156 579.44 42.8645 585.3 65.5 585.3 88.1355 585.3 106.484 579.436 106.484 572.204 106.484 565.789 92.0512 560.455 73.0008 559.329 73.8384 560.333 74.9451 561.076 76.1909 561.473 87.5106 562.827 95.6363 566.256 95.6363 570.231L95.6027 570.626 95.4213 571.349C93.6112 576.044 80.6844 579.615 65.5 579.615 48.9719 579.615 35.3637 575.38 35.3637 570.235 35.3637 566.258 43.4974 562.827 54.8266 561.474Z" stroke="#FFFFFF" stroke-width="1.34375" fill="#0070C0"/><path d="M71.0094 554.97C71.1088 555.435 71.2203 555.88 71.3467 556.299 71.3883 556.434 71.4447 556.568 71.4931 556.694 90.2599 557.605 115.891 562.628 115.891 572.374 115.891 583.208 84.2158 588.208 65.5 588.208 46.7842 588.208 15.1094 583.208 15.1094 572.374 15.1094 562.627 40.7495 557.604 59.523 556.694 59.57 556.56 59.6278 556.435 59.6681 556.299 59.8025 555.88 59.9073 555.435 60.0054 554.97 28.4434 555.814 3.6875 563.882 3.6875 574.827 3.6875 586.399 31.3687 595.781 65.5 595.781 99.6312 595.781 127.312 586.399 127.312 574.827 127.312 563.883 102.562 555.815 71.0094 554.97Z" stroke="#FFFFFF" stroke-width="1.34375" fill="#0070C0"/><path d="M76.985 563.559C76.598 563.476 76.2124 563.393 75.8092 563.318 72.6814 562.719 70.0634 560.59 68.8406 557.65 68.1512 555.773 67.8005 553.79 67.8045 551.791 67.7051 544.098 69.4829 541.147 72.4741 536.052 73.5622 534.463 74.1977 532.609 74.3123 530.687 74.3176 525.827 70.3821 521.882 65.5215 521.875L65.4906 521.875C60.6294 521.881 56.6932 525.826 56.6984 530.687 56.8124 532.609 57.448 534.464 58.5367 536.052 61.5279 541.147 63.3057 544.098 63.2062 551.791 63.2098 553.79 62.8586 555.773 62.1688 557.65 60.9463 560.59 58.3288 562.719 55.2015 563.318L54.0257 563.559C53.765 563.616 53.5043 563.67 53.2531 563.729 52.8284 563.827 52.4226 563.93 52.0329 564.038L51.6446 564.145C51.4739 564.195 51.31 564.247 51.1461 564.299 46.7722 565.63 44 567.553 44 569.699 44 573.714 53.6307 576.969 65.5 576.969 77.3693 576.969 87 573.714 87 569.699 87 567.549 84.2332 565.63 79.8593 564.299 79.6954 564.247 79.5314 564.195 79.3594 564.145L78.9724 564.038C78.5814 563.93 78.1769 563.827 77.7523 563.729Z" stroke="#FFFFFF" stroke-width="1.34375" fill="#0070C0"/></g></svg>