<svg width="128" height="128" xmlns="http://www.w3.org/2000/svg" xmlns:xlink="http://www.w3.org/1999/xlink" xml:space="preserve" overflow="hidden"><defs><clipPath id="clip0"><rect x="957" y="386" width="128" height="128"/></clipPath></defs><g clip-path="url(#clip0)" transform="translate(-957 -386)"><path d="M1004.03 439.137C1009.29 439.137 1011.93 440.805 1012.97 441.712 1013.05 441.78 1013.17 441.772 1013.24 441.695 1013.28 441.645 1013.3 441.575 1013.27 441.512 1012.63 439.655 1010.85 434.971 1008.91 433.541 1006.88 431.969 1003.52 431.439 1001.87 433.675 1000.38 435.692 1001.46 439.139 1004.03 439.137Z" stroke="#FFFFFF" stroke-width="1.33333" fill="#4AF8FC"/><path d="M1031.1 436.391C1032.94 434.753 1035.29 433.8 1037.75 433.691 1039.76 433.46 1040.3 430.665 1038.95 429.22 1037.46 427.62 1034.87 428.337 1033.43 429.753 1032.09 431.001 1031.14 434.607 1030.77 436.217 1030.74 436.322 1030.81 436.425 1030.91 436.448 1030.98 436.463 1031.05 436.441 1031.1 436.391Z" stroke="#FFFFFF" stroke-width="1.33333" fill="#4AF8FC"/><path d="M1010.41 451.959C1011.64 451.566 1012.74 450.829 1013.57 449.833 994.66 450.951 980.333 456.244 980.333 462.609 980.333 469.785 998.54 475.6 1021 475.6 1043.46 475.6 1061.67 469.781 1061.67 462.605 1061.67 456.24 1047.35 450.948 1028.44 449.831 1029.27 450.827 1030.37 451.564 1031.61 451.957 1042.84 453.301 1050.9 456.704 1050.9 460.648L1050.87 461.04 1050.69 461.757C1048.89 466.416 1036.07 469.959 1021 469.959 1004.6 469.959 991.097 465.757 991.097 460.652 991.097 456.705 999.168 453.301 1010.41 451.959Z" stroke="#FFFFFF" stroke-width="1.33333" fill="#4AF8FC"/><path d="M1026.47 445.505C1026.57 445.967 1026.68 446.408 1026.8 446.824 1026.84 446.957 1026.9 447.091 1026.95 447.216 1045.57 448.12 1071 453.104 1071 462.775 1071 473.524 1039.57 478.485 1021 478.485 1002.43 478.485 971 473.524 971 462.775 971 453.103 996.441 448.119 1015.07 447.216 1015.12 447.083 1015.17 446.959 1015.21 446.824 1015.35 446.408 1015.45 445.967 1015.55 445.505 984.231 446.343 959.667 454.348 959.667 465.208 959.667 476.691 987.133 486 1021 486 1054.87 486 1082.33 476.691 1082.33 465.208 1082.33 454.349 1057.77 446.344 1026.47 445.505Z" stroke="#FFFFFF" stroke-width="1.33333" fill="#4AF8FC"/><path d="M1032.4 454.028C1032.01 453.945 1031.63 453.863 1031.23 453.788 1028.13 453.194 1025.53 451.082 1024.31 448.164 1023.63 446.302 1023.28 444.334 1023.29 442.351 1023.19 434.717 1024.95 431.789 1027.92 426.733 1029 425.157 1029.63 423.318 1029.74 421.411 1029.75 416.588 1025.84 412.673 1021.02 412.667L1020.99 412.667C1016.17 412.673 1012.26 416.587 1012.27 421.411 1012.38 423.318 1013.01 425.158 1014.09 426.733 1017.06 431.789 1018.82 434.717 1018.72 442.351 1018.73 444.334 1018.38 446.302 1017.69 448.164 1016.48 451.081 1013.88 453.194 1010.78 453.788L1009.61 454.028C1009.36 454.084 1009.1 454.137 1008.85 454.196 1008.43 454.293 1008.02 454.396 1007.64 454.503L1007.25 454.609C1007.08 454.659 1006.92 454.711 1006.76 454.761 1002.42 456.083 999.667 457.991 999.667 460.12 999.667 464.104 1009.22 467.333 1021 467.333 1032.78 467.333 1042.33 464.104 1042.33 460.12 1042.33 457.987 1039.59 456.083 1035.25 454.761 1035.09 454.711 1034.92 454.659 1034.75 454.609L1034.37 454.503C1033.98 454.396 1033.58 454.293 1033.16 454.196Z" stroke="#FFFFFF" stroke-width="1.33333" fill="#4AF8FC"/></g></svg>