<svg width="129" height="129" xmlns="http://www.w3.org/2000/svg" xmlns:xlink="http://www.w3.org/1999/xlink" xml:space="preserve" overflow="hidden"><defs><clipPath id="clip0"><rect x="1" y="0" width="129" height="129"/></clipPath></defs><g clip-path="url(#clip0)" transform="translate(-1 0)"><path d="M48.3967 53.5525C53.6952 53.5525 56.3571 55.2335 57.412 56.1473 57.49 56.2158 57.609 56.2081 57.6775 56.1299 57.7217 56.0795 57.7358 56.0092 57.7143 55.9457 57.0613 54.0738 55.2673 49.3533 53.3149 47.9127 51.271 46.3285 47.8808 45.7937 46.2185 48.0471 44.7176 50.0802 45.81 53.5538 48.3967 53.5525Z" stroke="#FFFFFF" stroke-width="1.34375" fill="#01324A"/><path d="M75.6776 50.7843C77.5331 49.1339 79.9006 48.173 82.3815 48.0633 84.4066 47.8308 84.9494 45.0143 83.5909 43.5577 82.0859 41.9452 79.4804 42.6681 78.0238 44.0952 76.68 45.3529 75.7165 48.9864 75.3443 50.6097 75.3209 50.7147 75.387 50.8189 75.492 50.8423 75.5599 50.8573 75.6304 50.8353 75.6776 50.7843Z" stroke="#FFFFFF" stroke-width="1.34375" fill="#01324A"/><path d="M54.8266 66.474C56.0702 66.0782 57.1748 65.335 58.0099 64.332 38.9542 65.4581 24.5156 70.7928 24.5156 77.2078 24.5156 84.4399 42.8645 90.3 65.5 90.3 88.1355 90.3 106.484 84.4359 106.484 77.2038 106.484 70.7887 92.0512 65.4554 73.0008 64.3293 73.8384 65.333 74.9451 66.0765 76.1909 66.4726 87.5106 67.8271 95.6363 71.2564 95.6363 75.2312L95.6027 75.6263 95.4213 76.3492C93.6112 81.0443 80.6844 84.6146 65.5 84.6146 48.9719 84.6146 35.3637 80.3804 35.3637 75.2352 35.3637 71.2577 43.4974 67.8271 54.8266 66.474Z" stroke="#FFFFFF" stroke-width="1.34375" fill="#01324A"/><path d="M71.0094 59.9702C71.1088 60.4352 71.2203 60.8799 71.3467 61.2992 71.3883 61.4336 71.4447 61.5679 71.4931 61.6942 90.2599 62.6053 115.891 67.6283 115.891 77.3745 115.891 88.2078 84.2158 93.2079 65.5 93.2079 46.7842 93.2079 15.1094 88.2078 15.1094 77.3745 15.1094 67.6269 40.7495 62.604 59.523 61.6942 59.57 61.5599 59.6278 61.4349 59.6681 61.2992 59.8025 60.8799 59.9073 60.4352 60.0054 59.9702 28.4434 60.8141 3.6875 68.882 3.6875 79.8268 3.6875 91.3992 31.3687 100.781 65.5 100.781 99.6312 100.781 127.312 91.3992 127.312 79.8268 127.312 68.8833 102.562 60.8154 71.0094 59.9702Z" stroke="#FFFFFF" stroke-width="1.34375" fill="#01324A"/><path d="M76.985 68.5595C76.598 68.4762 76.2124 68.3928 75.8092 68.3176 72.6814 67.7194 70.0634 65.59 68.8406 62.6497 68.1512 60.7734 67.8005 58.7897 67.8045 56.7909 67.7051 49.0979 69.4829 46.1471 72.4741 41.0516 73.5622 39.4634 74.1977 37.6091 74.3123 35.6873 74.3176 30.8267 70.3821 26.8817 65.5215 26.875L65.4906 26.875C60.6294 26.8809 56.6932 30.8262 56.6984 35.6873 56.8124 37.6091 57.448 39.4637 58.5367 41.0516 61.5279 46.1471 63.3057 49.0979 63.2062 56.7909 63.2098 58.7899 62.8586 60.7735 62.1688 62.6497 60.9463 65.5896 58.3288 67.719 55.2015 68.3176L54.0257 68.5595C53.765 68.6159 53.5043 68.6697 53.2531 68.7288 52.8284 68.8269 52.4226 68.9303 52.0329 69.0378L51.6446 69.1453C51.4739 69.1951 51.31 69.2475 51.1461 69.2985 46.7722 70.6302 44 72.5531 44 74.6991 44 78.7142 53.6307 81.9688 65.5 81.9688 77.3693 81.9688 87 78.7142 87 74.6991 87 72.5491 84.2332 70.6302 79.8593 69.2985 79.6954 69.2475 79.5314 69.1951 79.3594 69.1453L78.9724 69.0378C78.5814 68.9303 78.1769 68.8269 77.7523 68.7288Z" stroke="#FFFFFF" stroke-width="1.34375" fill="#01324A"/></g></svg>