<svg width="129" height="129" xmlns="http://www.w3.org/2000/svg" xmlns:xlink="http://www.w3.org/1999/xlink" xml:space="preserve" overflow="hidden"><defs><clipPath id="clip0"><rect x="638" y="0" width="129" height="129"/></clipPath></defs><g clip-path="url(#clip0)" transform="translate(-638 0)"><path d="M685.397 53.5525C690.695 53.5525 693.357 55.2335 694.412 56.1473 694.49 56.2158 694.609 56.2081 694.677 56.1299 694.722 56.0795 694.736 56.0092 694.714 55.9457 694.061 54.0738 692.267 49.3533 690.315 47.9127 688.271 46.3285 684.881 45.7937 683.219 48.0471 681.718 50.0802 682.81 53.5538 685.397 53.5525Z" stroke="#FFFFFF" stroke-width="1.34375" fill="#4EA4CE"/><path d="M712.678 50.7843C714.533 49.1339 716.901 48.173 719.382 48.0633 721.407 47.8308 721.949 45.0143 720.591 43.5577 719.086 41.9452 716.48 42.6681 715.024 44.0952 713.68 45.3529 712.717 48.9864 712.344 50.6097 712.321 50.7147 712.387 50.8189 712.492 50.8423 712.56 50.8573 712.63 50.8353 712.678 50.7843Z" stroke="#FFFFFF" stroke-width="1.34375" fill="#4EA4CE"/><path d="M691.827 66.474C693.07 66.0782 694.175 65.335 695.01 64.332 675.954 65.4581 661.516 70.7928 661.516 77.2078 661.516 84.4399 679.865 90.3 702.5 90.3 725.135 90.3 743.484 84.4359 743.484 77.2038 743.484 70.7887 729.051 65.4554 710.001 64.3293 710.838 65.333 711.945 66.0765 713.191 66.4726 724.511 67.8271 732.636 71.2564 732.636 75.2312L732.603 75.6263 732.421 76.3492C730.611 81.0443 717.684 84.6146 702.5 84.6146 685.972 84.6146 672.364 80.3804 672.364 75.2352 672.364 71.2577 680.497 67.8271 691.827 66.474Z" stroke="#FFFFFF" stroke-width="1.34375" fill="#4EA4CE"/><path d="M708.009 59.9702C708.109 60.4352 708.22 60.8799 708.347 61.2992 708.388 61.4336 708.445 61.5679 708.493 61.6942 727.26 62.6053 752.891 67.6283 752.891 77.3745 752.891 88.2078 721.216 93.2079 702.5 93.2079 683.784 93.2079 652.109 88.2078 652.109 77.3745 652.109 67.6269 677.749 62.604 696.523 61.6942 696.57 61.5599 696.628 61.4349 696.668 61.2992 696.802 60.8799 696.907 60.4352 697.005 59.9702 665.443 60.8141 640.688 68.882 640.688 79.8268 640.688 91.3992 668.369 100.781 702.5 100.781 736.631 100.781 764.312 91.3992 764.312 79.8268 764.312 68.8833 739.562 60.8154 708.009 59.9702Z" stroke="#FFFFFF" stroke-width="1.34375" fill="#4EA4CE"/><path d="M713.985 68.5595C713.598 68.4762 713.212 68.3928 712.809 68.3176 709.681 67.7194 707.063 65.59 705.841 62.6497 705.151 60.7734 704.8 58.7897 704.805 56.7909 704.705 49.0979 706.483 46.1471 709.474 41.0516 710.562 39.4634 711.198 37.6091 711.312 35.6873 711.318 30.8267 707.382 26.8817 702.521 26.875L702.491 26.875C697.629 26.8809 693.693 30.8262 693.698 35.6873 693.812 37.6091 694.448 39.4637 695.537 41.0516 698.528 46.1471 700.306 49.0979 700.206 56.7909 700.21 58.7899 699.859 60.7735 699.169 62.6497 697.946 65.5896 695.329 67.719 692.201 68.3176L691.026 68.5595C690.765 68.6159 690.504 68.6697 690.253 68.7288 689.828 68.8269 689.423 68.9303 689.033 69.0378L688.645 69.1453C688.474 69.1951 688.31 69.2475 688.146 69.2985 683.772 70.6302 681 72.5531 681 74.6991 681 78.7142 690.631 81.9688 702.5 81.9688 714.369 81.9688 724 78.7142 724 74.6991 724 72.5491 721.233 70.6302 716.859 69.2985 716.695 69.2475 716.531 69.1951 716.359 69.1453L715.972 69.0378C715.581 68.9303 715.177 68.8269 714.752 68.7288Z" stroke="#FFFFFF" stroke-width="1.34375" fill="#4EA4CE"/></g></svg>