<svg xmlns="http://www.w3.org/2000/svg" id="iconoAGUA" viewBox="0 0 128 128"><defs><style>.cls-1{fill:#ffed00}.cls-2{fill:#e30613}.cls-3{fill:#7b6a58}.cls-4{fill:#662483;font-family:MyriadPro-Bold,&apos;Myriad Pro&apos;;font-size:50px;letter-spacing:.05em}.cls-5{fill:none;stroke:#a3195b;stroke-miterlimit:10;stroke-width:4px}</style></defs><g><rect width="124" height="124" x="2" y="1.82" class="cls-1" rx="22" ry="22"/><path d="M104,3.82c11.03,0,20,8.97,20,20V103.82c0,11.03-8.97,20-20,20H24c-11.03,0-20-8.97-20-20V23.82C4,12.79,12.97,3.82,24,3.82H104m0-4H24C10.75-.18,0,10.56,0,23.82V103.82C0,117.07,10.75,127.82,24,127.82H104c13.25,0,24-10.75,24-24V23.82C128,10.56,117.25-.18,104-.18h0Z" class="cls-3"/></g><rect width="48.31" height="48.31" x="39.85" y="64.93" class="cls-5" rx="8.76" ry="8.76"/><path d="M48.41,92.43l12.94,14.35c1.18,1.31,3.25,1.25,4.35-.13l35.59-44.55c2.16-2.7-1.18-4.51-3.81-2.27l-35.19,31.15c-.78,.66-1.86,.86-2.82,.51l-8.32-2.77c-2.79-1.02-4.73,1.5-2.73,3.71Z" class="cls-2"/><text class="cls-4" transform="translate(9.88 53.09)"><tspan x="0" y="0">SEIA</tspan></text></svg>