<?xml version="1.0" encoding="UTF-8"?><svg id="iconoAGUA" xmlns="http://www.w3.org/2000/svg" viewBox="0 0 128 128"><defs><style>.cls-1{fill:#ededed;}.cls-2{fill:#ffed00;}.cls-3{fill:#3aaa35;}.cls-4{fill:#e71d73;font-family:MyriadPro-Bold, 'Myriad Pro';font-size:50px;letter-spacing:.05em;}.cls-5{fill:none;stroke:#e71d73;stroke-miterlimit:10;stroke-width:4px;}</style></defs><g><rect class="cls-1" x="2" y="2" width="124" height="124" rx="22" ry="22"/><path class="cls-2" d="M104,4c11.03,0,20,8.97,20,20V104c0,11.03-8.97,20-20,20H24c-11.03,0-20-8.97-20-20V24C4,12.97,12.97,4,24,4H104M104,0H24C10.74,0,0,10.75,0,24V104C0,117.25,10.74,128,24,128H104c13.25,0,24-10.75,24-24V24C128,10.75,117.25,0,104,0h0Z"/></g><rect class="cls-5" x="39.85" y="64.93" width="48.31" height="48.31" rx="8.76" ry="8.76"/><path class="cls-3" d="M48.41,92.43l12.94,14.35c1.18,1.31,3.25,1.25,4.35-.13l35.59-44.55c2.16-2.7-1.18-4.51-3.81-2.27l-35.19,31.15c-.78,.66-1.86,.86-2.82,.51l-8.32-2.77c-2.79-1.02-4.73,1.5-2.73,3.71Z"/><text class="cls-4" transform="translate(9.88 53.09)"><tspan x="0" y="0">SEIA</tspan></text></svg>