<?xml version="1.0" encoding="UTF-8"?><svg xmlns="http://www.w3.org/2000/svg" viewBox="0 0 128 128"><defs><style>.cls-1{fill:#fff;}.cls-2{fill:#ffec00;}.cls-3{fill:#00a099;}</style></defs><g id="basecuadro"><g><rect class="cls-3" x="2" y="2" width="124" height="124" rx="22" ry="22"/><path class="cls-2" d="M104,4c11.03,0,20,8.97,20,20V104c0,11.03-8.97,20-20,20H24c-11.03,0-20-8.97-20-20V24C4,12.97,12.97,4,24,4H104M104,0H24C10.75,0,0,10.75,0,24V104C0,117.25,10.75,128,24,128H104c13.25,0,24-10.75,24-24V24C128,10.75,117.26,0,104,0h0Z"/></g></g><g id="figura"><g><path class="cls-1" d="M20.96,100.56c-.97,.97-1.8,2.09-2.44,3.31l-5.2,9.93c-.17,.32-.04,.71,.27,.88,.19,.1,.41,.1,.6,0l9.93-5.2c1.22-.64,2.34-1.46,3.31-2.44l28.4-28.4-6.49-6.49-28.4,28.4Z"/><path class="cls-1" d="M119.47,46.27h0L81.73,8.53c-.32-.32-.85-.32-1.17,0l-4.79,4.79c-.32,.32-.85,.85-1.14,1.2-2.59,3.18-2.41,7.84,.56,10.8,.24,.3,.18,.73-.12,.97-.02,.01-.03,.03-.05,.04l-23.35,19.45c-.35,.29-.9,.27-1.24-.04-7.47-6.92-18.58-7.29-25.63-.88-.34,.31-.86,.83-1.17,1.17-.1,.11,.08,.46,.41,.79l57.14,57.14c.32,.32,.87,.34,1.2,.02,.11-.1,.46-.45,.77-.79,6.41-7.05,6.03-18.16-.88-25.63-.31-.34-.34-.88-.04-1.24l19.45-23.35c.21-.32,.63-.41,.95-.2,.02,.01,.03,.02,.05,.04,3.58,2.98,7.83,2.98,10.8,.56,.35-.29,.88-.82,1.2-1.14l4.79-4.79c.32-.32,.32-.85,0-1.17Z"/></g></g></svg>