<svg width="128" height="128" xmlns="http://www.w3.org/2000/svg" xmlns:xlink="http://www.w3.org/1999/xlink" xml:space="preserve" overflow="hidden"><defs><clipPath id="clip0"><rect x="562" y="437" width="128" height="128"/></clipPath></defs><g clip-path="url(#clip0)" transform="translate(-562 -437)"><path d="M608.382 541.288 629.922 541.288C630.903 541.288 631.858 540.975 632.649 540.395L664.305 517.164C666.279 515.572 666.588 512.681 664.995 510.708 663.544 508.909 660.982 508.47 659.014 509.682L639.306 520.957C639.572 522.24 639.564 523.565 639.282 524.844 638.249 529.126 634.391 532.122 629.987 532.063L609.534 532.063 609.534 527.45 630.279 527.45C632.827 527.446 634.889 525.377 634.884 522.83 634.88 520.288 632.821 518.229 630.279 518.225L602.619 518.225C600.696 518.225 598.811 518.764 597.178 519.779L564.586 535.523 580.721 551.667C588.177 544.207 597.865 541.288 608.382 541.288Z" stroke="#FFFFFF" stroke-width="1.33333" fill="#03C0C5"/><path d="M623.751 474.341 623.751 479.667 638.315 479.667 638.315 474.341C638.319 469.818 641.983 466.151 646.507 466.145L687.34 466.145 687.34 451.573 646.507 451.573C633.942 451.59 623.762 461.776 623.751 474.341Z" stroke="#FFFFFF" stroke-width="1.33333" fill="#03C0C5"/><path d="M620.674 491C620.674 492.841 619.182 494.333 617.341 494.333 615.5 494.333 614.008 492.841 614.008 491 614.008 489.159 615.5 487.667 617.341 487.667 619.182 487.667 620.674 489.159 620.674 491Z" stroke="#FFFFFF" stroke-width="1.33333" fill="#03C0C5"/><path d="M615.341 503.667C615.341 505.876 613.55 507.667 611.341 507.667 609.132 507.667 607.341 505.876 607.341 503.667 607.341 501.458 609.132 499.667 611.341 499.667 613.55 499.667 615.341 501.458 615.341 503.667Z" stroke="#FFFFFF" stroke-width="1.33333" fill="#03C0C5"/><path d="M653.341 500.333C653.341 502.174 651.849 503.667 650.008 503.667 648.167 503.667 646.674 502.174 646.674 500.333 646.674 498.492 648.167 497 650.008 497 651.849 497 653.341 498.492 653.341 500.333Z" stroke="#FFFFFF" stroke-width="1.33333" fill="#03C0C5"/><path d="M638.892 500.21C638.892 495.498 631.529 485 631.529 485 631.529 485 624.166 495.468 624.167 500.21 624.166 500.269 624.166 500.329 624.167 500.388 624.216 504.455 627.552 507.711 631.619 507.662 635.685 507.613 638.941 504.276 638.892 500.21Z" stroke="#FFFFFF" stroke-width="1.33333" fill="#03C0C5"/></g></svg>