<svg width="128" height="129" xmlns="http://www.w3.org/2000/svg" xmlns:xlink="http://www.w3.org/1999/xlink" xml:space="preserve" overflow="hidden"><defs><clipPath id="clip0"><rect x="562" y="579" width="128" height="129"/></clipPath></defs><g clip-path="url(#clip0)" transform="translate(-562 -579)"><path d="M46.3817 104.288 67.9224 104.288C68.9032 104.288 69.8584 103.975 70.6491 103.395L102.305 80.1641C104.279 78.5719 104.588 75.6815 102.995 73.7081 101.544 71.9093 98.9819 71.4699 97.0141 72.6823L77.3061 83.9567C77.5721 85.2397 77.5639 86.5645 77.2817 87.8441 76.2492 92.1256 72.3907 95.1221 67.9868 95.0628L47.5344 95.0628 47.5344 90.4501 68.2795 90.4501C70.8269 90.4459 72.8887 88.3772 72.8843 85.8297 72.88 83.2884 70.8208 81.2292 68.2795 81.2249L40.6192 81.2249C38.696 81.2253 36.8113 81.7637 35.1783 82.7793L2.58613 98.5225 18.7213 114.667C26.1769 107.207 35.8651 104.288 46.3817 104.288Z" stroke="#FFFFFF" stroke-width="1.33333" fill="#43AEFF" transform="matrix(1 0 0 1.00781 562 579)"/><path d="M61.7512 37.3412 61.7512 42.6667 76.3149 42.6667 76.3149 37.3412C76.3188 32.8177 79.9835 29.1509 84.5069 29.1445L125.34 29.1445 125.34 14.5725 84.5071 14.5725C71.9416 14.59 61.7616 24.7757 61.7512 37.3412Z" stroke="#FFFFFF" stroke-width="1.33333" fill="#43AEFF" transform="matrix(1 0 0 1.00781 562 579)"/><path d="M58.6744 54C58.6744 55.841 57.182 57.3333 55.3411 57.3333 53.5001 57.3333 52.0077 55.841 52.0077 54 52.0077 52.1591 53.5001 50.6667 55.3411 50.6667 57.182 50.6667 58.6744 52.1591 58.6744 54Z" stroke="#FFFFFF" stroke-width="1.33333" fill="#43AEFF" transform="matrix(1 0 0 1.00781 562 579)"/><path d="M53.3411 66.6667C53.3411 68.8758 51.5502 70.6667 49.3411 70.6667 47.1319 70.6667 45.3411 68.8758 45.3411 66.6667 45.3411 64.4575 47.1319 62.6667 49.3411 62.6667 51.5502 62.6667 53.3411 64.4575 53.3411 66.6667Z" stroke="#FFFFFF" stroke-width="1.33333" fill="#43AEFF" transform="matrix(1 0 0 1.00781 562 579)"/><path d="M91.3411 63.3333C91.3411 65.1743 89.8487 66.6667 88.0077 66.6667 86.1668 66.6667 84.6744 65.1743 84.6744 63.3333 84.6744 61.4924 86.1668 60 88.0077 60 89.8487 60 91.3411 61.4924 91.3411 63.3333Z" stroke="#FFFFFF" stroke-width="1.33333" fill="#43AEFF" transform="matrix(1 0 0 1.00781 562 579)"/><path d="M76.8923 63.21C76.8923 58.498 69.5291 48 69.5291 48 69.5291 48 62.1656 58.4681 62.1667 63.21 62.1659 63.2695 62.1659 63.3288 62.1667 63.3884 62.2159 67.4547 65.5523 70.7112 69.6187 70.662 73.6851 70.6127 76.9415 67.2763 76.8923 63.21Z" stroke="#FFFFFF" stroke-width="1.33333" fill="#43AEFF" transform="matrix(1 0 0 1.00781 562 579)"/></g></svg>