<svg width="129" height="129" xmlns="http://www.w3.org/2000/svg" xmlns:xlink="http://www.w3.org/1999/xlink" xml:space="preserve" overflow="hidden"><defs><clipPath id="clip0"><rect x="433" y="157" width="129" height="129"/></clipPath></defs><g clip-path="url(#clip0)" transform="translate(-433 -157)"><path d="M479.744 262.103 501.453 262.103C502.441 262.103 503.404 261.787 504.201 261.202L536.105 237.79C538.093 236.186 538.405 233.273 536.8 231.284 535.337 229.471 532.755 229.028 530.772 230.25L510.91 241.613C511.178 242.906 511.17 244.241 510.885 245.53 509.845 249.845 505.956 252.865 501.518 252.805L480.906 252.805 480.906 248.157 501.813 248.157C504.38 248.152 506.458 246.068 506.454 243.5 506.449 240.939 504.374 238.864 501.813 238.859L473.937 238.859C471.998 238.86 470.099 239.403 468.453 240.426L435.606 256.292 451.868 272.562C459.381 265.045 469.145 262.103 479.744 262.103Z" stroke="#FFFFFF" stroke-width="1.34375" fill="#56C4FC"/><path d="M495.234 194.633 495.234 200 509.911 200 509.911 194.633C509.915 190.074 513.608 186.379 518.167 186.372L559.319 186.372 559.319 171.686 518.167 171.686C505.504 171.704 495.244 181.969 495.234 194.633Z" stroke="#FFFFFF" stroke-width="1.34375" fill="#56C4FC"/><path d="M492.133 211.422C492.133 213.277 490.629 214.781 488.773 214.781 486.918 214.781 485.414 213.277 485.414 211.422 485.414 209.567 486.918 208.062 488.773 208.062 490.629 208.062 492.133 209.567 492.133 211.422Z" stroke="#FFFFFF" stroke-width="1.34375" fill="#56C4FC"/><path d="M486.758 224.188C486.758 226.414 484.953 228.219 482.727 228.219 480.5 228.219 478.695 226.414 478.695 224.188 478.695 221.961 480.5 220.156 482.727 220.156 484.953 220.156 486.758 221.961 486.758 224.188Z" stroke="#FFFFFF" stroke-width="1.34375" fill="#56C4FC"/><path d="M525.055 220.828C525.055 222.683 523.551 224.188 521.695 224.188 519.84 224.188 518.336 222.683 518.336 220.828 518.336 218.973 519.84 217.469 521.695 217.469 523.551 217.469 525.055 218.973 525.055 220.828Z" stroke="#FFFFFF" stroke-width="1.34375" fill="#56C4FC"/><path d="M510.493 220.704C510.493 215.955 503.072 205.375 503.072 205.375 503.072 205.375 495.651 215.925 495.652 220.704 495.652 220.764 495.652 220.824 495.652 220.884 495.702 224.982 499.064 228.264 503.163 228.214 507.261 228.164 510.543 224.802 510.493 220.704Z" stroke="#FFFFFF" stroke-width="1.34375" fill="#56C4FC"/></g></svg>