<svg width="128" height="128" xmlns="http://www.w3.org/2000/svg" xmlns:xlink="http://www.w3.org/1999/xlink" xml:space="preserve" overflow="hidden"><defs><clipPath id="clip0"><rect x="706" y="437" width="128" height="128"/></clipPath></defs><g clip-path="url(#clip0)" transform="translate(-706 -437)"><path d="M752.382 541.288 773.922 541.288C774.903 541.288 775.858 540.975 776.649 540.395L808.305 517.164C810.279 515.572 810.588 512.681 808.995 510.708 807.544 508.909 804.982 508.47 803.014 509.682L783.306 520.957C783.572 522.24 783.564 523.565 783.282 524.844 782.249 529.126 778.391 532.122 773.987 532.063L753.534 532.063 753.534 527.45 774.279 527.45C776.827 527.446 778.889 525.377 778.884 522.83 778.88 520.288 776.821 518.229 774.279 518.225L746.619 518.225C744.696 518.225 742.811 518.764 741.178 519.779L708.586 535.523 724.721 551.667C732.177 544.207 741.865 541.288 752.382 541.288Z" stroke="#FFFFFF" stroke-width="1.33333" fill="#03D6DB"/><path d="M767.751 474.341 767.751 479.667 782.315 479.667 782.315 474.341C782.319 469.818 785.983 466.151 790.507 466.145L831.34 466.145 831.34 451.573 790.507 451.573C777.942 451.59 767.762 461.776 767.751 474.341Z" stroke="#FFFFFF" stroke-width="1.33333" fill="#03D6DB"/><path d="M764.674 491C764.674 492.841 763.182 494.333 761.341 494.333 759.5 494.333 758.008 492.841 758.008 491 758.008 489.159 759.5 487.667 761.341 487.667 763.182 487.667 764.674 489.159 764.674 491Z" stroke="#FFFFFF" stroke-width="1.33333" fill="#03D6DB"/><path d="M759.341 503.667C759.341 505.876 757.55 507.667 755.341 507.667 753.132 507.667 751.341 505.876 751.341 503.667 751.341 501.458 753.132 499.667 755.341 499.667 757.55 499.667 759.341 501.458 759.341 503.667Z" stroke="#FFFFFF" stroke-width="1.33333" fill="#03D6DB"/><path d="M797.341 500.333C797.341 502.174 795.849 503.667 794.008 503.667 792.167 503.667 790.674 502.174 790.674 500.333 790.674 498.492 792.167 497 794.008 497 795.849 497 797.341 498.492 797.341 500.333Z" stroke="#FFFFFF" stroke-width="1.33333" fill="#03D6DB"/><path d="M782.892 500.21C782.892 495.498 775.529 485 775.529 485 775.529 485 768.166 495.468 768.167 500.21 768.166 500.269 768.166 500.329 768.167 500.388 768.216 504.455 771.552 507.711 775.619 507.662 779.685 507.613 782.941 504.276 782.892 500.21Z" stroke="#FFFFFF" stroke-width="1.33333" fill="#03D6DB"/></g></svg>