<svg width="128" height="128" xmlns="http://www.w3.org/2000/svg" xmlns:xlink="http://www.w3.org/1999/xlink" xml:space="preserve" overflow="hidden"><defs><clipPath id="clip0"><rect x="562" y="296" width="128" height="128"/></clipPath></defs><g clip-path="url(#clip0)" transform="translate(-562 -296)"><path d="M608.382 400.288 629.922 400.288C630.903 400.288 631.858 399.975 632.649 399.395L664.305 376.164C666.279 374.572 666.588 371.681 664.995 369.708 663.544 367.909 660.982 367.47 659.014 368.682L639.306 379.957C639.572 381.24 639.564 382.565 639.282 383.844 638.249 388.126 634.391 391.122 629.987 391.063L609.534 391.063 609.534 386.45 630.279 386.45C632.827 386.446 634.889 384.377 634.884 381.83 634.88 379.288 632.821 377.229 630.279 377.225L602.619 377.225C600.696 377.225 598.811 377.764 597.178 378.779L564.586 394.523 580.721 410.667C588.177 403.207 597.865 400.288 608.382 400.288Z" stroke="#FFFFFF" stroke-width="1.33333" fill="#3551DB"/><path d="M623.751 333.341 623.751 338.667 638.315 338.667 638.315 333.341C638.319 328.818 641.983 325.151 646.507 325.145L687.34 325.145 687.34 310.573 646.507 310.573C633.942 310.59 623.762 320.776 623.751 333.341Z" stroke="#FFFFFF" stroke-width="1.33333" fill="#3551DB"/><path d="M620.674 350C620.674 351.841 619.182 353.333 617.341 353.333 615.5 353.333 614.008 351.841 614.008 350 614.008 348.159 615.5 346.667 617.341 346.667 619.182 346.667 620.674 348.159 620.674 350Z" stroke="#FFFFFF" stroke-width="1.33333" fill="#3551DB"/><path d="M615.341 362.667C615.341 364.876 613.55 366.667 611.341 366.667 609.132 366.667 607.341 364.876 607.341 362.667 607.341 360.458 609.132 358.667 611.341 358.667 613.55 358.667 615.341 360.458 615.341 362.667Z" stroke="#FFFFFF" stroke-width="1.33333" fill="#3551DB"/><path d="M653.341 359.333C653.341 361.174 651.849 362.667 650.008 362.667 648.167 362.667 646.674 361.174 646.674 359.333 646.674 357.492 648.167 356 650.008 356 651.849 356 653.341 357.492 653.341 359.333Z" stroke="#FFFFFF" stroke-width="1.33333" fill="#3551DB"/><path d="M638.892 359.21C638.892 354.498 631.529 344 631.529 344 631.529 344 624.166 354.468 624.167 359.21 624.166 359.269 624.166 359.329 624.167 359.388 624.216 363.455 627.552 366.711 631.619 366.662 635.685 366.613 638.941 363.276 638.892 359.21Z" stroke="#FFFFFF" stroke-width="1.33333" fill="#3551DB"/></g></svg>