<svg width="129" height="129" xmlns="http://www.w3.org/2000/svg" xmlns:xlink="http://www.w3.org/1999/xlink" xml:space="preserve" overflow="hidden"><defs><clipPath id="clip0"><rect x="981" y="578" width="129" height="129"/></clipPath></defs><g clip-path="url(#clip0)" transform="translate(-981 -578)"><path d="M1027.74 683.103 1049.45 683.103C1050.44 683.103 1051.4 682.787 1052.2 682.202L1084.1 658.79C1086.09 657.186 1086.4 654.273 1084.8 652.284 1083.34 650.471 1080.76 650.028 1078.77 651.25L1058.91 662.613C1059.18 663.906 1059.17 665.241 1058.89 666.53 1057.84 670.845 1053.96 673.865 1049.52 673.805L1028.91 673.805 1028.91 669.157 1049.81 669.157C1052.38 669.152 1054.46 667.068 1054.45 664.5 1054.45 661.939 1052.37 659.864 1049.81 659.859L1021.94 659.859C1020 659.86 1018.1 660.403 1016.45 661.426L983.606 677.292 999.868 693.562C1007.38 686.045 1017.15 683.103 1027.74 683.103Z" stroke="#FFFFFF" stroke-width="1.34375" fill="#BDE3FF"/><path d="M1043.23 615.633 1043.23 621 1057.91 621 1057.91 615.633C1057.92 611.074 1061.61 607.379 1066.17 607.372L1107.32 607.372 1107.32 592.686 1066.17 592.686C1053.5 592.704 1043.24 602.969 1043.23 615.633Z" stroke="#FFFFFF" stroke-width="1.34375" fill="#BDE3FF"/><path d="M1040.13 632.422C1040.13 634.277 1038.63 635.781 1036.77 635.781 1034.92 635.781 1033.41 634.277 1033.41 632.422 1033.41 630.567 1034.92 629.062 1036.77 629.062 1038.63 629.062 1040.13 630.567 1040.13 632.422Z" stroke="#FFFFFF" stroke-width="1.34375" fill="#BDE3FF"/><path d="M1034.76 645.188C1034.76 647.414 1032.95 649.219 1030.73 649.219 1028.5 649.219 1026.7 647.414 1026.7 645.188 1026.7 642.961 1028.5 641.156 1030.73 641.156 1032.95 641.156 1034.76 642.961 1034.76 645.188Z" stroke="#FFFFFF" stroke-width="1.34375" fill="#BDE3FF"/><path d="M1073.05 641.828C1073.05 643.683 1071.55 645.188 1069.7 645.188 1067.84 645.188 1066.34 643.683 1066.34 641.828 1066.34 639.973 1067.84 638.469 1069.7 638.469 1071.55 638.469 1073.05 639.973 1073.05 641.828Z" stroke="#FFFFFF" stroke-width="1.34375" fill="#BDE3FF"/><path d="M1058.49 641.704C1058.49 636.955 1051.07 626.375 1051.07 626.375 1051.07 626.375 1043.65 636.925 1043.65 641.704 1043.65 641.764 1043.65 641.824 1043.65 641.884 1043.7 645.982 1047.06 649.264 1051.16 649.214 1055.26 649.164 1058.54 645.802 1058.49 641.704Z" stroke="#FFFFFF" stroke-width="1.34375" fill="#BDE3FF"/></g></svg>