<svg width="129" height="129" xmlns="http://www.w3.org/2000/svg" xmlns:xlink="http://www.w3.org/1999/xlink" xml:space="preserve" overflow="hidden"><defs><clipPath id="clip0"><rect x="433" y="0" width="129" height="129"/></clipPath></defs><g clip-path="url(#clip0)" transform="translate(-433 0)"><path d="M479.744 105.103 501.453 105.103C502.441 105.103 503.404 104.787 504.201 104.202L536.105 80.7904C538.093 79.1857 538.405 76.2727 536.8 74.284 535.337 72.4711 532.755 72.0282 530.772 73.2501L510.91 84.6126C511.178 85.9057 511.17 87.2408 510.885 88.5304 509.845 92.8453 505.956 95.8653 501.518 95.8055L480.906 95.8055 480.906 91.1568 501.813 91.1568C504.38 91.1525 506.458 89.0676 506.454 86.5003 506.449 83.9391 504.374 81.8638 501.813 81.8595L473.937 81.8595C471.998 81.8599 470.099 82.4025 468.453 83.426L435.606 99.2922 451.868 115.562C459.381 108.045 469.145 105.103 479.744 105.103Z" stroke="#FFFFFF" stroke-width="1.34375" fill="#1C8AC0"/><path d="M495.234 37.6329 495.234 43 509.911 43 509.911 37.6329C509.915 33.0741 513.608 29.3787 518.167 29.3722L559.319 29.3722 559.319 14.6864 518.167 14.6864C505.504 14.704 495.244 24.9693 495.234 37.6329Z" stroke="#FFFFFF" stroke-width="1.34375" fill="#1C8AC0"/><path d="M492.133 54.4219C492.133 56.2772 490.629 57.7812 488.773 57.7812 486.918 57.7812 485.414 56.2772 485.414 54.4219 485.414 52.5665 486.918 51.0625 488.773 51.0625 490.629 51.0625 492.133 52.5665 492.133 54.4219Z" stroke="#FFFFFF" stroke-width="1.34375" fill="#1C8AC0"/><path d="M486.758 67.1875C486.758 69.4139 484.953 71.2188 482.727 71.2188 480.5 71.2188 478.695 69.4139 478.695 67.1875 478.695 64.9611 480.5 63.1562 482.727 63.1562 484.953 63.1562 486.758 64.9611 486.758 67.1875Z" stroke="#FFFFFF" stroke-width="1.34375" fill="#1C8AC0"/><path d="M525.055 63.8281C525.055 65.6835 523.551 67.1875 521.695 67.1875 519.84 67.1875 518.336 65.6835 518.336 63.8281 518.336 61.9728 519.84 60.4688 521.695 60.4688 523.551 60.4688 525.055 61.9728 525.055 63.8281Z" stroke="#FFFFFF" stroke-width="1.34375" fill="#1C8AC0"/><path d="M510.493 63.7038C510.493 58.955 503.072 48.375 503.072 48.375 503.072 48.375 495.651 58.9249 495.652 63.7038 495.652 63.7638 495.652 63.8236 495.652 63.8836 495.702 67.9817 499.064 71.2636 503.163 71.214 507.261 71.1643 510.543 67.8019 510.493 63.7038Z" stroke="#FFFFFF" stroke-width="1.34375" fill="#1C8AC0"/></g></svg>