<svg width="129" height="129" xmlns="http://www.w3.org/2000/svg" xmlns:xlink="http://www.w3.org/1999/xlink" xml:space="preserve" overflow="hidden"><defs><clipPath id="clip0"><rect x="981" y="0" width="129" height="129"/></clipPath></defs><g clip-path="url(#clip0)" transform="translate(-981 0)"><path d="M1027.74 105.103 1049.45 105.103C1050.44 105.103 1051.4 104.787 1052.2 104.202L1084.1 80.7904C1086.09 79.1857 1086.4 76.2727 1084.8 74.284 1083.34 72.4711 1080.76 72.0282 1078.77 73.2501L1058.91 84.6126C1059.18 85.9057 1059.17 87.2408 1058.89 88.5304 1057.84 92.8453 1053.96 95.8653 1049.52 95.8055L1028.91 95.8055 1028.91 91.1568 1049.81 91.1568C1052.38 91.1525 1054.46 89.0676 1054.45 86.5003 1054.45 83.9391 1052.37 81.8638 1049.81 81.8595L1021.94 81.8595C1020 81.8599 1018.1 82.4025 1016.45 83.426L983.606 99.2922 999.868 115.562C1007.38 108.045 1017.15 105.103 1027.74 105.103Z" stroke="#FFFFFF" stroke-width="1.34375" fill="#CCE5F1"/><path d="M1043.23 37.6329 1043.23 43 1057.91 43 1057.91 37.6329C1057.92 33.0741 1061.61 29.3787 1066.17 29.3722L1107.32 29.3722 1107.32 14.6864 1066.17 14.6864C1053.5 14.704 1043.24 24.9693 1043.23 37.6329Z" stroke="#FFFFFF" stroke-width="1.34375" fill="#CCE5F1"/><path d="M1040.13 54.4219C1040.13 56.2772 1038.63 57.7812 1036.77 57.7812 1034.92 57.7812 1033.41 56.2772 1033.41 54.4219 1033.41 52.5665 1034.92 51.0625 1036.77 51.0625 1038.63 51.0625 1040.13 52.5665 1040.13 54.4219Z" stroke="#FFFFFF" stroke-width="1.34375" fill="#CCE5F1"/><path d="M1034.76 67.1875C1034.76 69.4139 1032.95 71.2188 1030.73 71.2188 1028.5 71.2188 1026.7 69.4139 1026.7 67.1875 1026.7 64.9611 1028.5 63.1562 1030.73 63.1562 1032.95 63.1562 1034.76 64.9611 1034.76 67.1875Z" stroke="#FFFFFF" stroke-width="1.34375" fill="#CCE5F1"/><path d="M1073.05 63.8281C1073.05 65.6835 1071.55 67.1875 1069.7 67.1875 1067.84 67.1875 1066.34 65.6835 1066.34 63.8281 1066.34 61.9728 1067.84 60.4688 1069.7 60.4688 1071.55 60.4688 1073.05 61.9728 1073.05 63.8281Z" stroke="#FFFFFF" stroke-width="1.34375" fill="#CCE5F1"/><path d="M1058.49 63.7038C1058.49 58.955 1051.07 48.375 1051.07 48.375 1051.07 48.375 1043.65 58.9249 1043.65 63.7038 1043.65 63.7638 1043.65 63.8236 1043.65 63.8836 1043.7 67.9817 1047.06 71.2636 1051.16 71.214 1055.26 71.1643 1058.54 67.8019 1058.49 63.7038Z" stroke="#FFFFFF" stroke-width="1.34375" fill="#CCE5F1"/></g></svg>