<svg width="129" height="129" xmlns="http://www.w3.org/2000/svg" xmlns:xlink="http://www.w3.org/1999/xlink" xml:space="preserve" overflow="hidden"><defs><clipPath id="clip0"><rect x="289" y="157" width="129" height="129"/></clipPath></defs><g clip-path="url(#clip0)" transform="translate(-289 -157)"><path d="M335.744 262.103 357.453 262.103C358.441 262.103 359.404 261.787 360.201 261.202L392.105 237.79C394.093 236.186 394.405 233.273 392.8 231.284 391.337 229.471 388.755 229.028 386.772 230.25L366.91 241.613C367.178 242.906 367.17 244.241 366.885 245.53 365.845 249.845 361.956 252.865 357.518 252.805L336.906 252.805 336.906 248.157 357.813 248.157C360.38 248.152 362.458 246.068 362.454 243.5 362.449 240.939 360.374 238.864 357.813 238.859L329.937 238.859C327.998 238.86 326.099 239.403 324.453 240.426L291.606 256.292 307.868 272.562C315.381 265.045 325.145 262.103 335.744 262.103Z" stroke="#FFFFFF" stroke-width="1.34375" fill="#0EACFB"/><path d="M351.234 194.633 351.234 200 365.911 200 365.911 194.633C365.915 190.074 369.608 186.379 374.167 186.372L415.319 186.372 415.319 171.686 374.167 171.686C361.504 171.704 351.244 181.969 351.234 194.633Z" stroke="#FFFFFF" stroke-width="1.34375" fill="#0EACFB"/><path d="M348.133 211.422C348.133 213.277 346.629 214.781 344.773 214.781 342.918 214.781 341.414 213.277 341.414 211.422 341.414 209.567 342.918 208.062 344.773 208.062 346.629 208.062 348.133 209.567 348.133 211.422Z" stroke="#FFFFFF" stroke-width="1.34375" fill="#0EACFB"/><path d="M342.758 224.188C342.758 226.414 340.953 228.219 338.727 228.219 336.5 228.219 334.695 226.414 334.695 224.188 334.695 221.961 336.5 220.156 338.727 220.156 340.953 220.156 342.758 221.961 342.758 224.188Z" stroke="#FFFFFF" stroke-width="1.34375" fill="#0EACFB"/><path d="M381.055 220.828C381.055 222.683 379.551 224.188 377.695 224.188 375.84 224.188 374.336 222.683 374.336 220.828 374.336 218.973 375.84 217.469 377.695 217.469 379.551 217.469 381.055 218.973 381.055 220.828Z" stroke="#FFFFFF" stroke-width="1.34375" fill="#0EACFB"/><path d="M366.493 220.704C366.493 215.955 359.072 205.375 359.072 205.375 359.072 205.375 351.651 215.925 351.652 220.704 351.652 220.764 351.652 220.824 351.652 220.884 351.702 224.982 355.064 228.264 359.163 228.214 363.261 228.164 366.543 224.802 366.493 220.704Z" stroke="#FFFFFF" stroke-width="1.34375" fill="#0EACFB"/></g></svg>