<svg width="129" height="129" xmlns="http://www.w3.org/2000/svg" xmlns:xlink="http://www.w3.org/1999/xlink" xml:space="preserve" overflow="hidden"><defs><clipPath id="clip0"><rect x="145" y="579" width="129" height="129"/></clipPath></defs><g clip-path="url(#clip0)" transform="translate(-145 -579)"><path d="M191.744 684.103 213.453 684.103C214.441 684.103 215.404 683.787 216.201 683.202L248.105 659.79C250.093 658.186 250.405 655.273 248.8 653.284 247.337 651.471 244.755 651.028 242.772 652.25L222.91 663.613C223.178 664.906 223.17 666.241 222.885 667.53 221.845 671.845 217.956 674.865 213.518 674.805L192.906 674.805 192.906 670.157 213.813 670.157C216.38 670.152 218.458 668.068 218.454 665.5 218.449 662.939 216.374 660.864 213.813 660.859L185.937 660.859C183.998 660.86 182.099 661.403 180.453 662.426L147.606 678.292 163.868 694.562C171.381 687.045 181.145 684.103 191.744 684.103Z" stroke="#FFFFFF" stroke-width="1.34375" fill="#007FDE"/><path d="M207.234 616.633 207.234 622 221.911 622 221.911 616.633C221.915 612.074 225.608 608.379 230.167 608.372L271.319 608.372 271.319 593.686 230.167 593.686C217.504 593.704 207.244 603.969 207.234 616.633Z" stroke="#FFFFFF" stroke-width="1.34375" fill="#007FDE"/><path d="M204.133 633.422C204.133 635.277 202.629 636.781 200.773 636.781 198.918 636.781 197.414 635.277 197.414 633.422 197.414 631.567 198.918 630.062 200.773 630.062 202.629 630.062 204.133 631.567 204.133 633.422Z" stroke="#FFFFFF" stroke-width="1.34375" fill="#007FDE"/><path d="M198.758 646.188C198.758 648.414 196.953 650.219 194.727 650.219 192.5 650.219 190.695 648.414 190.695 646.188 190.695 643.961 192.5 642.156 194.727 642.156 196.953 642.156 198.758 643.961 198.758 646.188Z" stroke="#FFFFFF" stroke-width="1.34375" fill="#007FDE"/><path d="M237.055 642.828C237.055 644.683 235.551 646.188 233.695 646.188 231.84 646.188 230.336 644.683 230.336 642.828 230.336 640.973 231.84 639.469 233.695 639.469 235.551 639.469 237.055 640.973 237.055 642.828Z" stroke="#FFFFFF" stroke-width="1.34375" fill="#007FDE"/><path d="M222.493 642.704C222.493 637.955 215.072 627.375 215.072 627.375 215.072 627.375 207.651 637.925 207.652 642.704 207.652 642.764 207.652 642.824 207.652 642.884 207.702 646.982 211.064 650.264 215.163 650.214 219.261 650.164 222.543 646.802 222.493 642.704Z" stroke="#FFFFFF" stroke-width="1.34375" fill="#007FDE"/></g></svg>