<svg width="129" height="129" xmlns="http://www.w3.org/2000/svg" xmlns:xlink="http://www.w3.org/1999/xlink" xml:space="preserve" overflow="hidden"><defs><clipPath id="clip0"><rect x="1" y="1" width="129" height="129"/></clipPath></defs><g clip-path="url(#clip0)" transform="translate(-1 -1)"><path d="M47.7441 106.103 69.453 106.103C70.4415 106.103 71.4042 105.787 72.201 105.202L104.105 81.7904C106.093 80.1857 106.405 77.2727 104.8 75.284 103.337 73.4711 100.755 73.0282 98.772 74.2501L78.9101 85.6126C79.1782 86.9057 79.1698 88.2408 78.8855 89.5304 77.8449 93.8453 73.9562 96.8653 69.5179 96.8055L48.9058 96.8055 48.9058 92.1568 69.8129 92.1568C72.3803 92.1525 74.4581 90.0676 74.4537 87.5003 74.4494 84.9391 72.3741 82.8638 69.8129 82.8595L41.9365 82.8595C39.9983 82.8599 38.0989 83.4025 36.4531 84.426L3.60634 100.292 19.8676 116.562C27.3814 109.045 37.1453 106.103 47.7441 106.103Z" stroke="#FFFFFF" stroke-width="1.34375" fill="#01324A"/><path d="M63.2336 38.6329 63.2336 44 77.9111 44 77.9111 38.6329C77.915 34.0741 81.6083 30.3787 86.1671 30.3722L127.319 30.3722 127.319 15.6864 86.1673 15.6864C73.5036 15.704 63.2441 25.9693 63.2336 38.6329Z" stroke="#FFFFFF" stroke-width="1.34375" fill="#01324A"/><path d="M60.1328 55.4219C60.1328 57.2772 58.6287 58.7812 56.7734 58.7812 54.9181 58.7812 53.414 57.2772 53.414 55.4219 53.414 53.5665 54.9181 52.0625 56.7734 52.0625 58.6287 52.0625 60.1328 53.5665 60.1328 55.4219Z" stroke="#FFFFFF" stroke-width="1.34375" fill="#01324A"/><path d="M54.7578 68.1875C54.7578 70.4139 52.9529 72.2188 50.7265 72.2188 48.5001 72.2188 46.6953 70.4139 46.6953 68.1875 46.6953 65.9611 48.5001 64.1562 50.7265 64.1562 52.9529 64.1562 54.7578 65.9611 54.7578 68.1875Z" stroke="#FFFFFF" stroke-width="1.34375" fill="#01324A"/><path d="M93.0547 64.8281C93.0547 66.6835 91.5506 68.1875 89.6953 68.1875 87.84 68.1875 86.3359 66.6835 86.3359 64.8281 86.3359 62.9728 87.84 61.4688 89.6953 61.4688 91.5506 61.4688 93.0547 62.9728 93.0547 64.8281Z" stroke="#FFFFFF" stroke-width="1.34375" fill="#01324A"/><path d="M78.493 64.7038C78.493 59.955 71.0723 49.375 71.0723 49.375 71.0723 49.375 63.6513 59.9249 63.6523 64.7038 63.6515 64.7638 63.6515 64.8236 63.6523 64.8836 63.7019 68.9817 67.0644 72.2636 71.1626 72.214 75.2607 72.1643 78.5426 68.8019 78.493 64.7038Z" stroke="#FFFFFF" stroke-width="1.34375" fill="#01324A"/></g></svg>