<svg width="129" height="129" xmlns="http://www.w3.org/2000/svg" xmlns:xlink="http://www.w3.org/1999/xlink" xml:space="preserve" overflow="hidden"><defs><clipPath id="clip0"><rect x="834" y="432" width="129" height="129"/></clipPath></defs><g clip-path="url(#clip0)" transform="translate(-834 -432)"><path d="M880.744 537.103 902.453 537.103C903.442 537.103 904.404 536.787 905.201 536.202L937.105 512.79C939.093 511.186 939.405 508.273 937.8 506.284 936.337 504.471 933.755 504.028 931.772 505.25L911.91 516.613C912.178 517.906 912.17 519.241 911.885 520.53 910.845 524.845 906.956 527.865 902.518 527.805L881.906 527.805 881.906 523.157 902.813 523.157C905.38 523.152 907.458 521.068 907.454 518.5 907.449 515.939 905.374 513.864 902.813 513.859L874.937 513.859C872.998 513.86 871.099 514.403 869.453 515.426L836.606 531.292 852.868 547.562C860.381 540.045 870.145 537.103 880.744 537.103Z" stroke="#FFFFFF" stroke-width="1.34375" fill="#4AF8FC"/><path d="M896.234 469.633 896.234 475 910.911 475 910.911 469.633C910.915 465.074 914.608 461.379 919.167 461.372L960.319 461.372 960.319 446.686 919.167 446.686C906.504 446.704 896.244 456.969 896.234 469.633Z" stroke="#FFFFFF" stroke-width="1.34375" fill="#4AF8FC"/><path d="M893.133 486.422C893.133 488.277 891.629 489.781 889.773 489.781 887.918 489.781 886.414 488.277 886.414 486.422 886.414 484.567 887.918 483.062 889.773 483.062 891.629 483.062 893.133 484.567 893.133 486.422Z" stroke="#FFFFFF" stroke-width="1.34375" fill="#4AF8FC"/><path d="M887.758 499.188C887.758 501.414 885.953 503.219 883.727 503.219 881.5 503.219 879.695 501.414 879.695 499.188 879.695 496.961 881.5 495.156 883.727 495.156 885.953 495.156 887.758 496.961 887.758 499.188Z" stroke="#FFFFFF" stroke-width="1.34375" fill="#4AF8FC"/><path d="M926.055 495.828C926.055 497.683 924.551 499.188 922.695 499.188 920.84 499.188 919.336 497.683 919.336 495.828 919.336 493.973 920.84 492.469 922.695 492.469 924.551 492.469 926.055 493.973 926.055 495.828Z" stroke="#FFFFFF" stroke-width="1.34375" fill="#4AF8FC"/><path d="M911.493 495.704C911.493 490.955 904.072 480.375 904.072 480.375 904.072 480.375 896.651 490.925 896.652 495.704 896.652 495.764 896.652 495.824 896.652 495.884 896.702 499.982 900.064 503.264 904.163 503.214 908.261 503.164 911.543 499.802 911.493 495.704Z" stroke="#FFFFFF" stroke-width="1.34375" fill="#4AF8FC"/></g></svg>