<svg width="129" height="129" xmlns="http://www.w3.org/2000/svg" xmlns:xlink="http://www.w3.org/1999/xlink" xml:space="preserve" overflow="hidden"><defs><clipPath id="clip0"><rect x="433" y="578" width="129" height="129"/></clipPath></defs><g clip-path="url(#clip0)" transform="translate(-433 -578)"><path d="M479.744 683.103 501.453 683.103C502.441 683.103 503.404 682.787 504.201 682.202L536.105 658.79C538.093 657.186 538.405 654.273 536.8 652.284 535.337 650.471 532.755 650.028 530.772 651.25L510.91 662.613C511.178 663.906 511.17 665.241 510.885 666.53 509.845 670.845 505.956 673.865 501.518 673.805L480.906 673.805 480.906 669.157 501.813 669.157C504.38 669.152 506.458 667.068 506.454 664.5 506.449 661.939 504.374 659.864 501.813 659.859L473.937 659.859C471.998 659.86 470.099 660.403 468.453 661.426L435.606 677.292 451.868 693.562C459.381 686.045 469.145 683.103 479.744 683.103Z" stroke="#FFFFFF" stroke-width="1.34375" fill="#1D9EFF"/><path d="M495.234 615.633 495.234 621 509.911 621 509.911 615.633C509.915 611.074 513.608 607.379 518.167 607.372L559.319 607.372 559.319 592.686 518.167 592.686C505.504 592.704 495.244 602.969 495.234 615.633Z" stroke="#FFFFFF" stroke-width="1.34375" fill="#1D9EFF"/><path d="M492.133 632.422C492.133 634.277 490.629 635.781 488.773 635.781 486.918 635.781 485.414 634.277 485.414 632.422 485.414 630.567 486.918 629.062 488.773 629.062 490.629 629.062 492.133 630.567 492.133 632.422Z" stroke="#FFFFFF" stroke-width="1.34375" fill="#1D9EFF"/><path d="M486.758 645.188C486.758 647.414 484.953 649.219 482.727 649.219 480.5 649.219 478.695 647.414 478.695 645.188 478.695 642.961 480.5 641.156 482.727 641.156 484.953 641.156 486.758 642.961 486.758 645.188Z" stroke="#FFFFFF" stroke-width="1.34375" fill="#1D9EFF"/><path d="M525.055 641.828C525.055 643.683 523.551 645.188 521.695 645.188 519.84 645.188 518.336 643.683 518.336 641.828 518.336 639.973 519.84 638.469 521.695 638.469 523.551 638.469 525.055 639.973 525.055 641.828Z" stroke="#FFFFFF" stroke-width="1.34375" fill="#1D9EFF"/><path d="M510.493 641.704C510.493 636.955 503.072 626.375 503.072 626.375 503.072 626.375 495.651 636.925 495.652 641.704 495.652 641.764 495.652 641.824 495.652 641.884 495.702 645.982 499.064 649.264 503.163 649.214 507.261 649.164 510.543 645.802 510.493 641.704Z" stroke="#FFFFFF" stroke-width="1.34375" fill="#1D9EFF"/></g></svg>