<svg width="129" height="129" xmlns="http://www.w3.org/2000/svg" xmlns:xlink="http://www.w3.org/1999/xlink" xml:space="preserve" overflow="hidden"><defs><clipPath id="clip0"><rect x="1" y="579" width="129" height="129"/></clipPath></defs><g clip-path="url(#clip0)" transform="translate(-1 -579)"><path d="M47.7441 684.103 69.453 684.103C70.4415 684.103 71.4042 683.787 72.201 683.202L104.105 659.79C106.093 658.186 106.405 655.273 104.8 653.284 103.337 651.471 100.755 651.028 98.772 652.25L78.9101 663.613C79.1782 664.906 79.1698 666.241 78.8855 667.53 77.8449 671.845 73.9562 674.865 69.5179 674.805L48.9058 674.805 48.9058 670.157 69.8129 670.157C72.3803 670.152 74.4581 668.068 74.4537 665.5 74.4494 662.939 72.3741 660.864 69.8129 660.859L41.9365 660.859C39.9983 660.86 38.0989 661.403 36.4531 662.426L3.60634 678.292 19.8676 694.562C27.3814 687.045 37.1453 684.103 47.7441 684.103Z" stroke="#FFFFFF" stroke-width="1.34375" fill="#0070C0"/><path d="M63.2336 616.633 63.2336 622 77.9111 622 77.9111 616.633C77.915 612.074 81.6083 608.379 86.1671 608.372L127.319 608.372 127.319 593.686 86.1673 593.686C73.5036 593.704 63.2441 603.969 63.2336 616.633Z" stroke="#FFFFFF" stroke-width="1.34375" fill="#0070C0"/><path d="M60.1328 633.422C60.1328 635.277 58.6287 636.781 56.7734 636.781 54.9181 636.781 53.414 635.277 53.414 633.422 53.414 631.567 54.9181 630.062 56.7734 630.062 58.6287 630.062 60.1328 631.567 60.1328 633.422Z" stroke="#FFFFFF" stroke-width="1.34375" fill="#0070C0"/><path d="M54.7578 646.188C54.7578 648.414 52.9529 650.219 50.7265 650.219 48.5001 650.219 46.6953 648.414 46.6953 646.188 46.6953 643.961 48.5001 642.156 50.7265 642.156 52.9529 642.156 54.7578 643.961 54.7578 646.188Z" stroke="#FFFFFF" stroke-width="1.34375" fill="#0070C0"/><path d="M93.0547 642.828C93.0547 644.683 91.5506 646.188 89.6953 646.188 87.84 646.188 86.3359 644.683 86.3359 642.828 86.3359 640.973 87.84 639.469 89.6953 639.469 91.5506 639.469 93.0547 640.973 93.0547 642.828Z" stroke="#FFFFFF" stroke-width="1.34375" fill="#0070C0"/><path d="M78.493 642.704C78.493 637.955 71.0723 627.375 71.0723 627.375 71.0723 627.375 63.6513 637.925 63.6523 642.704 63.6515 642.764 63.6515 642.824 63.6523 642.884 63.7019 646.982 67.0644 650.264 71.1626 650.214 75.2607 650.164 78.5426 646.802 78.493 642.704Z" stroke="#FFFFFF" stroke-width="1.34375" fill="#0070C0"/></g></svg>