<svg width="129" height="129" xmlns="http://www.w3.org/2000/svg" xmlns:xlink="http://www.w3.org/1999/xlink" xml:space="preserve" overflow="hidden"><defs><clipPath id="clip0"><rect x="1" y="158" width="129" height="129"/></clipPath></defs><g clip-path="url(#clip0)" transform="translate(-1 -158)"><path d="M47.7441 263.103 69.453 263.103C70.4415 263.103 71.4042 262.787 72.201 262.202L104.105 238.79C106.093 237.186 106.405 234.273 104.8 232.284 103.337 230.471 100.755 230.028 98.772 231.25L78.9101 242.613C79.1782 243.906 79.1698 245.241 78.8855 246.53 77.8449 250.845 73.9562 253.865 69.5179 253.805L48.9058 253.805 48.9058 249.157 69.8129 249.157C72.3803 249.152 74.4581 247.068 74.4537 244.5 74.4494 241.939 72.3741 239.864 69.8129 239.859L41.9365 239.859C39.9983 239.86 38.0989 240.403 36.4531 241.426L3.60634 257.292 19.8676 273.562C27.3814 266.045 37.1453 263.103 47.7441 263.103Z" stroke="#FFFFFF" stroke-width="1.34375" fill="#024A6F"/><path d="M63.2336 195.633 63.2336 201 77.9111 201 77.9111 195.633C77.915 191.074 81.6083 187.379 86.1671 187.372L127.319 187.372 127.319 172.686 86.1673 172.686C73.5036 172.704 63.2441 182.969 63.2336 195.633Z" stroke="#FFFFFF" stroke-width="1.34375" fill="#024A6F"/><path d="M60.1328 212.422C60.1328 214.277 58.6287 215.781 56.7734 215.781 54.9181 215.781 53.414 214.277 53.414 212.422 53.414 210.567 54.9181 209.062 56.7734 209.062 58.6287 209.062 60.1328 210.567 60.1328 212.422Z" stroke="#FFFFFF" stroke-width="1.34375" fill="#024A6F"/><path d="M54.7578 225.188C54.7578 227.414 52.9529 229.219 50.7265 229.219 48.5001 229.219 46.6953 227.414 46.6953 225.188 46.6953 222.961 48.5001 221.156 50.7265 221.156 52.9529 221.156 54.7578 222.961 54.7578 225.188Z" stroke="#FFFFFF" stroke-width="1.34375" fill="#024A6F"/><path d="M93.0547 221.828C93.0547 223.683 91.5506 225.188 89.6953 225.188 87.84 225.188 86.3359 223.683 86.3359 221.828 86.3359 219.973 87.84 218.469 89.6953 218.469 91.5506 218.469 93.0547 219.973 93.0547 221.828Z" stroke="#FFFFFF" stroke-width="1.34375" fill="#024A6F"/><path d="M78.493 221.704C78.493 216.955 71.0723 206.375 71.0723 206.375 71.0723 206.375 63.6513 216.925 63.6523 221.704 63.6515 221.764 63.6515 221.824 63.6523 221.884 63.7019 225.982 67.0644 229.264 71.1626 229.214 75.2607 229.164 78.5426 225.802 78.493 221.704Z" stroke="#FFFFFF" stroke-width="1.34375" fill="#024A6F"/></g></svg>