<svg xmlns="http://www.w3.org/2000/svg" xmlns:xlink="http://www.w3.org/1999/xlink" width="129" height="129" overflow="hidden" xml:space="preserve"><defs><clipPath id="clip0"><rect width="129" height="129" x="837" y="0"/></clipPath></defs><g clip-path="url(#clip0)" transform="translate(-837 0)"><path fill="#9ACBE3" stroke="#FFF" stroke-width="1.344" d="M883.744 105.103 905.453 105.103C906.442 105.103 907.404 104.787 908.201 104.202L940.105 80.7904C942.093 79.1857 942.405 76.2727 940.8 74.284 939.337 72.4711 936.755 72.0282 934.772 73.2501L914.91 84.6126C915.178 85.9057 915.17 87.2408 914.885 88.5304 913.845 92.8453 909.956 95.8653 905.518 95.8055L884.906 95.8055 884.906 91.1568 905.813 91.1568C908.38 91.1525 910.458 89.0676 910.454 86.5003 910.449 83.9391 908.374 81.8638 905.813 81.8595L877.937 81.8595C875.998 81.8599 874.099 82.4025 872.453 83.426L839.606 99.2922 855.868 115.562C863.381 108.045 873.145 105.103 883.744 105.103Z"/><path fill="#9ACBE3" stroke="#FFF" stroke-width="1.344" d="M899.234 37.6329 899.234 43 913.911 43 913.911 37.6329C913.915 33.0741 917.608 29.3787 922.167 29.3722L963.319 29.3722 963.319 14.6864 922.167 14.6864C909.504 14.704 899.244 24.9693 899.234 37.6329Z"/><path fill="#9ACBE3" stroke="#FFF" stroke-width="1.344" d="M896.133 54.4219C896.133 56.2772 894.629 57.7812 892.773 57.7812 890.918 57.7812 889.414 56.2772 889.414 54.4219 889.414 52.5665 890.918 51.0625 892.773 51.0625 894.629 51.0625 896.133 52.5665 896.133 54.4219Z"/><path fill="#9ACBE3" stroke="#FFF" stroke-width="1.344" d="M890.758 67.1875C890.758 69.4139 888.953 71.2188 886.727 71.2188 884.5 71.2188 882.695 69.4139 882.695 67.1875 882.695 64.9611 884.5 63.1562 886.727 63.1562 888.953 63.1562 890.758 64.9611 890.758 67.1875Z"/><path fill="#9ACBE3" stroke="#FFF" stroke-width="1.344" d="M929.055 63.8281C929.055 65.6835 927.551 67.1875 925.695 67.1875 923.84 67.1875 922.336 65.6835 922.336 63.8281 922.336 61.9728 923.84 60.4688 925.695 60.4688 927.551 60.4688 929.055 61.9728 929.055 63.8281Z"/><path fill="#9ACBE3" stroke="#FFF" stroke-width="1.344" d="M914.493 63.7038C914.493 58.955 907.072 48.375 907.072 48.375 907.072 48.375 899.651 58.9249 899.652 63.7038 899.652 63.7638 899.652 63.8236 899.652 63.8836 899.702 67.9817 903.064 71.2636 907.163 71.214 911.261 71.1643 914.543 67.8019 914.493 63.7038Z"/></g></svg>