<svg width="128" height="128" xmlns="http://www.w3.org/2000/svg" xmlns:xlink="http://www.w3.org/1999/xlink" xml:space="preserve" overflow="hidden"><defs><clipPath id="clip0"><rect x="706" y="296" width="128" height="128"/></clipPath></defs><g clip-path="url(#clip0)" transform="translate(-706 -296)"><path d="M752.382 400.288 773.922 400.288C774.903 400.288 775.858 399.975 776.649 399.395L808.305 376.164C810.279 374.572 810.588 371.681 808.995 369.708 807.544 367.909 804.982 367.47 803.014 368.682L783.306 379.957C783.572 381.24 783.564 382.565 783.282 383.844 782.249 388.126 778.391 391.122 773.987 391.063L753.534 391.063 753.534 386.45 774.279 386.45C776.827 386.446 778.889 384.377 778.884 381.83 778.88 379.288 776.821 377.229 774.279 377.225L746.619 377.225C744.696 377.225 742.811 377.764 741.178 378.779L708.586 394.523 724.721 410.667C732.177 403.207 741.865 400.288 752.382 400.288Z" stroke="#FFFFFF" stroke-width="1.33333" fill="#677CE4"/><path d="M767.751 333.341 767.751 338.667 782.315 338.667 782.315 333.341C782.319 328.818 785.983 325.151 790.507 325.145L831.34 325.145 831.34 310.573 790.507 310.573C777.942 310.59 767.762 320.776 767.751 333.341Z" stroke="#FFFFFF" stroke-width="1.33333" fill="#677CE4"/><path d="M764.674 350C764.674 351.841 763.182 353.333 761.341 353.333 759.5 353.333 758.008 351.841 758.008 350 758.008 348.159 759.5 346.667 761.341 346.667 763.182 346.667 764.674 348.159 764.674 350Z" stroke="#FFFFFF" stroke-width="1.33333" fill="#677CE4"/><path d="M759.341 362.667C759.341 364.876 757.55 366.667 755.341 366.667 753.132 366.667 751.341 364.876 751.341 362.667 751.341 360.458 753.132 358.667 755.341 358.667 757.55 358.667 759.341 360.458 759.341 362.667Z" stroke="#FFFFFF" stroke-width="1.33333" fill="#677CE4"/><path d="M797.341 359.333C797.341 361.174 795.849 362.667 794.008 362.667 792.167 362.667 790.674 361.174 790.674 359.333 790.674 357.492 792.167 356 794.008 356 795.849 356 797.341 357.492 797.341 359.333Z" stroke="#FFFFFF" stroke-width="1.33333" fill="#677CE4"/><path d="M782.892 359.21C782.892 354.498 775.529 344 775.529 344 775.529 344 768.166 354.468 768.167 359.21 768.166 359.269 768.166 359.329 768.167 359.388 768.216 363.455 771.552 366.711 775.619 366.662 779.685 366.613 782.941 363.276 782.892 359.21Z" stroke="#FFFFFF" stroke-width="1.33333" fill="#677CE4"/></g></svg>