<svg width="129" height="129" xmlns="http://www.w3.org/2000/svg" xmlns:xlink="http://www.w3.org/1999/xlink" xml:space="preserve" overflow="hidden"><defs><clipPath id="clip0"><rect x="145" y="158" width="129" height="129"/></clipPath></defs><g clip-path="url(#clip0)" transform="translate(-145 -158)"><path d="M191.744 263.103 213.453 263.103C214.441 263.103 215.404 262.787 216.201 262.202L248.105 238.79C250.093 237.186 250.405 234.273 248.8 232.284 247.337 230.471 244.755 230.028 242.772 231.25L222.91 242.613C223.178 243.906 223.17 245.241 222.885 246.53 221.845 250.845 217.956 253.865 213.518 253.805L192.906 253.805 192.906 249.157 213.813 249.157C216.38 249.152 218.458 247.068 218.454 244.5 218.449 241.939 216.374 239.864 213.813 239.859L185.937 239.859C183.998 239.86 182.099 240.403 180.453 241.426L147.606 257.292 163.868 273.562C171.381 266.045 181.145 263.103 191.744 263.103Z" stroke="#FFFFFF" stroke-width="1.34375" fill="#036CA1"/><path d="M207.234 195.633 207.234 201 221.911 201 221.911 195.633C221.915 191.074 225.608 187.379 230.167 187.372L271.319 187.372 271.319 172.686 230.167 172.686C217.504 172.704 207.244 182.969 207.234 195.633Z" stroke="#FFFFFF" stroke-width="1.34375" fill="#036CA1"/><path d="M204.133 212.422C204.133 214.277 202.629 215.781 200.773 215.781 198.918 215.781 197.414 214.277 197.414 212.422 197.414 210.567 198.918 209.062 200.773 209.062 202.629 209.062 204.133 210.567 204.133 212.422Z" stroke="#FFFFFF" stroke-width="1.34375" fill="#036CA1"/><path d="M198.758 225.188C198.758 227.414 196.953 229.219 194.727 229.219 192.5 229.219 190.695 227.414 190.695 225.188 190.695 222.961 192.5 221.156 194.727 221.156 196.953 221.156 198.758 222.961 198.758 225.188Z" stroke="#FFFFFF" stroke-width="1.34375" fill="#036CA1"/><path d="M237.055 221.828C237.055 223.683 235.551 225.188 233.695 225.188 231.84 225.188 230.336 223.683 230.336 221.828 230.336 219.973 231.84 218.469 233.695 218.469 235.551 218.469 237.055 219.973 237.055 221.828Z" stroke="#FFFFFF" stroke-width="1.34375" fill="#036CA1"/><path d="M222.493 221.704C222.493 216.955 215.072 206.375 215.072 206.375 215.072 206.375 207.651 216.925 207.652 221.704 207.652 221.764 207.652 221.824 207.652 221.884 207.702 225.982 211.064 229.264 215.163 229.214 219.261 229.164 222.543 225.802 222.493 221.704Z" stroke="#FFFFFF" stroke-width="1.34375" fill="#036CA1"/></g></svg>