<svg width="129" height="129" xmlns="http://www.w3.org/2000/svg" xmlns:xlink="http://www.w3.org/1999/xlink" xml:space="preserve" overflow="hidden"><defs><clipPath id="clip0"><rect x="837" y="578" width="129" height="129"/></clipPath></defs><g clip-path="url(#clip0)" transform="translate(-837 -578)"><path d="M883.744 683.103 905.453 683.103C906.442 683.103 907.404 682.787 908.201 682.202L940.105 658.79C942.093 657.186 942.405 654.273 940.8 652.284 939.337 650.471 936.755 650.028 934.772 651.25L914.91 662.613C915.178 663.906 915.17 665.241 914.885 666.53 913.845 670.845 909.956 673.865 905.518 673.805L884.906 673.805 884.906 669.157 905.813 669.157C908.38 669.152 910.458 667.068 910.454 664.5 910.449 661.939 908.374 659.864 905.813 659.859L877.937 659.859C875.998 659.86 874.099 660.403 872.453 661.426L839.606 677.292 855.868 693.562C863.381 686.045 873.145 683.103 883.744 683.103Z" stroke="#FFFFFF" stroke-width="1.34375" fill="#93D1FF"/><path d="M899.234 615.633 899.234 621 913.911 621 913.911 615.633C913.915 611.074 917.608 607.379 922.167 607.372L963.319 607.372 963.319 592.686 922.167 592.686C909.504 592.704 899.244 602.969 899.234 615.633Z" stroke="#FFFFFF" stroke-width="1.34375" fill="#93D1FF"/><path d="M896.133 632.422C896.133 634.277 894.629 635.781 892.773 635.781 890.918 635.781 889.414 634.277 889.414 632.422 889.414 630.567 890.918 629.062 892.773 629.062 894.629 629.062 896.133 630.567 896.133 632.422Z" stroke="#FFFFFF" stroke-width="1.34375" fill="#93D1FF"/><path d="M890.758 645.188C890.758 647.414 888.953 649.219 886.727 649.219 884.5 649.219 882.695 647.414 882.695 645.188 882.695 642.961 884.5 641.156 886.727 641.156 888.953 641.156 890.758 642.961 890.758 645.188Z" stroke="#FFFFFF" stroke-width="1.34375" fill="#93D1FF"/><path d="M929.055 641.828C929.055 643.683 927.551 645.188 925.695 645.188 923.84 645.188 922.336 643.683 922.336 641.828 922.336 639.973 923.84 638.469 925.695 638.469 927.551 638.469 929.055 639.973 929.055 641.828Z" stroke="#FFFFFF" stroke-width="1.34375" fill="#93D1FF"/><path d="M914.493 641.704C914.493 636.955 907.072 626.375 907.072 626.375 907.072 626.375 899.651 636.925 899.652 641.704 899.652 641.764 899.652 641.824 899.652 641.884 899.702 645.982 903.064 649.264 907.163 649.214 911.261 649.164 914.543 645.802 914.493 641.704Z" stroke="#FFFFFF" stroke-width="1.34375" fill="#93D1FF"/></g></svg>