<svg width="129" height="129" xmlns="http://www.w3.org/2000/svg" xmlns:xlink="http://www.w3.org/1999/xlink" xml:space="preserve" overflow="hidden"><defs><clipPath id="clip0"><rect x="289" y="578" width="129" height="129"/></clipPath></defs><g clip-path="url(#clip0)" transform="translate(-289 -578)"><path d="M335.744 683.103 357.453 683.103C358.441 683.103 359.404 682.787 360.201 682.202L392.105 658.79C394.093 657.186 394.405 654.273 392.8 652.284 391.337 650.471 388.755 650.028 386.772 651.25L366.91 662.613C367.178 663.906 367.17 665.241 366.885 666.53 365.845 670.845 361.956 673.865 357.518 673.805L336.906 673.805 336.906 669.157 357.813 669.157C360.38 669.152 362.458 667.068 362.454 664.5 362.449 661.939 360.374 659.864 357.813 659.859L329.937 659.859C327.998 659.86 326.099 660.403 324.453 661.426L291.606 677.292 307.868 693.562C315.381 686.045 325.145 683.103 335.744 683.103Z" stroke="#FFFFFF" stroke-width="1.34375" fill="#0091FE"/><path d="M351.234 615.633 351.234 621 365.911 621 365.911 615.633C365.915 611.074 369.608 607.379 374.167 607.372L415.319 607.372 415.319 592.686 374.167 592.686C361.504 592.704 351.244 602.969 351.234 615.633Z" stroke="#FFFFFF" stroke-width="1.34375" fill="#0091FE"/><path d="M348.133 632.422C348.133 634.277 346.629 635.781 344.773 635.781 342.918 635.781 341.414 634.277 341.414 632.422 341.414 630.567 342.918 629.062 344.773 629.062 346.629 629.062 348.133 630.567 348.133 632.422Z" stroke="#FFFFFF" stroke-width="1.34375" fill="#0091FE"/><path d="M342.758 645.188C342.758 647.414 340.953 649.219 338.727 649.219 336.5 649.219 334.695 647.414 334.695 645.188 334.695 642.961 336.5 641.156 338.727 641.156 340.953 641.156 342.758 642.961 342.758 645.188Z" stroke="#FFFFFF" stroke-width="1.34375" fill="#0091FE"/><path d="M381.055 641.828C381.055 643.683 379.551 645.188 377.695 645.188 375.84 645.188 374.336 643.683 374.336 641.828 374.336 639.973 375.84 638.469 377.695 638.469 379.551 638.469 381.055 639.973 381.055 641.828Z" stroke="#FFFFFF" stroke-width="1.34375" fill="#0091FE"/><path d="M366.493 641.704C366.493 636.955 359.072 626.375 359.072 626.375 359.072 626.375 351.651 636.925 351.652 641.704 351.652 641.764 351.652 641.824 351.652 641.884 351.702 645.982 355.064 649.264 359.163 649.214 363.261 649.164 366.543 645.802 366.493 641.704Z" stroke="#FFFFFF" stroke-width="1.34375" fill="#0091FE"/></g></svg>