<svg width="129" height="129" xmlns="http://www.w3.org/2000/svg" xmlns:xlink="http://www.w3.org/1999/xlink" xml:space="preserve" overflow="hidden"><defs><clipPath id="clip0"><rect x="289" y="0" width="129" height="129"/></clipPath></defs><g clip-path="url(#clip0)" transform="translate(-289 0)"><path d="M335.744 105.103 357.453 105.103C358.441 105.103 359.404 104.787 360.201 104.202L392.105 80.7904C394.093 79.1857 394.405 76.2727 392.8 74.284 391.337 72.4711 388.755 72.0282 386.772 73.2501L366.91 84.6126C367.178 85.9057 367.17 87.2408 366.885 88.5304 365.845 92.8453 361.956 95.8653 357.518 95.8055L336.906 95.8055 336.906 91.1568 357.813 91.1568C360.38 91.1525 362.458 89.0676 362.454 86.5003 362.449 83.9391 360.374 81.8638 357.813 81.8595L329.937 81.8595C327.998 81.8599 326.099 82.4025 324.453 83.426L291.606 99.2922 307.868 115.562C315.381 108.045 325.145 105.103 335.744 105.103Z" stroke="#FFFFFF" stroke-width="1.34375" fill="#0372A9"/><path d="M351.234 37.6329 351.234 43 365.911 43 365.911 37.6329C365.915 33.0741 369.608 29.3787 374.167 29.3722L415.319 29.3722 415.319 14.6864 374.167 14.6864C361.504 14.704 351.244 24.9693 351.234 37.6329Z" stroke="#FFFFFF" stroke-width="1.34375" fill="#0372A9"/><path d="M348.133 54.4219C348.133 56.2772 346.629 57.7812 344.773 57.7812 342.918 57.7812 341.414 56.2772 341.414 54.4219 341.414 52.5665 342.918 51.0625 344.773 51.0625 346.629 51.0625 348.133 52.5665 348.133 54.4219Z" stroke="#FFFFFF" stroke-width="1.34375" fill="#0372A9"/><path d="M342.758 67.1875C342.758 69.4139 340.953 71.2188 338.727 71.2188 336.5 71.2188 334.695 69.4139 334.695 67.1875 334.695 64.9611 336.5 63.1562 338.727 63.1562 340.953 63.1562 342.758 64.9611 342.758 67.1875Z" stroke="#FFFFFF" stroke-width="1.34375" fill="#0372A9"/><path d="M381.055 63.8281C381.055 65.6835 379.551 67.1875 377.695 67.1875 375.84 67.1875 374.336 65.6835 374.336 63.8281 374.336 61.9728 375.84 60.4688 377.695 60.4688 379.551 60.4688 381.055 61.9728 381.055 63.8281Z" stroke="#FFFFFF" stroke-width="1.34375" fill="#0372A9"/><path d="M366.493 63.7038C366.493 58.955 359.072 48.375 359.072 48.375 359.072 48.375 351.651 58.9249 351.652 63.7038 351.652 63.7638 351.652 63.8236 351.652 63.8836 351.702 67.9817 355.064 71.2636 359.163 71.214 363.261 71.1643 366.543 67.8019 366.493 63.7038Z" stroke="#FFFFFF" stroke-width="1.34375" fill="#0372A9"/></g></svg>