<svg width="129" height="129" xmlns="http://www.w3.org/2000/svg" xmlns:xlink="http://www.w3.org/1999/xlink" xml:space="preserve" overflow="hidden"><defs><clipPath id="clip0"><rect x="837" y="157" width="129" height="129"/></clipPath></defs><g clip-path="url(#clip0)" transform="translate(-837 -157)"><path d="M883.744 262.103 905.453 262.103C906.442 262.103 907.404 261.787 908.201 261.202L940.105 237.79C942.093 236.186 942.405 233.273 940.8 231.284 939.337 229.471 936.755 229.028 934.772 230.25L914.91 241.613C915.178 242.906 915.17 244.241 914.885 245.53 913.845 249.845 909.956 252.865 905.518 252.805L884.906 252.805 884.906 248.157 905.813 248.157C908.38 248.152 910.458 246.068 910.454 243.5 910.449 240.939 908.374 238.864 905.813 238.859L877.937 238.859C875.998 238.86 874.099 239.403 872.453 240.426L839.606 256.292 855.868 272.562C863.381 265.045 873.145 262.103 883.744 262.103Z" stroke="#FFFFFF" stroke-width="1.34375" fill="#9DDDFD"/><path d="M899.234 194.633 899.234 200 913.911 200 913.911 194.633C913.915 190.074 917.608 186.379 922.167 186.372L963.319 186.372 963.319 171.686 922.167 171.686C909.504 171.704 899.244 181.969 899.234 194.633Z" stroke="#FFFFFF" stroke-width="1.34375" fill="#9DDDFD"/><path d="M896.133 211.422C896.133 213.277 894.629 214.781 892.773 214.781 890.918 214.781 889.414 213.277 889.414 211.422 889.414 209.567 890.918 208.062 892.773 208.062 894.629 208.062 896.133 209.567 896.133 211.422Z" stroke="#FFFFFF" stroke-width="1.34375" fill="#9DDDFD"/><path d="M890.758 224.188C890.758 226.414 888.953 228.219 886.727 228.219 884.5 228.219 882.695 226.414 882.695 224.188 882.695 221.961 884.5 220.156 886.727 220.156 888.953 220.156 890.758 221.961 890.758 224.188Z" stroke="#FFFFFF" stroke-width="1.34375" fill="#9DDDFD"/><path d="M929.055 220.828C929.055 222.683 927.551 224.188 925.695 224.188 923.84 224.188 922.336 222.683 922.336 220.828 922.336 218.973 923.84 217.469 925.695 217.469 927.551 217.469 929.055 218.973 929.055 220.828Z" stroke="#FFFFFF" stroke-width="1.34375" fill="#9DDDFD"/><path d="M914.493 220.704C914.493 215.955 907.072 205.375 907.072 205.375 907.072 205.375 899.651 215.925 899.652 220.704 899.652 220.764 899.652 220.824 899.652 220.884 899.702 224.982 903.064 228.264 907.163 228.214 911.261 228.164 914.543 224.802 914.493 220.704Z" stroke="#FFFFFF" stroke-width="1.34375" fill="#9DDDFD"/></g></svg>