<svg width="442" height="441" xmlns="http://www.w3.org/2000/svg" xmlns:xlink="http://www.w3.org/1999/xlink" xml:space="preserve" overflow="hidden"><defs><clipPath id="clip0"><rect x="1777" y="28" width="442" height="441"/></clipPath><clipPath id="clip1"><rect x="1917" y="137" width="165" height="165"/></clipPath><clipPath id="clip2"><rect x="1917" y="137" width="165" height="165"/></clipPath><clipPath id="clip3"><rect x="1917" y="137" width="165" height="165"/></clipPath></defs><g clip-path="url(#clip0)" transform="translate(-1777 -28)"><path d="M220.5 45.9375C220.5 45.9375 105.656 207.638 105.656 280.219 105.656 343.613 157.106 395.063 220.5 395.063 283.894 395.063 335.344 343.613 335.344 280.219 335.344 207.178 220.5 45.9375 220.5 45.9375Z" stroke="#FFFFFF" stroke-width="4.59375" fill="#000080" transform="matrix(-1.00227 1.22742e-16 -1.22465e-16 -1 2219 469)"/><g clip-path="url(#clip1)"><g clip-path="url(#clip2)"><g clip-path="url(#clip3)"><path d="M1999 283.917C1999 283.917 2041.71 223.783 2041.71 196.792 2041.71 173.217 2022.57 154.083 1999 154.083 1975.43 154.083 1956.29 173.217 1956.29 196.792 1956.29 223.954 1999 283.917 1999 283.917Z" stroke="#FFFFFF" stroke-width="1.70823" fill="#FFFFFF"/></g></g></g></g></svg>