<svg width="442" height="442" xmlns="http://www.w3.org/2000/svg" xmlns:xlink="http://www.w3.org/1999/xlink" xml:space="preserve" overflow="hidden"><defs><clipPath id="clip0"><rect x="2177" y="1412" width="442" height="442"/></clipPath><clipPath id="clip1"><rect x="2316" y="1522" width="165" height="164"/></clipPath><clipPath id="clip2"><rect x="2316" y="1522" width="165" height="164"/></clipPath><clipPath id="clip3"><rect x="2316" y="1522" width="165" height="164"/></clipPath></defs><g clip-path="url(#clip0)" transform="translate(-2177 -1412)"><path d="M221 46.0416C221 46.0416 105.896 208.108 105.896 280.854 105.896 344.391 157.462 395.958 221 395.958 284.537 395.958 336.104 344.391 336.104 280.854 336.104 207.648 221 46.0416 221 46.0416Z" stroke="#FFFFFF" stroke-width="4.60416" fill="#808000" transform="matrix(-1 1.22465e-16 -1.22465e-16 -1 2619 1854)"/><g clip-path="url(#clip1)"><g clip-path="url(#clip2)"><g clip-path="url(#clip3)"><path d="M81.5 16.9792C81.5 16.9792 39.0521 76.7458 39.0521 103.573 39.0521 127.004 58.0687 146.021 81.5 146.021 104.931 146.021 123.948 127.004 123.948 103.573 123.948 76.576 81.5 16.9792 81.5 16.9792Z" stroke="#FFFFFF" stroke-width="1.69781" fill="#FFFFFF" transform="matrix(-1.00614 1.23216e-16 -1.22465e-16 -1 2481 1685)"/></g></g></g></g></svg>