<svg xmlns="http://www.w3.org/2000/svg" xmlns:xlink="http://www.w3.org/1999/xlink" width="442" height="441" overflow="hidden" xml:space="preserve"><defs><clipPath id="clip0"><rect width="442" height="441" x="1297" y="1860"/></clipPath><clipPath id="clip1"><rect width="165" height="164" x="1436" y="1969"/></clipPath><clipPath id="clip2"><rect width="165" height="164" x="1436" y="1969"/></clipPath><clipPath id="clip3"><rect width="165" height="164" x="1436" y="1969"/></clipPath></defs><g clip-path="url(#clip0)" transform="translate(-1297 -1860)"><path fill="#F0F" stroke="#FFF" stroke-width="4.594" d="M220.5 45.9375C220.5 45.9375 105.656 207.638 105.656 280.219 105.656 343.613 157.106 395.063 220.5 395.063 283.894 395.063 335.344 343.613 335.344 280.219 335.344 207.178 220.5 45.9375 220.5 45.9375Z" transform="matrix(-1.00227 1.22742e-16 -1.22465e-16 -1 1739 2301)"/><g clip-path="url(#clip1)"><g clip-path="url(#clip2)"><g clip-path="url(#clip3)"><path fill="#FFF" stroke="#FFF" stroke-width="1.708" d="M1519 2115.92C1519 2115.92 1561.71 2055.78 1561.71 2028.79 1561.71 2005.22 1542.57 1986.08 1519 1986.08 1495.42 1986.08 1476.29 2005.22 1476.29 2028.79 1476.29 2055.95 1519 2115.92 1519 2115.92Z"/></g></g></g></g></svg>