<svg width="441" height="441" xmlns="http://www.w3.org/2000/svg" xmlns:xlink="http://www.w3.org/1999/xlink" xml:space="preserve" overflow="hidden"><defs><clipPath id="clip0"><rect x="477" y="28" width="441" height="441"/></clipPath><clipPath id="clip1"><rect x="617" y="137" width="164" height="165"/></clipPath><clipPath id="clip2"><rect x="617" y="137" width="164" height="165"/></clipPath><clipPath id="clip3"><rect x="617" y="137" width="164" height="165"/></clipPath></defs><g clip-path="url(#clip0)" transform="translate(-477 -28)"><path d="M697.5 423.062C697.5 423.062 812.344 261.362 812.344 188.781 812.344 125.387 760.894 73.9373 697.5 73.9373 634.106 73.9373 582.656 125.387 582.656 188.781 582.656 261.822 697.5 423.062 697.5 423.062Z" stroke="#FFFFFF" stroke-width="4.59375" fill="#7137C8"/><g clip-path="url(#clip1)"><g clip-path="url(#clip2)"><g clip-path="url(#clip3)"><path d="M699 283.917C699 283.917 741.708 223.783 741.708 196.792 741.708 173.217 722.575 154.083 699 154.083 675.425 154.083 656.292 173.217 656.292 196.792 656.292 223.954 699 283.917 699 283.917Z" stroke="#FFFFFF" stroke-width="1.70823" fill="#FFFFFF"/></g></g></g></g></svg>