<svg width="442" height="442" xmlns="http://www.w3.org/2000/svg" xmlns:xlink="http://www.w3.org/1999/xlink" xml:space="preserve" overflow="hidden"><defs><clipPath id="clip0"><rect x="3055" y="500" width="442" height="442"/></clipPath><clipPath id="clip1"><rect x="3195" y="609" width="165" height="165"/></clipPath><clipPath id="clip2"><rect x="3195" y="609" width="165" height="165"/></clipPath><clipPath id="clip3"><rect x="3195" y="609" width="165" height="165"/></clipPath></defs><g clip-path="url(#clip0)" transform="translate(-3055 -500)"><path d="M221 46.0416C221 46.0416 105.896 208.108 105.896 280.854 105.896 344.391 157.462 395.958 221 395.958 284.537 395.958 336.104 344.391 336.104 280.854 336.104 207.648 221 46.0416 221 46.0416Z" stroke="#FFFFFF" stroke-width="4.60416" fill="#FFCC00" transform="matrix(-1 1.22465e-16 -1.22465e-16 -1 3497 942)"/><g clip-path="url(#clip1)"><g clip-path="url(#clip2)"><g clip-path="url(#clip3)"><path d="M3277 755.917C3277 755.917 3319.71 695.783 3319.71 668.792 3319.71 645.217 3300.58 626.083 3277 626.083 3253.43 626.083 3234.29 645.217 3234.29 668.792 3234.29 695.954 3277 755.917 3277 755.917Z" stroke="#FFFFFF" stroke-width="1.70823" fill="#FFFFFF"/></g></g></g></g></svg>