<svg xmlns="http://www.w3.org/2000/svg" xmlns:xlink="http://www.w3.org/1999/xlink" width="442" height="442" overflow="hidden" xml:space="preserve"><defs><clipPath id="clip0"><rect width="442" height="442" x="1309" y="500"/></clipPath><clipPath id="clip1"><rect width="164" height="165" x="1449" y="609"/></clipPath><clipPath id="clip2"><rect width="164" height="165" x="1449" y="609"/></clipPath><clipPath id="clip3"><rect width="164" height="165" x="1449" y="609"/></clipPath></defs><g clip-path="url(#clip0)" transform="translate(-1309 -500)"><path fill="#FF0" stroke="#FFF" stroke-width="4.604" d="M221 46.0416C221 46.0416 105.896 208.108 105.896 280.854 105.896 344.391 157.462 395.958 221 395.958 284.537 395.958 336.104 344.391 336.104 280.854 336.104 207.648 221 46.0416 221 46.0416Z" transform="matrix(-1 1.22465e-16 -1.22465e-16 -1 1751 942)"/><g clip-path="url(#clip1)"><g clip-path="url(#clip2)"><g clip-path="url(#clip3)"><path fill="#FFF" stroke="#FFF" stroke-width="1.698" d="M81.5 16.9792C81.5 16.9792 39.0521 76.7458 39.0521 103.573 39.0521 127.004 58.0687 146.021 81.5 146.021 104.931 146.021 123.948 127.004 123.948 103.573 123.948 76.576 81.5 16.9792 81.5 16.9792Z" transform="matrix(-1 1.22465e-16 -1.23216e-16 -1.00614 1613 773)"/></g></g></g></g></svg>