<svg xmlns="http://www.w3.org/2000/svg" xmlns:xlink="http://www.w3.org/1999/xlink" width="442" height="441" overflow="hidden" xml:space="preserve"><defs><clipPath id="clip0"><rect width="442" height="441" x="3055" y="942"/></clipPath><clipPath id="clip1"><rect width="165" height="166" x="3195" y="1050"/></clipPath><clipPath id="clip2"><rect width="165" height="166" x="3195" y="1050"/></clipPath><clipPath id="clip3"><rect width="165" height="166" x="3195" y="1050"/></clipPath></defs><g clip-path="url(#clip0)" transform="translate(-3055 -942)"><path fill="#F96" stroke="#FFF" stroke-width="4.594" d="M220.5 45.9375C220.5 45.9375 105.656 207.638 105.656 280.219 105.656 343.613 157.106 395.063 220.5 395.063 283.894 395.063 335.344 343.613 335.344 280.219 335.344 207.178 220.5 45.9375 220.5 45.9375Z" transform="matrix(-1.00227 1.22742e-16 -1.22465e-16 -1 3497 1383)"/><g clip-path="url(#clip1)"><g clip-path="url(#clip2)"><g clip-path="url(#clip3)"><path fill="#FFF" stroke="#FFF" stroke-width="1.708" d="M82 17.0833C82 17.0833 39.2917 77.2167 39.2917 104.208 39.2917 127.783 58.425 146.917 82 146.917 105.575 146.917 124.708 127.783 124.708 104.208 124.708 77.0458 82 17.0833 82 17.0833Z" transform="matrix(-1 1.22465e-16 -1.22465e-16 -1 3359 1215)"/></g></g></g></g></svg>