<svg xmlns="http://www.w3.org/2000/svg" xmlns:xlink="http://www.w3.org/1999/xlink" width="442" height="442" overflow="hidden" xml:space="preserve"><defs><clipPath id="clip0"><rect width="442" height="442" x="2621" y="921"/></clipPath><clipPath id="clip1"><rect width="164" height="164" x="2761" y="1030"/></clipPath><clipPath id="clip2"><rect width="164" height="164" x="2761" y="1030"/></clipPath><clipPath id="clip3"><rect width="164" height="164" x="2761" y="1030"/></clipPath></defs><g clip-path="url(#clip0)" transform="translate(-2621 -921)"><path fill="#C8BEB7" stroke="#FFF" stroke-width="4.604" d="M2842 1316.96C2842 1316.96 2957.1 1154.89 2957.1 1082.15 2957.1 1018.61 2905.54 967.042 2842 967.042 2778.46 967.042 2726.9 1018.61 2726.9 1082.15 2726.9 1155.35 2842 1316.96 2842 1316.96Z"/><g clip-path="url(#clip1)"><g clip-path="url(#clip2)"><g clip-path="url(#clip3)"><path fill="#FFF" stroke="#FFF" stroke-width="1.698" d="M81.5 16.9792C81.5 16.9792 39.0521 76.7458 39.0521 103.573 39.0521 127.004 58.0687 146.021 81.5 146.021 104.931 146.021 123.948 127.004 123.948 103.573 123.948 76.576 81.5 16.9792 81.5 16.9792Z" transform="matrix(-1.00614 1.23216e-16 -1.22465e-16 -1 2925 1194)"/></g></g></g></g></svg>