<svg width="442" height="442" xmlns="http://www.w3.org/2000/svg" xmlns:xlink="http://www.w3.org/1999/xlink" xml:space="preserve" overflow="hidden"><defs><clipPath id="clip0"><rect x="2613" y="1412" width="442" height="442"/></clipPath><clipPath id="clip1"><rect x="2754" y="1522" width="164" height="164"/></clipPath><clipPath id="clip2"><rect x="2754" y="1522" width="164" height="164"/></clipPath><clipPath id="clip3"><rect x="2754" y="1522" width="164" height="164"/></clipPath></defs><g clip-path="url(#clip0)" transform="translate(-2613 -1412)"><path d="M221 46.0416C221 46.0416 105.896 208.108 105.896 280.854 105.896 344.391 157.462 395.958 221 395.958 284.537 395.958 336.104 344.391 336.104 280.854 336.104 207.648 221 46.0416 221 46.0416Z" stroke="#FFFFFF" stroke-width="4.60416" fill="#E3DEDB" transform="matrix(-1 1.22465e-16 -1.22465e-16 -1 3055 1854)"/><g clip-path="url(#clip1)"><g clip-path="url(#clip2)"><g clip-path="url(#clip3)"><path d="M2835.5 1668.02C2835.5 1668.02 2877.95 1608.25 2877.95 1581.43 2877.95 1558 2858.93 1538.98 2835.5 1538.98 2812.07 1538.98 2793.05 1558 2793.05 1581.43 2793.05 1608.42 2835.5 1668.02 2835.5 1668.02Z" stroke="#FFFFFF" stroke-width="1.69781" fill="#FFFFFF"/></g></g></g></g></svg>