<svg width="129" height="129" xmlns="http://www.w3.org/2000/svg" xmlns:xlink="http://www.w3.org/1999/xlink" xml:space="preserve" overflow="hidden"><defs><clipPath id="clip0"><rect x="632" y="2" width="129" height="129"/></clipPath></defs><g clip-path="url(#clip0)" transform="translate(-632 -2)"><path d="M736.812 97.1241C734.048 97.2312 731.321 97.8083 728.75 98.8306 727.038 99.539 725.223 99.9656 723.375 100.094 721.527 99.9656 719.712 99.539 718 98.8306 715.429 97.8083 712.702 97.2312 709.938 97.1241 707.173 97.2312 704.446 97.8083 701.875 98.8306 700.163 99.539 698.348 99.9656 696.5 100.094 694.652 99.9656 692.837 99.539 691.125 98.8306 688.554 97.8083 685.827 97.2312 683.062 97.1241 680.298 97.2312 677.571 97.8083 675 98.8306 673.288 99.539 671.473 99.9656 669.625 100.094 667.777 99.9656 665.962 99.539 664.25 98.8306 661.679 97.8083 658.952 97.2312 656.188 97.1241 653.423 97.2312 650.696 97.8083 648.125 98.8306 646.413 99.539 644.598 99.9656 642.75 100.094L642.75 108.156C645.515 108.049 648.241 107.472 650.812 106.45 652.52 105.714 654.335 105.26 656.188 105.106 658.04 105.26 659.855 105.714 661.562 106.45 664.134 107.472 666.86 108.049 669.625 108.156 672.39 108.049 675.116 107.472 677.688 106.45 679.395 105.714 681.21 105.26 683.062 105.106 684.911 105.234 686.726 105.661 688.438 106.369 691.002 107.425 693.73 108.03 696.5 108.156 699.265 108.049 701.991 107.472 704.562 106.45 706.27 105.714 708.085 105.26 709.938 105.106 711.79 105.26 713.605 105.714 715.312 106.45 717.884 107.472 720.61 108.049 723.375 108.156 726.14 108.049 728.866 107.472 731.438 106.45 733.145 105.714 734.96 105.26 736.812 105.106 738.661 105.234 740.476 105.661 742.188 106.369 744.752 107.425 747.48 108.03 750.25 108.156L750.25 100.094C748.402 99.9656 746.587 99.539 744.875 98.8306 742.304 97.8083 739.577 97.2312 736.812 97.1241Z" stroke="#FFFFFF" stroke-width="1.34375" fill="#4EA4CE"/><path d="M744.875 82.7056C742.304 81.6833 739.577 81.1062 736.812 80.9991 734.048 81.1062 731.321 81.6833 728.75 82.7056 727.038 83.414 725.223 83.8406 723.375 83.9688 721.527 83.8406 719.712 83.414 718 82.7056 717.066 82.3407 716.11 82.0354 715.138 81.7919 703.931 76.6991 698.207 66.4463 699.013 58.5181 699.685 51.6784 703.797 43.9787 711.241 43.2128 718.416 42.4113 724.987 47.3027 726.278 54.4062 726.457 55.6125 727.533 56.4783 728.75 56.395 729.395 56.3356 729.99 56.0213 730.403 55.5216 730.802 55.017 730.981 54.3728 730.9 53.7344 728.495 35.7953 712.504 23.7419 693.812 25.6634 683.667 26.7116 674.14 33.0541 665.486 44.4759 664.331 45.9944 663.202 47.5263 662.073 49.0581 656.067 57.1206 650.342 64.9144 642.804 70.1819L642.804 92.0312C645.569 91.9242 648.295 91.347 650.866 90.3247 652.573 89.5889 654.389 89.1349 656.241 88.9809 658.094 89.1349 659.909 89.5889 661.616 90.3247 664.17 91.3411 666.878 91.9181 669.625 92.0312 672.39 91.9242 675.116 91.347 677.688 90.3247 679.395 89.5889 681.21 89.1349 683.062 88.9809 684.911 89.1091 686.726 89.5356 688.438 90.2441 691.002 91.3001 693.73 91.9048 696.5 92.0312 699.265 91.9242 701.991 91.347 704.562 90.3247 706.27 89.5889 708.085 89.1351 709.938 88.9809 711.79 89.1351 713.605 89.5889 715.312 90.3247 717.884 91.347 720.61 91.9242 723.375 92.0312 726.14 91.9242 728.866 91.347 731.438 90.3247 733.145 89.5889 734.96 89.1351 736.812 88.9809 738.661 89.1091 740.476 89.5356 742.188 90.2441 744.752 91.3001 747.48 91.9048 750.25 92.0312L750.25 83.9688C748.402 83.8406 746.587 83.414 744.875 82.7056Z" stroke="#FFFFFF" stroke-width="1.34375" fill="#4EA4CE"/></g></svg>