<svg width="129" height="129" xmlns="http://www.w3.org/2000/svg" xmlns:xlink="http://www.w3.org/1999/xlink" xml:space="preserve" overflow="hidden"><defs><clipPath id="clip0"><rect x="1" y="2" width="129" height="129"/></clipPath></defs><g clip-path="url(#clip0)" transform="translate(-1 -2)"><path d="M105.812 97.1241C103.048 97.2312 100.321 97.8083 97.75 98.8306 96.0383 99.539 94.2231 99.9656 92.375 100.094 90.5269 99.9656 88.7117 99.539 87 98.8306 84.4289 97.8083 81.7024 97.2312 78.9375 97.1241 76.1726 97.2312 73.4461 97.8083 70.875 98.8306 69.1633 99.539 67.3481 99.9656 65.5 100.094 63.6519 99.9656 61.8367 99.539 60.125 98.8306 57.5539 97.8083 54.8274 97.2312 52.0625 97.1241 49.2976 97.2312 46.5711 97.8083 44 98.8306 42.2882 99.539 40.4731 99.9656 38.625 100.094 36.7769 99.9656 34.9618 99.539 33.25 98.8306 30.6789 97.8083 27.9524 97.2312 25.1875 97.1241 22.4226 97.2312 19.6961 97.8083 17.125 98.8306 15.4132 99.539 13.5981 99.9656 11.75 100.094L11.75 108.156C14.5149 108.049 17.2414 107.472 19.8125 106.45 21.5196 105.714 23.3349 105.26 25.1875 105.106 27.0401 105.26 28.8554 105.714 30.5625 106.45 33.1336 107.472 35.8601 108.049 38.625 108.156 41.3899 108.049 44.1164 107.472 46.6875 106.45 48.3946 105.714 50.2099 105.26 52.0625 105.106 53.9106 105.234 55.7258 105.661 57.4375 106.369 60.0019 107.425 62.7296 108.03 65.5 108.156 68.2649 108.049 70.9914 107.472 73.5625 106.45 75.2696 105.714 77.0849 105.26 78.9375 105.106 80.7901 105.26 82.6054 105.714 84.3125 106.45 86.8836 107.472 89.6101 108.049 92.375 108.156 95.1399 108.049 97.8664 107.472 100.438 106.45 102.145 105.714 103.96 105.26 105.812 105.106 107.661 105.234 109.476 105.661 111.188 106.369 113.752 107.425 116.48 108.03 119.25 108.156L119.25 100.094C117.402 99.9656 115.587 99.539 113.875 98.8306 111.304 97.8083 108.577 97.2312 105.812 97.1241Z" stroke="#FFFFFF" stroke-width="1.34375" fill="#01324A"/><path d="M113.875 82.7056C111.304 81.6833 108.577 81.1062 105.812 80.9991 103.048 81.1062 100.321 81.6833 97.75 82.7056 96.0383 83.414 94.2231 83.8406 92.375 83.9688 90.5269 83.8406 88.7117 83.414 87 82.7056 86.0662 82.3407 85.1103 82.0354 84.1378 81.7919 72.9309 76.6991 67.2066 66.4463 68.0128 58.5181 68.6847 51.6784 72.7966 43.9787 80.2409 43.2128 87.4163 42.4113 93.987 47.3027 95.2775 54.4062 95.4569 55.6125 96.5334 56.4783 97.75 56.395 98.3953 56.3356 98.9903 56.0213 99.4028 55.5216 99.8022 55.017 99.9814 54.3728 99.9 53.7344 97.4947 35.7953 81.5041 23.7419 62.8125 25.6634 52.6672 26.7116 43.14 33.0541 34.4863 44.4759 33.3306 45.9944 32.2019 47.5263 31.0731 49.0581 25.0666 57.1206 19.3422 64.9144 11.8038 70.1819L11.8038 92.0312C14.5687 91.9242 17.2951 91.347 19.8662 90.3247 21.5734 89.5889 23.3886 89.1349 25.2413 88.9809 27.0939 89.1349 28.9091 89.5889 30.6163 90.3247 33.1704 91.3411 35.8782 91.9181 38.625 92.0312 41.3899 91.9242 44.1164 91.347 46.6875 90.3247 48.3946 89.5889 50.2099 89.1349 52.0625 88.9809 53.9106 89.1091 55.7258 89.5356 57.4375 90.2441 60.0019 91.3001 62.7296 91.9048 65.5 92.0312 68.2649 91.9242 70.9914 91.347 73.5625 90.3247 75.2696 89.5889 77.0849 89.1351 78.9375 88.9809 80.7901 89.1351 82.6054 89.5889 84.3125 90.3247 86.8836 91.347 89.6101 91.9242 92.375 92.0312 95.1399 91.9242 97.8664 91.347 100.438 90.3247 102.145 89.5889 103.96 89.1351 105.812 88.9809 107.661 89.1091 109.476 89.5356 111.188 90.2441 113.752 91.3001 116.48 91.9048 119.25 92.0312L119.25 83.9688C117.402 83.8406 115.587 83.414 113.875 82.7056Z" stroke="#FFFFFF" stroke-width="1.34375" fill="#01324A"/></g></svg>