<svg width="129" height="128" xmlns="http://www.w3.org/2000/svg" xmlns:xlink="http://www.w3.org/1999/xlink" xml:space="preserve" overflow="hidden"><defs><clipPath id="clip0"><rect x="947" y="118" width="129" height="128"/></clipPath></defs><g clip-path="url(#clip0)" transform="translate(-947 -118)"><path d="M104 94.3867C101.257 94.4929 98.5512 95.0656 96 96.08 94.3016 96.7829 92.5004 97.2061 90.6667 97.3333 88.8329 97.2061 87.0317 96.7829 85.3333 96.08 82.7821 95.0656 80.0768 94.4929 77.3333 94.3867 74.5899 94.4929 71.8845 95.0656 69.3333 96.08 67.6349 96.7829 65.8337 97.2061 64 97.3333 62.1663 97.2061 60.3651 96.7829 58.6667 96.08 56.1155 95.0656 53.4101 94.4929 50.6667 94.3867 47.9232 94.4929 45.2179 95.0656 42.6667 96.08 40.9681 96.7829 39.1671 97.2061 37.3333 97.3333 35.4996 97.2061 33.6985 96.7829 32 96.08 29.4488 95.0656 26.7435 94.4929 24 94.3867 21.2565 94.4929 18.5512 95.0656 16 96.08 14.3015 96.7829 12.5004 97.2061 10.6667 97.3333L10.6667 105.333C13.4101 105.227 16.1155 104.654 18.6667 103.64 20.3605 102.91 22.1617 102.459 24 102.307 25.8383 102.459 27.6395 102.91 29.3333 103.64 31.8845 104.654 34.5899 105.227 37.3333 105.333 40.0768 105.227 42.7821 104.654 45.3333 103.64 47.0272 102.91 48.8284 102.459 50.6667 102.307 52.5004 102.434 54.3016 102.857 56 103.56 58.5445 104.608 61.2511 105.208 64 105.333 66.7435 105.227 69.4488 104.654 72 103.64 73.6939 102.91 75.4951 102.46 77.3333 102.307 79.1716 102.46 80.9728 102.91 82.6667 103.64 85.2179 104.654 87.9232 105.227 90.6667 105.333 93.4101 105.227 96.1155 104.654 98.6667 103.64 100.361 102.91 102.162 102.46 104 102.307 105.834 102.434 107.635 102.857 109.333 103.56 111.878 104.608 114.584 105.208 117.333 105.333L117.333 97.3333C115.5 97.2061 113.698 96.7829 112 96.08 109.449 95.0656 106.743 94.4929 104 94.3867Z" stroke="#FFFFFF" stroke-width="1.33333" fill="#9DDDFD" transform="matrix(1.00781 0 0 1 947 118)"/><path d="M112 80.08C109.449 79.0656 106.743 78.4929 104 78.3867 101.257 78.4929 98.5512 79.0656 96 80.08 94.3016 80.7829 92.5004 81.2061 90.6667 81.3333 88.8329 81.2061 87.0317 80.7829 85.3333 80.08 84.4068 79.7179 83.4583 79.4149 82.4933 79.1733 71.3733 74.12 65.6933 63.9467 66.4933 56.08 67.16 49.2933 71.24 41.6533 78.6267 40.8933 85.7464 40.098 92.2661 44.9515 93.5467 52 93.7247 53.1969 94.7928 54.056 96 53.9733 96.6403 53.9144 97.2307 53.6025 97.64 53.1067 98.0363 52.606 98.2141 51.9668 98.1333 51.3333 95.7467 33.5333 79.88 21.5733 61.3333 23.48 51.2667 24.52 41.8133 30.8133 33.2267 42.1467 32.08 43.6533 30.96 45.1733 29.84 46.6933 23.88 54.6933 18.2 62.4267 10.72 67.6533L10.72 89.3333C13.4635 89.2271 16.1688 88.6544 18.72 87.64 20.4139 86.9099 22.2151 86.4595 24.0533 86.3067 25.8916 86.4595 27.6928 86.9099 29.3867 87.64 31.9211 88.6485 34.6079 89.2211 37.3333 89.3333 40.0768 89.2271 42.7821 88.6544 45.3333 87.64 47.0272 86.9099 48.8284 86.4595 50.6667 86.3067 52.5004 86.4339 54.3016 86.8571 56 87.56 58.5445 88.6079 61.2511 89.2079 64 89.3333 66.7435 89.2271 69.4488 88.6544 72 87.64 73.6939 86.9099 75.4951 86.4596 77.3333 86.3067 79.1716 86.4596 80.9728 86.9099 82.6667 87.64 85.2179 88.6544 87.9232 89.2271 90.6667 89.3333 93.4101 89.2271 96.1155 88.6544 98.6667 87.64 100.361 86.9099 102.162 86.4596 104 86.3067 105.834 86.4339 107.635 86.8571 109.333 87.56 111.878 88.6079 114.584 89.2079 117.333 89.3333L117.333 81.3333C115.5 81.2061 113.698 80.7829 112 80.08Z" stroke="#FFFFFF" stroke-width="1.33333" fill="#9DDDFD" transform="matrix(1.00781 0 0 1 947 118)"/></g></svg>