<svg width="129" height="129" xmlns="http://www.w3.org/2000/svg" xmlns:xlink="http://www.w3.org/1999/xlink" xml:space="preserve" overflow="hidden"><defs><clipPath id="clip0"><rect x="168" y="497" width="129" height="129"/></clipPath></defs><g clip-path="url(#clip0)" transform="translate(-168 -497)"><path d="M272.812 592.124C270.048 592.231 267.321 592.808 264.75 593.831 263.038 594.539 261.223 594.966 259.375 595.094 257.527 594.966 255.712 594.539 254 593.831 251.429 592.808 248.702 592.231 245.938 592.124 243.173 592.231 240.446 592.808 237.875 593.831 236.163 594.539 234.348 594.966 232.5 595.094 230.652 594.966 228.837 594.539 227.125 593.831 224.554 592.808 221.827 592.231 219.062 592.124 216.298 592.231 213.571 592.808 211 593.831 209.288 594.539 207.473 594.966 205.625 595.094 203.777 594.966 201.962 594.539 200.25 593.831 197.679 592.808 194.952 592.231 192.188 592.124 189.423 592.231 186.696 592.808 184.125 593.831 182.413 594.539 180.598 594.966 178.75 595.094L178.75 603.156C181.515 603.049 184.241 602.472 186.812 601.45 188.52 600.714 190.335 600.26 192.188 600.106 194.04 600.26 195.855 600.714 197.562 601.45 200.134 602.472 202.86 603.049 205.625 603.156 208.39 603.049 211.116 602.472 213.688 601.45 215.395 600.714 217.21 600.26 219.062 600.106 220.911 600.234 222.726 600.661 224.438 601.369 227.002 602.425 229.73 603.03 232.5 603.156 235.265 603.049 237.991 602.472 240.562 601.45 242.27 600.714 244.085 600.26 245.938 600.106 247.79 600.26 249.605 600.714 251.312 601.45 253.884 602.472 256.61 603.049 259.375 603.156 262.14 603.049 264.866 602.472 267.438 601.45 269.145 600.714 270.96 600.26 272.812 600.106 274.661 600.234 276.476 600.661 278.188 601.369 280.752 602.425 283.48 603.03 286.25 603.156L286.25 595.094C284.402 594.966 282.587 594.539 280.875 593.831 278.304 592.808 275.577 592.231 272.812 592.124Z" stroke="#FFFFFF" stroke-width="1.34375" fill="#007FDE"/><path d="M280.875 577.706C278.304 576.683 275.577 576.106 272.812 575.999 270.048 576.106 267.321 576.683 264.75 577.706 263.038 578.414 261.223 578.841 259.375 578.969 257.527 578.841 255.712 578.414 254 577.706 253.066 577.341 252.11 577.035 251.138 576.792 239.931 571.699 234.207 561.446 235.013 553.518 235.685 546.678 239.797 538.979 247.241 538.213 254.416 537.411 260.987 542.303 262.277 549.406 262.457 550.613 263.533 551.478 264.75 551.395 265.395 551.336 265.99 551.021 266.403 550.522 266.802 550.017 266.981 549.373 266.9 548.734 264.495 530.795 248.504 518.742 229.812 520.663 219.667 521.712 210.14 528.054 201.486 539.476 200.331 540.994 199.202 542.526 198.073 544.058 192.067 552.121 186.342 559.914 178.804 565.182L178.804 587.031C181.569 586.924 184.295 586.347 186.866 585.325 188.573 584.589 190.389 584.135 192.241 583.981 194.094 584.135 195.909 584.589 197.616 585.325 200.17 586.341 202.878 586.918 205.625 587.031 208.39 586.924 211.116 586.347 213.688 585.325 215.395 584.589 217.21 584.135 219.062 583.981 220.911 584.109 222.726 584.536 224.438 585.244 227.002 586.3 229.73 586.905 232.5 587.031 235.265 586.924 237.991 586.347 240.562 585.325 242.27 584.589 244.085 584.135 245.938 583.981 247.79 584.135 249.605 584.589 251.312 585.325 253.884 586.347 256.61 586.924 259.375 587.031 262.14 586.924 264.866 586.347 267.438 585.325 269.145 584.589 270.96 584.135 272.812 583.981 274.661 584.109 276.476 584.536 278.188 585.244 280.752 586.3 283.48 586.905 286.25 587.031L286.25 578.969C284.402 578.841 282.587 578.414 280.875 577.706Z" stroke="#FFFFFF" stroke-width="1.34375" fill="#007FDE"/></g></svg>