<svg xmlns="http://www.w3.org/2000/svg" xmlns:xlink="http://www.w3.org/1999/xlink" width="129" height="129" overflow="hidden" xml:space="preserve"><defs><clipPath id="clip0"><rect width="129" height="129" x="1115" y="497"/></clipPath></defs><g clip-path="url(#clip0)" transform="translate(-1115 -497)"><path fill="#BDE3FF" stroke="#FFF" stroke-width="1.344" d="M1219.81 592.124C1217.05 592.231 1214.32 592.808 1211.75 593.831 1210.04 594.539 1208.22 594.966 1206.38 595.094 1204.53 594.966 1202.71 594.539 1201 593.831 1198.43 592.808 1195.7 592.231 1192.94 592.124 1190.17 592.231 1187.45 592.808 1184.88 593.831 1183.16 594.539 1181.35 594.966 1179.5 595.094 1177.65 594.966 1175.84 594.539 1174.12 593.831 1171.55 592.808 1168.83 592.231 1166.06 592.124 1163.3 592.231 1160.57 592.808 1158 593.831 1156.29 594.539 1154.47 594.966 1152.62 595.094 1150.78 594.966 1148.96 594.539 1147.25 593.831 1144.68 592.808 1141.95 592.231 1139.19 592.124 1136.42 592.231 1133.7 592.808 1131.12 593.831 1129.41 594.539 1127.6 594.966 1125.75 595.094L1125.75 603.156C1128.51 603.049 1131.24 602.472 1133.81 601.45 1135.52 600.714 1137.33 600.26 1139.19 600.106 1141.04 600.26 1142.86 600.714 1144.56 601.45 1147.13 602.472 1149.86 603.049 1152.62 603.156 1155.39 603.049 1158.12 602.472 1160.69 601.45 1162.39 600.714 1164.21 600.26 1166.06 600.106 1167.91 600.234 1169.73 600.661 1171.44 601.369 1174 602.425 1176.73 603.03 1179.5 603.156 1182.26 603.049 1184.99 602.472 1187.56 601.45 1189.27 600.714 1191.08 600.26 1192.94 600.106 1194.79 600.26 1196.61 600.714 1198.31 601.45 1200.88 602.472 1203.61 603.049 1206.38 603.156 1209.14 603.049 1211.87 602.472 1214.44 601.45 1216.14 600.714 1217.96 600.26 1219.81 600.106 1221.66 600.234 1223.48 600.661 1225.19 601.369 1227.75 602.425 1230.48 603.03 1233.25 603.156L1233.25 595.094C1231.4 594.966 1229.59 594.539 1227.88 593.831 1225.3 592.808 1222.58 592.231 1219.81 592.124Z"/><path fill="#BDE3FF" stroke="#FFF" stroke-width="1.344" d="M1227.88 577.706C1225.3 576.683 1222.58 576.106 1219.81 575.999 1217.05 576.106 1214.32 576.683 1211.75 577.706 1210.04 578.414 1208.22 578.841 1206.38 578.969 1204.53 578.841 1202.71 578.414 1201 577.706 1200.07 577.341 1199.11 577.035 1198.14 576.792 1186.93 571.699 1181.21 561.446 1182.01 553.518 1182.68 546.678 1186.8 538.979 1194.24 538.213 1201.42 537.411 1207.99 542.303 1209.28 549.406 1209.46 550.613 1210.53 551.478 1211.75 551.395 1212.4 551.336 1212.99 551.021 1213.4 550.522 1213.8 550.017 1213.98 549.373 1213.9 548.734 1211.49 530.795 1195.5 518.742 1176.81 520.663 1166.67 521.712 1157.14 528.054 1148.49 539.476 1147.33 540.994 1146.2 542.526 1145.07 544.058 1139.07 552.121 1133.34 559.914 1125.8 565.182L1125.8 587.031C1128.57 586.924 1131.3 586.347 1133.87 585.325 1135.57 584.589 1137.39 584.135 1139.24 583.981 1141.09 584.135 1142.91 584.589 1144.62 585.325 1147.17 586.341 1149.88 586.918 1152.62 587.031 1155.39 586.924 1158.12 586.347 1160.69 585.325 1162.39 584.589 1164.21 584.135 1166.06 583.981 1167.91 584.109 1169.73 584.536 1171.44 585.244 1174 586.3 1176.73 586.905 1179.5 587.031 1182.26 586.924 1184.99 586.347 1187.56 585.325 1189.27 584.589 1191.08 584.135 1192.94 583.981 1194.79 584.135 1196.61 584.589 1198.31 585.325 1200.88 586.347 1203.61 586.924 1206.38 587.031 1209.14 586.924 1211.87 586.347 1214.44 585.325 1216.14 584.589 1217.96 584.135 1219.81 583.981 1221.66 584.109 1223.48 584.536 1225.19 585.244 1227.75 586.3 1230.48 586.905 1233.25 587.031L1233.25 578.969C1231.4 578.841 1229.59 578.414 1227.88 577.706Z"/></g></svg>