<svg width="128" height="128" xmlns="http://www.w3.org/2000/svg" xmlns:xlink="http://www.w3.org/1999/xlink" xml:space="preserve" overflow="hidden"><defs><clipPath id="clip0"><rect x="800" y="382" width="128" height="128"/></clipPath></defs><g clip-path="url(#clip0)" transform="translate(-800 -382)"><path d="M904 476.387C901.257 476.493 898.551 477.066 896 478.08 894.302 478.783 892.5 479.206 890.667 479.333 888.833 479.206 887.032 478.783 885.333 478.08 882.782 477.066 880.077 476.493 877.333 476.387 874.59 476.493 871.885 477.066 869.333 478.08 867.635 478.783 865.834 479.206 864 479.333 862.166 479.206 860.365 478.783 858.667 478.08 856.115 477.066 853.41 476.493 850.667 476.387 847.923 476.493 845.218 477.066 842.667 478.08 840.968 478.783 839.167 479.206 837.333 479.333 835.5 479.206 833.699 478.783 832 478.08 829.449 477.066 826.743 476.493 824 476.387 821.257 476.493 818.551 477.066 816 478.08 814.301 478.783 812.5 479.206 810.667 479.333L810.667 487.333C813.41 487.227 816.115 486.654 818.667 485.64 820.361 484.91 822.162 484.459 824 484.307 825.838 484.459 827.639 484.91 829.333 485.64 831.885 486.654 834.59 487.227 837.333 487.333 840.077 487.227 842.782 486.654 845.333 485.64 847.027 484.91 848.828 484.459 850.667 484.307 852.5 484.434 854.302 484.857 856 485.56 858.545 486.608 861.251 487.208 864 487.333 866.743 487.227 869.449 486.654 872 485.64 873.694 484.91 875.495 484.46 877.333 484.307 879.172 484.46 880.973 484.91 882.667 485.64 885.218 486.654 887.923 487.227 890.667 487.333 893.41 487.227 896.115 486.654 898.667 485.64 900.361 484.91 902.162 484.46 904 484.307 905.834 484.434 907.635 484.857 909.333 485.56 911.878 486.608 914.584 487.208 917.333 487.333L917.333 479.333C915.5 479.206 913.698 478.783 912 478.08 909.449 477.066 906.743 476.493 904 476.387Z" stroke="#FFFFFF" stroke-width="1.33333" fill="#03D6DB"/><path d="M912 462.08C909.449 461.066 906.743 460.493 904 460.387 901.257 460.493 898.551 461.066 896 462.08 894.302 462.783 892.5 463.206 890.667 463.333 888.833 463.206 887.032 462.783 885.333 462.08 884.407 461.718 883.458 461.415 882.493 461.173 871.373 456.12 865.693 445.947 866.493 438.08 867.16 431.293 871.24 423.653 878.627 422.893 885.746 422.098 892.266 426.951 893.547 434 893.725 435.197 894.793 436.056 896 435.973 896.64 435.914 897.231 435.603 897.64 435.107 898.036 434.606 898.214 433.967 898.133 433.333 895.747 415.533 879.88 403.573 861.333 405.48 851.267 406.52 841.813 412.813 833.227 424.147 832.08 425.653 830.96 427.173 829.84 428.693 823.88 436.693 818.2 444.427 810.72 449.653L810.72 471.333C813.463 471.227 816.169 470.654 818.72 469.64 820.414 468.91 822.215 468.459 824.053 468.307 825.892 468.459 827.693 468.91 829.387 469.64 831.921 470.649 834.608 471.221 837.333 471.333 840.077 471.227 842.782 470.654 845.333 469.64 847.027 468.91 848.828 468.459 850.667 468.307 852.5 468.434 854.302 468.857 856 469.56 858.545 470.608 861.251 471.208 864 471.333 866.743 471.227 869.449 470.654 872 469.64 873.694 468.91 875.495 468.46 877.333 468.307 879.172 468.46 880.973 468.91 882.667 469.64 885.218 470.654 887.923 471.227 890.667 471.333 893.41 471.227 896.115 470.654 898.667 469.64 900.361 468.91 902.162 468.46 904 468.307 905.834 468.434 907.635 468.857 909.333 469.56 911.878 470.608 914.584 471.208 917.333 471.333L917.333 463.333C915.5 463.206 913.698 462.783 912 462.08Z" stroke="#FFFFFF" stroke-width="1.33333" fill="#03D6DB"/></g></svg>