<svg width="129" height="129" xmlns="http://www.w3.org/2000/svg" xmlns:xlink="http://www.w3.org/1999/xlink" xml:space="preserve" overflow="hidden"><defs><clipPath id="clip0"><rect x="632" y="256" width="129" height="129"/></clipPath></defs><g clip-path="url(#clip0)" transform="translate(-632 -256)"><path d="M736.812 351.124C734.048 351.231 731.321 351.808 728.75 352.831 727.038 353.539 725.223 353.966 723.375 354.094 721.527 353.966 719.712 353.539 718 352.831 715.429 351.808 712.702 351.231 709.938 351.124 707.173 351.231 704.446 351.808 701.875 352.831 700.163 353.539 698.348 353.966 696.5 354.094 694.652 353.966 692.837 353.539 691.125 352.831 688.554 351.808 685.827 351.231 683.062 351.124 680.298 351.231 677.571 351.808 675 352.831 673.288 353.539 671.473 353.966 669.625 354.094 667.777 353.966 665.962 353.539 664.25 352.831 661.679 351.808 658.952 351.231 656.188 351.124 653.423 351.231 650.696 351.808 648.125 352.831 646.413 353.539 644.598 353.966 642.75 354.094L642.75 362.156C645.515 362.049 648.241 361.472 650.812 360.45 652.52 359.714 654.335 359.26 656.188 359.106 658.04 359.26 659.855 359.714 661.562 360.45 664.134 361.472 666.86 362.049 669.625 362.156 672.39 362.049 675.116 361.472 677.688 360.45 679.395 359.714 681.21 359.26 683.062 359.106 684.911 359.234 686.726 359.661 688.438 360.369 691.002 361.425 693.73 362.03 696.5 362.156 699.265 362.049 701.991 361.472 704.562 360.45 706.27 359.714 708.085 359.26 709.938 359.106 711.79 359.26 713.605 359.714 715.312 360.45 717.884 361.472 720.61 362.049 723.375 362.156 726.14 362.049 728.866 361.472 731.438 360.45 733.145 359.714 734.96 359.26 736.812 359.106 738.661 359.234 740.476 359.661 742.188 360.369 744.752 361.425 747.48 362.03 750.25 362.156L750.25 354.094C748.402 353.966 746.587 353.539 744.875 352.831 742.304 351.808 739.577 351.231 736.812 351.124Z" stroke="#FFFFFF" stroke-width="1.34375" fill="#3551DB"/><path d="M744.875 336.706C742.304 335.683 739.577 335.106 736.812 334.999 734.048 335.106 731.321 335.683 728.75 336.706 727.038 337.414 725.223 337.841 723.375 337.969 721.527 337.841 719.712 337.414 718 336.706 717.066 336.341 716.11 336.035 715.138 335.792 703.931 330.699 698.207 320.446 699.013 312.518 699.685 305.678 703.797 297.979 711.241 297.213 718.416 296.411 724.987 301.303 726.278 308.406 726.457 309.613 727.533 310.478 728.75 310.395 729.395 310.336 729.99 310.021 730.403 309.522 730.802 309.017 730.981 308.373 730.9 307.734 728.495 289.795 712.504 277.742 693.812 279.663 683.667 280.712 674.14 287.054 665.486 298.476 664.331 299.994 663.202 301.526 662.073 303.058 656.067 311.121 650.342 318.914 642.804 324.182L642.804 346.031C645.569 345.924 648.295 345.347 650.866 344.325 652.573 343.589 654.389 343.135 656.241 342.981 658.094 343.135 659.909 343.589 661.616 344.325 664.17 345.341 666.878 345.918 669.625 346.031 672.39 345.924 675.116 345.347 677.688 344.325 679.395 343.589 681.21 343.135 683.062 342.981 684.911 343.109 686.726 343.536 688.438 344.244 691.002 345.3 693.73 345.905 696.5 346.031 699.265 345.924 701.991 345.347 704.562 344.325 706.27 343.589 708.085 343.135 709.938 342.981 711.79 343.135 713.605 343.589 715.312 344.325 717.884 345.347 720.61 345.924 723.375 346.031 726.14 345.924 728.866 345.347 731.438 344.325 733.145 343.589 734.96 343.135 736.812 342.981 738.661 343.109 740.476 343.536 742.188 344.244 744.752 345.3 747.48 345.905 750.25 346.031L750.25 337.969C748.402 337.841 746.587 337.414 744.875 336.706Z" stroke="#FFFFFF" stroke-width="1.34375" fill="#3551DB"/></g></svg>