<svg width="129" height="129" xmlns="http://www.w3.org/2000/svg" xmlns:xlink="http://www.w3.org/1999/xlink" xml:space="preserve" overflow="hidden"><defs><clipPath id="clip0"><rect x="948" y="256" width="129" height="129"/></clipPath></defs><g clip-path="url(#clip0)" transform="translate(-948 -256)"><path d="M1052.81 351.124C1050.05 351.231 1047.32 351.808 1044.75 352.831 1043.04 353.539 1041.22 353.966 1039.38 354.094 1037.53 353.966 1035.71 353.539 1034 352.831 1031.43 351.808 1028.7 351.231 1025.94 351.124 1023.17 351.231 1020.45 351.808 1017.88 352.831 1016.16 353.539 1014.35 353.966 1012.5 354.094 1010.65 353.966 1008.84 353.539 1007.12 352.831 1004.55 351.808 1001.83 351.231 999.062 351.124 996.298 351.231 993.571 351.808 991 352.831 989.288 353.539 987.473 353.966 985.625 354.094 983.777 353.966 981.962 353.539 980.25 352.831 977.679 351.808 974.952 351.231 972.188 351.124 969.423 351.231 966.696 351.808 964.125 352.831 962.413 353.539 960.598 353.966 958.75 354.094L958.75 362.156C961.515 362.049 964.241 361.472 966.812 360.45 968.52 359.714 970.335 359.26 972.188 359.106 974.04 359.26 975.855 359.714 977.562 360.45 980.134 361.472 982.86 362.049 985.625 362.156 988.39 362.049 991.116 361.472 993.688 360.45 995.395 359.714 997.21 359.26 999.062 359.106 1000.91 359.234 1002.73 359.661 1004.44 360.369 1007 361.425 1009.73 362.03 1012.5 362.156 1015.26 362.049 1017.99 361.472 1020.56 360.45 1022.27 359.714 1024.08 359.26 1025.94 359.106 1027.79 359.26 1029.61 359.714 1031.31 360.45 1033.88 361.472 1036.61 362.049 1039.38 362.156 1042.14 362.049 1044.87 361.472 1047.44 360.45 1049.14 359.714 1050.96 359.26 1052.81 359.106 1054.66 359.234 1056.48 359.661 1058.19 360.369 1060.75 361.425 1063.48 362.03 1066.25 362.156L1066.25 354.094C1064.4 353.966 1062.59 353.539 1060.88 352.831 1058.3 351.808 1055.58 351.231 1052.81 351.124Z" stroke="#FFFFFF" stroke-width="1.34375" fill="#9AA8ED"/><path d="M1060.88 336.706C1058.3 335.683 1055.58 335.106 1052.81 334.999 1050.05 335.106 1047.32 335.683 1044.75 336.706 1043.04 337.414 1041.22 337.841 1039.38 337.969 1037.53 337.841 1035.71 337.414 1034 336.706 1033.07 336.341 1032.11 336.035 1031.14 335.792 1019.93 330.699 1014.21 320.446 1015.01 312.518 1015.68 305.678 1019.8 297.979 1027.24 297.213 1034.42 296.411 1040.99 301.303 1042.28 308.406 1042.46 309.613 1043.53 310.478 1044.75 310.395 1045.4 310.336 1045.99 310.021 1046.4 309.522 1046.8 309.017 1046.98 308.373 1046.9 307.734 1044.49 289.795 1028.5 277.742 1009.81 279.663 999.667 280.712 990.14 287.054 981.486 298.476 980.331 299.994 979.202 301.526 978.073 303.058 972.067 311.121 966.342 318.914 958.804 324.182L958.804 346.031C961.569 345.924 964.295 345.347 966.866 344.325 968.573 343.589 970.389 343.135 972.241 342.981 974.094 343.135 975.909 343.589 977.616 344.325 980.17 345.341 982.878 345.918 985.625 346.031 988.39 345.924 991.116 345.347 993.688 344.325 995.395 343.589 997.21 343.135 999.062 342.981 1000.91 343.109 1002.73 343.536 1004.44 344.244 1007 345.3 1009.73 345.905 1012.5 346.031 1015.26 345.924 1017.99 345.347 1020.56 344.325 1022.27 343.589 1024.08 343.135 1025.94 342.981 1027.79 343.135 1029.61 343.589 1031.31 344.325 1033.88 345.347 1036.61 345.924 1039.38 346.031 1042.14 345.924 1044.87 345.347 1047.44 344.325 1049.14 343.589 1050.96 343.135 1052.81 342.981 1054.66 343.109 1056.48 343.536 1058.19 344.244 1060.75 345.3 1063.48 345.905 1066.25 346.031L1066.25 337.969C1064.4 337.841 1062.59 337.414 1060.88 336.706Z" stroke="#FFFFFF" stroke-width="1.34375" fill="#9AA8ED"/></g></svg>