<svg width="128" height="128" xmlns="http://www.w3.org/2000/svg" xmlns:xlink="http://www.w3.org/1999/xlink" xml:space="preserve" overflow="hidden"><defs><clipPath id="clip0"><rect x="158" y="118" width="128" height="128"/></clipPath></defs><g clip-path="url(#clip0)" transform="translate(-158 -118)"><path d="M262 212.387C259.257 212.493 256.551 213.066 254 214.08 252.302 214.783 250.5 215.206 248.667 215.333 246.833 215.206 245.032 214.783 243.333 214.08 240.782 213.066 238.077 212.493 235.333 212.387 232.59 212.493 229.885 213.066 227.333 214.08 225.635 214.783 223.834 215.206 222 215.333 220.166 215.206 218.365 214.783 216.667 214.08 214.115 213.066 211.41 212.493 208.667 212.387 205.923 212.493 203.218 213.066 200.667 214.08 198.968 214.783 197.167 215.206 195.333 215.333 193.5 215.206 191.699 214.783 190 214.08 187.449 213.066 184.743 212.493 182 212.387 179.257 212.493 176.551 213.066 174 214.08 172.301 214.783 170.5 215.206 168.667 215.333L168.667 223.333C171.41 223.227 174.115 222.654 176.667 221.64 178.361 220.91 180.162 220.459 182 220.307 183.838 220.459 185.639 220.91 187.333 221.64 189.885 222.654 192.59 223.227 195.333 223.333 198.077 223.227 200.782 222.654 203.333 221.64 205.027 220.91 206.828 220.459 208.667 220.307 210.5 220.434 212.302 220.857 214 221.56 216.545 222.608 219.251 223.208 222 223.333 224.743 223.227 227.449 222.654 230 221.64 231.694 220.91 233.495 220.46 235.333 220.307 237.172 220.46 238.973 220.91 240.667 221.64 243.218 222.654 245.923 223.227 248.667 223.333 251.41 223.227 254.115 222.654 256.667 221.64 258.361 220.91 260.162 220.46 262 220.307 263.834 220.434 265.635 220.857 267.333 221.56 269.878 222.608 272.584 223.208 275.333 223.333L275.333 215.333C273.5 215.206 271.698 214.783 270 214.08 267.449 213.066 264.743 212.493 262 212.387Z" stroke="#FFFFFF" stroke-width="1.33333" fill="#036CA1"/><path d="M270 198.08C267.449 197.066 264.743 196.493 262 196.387 259.257 196.493 256.551 197.066 254 198.08 252.302 198.783 250.5 199.206 248.667 199.333 246.833 199.206 245.032 198.783 243.333 198.08 242.407 197.718 241.458 197.415 240.493 197.173 229.373 192.12 223.693 181.947 224.493 174.08 225.16 167.293 229.24 159.653 236.627 158.893 243.746 158.098 250.266 162.951 251.547 170 251.725 171.197 252.793 172.056 254 171.973 254.64 171.914 255.231 171.603 255.64 171.107 256.036 170.606 256.214 169.967 256.133 169.333 253.747 151.533 237.88 139.573 219.333 141.48 209.267 142.52 199.813 148.813 191.227 160.147 190.08 161.653 188.96 163.173 187.84 164.693 181.88 172.693 176.2 180.427 168.72 185.653L168.72 207.333C171.463 207.227 174.169 206.654 176.72 205.64 178.414 204.91 180.215 204.459 182.053 204.307 183.892 204.459 185.693 204.91 187.387 205.64 189.921 206.649 192.608 207.221 195.333 207.333 198.077 207.227 200.782 206.654 203.333 205.64 205.027 204.91 206.828 204.459 208.667 204.307 210.5 204.434 212.302 204.857 214 205.56 216.545 206.608 219.251 207.208 222 207.333 224.743 207.227 227.449 206.654 230 205.64 231.694 204.91 233.495 204.46 235.333 204.307 237.172 204.46 238.973 204.91 240.667 205.64 243.218 206.654 245.923 207.227 248.667 207.333 251.41 207.227 254.115 206.654 256.667 205.64 258.361 204.91 260.162 204.46 262 204.307 263.834 204.434 265.635 204.857 267.333 205.56 269.878 206.608 272.584 207.208 275.333 207.333L275.333 199.333C273.5 199.206 271.698 198.783 270 198.08Z" stroke="#FFFFFF" stroke-width="1.33333" fill="#036CA1"/></g></svg>