<svg width="129" height="129" xmlns="http://www.w3.org/2000/svg" xmlns:xlink="http://www.w3.org/1999/xlink" xml:space="preserve" overflow="hidden"><defs><clipPath id="clip0"><rect x="1111" y="2" width="129" height="129"/></clipPath></defs><g clip-path="url(#clip0)" transform="translate(-1111 -2)"><path d="M1215.81 97.1241C1213.05 97.2312 1210.32 97.8083 1207.75 98.8306 1206.04 99.539 1204.22 99.9656 1202.38 100.094 1200.53 99.9656 1198.71 99.539 1197 98.8306 1194.43 97.8083 1191.7 97.2312 1188.94 97.1241 1186.17 97.2312 1183.45 97.8083 1180.88 98.8306 1179.16 99.539 1177.35 99.9656 1175.5 100.094 1173.65 99.9656 1171.84 99.539 1170.12 98.8306 1167.55 97.8083 1164.83 97.2312 1162.06 97.1241 1159.3 97.2312 1156.57 97.8083 1154 98.8306 1152.29 99.539 1150.47 99.9656 1148.62 100.094 1146.78 99.9656 1144.96 99.539 1143.25 98.8306 1140.68 97.8083 1137.95 97.2312 1135.19 97.1241 1132.42 97.2312 1129.7 97.8083 1127.12 98.8306 1125.41 99.539 1123.6 99.9656 1121.75 100.094L1121.75 108.156C1124.51 108.049 1127.24 107.472 1129.81 106.45 1131.52 105.714 1133.33 105.26 1135.19 105.106 1137.04 105.26 1138.86 105.714 1140.56 106.45 1143.13 107.472 1145.86 108.049 1148.62 108.156 1151.39 108.049 1154.12 107.472 1156.69 106.45 1158.39 105.714 1160.21 105.26 1162.06 105.106 1163.91 105.234 1165.73 105.661 1167.44 106.369 1170 107.425 1172.73 108.03 1175.5 108.156 1178.26 108.049 1180.99 107.472 1183.56 106.45 1185.27 105.714 1187.08 105.26 1188.94 105.106 1190.79 105.26 1192.61 105.714 1194.31 106.45 1196.88 107.472 1199.61 108.049 1202.38 108.156 1205.14 108.049 1207.87 107.472 1210.44 106.45 1212.14 105.714 1213.96 105.26 1215.81 105.106 1217.66 105.234 1219.48 105.661 1221.19 106.369 1223.75 107.425 1226.48 108.03 1229.25 108.156L1229.25 100.094C1227.4 99.9656 1225.59 99.539 1223.88 98.8306 1221.3 97.8083 1218.58 97.2312 1215.81 97.1241Z" stroke="#FFFFFF" stroke-width="1.34375" fill="#CCE5F1"/><path d="M1223.88 82.7056C1221.3 81.6833 1218.58 81.1062 1215.81 80.9991 1213.05 81.1062 1210.32 81.6833 1207.75 82.7056 1206.04 83.414 1204.22 83.8406 1202.38 83.9688 1200.53 83.8406 1198.71 83.414 1197 82.7056 1196.07 82.3407 1195.11 82.0354 1194.14 81.7919 1182.93 76.6991 1177.21 66.4463 1178.01 58.5181 1178.68 51.6784 1182.8 43.9787 1190.24 43.2128 1197.42 42.4113 1203.99 47.3027 1205.28 54.4062 1205.46 55.6125 1206.53 56.4783 1207.75 56.395 1208.4 56.3356 1208.99 56.0213 1209.4 55.5216 1209.8 55.017 1209.98 54.3728 1209.9 53.7344 1207.49 35.7953 1191.5 23.7419 1172.81 25.6634 1162.67 26.7116 1153.14 33.0541 1144.49 44.4759 1143.33 45.9944 1142.2 47.5263 1141.07 49.0581 1135.07 57.1206 1129.34 64.9144 1121.8 70.1819L1121.8 92.0312C1124.57 91.9242 1127.3 91.347 1129.87 90.3247 1131.57 89.5889 1133.39 89.1349 1135.24 88.9809 1137.09 89.1349 1138.91 89.5889 1140.62 90.3247 1143.17 91.3411 1145.88 91.9181 1148.62 92.0312 1151.39 91.9242 1154.12 91.347 1156.69 90.3247 1158.39 89.5889 1160.21 89.1349 1162.06 88.9809 1163.91 89.1091 1165.73 89.5356 1167.44 90.2441 1170 91.3001 1172.73 91.9048 1175.5 92.0312 1178.26 91.9242 1180.99 91.347 1183.56 90.3247 1185.27 89.5889 1187.08 89.1351 1188.94 88.9809 1190.79 89.1351 1192.61 89.5889 1194.31 90.3247 1196.88 91.347 1199.61 91.9242 1202.38 92.0312 1205.14 91.9242 1207.87 91.347 1210.44 90.3247 1212.14 89.5889 1213.96 89.1351 1215.81 88.9809 1217.66 89.1091 1219.48 89.5356 1221.19 90.2441 1223.75 91.3001 1226.48 91.9048 1229.25 92.0312L1229.25 83.9688C1227.4 83.8406 1225.59 83.414 1223.88 82.7056Z" stroke="#FFFFFF" stroke-width="1.34375" fill="#CCE5F1"/></g></svg>