<svg width="129" height="129" xmlns="http://www.w3.org/2000/svg" xmlns:xlink="http://www.w3.org/1999/xlink" xml:space="preserve" overflow="hidden"><defs><clipPath id="clip0"><rect x="948" y="2" width="129" height="129"/></clipPath></defs><g clip-path="url(#clip0)" transform="translate(-948 -2)"><path d="M1052.81 97.1241C1050.05 97.2312 1047.32 97.8083 1044.75 98.8306 1043.04 99.539 1041.22 99.9656 1039.38 100.094 1037.53 99.9656 1035.71 99.539 1034 98.8306 1031.43 97.8083 1028.7 97.2312 1025.94 97.1241 1023.17 97.2312 1020.45 97.8083 1017.88 98.8306 1016.16 99.539 1014.35 99.9656 1012.5 100.094 1010.65 99.9656 1008.84 99.539 1007.12 98.8306 1004.55 97.8083 1001.83 97.2312 999.062 97.1241 996.298 97.2312 993.571 97.8083 991 98.8306 989.288 99.539 987.473 99.9656 985.625 100.094 983.777 99.9656 981.962 99.539 980.25 98.8306 977.679 97.8083 974.952 97.2312 972.188 97.1241 969.423 97.2312 966.696 97.8083 964.125 98.8306 962.413 99.539 960.598 99.9656 958.75 100.094L958.75 108.156C961.515 108.049 964.241 107.472 966.812 106.45 968.52 105.714 970.335 105.26 972.188 105.106 974.04 105.26 975.855 105.714 977.562 106.45 980.134 107.472 982.86 108.049 985.625 108.156 988.39 108.049 991.116 107.472 993.688 106.45 995.395 105.714 997.21 105.26 999.062 105.106 1000.91 105.234 1002.73 105.661 1004.44 106.369 1007 107.425 1009.73 108.03 1012.5 108.156 1015.26 108.049 1017.99 107.472 1020.56 106.45 1022.27 105.714 1024.08 105.26 1025.94 105.106 1027.79 105.26 1029.61 105.714 1031.31 106.45 1033.88 107.472 1036.61 108.049 1039.38 108.156 1042.14 108.049 1044.87 107.472 1047.44 106.45 1049.14 105.714 1050.96 105.26 1052.81 105.106 1054.66 105.234 1056.48 105.661 1058.19 106.369 1060.75 107.425 1063.48 108.03 1066.25 108.156L1066.25 100.094C1064.4 99.9656 1062.59 99.539 1060.88 98.8306 1058.3 97.8083 1055.58 97.2312 1052.81 97.1241Z" stroke="#FFFFFF" stroke-width="1.34375" fill="#9ACBE3"/><path d="M1060.88 82.7056C1058.3 81.6833 1055.58 81.1062 1052.81 80.9991 1050.05 81.1062 1047.32 81.6833 1044.75 82.7056 1043.04 83.414 1041.22 83.8406 1039.38 83.9688 1037.53 83.8406 1035.71 83.414 1034 82.7056 1033.07 82.3407 1032.11 82.0354 1031.14 81.7919 1019.93 76.6991 1014.21 66.4463 1015.01 58.5181 1015.68 51.6784 1019.8 43.9787 1027.24 43.2128 1034.42 42.4113 1040.99 47.3027 1042.28 54.4062 1042.46 55.6125 1043.53 56.4783 1044.75 56.395 1045.4 56.3356 1045.99 56.0213 1046.4 55.5216 1046.8 55.017 1046.98 54.3728 1046.9 53.7344 1044.49 35.7953 1028.5 23.7419 1009.81 25.6634 999.667 26.7116 990.14 33.0541 981.486 44.4759 980.331 45.9944 979.202 47.5263 978.073 49.0581 972.067 57.1206 966.342 64.9144 958.804 70.1819L958.804 92.0312C961.569 91.9242 964.295 91.347 966.866 90.3247 968.573 89.5889 970.389 89.1349 972.241 88.9809 974.094 89.1349 975.909 89.5889 977.616 90.3247 980.17 91.3411 982.878 91.9181 985.625 92.0312 988.39 91.9242 991.116 91.347 993.688 90.3247 995.395 89.5889 997.21 89.1349 999.062 88.9809 1000.91 89.1091 1002.73 89.5356 1004.44 90.2441 1007 91.3001 1009.73 91.9048 1012.5 92.0312 1015.26 91.9242 1017.99 91.347 1020.56 90.3247 1022.27 89.5889 1024.08 89.1351 1025.94 88.9809 1027.79 89.1351 1029.61 89.5889 1031.31 90.3247 1033.88 91.347 1036.61 91.9242 1039.38 92.0312 1042.14 91.9242 1044.87 91.347 1047.44 90.3247 1049.14 89.5889 1050.96 89.1351 1052.81 88.9809 1054.66 89.1091 1056.48 89.5356 1058.19 90.2441 1060.75 91.3001 1063.48 91.9048 1066.25 92.0312L1066.25 83.9688C1064.4 83.8406 1062.59 83.414 1060.88 82.7056Z" stroke="#FFFFFF" stroke-width="1.34375" fill="#9ACBE3"/></g></svg>