<svg width="128" height="128" xmlns="http://www.w3.org/2000/svg" xmlns:xlink="http://www.w3.org/1999/xlink" xml:space="preserve" overflow="hidden"><defs><clipPath id="clip0"><rect x="958" y="382" width="128" height="128"/></clipPath></defs><g clip-path="url(#clip0)" transform="translate(-958 -382)"><path d="M1062 476.387C1059.26 476.493 1056.55 477.066 1054 478.08 1052.3 478.783 1050.5 479.206 1048.67 479.333 1046.83 479.206 1045.03 478.783 1043.33 478.08 1040.78 477.066 1038.08 476.493 1035.33 476.387 1032.59 476.493 1029.88 477.066 1027.33 478.08 1025.63 478.783 1023.83 479.206 1022 479.333 1020.17 479.206 1018.37 478.783 1016.67 478.08 1014.12 477.066 1011.41 476.493 1008.67 476.387 1005.92 476.493 1003.22 477.066 1000.67 478.08 998.968 478.783 997.167 479.206 995.333 479.333 993.5 479.206 991.699 478.783 990 478.08 987.449 477.066 984.743 476.493 982 476.387 979.257 476.493 976.551 477.066 974 478.08 972.301 478.783 970.5 479.206 968.667 479.333L968.667 487.333C971.41 487.227 974.115 486.654 976.667 485.64 978.361 484.91 980.162 484.459 982 484.307 983.838 484.459 985.639 484.91 987.333 485.64 989.885 486.654 992.59 487.227 995.333 487.333 998.077 487.227 1000.78 486.654 1003.33 485.64 1005.03 484.91 1006.83 484.459 1008.67 484.307 1010.5 484.434 1012.3 484.857 1014 485.56 1016.54 486.608 1019.25 487.208 1022 487.333 1024.74 487.227 1027.45 486.654 1030 485.64 1031.69 484.91 1033.5 484.46 1035.33 484.307 1037.17 484.46 1038.97 484.91 1040.67 485.64 1043.22 486.654 1045.92 487.227 1048.67 487.333 1051.41 487.227 1054.12 486.654 1056.67 485.64 1058.36 484.91 1060.16 484.46 1062 484.307 1063.83 484.434 1065.63 484.857 1067.33 485.56 1069.88 486.608 1072.58 487.208 1075.33 487.333L1075.33 479.333C1073.5 479.206 1071.7 478.783 1070 478.08 1067.45 477.066 1064.74 476.493 1062 476.387Z" stroke="#FFFFFF" stroke-width="1.33333" fill="#4AF8FC"/><path d="M1070 462.08C1067.45 461.066 1064.74 460.493 1062 460.387 1059.26 460.493 1056.55 461.066 1054 462.08 1052.3 462.783 1050.5 463.206 1048.67 463.333 1046.83 463.206 1045.03 462.783 1043.33 462.08 1042.41 461.718 1041.46 461.415 1040.49 461.173 1029.37 456.12 1023.69 445.947 1024.49 438.08 1025.16 431.293 1029.24 423.653 1036.63 422.893 1043.75 422.098 1050.27 426.951 1051.55 434 1051.72 435.197 1052.79 436.056 1054 435.973 1054.64 435.914 1055.23 435.603 1055.64 435.107 1056.04 434.606 1056.21 433.967 1056.13 433.333 1053.75 415.533 1037.88 403.573 1019.33 405.48 1009.27 406.52 999.813 412.813 991.227 424.147 990.08 425.653 988.96 427.173 987.84 428.693 981.88 436.693 976.2 444.427 968.72 449.653L968.72 471.333C971.463 471.227 974.169 470.654 976.72 469.64 978.414 468.91 980.215 468.459 982.053 468.307 983.892 468.459 985.693 468.91 987.387 469.64 989.921 470.649 992.608 471.221 995.333 471.333 998.077 471.227 1000.78 470.654 1003.33 469.64 1005.03 468.91 1006.83 468.459 1008.67 468.307 1010.5 468.434 1012.3 468.857 1014 469.56 1016.54 470.608 1019.25 471.208 1022 471.333 1024.74 471.227 1027.45 470.654 1030 469.64 1031.69 468.91 1033.5 468.46 1035.33 468.307 1037.17 468.46 1038.97 468.91 1040.67 469.64 1043.22 470.654 1045.92 471.227 1048.67 471.333 1051.41 471.227 1054.12 470.654 1056.67 469.64 1058.36 468.91 1060.16 468.46 1062 468.307 1063.83 468.434 1065.63 468.857 1067.33 469.56 1069.88 470.608 1072.58 471.208 1075.33 471.333L1075.33 463.333C1073.5 463.206 1071.7 462.783 1070 462.08Z" stroke="#FFFFFF" stroke-width="1.33333" fill="#4AF8FC"/></g></svg>