<svg width="128" height="128" xmlns="http://www.w3.org/2000/svg" xmlns:xlink="http://www.w3.org/1999/xlink" xml:space="preserve" overflow="hidden"><defs><clipPath id="clip0"><rect x="484" y="382" width="128" height="128"/></clipPath></defs><g clip-path="url(#clip0)" transform="translate(-484 -382)"><path d="M588 476.387C585.257 476.493 582.551 477.066 580 478.08 578.302 478.783 576.5 479.206 574.667 479.333 572.833 479.206 571.032 478.783 569.333 478.08 566.782 477.066 564.077 476.493 561.333 476.387 558.59 476.493 555.885 477.066 553.333 478.08 551.635 478.783 549.834 479.206 548 479.333 546.166 479.206 544.365 478.783 542.667 478.08 540.115 477.066 537.41 476.493 534.667 476.387 531.923 476.493 529.218 477.066 526.667 478.08 524.968 478.783 523.167 479.206 521.333 479.333 519.5 479.206 517.699 478.783 516 478.08 513.449 477.066 510.743 476.493 508 476.387 505.257 476.493 502.551 477.066 500 478.08 498.301 478.783 496.5 479.206 494.667 479.333L494.667 487.333C497.41 487.227 500.115 486.654 502.667 485.64 504.361 484.91 506.162 484.459 508 484.307 509.838 484.459 511.639 484.91 513.333 485.64 515.885 486.654 518.59 487.227 521.333 487.333 524.077 487.227 526.782 486.654 529.333 485.64 531.027 484.91 532.828 484.459 534.667 484.307 536.5 484.434 538.302 484.857 540 485.56 542.545 486.608 545.251 487.208 548 487.333 550.743 487.227 553.449 486.654 556 485.64 557.694 484.91 559.495 484.46 561.333 484.307 563.172 484.46 564.973 484.91 566.667 485.64 569.218 486.654 571.923 487.227 574.667 487.333 577.41 487.227 580.115 486.654 582.667 485.64 584.361 484.91 586.162 484.46 588 484.307 589.834 484.434 591.635 484.857 593.333 485.56 595.878 486.608 598.584 487.208 601.333 487.333L601.333 479.333C599.5 479.206 597.698 478.783 596 478.08 593.449 477.066 590.743 476.493 588 476.387Z" stroke="#FFFFFF" stroke-width="1.33333" fill="#03A7AB"/><path d="M596 462.08C593.449 461.066 590.743 460.493 588 460.387 585.257 460.493 582.551 461.066 580 462.08 578.302 462.783 576.5 463.206 574.667 463.333 572.833 463.206 571.032 462.783 569.333 462.08 568.407 461.718 567.458 461.415 566.493 461.173 555.373 456.12 549.693 445.947 550.493 438.08 551.16 431.293 555.24 423.653 562.627 422.893 569.746 422.098 576.266 426.951 577.547 434 577.725 435.197 578.793 436.056 580 435.973 580.64 435.914 581.231 435.603 581.64 435.107 582.036 434.606 582.214 433.967 582.133 433.333 579.747 415.533 563.88 403.573 545.333 405.48 535.267 406.52 525.813 412.813 517.227 424.147 516.08 425.653 514.96 427.173 513.84 428.693 507.88 436.693 502.2 444.427 494.72 449.653L494.72 471.333C497.463 471.227 500.169 470.654 502.72 469.64 504.414 468.91 506.215 468.459 508.053 468.307 509.892 468.459 511.693 468.91 513.387 469.64 515.921 470.649 518.608 471.221 521.333 471.333 524.077 471.227 526.782 470.654 529.333 469.64 531.027 468.91 532.828 468.459 534.667 468.307 536.5 468.434 538.302 468.857 540 469.56 542.545 470.608 545.251 471.208 548 471.333 550.743 471.227 553.449 470.654 556 469.64 557.694 468.91 559.495 468.46 561.333 468.307 563.172 468.46 564.973 468.91 566.667 469.64 569.218 470.654 571.923 471.227 574.667 471.333 577.41 471.227 580.115 470.654 582.667 469.64 584.361 468.91 586.162 468.46 588 468.307 589.834 468.434 591.635 468.857 593.333 469.56 595.878 470.608 598.584 471.208 601.333 471.333L601.333 463.333C599.5 463.206 597.698 462.783 596 462.08Z" stroke="#FFFFFF" stroke-width="1.33333" fill="#03A7AB"/></g></svg>