<svg width="128" height="128" xmlns="http://www.w3.org/2000/svg" xmlns:xlink="http://www.w3.org/1999/xlink" xml:space="preserve" overflow="hidden"><defs><clipPath id="clip0"><rect x="316" y="118" width="128" height="128"/></clipPath></defs><g clip-path="url(#clip0)" transform="translate(-316 -118)"><path d="M420 212.387C417.257 212.493 414.551 213.066 412 214.08 410.302 214.783 408.5 215.206 406.667 215.333 404.833 215.206 403.032 214.783 401.333 214.08 398.782 213.066 396.077 212.493 393.333 212.387 390.59 212.493 387.885 213.066 385.333 214.08 383.635 214.783 381.834 215.206 380 215.333 378.166 215.206 376.365 214.783 374.667 214.08 372.115 213.066 369.41 212.493 366.667 212.387 363.923 212.493 361.218 213.066 358.667 214.08 356.968 214.783 355.167 215.206 353.333 215.333 351.5 215.206 349.699 214.783 348 214.08 345.449 213.066 342.743 212.493 340 212.387 337.257 212.493 334.551 213.066 332 214.08 330.301 214.783 328.5 215.206 326.667 215.333L326.667 223.333C329.41 223.227 332.115 222.654 334.667 221.64 336.361 220.91 338.162 220.459 340 220.307 341.838 220.459 343.639 220.91 345.333 221.64 347.885 222.654 350.59 223.227 353.333 223.333 356.077 223.227 358.782 222.654 361.333 221.64 363.027 220.91 364.828 220.459 366.667 220.307 368.5 220.434 370.302 220.857 372 221.56 374.545 222.608 377.251 223.208 380 223.333 382.743 223.227 385.449 222.654 388 221.64 389.694 220.91 391.495 220.46 393.333 220.307 395.172 220.46 396.973 220.91 398.667 221.64 401.218 222.654 403.923 223.227 406.667 223.333 409.41 223.227 412.115 222.654 414.667 221.64 416.361 220.91 418.162 220.46 420 220.307 421.834 220.434 423.635 220.857 425.333 221.56 427.878 222.608 430.584 223.208 433.333 223.333L433.333 215.333C431.5 215.206 429.698 214.783 428 214.08 425.449 213.066 422.743 212.493 420 212.387Z" stroke="#FFFFFF" stroke-width="1.33333" fill="#0EACFB"/><path d="M428 198.08C425.449 197.066 422.743 196.493 420 196.387 417.257 196.493 414.551 197.066 412 198.08 410.302 198.783 408.5 199.206 406.667 199.333 404.833 199.206 403.032 198.783 401.333 198.08 400.407 197.718 399.458 197.415 398.493 197.173 387.373 192.12 381.693 181.947 382.493 174.08 383.16 167.293 387.24 159.653 394.627 158.893 401.746 158.098 408.266 162.951 409.547 170 409.725 171.197 410.793 172.056 412 171.973 412.64 171.914 413.231 171.603 413.64 171.107 414.036 170.606 414.214 169.967 414.133 169.333 411.747 151.533 395.88 139.573 377.333 141.48 367.267 142.52 357.813 148.813 349.227 160.147 348.08 161.653 346.96 163.173 345.84 164.693 339.88 172.693 334.2 180.427 326.72 185.653L326.72 207.333C329.463 207.227 332.169 206.654 334.72 205.64 336.414 204.91 338.215 204.459 340.053 204.307 341.892 204.459 343.693 204.91 345.387 205.64 347.921 206.649 350.608 207.221 353.333 207.333 356.077 207.227 358.782 206.654 361.333 205.64 363.027 204.91 364.828 204.459 366.667 204.307 368.5 204.434 370.302 204.857 372 205.56 374.545 206.608 377.251 207.208 380 207.333 382.743 207.227 385.449 206.654 388 205.64 389.694 204.91 391.495 204.46 393.333 204.307 395.172 204.46 396.973 204.91 398.667 205.64 401.218 206.654 403.923 207.227 406.667 207.333 409.41 207.227 412.115 206.654 414.667 205.64 416.361 204.91 418.162 204.46 420 204.307 421.834 204.434 423.635 204.857 425.333 205.56 427.878 206.608 430.584 207.208 433.333 207.333L433.333 199.333C431.5 199.206 429.698 198.783 428 198.08Z" stroke="#FFFFFF" stroke-width="1.33333" fill="#0EACFB"/></g></svg>