<svg width="129" height="129" xmlns="http://www.w3.org/2000/svg" xmlns:xlink="http://www.w3.org/1999/xlink" xml:space="preserve" overflow="hidden"><defs><clipPath id="clip0"><rect x="790" y="256" width="129" height="129"/></clipPath></defs><g clip-path="url(#clip0)" transform="translate(-790 -256)"><path d="M894.812 351.124C892.048 351.231 889.321 351.808 886.75 352.831 885.038 353.539 883.223 353.966 881.375 354.094 879.527 353.966 877.712 353.539 876 352.831 873.429 351.808 870.702 351.231 867.938 351.124 865.173 351.231 862.446 351.808 859.875 352.831 858.163 353.539 856.348 353.966 854.5 354.094 852.652 353.966 850.837 353.539 849.125 352.831 846.554 351.808 843.827 351.231 841.062 351.124 838.298 351.231 835.571 351.808 833 352.831 831.288 353.539 829.473 353.966 827.625 354.094 825.777 353.966 823.962 353.539 822.25 352.831 819.679 351.808 816.952 351.231 814.188 351.124 811.423 351.231 808.696 351.808 806.125 352.831 804.413 353.539 802.598 353.966 800.75 354.094L800.75 362.156C803.515 362.049 806.241 361.472 808.812 360.45 810.52 359.714 812.335 359.26 814.188 359.106 816.04 359.26 817.855 359.714 819.562 360.45 822.134 361.472 824.86 362.049 827.625 362.156 830.39 362.049 833.116 361.472 835.688 360.45 837.395 359.714 839.21 359.26 841.062 359.106 842.911 359.234 844.726 359.661 846.438 360.369 849.002 361.425 851.73 362.03 854.5 362.156 857.265 362.049 859.991 361.472 862.562 360.45 864.27 359.714 866.085 359.26 867.938 359.106 869.79 359.26 871.605 359.714 873.312 360.45 875.884 361.472 878.61 362.049 881.375 362.156 884.14 362.049 886.866 361.472 889.438 360.45 891.145 359.714 892.96 359.26 894.812 359.106 896.661 359.234 898.476 359.661 900.188 360.369 902.752 361.425 905.48 362.03 908.25 362.156L908.25 354.094C906.402 353.966 904.587 353.539 902.875 352.831 900.304 351.808 897.577 351.231 894.812 351.124Z" stroke="#FFFFFF" stroke-width="1.34375" fill="#677CE4"/><path d="M902.875 336.706C900.304 335.683 897.577 335.106 894.812 334.999 892.048 335.106 889.321 335.683 886.75 336.706 885.038 337.414 883.223 337.841 881.375 337.969 879.527 337.841 877.712 337.414 876 336.706 875.066 336.341 874.11 336.035 873.138 335.792 861.931 330.699 856.207 320.446 857.013 312.518 857.685 305.678 861.797 297.979 869.241 297.213 876.416 296.411 882.987 301.303 884.278 308.406 884.457 309.613 885.533 310.478 886.75 310.395 887.395 310.336 887.99 310.021 888.403 309.522 888.802 309.017 888.981 308.373 888.9 307.734 886.495 289.795 870.504 277.742 851.812 279.663 841.667 280.712 832.14 287.054 823.486 298.476 822.331 299.994 821.202 301.526 820.073 303.058 814.067 311.121 808.342 318.914 800.804 324.182L800.804 346.031C803.569 345.924 806.295 345.347 808.866 344.325 810.573 343.589 812.389 343.135 814.241 342.981 816.094 343.135 817.909 343.589 819.616 344.325 822.17 345.341 824.878 345.918 827.625 346.031 830.39 345.924 833.116 345.347 835.688 344.325 837.395 343.589 839.21 343.135 841.062 342.981 842.911 343.109 844.726 343.536 846.438 344.244 849.002 345.3 851.73 345.905 854.5 346.031 857.265 345.924 859.991 345.347 862.562 344.325 864.27 343.589 866.085 343.135 867.938 342.981 869.79 343.135 871.605 343.589 873.312 344.325 875.884 345.347 878.61 345.924 881.375 346.031 884.14 345.924 886.866 345.347 889.438 344.325 891.145 343.589 892.96 343.135 894.812 342.981 896.661 343.109 898.476 343.536 900.188 344.244 902.752 345.3 905.48 345.905 908.25 346.031L908.25 337.969C906.402 337.841 904.587 337.414 902.875 336.706Z" stroke="#FFFFFF" stroke-width="1.34375" fill="#677CE4"/></g></svg>