<svg width="129" height="129" xmlns="http://www.w3.org/2000/svg" xmlns:xlink="http://www.w3.org/1999/xlink" xml:space="preserve" overflow="hidden"><defs><clipPath id="clip0"><rect x="326" y="497" width="129" height="129"/></clipPath></defs><g clip-path="url(#clip0)" transform="translate(-326 -497)"><path d="M430.812 592.124C428.048 592.231 425.321 592.808 422.75 593.831 421.038 594.539 419.223 594.966 417.375 595.094 415.527 594.966 413.712 594.539 412 593.831 409.429 592.808 406.702 592.231 403.938 592.124 401.173 592.231 398.446 592.808 395.875 593.831 394.163 594.539 392.348 594.966 390.5 595.094 388.652 594.966 386.837 594.539 385.125 593.831 382.554 592.808 379.827 592.231 377.062 592.124 374.298 592.231 371.571 592.808 369 593.831 367.288 594.539 365.473 594.966 363.625 595.094 361.777 594.966 359.962 594.539 358.25 593.831 355.679 592.808 352.952 592.231 350.188 592.124 347.423 592.231 344.696 592.808 342.125 593.831 340.413 594.539 338.598 594.966 336.75 595.094L336.75 603.156C339.515 603.049 342.241 602.472 344.812 601.45 346.52 600.714 348.335 600.26 350.188 600.106 352.04 600.26 353.855 600.714 355.562 601.45 358.134 602.472 360.86 603.049 363.625 603.156 366.39 603.049 369.116 602.472 371.688 601.45 373.395 600.714 375.21 600.26 377.062 600.106 378.911 600.234 380.726 600.661 382.438 601.369 385.002 602.425 387.73 603.03 390.5 603.156 393.265 603.049 395.991 602.472 398.562 601.45 400.27 600.714 402.085 600.26 403.938 600.106 405.79 600.26 407.605 600.714 409.312 601.45 411.884 602.472 414.61 603.049 417.375 603.156 420.14 603.049 422.866 602.472 425.438 601.45 427.145 600.714 428.96 600.26 430.812 600.106 432.661 600.234 434.476 600.661 436.188 601.369 438.752 602.425 441.48 603.03 444.25 603.156L444.25 595.094C442.402 594.966 440.587 594.539 438.875 593.831 436.304 592.808 433.577 592.231 430.812 592.124Z" stroke="#FFFFFF" stroke-width="1.34375" fill="#0091FE"/><path d="M438.875 577.706C436.304 576.683 433.577 576.106 430.812 575.999 428.048 576.106 425.321 576.683 422.75 577.706 421.038 578.414 419.223 578.841 417.375 578.969 415.527 578.841 413.712 578.414 412 577.706 411.066 577.341 410.11 577.035 409.138 576.792 397.931 571.699 392.207 561.446 393.013 553.518 393.685 546.678 397.797 538.979 405.241 538.213 412.416 537.411 418.987 542.303 420.277 549.406 420.457 550.613 421.533 551.478 422.75 551.395 423.395 551.336 423.99 551.021 424.403 550.522 424.802 550.017 424.981 549.373 424.9 548.734 422.495 530.795 406.504 518.742 387.812 520.663 377.667 521.712 368.14 528.054 359.486 539.476 358.331 540.994 357.202 542.526 356.073 544.058 350.067 552.121 344.342 559.914 336.804 565.182L336.804 587.031C339.569 586.924 342.295 586.347 344.866 585.325 346.573 584.589 348.389 584.135 350.241 583.981 352.094 584.135 353.909 584.589 355.616 585.325 358.17 586.341 360.878 586.918 363.625 587.031 366.39 586.924 369.116 586.347 371.688 585.325 373.395 584.589 375.21 584.135 377.062 583.981 378.911 584.109 380.726 584.536 382.438 585.244 385.002 586.3 387.73 586.905 390.5 587.031 393.265 586.924 395.991 586.347 398.562 585.325 400.27 584.589 402.085 584.135 403.938 583.981 405.79 584.135 407.605 584.589 409.312 585.325 411.884 586.347 414.61 586.924 417.375 587.031 420.14 586.924 422.866 586.347 425.438 585.325 427.145 584.589 428.96 584.135 430.812 583.981 432.661 584.109 434.476 584.536 436.188 585.244 438.752 586.3 441.48 586.905 444.25 587.031L444.25 578.969C442.402 578.841 440.587 578.414 438.875 577.706Z" stroke="#FFFFFF" stroke-width="1.34375" fill="#0091FE"/></g></svg>