<svg width="128" height="128" xmlns="http://www.w3.org/2000/svg" xmlns:xlink="http://www.w3.org/1999/xlink" xml:space="preserve" overflow="hidden"><defs><clipPath id="clip0"><rect x="642" y="382" width="128" height="128"/></clipPath></defs><g clip-path="url(#clip0)" transform="translate(-642 -382)"><path d="M746 476.387C743.257 476.493 740.551 477.066 738 478.08 736.302 478.783 734.5 479.206 732.667 479.333 730.833 479.206 729.032 478.783 727.333 478.08 724.782 477.066 722.077 476.493 719.333 476.387 716.59 476.493 713.885 477.066 711.333 478.08 709.635 478.783 707.834 479.206 706 479.333 704.166 479.206 702.365 478.783 700.667 478.08 698.115 477.066 695.41 476.493 692.667 476.387 689.923 476.493 687.218 477.066 684.667 478.08 682.968 478.783 681.167 479.206 679.333 479.333 677.5 479.206 675.699 478.783 674 478.08 671.449 477.066 668.743 476.493 666 476.387 663.257 476.493 660.551 477.066 658 478.08 656.301 478.783 654.5 479.206 652.667 479.333L652.667 487.333C655.41 487.227 658.115 486.654 660.667 485.64 662.361 484.91 664.162 484.459 666 484.307 667.838 484.459 669.639 484.91 671.333 485.64 673.885 486.654 676.59 487.227 679.333 487.333 682.077 487.227 684.782 486.654 687.333 485.64 689.027 484.91 690.828 484.459 692.667 484.307 694.5 484.434 696.302 484.857 698 485.56 700.545 486.608 703.251 487.208 706 487.333 708.743 487.227 711.449 486.654 714 485.64 715.694 484.91 717.495 484.46 719.333 484.307 721.172 484.46 722.973 484.91 724.667 485.64 727.218 486.654 729.923 487.227 732.667 487.333 735.41 487.227 738.115 486.654 740.667 485.64 742.361 484.91 744.162 484.46 746 484.307 747.834 484.434 749.635 484.857 751.333 485.56 753.878 486.608 756.584 487.208 759.333 487.333L759.333 479.333C757.5 479.206 755.698 478.783 754 478.08 751.449 477.066 748.743 476.493 746 476.387Z" stroke="#FFFFFF" stroke-width="1.33333" fill="#03C0C5"/><path d="M754 462.08C751.449 461.066 748.743 460.493 746 460.387 743.257 460.493 740.551 461.066 738 462.08 736.302 462.783 734.5 463.206 732.667 463.333 730.833 463.206 729.032 462.783 727.333 462.08 726.407 461.718 725.458 461.415 724.493 461.173 713.373 456.12 707.693 445.947 708.493 438.08 709.16 431.293 713.24 423.653 720.627 422.893 727.746 422.098 734.266 426.951 735.547 434 735.725 435.197 736.793 436.056 738 435.973 738.64 435.914 739.231 435.603 739.64 435.107 740.036 434.606 740.214 433.967 740.133 433.333 737.747 415.533 721.88 403.573 703.333 405.48 693.267 406.52 683.813 412.813 675.227 424.147 674.08 425.653 672.96 427.173 671.84 428.693 665.88 436.693 660.2 444.427 652.72 449.653L652.72 471.333C655.463 471.227 658.169 470.654 660.72 469.64 662.414 468.91 664.215 468.459 666.053 468.307 667.892 468.459 669.693 468.91 671.387 469.64 673.921 470.649 676.608 471.221 679.333 471.333 682.077 471.227 684.782 470.654 687.333 469.64 689.027 468.91 690.828 468.459 692.667 468.307 694.5 468.434 696.302 468.857 698 469.56 700.545 470.608 703.251 471.208 706 471.333 708.743 471.227 711.449 470.654 714 469.64 715.694 468.91 717.495 468.46 719.333 468.307 721.172 468.46 722.973 468.91 724.667 469.64 727.218 470.654 729.923 471.227 732.667 471.333 735.41 471.227 738.115 470.654 740.667 469.64 742.361 468.91 744.162 468.46 746 468.307 747.834 468.434 749.635 468.857 751.333 469.56 753.878 470.608 756.584 471.208 759.333 471.333L759.333 463.333C757.5 463.206 755.698 462.783 754 462.08Z" stroke="#FFFFFF" stroke-width="1.33333" fill="#03C0C5"/></g></svg>