<svg width="128" height="128" xmlns="http://www.w3.org/2000/svg" xmlns:xlink="http://www.w3.org/1999/xlink" xml:space="preserve" overflow="hidden"><defs><clipPath id="clip0"><rect x="474" y="118" width="128" height="128"/></clipPath></defs><g clip-path="url(#clip0)" transform="translate(-474 -118)"><path d="M578 212.387C575.257 212.493 572.551 213.066 570 214.08 568.302 214.783 566.5 215.206 564.667 215.333 562.833 215.206 561.032 214.783 559.333 214.08 556.782 213.066 554.077 212.493 551.333 212.387 548.59 212.493 545.885 213.066 543.333 214.08 541.635 214.783 539.834 215.206 538 215.333 536.166 215.206 534.365 214.783 532.667 214.08 530.115 213.066 527.41 212.493 524.667 212.387 521.923 212.493 519.218 213.066 516.667 214.08 514.968 214.783 513.167 215.206 511.333 215.333 509.5 215.206 507.699 214.783 506 214.08 503.449 213.066 500.743 212.493 498 212.387 495.257 212.493 492.551 213.066 490 214.08 488.301 214.783 486.5 215.206 484.667 215.333L484.667 223.333C487.41 223.227 490.115 222.654 492.667 221.64 494.361 220.91 496.162 220.459 498 220.307 499.838 220.459 501.639 220.91 503.333 221.64 505.885 222.654 508.59 223.227 511.333 223.333 514.077 223.227 516.782 222.654 519.333 221.64 521.027 220.91 522.828 220.459 524.667 220.307 526.5 220.434 528.302 220.857 530 221.56 532.545 222.608 535.251 223.208 538 223.333 540.743 223.227 543.449 222.654 546 221.64 547.694 220.91 549.495 220.46 551.333 220.307 553.172 220.46 554.973 220.91 556.667 221.64 559.218 222.654 561.923 223.227 564.667 223.333 567.41 223.227 570.115 222.654 572.667 221.64 574.361 220.91 576.162 220.46 578 220.307 579.834 220.434 581.635 220.857 583.333 221.56 585.878 222.608 588.584 223.208 591.333 223.333L591.333 215.333C589.5 215.206 587.698 214.783 586 214.08 583.449 213.066 580.743 212.493 578 212.387Z" stroke="#FFFFFF" stroke-width="1.33333" fill="#56C4FC"/><path d="M586 198.08C583.449 197.066 580.743 196.493 578 196.387 575.257 196.493 572.551 197.066 570 198.08 568.302 198.783 566.5 199.206 564.667 199.333 562.833 199.206 561.032 198.783 559.333 198.08 558.407 197.718 557.458 197.415 556.493 197.173 545.373 192.12 539.693 181.947 540.493 174.08 541.16 167.293 545.24 159.653 552.627 158.893 559.746 158.098 566.266 162.951 567.547 170 567.725 171.197 568.793 172.056 570 171.973 570.64 171.914 571.231 171.603 571.64 171.107 572.036 170.606 572.214 169.967 572.133 169.333 569.747 151.533 553.88 139.573 535.333 141.48 525.267 142.52 515.813 148.813 507.227 160.147 506.08 161.653 504.96 163.173 503.84 164.693 497.88 172.693 492.2 180.427 484.72 185.653L484.72 207.333C487.463 207.227 490.169 206.654 492.72 205.64 494.414 204.91 496.215 204.459 498.053 204.307 499.892 204.459 501.693 204.91 503.387 205.64 505.921 206.649 508.608 207.221 511.333 207.333 514.077 207.227 516.782 206.654 519.333 205.64 521.027 204.91 522.828 204.459 524.667 204.307 526.5 204.434 528.302 204.857 530 205.56 532.545 206.608 535.251 207.208 538 207.333 540.743 207.227 543.449 206.654 546 205.64 547.694 204.91 549.495 204.46 551.333 204.307 553.172 204.46 554.973 204.91 556.667 205.64 559.218 206.654 561.923 207.227 564.667 207.333 567.41 207.227 570.115 206.654 572.667 205.64 574.361 204.91 576.162 204.46 578 204.307 579.834 204.434 581.635 204.857 583.333 205.56 585.878 206.608 588.584 207.208 591.333 207.333L591.333 199.333C589.5 199.206 587.698 198.783 586 198.08Z" stroke="#FFFFFF" stroke-width="1.33333" fill="#56C4FC"/></g></svg>