<svg width="129" height="129" xmlns="http://www.w3.org/2000/svg" xmlns:xlink="http://www.w3.org/1999/xlink" xml:space="preserve" overflow="hidden"><defs><clipPath id="clip0"><rect x="10" y="497" width="129" height="129"/></clipPath></defs><g clip-path="url(#clip0)" transform="translate(-10 -497)"><path d="M114.812 592.124C112.048 592.231 109.321 592.808 106.75 593.831 105.038 594.539 103.223 594.966 101.375 595.094 99.5269 594.966 97.7117 594.539 96 593.831 93.4289 592.808 90.7024 592.231 87.9375 592.124 85.1726 592.231 82.4461 592.808 79.875 593.831 78.1633 594.539 76.3481 594.966 74.5 595.094 72.6519 594.966 70.8367 594.539 69.125 593.831 66.5539 592.808 63.8274 592.231 61.0625 592.124 58.2976 592.231 55.5711 592.808 53 593.831 51.2882 594.539 49.4731 594.966 47.625 595.094 45.7769 594.966 43.9618 594.539 42.25 593.831 39.6789 592.808 36.9524 592.231 34.1875 592.124 31.4226 592.231 28.6961 592.808 26.125 593.831 24.4132 594.539 22.5981 594.966 20.75 595.094L20.75 603.156C23.5149 603.049 26.2414 602.472 28.8125 601.45 30.5196 600.714 32.3349 600.26 34.1875 600.106 36.0401 600.26 37.8554 600.714 39.5625 601.45 42.1336 602.472 44.8601 603.049 47.625 603.156 50.3899 603.049 53.1164 602.472 55.6875 601.45 57.3946 600.714 59.2099 600.26 61.0625 600.106 62.9106 600.234 64.7258 600.661 66.4375 601.369 69.0019 602.425 71.7296 603.03 74.5 603.156 77.2649 603.049 79.9914 602.472 82.5625 601.45 84.2696 600.714 86.0849 600.26 87.9375 600.106 89.7901 600.26 91.6054 600.714 93.3125 601.45 95.8836 602.472 98.6101 603.049 101.375 603.156 104.14 603.049 106.866 602.472 109.438 601.45 111.145 600.714 112.96 600.26 114.812 600.106 116.661 600.234 118.476 600.661 120.188 601.369 122.752 602.425 125.48 603.03 128.25 603.156L128.25 595.094C126.402 594.966 124.587 594.539 122.875 593.831 120.304 592.808 117.577 592.231 114.812 592.124Z" stroke="#FFFFFF" stroke-width="1.34375" fill="#0070C0"/><path d="M122.875 577.706C120.304 576.683 117.577 576.106 114.812 575.999 112.048 576.106 109.321 576.683 106.75 577.706 105.038 578.414 103.223 578.841 101.375 578.969 99.5269 578.841 97.7117 578.414 96 577.706 95.0662 577.341 94.1103 577.035 93.1378 576.792 81.9309 571.699 76.2066 561.446 77.0128 553.518 77.6847 546.678 81.7966 538.979 89.2409 538.213 96.4163 537.411 102.987 542.303 104.278 549.406 104.457 550.613 105.533 551.478 106.75 551.395 107.395 551.336 107.99 551.021 108.403 550.522 108.802 550.017 108.981 549.373 108.9 548.734 106.495 530.795 90.5041 518.742 71.8125 520.663 61.6672 521.712 52.14 528.054 43.4863 539.476 42.3306 540.994 41.2019 542.526 40.0731 544.058 34.0666 552.121 28.3422 559.914 20.8037 565.182L20.8037 587.031C23.5686 586.924 26.2951 586.347 28.8662 585.325 30.5734 584.589 32.3886 584.135 34.2412 583.981 36.0939 584.135 37.9091 584.589 39.6162 585.325 42.1704 586.341 44.8782 586.918 47.625 587.031 50.3899 586.924 53.1164 586.347 55.6875 585.325 57.3946 584.589 59.2099 584.135 61.0625 583.981 62.9106 584.109 64.7258 584.536 66.4375 585.244 69.0019 586.3 71.7296 586.905 74.5 587.031 77.2649 586.924 79.9914 586.347 82.5625 585.325 84.2696 584.589 86.0849 584.135 87.9375 583.981 89.7901 584.135 91.6054 584.589 93.3125 585.325 95.8836 586.347 98.6101 586.924 101.375 587.031 104.14 586.924 106.866 586.347 109.438 585.325 111.145 584.589 112.96 584.135 114.812 583.981 116.661 584.109 118.476 584.536 120.188 585.244 122.752 586.3 125.48 586.905 128.25 587.031L128.25 578.969C126.402 578.841 124.587 578.414 122.875 577.706Z" stroke="#FFFFFF" stroke-width="1.34375" fill="#0070C0"/></g></svg>