<svg width="129" height="129" xmlns="http://www.w3.org/2000/svg" xmlns:xlink="http://www.w3.org/1999/xlink" xml:space="preserve" overflow="hidden"><defs><clipPath id="clip0"><rect x="1106" y="256" width="129" height="129"/></clipPath></defs><g clip-path="url(#clip0)" transform="translate(-1106 -256)"><path d="M1210.81 351.124C1208.05 351.231 1205.32 351.808 1202.75 352.831 1201.04 353.539 1199.22 353.966 1197.38 354.094 1195.53 353.966 1193.71 353.539 1192 352.831 1189.43 351.808 1186.7 351.231 1183.94 351.124 1181.17 351.231 1178.45 351.808 1175.88 352.831 1174.16 353.539 1172.35 353.966 1170.5 354.094 1168.65 353.966 1166.84 353.539 1165.12 352.831 1162.55 351.808 1159.83 351.231 1157.06 351.124 1154.3 351.231 1151.57 351.808 1149 352.831 1147.29 353.539 1145.47 353.966 1143.62 354.094 1141.78 353.966 1139.96 353.539 1138.25 352.831 1135.68 351.808 1132.95 351.231 1130.19 351.124 1127.42 351.231 1124.7 351.808 1122.12 352.831 1120.41 353.539 1118.6 353.966 1116.75 354.094L1116.75 362.156C1119.51 362.049 1122.24 361.472 1124.81 360.45 1126.52 359.714 1128.33 359.26 1130.19 359.106 1132.04 359.26 1133.86 359.714 1135.56 360.45 1138.13 361.472 1140.86 362.049 1143.62 362.156 1146.39 362.049 1149.12 361.472 1151.69 360.45 1153.39 359.714 1155.21 359.26 1157.06 359.106 1158.91 359.234 1160.73 359.661 1162.44 360.369 1165 361.425 1167.73 362.03 1170.5 362.156 1173.26 362.049 1175.99 361.472 1178.56 360.45 1180.27 359.714 1182.08 359.26 1183.94 359.106 1185.79 359.26 1187.61 359.714 1189.31 360.45 1191.88 361.472 1194.61 362.049 1197.38 362.156 1200.14 362.049 1202.87 361.472 1205.44 360.45 1207.14 359.714 1208.96 359.26 1210.81 359.106 1212.66 359.234 1214.48 359.661 1216.19 360.369 1218.75 361.425 1221.48 362.03 1224.25 362.156L1224.25 354.094C1222.4 353.966 1220.59 353.539 1218.88 352.831 1216.3 351.808 1213.58 351.231 1210.81 351.124Z" stroke="#FFFFFF" stroke-width="1.34375" fill="#B3BDF1"/><path d="M1218.88 336.706C1216.3 335.683 1213.58 335.106 1210.81 334.999 1208.05 335.106 1205.32 335.683 1202.75 336.706 1201.04 337.414 1199.22 337.841 1197.38 337.969 1195.53 337.841 1193.71 337.414 1192 336.706 1191.07 336.341 1190.11 336.035 1189.14 335.792 1177.93 330.699 1172.21 320.446 1173.01 312.518 1173.68 305.678 1177.8 297.979 1185.24 297.213 1192.42 296.411 1198.99 301.303 1200.28 308.406 1200.46 309.613 1201.53 310.478 1202.75 310.395 1203.4 310.336 1203.99 310.021 1204.4 309.522 1204.8 309.017 1204.98 308.373 1204.9 307.734 1202.49 289.795 1186.5 277.742 1167.81 279.663 1157.67 280.712 1148.14 287.054 1139.49 298.476 1138.33 299.994 1137.2 301.526 1136.07 303.058 1130.07 311.121 1124.34 318.914 1116.8 324.182L1116.8 346.031C1119.57 345.924 1122.3 345.347 1124.87 344.325 1126.57 343.589 1128.39 343.135 1130.24 342.981 1132.09 343.135 1133.91 343.589 1135.62 344.325 1138.17 345.341 1140.88 345.918 1143.62 346.031 1146.39 345.924 1149.12 345.347 1151.69 344.325 1153.39 343.589 1155.21 343.135 1157.06 342.981 1158.91 343.109 1160.73 343.536 1162.44 344.244 1165 345.3 1167.73 345.905 1170.5 346.031 1173.26 345.924 1175.99 345.347 1178.56 344.325 1180.27 343.589 1182.08 343.135 1183.94 342.981 1185.79 343.135 1187.61 343.589 1189.31 344.325 1191.88 345.347 1194.61 345.924 1197.38 346.031 1200.14 345.924 1202.87 345.347 1205.44 344.325 1207.14 343.589 1208.96 343.135 1210.81 342.981 1212.66 343.109 1214.48 343.536 1216.19 344.244 1218.75 345.3 1221.48 345.905 1224.25 346.031L1224.25 337.969C1222.4 337.841 1220.59 337.414 1218.88 336.706Z" stroke="#FFFFFF" stroke-width="1.34375" fill="#B3BDF1"/></g></svg>