<svg width="129" height="129" xmlns="http://www.w3.org/2000/svg" xmlns:xlink="http://www.w3.org/1999/xlink" xml:space="preserve" overflow="hidden"><defs><clipPath id="clip0"><rect x="790" y="2" width="129" height="129"/></clipPath></defs><g clip-path="url(#clip0)" transform="translate(-790 -2)"><path d="M894.812 97.1241C892.048 97.2312 889.321 97.8083 886.75 98.8306 885.038 99.539 883.223 99.9656 881.375 100.094 879.527 99.9656 877.712 99.539 876 98.8306 873.429 97.8083 870.702 97.2312 867.938 97.1241 865.173 97.2312 862.446 97.8083 859.875 98.8306 858.163 99.539 856.348 99.9656 854.5 100.094 852.652 99.9656 850.837 99.539 849.125 98.8306 846.554 97.8083 843.827 97.2312 841.062 97.1241 838.298 97.2312 835.571 97.8083 833 98.8306 831.288 99.539 829.473 99.9656 827.625 100.094 825.777 99.9656 823.962 99.539 822.25 98.8306 819.679 97.8083 816.952 97.2312 814.188 97.1241 811.423 97.2312 808.696 97.8083 806.125 98.8306 804.413 99.539 802.598 99.9656 800.75 100.094L800.75 108.156C803.515 108.049 806.241 107.472 808.812 106.45 810.52 105.714 812.335 105.26 814.188 105.106 816.04 105.26 817.855 105.714 819.562 106.45 822.134 107.472 824.86 108.049 827.625 108.156 830.39 108.049 833.116 107.472 835.688 106.45 837.395 105.714 839.21 105.26 841.062 105.106 842.911 105.234 844.726 105.661 846.438 106.369 849.002 107.425 851.73 108.03 854.5 108.156 857.265 108.049 859.991 107.472 862.562 106.45 864.27 105.714 866.085 105.26 867.938 105.106 869.79 105.26 871.605 105.714 873.312 106.45 875.884 107.472 878.61 108.049 881.375 108.156 884.14 108.049 886.866 107.472 889.438 106.45 891.145 105.714 892.96 105.26 894.812 105.106 896.661 105.234 898.476 105.661 900.188 106.369 902.752 107.425 905.48 108.03 908.25 108.156L908.25 100.094C906.402 99.9656 904.587 99.539 902.875 98.8306 900.304 97.8083 897.577 97.2312 894.812 97.1241Z" stroke="#FFFFFF" stroke-width="1.34375" fill="#67B1D5"/><path d="M902.875 82.7056C900.304 81.6833 897.577 81.1062 894.812 80.9991 892.048 81.1062 889.321 81.6833 886.75 82.7056 885.038 83.414 883.223 83.8406 881.375 83.9688 879.527 83.8406 877.712 83.414 876 82.7056 875.066 82.3407 874.11 82.0354 873.138 81.7919 861.931 76.6991 856.207 66.4463 857.013 58.5181 857.685 51.6784 861.797 43.9787 869.241 43.2128 876.416 42.4113 882.987 47.3027 884.278 54.4062 884.457 55.6125 885.533 56.4783 886.75 56.395 887.395 56.3356 887.99 56.0213 888.403 55.5216 888.802 55.017 888.981 54.3728 888.9 53.7344 886.495 35.7953 870.504 23.7419 851.812 25.6634 841.667 26.7116 832.14 33.0541 823.486 44.4759 822.331 45.9944 821.202 47.5263 820.073 49.0581 814.067 57.1206 808.342 64.9144 800.804 70.1819L800.804 92.0312C803.569 91.9242 806.295 91.347 808.866 90.3247 810.573 89.5889 812.389 89.1349 814.241 88.9809 816.094 89.1349 817.909 89.5889 819.616 90.3247 822.17 91.3411 824.878 91.9181 827.625 92.0312 830.39 91.9242 833.116 91.347 835.688 90.3247 837.395 89.5889 839.21 89.1349 841.062 88.9809 842.911 89.1091 844.726 89.5356 846.438 90.2441 849.002 91.3001 851.73 91.9048 854.5 92.0312 857.265 91.9242 859.991 91.347 862.562 90.3247 864.27 89.5889 866.085 89.1351 867.938 88.9809 869.79 89.1351 871.605 89.5889 873.312 90.3247 875.884 91.347 878.61 91.9242 881.375 92.0312 884.14 91.9242 886.866 91.347 889.438 90.3247 891.145 89.5889 892.96 89.1351 894.812 88.9809 896.661 89.1091 898.476 89.5356 900.188 90.2441 902.752 91.3001 905.48 91.9048 908.25 92.0312L908.25 83.9688C906.402 83.8406 904.587 83.414 902.875 82.7056Z" stroke="#FFFFFF" stroke-width="1.34375" fill="#67B1D5"/></g></svg>