<svg width="129" height="129" xmlns="http://www.w3.org/2000/svg" xmlns:xlink="http://www.w3.org/1999/xlink" xml:space="preserve" overflow="hidden"><defs><clipPath id="clip0"><rect x="1" y="256" width="129" height="129"/></clipPath></defs><g clip-path="url(#clip0)" transform="translate(-1 -256)"><path d="M105.812 351.124C103.048 351.231 100.321 351.808 97.75 352.831 96.0383 353.539 94.2231 353.966 92.375 354.094 90.5269 353.966 88.7117 353.539 87 352.831 84.4289 351.808 81.7024 351.231 78.9375 351.124 76.1726 351.231 73.4461 351.808 70.875 352.831 69.1633 353.539 67.3481 353.966 65.5 354.094 63.6519 353.966 61.8367 353.539 60.125 352.831 57.5539 351.808 54.8274 351.231 52.0625 351.124 49.2976 351.231 46.5711 351.808 44 352.831 42.2882 353.539 40.4731 353.966 38.625 354.094 36.7769 353.966 34.9618 353.539 33.25 352.831 30.6789 351.808 27.9524 351.231 25.1875 351.124 22.4226 351.231 19.6961 351.808 17.125 352.831 15.4132 353.539 13.5981 353.966 11.75 354.094L11.75 362.156C14.5149 362.049 17.2414 361.472 19.8125 360.45 21.5196 359.714 23.3349 359.26 25.1875 359.106 27.0401 359.26 28.8554 359.714 30.5625 360.45 33.1336 361.472 35.8601 362.049 38.625 362.156 41.3899 362.049 44.1164 361.472 46.6875 360.45 48.3946 359.714 50.2099 359.26 52.0625 359.106 53.9106 359.234 55.7258 359.661 57.4375 360.369 60.0019 361.425 62.7296 362.03 65.5 362.156 68.2649 362.049 70.9914 361.472 73.5625 360.45 75.2696 359.714 77.0849 359.26 78.9375 359.106 80.7901 359.26 82.6054 359.714 84.3125 360.45 86.8836 361.472 89.6101 362.049 92.375 362.156 95.1399 362.049 97.8664 361.472 100.438 360.45 102.145 359.714 103.96 359.26 105.812 359.106 107.661 359.234 109.476 359.661 111.188 360.369 113.752 361.425 116.48 362.03 119.25 362.156L119.25 354.094C117.402 353.966 115.587 353.539 113.875 352.831 111.304 351.808 108.577 351.231 105.812 351.124Z" stroke="#FFFFFF" stroke-width="1.34375" fill="#011369"/><path d="M113.875 336.706C111.304 335.683 108.577 335.106 105.812 334.999 103.048 335.106 100.321 335.683 97.75 336.706 96.0383 337.414 94.2231 337.841 92.375 337.969 90.5269 337.841 88.7117 337.414 87 336.706 86.0662 336.341 85.1103 336.035 84.1378 335.792 72.9309 330.699 67.2066 320.446 68.0128 312.518 68.6847 305.678 72.7966 297.979 80.2409 297.213 87.4163 296.411 93.987 301.303 95.2775 308.406 95.4569 309.613 96.5334 310.478 97.75 310.395 98.3953 310.336 98.9903 310.021 99.4028 309.522 99.8022 309.017 99.9814 308.373 99.9 307.734 97.4947 289.795 81.5041 277.742 62.8125 279.663 52.6672 280.712 43.14 287.054 34.4863 298.476 33.3306 299.994 32.2019 301.526 31.0731 303.058 25.0666 311.121 19.3422 318.914 11.8038 324.182L11.8038 346.031C14.5687 345.924 17.2951 345.347 19.8662 344.325 21.5734 343.589 23.3886 343.135 25.2413 342.981 27.0939 343.135 28.9091 343.589 30.6163 344.325 33.1704 345.341 35.8782 345.918 38.625 346.031 41.3899 345.924 44.1164 345.347 46.6875 344.325 48.3946 343.589 50.2099 343.135 52.0625 342.981 53.9106 343.109 55.7258 343.536 57.4375 344.244 60.0019 345.3 62.7296 345.905 65.5 346.031 68.2649 345.924 70.9914 345.347 73.5625 344.325 75.2696 343.589 77.0849 343.135 78.9375 342.981 80.7901 343.135 82.6054 343.589 84.3125 344.325 86.8836 345.347 89.6101 345.924 92.375 346.031 95.1399 345.924 97.8664 345.347 100.438 344.325 102.145 343.589 103.96 343.135 105.812 342.981 107.661 343.109 109.476 343.536 111.188 344.244 113.752 345.3 116.48 345.905 119.25 346.031L119.25 337.969C117.402 337.841 115.587 337.414 113.875 336.706Z" stroke="#FFFFFF" stroke-width="1.34375" fill="#011369"/></g></svg>