<svg width="96" height="96" xmlns="http://www.w3.org/2000/svg" xmlns:xlink="http://www.w3.org/1999/xlink" xml:space="preserve" overflow="hidden"><defs><clipPath id="clip0"><rect x="202" y="256" width="96" height="96"/></clipPath></defs><g clip-path="url(#clip0)" transform="translate(-202 -256)"><path d="M280 326.79C277.942 326.87 275.913 327.299 274 328.06 272.726 328.587 271.375 328.905 270 329 268.625 328.905 267.274 328.587 266 328.06 264.087 327.299 262.058 326.87 260 326.79 257.942 326.87 255.913 327.299 254 328.06 252.726 328.587 251.375 328.905 250 329 248.625 328.905 247.274 328.587 246 328.06 244.087 327.299 242.058 326.87 240 326.79 237.942 326.87 235.913 327.299 234 328.06 232.726 328.587 231.375 328.905 230 329 228.625 328.905 227.274 328.587 226 328.06 224.087 327.299 222.058 326.87 220 326.79 217.942 326.87 215.913 327.299 214 328.06 212.726 328.587 211.375 328.905 210 329L210 335C212.058 334.92 214.087 334.491 216 333.73 217.27 333.182 218.621 332.845 220 332.73 221.379 332.845 222.73 333.182 224 333.73 225.913 334.491 227.942 334.92 230 335 232.058 334.92 234.087 334.491 236 333.73 237.27 333.182 238.621 332.845 240 332.73 241.375 332.825 242.726 333.143 244 333.67 245.908 334.456 247.938 334.906 250 335 252.058 334.92 254.087 334.491 256 333.73 257.27 333.182 258.621 332.845 260 332.73 261.379 332.845 262.73 333.182 264 333.73 265.913 334.491 267.942 334.92 270 335 272.058 334.92 274.087 334.491 276 333.73 277.27 333.182 278.621 332.845 280 332.73 281.375 332.825 282.726 333.143 284 333.67 285.908 334.456 287.938 334.906 290 335L290 329C288.625 328.905 287.274 328.587 286 328.06 284.087 327.299 282.058 326.87 280 326.79Z" stroke="#FFFFFF" fill="#9EDDFD"/><path d="M286 316.06C284.087 315.299 282.058 314.87 280 314.79 277.942 314.87 275.913 315.299 274 316.06 272.726 316.587 271.375 316.905 270 317 268.625 316.905 267.274 316.587 266 316.06 265.305 315.788 264.594 315.561 263.87 315.38 255.53 311.59 251.27 303.96 251.87 298.06 252.37 292.97 255.43 287.24 260.97 286.67 266.31 286.073 271.2 289.714 272.16 295 272.294 295.898 273.095 296.542 274 296.48 274.48 296.436 274.923 296.202 275.23 295.83 275.527 295.454 275.661 294.975 275.6 294.5 273.81 281.15 261.91 272.18 248 273.61 240.45 274.39 233.36 279.11 226.92 287.61 226.06 288.74 225.22 289.88 224.38 291.02 219.91 297.02 215.65 302.82 210.04 306.74L210.04 323C212.098 322.92 214.127 322.491 216.04 321.73 217.31 321.182 218.661 320.845 220.04 320.73 221.419 320.845 222.77 321.182 224.04 321.73 225.941 322.486 227.956 322.916 230 323 232.058 322.92 234.087 322.491 236 321.73 237.27 321.182 238.621 320.845 240 320.73 241.375 320.825 242.726 321.143 244 321.67 245.908 322.456 247.938 322.906 250 323 252.058 322.92 254.087 322.491 256 321.73 257.27 321.182 258.621 320.845 260 320.73 261.379 320.845 262.73 321.182 264 321.73 265.913 322.491 267.942 322.92 270 323 272.058 322.92 274.087 322.491 276 321.73 277.27 321.182 278.621 320.845 280 320.73 281.375 320.825 282.726 321.143 284 321.67 285.908 322.456 287.938 322.906 290 323L290 317C288.625 316.905 287.274 316.587 286 316.06Z" stroke="#FFFFFF" fill="#9EDDFD"/></g></svg>