<svg width="96" height="96" xmlns="http://www.w3.org/2000/svg" xmlns:xlink="http://www.w3.org/1999/xlink" xml:space="preserve" overflow="hidden"><defs><clipPath id="clip0"><rect x="707" y="528" width="96" height="96"/></clipPath></defs><g clip-path="url(#clip0)" transform="translate(-707 -528)"><path d="M785 598.79C782.942 598.87 780.913 599.299 779 600.06 777.726 600.587 776.375 600.905 775 601 773.625 600.905 772.274 600.587 771 600.06 769.087 599.299 767.058 598.87 765 598.79 762.942 598.87 760.913 599.299 759 600.06 757.726 600.587 756.375 600.905 755 601 753.625 600.905 752.274 600.587 751 600.06 749.087 599.299 747.058 598.87 745 598.79 742.942 598.87 740.913 599.299 739 600.06 737.726 600.587 736.375 600.905 735 601 733.625 600.905 732.274 600.587 731 600.06 729.087 599.299 727.058 598.87 725 598.79 722.942 598.87 720.913 599.299 719 600.06 717.726 600.587 716.375 600.905 715 601L715 607C717.058 606.92 719.087 606.491 721 605.73 722.27 605.182 723.621 604.845 725 604.73 726.379 604.845 727.73 605.182 729 605.73 730.913 606.491 732.942 606.92 735 607 737.058 606.92 739.087 606.491 741 605.73 742.27 605.182 743.621 604.845 745 604.73 746.375 604.825 747.726 605.143 749 605.67 750.908 606.456 752.938 606.906 755 607 757.058 606.92 759.087 606.491 761 605.73 762.27 605.182 763.621 604.845 765 604.73 766.379 604.845 767.73 605.182 769 605.73 770.913 606.491 772.942 606.92 775 607 777.058 606.92 779.087 606.491 781 605.73 782.27 605.182 783.621 604.845 785 604.73 786.375 604.825 787.726 605.143 789 605.67 790.908 606.456 792.938 606.906 795 607L795 601C793.625 600.905 792.274 600.587 791 600.06 789.087 599.299 787.058 598.87 785 598.79Z" stroke="#FFFFFF" fill="#4AD4FC"/><path d="M791 588.06C789.087 587.299 787.058 586.87 785 586.79 782.942 586.87 780.913 587.299 779 588.06 777.726 588.587 776.375 588.905 775 589 773.625 588.905 772.274 588.587 771 588.06 770.305 587.788 769.594 587.561 768.87 587.38 760.53 583.59 756.27 575.96 756.87 570.06 757.37 564.97 760.43 559.24 765.97 558.67 771.31 558.073 776.2 561.714 777.16 567 777.294 567.898 778.095 568.542 779 568.48 779.48 568.436 779.923 568.202 780.23 567.83 780.527 567.454 780.661 566.975 780.6 566.5 778.81 553.15 766.91 544.18 753 545.61 745.45 546.39 738.36 551.11 731.92 559.61 731.06 560.74 730.22 561.88 729.38 563.02 724.91 569.02 720.65 574.82 715.04 578.74L715.04 595C717.098 594.92 719.127 594.491 721.04 593.73 722.31 593.182 723.661 592.845 725.04 592.73 726.419 592.845 727.77 593.182 729.04 593.73 730.941 594.486 732.956 594.916 735 595 737.058 594.92 739.087 594.491 741 593.73 742.27 593.182 743.621 592.845 745 592.73 746.375 592.825 747.726 593.143 749 593.67 750.908 594.456 752.938 594.906 755 595 757.058 594.92 759.087 594.491 761 593.73 762.27 593.182 763.621 592.845 765 592.73 766.379 592.845 767.73 593.182 769 593.73 770.913 594.491 772.942 594.92 775 595 777.058 594.92 779.087 594.491 781 593.73 782.27 593.182 783.621 592.845 785 592.73 786.375 592.825 787.726 593.143 789 593.67 790.908 594.456 792.938 594.906 795 595L795 589C793.625 588.905 792.274 588.587 791 588.06Z" stroke="#FFFFFF" fill="#4AD4FC"/></g></svg>