<svg xmlns="http://www.w3.org/2000/svg" xmlns:xlink="http://www.w3.org/1999/xlink" width="96" height="96" overflow="hidden" xml:space="preserve"><defs><clipPath id="clip0"><rect width="96" height="96" x="404" y="168"/></clipPath></defs><g clip-path="url(#clip0)" transform="translate(-404 -168)"><path fill="#049FEC" stroke="#FFF" d="M482 238.79C479.942 238.87 477.913 239.299 476 240.06 474.726 240.587 473.375 240.905 472 241 470.625 240.905 469.274 240.587 468 240.06 466.087 239.299 464.058 238.87 462 238.79 459.942 238.87 457.913 239.299 456 240.06 454.726 240.587 453.375 240.905 452 241 450.625 240.905 449.274 240.587 448 240.06 446.087 239.299 444.058 238.87 442 238.79 439.942 238.87 437.913 239.299 436 240.06 434.726 240.587 433.375 240.905 432 241 430.625 240.905 429.274 240.587 428 240.06 426.087 239.299 424.058 238.87 422 238.79 419.942 238.87 417.913 239.299 416 240.06 414.726 240.587 413.375 240.905 412 241L412 247C414.058 246.92 416.087 246.491 418 245.73 419.27 245.182 420.621 244.845 422 244.73 423.379 244.845 424.73 245.182 426 245.73 427.913 246.491 429.942 246.92 432 247 434.058 246.92 436.087 246.491 438 245.73 439.27 245.182 440.621 244.845 442 244.73 443.375 244.825 444.726 245.143 446 245.67 447.908 246.456 449.938 246.906 452 247 454.058 246.92 456.087 246.491 458 245.73 459.27 245.182 460.621 244.845 462 244.73 463.379 244.845 464.73 245.182 466 245.73 467.913 246.491 469.942 246.92 472 247 474.058 246.92 476.087 246.491 478 245.73 479.27 245.182 480.621 244.845 482 244.73 483.375 244.825 484.726 245.143 486 245.67 487.908 246.456 489.938 246.906 492 247L492 241C490.625 240.905 489.274 240.587 488 240.06 486.087 239.299 484.058 238.87 482 238.79Z"/><path fill="#049FEC" stroke="#FFF" d="M488 228.06C486.087 227.299 484.058 226.87 482 226.79 479.942 226.87 477.913 227.299 476 228.06 474.726 228.587 473.375 228.905 472 229 470.625 228.905 469.274 228.587 468 228.06 467.305 227.788 466.594 227.561 465.87 227.38 457.53 223.59 453.27 215.96 453.87 210.06 454.37 204.97 457.43 199.24 462.97 198.67 468.31 198.074 473.2 201.714 474.16 207 474.294 207.898 475.095 208.542 476 208.48 476.48 208.436 476.923 208.202 477.23 207.83 477.527 207.454 477.661 206.975 477.6 206.5 475.81 193.15 463.91 184.18 450 185.61 442.45 186.39 435.36 191.11 428.92 199.61 428.06 200.74 427.22 201.88 426.38 203.02 421.91 209.02 417.65 214.82 412.04 218.74L412.04 235C414.098 234.92 416.127 234.491 418.04 233.73 419.31 233.182 420.661 232.845 422.04 232.73 423.419 232.845 424.77 233.182 426.04 233.73 427.941 234.486 429.956 234.916 432 235 434.058 234.92 436.087 234.491 438 233.73 439.27 233.182 440.621 232.845 442 232.73 443.375 232.825 444.726 233.143 446 233.67 447.908 234.456 449.938 234.906 452 235 454.058 234.92 456.087 234.491 458 233.73 459.27 233.182 460.621 232.845 462 232.73 463.379 232.845 464.73 233.182 466 233.73 467.913 234.491 469.942 234.92 472 235 474.058 234.92 476.087 234.491 478 233.73 479.27 233.182 480.621 232.845 482 232.73 483.375 232.825 484.726 233.143 486 233.67 487.908 234.456 489.938 234.906 492 235L492 229C490.625 228.905 489.274 228.587 488 228.06Z"/></g></svg>