<svg width="96" height="96" xmlns="http://www.w3.org/2000/svg" xmlns:xlink="http://www.w3.org/1999/xlink" xml:space="preserve" overflow="hidden"><defs><clipPath id="clip0"><rect x="606" y="352" width="96" height="96"/></clipPath></defs><g clip-path="url(#clip0)" transform="translate(-606 -352)"><path d="M684 422.79C681.942 422.87 679.913 423.299 678 424.06 676.726 424.587 675.375 424.905 674 425 672.625 424.905 671.274 424.587 670 424.06 668.087 423.299 666.058 422.87 664 422.79 661.942 422.87 659.913 423.299 658 424.06 656.726 424.587 655.375 424.905 654 425 652.625 424.905 651.274 424.587 650 424.06 648.087 423.299 646.058 422.87 644 422.79 641.942 422.87 639.913 423.299 638 424.06 636.726 424.587 635.375 424.905 634 425 632.625 424.905 631.274 424.587 630 424.06 628.087 423.299 626.058 422.87 624 422.79 621.942 422.87 619.913 423.299 618 424.06 616.726 424.587 615.375 424.905 614 425L614 431C616.058 430.92 618.087 430.491 620 429.73 621.27 429.182 622.621 428.845 624 428.73 625.379 428.845 626.73 429.182 628 429.73 629.913 430.491 631.942 430.92 634 431 636.058 430.92 638.087 430.491 640 429.73 641.27 429.182 642.621 428.845 644 428.73 645.375 428.825 646.726 429.143 648 429.67 649.908 430.456 651.938 430.906 654 431 656.058 430.92 658.087 430.491 660 429.73 661.27 429.182 662.621 428.845 664 428.73 665.379 428.845 666.73 429.182 668 429.73 669.913 430.491 671.942 430.92 674 431 676.058 430.92 678.087 430.491 680 429.73 681.27 429.182 682.621 428.845 684 428.73 685.375 428.825 686.726 429.143 688 429.67 689.908 430.456 691.938 430.906 694 431L694 425C692.625 424.905 691.274 424.587 690 424.06 688.087 423.299 686.058 422.87 684 422.79Z" stroke="#FFFFFF" fill="#4E67E0"/><path d="M690 412.06C688.087 411.299 686.058 410.87 684 410.79 681.942 410.87 679.913 411.299 678 412.06 676.726 412.587 675.375 412.905 674 413 672.625 412.905 671.274 412.587 670 412.06 669.305 411.788 668.594 411.561 667.87 411.38 659.53 407.59 655.27 399.96 655.87 394.06 656.37 388.97 659.43 383.24 664.97 382.67 670.31 382.073 675.2 385.714 676.16 391 676.294 391.898 677.095 392.542 678 392.48 678.48 392.436 678.923 392.202 679.23 391.83 679.527 391.454 679.661 390.975 679.6 390.5 677.81 377.15 665.91 368.18 652 369.61 644.45 370.39 637.36 375.11 630.92 383.61 630.06 384.74 629.22 385.88 628.38 387.02 623.91 393.02 619.65 398.82 614.04 402.74L614.04 419C616.098 418.92 618.127 418.491 620.04 417.73 621.31 417.182 622.661 416.845 624.04 416.73 625.419 416.845 626.77 417.182 628.04 417.73 629.941 418.486 631.956 418.916 634 419 636.058 418.92 638.087 418.491 640 417.73 641.27 417.182 642.621 416.845 644 416.73 645.375 416.825 646.726 417.143 648 417.67 649.908 418.456 651.938 418.906 654 419 656.058 418.92 658.087 418.491 660 417.73 661.27 417.182 662.621 416.845 664 416.73 665.379 416.845 666.73 417.182 668 417.73 669.913 418.491 671.942 418.92 674 419 676.058 418.92 678.087 418.491 680 417.73 681.27 417.182 682.621 416.845 684 416.73 685.375 416.825 686.726 417.143 688 417.67 689.908 418.456 691.938 418.906 694 419L694 413C692.625 412.905 691.274 412.587 690 412.06Z" stroke="#FFFFFF" fill="#4E67E0"/></g></svg>