<svg width="96" height="96" xmlns="http://www.w3.org/2000/svg" xmlns:xlink="http://www.w3.org/1999/xlink" xml:space="preserve" overflow="hidden"><defs><clipPath id="clip0"><rect x="0" y="168" width="96" height="96"/></clipPath></defs><g clip-path="url(#clip0)" transform="matrix(1 0 0 1 0 -168)"><path d="M78 238.79C75.9424 238.87 73.9134 239.299 72 240.06 70.7262 240.587 69.3753 240.905 68 241 66.6247 240.905 65.2738 240.587 64 240.06 62.0866 239.299 60.0576 238.87 58 238.79 55.9424 238.87 53.9134 239.299 52 240.06 50.7262 240.587 49.3753 240.905 48 241 46.6247 240.905 45.2738 240.587 44 240.06 42.0866 239.299 40.0576 238.87 38 238.79 35.9424 238.87 33.9134 239.299 32 240.06 30.7261 240.587 29.3753 240.905 28 241 26.6247 240.905 25.2739 240.587 24 240.06 22.0866 239.299 20.0576 238.87 18 238.79 15.9424 238.87 13.9134 239.299 12 240.06 10.7261 240.587 9.37533 240.905 8 241L8 247C10.0576 246.92 12.0866 246.491 14 245.73 15.2704 245.182 16.6213 244.845 18 244.73 19.3787 244.845 20.7296 245.182 22 245.73 23.9134 246.491 25.9424 246.92 28 247 30.0576 246.92 32.0866 246.491 34 245.73 35.2704 245.182 36.6213 244.845 38 244.73 39.3753 244.825 40.7262 245.143 42 245.67 43.9084 246.456 45.9383 246.906 48 247 50.0576 246.92 52.0866 246.491 54 245.73 55.2704 245.182 56.6213 244.845 58 244.73 59.3787 244.845 60.7296 245.182 62 245.73 63.9134 246.491 65.9424 246.92 68 247 70.0576 246.92 72.0866 246.491 74 245.73 75.2704 245.182 76.6213 244.845 78 244.73 79.3753 244.825 80.7262 245.143 82 245.67 83.9084 246.456 85.9383 246.906 88 247L88 241C86.6247 240.905 85.2738 240.587 84 240.06 82.0866 239.299 80.0576 238.87 78 238.79Z" stroke="#FFFFFF" fill="#024A6F"/><path d="M84 228.06C82.0866 227.299 80.0576 226.87 78 226.79 75.9424 226.87 73.9134 227.299 72 228.06 70.7262 228.587 69.3753 228.905 68 229 66.6247 228.905 65.2738 228.587 64 228.06 63.3051 227.788 62.5937 227.561 61.87 227.38 53.53 223.59 49.27 215.96 49.87 210.06 50.37 204.97 53.43 199.24 58.97 198.67 64.3098 198.074 69.1996 201.714 70.16 207 70.2935 207.898 71.0946 208.542 72 208.48 72.4802 208.436 72.923 208.202 73.23 207.83 73.5272 207.454 73.6606 206.975 73.6 206.5 71.81 193.15 59.91 184.18 46 185.61 38.45 186.39 31.36 191.11 24.92 199.61 24.06 200.74 23.22 201.88 22.38 203.02 17.91 209.02 13.65 214.82 8.04 218.74L8.04 235C10.0976 234.92 12.1266 234.491 14.04 233.73 15.3104 233.182 16.6613 232.845 18.04 232.73 19.4187 232.845 20.7696 233.182 22.04 233.73 23.9408 234.486 25.9559 234.916 28 235 30.0576 234.92 32.0866 234.491 34 233.73 35.2704 233.182 36.6213 232.845 38 232.73 39.3753 232.825 40.7262 233.143 42 233.67 43.9084 234.456 45.9383 234.906 48 235 50.0576 234.92 52.0866 234.491 54 233.73 55.2704 233.182 56.6213 232.845 58 232.73 59.3787 232.845 60.7296 233.182 62 233.73 63.9134 234.491 65.9424 234.92 68 235 70.0576 234.92 72.0866 234.491 74 233.73 75.2704 233.182 76.6213 232.845 78 232.73 79.3753 232.825 80.7262 233.143 82 233.67 83.9084 234.456 85.9383 234.906 88 235L88 229C86.6247 228.905 85.2738 228.587 84 228.06Z" stroke="#FFFFFF" fill="#024A6F"/></g></svg>