<svg width="96" height="96" xmlns="http://www.w3.org/2000/svg" xmlns:xlink="http://www.w3.org/1999/xlink" xml:space="preserve" overflow="hidden"><defs><clipPath id="clip0"><rect x="606" y="528" width="96" height="96"/></clipPath></defs><g clip-path="url(#clip0)" transform="translate(-606 -528)"><path d="M684 598.79C681.942 598.87 679.913 599.299 678 600.06 676.726 600.587 675.375 600.905 674 601 672.625 600.905 671.274 600.587 670 600.06 668.087 599.299 666.058 598.87 664 598.79 661.942 598.87 659.913 599.299 658 600.06 656.726 600.587 655.375 600.905 654 601 652.625 600.905 651.274 600.587 650 600.06 648.087 599.299 646.058 598.87 644 598.79 641.942 598.87 639.913 599.299 638 600.06 636.726 600.587 635.375 600.905 634 601 632.625 600.905 631.274 600.587 630 600.06 628.087 599.299 626.058 598.87 624 598.79 621.942 598.87 619.913 599.299 618 600.06 616.726 600.587 615.375 600.905 614 601L614 607C616.058 606.92 618.087 606.491 620 605.73 621.27 605.182 622.621 604.845 624 604.73 625.379 604.845 626.73 605.182 628 605.73 629.913 606.491 631.942 606.92 634 607 636.058 606.92 638.087 606.491 640 605.73 641.27 605.182 642.621 604.845 644 604.73 645.375 604.825 646.726 605.143 648 605.67 649.908 606.456 651.938 606.906 654 607 656.058 606.92 658.087 606.491 660 605.73 661.27 605.182 662.621 604.845 664 604.73 665.379 604.845 666.73 605.182 668 605.73 669.913 606.491 671.942 606.92 674 607 676.058 606.92 678.087 606.491 680 605.73 681.27 605.182 682.621 604.845 684 604.73 685.375 604.825 686.726 605.143 688 605.67 689.908 606.456 691.938 606.906 694 607L694 601C692.625 600.905 691.274 600.587 690 600.06 688.087 599.299 686.058 598.87 684 598.79Z" stroke="#FFFFFF" fill="#31CEFC"/><path d="M690 588.06C688.087 587.299 686.058 586.87 684 586.79 681.942 586.87 679.913 587.299 678 588.06 676.726 588.587 675.375 588.905 674 589 672.625 588.905 671.274 588.587 670 588.06 669.305 587.788 668.594 587.561 667.87 587.38 659.53 583.59 655.27 575.96 655.87 570.06 656.37 564.97 659.43 559.24 664.97 558.67 670.31 558.073 675.2 561.714 676.16 567 676.294 567.898 677.095 568.542 678 568.48 678.48 568.436 678.923 568.202 679.23 567.83 679.527 567.454 679.661 566.975 679.6 566.5 677.81 553.15 665.91 544.18 652 545.61 644.45 546.39 637.36 551.11 630.92 559.61 630.06 560.74 629.22 561.88 628.38 563.02 623.91 569.02 619.65 574.82 614.04 578.74L614.04 595C616.098 594.92 618.127 594.491 620.04 593.73 621.31 593.182 622.661 592.845 624.04 592.73 625.419 592.845 626.77 593.182 628.04 593.73 629.941 594.486 631.956 594.916 634 595 636.058 594.92 638.087 594.491 640 593.73 641.27 593.182 642.621 592.845 644 592.73 645.375 592.825 646.726 593.143 648 593.67 649.908 594.456 651.938 594.906 654 595 656.058 594.92 658.087 594.491 660 593.73 661.27 593.182 662.621 592.845 664 592.73 665.379 592.845 666.73 593.182 668 593.73 669.913 594.491 671.942 594.92 674 595 676.058 594.92 678.087 594.491 680 593.73 681.27 593.182 682.621 592.845 684 592.73 685.375 592.825 686.726 593.143 688 593.67 689.908 594.456 691.938 594.906 694 595L694 589C692.625 588.905 691.274 588.587 690 588.06Z" stroke="#FFFFFF" fill="#31CEFC"/></g></svg>