<svg width="96" height="96" xmlns="http://www.w3.org/2000/svg" xmlns:xlink="http://www.w3.org/1999/xlink" xml:space="preserve" overflow="hidden"><defs><clipPath id="clip0"><rect x="101" y="168" width="96" height="96"/></clipPath></defs><g clip-path="url(#clip0)" transform="translate(-101 -168)"><path d="M179 238.79C176.942 238.87 174.913 239.299 173 240.06 171.726 240.587 170.375 240.905 169 241 167.625 240.905 166.274 240.587 165 240.06 163.087 239.299 161.058 238.87 159 238.79 156.942 238.87 154.913 239.299 153 240.06 151.726 240.587 150.375 240.905 149 241 147.625 240.905 146.274 240.587 145 240.06 143.087 239.299 141.058 238.87 139 238.79 136.942 238.87 134.913 239.299 133 240.06 131.726 240.587 130.375 240.905 129 241 127.625 240.905 126.274 240.587 125 240.06 123.087 239.299 121.058 238.87 119 238.79 116.942 238.87 114.913 239.299 113 240.06 111.726 240.587 110.375 240.905 109 241L109 247C111.058 246.92 113.087 246.491 115 245.73 116.27 245.182 117.621 244.845 119 244.73 120.379 244.845 121.73 245.182 123 245.73 124.913 246.491 126.942 246.92 129 247 131.058 246.92 133.087 246.491 135 245.73 136.27 245.182 137.621 244.845 139 244.73 140.375 244.825 141.726 245.143 143 245.67 144.908 246.456 146.938 246.906 149 247 151.058 246.92 153.087 246.491 155 245.73 156.27 245.182 157.621 244.845 159 244.73 160.379 244.845 161.73 245.182 163 245.73 164.913 246.491 166.942 246.92 169 247 171.058 246.92 173.087 246.491 175 245.73 176.27 245.182 177.621 244.845 179 244.73 180.375 244.825 181.726 245.143 183 245.67 184.908 246.456 186.938 246.906 189 247L189 241C187.625 240.905 186.274 240.587 185 240.06 183.087 239.299 181.058 238.87 179 238.79Z" stroke="#FFFFFF" fill="#025B88"/><path d="M185 228.06C183.087 227.299 181.058 226.87 179 226.79 176.942 226.87 174.913 227.299 173 228.06 171.726 228.587 170.375 228.905 169 229 167.625 228.905 166.274 228.587 165 228.06 164.305 227.788 163.594 227.561 162.87 227.38 154.53 223.59 150.27 215.96 150.87 210.06 151.37 204.97 154.43 199.24 159.97 198.67 165.31 198.074 170.2 201.714 171.16 207 171.294 207.898 172.095 208.542 173 208.48 173.48 208.436 173.923 208.202 174.23 207.83 174.527 207.454 174.661 206.975 174.6 206.5 172.81 193.15 160.91 184.18 147 185.61 139.45 186.39 132.36 191.11 125.92 199.61 125.06 200.74 124.22 201.88 123.38 203.02 118.91 209.02 114.65 214.82 109.04 218.74L109.04 235C111.098 234.92 113.127 234.491 115.04 233.73 116.31 233.182 117.661 232.845 119.04 232.73 120.419 232.845 121.77 233.182 123.04 233.73 124.941 234.486 126.956 234.916 129 235 131.058 234.92 133.087 234.491 135 233.73 136.27 233.182 137.621 232.845 139 232.73 140.375 232.825 141.726 233.143 143 233.67 144.908 234.456 146.938 234.906 149 235 151.058 234.92 153.087 234.491 155 233.73 156.27 233.182 157.621 232.845 159 232.73 160.379 232.845 161.73 233.182 163 233.73 164.913 234.491 166.942 234.92 169 235 171.058 234.92 173.087 234.491 175 233.73 176.27 233.182 177.621 232.845 179 232.73 180.375 232.825 181.726 233.143 183 233.67 184.908 234.456 186.938 234.906 189 235L189 229C187.625 228.905 186.274 228.587 185 228.06Z" stroke="#FFFFFF" fill="#025B88"/></g></svg>