<svg width="96" height="96" xmlns="http://www.w3.org/2000/svg" xmlns:xlink="http://www.w3.org/1999/xlink" xml:space="preserve" overflow="hidden"><defs><clipPath id="clip0"><rect x="404" y="528" width="96" height="96"/></clipPath></defs><g clip-path="url(#clip0)" transform="translate(-404 -528)"><path d="M482 598.79C479.942 598.87 477.913 599.299 476 600.06 474.726 600.587 473.375 600.905 472 601 470.625 600.905 469.274 600.587 468 600.06 466.087 599.299 464.058 598.87 462 598.79 459.942 598.87 457.913 599.299 456 600.06 454.726 600.587 453.375 600.905 452 601 450.625 600.905 449.274 600.587 448 600.06 446.087 599.299 444.058 598.87 442 598.79 439.942 598.87 437.913 599.299 436 600.06 434.726 600.587 433.375 600.905 432 601 430.625 600.905 429.274 600.587 428 600.06 426.087 599.299 424.058 598.87 422 598.79 419.942 598.87 417.913 599.299 416 600.06 414.726 600.587 413.375 600.905 412 601L412 607C414.058 606.92 416.087 606.491 418 605.73 419.27 605.182 420.621 604.845 422 604.73 423.379 604.845 424.73 605.182 426 605.73 427.913 606.491 429.942 606.92 432 607 434.058 606.92 436.087 606.491 438 605.73 439.27 605.182 440.621 604.845 442 604.73 443.375 604.825 444.726 605.143 446 605.67 447.908 606.456 449.938 606.906 452 607 454.058 606.92 456.087 606.491 458 605.73 459.27 605.182 460.621 604.845 462 604.73 463.379 604.845 464.73 605.182 466 605.73 467.913 606.491 469.942 606.92 472 607 474.058 606.92 476.087 606.491 478 605.73 479.27 605.182 480.621 604.845 482 604.73 483.375 604.825 484.726 605.143 486 605.67 487.908 606.456 489.938 606.906 492 607L492 601C490.625 600.905 489.274 600.587 488 600.06 486.087 599.299 484.058 598.87 482 598.79Z" stroke="#FFFFFF" fill="#18C8FB"/><path d="M488 588.06C486.087 587.299 484.058 586.87 482 586.79 479.942 586.87 477.913 587.299 476 588.06 474.726 588.587 473.375 588.905 472 589 470.625 588.905 469.274 588.587 468 588.06 467.305 587.788 466.594 587.561 465.87 587.38 457.53 583.59 453.27 575.96 453.87 570.06 454.37 564.97 457.43 559.24 462.97 558.67 468.31 558.073 473.2 561.714 474.16 567 474.294 567.898 475.095 568.542 476 568.48 476.48 568.436 476.923 568.202 477.23 567.83 477.527 567.454 477.661 566.975 477.6 566.5 475.81 553.15 463.91 544.18 450 545.61 442.45 546.39 435.36 551.11 428.92 559.61 428.06 560.74 427.22 561.88 426.38 563.02 421.91 569.02 417.65 574.82 412.04 578.74L412.04 595C414.098 594.92 416.127 594.491 418.04 593.73 419.31 593.182 420.661 592.845 422.04 592.73 423.419 592.845 424.77 593.182 426.04 593.73 427.941 594.486 429.956 594.916 432 595 434.058 594.92 436.087 594.491 438 593.73 439.27 593.182 440.621 592.845 442 592.73 443.375 592.825 444.726 593.143 446 593.67 447.908 594.456 449.938 594.906 452 595 454.058 594.92 456.087 594.491 458 593.73 459.27 593.182 460.621 592.845 462 592.73 463.379 592.845 464.73 593.182 466 593.73 467.913 594.491 469.942 594.92 472 595 474.058 594.92 476.087 594.491 478 593.73 479.27 593.182 480.621 592.845 482 592.73 483.375 592.825 484.726 593.143 486 593.67 487.908 594.456 489.938 594.906 492 595L492 589C490.625 588.905 489.274 588.587 488 588.06Z" stroke="#FFFFFF" fill="#18C8FB"/></g></svg>