<svg xmlns="http://www.w3.org/2000/svg" xmlns:xlink="http://www.w3.org/1999/xlink" width="96" height="96" overflow="hidden" xml:space="preserve"><defs><clipPath id="clip0"><rect width="96" height="96" x="404" y="0"/></clipPath></defs><g clip-path="url(#clip0)" transform="translate(-404 0)"><path fill="#026494" stroke="#FFF" d="M482 70.79C479.942 70.8697 477.913 71.2992 476 72.06 474.726 72.5872 473.375 72.9046 472 73 470.625 72.9046 469.274 72.5872 468 72.06 466.087 71.2992 464.058 70.8697 462 70.79 459.942 70.8697 457.913 71.2992 456 72.06 454.726 72.5872 453.375 72.9046 452 73 450.625 72.9046 449.274 72.5872 448 72.06 446.087 71.2992 444.058 70.8697 442 70.79 439.942 70.8697 437.913 71.2992 436 72.06 434.726 72.5872 433.375 72.9046 432 73 430.625 72.9046 429.274 72.5872 428 72.06 426.087 71.2992 424.058 70.8697 422 70.79 419.942 70.8697 417.913 71.2992 416 72.06 414.726 72.5872 413.375 72.9046 412 73L412 79C414.058 78.9203 416.087 78.4908 418 77.73 419.27 77.1824 420.621 76.8446 422 76.73 423.379 76.8446 424.73 77.1824 426 77.73 427.913 78.4908 429.942 78.9203 432 79 434.058 78.9203 436.087 78.4908 438 77.73 439.27 77.1824 440.621 76.8446 442 76.73 443.375 76.8254 444.726 77.1428 446 77.67 447.908 78.4559 449.938 78.9059 452 79 454.058 78.9203 456.087 78.4908 458 77.73 459.27 77.1824 460.621 76.8447 462 76.73 463.379 76.8447 464.73 77.1824 466 77.73 467.913 78.4908 469.942 78.9203 472 79 474.058 78.9203 476.087 78.4908 478 77.73 479.27 77.1824 480.621 76.8447 482 76.73 483.375 76.8254 484.726 77.1428 486 77.67 487.908 78.4559 489.938 78.9059 492 79L492 73C490.625 72.9046 489.274 72.5872 488 72.06 486.087 71.2992 484.058 70.8697 482 70.79Z"/><path fill="#026494" stroke="#FFF" d="M488 60.06C486.087 59.2992 484.058 58.8697 482 58.79 479.942 58.8697 477.913 59.2992 476 60.06 474.726 60.5872 473.375 60.9046 472 61 470.625 60.9046 469.274 60.5872 468 60.06 467.305 59.7884 466.594 59.5612 465.87 59.38 457.53 55.59 453.27 47.96 453.87 42.06 454.37 36.97 457.43 31.24 462.97 30.67 468.31 30.0735 473.2 33.7136 474.16 39 474.294 39.8977 475.095 40.542 476 40.48 476.48 40.4358 476.923 40.2019 477.23 39.83 477.527 39.4545 477.661 38.9751 477.6 38.5 475.81 25.15 463.91 16.18 450 17.61 442.45 18.39 435.36 23.11 428.92 31.61 428.06 32.74 427.22 33.88 426.38 35.02 421.91 41.02 417.65 46.82 412.04 50.74L412.04 67C414.098 66.9203 416.127 66.4908 418.04 65.73 419.31 65.1824 420.661 64.8446 422.04 64.73 423.419 64.8446 424.77 65.1824 426.04 65.73 427.941 66.4864 429.956 66.9158 432 67 434.058 66.9203 436.087 66.4908 438 65.73 439.27 65.1824 440.621 64.8446 442 64.73 443.375 64.8254 444.726 65.1428 446 65.67 447.908 66.4559 449.938 66.9059 452 67 454.058 66.9203 456.087 66.4908 458 65.73 459.27 65.1824 460.621 64.8447 462 64.73 463.379 64.8447 464.73 65.1824 466 65.73 467.913 66.4908 469.942 66.9203 472 67 474.058 66.9203 476.087 66.4908 478 65.73 479.27 65.1824 480.621 64.8447 482 64.73 483.375 64.8254 484.726 65.1428 486 65.67 487.908 66.4559 489.938 66.9059 492 67L492 61C490.625 60.9046 489.274 60.5872 488 60.06Z"/></g></svg>