<svg width="96" height="96" xmlns="http://www.w3.org/2000/svg" xmlns:xlink="http://www.w3.org/1999/xlink" xml:space="preserve" overflow="hidden"><defs><clipPath id="clip0"><rect x="505" y="528" width="96" height="96"/></clipPath></defs><g clip-path="url(#clip0)" transform="translate(-505 -528)"><path d="M583 598.79C580.942 598.87 578.913 599.299 577 600.06 575.726 600.587 574.375 600.905 573 601 571.625 600.905 570.274 600.587 569 600.06 567.087 599.299 565.058 598.87 563 598.79 560.942 598.87 558.913 599.299 557 600.06 555.726 600.587 554.375 600.905 553 601 551.625 600.905 550.274 600.587 549 600.06 547.087 599.299 545.058 598.87 543 598.79 540.942 598.87 538.913 599.299 537 600.06 535.726 600.587 534.375 600.905 533 601 531.625 600.905 530.274 600.587 529 600.06 527.087 599.299 525.058 598.87 523 598.79 520.942 598.87 518.913 599.299 517 600.06 515.726 600.587 514.375 600.905 513 601L513 607C515.058 606.92 517.087 606.491 519 605.73 520.27 605.182 521.621 604.845 523 604.73 524.379 604.845 525.73 605.182 527 605.73 528.913 606.491 530.942 606.92 533 607 535.058 606.92 537.087 606.491 539 605.73 540.27 605.182 541.621 604.845 543 604.73 544.375 604.825 545.726 605.143 547 605.67 548.908 606.456 550.938 606.906 553 607 555.058 606.92 557.087 606.491 559 605.73 560.27 605.182 561.621 604.845 563 604.73 564.379 604.845 565.73 605.182 567 605.73 568.913 606.491 570.942 606.92 573 607 575.058 606.92 577.087 606.491 579 605.73 580.27 605.182 581.621 604.845 583 604.73 584.375 604.825 585.726 605.143 587 605.67 588.908 606.456 590.938 606.906 593 607L593 601C591.625 600.905 590.274 600.587 589 600.06 587.087 599.299 585.058 598.87 583 598.79Z" stroke="#FFFFFF" fill="#31CEFC"/><path d="M589 588.06C587.087 587.299 585.058 586.87 583 586.79 580.942 586.87 578.913 587.299 577 588.06 575.726 588.587 574.375 588.905 573 589 571.625 588.905 570.274 588.587 569 588.06 568.305 587.788 567.594 587.561 566.87 587.38 558.53 583.59 554.27 575.96 554.87 570.06 555.37 564.97 558.43 559.24 563.97 558.67 569.31 558.073 574.2 561.714 575.16 567 575.294 567.898 576.095 568.542 577 568.48 577.48 568.436 577.923 568.202 578.23 567.83 578.527 567.454 578.661 566.975 578.6 566.5 576.81 553.15 564.91 544.18 551 545.61 543.45 546.39 536.36 551.11 529.92 559.61 529.06 560.74 528.22 561.88 527.38 563.02 522.91 569.02 518.65 574.82 513.04 578.74L513.04 595C515.098 594.92 517.127 594.491 519.04 593.73 520.31 593.182 521.661 592.845 523.04 592.73 524.419 592.845 525.77 593.182 527.04 593.73 528.941 594.486 530.956 594.916 533 595 535.058 594.92 537.087 594.491 539 593.73 540.27 593.182 541.621 592.845 543 592.73 544.375 592.825 545.726 593.143 547 593.67 548.908 594.456 550.938 594.906 553 595 555.058 594.92 557.087 594.491 559 593.73 560.27 593.182 561.621 592.845 563 592.73 564.379 592.845 565.73 593.182 567 593.73 568.913 594.491 570.942 594.92 573 595 575.058 594.92 577.087 594.491 579 593.73 580.27 593.182 581.621 592.845 583 592.73 584.375 592.825 585.726 593.143 587 593.67 588.908 594.456 590.938 594.906 593 595L593 589C591.625 588.905 590.274 588.587 589 588.06Z" stroke="#FFFFFF" fill="#31CEFC"/></g></svg>