<svg width="96" height="96" xmlns="http://www.w3.org/2000/svg" xmlns:xlink="http://www.w3.org/1999/xlink" xml:space="preserve" overflow="hidden"><defs><clipPath id="clip0"><rect x="101" y="0" width="96" height="96"/></clipPath></defs><g clip-path="url(#clip0)" transform="translate(-101 0)"><path d="M179 70.79C176.942 70.8697 174.913 71.2992 173 72.06 171.726 72.5872 170.375 72.9046 169 73 167.625 72.9046 166.274 72.5872 165 72.06 163.087 71.2992 161.058 70.8697 159 70.79 156.942 70.8697 154.913 71.2992 153 72.06 151.726 72.5872 150.375 72.9046 149 73 147.625 72.9046 146.274 72.5872 145 72.06 143.087 71.2992 141.058 70.8697 139 70.79 136.942 70.8697 134.913 71.2992 133 72.06 131.726 72.5872 130.375 72.9046 129 73 127.625 72.9046 126.274 72.5872 125 72.06 123.087 71.2992 121.058 70.8697 119 70.79 116.942 70.8697 114.913 71.2992 113 72.06 111.726 72.5872 110.375 72.9046 109 73L109 79C111.058 78.9203 113.087 78.4908 115 77.73 116.27 77.1824 117.621 76.8446 119 76.73 120.379 76.8446 121.73 77.1824 123 77.73 124.913 78.4908 126.942 78.9203 129 79 131.058 78.9203 133.087 78.4908 135 77.73 136.27 77.1824 137.621 76.8446 139 76.73 140.375 76.8254 141.726 77.1428 143 77.67 144.908 78.4559 146.938 78.9059 149 79 151.058 78.9203 153.087 78.4908 155 77.73 156.27 77.1824 157.621 76.8447 159 76.73 160.379 76.8447 161.73 77.1824 163 77.73 164.913 78.4908 166.942 78.9203 169 79 171.058 78.9203 173.087 78.4908 175 77.73 176.27 77.1824 177.621 76.8447 179 76.73 180.375 76.8254 181.726 77.1428 183 77.67 184.908 78.4559 186.938 78.9059 189 79L189 73C187.625 72.9046 186.274 72.5872 185 72.06 183.087 71.2992 181.058 70.8697 179 70.79Z" stroke="#FFFFFF" fill="#013E5D"/><path d="M185 60.06C183.087 59.2992 181.058 58.8697 179 58.79 176.942 58.8697 174.913 59.2992 173 60.06 171.726 60.5872 170.375 60.9046 169 61 167.625 60.9046 166.274 60.5872 165 60.06 164.305 59.7884 163.594 59.5612 162.87 59.38 154.53 55.59 150.27 47.96 150.87 42.06 151.37 36.97 154.43 31.24 159.97 30.67 165.31 30.0735 170.2 33.7136 171.16 39 171.294 39.8977 172.095 40.542 173 40.48 173.48 40.4358 173.923 40.2019 174.23 39.83 174.527 39.4545 174.661 38.9751 174.6 38.5 172.81 25.15 160.91 16.18 147 17.61 139.45 18.39 132.36 23.11 125.92 31.61 125.06 32.74 124.22 33.88 123.38 35.02 118.91 41.02 114.65 46.82 109.04 50.74L109.04 67C111.098 66.9203 113.127 66.4908 115.04 65.73 116.31 65.1824 117.661 64.8446 119.04 64.73 120.419 64.8446 121.77 65.1824 123.04 65.73 124.941 66.4864 126.956 66.9158 129 67 131.058 66.9203 133.087 66.4908 135 65.73 136.27 65.1824 137.621 64.8446 139 64.73 140.375 64.8254 141.726 65.1428 143 65.67 144.908 66.4559 146.938 66.9059 149 67 151.058 66.9203 153.087 66.4908 155 65.73 156.27 65.1824 157.621 64.8447 159 64.73 160.379 64.8447 161.73 65.1824 163 65.73 164.913 66.4908 166.942 66.9203 169 67 171.058 66.9203 173.087 66.4908 175 65.73 176.27 65.1824 177.621 64.8447 179 64.73 180.375 64.8254 181.726 65.1428 183 65.67 184.908 66.4559 186.938 66.9059 189 67L189 61C187.625 60.9046 186.274 60.5872 185 60.06Z" stroke="#FFFFFF" fill="#013E5D"/></g></svg>