<svg width="96" height="96" xmlns="http://www.w3.org/2000/svg" xmlns:xlink="http://www.w3.org/1999/xlink" xml:space="preserve" overflow="hidden"><defs><clipPath id="clip0"><rect x="0" y="88" width="96" height="96"/></clipPath></defs><g clip-path="url(#clip0)" transform="matrix(1 0 0 1 0 -88)"><path d="M78 158.79C75.9424 158.87 73.9134 159.299 72 160.06 70.7262 160.587 69.3753 160.905 68 161 66.6247 160.905 65.2738 160.587 64 160.06 62.0866 159.299 60.0576 158.87 58 158.79 55.9424 158.87 53.9134 159.299 52 160.06 50.7262 160.587 49.3753 160.905 48 161 46.6247 160.905 45.2738 160.587 44 160.06 42.0866 159.299 40.0576 158.87 38 158.79 35.9424 158.87 33.9134 159.299 32 160.06 30.7261 160.587 29.3753 160.905 28 161 26.6247 160.905 25.2739 160.587 24 160.06 22.0866 159.299 20.0576 158.87 18 158.79 15.9424 158.87 13.9134 159.299 12 160.06 10.7261 160.587 9.37533 160.905 8 161L8 167C10.0576 166.92 12.0866 166.491 14 165.73 15.2704 165.182 16.6213 164.845 18 164.73 19.3787 164.845 20.7296 165.182 22 165.73 23.9134 166.491 25.9424 166.92 28 167 30.0576 166.92 32.0866 166.491 34 165.73 35.2704 165.182 36.6213 164.845 38 164.73 39.3753 164.825 40.7262 165.143 42 165.67 43.9084 166.456 45.9383 166.906 48 167 50.0576 166.92 52.0866 166.491 54 165.73 55.2704 165.182 56.6213 164.845 58 164.73 59.3787 164.845 60.7296 165.182 62 165.73 63.9134 166.491 65.9424 166.92 68 167 70.0576 166.92 72.0866 166.491 74 165.73 75.2704 165.182 76.6213 164.845 78 164.73 79.3753 164.825 80.7262 165.143 82 165.67 83.9084 166.456 85.9383 166.906 88 167L88 161C86.6247 160.905 85.2738 160.587 84 160.06 82.0866 159.299 80.0576 158.87 78 158.79Z" stroke="#FFFFFF" fill="#67B1D5"/><path d="M84 148.06C82.0866 147.299 80.0576 146.87 78 146.79 75.9424 146.87 73.9134 147.299 72 148.06 70.7262 148.587 69.3753 148.905 68 149 66.6247 148.905 65.2738 148.587 64 148.06 63.3051 147.788 62.5937 147.561 61.87 147.38 53.53 143.59 49.27 135.96 49.87 130.06 50.37 124.97 53.43 119.24 58.97 118.67 64.3098 118.074 69.1996 121.714 70.16 127 70.2935 127.898 71.0946 128.542 72 128.48 72.4802 128.436 72.923 128.202 73.23 127.83 73.5272 127.454 73.6606 126.975 73.6 126.5 71.81 113.15 59.91 104.18 46 105.61 38.45 106.39 31.36 111.11 24.92 119.61 24.06 120.74 23.22 121.88 22.38 123.02 17.91 129.02 13.65 134.82 8.04 138.74L8.04 155C10.0976 154.92 12.1266 154.491 14.04 153.73 15.3104 153.182 16.6613 152.845 18.04 152.73 19.4187 152.845 20.7696 153.182 22.04 153.73 23.9408 154.486 25.9559 154.916 28 155 30.0576 154.92 32.0866 154.491 34 153.73 35.2704 153.182 36.6213 152.845 38 152.73 39.3753 152.825 40.7262 153.143 42 153.67 43.9084 154.456 45.9383 154.906 48 155 50.0576 154.92 52.0866 154.491 54 153.73 55.2704 153.182 56.6213 152.845 58 152.73 59.3787 152.845 60.7296 153.182 62 153.73 63.9134 154.491 65.9424 154.92 68 155 70.0576 154.92 72.0866 154.491 74 153.73 75.2704 153.182 76.6213 152.845 78 152.73 79.3753 152.825 80.7262 153.143 82 153.67 83.9084 154.456 85.9383 154.906 88 155L88 149C86.6247 148.905 85.2738 148.587 84 148.06Z" stroke="#FFFFFF" fill="#67B1D5"/></g></svg>