<svg width="96" height="96" xmlns="http://www.w3.org/2000/svg" xmlns:xlink="http://www.w3.org/1999/xlink" xml:space="preserve" overflow="hidden"><defs><clipPath id="clip0"><rect x="202" y="352" width="96" height="96"/></clipPath></defs><g clip-path="url(#clip0)" transform="translate(-202 -352)"><path d="M280 422.79C277.942 422.87 275.913 423.299 274 424.06 272.726 424.587 271.375 424.905 270 425 268.625 424.905 267.274 424.587 266 424.06 264.087 423.299 262.058 422.87 260 422.79 257.942 422.87 255.913 423.299 254 424.06 252.726 424.587 251.375 424.905 250 425 248.625 424.905 247.274 424.587 246 424.06 244.087 423.299 242.058 422.87 240 422.79 237.942 422.87 235.913 423.299 234 424.06 232.726 424.587 231.375 424.905 230 425 228.625 424.905 227.274 424.587 226 424.06 224.087 423.299 222.058 422.87 220 422.79 217.942 422.87 215.913 423.299 214 424.06 212.726 424.587 211.375 424.905 210 425L210 431C212.058 430.92 214.087 430.491 216 429.73 217.27 429.182 218.621 428.845 220 428.73 221.379 428.845 222.73 429.182 224 429.73 225.913 430.491 227.942 430.92 230 431 232.058 430.92 234.087 430.491 236 429.73 237.27 429.182 238.621 428.845 240 428.73 241.375 428.825 242.726 429.143 244 429.67 245.908 430.456 247.938 430.906 250 431 252.058 430.92 254.087 430.491 256 429.73 257.27 429.182 258.621 428.845 260 428.73 261.379 428.845 262.73 429.182 264 429.73 265.913 430.491 267.942 430.92 270 431 272.058 430.92 274.087 430.491 276 429.73 277.27 429.182 278.621 428.845 280 428.73 281.375 428.825 282.726 429.143 284 429.67 285.908 430.456 287.938 430.906 290 431L290 425C288.625 424.905 287.274 424.587 286 424.06 284.087 423.299 282.058 422.87 280 422.79Z" stroke="#FFFFFF" fill="#021A93"/><path d="M286 412.06C284.087 411.299 282.058 410.87 280 410.79 277.942 410.87 275.913 411.299 274 412.06 272.726 412.587 271.375 412.905 270 413 268.625 412.905 267.274 412.587 266 412.06 265.305 411.788 264.594 411.561 263.87 411.38 255.53 407.59 251.27 399.96 251.87 394.06 252.37 388.97 255.43 383.24 260.97 382.67 266.31 382.073 271.2 385.714 272.16 391 272.294 391.898 273.095 392.542 274 392.48 274.48 392.436 274.923 392.202 275.23 391.83 275.527 391.454 275.661 390.975 275.6 390.5 273.81 377.15 261.91 368.18 248 369.61 240.45 370.39 233.36 375.11 226.92 383.61 226.06 384.74 225.22 385.88 224.38 387.02 219.91 393.02 215.65 398.82 210.04 402.74L210.04 419C212.098 418.92 214.127 418.491 216.04 417.73 217.31 417.182 218.661 416.845 220.04 416.73 221.419 416.845 222.77 417.182 224.04 417.73 225.941 418.486 227.956 418.916 230 419 232.058 418.92 234.087 418.491 236 417.73 237.27 417.182 238.621 416.845 240 416.73 241.375 416.825 242.726 417.143 244 417.67 245.908 418.456 247.938 418.906 250 419 252.058 418.92 254.087 418.491 256 417.73 257.27 417.182 258.621 416.845 260 416.73 261.379 416.845 262.73 417.182 264 417.73 265.913 418.491 267.942 418.92 270 419 272.058 418.92 274.087 418.491 276 417.73 277.27 417.182 278.621 416.845 280 416.73 281.375 416.825 282.726 417.143 284 417.67 285.908 418.456 287.938 418.906 290 419L290 413C288.625 412.905 287.274 412.587 286 412.06Z" stroke="#FFFFFF" fill="#021A93"/></g></svg>