<svg width="96" height="96" xmlns="http://www.w3.org/2000/svg" xmlns:xlink="http://www.w3.org/1999/xlink" xml:space="preserve" overflow="hidden"><defs><clipPath id="clip0"><rect x="202" y="528" width="96" height="96"/></clipPath></defs><g clip-path="url(#clip0)" transform="translate(-202 -528)"><path d="M280 598.79C277.942 598.87 275.913 599.299 274 600.06 272.726 600.587 271.375 600.905 270 601 268.625 600.905 267.274 600.587 266 600.06 264.087 599.299 262.058 598.87 260 598.79 257.942 598.87 255.913 599.299 254 600.06 252.726 600.587 251.375 600.905 250 601 248.625 600.905 247.274 600.587 246 600.06 244.087 599.299 242.058 598.87 240 598.79 237.942 598.87 235.913 599.299 234 600.06 232.726 600.587 231.375 600.905 230 601 228.625 600.905 227.274 600.587 226 600.06 224.087 599.299 222.058 598.87 220 598.79 217.942 598.87 215.913 599.299 214 600.06 212.726 600.587 211.375 600.905 210 601L210 607C212.058 606.92 214.087 606.491 216 605.73 217.27 605.182 218.621 604.845 220 604.73 221.379 604.845 222.73 605.182 224 605.73 225.913 606.491 227.942 606.92 230 607 232.058 606.92 234.087 606.491 236 605.73 237.27 605.182 238.621 604.845 240 604.73 241.375 604.825 242.726 605.143 244 605.67 245.908 606.456 247.938 606.906 250 607 252.058 606.92 254.087 606.491 256 605.73 257.27 605.182 258.621 604.845 260 604.73 261.379 604.845 262.73 605.182 264 605.73 265.913 606.491 267.942 606.92 270 607 272.058 606.92 274.087 606.491 276 605.73 277.27 605.182 278.621 604.845 280 604.73 281.375 604.825 282.726 605.143 284 605.67 285.908 606.456 287.938 606.906 290 607L290 601C288.625 600.905 287.274 600.587 286 600.06 284.087 599.299 282.058 598.87 280 598.79Z" stroke="#FFFFFF" fill="#04ACDD"/><path d="M286 588.06C284.087 587.299 282.058 586.87 280 586.79 277.942 586.87 275.913 587.299 274 588.06 272.726 588.587 271.375 588.905 270 589 268.625 588.905 267.274 588.587 266 588.06 265.305 587.788 264.594 587.561 263.87 587.38 255.53 583.59 251.27 575.96 251.87 570.06 252.37 564.97 255.43 559.24 260.97 558.67 266.31 558.073 271.2 561.714 272.16 567 272.294 567.898 273.095 568.542 274 568.48 274.48 568.436 274.923 568.202 275.23 567.83 275.527 567.454 275.661 566.975 275.6 566.5 273.81 553.15 261.91 544.18 248 545.61 240.45 546.39 233.36 551.11 226.92 559.61 226.06 560.74 225.22 561.88 224.38 563.02 219.91 569.02 215.65 574.82 210.04 578.74L210.04 595C212.098 594.92 214.127 594.491 216.04 593.73 217.31 593.182 218.661 592.845 220.04 592.73 221.419 592.845 222.77 593.182 224.04 593.73 225.941 594.486 227.956 594.916 230 595 232.058 594.92 234.087 594.491 236 593.73 237.27 593.182 238.621 592.845 240 592.73 241.375 592.825 242.726 593.143 244 593.67 245.908 594.456 247.938 594.906 250 595 252.058 594.92 254.087 594.491 256 593.73 257.27 593.182 258.621 592.845 260 592.73 261.379 592.845 262.73 593.182 264 593.73 265.913 594.491 267.942 594.92 270 595 272.058 594.92 274.087 594.491 276 593.73 277.27 593.182 278.621 592.845 280 592.73 281.375 592.825 282.726 593.143 284 593.67 285.908 594.456 287.938 594.906 290 595L290 589C288.625 588.905 287.274 588.587 286 588.06Z" stroke="#FFFFFF" fill="#04ACDD"/></g></svg>