<svg width="96" height="96" xmlns="http://www.w3.org/2000/svg" xmlns:xlink="http://www.w3.org/1999/xlink" xml:space="preserve" overflow="hidden"><defs><clipPath id="clip0"><rect x="101" y="352" width="96" height="96"/></clipPath></defs><g clip-path="url(#clip0)" transform="translate(-101 -352)"><path d="M179 422.79C176.942 422.87 174.913 423.299 173 424.06 171.726 424.587 170.375 424.905 169 425 167.625 424.905 166.274 424.587 165 424.06 163.087 423.299 161.058 422.87 159 422.79 156.942 422.87 154.913 423.299 153 424.06 151.726 424.587 150.375 424.905 149 425 147.625 424.905 146.274 424.587 145 424.06 143.087 423.299 141.058 422.87 139 422.79 136.942 422.87 134.913 423.299 133 424.06 131.726 424.587 130.375 424.905 129 425 127.625 424.905 126.274 424.587 125 424.06 123.087 423.299 121.058 422.87 119 422.79 116.942 422.87 114.913 423.299 113 424.06 111.726 424.587 110.375 424.905 109 425L109 431C111.058 430.92 113.087 430.491 115 429.73 116.27 429.182 117.621 428.845 119 428.73 120.379 428.845 121.73 429.182 123 429.73 124.913 430.491 126.942 430.92 129 431 131.058 430.92 133.087 430.491 135 429.73 136.27 429.182 137.621 428.845 139 428.73 140.375 428.825 141.726 429.143 143 429.67 144.908 430.456 146.938 430.906 149 431 151.058 430.92 153.087 430.491 155 429.73 156.27 429.182 157.621 428.845 159 428.73 160.379 428.845 161.73 429.182 163 429.73 164.913 430.491 166.942 430.92 169 431 171.058 430.92 173.087 430.491 175 429.73 176.27 429.182 177.621 428.845 179 428.73 180.375 428.825 181.726 429.143 183 429.67 184.908 430.456 186.938 430.906 189 431L189 425C187.625 424.905 186.274 424.587 185 424.06 183.087 423.299 181.058 422.87 179 422.79Z" stroke="#FFFFFF" fill="#01167E"/><path d="M185 412.06C183.087 411.299 181.058 410.87 179 410.79 176.942 410.87 174.913 411.299 173 412.06 171.726 412.587 170.375 412.905 169 413 167.625 412.905 166.274 412.587 165 412.06 164.305 411.788 163.594 411.561 162.87 411.38 154.53 407.59 150.27 399.96 150.87 394.06 151.37 388.97 154.43 383.24 159.97 382.67 165.31 382.073 170.2 385.714 171.16 391 171.294 391.898 172.095 392.542 173 392.48 173.48 392.436 173.923 392.202 174.23 391.83 174.527 391.454 174.661 390.975 174.6 390.5 172.81 377.15 160.91 368.18 147 369.61 139.45 370.39 132.36 375.11 125.92 383.61 125.06 384.74 124.22 385.88 123.38 387.02 118.91 393.02 114.65 398.82 109.04 402.74L109.04 419C111.098 418.92 113.127 418.491 115.04 417.73 116.31 417.182 117.661 416.845 119.04 416.73 120.419 416.845 121.77 417.182 123.04 417.73 124.941 418.486 126.956 418.916 129 419 131.058 418.92 133.087 418.491 135 417.73 136.27 417.182 137.621 416.845 139 416.73 140.375 416.825 141.726 417.143 143 417.67 144.908 418.456 146.938 418.906 149 419 151.058 418.92 153.087 418.491 155 417.73 156.27 417.182 157.621 416.845 159 416.73 160.379 416.845 161.73 417.182 163 417.73 164.913 418.491 166.942 418.92 169 419 171.058 418.92 173.087 418.491 175 417.73 176.27 417.182 177.621 416.845 179 416.73 180.375 416.825 181.726 417.143 183 417.67 184.908 418.456 186.938 418.906 189 419L189 413C187.625 412.905 186.274 412.587 185 412.06Z" stroke="#FFFFFF" fill="#01167E"/></g></svg>