<svg width="96" height="96" xmlns="http://www.w3.org/2000/svg" xmlns:xlink="http://www.w3.org/1999/xlink" xml:space="preserve" overflow="hidden"><defs><clipPath id="clip0"><rect x="803" y="168" width="96" height="96"/></clipPath></defs><g clip-path="url(#clip0)" transform="translate(-803 -168)"><path d="M881 238.79C878.942 238.87 876.913 239.299 875 240.06 873.726 240.587 872.375 240.905 871 241 869.625 240.905 868.274 240.587 867 240.06 865.087 239.299 863.058 238.87 861 238.79 858.942 238.87 856.913 239.299 855 240.06 853.726 240.587 852.375 240.905 851 241 849.625 240.905 848.274 240.587 847 240.06 845.087 239.299 843.058 238.87 841 238.79 838.942 238.87 836.913 239.299 835 240.06 833.726 240.587 832.375 240.905 831 241 829.625 240.905 828.274 240.587 827 240.06 825.087 239.299 823.058 238.87 821 238.79 818.942 238.87 816.913 239.299 815 240.06 813.726 240.587 812.375 240.905 811 241L811 247C813.058 246.92 815.087 246.491 817 245.73 818.27 245.182 819.621 244.845 821 244.73 822.379 244.845 823.73 245.182 825 245.73 826.913 246.491 828.942 246.92 831 247 833.058 246.92 835.087 246.491 837 245.73 838.27 245.182 839.621 244.845 841 244.73 842.375 244.825 843.726 245.143 845 245.67 846.908 246.456 848.938 246.906 851 247 853.058 246.92 855.087 246.491 857 245.73 858.27 245.182 859.621 244.845 861 244.73 862.379 244.845 863.73 245.182 865 245.73 866.913 246.491 868.942 246.92 871 247 873.058 246.92 875.087 246.491 877 245.73 878.27 245.182 879.621 244.845 881 244.73 882.375 244.825 883.726 245.143 885 245.67 886.908 246.456 888.938 246.906 891 247L891 241C889.625 240.905 888.274 240.587 887 240.06 885.087 239.299 883.058 238.87 881 238.79Z" stroke="#FFFFFF" fill="#56C4FC"/><path d="M887 228.06C885.087 227.299 883.058 226.87 881 226.79 878.942 226.87 876.913 227.299 875 228.06 873.726 228.587 872.375 228.905 871 229 869.625 228.905 868.274 228.587 867 228.06 866.305 227.788 865.594 227.561 864.87 227.38 856.53 223.59 852.27 215.96 852.87 210.06 853.37 204.97 856.43 199.24 861.97 198.67 867.31 198.074 872.2 201.714 873.16 207 873.294 207.898 874.095 208.542 875 208.48 875.48 208.436 875.923 208.202 876.23 207.83 876.527 207.454 876.661 206.975 876.6 206.5 874.81 193.15 862.91 184.18 849 185.61 841.45 186.39 834.36 191.11 827.92 199.61 827.06 200.74 826.22 201.88 825.38 203.02 820.91 209.02 816.65 214.82 811.04 218.74L811.04 235C813.098 234.92 815.127 234.491 817.04 233.73 818.31 233.182 819.661 232.845 821.04 232.73 822.419 232.845 823.77 233.182 825.04 233.73 826.941 234.486 828.956 234.916 831 235 833.058 234.92 835.087 234.491 837 233.73 838.27 233.182 839.621 232.845 841 232.73 842.375 232.825 843.726 233.143 845 233.67 846.908 234.456 848.938 234.906 851 235 853.058 234.92 855.087 234.491 857 233.73 858.27 233.182 859.621 232.845 861 232.73 862.379 232.845 863.73 233.182 865 233.73 866.913 234.491 868.942 234.92 871 235 873.058 234.92 875.087 234.491 877 233.73 878.27 233.182 879.621 232.845 881 232.73 882.375 232.825 883.726 233.143 885 233.67 886.908 234.456 888.938 234.906 891 235L891 229C889.625 228.905 888.274 228.587 887 228.06Z" stroke="#FFFFFF" fill="#56C4FC"/></g></svg>