<svg width="96" height="96" xmlns="http://www.w3.org/2000/svg" xmlns:xlink="http://www.w3.org/1999/xlink" xml:space="preserve" overflow="hidden"><defs><clipPath id="clip0"><rect x="904" y="352" width="96" height="96"/></clipPath></defs><g clip-path="url(#clip0)" transform="translate(-904 -352)"><path d="M982 422.79C979.942 422.87 977.913 423.299 976 424.06 974.726 424.587 973.375 424.905 972 425 970.625 424.905 969.274 424.587 968 424.06 966.087 423.299 964.058 422.87 962 422.79 959.942 422.87 957.913 423.299 956 424.06 954.726 424.587 953.375 424.905 952 425 950.625 424.905 949.274 424.587 948 424.06 946.087 423.299 944.058 422.87 942 422.79 939.942 422.87 937.913 423.299 936 424.06 934.726 424.587 933.375 424.905 932 425 930.625 424.905 929.274 424.587 928 424.06 926.087 423.299 924.058 422.87 922 422.79 919.942 422.87 917.913 423.299 916 424.06 914.726 424.587 913.375 424.905 912 425L912 431C914.058 430.92 916.087 430.491 918 429.73 919.27 429.182 920.621 428.845 922 428.73 923.379 428.845 924.73 429.182 926 429.73 927.913 430.491 929.942 430.92 932 431 934.058 430.92 936.087 430.491 938 429.73 939.27 429.182 940.621 428.845 942 428.73 943.375 428.825 944.726 429.143 946 429.67 947.908 430.456 949.938 430.906 952 431 954.058 430.92 956.087 430.491 958 429.73 959.27 429.182 960.621 428.845 962 428.73 963.379 428.845 964.73 429.182 966 429.73 967.913 430.491 969.942 430.92 972 431 974.058 430.92 976.087 430.491 978 429.73 979.27 429.182 980.621 428.845 982 428.73 983.375 428.825 984.726 429.143 986 429.67 987.908 430.456 989.938 430.906 992 431L992 425C990.625 424.905 989.274 424.587 988 424.06 986.087 423.299 984.058 422.87 982 422.79Z" stroke="#FFFFFF" fill="#B3BDF1"/><path d="M988 412.06C986.087 411.299 984.058 410.87 982 410.79 979.942 410.87 977.913 411.299 976 412.06 974.726 412.587 973.375 412.905 972 413 970.625 412.905 969.274 412.587 968 412.06 967.305 411.788 966.594 411.561 965.87 411.38 957.53 407.59 953.27 399.96 953.87 394.06 954.37 388.97 957.43 383.24 962.97 382.67 968.31 382.073 973.2 385.714 974.16 391 974.294 391.898 975.095 392.542 976 392.48 976.48 392.436 976.923 392.202 977.23 391.83 977.527 391.454 977.661 390.975 977.6 390.5 975.81 377.15 963.91 368.18 950 369.61 942.45 370.39 935.36 375.11 928.92 383.61 928.06 384.74 927.22 385.88 926.38 387.02 921.91 393.02 917.65 398.82 912.04 402.74L912.04 419C914.098 418.92 916.127 418.491 918.04 417.73 919.31 417.182 920.661 416.845 922.04 416.73 923.419 416.845 924.77 417.182 926.04 417.73 927.941 418.486 929.956 418.916 932 419 934.058 418.92 936.087 418.491 938 417.73 939.27 417.182 940.621 416.845 942 416.73 943.375 416.825 944.726 417.143 946 417.67 947.908 418.456 949.938 418.906 952 419 954.058 418.92 956.087 418.491 958 417.73 959.27 417.182 960.621 416.845 962 416.73 963.379 416.845 964.73 417.182 966 417.73 967.913 418.491 969.942 418.92 972 419 974.058 418.92 976.087 418.491 978 417.73 979.27 417.182 980.621 416.845 982 416.73 983.375 416.825 984.726 417.143 986 417.67 987.908 418.456 989.938 418.906 992 419L992 413C990.625 412.905 989.274 412.587 988 412.06Z" stroke="#FFFFFF" fill="#B3BDF1"/></g></svg>