<svg width="96" height="96" xmlns="http://www.w3.org/2000/svg" xmlns:xlink="http://www.w3.org/1999/xlink" xml:space="preserve" overflow="hidden"><defs><clipPath id="clip0"><rect x="505" y="168" width="96" height="96"/></clipPath></defs><g clip-path="url(#clip0)" transform="translate(-505 -168)"><path d="M583 238.79C580.942 238.87 578.913 239.299 577 240.06 575.726 240.587 574.375 240.905 573 241 571.625 240.905 570.274 240.587 569 240.06 567.087 239.299 565.058 238.87 563 238.79 560.942 238.87 558.913 239.299 557 240.06 555.726 240.587 554.375 240.905 553 241 551.625 240.905 550.274 240.587 549 240.06 547.087 239.299 545.058 238.87 543 238.79 540.942 238.87 538.913 239.299 537 240.06 535.726 240.587 534.375 240.905 533 241 531.625 240.905 530.274 240.587 529 240.06 527.087 239.299 525.058 238.87 523 238.79 520.942 238.87 518.913 239.299 517 240.06 515.726 240.587 514.375 240.905 513 241L513 247C515.058 246.92 517.087 246.491 519 245.73 520.27 245.182 521.621 244.845 523 244.73 524.379 244.845 525.73 245.182 527 245.73 528.913 246.491 530.942 246.92 533 247 535.058 246.92 537.087 246.491 539 245.73 540.27 245.182 541.621 244.845 543 244.73 544.375 244.825 545.726 245.143 547 245.67 548.908 246.456 550.938 246.906 553 247 555.058 246.92 557.087 246.491 559 245.73 560.27 245.182 561.621 244.845 563 244.73 564.379 244.845 565.73 245.182 567 245.73 568.913 246.491 570.942 246.92 573 247 575.058 246.92 577.087 246.491 579 245.73 580.27 245.182 581.621 244.845 583 244.73 584.375 244.825 585.726 245.143 587 245.67 588.908 246.456 590.938 246.906 593 247L593 241C591.625 240.905 590.274 240.587 589 240.06 587.087 239.299 585.058 238.87 583 238.79Z" stroke="#FFFFFF" fill="#0EACFB"/><path d="M589 228.06C587.087 227.299 585.058 226.87 583 226.79 580.942 226.87 578.913 227.299 577 228.06 575.726 228.587 574.375 228.905 573 229 571.625 228.905 570.274 228.587 569 228.06 568.305 227.788 567.594 227.561 566.87 227.38 558.53 223.59 554.27 215.96 554.87 210.06 555.37 204.97 558.43 199.24 563.97 198.67 569.31 198.074 574.2 201.714 575.16 207 575.294 207.898 576.095 208.542 577 208.48 577.48 208.436 577.923 208.202 578.23 207.83 578.527 207.454 578.661 206.975 578.6 206.5 576.81 193.15 564.91 184.18 551 185.61 543.45 186.39 536.36 191.11 529.92 199.61 529.06 200.74 528.22 201.88 527.38 203.02 522.91 209.02 518.65 214.82 513.04 218.74L513.04 235C515.098 234.92 517.127 234.491 519.04 233.73 520.31 233.182 521.661 232.845 523.04 232.73 524.419 232.845 525.77 233.182 527.04 233.73 528.941 234.486 530.956 234.916 533 235 535.058 234.92 537.087 234.491 539 233.73 540.27 233.182 541.621 232.845 543 232.73 544.375 232.825 545.726 233.143 547 233.67 548.908 234.456 550.938 234.906 553 235 555.058 234.92 557.087 234.491 559 233.73 560.27 233.182 561.621 232.845 563 232.73 564.379 232.845 565.73 233.182 567 233.73 568.913 234.491 570.942 234.92 573 235 575.058 234.92 577.087 234.491 579 233.73 580.27 233.182 581.621 232.845 583 232.73 584.375 232.825 585.726 233.143 587 233.67 588.908 234.456 590.938 234.906 593 235L593 229C591.625 228.905 590.274 228.587 589 228.06Z" stroke="#FFFFFF" fill="#0EACFB"/></g></svg>