<svg width="96" height="96" xmlns="http://www.w3.org/2000/svg" xmlns:xlink="http://www.w3.org/1999/xlink" xml:space="preserve" overflow="hidden"><defs><clipPath id="clip0"><rect x="404" y="440" width="96" height="96"/></clipPath></defs><g clip-path="url(#clip0)" transform="translate(-404 -440)"><path d="M482 510.79C479.942 510.87 477.913 511.299 476 512.06 474.726 512.587 473.375 512.905 472 513 470.625 512.905 469.274 512.587 468 512.06 466.087 511.299 464.058 510.87 462 510.79 459.942 510.87 457.913 511.299 456 512.06 454.726 512.587 453.375 512.905 452 513 450.625 512.905 449.274 512.587 448 512.06 446.087 511.299 444.058 510.87 442 510.79 439.942 510.87 437.913 511.299 436 512.06 434.726 512.587 433.375 512.905 432 513 430.625 512.905 429.274 512.587 428 512.06 426.087 511.299 424.058 510.87 422 510.79 419.942 510.87 417.913 511.299 416 512.06 414.726 512.587 413.375 512.905 412 513L412 519C414.058 518.92 416.087 518.491 418 517.73 419.27 517.182 420.621 516.845 422 516.73 423.379 516.845 424.73 517.182 426 517.73 427.913 518.491 429.942 518.92 432 519 434.058 518.92 436.087 518.491 438 517.73 439.27 517.182 440.621 516.845 442 516.73 443.375 516.825 444.726 517.143 446 517.67 447.908 518.456 449.938 518.906 452 519 454.058 518.92 456.087 518.491 458 517.73 459.27 517.182 460.621 516.845 462 516.73 463.379 516.845 464.73 517.182 466 517.73 467.913 518.491 469.942 518.92 472 519 474.058 518.92 476.087 518.491 478 517.73 479.27 517.182 480.621 516.845 482 516.73 483.375 516.825 484.726 517.143 486 517.67 487.908 518.456 489.938 518.906 492 519L492 513C490.625 512.905 489.274 512.587 488 512.06 486.087 511.299 484.058 510.87 482 510.79Z" stroke="#FFFFFF" fill="#029093"/><path d="M488 500.06C486.087 499.299 484.058 498.87 482 498.79 479.942 498.87 477.913 499.299 476 500.06 474.726 500.587 473.375 500.905 472 501 470.625 500.905 469.274 500.587 468 500.06 467.305 499.788 466.594 499.561 465.87 499.38 457.53 495.59 453.27 487.96 453.87 482.06 454.37 476.97 457.43 471.24 462.97 470.67 468.31 470.073 473.2 473.714 474.16 479 474.294 479.898 475.095 480.542 476 480.48 476.48 480.436 476.923 480.202 477.23 479.83 477.527 479.454 477.661 478.975 477.6 478.5 475.81 465.15 463.91 456.18 450 457.61 442.45 458.39 435.36 463.11 428.92 471.61 428.06 472.74 427.22 473.88 426.38 475.02 421.91 481.02 417.65 486.82 412.04 490.74L412.04 507C414.098 506.92 416.127 506.491 418.04 505.73 419.31 505.182 420.661 504.845 422.04 504.73 423.419 504.845 424.77 505.182 426.04 505.73 427.941 506.486 429.956 506.916 432 507 434.058 506.92 436.087 506.491 438 505.73 439.27 505.182 440.621 504.845 442 504.73 443.375 504.825 444.726 505.143 446 505.67 447.908 506.456 449.938 506.906 452 507 454.058 506.92 456.087 506.491 458 505.73 459.27 505.182 460.621 504.845 462 504.73 463.379 504.845 464.73 505.182 466 505.73 467.913 506.491 469.942 506.92 472 507 474.058 506.92 476.087 506.491 478 505.73 479.27 505.182 480.621 504.845 482 504.73 483.375 504.825 484.726 505.143 486 505.67 487.908 506.456 489.938 506.906 492 507L492 501C490.625 500.905 489.274 500.587 488 500.06Z" stroke="#FFFFFF" fill="#029093"/></g></svg>