<svg width="96" height="96" xmlns="http://www.w3.org/2000/svg" xmlns:xlink="http://www.w3.org/1999/xlink" xml:space="preserve" overflow="hidden"><defs><clipPath id="clip0"><rect x="101" y="88" width="96" height="96"/></clipPath></defs><g clip-path="url(#clip0)" transform="translate(-101 -88)"><path d="M179 158.79C176.942 158.87 174.913 159.299 173 160.06 171.726 160.587 170.375 160.905 169 161 167.625 160.905 166.274 160.587 165 160.06 163.087 159.299 161.058 158.87 159 158.79 156.942 158.87 154.913 159.299 153 160.06 151.726 160.587 150.375 160.905 149 161 147.625 160.905 146.274 160.587 145 160.06 143.087 159.299 141.058 158.87 139 158.79 136.942 158.87 134.913 159.299 133 160.06 131.726 160.587 130.375 160.905 129 161 127.625 160.905 126.274 160.587 125 160.06 123.087 159.299 121.058 158.87 119 158.79 116.942 158.87 114.913 159.299 113 160.06 111.726 160.587 110.375 160.905 109 161L109 167C111.058 166.92 113.087 166.491 115 165.73 116.27 165.182 117.621 164.845 119 164.73 120.379 164.845 121.73 165.182 123 165.73 124.913 166.491 126.942 166.92 129 167 131.058 166.92 133.087 166.491 135 165.73 136.27 165.182 137.621 164.845 139 164.73 140.375 164.825 141.726 165.143 143 165.67 144.908 166.456 146.938 166.906 149 167 151.058 166.92 153.087 166.491 155 165.73 156.27 165.182 157.621 164.845 159 164.73 160.379 164.845 161.73 165.182 163 165.73 164.913 166.491 166.942 166.92 169 167 171.058 166.92 173.087 166.491 175 165.73 176.27 165.182 177.621 164.845 179 164.73 180.375 164.825 181.726 165.143 183 165.67 184.908 166.456 186.938 166.906 189 167L189 161C187.625 160.905 186.274 160.587 185 160.06 183.087 159.299 181.058 158.87 179 158.79Z" stroke="#FFFFFF" fill="#81BEDC"/><path d="M185 148.06C183.087 147.299 181.058 146.87 179 146.79 176.942 146.87 174.913 147.299 173 148.06 171.726 148.587 170.375 148.905 169 149 167.625 148.905 166.274 148.587 165 148.06 164.305 147.788 163.594 147.561 162.87 147.38 154.53 143.59 150.27 135.96 150.87 130.06 151.37 124.97 154.43 119.24 159.97 118.67 165.31 118.074 170.2 121.714 171.16 127 171.294 127.898 172.095 128.542 173 128.48 173.48 128.436 173.923 128.202 174.23 127.83 174.527 127.454 174.661 126.975 174.6 126.5 172.81 113.15 160.91 104.18 147 105.61 139.45 106.39 132.36 111.11 125.92 119.61 125.06 120.74 124.22 121.88 123.38 123.02 118.91 129.02 114.65 134.82 109.04 138.74L109.04 155C111.098 154.92 113.127 154.491 115.04 153.73 116.31 153.182 117.661 152.845 119.04 152.73 120.419 152.845 121.77 153.182 123.04 153.73 124.941 154.486 126.956 154.916 129 155 131.058 154.92 133.087 154.491 135 153.73 136.27 153.182 137.621 152.845 139 152.73 140.375 152.825 141.726 153.143 143 153.67 144.908 154.456 146.938 154.906 149 155 151.058 154.92 153.087 154.491 155 153.73 156.27 153.182 157.621 152.845 159 152.73 160.379 152.845 161.73 153.182 163 153.73 164.913 154.491 166.942 154.92 169 155 171.058 154.92 173.087 154.491 175 153.73 176.27 153.182 177.621 152.845 179 152.73 180.375 152.825 181.726 153.143 183 153.67 184.908 154.456 186.938 154.906 189 155L189 149C187.625 148.905 186.274 148.587 185 148.06Z" stroke="#FFFFFF" fill="#81BEDC"/></g></svg>