<svg width="96" height="96" xmlns="http://www.w3.org/2000/svg" xmlns:xlink="http://www.w3.org/1999/xlink" xml:space="preserve" overflow="hidden"><defs><clipPath id="clip0"><rect x="0" y="528" width="96" height="96"/></clipPath></defs><g clip-path="url(#clip0)" transform="matrix(1 0 0 1 0 -528)"><path d="M78 598.79C75.9424 598.87 73.9134 599.299 72 600.06 70.7262 600.587 69.3753 600.905 68 601 66.6247 600.905 65.2738 600.587 64 600.06 62.0866 599.299 60.0576 598.87 58 598.79 55.9424 598.87 53.9134 599.299 52 600.06 50.7262 600.587 49.3753 600.905 48 601 46.6247 600.905 45.2738 600.587 44 600.06 42.0866 599.299 40.0576 598.87 38 598.79 35.9424 598.87 33.9134 599.299 32 600.06 30.7261 600.587 29.3753 600.905 28 601 26.6247 600.905 25.2739 600.587 24 600.06 22.0866 599.299 20.0576 598.87 18 598.79 15.9424 598.87 13.9134 599.299 12 600.06 10.7261 600.587 9.37533 600.905 8 601L8 607C10.0576 606.92 12.0866 606.491 14 605.73 15.2704 605.182 16.6213 604.845 18 604.73 19.3787 604.845 20.7296 605.182 22 605.73 23.9134 606.491 25.9424 606.92 28 607 30.0576 606.92 32.0866 606.491 34 605.73 35.2704 605.182 36.6213 604.845 38 604.73 39.3753 604.825 40.7262 605.143 42 605.67 43.9084 606.456 45.9383 606.906 48 607 50.0576 606.92 52.0866 606.491 54 605.73 55.2704 605.182 56.6213 604.845 58 604.73 59.3787 604.845 60.7296 605.182 62 605.73 63.9134 606.491 65.9424 606.92 68 607 70.0576 606.92 72.0866 606.491 74 605.73 75.2704 605.182 76.6213 604.845 78 604.73 79.3753 604.825 80.7262 605.143 82 605.67 83.9084 606.456 85.9383 606.906 88 607L88 601C86.6247 600.905 85.2738 600.587 84 600.06 82.0866 599.299 80.0576 598.87 78 598.79Z" stroke="#FFFFFF" fill="#0385AB"/><path d="M84 588.06C82.0866 587.299 80.0576 586.87 78 586.79 75.9424 586.87 73.9134 587.299 72 588.06 70.7262 588.587 69.3753 588.905 68 589 66.6247 588.905 65.2738 588.587 64 588.06 63.3051 587.788 62.5937 587.561 61.87 587.38 53.53 583.59 49.27 575.96 49.87 570.06 50.37 564.97 53.43 559.24 58.97 558.67 64.3098 558.073 69.1996 561.714 70.16 567 70.2935 567.898 71.0946 568.542 72 568.48 72.4802 568.436 72.923 568.202 73.23 567.83 73.5272 567.454 73.6606 566.975 73.6 566.5 71.81 553.15 59.91 544.18 46 545.61 38.45 546.39 31.36 551.11 24.92 559.61 24.06 560.74 23.22 561.88 22.38 563.02 17.91 569.02 13.65 574.82 8.04 578.74L8.04 595C10.0976 594.92 12.1266 594.491 14.04 593.73 15.3104 593.182 16.6613 592.845 18.04 592.73 19.4187 592.845 20.7696 593.182 22.04 593.73 23.9408 594.486 25.9559 594.916 28 595 30.0576 594.92 32.0866 594.491 34 593.73 35.2704 593.182 36.6213 592.845 38 592.73 39.3753 592.825 40.7262 593.143 42 593.67 43.9084 594.456 45.9383 594.906 48 595 50.0576 594.92 52.0866 594.491 54 593.73 55.2704 593.182 56.6213 592.845 58 592.73 59.3787 592.845 60.7296 593.182 62 593.73 63.9134 594.491 65.9424 594.92 68 595 70.0576 594.92 72.0866 594.491 74 593.73 75.2704 593.182 76.6213 592.845 78 592.73 79.3753 592.825 80.7262 593.143 82 593.67 83.9084 594.456 85.9383 594.906 88 595L88 589C86.6247 588.905 85.2738 588.587 84 588.06Z" stroke="#FFFFFF" fill="#0385AB"/></g></svg>