<svg xmlns="http://www.w3.org/2000/svg" xmlns:xlink="http://www.w3.org/1999/xlink" width="96" height="96" overflow="hidden" xml:space="preserve"><defs><clipPath id="clip0"><rect width="96" height="96" x="707" y="440"/></clipPath></defs><g clip-path="url(#clip0)" transform="translate(-707 -440)"><path fill="#04F0F6" stroke="#FFF" d="M785 510.79C782.942 510.87 780.913 511.299 779 512.06 777.726 512.587 776.375 512.905 775 513 773.625 512.905 772.274 512.587 771 512.06 769.087 511.299 767.058 510.87 765 510.79 762.942 510.87 760.913 511.299 759 512.06 757.726 512.587 756.375 512.905 755 513 753.625 512.905 752.274 512.587 751 512.06 749.087 511.299 747.058 510.87 745 510.79 742.942 510.87 740.913 511.299 739 512.06 737.726 512.587 736.375 512.905 735 513 733.625 512.905 732.274 512.587 731 512.06 729.087 511.299 727.058 510.87 725 510.79 722.942 510.87 720.913 511.299 719 512.06 717.726 512.587 716.375 512.905 715 513L715 519C717.058 518.92 719.087 518.491 721 517.73 722.27 517.182 723.621 516.845 725 516.73 726.379 516.845 727.73 517.182 729 517.73 730.913 518.491 732.942 518.92 735 519 737.058 518.92 739.087 518.491 741 517.73 742.27 517.182 743.621 516.845 745 516.73 746.375 516.825 747.726 517.143 749 517.67 750.908 518.456 752.938 518.906 755 519 757.058 518.92 759.087 518.491 761 517.73 762.27 517.182 763.621 516.845 765 516.73 766.379 516.845 767.73 517.182 769 517.73 770.913 518.491 772.942 518.92 775 519 777.058 518.92 779.087 518.491 781 517.73 782.27 517.182 783.621 516.845 785 516.73 786.375 516.825 787.726 517.143 789 517.67 790.908 518.456 792.938 518.906 795 519L795 513C793.625 512.905 792.274 512.587 791 512.06 789.087 511.299 787.058 510.87 785 510.79Z"/><path fill="#04F0F6" stroke="#FFF" d="M791 500.06C789.087 499.299 787.058 498.87 785 498.79 782.942 498.87 780.913 499.299 779 500.06 777.726 500.587 776.375 500.905 775 501 773.625 500.905 772.274 500.587 771 500.06 770.305 499.788 769.594 499.561 768.87 499.38 760.53 495.59 756.27 487.96 756.87 482.06 757.37 476.97 760.43 471.24 765.97 470.67 771.31 470.073 776.2 473.714 777.16 479 777.294 479.898 778.095 480.542 779 480.48 779.48 480.436 779.923 480.202 780.23 479.83 780.527 479.454 780.661 478.975 780.6 478.5 778.81 465.15 766.91 456.18 753 457.61 745.45 458.39 738.36 463.11 731.92 471.61 731.06 472.74 730.22 473.88 729.38 475.02 724.91 481.02 720.65 486.82 715.04 490.74L715.04 507C717.098 506.92 719.127 506.491 721.04 505.73 722.31 505.182 723.661 504.845 725.04 504.73 726.419 504.845 727.77 505.182 729.04 505.73 730.941 506.486 732.956 506.916 735 507 737.058 506.92 739.087 506.491 741 505.73 742.27 505.182 743.621 504.845 745 504.73 746.375 504.825 747.726 505.143 749 505.67 750.908 506.456 752.938 506.906 755 507 757.058 506.92 759.087 506.491 761 505.73 762.27 505.182 763.621 504.845 765 504.73 766.379 504.845 767.73 505.182 769 505.73 770.913 506.491 772.942 506.92 775 507 777.058 506.92 779.087 506.491 781 505.73 782.27 505.182 783.621 504.845 785 504.73 786.375 504.825 787.726 505.143 789 505.67 790.908 506.456 792.938 506.906 795 507L795 501C793.625 500.905 792.274 500.587 791 500.06Z"/></g></svg>