<svg width="96" height="96" xmlns="http://www.w3.org/2000/svg" xmlns:xlink="http://www.w3.org/1999/xlink" xml:space="preserve" overflow="hidden"><defs><clipPath id="clip0"><rect x="606" y="0" width="96" height="96"/></clipPath></defs><g clip-path="url(#clip0)" transform="translate(-606 0)"><path d="M684 70.79C681.942 70.8697 679.913 71.2992 678 72.06 676.726 72.5872 675.375 72.9046 674 73 672.625 72.9046 671.274 72.5872 670 72.06 668.087 71.2992 666.058 70.8697 664 70.79 661.942 70.8697 659.913 71.2992 658 72.06 656.726 72.5872 655.375 72.9046 654 73 652.625 72.9046 651.274 72.5872 650 72.06 648.087 71.2992 646.058 70.8697 644 70.79 641.942 70.8697 639.913 71.2992 638 72.06 636.726 72.5872 635.375 72.9046 634 73 632.625 72.9046 631.274 72.5872 630 72.06 628.087 71.2992 626.058 70.8697 624 70.79 621.942 70.8697 619.913 71.2992 618 72.06 616.726 72.5872 615.375 72.9046 614 73L614 79C616.058 78.9203 618.087 78.4908 620 77.73 621.27 77.1824 622.621 76.8446 624 76.73 625.379 76.8446 626.73 77.1824 628 77.73 629.913 78.4908 631.942 78.9203 634 79 636.058 78.9203 638.087 78.4908 640 77.73 641.27 77.1824 642.621 76.8446 644 76.73 645.375 76.8254 646.726 77.1428 648 77.67 649.908 78.4559 651.938 78.9059 654 79 656.058 78.9203 658.087 78.4908 660 77.73 661.27 77.1824 662.621 76.8447 664 76.73 665.379 76.8447 666.73 77.1824 668 77.73 669.913 78.4908 671.942 78.9203 674 79 676.058 78.9203 678.087 78.4908 680 77.73 681.27 77.1824 682.621 76.8447 684 76.73 685.375 76.8254 686.726 77.1428 688 77.67 689.908 78.4559 691.938 78.9059 694 79L694 73C692.625 72.9046 691.274 72.5872 690 72.06 688.087 71.2992 686.058 70.8697 684 70.79Z" stroke="#FFFFFF" fill="#037DBA"/><path d="M690 60.06C688.087 59.2992 686.058 58.8697 684 58.79 681.942 58.8697 679.913 59.2992 678 60.06 676.726 60.5872 675.375 60.9046 674 61 672.625 60.9046 671.274 60.5872 670 60.06 669.305 59.7884 668.594 59.5612 667.87 59.38 659.53 55.59 655.27 47.96 655.87 42.06 656.37 36.97 659.43 31.24 664.97 30.67 670.31 30.0735 675.2 33.7136 676.16 39 676.294 39.8977 677.095 40.542 678 40.48 678.48 40.4358 678.923 40.2019 679.23 39.83 679.527 39.4545 679.661 38.9751 679.6 38.5 677.81 25.15 665.91 16.18 652 17.61 644.45 18.39 637.36 23.11 630.92 31.61 630.06 32.74 629.22 33.88 628.38 35.02 623.91 41.02 619.65 46.82 614.04 50.74L614.04 67C616.098 66.9203 618.127 66.4908 620.04 65.73 621.31 65.1824 622.661 64.8446 624.04 64.73 625.419 64.8446 626.77 65.1824 628.04 65.73 629.941 66.4864 631.956 66.9158 634 67 636.058 66.9203 638.087 66.4908 640 65.73 641.27 65.1824 642.621 64.8446 644 64.73 645.375 64.8254 646.726 65.1428 648 65.67 649.908 66.4559 651.938 66.9059 654 67 656.058 66.9203 658.087 66.4908 660 65.73 661.27 65.1824 662.621 64.8447 664 64.73 665.379 64.8447 666.73 65.1824 668 65.73 669.913 66.4908 671.942 66.9203 674 67 676.058 66.9203 678.087 66.4908 680 65.73 681.27 65.1824 682.621 64.8447 684 64.73 685.375 64.8254 686.726 65.1428 688 65.67 689.908 66.4559 691.938 66.9059 694 67L694 61C692.625 60.9046 691.274 60.5872 690 60.06Z" stroke="#FFFFFF" fill="#037DBA"/></g></svg>