<svg width="96" height="96" xmlns="http://www.w3.org/2000/svg" xmlns:xlink="http://www.w3.org/1999/xlink" xml:space="preserve" overflow="hidden"><defs><clipPath id="clip0"><rect x="404" y="88" width="96" height="96"/></clipPath></defs><g clip-path="url(#clip0)" transform="translate(-404 -88)"><path d="M482 158.79C479.942 158.87 477.913 159.299 476 160.06 474.726 160.587 473.375 160.905 472 161 470.625 160.905 469.274 160.587 468 160.06 466.087 159.299 464.058 158.87 462 158.79 459.942 158.87 457.913 159.299 456 160.06 454.726 160.587 453.375 160.905 452 161 450.625 160.905 449.274 160.587 448 160.06 446.087 159.299 444.058 158.87 442 158.79 439.942 158.87 437.913 159.299 436 160.06 434.726 160.587 433.375 160.905 432 161 430.625 160.905 429.274 160.587 428 160.06 426.087 159.299 424.058 158.87 422 158.79 419.942 158.87 417.913 159.299 416 160.06 414.726 160.587 413.375 160.905 412 161L412 167C414.058 166.92 416.087 166.491 418 165.73 419.27 165.182 420.621 164.845 422 164.73 423.379 164.845 424.73 165.182 426 165.73 427.913 166.491 429.942 166.92 432 167 434.058 166.92 436.087 166.491 438 165.73 439.27 165.182 440.621 164.845 442 164.73 443.375 164.825 444.726 165.143 446 165.67 447.908 166.456 449.938 166.906 452 167 454.058 166.92 456.087 166.491 458 165.73 459.27 165.182 460.621 164.845 462 164.73 463.379 164.845 464.73 165.182 466 165.73 467.913 166.491 469.942 166.92 472 167 474.058 166.92 476.087 166.491 478 165.73 479.27 165.182 480.621 164.845 482 164.73 483.375 164.825 484.726 165.143 486 165.67 487.908 166.456 489.938 166.906 492 167L492 161C490.625 160.905 489.274 160.587 488 160.06 486.087 159.299 484.058 158.87 482 158.79Z" stroke="#FFFFFF" fill="#CCE5F1"/><path d="M488 148.06C486.087 147.299 484.058 146.87 482 146.79 479.942 146.87 477.913 147.299 476 148.06 474.726 148.587 473.375 148.905 472 149 470.625 148.905 469.274 148.587 468 148.06 467.305 147.788 466.594 147.561 465.87 147.38 457.53 143.59 453.27 135.96 453.87 130.06 454.37 124.97 457.43 119.24 462.97 118.67 468.31 118.074 473.2 121.714 474.16 127 474.294 127.898 475.095 128.542 476 128.48 476.48 128.436 476.923 128.202 477.23 127.83 477.527 127.454 477.661 126.975 477.6 126.5 475.81 113.15 463.91 104.18 450 105.61 442.45 106.39 435.36 111.11 428.92 119.61 428.06 120.74 427.22 121.88 426.38 123.02 421.91 129.02 417.65 134.82 412.04 138.74L412.04 155C414.098 154.92 416.127 154.491 418.04 153.73 419.31 153.182 420.661 152.845 422.04 152.73 423.419 152.845 424.77 153.182 426.04 153.73 427.941 154.486 429.956 154.916 432 155 434.058 154.92 436.087 154.491 438 153.73 439.27 153.182 440.621 152.845 442 152.73 443.375 152.825 444.726 153.143 446 153.67 447.908 154.456 449.938 154.906 452 155 454.058 154.92 456.087 154.491 458 153.73 459.27 153.182 460.621 152.845 462 152.73 463.379 152.845 464.73 153.182 466 153.73 467.913 154.491 469.942 154.92 472 155 474.058 154.92 476.087 154.491 478 153.73 479.27 153.182 480.621 152.845 482 152.73 483.375 152.825 484.726 153.143 486 153.67 487.908 154.456 489.938 154.906 492 155L492 149C490.625 148.905 489.274 148.587 488 148.06Z" stroke="#FFFFFF" fill="#CCE5F1"/></g></svg>