<svg xmlns="http://www.w3.org/2000/svg" xmlns:xlink="http://www.w3.org/1999/xlink" width="96" height="96" overflow="hidden" xml:space="preserve"><defs><clipPath id="clip0"><rect width="96" height="96" x="505" y="88"/></clipPath></defs><g clip-path="url(#clip0)" transform="translate(-505 -88)"><path fill="#E5F2F8" stroke="#FFF" d="M583 158.79C580.942 158.87 578.913 159.299 577 160.06 575.726 160.587 574.375 160.905 573 161 571.625 160.905 570.274 160.587 569 160.06 567.087 159.299 565.058 158.87 563 158.79 560.942 158.87 558.913 159.299 557 160.06 555.726 160.587 554.375 160.905 553 161 551.625 160.905 550.274 160.587 549 160.06 547.087 159.299 545.058 158.87 543 158.79 540.942 158.87 538.913 159.299 537 160.06 535.726 160.587 534.375 160.905 533 161 531.625 160.905 530.274 160.587 529 160.06 527.087 159.299 525.058 158.87 523 158.79 520.942 158.87 518.913 159.299 517 160.06 515.726 160.587 514.375 160.905 513 161L513 167C515.058 166.92 517.087 166.491 519 165.73 520.27 165.182 521.621 164.845 523 164.73 524.379 164.845 525.73 165.182 527 165.73 528.913 166.491 530.942 166.92 533 167 535.058 166.92 537.087 166.491 539 165.73 540.27 165.182 541.621 164.845 543 164.73 544.375 164.825 545.726 165.143 547 165.67 548.908 166.456 550.938 166.906 553 167 555.058 166.92 557.087 166.491 559 165.73 560.27 165.182 561.621 164.845 563 164.73 564.379 164.845 565.73 165.182 567 165.73 568.913 166.491 570.942 166.92 573 167 575.058 166.92 577.087 166.491 579 165.73 580.27 165.182 581.621 164.845 583 164.73 584.375 164.825 585.726 165.143 587 165.67 588.908 166.456 590.938 166.906 593 167L593 161C591.625 160.905 590.274 160.587 589 160.06 587.087 159.299 585.058 158.87 583 158.79Z"/><path fill="#E5F2F8" stroke="#FFF" d="M589 148.06C587.087 147.299 585.058 146.87 583 146.79 580.942 146.87 578.913 147.299 577 148.06 575.726 148.587 574.375 148.905 573 149 571.625 148.905 570.274 148.587 569 148.06 568.305 147.788 567.594 147.561 566.87 147.38 558.53 143.59 554.27 135.96 554.87 130.06 555.37 124.97 558.43 119.24 563.97 118.67 569.31 118.074 574.2 121.714 575.16 127 575.294 127.898 576.095 128.542 577 128.48 577.48 128.436 577.923 128.202 578.23 127.83 578.527 127.454 578.661 126.975 578.6 126.5 576.81 113.15 564.91 104.18 551 105.61 543.45 106.39 536.36 111.11 529.92 119.61 529.06 120.74 528.22 121.88 527.38 123.02 522.91 129.02 518.65 134.82 513.04 138.74L513.04 155C515.098 154.92 517.127 154.491 519.04 153.73 520.31 153.182 521.661 152.845 523.04 152.73 524.419 152.845 525.77 153.182 527.04 153.73 528.941 154.486 530.956 154.916 533 155 535.058 154.92 537.087 154.491 539 153.73 540.27 153.182 541.621 152.845 543 152.73 544.375 152.825 545.726 153.143 547 153.67 548.908 154.456 550.938 154.906 553 155 555.058 154.92 557.087 154.491 559 153.73 560.27 153.182 561.621 152.845 563 152.73 564.379 152.845 565.73 153.182 567 153.73 568.913 154.491 570.942 154.92 573 155 575.058 154.92 577.087 154.491 579 153.73 580.27 153.182 581.621 152.845 583 152.73 584.375 152.825 585.726 153.143 587 153.67 588.908 154.456 590.938 154.906 593 155L593 149C591.625 148.905 590.274 148.587 589 148.06Z"/></g></svg>