<svg width="96" height="96" xmlns="http://www.w3.org/2000/svg" xmlns:xlink="http://www.w3.org/1999/xlink" xml:space="preserve" overflow="hidden"><defs><clipPath id="clip0"><rect x="505" y="2" width="96" height="96"/></clipPath></defs><g clip-path="url(#clip0)" transform="translate(-505 -2)"><path d="M583 72.79C580.942 72.8697 578.913 73.2992 577 74.06 575.726 74.5872 574.375 74.9046 573 75 571.625 74.9046 570.274 74.5872 569 74.06 567.087 73.2992 565.058 72.8697 563 72.79 560.942 72.8697 558.913 73.2992 557 74.06 555.726 74.5872 554.375 74.9046 553 75 551.625 74.9046 550.274 74.5872 549 74.06 547.087 73.2992 545.058 72.8697 543 72.79 540.942 72.8697 538.913 73.2992 537 74.06 535.726 74.5872 534.375 74.9046 533 75 531.625 74.9046 530.274 74.5872 529 74.06 527.087 73.2992 525.058 72.8697 523 72.79 520.942 72.8697 518.913 73.2992 517 74.06 515.726 74.5872 514.375 74.9046 513 75L513 81C515.058 80.9203 517.087 80.4908 519 79.73 520.27 79.1824 521.621 78.8446 523 78.73 524.379 78.8446 525.73 79.1824 527 79.73 528.913 80.4908 530.942 80.9203 533 81 535.058 80.9203 537.087 80.4908 539 79.73 540.27 79.1824 541.621 78.8446 543 78.73 544.375 78.8254 545.726 79.1428 547 79.67 548.908 80.4559 550.938 80.9059 553 81 555.058 80.9203 557.087 80.4908 559 79.73 560.27 79.1824 561.621 78.8447 563 78.73 564.379 78.8447 565.73 79.1824 567 79.73 568.913 80.4908 570.942 80.9203 573 81 575.058 80.9203 577.087 80.4908 579 79.73 580.27 79.1824 581.621 78.8447 583 78.73 584.375 78.8254 585.726 79.1428 587 79.67 588.908 80.4559 590.938 80.9059 593 81L593 75C591.625 74.9046 590.274 74.5872 589 74.06 587.087 73.2992 585.058 72.8697 583 72.79Z" stroke="#FFFFFF" fill="#0270A7"/><path d="M589 62.06C587.087 61.2992 585.058 60.8697 583 60.79 580.942 60.8697 578.913 61.2992 577 62.06 575.726 62.5872 574.375 62.9046 573 63 571.625 62.9046 570.274 62.5872 569 62.06 568.305 61.7884 567.594 61.5612 566.87 61.38 558.53 57.59 554.27 49.96 554.87 44.06 555.37 38.97 558.43 33.24 563.97 32.67 569.31 32.0735 574.2 35.7136 575.16 41 575.294 41.8977 576.095 42.542 577 42.48 577.48 42.4358 577.923 42.2019 578.23 41.83 578.527 41.4545 578.661 40.9751 578.6 40.5 576.81 27.15 564.91 18.18 551 19.61 543.45 20.39 536.36 25.11 529.92 33.61 529.06 34.74 528.22 35.88 527.38 37.02 522.91 43.02 518.65 48.82 513.04 52.74L513.04 69C515.098 68.9203 517.127 68.4908 519.04 67.73 520.31 67.1824 521.661 66.8446 523.04 66.73 524.419 66.8446 525.77 67.1824 527.04 67.73 528.941 68.4864 530.956 68.9158 533 69 535.058 68.9203 537.087 68.4908 539 67.73 540.27 67.1824 541.621 66.8446 543 66.73 544.375 66.8254 545.726 67.1428 547 67.67 548.908 68.4559 550.938 68.9059 553 69 555.058 68.9203 557.087 68.4908 559 67.73 560.27 67.1824 561.621 66.8447 563 66.73 564.379 66.8447 565.73 67.1824 567 67.73 568.913 68.4908 570.942 68.9203 573 69 575.058 68.9203 577.087 68.4908 579 67.73 580.27 67.1824 581.621 66.8447 583 66.73 584.375 66.8254 585.726 67.1428 587 67.67 588.908 68.4559 590.938 68.9059 593 69L593 63C591.625 62.9046 590.274 62.5872 589 62.06Z" stroke="#FFFFFF" fill="#0270A7"/></g></svg>