<svg width="96" height="96" xmlns="http://www.w3.org/2000/svg" xmlns:xlink="http://www.w3.org/1999/xlink" xml:space="preserve" overflow="hidden"><defs><clipPath id="clip0"><rect x="803" y="440" width="96" height="96"/></clipPath></defs><g clip-path="url(#clip0)" transform="translate(-803 -440)"><path d="M881 510.79C878.942 510.87 876.913 511.299 875 512.06 873.726 512.587 872.375 512.905 871 513 869.625 512.905 868.274 512.587 867 512.06 865.087 511.299 863.058 510.87 861 510.79 858.942 510.87 856.913 511.299 855 512.06 853.726 512.587 852.375 512.905 851 513 849.625 512.905 848.274 512.587 847 512.06 845.087 511.299 843.058 510.87 841 510.79 838.942 510.87 836.913 511.299 835 512.06 833.726 512.587 832.375 512.905 831 513 829.625 512.905 828.274 512.587 827 512.06 825.087 511.299 823.058 510.87 821 510.79 818.942 510.87 816.913 511.299 815 512.06 813.726 512.587 812.375 512.905 811 513L811 519C813.058 518.92 815.087 518.491 817 517.73 818.27 517.182 819.621 516.845 821 516.73 822.379 516.845 823.73 517.182 825 517.73 826.913 518.491 828.942 518.92 831 519 833.058 518.92 835.087 518.491 837 517.73 838.27 517.182 839.621 516.845 841 516.73 842.375 516.825 843.726 517.143 845 517.67 846.908 518.456 848.938 518.906 851 519 853.058 518.92 855.087 518.491 857 517.73 858.27 517.182 859.621 516.845 861 516.73 862.379 516.845 863.73 517.182 865 517.73 866.913 518.491 868.942 518.92 871 519 873.058 518.92 875.087 518.491 877 517.73 878.27 517.182 879.621 516.845 881 516.73 882.375 516.825 883.726 517.143 885 517.67 886.908 518.456 888.938 518.906 891 519L891 513C889.625 512.905 888.274 512.587 887 512.06 885.087 511.299 883.058 510.87 881 510.79Z" stroke="#FFFFFF" fill="#18F6FB"/><path d="M887 500.06C885.087 499.299 883.058 498.87 881 498.79 878.942 498.87 876.913 499.299 875 500.06 873.726 500.587 872.375 500.905 871 501 869.625 500.905 868.274 500.587 867 500.06 866.305 499.788 865.594 499.561 864.87 499.38 856.53 495.59 852.27 487.96 852.87 482.06 853.37 476.97 856.43 471.24 861.97 470.67 867.31 470.073 872.2 473.714 873.16 479 873.294 479.898 874.095 480.542 875 480.48 875.48 480.436 875.923 480.202 876.23 479.83 876.527 479.454 876.661 478.975 876.6 478.5 874.81 465.15 862.91 456.18 849 457.61 841.45 458.39 834.36 463.11 827.92 471.61 827.06 472.74 826.22 473.88 825.38 475.02 820.91 481.02 816.65 486.82 811.04 490.74L811.04 507C813.098 506.92 815.127 506.491 817.04 505.73 818.31 505.182 819.661 504.845 821.04 504.73 822.419 504.845 823.77 505.182 825.04 505.73 826.941 506.486 828.956 506.916 831 507 833.058 506.92 835.087 506.491 837 505.73 838.27 505.182 839.621 504.845 841 504.73 842.375 504.825 843.726 505.143 845 505.67 846.908 506.456 848.938 506.906 851 507 853.058 506.92 855.087 506.491 857 505.73 858.27 505.182 859.621 504.845 861 504.73 862.379 504.845 863.73 505.182 865 505.73 866.913 506.491 868.942 506.92 871 507 873.058 506.92 875.087 506.491 877 505.73 878.27 505.182 879.621 504.845 881 504.73 882.375 504.825 883.726 505.143 885 505.67 886.908 506.456 888.938 506.906 891 507L891 501C889.625 500.905 888.274 500.587 887 500.06Z" stroke="#FFFFFF" fill="#18F6FB"/></g></svg>