<svg width="96" height="96" xmlns="http://www.w3.org/2000/svg" xmlns:xlink="http://www.w3.org/1999/xlink" xml:space="preserve" overflow="hidden"><defs><clipPath id="clip0"><rect x="904" y="0" width="96" height="96"/></clipPath></defs><g clip-path="url(#clip0)" transform="translate(-904 0)"><path d="M982 70.79C979.942 70.8697 977.913 71.2992 976 72.06 974.726 72.5872 973.375 72.9046 972 73 970.625 72.9046 969.274 72.5872 968 72.06 966.087 71.2992 964.058 70.8697 962 70.79 959.942 70.8697 957.913 71.2992 956 72.06 954.726 72.5872 953.375 72.9046 952 73 950.625 72.9046 949.274 72.5872 948 72.06 946.087 71.2992 944.058 70.8697 942 70.79 939.942 70.8697 937.913 71.2992 936 72.06 934.726 72.5872 933.375 72.9046 932 73 930.625 72.9046 929.274 72.5872 928 72.06 926.087 71.2992 924.058 70.8697 922 70.79 919.942 70.8697 917.913 71.2992 916 72.06 914.726 72.5872 913.375 72.9046 912 73L912 79C914.058 78.9203 916.087 78.4908 918 77.73 919.27 77.1824 920.621 76.8446 922 76.73 923.379 76.8446 924.73 77.1824 926 77.73 927.913 78.4908 929.942 78.9203 932 79 934.058 78.9203 936.087 78.4908 938 77.73 939.27 77.1824 940.621 76.8446 942 76.73 943.375 76.8254 944.726 77.1428 946 77.67 947.908 78.4559 949.938 78.9059 952 79 954.058 78.9203 956.087 78.4908 958 77.73 959.27 77.1824 960.621 76.8447 962 76.73 963.379 76.8447 964.73 77.1824 966 77.73 967.913 78.4908 969.942 78.9203 972 79 974.058 78.9203 976.087 78.4908 978 77.73 979.27 77.1824 980.621 76.8447 982 76.73 983.375 76.8254 984.726 77.1428 986 77.67 987.908 78.4559 989.938 78.9059 992 79L992 73C990.625 72.9046 989.274 72.5872 988 72.06 986.087 71.2992 984.058 70.8697 982 70.79Z" stroke="#FFFFFF" fill="#4EA4CE"/><path d="M988 60.06C986.087 59.2992 984.058 58.8697 982 58.79 979.942 58.8697 977.913 59.2992 976 60.06 974.726 60.5872 973.375 60.9046 972 61 970.625 60.9046 969.274 60.5872 968 60.06 967.305 59.7884 966.594 59.5612 965.87 59.38 957.53 55.59 953.27 47.96 953.87 42.06 954.37 36.97 957.43 31.24 962.97 30.67 968.31 30.0735 973.2 33.7136 974.16 39 974.294 39.8977 975.095 40.542 976 40.48 976.48 40.4358 976.923 40.2019 977.23 39.83 977.527 39.4545 977.661 38.9751 977.6 38.5 975.81 25.15 963.91 16.18 950 17.61 942.45 18.39 935.36 23.11 928.92 31.61 928.06 32.74 927.22 33.88 926.38 35.02 921.91 41.02 917.65 46.82 912.04 50.74L912.04 67C914.098 66.9203 916.127 66.4908 918.04 65.73 919.31 65.1824 920.661 64.8446 922.04 64.73 923.419 64.8446 924.77 65.1824 926.04 65.73 927.941 66.4864 929.956 66.9158 932 67 934.058 66.9203 936.087 66.4908 938 65.73 939.27 65.1824 940.621 64.8446 942 64.73 943.375 64.8254 944.726 65.1428 946 65.67 947.908 66.4559 949.938 66.9059 952 67 954.058 66.9203 956.087 66.4908 958 65.73 959.27 65.1824 960.621 64.8447 962 64.73 963.379 64.8447 964.73 65.1824 966 65.73 967.913 66.4908 969.942 66.9203 972 67 974.058 66.9203 976.087 66.4908 978 65.73 979.27 65.1824 980.621 64.8447 982 64.73 983.375 64.8254 984.726 65.1428 986 65.67 987.908 66.4559 989.938 66.9059 992 67L992 61C990.625 60.9046 989.274 60.5872 988 60.06Z" stroke="#FFFFFF" fill="#4EA4CE"/></g></svg>