<svg width="96" height="96" xmlns="http://www.w3.org/2000/svg" xmlns:xlink="http://www.w3.org/1999/xlink" xml:space="preserve" overflow="hidden"><defs><clipPath id="clip0"><rect x="303" y="352" width="96" height="96"/></clipPath></defs><g clip-path="url(#clip0)" transform="translate(-303 -352)"><path d="M381 422.79C378.942 422.87 376.913 423.299 375 424.06 373.726 424.587 372.375 424.905 371 425 369.625 424.905 368.274 424.587 367 424.06 365.087 423.299 363.058 422.87 361 422.79 358.942 422.87 356.913 423.299 355 424.06 353.726 424.587 352.375 424.905 351 425 349.625 424.905 348.274 424.587 347 424.06 345.087 423.299 343.058 422.87 341 422.79 338.942 422.87 336.913 423.299 335 424.06 333.726 424.587 332.375 424.905 331 425 329.625 424.905 328.274 424.587 327 424.06 325.087 423.299 323.058 422.87 321 422.79 318.942 422.87 316.913 423.299 315 424.06 313.726 424.587 312.375 424.905 311 425L311 431C313.058 430.92 315.087 430.491 317 429.73 318.27 429.182 319.621 428.845 321 428.73 322.379 428.845 323.73 429.182 325 429.73 326.913 430.491 328.942 430.92 331 431 333.058 430.92 335.087 430.491 337 429.73 338.27 429.182 339.621 428.845 341 428.73 342.375 428.825 343.726 429.143 345 429.67 346.908 430.456 348.938 430.906 351 431 353.058 430.92 355.087 430.491 357 429.73 358.27 429.182 359.621 428.845 361 428.73 362.379 428.845 363.73 429.182 365 429.73 366.913 430.491 368.942 430.92 371 431 373.058 430.92 375.087 430.491 377 429.73 378.27 429.182 379.621 428.845 381 428.73 382.375 428.825 383.726 429.143 385 429.67 386.908 430.456 388.938 430.906 391 431L391 425C389.625 424.905 388.274 424.587 387 424.06 385.087 423.299 383.058 422.87 381 422.79Z" stroke="#FFFFFF" fill="#021EA8"/><path d="M387 412.06C385.087 411.299 383.058 410.87 381 410.79 378.942 410.87 376.913 411.299 375 412.06 373.726 412.587 372.375 412.905 371 413 369.625 412.905 368.274 412.587 367 412.06 366.305 411.788 365.594 411.561 364.87 411.38 356.53 407.59 352.27 399.96 352.87 394.06 353.37 388.97 356.43 383.24 361.97 382.67 367.31 382.073 372.2 385.714 373.16 391 373.294 391.898 374.095 392.542 375 392.48 375.48 392.436 375.923 392.202 376.23 391.83 376.527 391.454 376.661 390.975 376.6 390.5 374.81 377.15 362.91 368.18 349 369.61 341.45 370.39 334.36 375.11 327.92 383.61 327.06 384.74 326.22 385.88 325.38 387.02 320.91 393.02 316.65 398.82 311.04 402.74L311.04 419C313.098 418.92 315.127 418.491 317.04 417.73 318.31 417.182 319.661 416.845 321.04 416.73 322.419 416.845 323.77 417.182 325.04 417.73 326.941 418.486 328.956 418.916 331 419 333.058 418.92 335.087 418.491 337 417.73 338.27 417.182 339.621 416.845 341 416.73 342.375 416.825 343.726 417.143 345 417.67 346.908 418.456 348.938 418.906 351 419 353.058 418.92 355.087 418.491 357 417.73 358.27 417.182 359.621 416.845 361 416.73 362.379 416.845 363.73 417.182 365 417.73 366.913 418.491 368.942 418.92 371 419 373.058 418.92 375.087 418.491 377 417.73 378.27 417.182 379.621 416.845 381 416.73 382.375 416.825 383.726 417.143 385 417.67 386.908 418.456 388.938 418.906 391 419L391 413C389.625 412.905 388.274 412.587 387 412.06Z" stroke="#FFFFFF" fill="#021EA8"/></g></svg>