<svg width="96" height="96" xmlns="http://www.w3.org/2000/svg" xmlns:xlink="http://www.w3.org/1999/xlink" xml:space="preserve" overflow="hidden"><defs><clipPath id="clip0"><rect x="707" y="168" width="96" height="96"/></clipPath></defs><g clip-path="url(#clip0)" transform="translate(-707 -168)"><path d="M785 238.79C782.942 238.87 780.913 239.299 779 240.06 777.726 240.587 776.375 240.905 775 241 773.625 240.905 772.274 240.587 771 240.06 769.087 239.299 767.058 238.87 765 238.79 762.942 238.87 760.913 239.299 759 240.06 757.726 240.587 756.375 240.905 755 241 753.625 240.905 752.274 240.587 751 240.06 749.087 239.299 747.058 238.87 745 238.79 742.942 238.87 740.913 239.299 739 240.06 737.726 240.587 736.375 240.905 735 241 733.625 240.905 732.274 240.587 731 240.06 729.087 239.299 727.058 238.87 725 238.79 722.942 238.87 720.913 239.299 719 240.06 717.726 240.587 716.375 240.905 715 241L715 247C717.058 246.92 719.087 246.491 721 245.73 722.27 245.182 723.621 244.845 725 244.73 726.379 244.845 727.73 245.182 729 245.73 730.913 246.491 732.942 246.92 735 247 737.058 246.92 739.087 246.491 741 245.73 742.27 245.182 743.621 244.845 745 244.73 746.375 244.825 747.726 245.143 749 245.67 750.908 246.456 752.938 246.906 755 247 757.058 246.92 759.087 246.491 761 245.73 762.27 245.182 763.621 244.845 765 244.73 766.379 244.845 767.73 245.182 769 245.73 770.913 246.491 772.942 246.92 775 247 777.058 246.92 779.087 246.491 781 245.73 782.27 245.182 783.621 244.845 785 244.73 786.375 244.825 787.726 245.143 789 245.67 790.908 246.456 792.938 246.906 795 247L795 241C793.625 240.905 792.274 240.587 791 240.06 789.087 239.299 787.058 238.87 785 238.79Z" stroke="#FFFFFF" fill="#3EBCFB"/><path d="M791 228.06C789.087 227.299 787.058 226.87 785 226.79 782.942 226.87 780.913 227.299 779 228.06 777.726 228.587 776.375 228.905 775 229 773.625 228.905 772.274 228.587 771 228.06 770.305 227.788 769.594 227.561 768.87 227.38 760.53 223.59 756.27 215.96 756.87 210.06 757.37 204.97 760.43 199.24 765.97 198.67 771.31 198.074 776.2 201.714 777.16 207 777.294 207.898 778.095 208.542 779 208.48 779.48 208.436 779.923 208.202 780.23 207.83 780.527 207.454 780.661 206.975 780.6 206.5 778.81 193.15 766.91 184.18 753 185.61 745.45 186.39 738.36 191.11 731.92 199.61 731.06 200.74 730.22 201.88 729.38 203.02 724.91 209.02 720.65 214.82 715.04 218.74L715.04 235C717.098 234.92 719.127 234.491 721.04 233.73 722.31 233.182 723.661 232.845 725.04 232.73 726.419 232.845 727.77 233.182 729.04 233.73 730.941 234.486 732.956 234.916 735 235 737.058 234.92 739.087 234.491 741 233.73 742.27 233.182 743.621 232.845 745 232.73 746.375 232.825 747.726 233.143 749 233.67 750.908 234.456 752.938 234.906 755 235 757.058 234.92 759.087 234.491 761 233.73 762.27 233.182 763.621 232.845 765 232.73 766.379 232.845 767.73 233.182 769 233.73 770.913 234.491 772.942 234.92 775 235 777.058 234.92 779.087 234.491 781 233.73 782.27 233.182 783.621 232.845 785 232.73 786.375 232.825 787.726 233.143 789 233.67 790.908 234.456 792.938 234.906 795 235L795 229C793.625 228.905 792.274 228.587 791 228.06Z" stroke="#FFFFFF" fill="#3EBCFB"/></g></svg>