<svg width="96" height="96" xmlns="http://www.w3.org/2000/svg" xmlns:xlink="http://www.w3.org/1999/xlink" xml:space="preserve" overflow="hidden"><defs><clipPath id="clip0"><rect x="803" y="0" width="96" height="96"/></clipPath></defs><g clip-path="url(#clip0)" transform="translate(-803 0)"><path d="M881 70.79C878.942 70.8697 876.913 71.2992 875 72.06 873.726 72.5872 872.375 72.9046 871 73 869.625 72.9046 868.274 72.5872 867 72.06 865.087 71.2992 863.058 70.8697 861 70.79 858.942 70.8697 856.913 71.2992 855 72.06 853.726 72.5872 852.375 72.9046 851 73 849.625 72.9046 848.274 72.5872 847 72.06 845.087 71.2992 843.058 70.8697 841 70.79 838.942 70.8697 836.913 71.2992 835 72.06 833.726 72.5872 832.375 72.9046 831 73 829.625 72.9046 828.274 72.5872 827 72.06 825.087 71.2992 823.058 70.8697 821 70.79 818.942 70.8697 816.913 71.2992 815 72.06 813.726 72.5872 812.375 72.9046 811 73L811 79C813.058 78.9203 815.087 78.4908 817 77.73 818.27 77.1824 819.621 76.8446 821 76.73 822.379 76.8446 823.73 77.1824 825 77.73 826.913 78.4908 828.942 78.9203 831 79 833.058 78.9203 835.087 78.4908 837 77.73 838.27 77.1824 839.621 76.8446 841 76.73 842.375 76.8254 843.726 77.1428 845 77.67 846.908 78.4559 848.938 78.9059 851 79 853.058 78.9203 855.087 78.4908 857 77.73 858.27 77.1824 859.621 76.8447 861 76.73 862.379 76.8447 863.73 77.1824 865 77.73 866.913 78.4908 868.942 78.9203 871 79 873.058 78.9203 875.087 78.4908 877 77.73 878.27 77.1824 879.621 76.8447 881 76.73 882.375 76.8254 883.726 77.1428 885 77.67 886.908 78.4559 888.938 78.9059 891 79L891 73C889.625 72.9046 888.274 72.5872 887 72.06 885.087 71.2992 883.058 70.8697 881 70.79Z" stroke="#FFFFFF" fill="#3597C7"/><path d="M887 60.06C885.087 59.2992 883.058 58.8697 881 58.79 878.942 58.8697 876.913 59.2992 875 60.06 873.726 60.5872 872.375 60.9046 871 61 869.625 60.9046 868.274 60.5872 867 60.06 866.305 59.7884 865.594 59.5612 864.87 59.38 856.53 55.59 852.27 47.96 852.87 42.06 853.37 36.97 856.43 31.24 861.97 30.67 867.31 30.0735 872.2 33.7136 873.16 39 873.294 39.8977 874.095 40.542 875 40.48 875.48 40.4358 875.923 40.2019 876.23 39.83 876.527 39.4545 876.661 38.9751 876.6 38.5 874.81 25.15 862.91 16.18 849 17.61 841.45 18.39 834.36 23.11 827.92 31.61 827.06 32.74 826.22 33.88 825.38 35.02 820.91 41.02 816.65 46.82 811.04 50.74L811.04 67C813.098 66.9203 815.127 66.4908 817.04 65.73 818.31 65.1824 819.661 64.8446 821.04 64.73 822.419 64.8446 823.77 65.1824 825.04 65.73 826.941 66.4864 828.956 66.9158 831 67 833.058 66.9203 835.087 66.4908 837 65.73 838.27 65.1824 839.621 64.8446 841 64.73 842.375 64.8254 843.726 65.1428 845 65.67 846.908 66.4559 848.938 66.9059 851 67 853.058 66.9203 855.087 66.4908 857 65.73 858.27 65.1824 859.621 64.8447 861 64.73 862.379 64.8447 863.73 65.1824 865 65.73 866.913 66.4908 868.942 66.9203 871 67 873.058 66.9203 875.087 66.4908 877 65.73 878.27 65.1824 879.621 64.8447 881 64.73 882.375 64.8254 883.726 65.1428 885 65.67 886.908 66.4559 888.938 66.9059 891 67L891 61C889.625 60.9046 888.274 60.5872 887 60.06Z" stroke="#FFFFFF" fill="#3597C7"/></g></svg>