<svg width="96" height="96" xmlns="http://www.w3.org/2000/svg" xmlns:xlink="http://www.w3.org/1999/xlink" xml:space="preserve" overflow="hidden"><defs><clipPath id="clip0"><rect x="303" y="256" width="96" height="96"/></clipPath></defs><g clip-path="url(#clip0)" transform="translate(-303 -256)"><path d="M381 326.79C378.942 326.87 376.913 327.299 375 328.06 373.726 328.587 372.375 328.905 371 329 369.625 328.905 368.274 328.587 367 328.06 365.087 327.299 363.058 326.87 361 326.79 358.942 326.87 356.913 327.299 355 328.06 353.726 328.587 352.375 328.905 351 329 349.625 328.905 348.274 328.587 347 328.06 345.087 327.299 343.058 326.87 341 326.79 338.942 326.87 336.913 327.299 335 328.06 333.726 328.587 332.375 328.905 331 329 329.625 328.905 328.274 328.587 327 328.06 325.087 327.299 323.058 326.87 321 326.79 318.942 326.87 316.913 327.299 315 328.06 313.726 328.587 312.375 328.905 311 329L311 335C313.058 334.92 315.087 334.491 317 333.73 318.27 333.182 319.621 332.845 321 332.73 322.379 332.845 323.73 333.182 325 333.73 326.913 334.491 328.942 334.92 331 335 333.058 334.92 335.087 334.491 337 333.73 338.27 333.182 339.621 332.845 341 332.73 342.375 332.825 343.726 333.143 345 333.67 346.908 334.456 348.938 334.906 351 335 353.058 334.92 355.087 334.491 357 333.73 358.27 333.182 359.621 332.845 361 332.73 362.379 332.845 363.73 333.182 365 333.73 366.913 334.491 368.942 334.92 371 335 373.058 334.92 375.087 334.491 377 333.73 378.27 333.182 379.621 332.845 381 332.73 382.375 332.825 383.726 333.143 385 333.67 386.908 334.456 388.938 334.906 391 335L391 329C389.625 328.905 388.274 328.587 387 328.06 385.087 327.299 383.058 326.87 381 326.79Z" stroke="#FFFFFF" fill="#B6E6FD"/><path d="M387 316.06C385.087 315.299 383.058 314.87 381 314.79 378.942 314.87 376.913 315.299 375 316.06 373.726 316.587 372.375 316.905 371 317 369.625 316.905 368.274 316.587 367 316.06 366.305 315.788 365.594 315.561 364.87 315.38 356.53 311.59 352.27 303.96 352.87 298.06 353.37 292.97 356.43 287.24 361.97 286.67 367.31 286.073 372.2 289.714 373.16 295 373.294 295.898 374.095 296.542 375 296.48 375.48 296.436 375.923 296.202 376.23 295.83 376.527 295.454 376.661 294.975 376.6 294.5 374.81 281.15 362.91 272.18 349 273.61 341.45 274.39 334.36 279.11 327.92 287.61 327.06 288.74 326.22 289.88 325.38 291.02 320.91 297.02 316.65 302.82 311.04 306.74L311.04 323C313.098 322.92 315.127 322.491 317.04 321.73 318.31 321.182 319.661 320.845 321.04 320.73 322.419 320.845 323.77 321.182 325.04 321.73 326.941 322.486 328.956 322.916 331 323 333.058 322.92 335.087 322.491 337 321.73 338.27 321.182 339.621 320.845 341 320.73 342.375 320.825 343.726 321.143 345 321.67 346.908 322.456 348.938 322.906 351 323 353.058 322.92 355.087 322.491 357 321.73 358.27 321.182 359.621 320.845 361 320.73 362.379 320.845 363.73 321.182 365 321.73 366.913 322.491 368.942 322.92 371 323 373.058 322.92 375.087 322.491 377 321.73 378.27 321.182 379.621 320.845 381 320.73 382.375 320.825 383.726 321.143 385 321.67 386.908 322.456 388.938 322.906 391 323L391 317C389.625 316.905 388.274 316.587 387 316.06Z" stroke="#FFFFFF" fill="#B6E6FD"/></g></svg>