<svg width="96" height="96" xmlns="http://www.w3.org/2000/svg" xmlns:xlink="http://www.w3.org/1999/xlink" xml:space="preserve" overflow="hidden"><defs><clipPath id="clip0"><rect x="303" y="88" width="96" height="96"/></clipPath></defs><g clip-path="url(#clip0)" transform="translate(-303 -88)"><path d="M381 158.79C378.942 158.87 376.913 159.299 375 160.06 373.726 160.587 372.375 160.905 371 161 369.625 160.905 368.274 160.587 367 160.06 365.087 159.299 363.058 158.87 361 158.79 358.942 158.87 356.913 159.299 355 160.06 353.726 160.587 352.375 160.905 351 161 349.625 160.905 348.274 160.587 347 160.06 345.087 159.299 343.058 158.87 341 158.79 338.942 158.87 336.913 159.299 335 160.06 333.726 160.587 332.375 160.905 331 161 329.625 160.905 328.274 160.587 327 160.06 325.087 159.299 323.058 158.87 321 158.79 318.942 158.87 316.913 159.299 315 160.06 313.726 160.587 312.375 160.905 311 161L311 167C313.058 166.92 315.087 166.491 317 165.73 318.27 165.182 319.621 164.845 321 164.73 322.379 164.845 323.73 165.182 325 165.73 326.913 166.491 328.942 166.92 331 167 333.058 166.92 335.087 166.491 337 165.73 338.27 165.182 339.621 164.845 341 164.73 342.375 164.825 343.726 165.143 345 165.67 346.908 166.456 348.938 166.906 351 167 353.058 166.92 355.087 166.491 357 165.73 358.27 165.182 359.621 164.845 361 164.73 362.379 164.845 363.73 165.182 365 165.73 366.913 166.491 368.942 166.92 371 167 373.058 166.92 375.087 166.491 377 165.73 378.27 165.182 379.621 164.845 381 164.73 382.375 164.825 383.726 165.143 385 165.67 386.908 166.456 388.938 166.906 391 167L391 161C389.625 160.905 388.274 160.587 387 160.06 385.087 159.299 383.058 158.87 381 158.79Z" stroke="#FFFFFF" fill="#B3D8EA"/><path d="M387 148.06C385.087 147.299 383.058 146.87 381 146.79 378.942 146.87 376.913 147.299 375 148.06 373.726 148.587 372.375 148.905 371 149 369.625 148.905 368.274 148.587 367 148.06 366.305 147.788 365.594 147.561 364.87 147.38 356.53 143.59 352.27 135.96 352.87 130.06 353.37 124.97 356.43 119.24 361.97 118.67 367.31 118.074 372.2 121.714 373.16 127 373.294 127.898 374.095 128.542 375 128.48 375.48 128.436 375.923 128.202 376.23 127.83 376.527 127.454 376.661 126.975 376.6 126.5 374.81 113.15 362.91 104.18 349 105.61 341.45 106.39 334.36 111.11 327.92 119.61 327.06 120.74 326.22 121.88 325.38 123.02 320.91 129.02 316.65 134.82 311.04 138.74L311.04 155C313.098 154.92 315.127 154.491 317.04 153.73 318.31 153.182 319.661 152.845 321.04 152.73 322.419 152.845 323.77 153.182 325.04 153.73 326.941 154.486 328.956 154.916 331 155 333.058 154.92 335.087 154.491 337 153.73 338.27 153.182 339.621 152.845 341 152.73 342.375 152.825 343.726 153.143 345 153.67 346.908 154.456 348.938 154.906 351 155 353.058 154.92 355.087 154.491 357 153.73 358.27 153.182 359.621 152.845 361 152.73 362.379 152.845 363.73 153.182 365 153.73 366.913 154.491 368.942 154.92 371 155 373.058 154.92 375.087 154.491 377 153.73 378.27 153.182 379.621 152.845 381 152.73 382.375 152.825 383.726 153.143 385 153.67 386.908 154.456 388.938 154.906 391 155L391 149C389.625 148.905 388.274 148.587 387 148.06Z" stroke="#FFFFFF" fill="#B3D8EA"/></g></svg>