<svg width="96" height="96" xmlns="http://www.w3.org/2000/svg" xmlns:xlink="http://www.w3.org/1999/xlink" xml:space="preserve" overflow="hidden"><defs><clipPath id="clip0"><rect x="606" y="168" width="96" height="96"/></clipPath></defs><g clip-path="url(#clip0)" transform="translate(-606 -168)"><path d="M684 238.79C681.942 238.87 679.913 239.299 678 240.06 676.726 240.587 675.375 240.905 674 241 672.625 240.905 671.274 240.587 670 240.06 668.087 239.299 666.058 238.87 664 238.79 661.942 238.87 659.913 239.299 658 240.06 656.726 240.587 655.375 240.905 654 241 652.625 240.905 651.274 240.587 650 240.06 648.087 239.299 646.058 238.87 644 238.79 641.942 238.87 639.913 239.299 638 240.06 636.726 240.587 635.375 240.905 634 241 632.625 240.905 631.274 240.587 630 240.06 628.087 239.299 626.058 238.87 624 238.79 621.942 238.87 619.913 239.299 618 240.06 616.726 240.587 615.375 240.905 614 241L614 247C616.058 246.92 618.087 246.491 620 245.73 621.27 245.182 622.621 244.845 624 244.73 625.379 244.845 626.73 245.182 628 245.73 629.913 246.491 631.942 246.92 634 247 636.058 246.92 638.087 246.491 640 245.73 641.27 245.182 642.621 244.845 644 244.73 645.375 244.825 646.726 245.143 648 245.67 649.908 246.456 651.938 246.906 654 247 656.058 246.92 658.087 246.491 660 245.73 661.27 245.182 662.621 244.845 664 244.73 665.379 244.845 666.73 245.182 668 245.73 669.913 246.491 671.942 246.92 674 247 676.058 246.92 678.087 246.491 680 245.73 681.27 245.182 682.621 244.845 684 244.73 685.375 244.825 686.726 245.143 688 245.67 689.908 246.456 691.938 246.906 694 247L694 241C692.625 240.905 691.274 240.587 690 240.06 688.087 239.299 686.058 238.87 684 238.79Z" stroke="#FFFFFF" fill="#26B4FB"/><path d="M690 228.06C688.087 227.299 686.058 226.87 684 226.79 681.942 226.87 679.913 227.299 678 228.06 676.726 228.587 675.375 228.905 674 229 672.625 228.905 671.274 228.587 670 228.06 669.305 227.788 668.594 227.561 667.87 227.38 659.53 223.59 655.27 215.96 655.87 210.06 656.37 204.97 659.43 199.24 664.97 198.67 670.31 198.074 675.2 201.714 676.16 207 676.294 207.898 677.095 208.542 678 208.48 678.48 208.436 678.923 208.202 679.23 207.83 679.527 207.454 679.661 206.975 679.6 206.5 677.81 193.15 665.91 184.18 652 185.61 644.45 186.39 637.36 191.11 630.92 199.61 630.06 200.74 629.22 201.88 628.38 203.02 623.91 209.02 619.65 214.82 614.04 218.74L614.04 235C616.098 234.92 618.127 234.491 620.04 233.73 621.31 233.182 622.661 232.845 624.04 232.73 625.419 232.845 626.77 233.182 628.04 233.73 629.941 234.486 631.956 234.916 634 235 636.058 234.92 638.087 234.491 640 233.73 641.27 233.182 642.621 232.845 644 232.73 645.375 232.825 646.726 233.143 648 233.67 649.908 234.456 651.938 234.906 654 235 656.058 234.92 658.087 234.491 660 233.73 661.27 233.182 662.621 232.845 664 232.73 665.379 232.845 666.73 233.182 668 233.73 669.913 234.491 671.942 234.92 674 235 676.058 234.92 678.087 234.491 680 233.73 681.27 233.182 682.621 232.845 684 232.73 685.375 232.825 686.726 233.143 688 233.67 689.908 234.456 691.938 234.906 694 235L694 229C692.625 228.905 691.274 228.587 690 228.06Z" stroke="#FFFFFF" fill="#26B4FB"/></g></svg>