<svg width="96" height="96" xmlns="http://www.w3.org/2000/svg" xmlns:xlink="http://www.w3.org/1999/xlink" xml:space="preserve" overflow="hidden"><defs><clipPath id="clip0"><rect x="0" y="256" width="96" height="96"/></clipPath></defs><g clip-path="url(#clip0)" transform="matrix(1 0 0 1 0 -256)"><path d="M78 326.79C75.9424 326.87 73.9134 327.299 72 328.06 70.7262 328.587 69.3753 328.905 68 329 66.6247 328.905 65.2738 328.587 64 328.06 62.0866 327.299 60.0576 326.87 58 326.79 55.9424 326.87 53.9134 327.299 52 328.06 50.7262 328.587 49.3753 328.905 48 329 46.6247 328.905 45.2738 328.587 44 328.06 42.0866 327.299 40.0576 326.87 38 326.79 35.9424 326.87 33.9134 327.299 32 328.06 30.7261 328.587 29.3753 328.905 28 329 26.6247 328.905 25.2739 328.587 24 328.06 22.0866 327.299 20.0576 326.87 18 326.79 15.9424 326.87 13.9134 327.299 12 328.06 10.7261 328.587 9.37533 328.905 8 329L8 335C10.0576 334.92 12.0866 334.491 14 333.73 15.2704 333.182 16.6213 332.845 18 332.73 19.3787 332.845 20.7296 333.182 22 333.73 23.9134 334.491 25.9424 334.92 28 335 30.0576 334.92 32.0866 334.491 34 333.73 35.2704 333.182 36.6213 332.845 38 332.73 39.3753 332.825 40.7262 333.143 42 333.67 43.9084 334.456 45.9383 334.906 48 335 50.0576 334.92 52.0866 334.491 54 333.73 55.2704 333.182 56.6213 332.845 58 332.73 59.3787 332.845 60.7296 333.182 62 333.73 63.9134 334.491 65.9424 334.92 68 335 70.0576 334.92 72.0866 334.491 74 333.73 75.2704 333.182 76.6213 332.845 78 332.73 79.3753 332.825 80.7262 333.143 82 333.67 83.9084 334.456 85.9383 334.906 88 335L88 329C86.6247 328.905 85.2738 328.587 84 328.06 82.0866 327.299 80.0576 326.87 78 326.79Z" stroke="#FFFFFF" fill="#86D5FD"/><path d="M84 316.06C82.0866 315.299 80.0576 314.87 78 314.79 75.9424 314.87 73.9134 315.299 72 316.06 70.7262 316.587 69.3753 316.905 68 317 66.6247 316.905 65.2738 316.587 64 316.06 63.3051 315.788 62.5937 315.561 61.87 315.38 53.53 311.59 49.27 303.96 49.87 298.06 50.37 292.97 53.43 287.24 58.97 286.67 64.3098 286.073 69.1996 289.714 70.16 295 70.2935 295.898 71.0946 296.542 72 296.48 72.4802 296.436 72.923 296.202 73.23 295.83 73.5272 295.454 73.6606 294.975 73.6 294.5 71.81 281.15 59.91 272.18 46 273.61 38.45 274.39 31.36 279.11 24.92 287.61 24.06 288.74 23.22 289.88 22.38 291.02 17.91 297.02 13.65 302.82 8.04 306.74L8.04 323C10.0976 322.92 12.1266 322.491 14.04 321.73 15.3104 321.182 16.6613 320.845 18.04 320.73 19.4187 320.845 20.7696 321.182 22.04 321.73 23.9408 322.486 25.9559 322.916 28 323 30.0576 322.92 32.0866 322.491 34 321.73 35.2704 321.182 36.6213 320.845 38 320.73 39.3753 320.825 40.7262 321.143 42 321.67 43.9084 322.456 45.9383 322.906 48 323 50.0576 322.92 52.0866 322.491 54 321.73 55.2704 321.182 56.6213 320.845 58 320.73 59.3787 320.845 60.7296 321.182 62 321.73 63.9134 322.491 65.9424 322.92 68 323 70.0576 322.92 72.0866 322.491 74 321.73 75.2704 321.182 76.6213 320.845 78 320.73 79.3753 320.825 80.7262 321.143 82 321.67 83.9084 322.456 85.9383 322.906 88 323L88 317C86.6247 316.905 85.2738 316.587 84 316.06Z" stroke="#FFFFFF" fill="#86D5FD"/></g></svg>