<svg width="96" height="96" xmlns="http://www.w3.org/2000/svg" xmlns:xlink="http://www.w3.org/1999/xlink" xml:space="preserve" overflow="hidden"><defs><clipPath id="clip0"><rect x="707" y="352" width="96" height="96"/></clipPath></defs><g clip-path="url(#clip0)" transform="translate(-707 -352)"><path d="M785 422.79C782.942 422.87 780.913 423.299 779 424.06 777.726 424.587 776.375 424.905 775 425 773.625 424.905 772.274 424.587 771 424.06 769.087 423.299 767.058 422.87 765 422.79 762.942 422.87 760.913 423.299 759 424.06 757.726 424.587 756.375 424.905 755 425 753.625 424.905 752.274 424.587 751 424.06 749.087 423.299 747.058 422.87 745 422.79 742.942 422.87 740.913 423.299 739 424.06 737.726 424.587 736.375 424.905 735 425 733.625 424.905 732.274 424.587 731 424.06 729.087 423.299 727.058 422.87 725 422.79 722.942 422.87 720.913 423.299 719 424.06 717.726 424.587 716.375 424.905 715 425L715 431C717.058 430.92 719.087 430.491 721 429.73 722.27 429.182 723.621 428.845 725 428.73 726.379 428.845 727.73 429.182 729 429.73 730.913 430.491 732.942 430.92 735 431 737.058 430.92 739.087 430.491 741 429.73 742.27 429.182 743.621 428.845 745 428.73 746.375 428.825 747.726 429.143 749 429.67 750.908 430.456 752.938 430.906 755 431 757.058 430.92 759.087 430.491 761 429.73 762.27 429.182 763.621 428.845 765 428.73 766.379 428.845 767.73 429.182 769 429.73 770.913 430.491 772.942 430.92 775 431 777.058 430.92 779.087 430.491 781 429.73 782.27 429.182 783.621 428.845 785 428.73 786.375 428.825 787.726 429.143 789 429.67 790.908 430.456 792.938 430.906 795 431L795 425C793.625 424.905 792.274 424.587 791 424.06 789.087 423.299 787.058 422.87 785 422.79Z" stroke="#FFFFFF" fill="#677CE4"/><path d="M791 412.06C789.087 411.299 787.058 410.87 785 410.79 782.942 410.87 780.913 411.299 779 412.06 777.726 412.587 776.375 412.905 775 413 773.625 412.905 772.274 412.587 771 412.06 770.305 411.788 769.594 411.561 768.87 411.38 760.53 407.59 756.27 399.96 756.87 394.06 757.37 388.97 760.43 383.24 765.97 382.67 771.31 382.073 776.2 385.714 777.16 391 777.294 391.898 778.095 392.542 779 392.48 779.48 392.436 779.923 392.202 780.23 391.83 780.527 391.454 780.661 390.975 780.6 390.5 778.81 377.15 766.91 368.18 753 369.61 745.45 370.39 738.36 375.11 731.92 383.61 731.06 384.74 730.22 385.88 729.38 387.02 724.91 393.02 720.65 398.82 715.04 402.74L715.04 419C717.098 418.92 719.127 418.491 721.04 417.73 722.31 417.182 723.661 416.845 725.04 416.73 726.419 416.845 727.77 417.182 729.04 417.73 730.941 418.486 732.956 418.916 735 419 737.058 418.92 739.087 418.491 741 417.73 742.27 417.182 743.621 416.845 745 416.73 746.375 416.825 747.726 417.143 749 417.67 750.908 418.456 752.938 418.906 755 419 757.058 418.92 759.087 418.491 761 417.73 762.27 417.182 763.621 416.845 765 416.73 766.379 416.845 767.73 417.182 769 417.73 770.913 418.491 772.942 418.92 775 419 777.058 418.92 779.087 418.491 781 417.73 782.27 417.182 783.621 416.845 785 416.73 786.375 416.825 787.726 417.143 789 417.67 790.908 418.456 792.938 418.906 795 419L795 413C793.625 412.905 792.274 412.587 791 412.06Z" stroke="#FFFFFF" fill="#677CE4"/></g></svg>