<svg width="96" height="96" xmlns="http://www.w3.org/2000/svg" xmlns:xlink="http://www.w3.org/1999/xlink" xml:space="preserve" overflow="hidden"><defs><clipPath id="clip0"><rect x="0" y="352" width="96" height="96"/></clipPath></defs><g clip-path="url(#clip0)" transform="matrix(1 0 0 1 0 -352)"><path d="M78 422.79C75.9424 422.87 73.9134 423.299 72 424.06 70.7262 424.587 69.3753 424.905 68 425 66.6247 424.905 65.2738 424.587 64 424.06 62.0866 423.299 60.0576 422.87 58 422.79 55.9424 422.87 53.9134 423.299 52 424.06 50.7262 424.587 49.3753 424.905 48 425 46.6247 424.905 45.2738 424.587 44 424.06 42.0866 423.299 40.0576 422.87 38 422.79 35.9424 422.87 33.9134 423.299 32 424.06 30.7261 424.587 29.3753 424.905 28 425 26.6247 424.905 25.2739 424.587 24 424.06 22.0866 423.299 20.0576 422.87 18 422.79 15.9424 422.87 13.9134 423.299 12 424.06 10.7261 424.587 9.37533 424.905 8 425L8 431C10.0576 430.92 12.0866 430.491 14 429.73 15.2704 429.182 16.6213 428.845 18 428.73 19.3787 428.845 20.7296 429.182 22 429.73 23.9134 430.491 25.9424 430.92 28 431 30.0576 430.92 32.0866 430.491 34 429.73 35.2704 429.182 36.6213 428.845 38 428.73 39.3753 428.825 40.7262 429.143 42 429.67 43.9084 430.456 45.9383 430.906 48 431 50.0576 430.92 52.0866 430.491 54 429.73 55.2704 429.182 56.6213 428.845 58 428.73 59.3787 428.845 60.7296 429.182 62 429.73 63.9134 430.491 65.9424 430.92 68 431 70.0576 430.92 72.0866 430.491 74 429.73 75.2704 429.182 76.6213 428.845 78 428.73 79.3753 428.825 80.7262 429.143 82 429.67 83.9084 430.456 85.9383 430.906 88 431L88 425C86.6247 424.905 85.2738 424.587 84 424.06 82.0866 423.299 80.0576 422.87 78 422.79Z" stroke="#FFFFFF" fill="#011369"/><path d="M84 412.06C82.0866 411.299 80.0576 410.87 78 410.79 75.9424 410.87 73.9134 411.299 72 412.06 70.7262 412.587 69.3753 412.905 68 413 66.6247 412.905 65.2738 412.587 64 412.06 63.3051 411.788 62.5937 411.561 61.87 411.38 53.53 407.59 49.27 399.96 49.87 394.06 50.37 388.97 53.43 383.24 58.97 382.67 64.3098 382.073 69.1996 385.714 70.16 391 70.2935 391.898 71.0946 392.542 72 392.48 72.4802 392.436 72.923 392.202 73.23 391.83 73.5272 391.454 73.6606 390.975 73.6 390.5 71.81 377.15 59.91 368.18 46 369.61 38.45 370.39 31.36 375.11 24.92 383.61 24.06 384.74 23.22 385.88 22.38 387.02 17.91 393.02 13.65 398.82 8.04 402.74L8.04 419C10.0976 418.92 12.1266 418.491 14.04 417.73 15.3104 417.182 16.6613 416.845 18.04 416.73 19.4187 416.845 20.7696 417.182 22.04 417.73 23.9408 418.486 25.9559 418.916 28 419 30.0576 418.92 32.0866 418.491 34 417.73 35.2704 417.182 36.6213 416.845 38 416.73 39.3753 416.825 40.7262 417.143 42 417.67 43.9084 418.456 45.9383 418.906 48 419 50.0576 418.92 52.0866 418.491 54 417.73 55.2704 417.182 56.6213 416.845 58 416.73 59.3787 416.845 60.7296 417.182 62 417.73 63.9134 418.491 65.9424 418.92 68 419 70.0576 418.92 72.0866 418.491 74 417.73 75.2704 417.182 76.6213 416.845 78 416.73 79.3753 416.825 80.7262 417.143 82 417.67 83.9084 418.456 85.9383 418.906 88 419L88 413C86.6247 412.905 85.2738 412.587 84 412.06Z" stroke="#FFFFFF" fill="#011369"/></g></svg>