<svg width="96" height="96" xmlns="http://www.w3.org/2000/svg" xmlns:xlink="http://www.w3.org/1999/xlink" xml:space="preserve" overflow="hidden"><defs><clipPath id="clip0"><rect x="707" y="0" width="96" height="96"/></clipPath></defs><g clip-path="url(#clip0)" transform="translate(-707 0)"><path d="M785 70.79C782.942 70.8697 780.913 71.2992 779 72.06 777.726 72.5872 776.375 72.9046 775 73 773.625 72.9046 772.274 72.5872 771 72.06 769.087 71.2992 767.058 70.8697 765 70.79 762.942 70.8697 760.913 71.2992 759 72.06 757.726 72.5872 756.375 72.9046 755 73 753.625 72.9046 752.274 72.5872 751 72.06 749.087 71.2992 747.058 70.8697 745 70.79 742.942 70.8697 740.913 71.2992 739 72.06 737.726 72.5872 736.375 72.9046 735 73 733.625 72.9046 732.274 72.5872 731 72.06 729.087 71.2992 727.058 70.8697 725 70.79 722.942 70.8697 720.913 71.2992 719 72.06 717.726 72.5872 716.375 72.9046 715 73L715 79C717.058 78.9203 719.087 78.4908 721 77.73 722.27 77.1824 723.621 76.8446 725 76.73 726.379 76.8446 727.73 77.1824 729 77.73 730.913 78.4908 732.942 78.9203 735 79 737.058 78.9203 739.087 78.4908 741 77.73 742.27 77.1824 743.621 76.8446 745 76.73 746.375 76.8254 747.726 77.1428 749 77.67 750.908 78.4559 752.938 78.9059 755 79 757.058 78.9203 759.087 78.4908 761 77.73 762.27 77.1824 763.621 76.8447 765 76.73 766.379 76.8447 767.73 77.1824 769 77.73 770.913 78.4908 772.942 78.9203 775 79 777.058 78.9203 779.087 78.4908 781 77.73 782.27 77.1824 783.621 76.8447 785 76.73 786.375 76.8254 787.726 77.1428 789 77.67 790.908 78.4559 792.938 78.9059 795 79L795 73C793.625 72.9046 792.274 72.5872 791 72.06 789.087 71.2992 787.058 70.8697 785 70.79Z" stroke="#FFFFFF" fill="#1C8AC0"/><path d="M791 60.06C789.087 59.2992 787.058 58.8697 785 58.79 782.942 58.8697 780.913 59.2992 779 60.06 777.726 60.5872 776.375 60.9046 775 61 773.625 60.9046 772.274 60.5872 771 60.06 770.305 59.7884 769.594 59.5612 768.87 59.38 760.53 55.59 756.27 47.96 756.87 42.06 757.37 36.97 760.43 31.24 765.97 30.67 771.31 30.0735 776.2 33.7136 777.16 39 777.294 39.8977 778.095 40.542 779 40.48 779.48 40.4358 779.923 40.2019 780.23 39.83 780.527 39.4545 780.661 38.9751 780.6 38.5 778.81 25.15 766.91 16.18 753 17.61 745.45 18.39 738.36 23.11 731.92 31.61 731.06 32.74 730.22 33.88 729.38 35.02 724.91 41.02 720.65 46.82 715.04 50.74L715.04 67C717.098 66.9203 719.127 66.4908 721.04 65.73 722.31 65.1824 723.661 64.8446 725.04 64.73 726.419 64.8446 727.77 65.1824 729.04 65.73 730.941 66.4864 732.956 66.9158 735 67 737.058 66.9203 739.087 66.4908 741 65.73 742.27 65.1824 743.621 64.8446 745 64.73 746.375 64.8254 747.726 65.1428 749 65.67 750.908 66.4559 752.938 66.9059 755 67 757.058 66.9203 759.087 66.4908 761 65.73 762.27 65.1824 763.621 64.8447 765 64.73 766.379 64.8447 767.73 65.1824 769 65.73 770.913 66.4908 772.942 66.9203 775 67 777.058 66.9203 779.087 66.4908 781 65.73 782.27 65.1824 783.621 64.8447 785 64.73 786.375 64.8254 787.726 65.1428 789 65.67 790.908 66.4559 792.938 66.9059 795 67L795 61C793.625 60.9046 792.274 60.5872 791 60.06Z" stroke="#FFFFFF" fill="#1C8AC0"/></g></svg>