<svg width="96" height="96" xmlns="http://www.w3.org/2000/svg" xmlns:xlink="http://www.w3.org/1999/xlink" xml:space="preserve" overflow="hidden"><defs><clipPath id="clip0"><rect x="303" y="168" width="96" height="96"/></clipPath></defs><g clip-path="url(#clip0)" transform="translate(-303 -168)"><path d="M381 238.79C378.942 238.87 376.913 239.299 375 240.06 373.726 240.587 372.375 240.905 371 241 369.625 240.905 368.274 240.587 367 240.06 365.087 239.299 363.058 238.87 361 238.79 358.942 238.87 356.913 239.299 355 240.06 353.726 240.587 352.375 240.905 351 241 349.625 240.905 348.274 240.587 347 240.06 345.087 239.299 343.058 238.87 341 238.79 338.942 238.87 336.913 239.299 335 240.06 333.726 240.587 332.375 240.905 331 241 329.625 240.905 328.274 240.587 327 240.06 325.087 239.299 323.058 238.87 321 238.79 318.942 238.87 316.913 239.299 315 240.06 313.726 240.587 312.375 240.905 311 241L311 247C313.058 246.92 315.087 246.491 317 245.73 318.27 245.182 319.621 244.845 321 244.73 322.379 244.845 323.73 245.182 325 245.73 326.913 246.491 328.942 246.92 331 247 333.058 246.92 335.087 246.491 337 245.73 338.27 245.182 339.621 244.845 341 244.73 342.375 244.825 343.726 245.143 345 245.67 346.908 246.456 348.938 246.906 351 247 353.058 246.92 355.087 246.491 357 245.73 358.27 245.182 359.621 244.845 361 244.73 362.379 244.845 363.73 245.182 365 245.73 366.913 246.491 368.942 246.92 371 247 373.058 246.92 375.087 246.491 377 245.73 378.27 245.182 379.621 244.845 381 244.73 382.375 244.825 383.726 245.143 385 245.67 386.908 246.456 388.938 246.906 391 247L391 241C389.625 240.905 388.274 240.587 387 240.06 385.087 239.299 383.058 238.87 381 238.79Z" stroke="#FFFFFF" fill="#038ED3"/><path d="M387 228.06C385.087 227.299 383.058 226.87 381 226.79 378.942 226.87 376.913 227.299 375 228.06 373.726 228.587 372.375 228.905 371 229 369.625 228.905 368.274 228.587 367 228.06 366.305 227.788 365.594 227.561 364.87 227.38 356.53 223.59 352.27 215.96 352.87 210.06 353.37 204.97 356.43 199.24 361.97 198.67 367.31 198.074 372.2 201.714 373.16 207 373.294 207.898 374.095 208.542 375 208.48 375.48 208.436 375.923 208.202 376.23 207.83 376.527 207.454 376.661 206.975 376.6 206.5 374.81 193.15 362.91 184.18 349 185.61 341.45 186.39 334.36 191.11 327.92 199.61 327.06 200.74 326.22 201.88 325.38 203.02 320.91 209.02 316.65 214.82 311.04 218.74L311.04 235C313.098 234.92 315.127 234.491 317.04 233.73 318.31 233.182 319.661 232.845 321.04 232.73 322.419 232.845 323.77 233.182 325.04 233.73 326.941 234.486 328.956 234.916 331 235 333.058 234.92 335.087 234.491 337 233.73 338.27 233.182 339.621 232.845 341 232.73 342.375 232.825 343.726 233.143 345 233.67 346.908 234.456 348.938 234.906 351 235 353.058 234.92 355.087 234.491 357 233.73 358.27 233.182 359.621 232.845 361 232.73 362.379 232.845 363.73 233.182 365 233.73 366.913 234.491 368.942 234.92 371 235 373.058 234.92 375.087 234.491 377 233.73 378.27 233.182 379.621 232.845 381 232.73 382.375 232.825 383.726 233.143 385 233.67 386.908 234.456 388.938 234.906 391 235L391 229C389.625 228.905 388.274 228.587 387 228.06Z" stroke="#FFFFFF" fill="#038ED3"/></g></svg>