<svg width="96" height="96" xmlns="http://www.w3.org/2000/svg" xmlns:xlink="http://www.w3.org/1999/xlink" xml:space="preserve" overflow="hidden"><defs><clipPath id="clip0"><rect x="505" y="440" width="96" height="96"/></clipPath></defs><g clip-path="url(#clip0)" transform="translate(-505 -440)"><path d="M583 510.79C580.942 510.87 578.913 511.299 577 512.06 575.726 512.587 574.375 512.905 573 513 571.625 512.905 570.274 512.587 569 512.06 567.087 511.299 565.058 510.87 563 510.79 560.942 510.87 558.913 511.299 557 512.06 555.726 512.587 554.375 512.905 553 513 551.625 512.905 550.274 512.587 549 512.06 547.087 511.299 545.058 510.87 543 510.79 540.942 510.87 538.913 511.299 537 512.06 535.726 512.587 534.375 512.905 533 513 531.625 512.905 530.274 512.587 529 512.06 527.087 511.299 525.058 510.87 523 510.79 520.942 510.87 518.913 511.299 517 512.06 515.726 512.587 514.375 512.905 513 513L513 519C515.058 518.92 517.087 518.491 519 517.73 520.27 517.182 521.621 516.845 523 516.73 524.379 516.845 525.73 517.182 527 517.73 528.913 518.491 530.942 518.92 533 519 535.058 518.92 537.087 518.491 539 517.73 540.27 517.182 541.621 516.845 543 516.73 544.375 516.825 545.726 517.143 547 517.67 548.908 518.456 550.938 518.906 553 519 555.058 518.92 557.087 518.491 559 517.73 560.27 517.182 561.621 516.845 563 516.73 564.379 516.845 565.73 517.182 567 517.73 568.913 518.491 570.942 518.92 573 519 575.058 518.92 577.087 518.491 579 517.73 580.27 517.182 581.621 516.845 583 516.73 584.375 516.825 585.726 517.143 587 517.67 588.908 518.456 590.938 518.906 593 519L593 513C591.625 512.905 590.274 512.587 589 512.06 587.087 511.299 585.058 510.87 583 510.79Z" stroke="#FFFFFF" fill="#03A7AB"/><path d="M589 500.06C587.087 499.299 585.058 498.87 583 498.79 580.942 498.87 578.913 499.299 577 500.06 575.726 500.587 574.375 500.905 573 501 571.625 500.905 570.274 500.587 569 500.06 568.305 499.788 567.594 499.561 566.87 499.38 558.53 495.59 554.27 487.96 554.87 482.06 555.37 476.97 558.43 471.24 563.97 470.67 569.31 470.073 574.2 473.714 575.16 479 575.294 479.898 576.095 480.542 577 480.48 577.48 480.436 577.923 480.202 578.23 479.83 578.527 479.454 578.661 478.975 578.6 478.5 576.81 465.15 564.91 456.18 551 457.61 543.45 458.39 536.36 463.11 529.92 471.61 529.06 472.74 528.22 473.88 527.38 475.02 522.91 481.02 518.65 486.82 513.04 490.74L513.04 507C515.098 506.92 517.127 506.491 519.04 505.73 520.31 505.182 521.661 504.845 523.04 504.73 524.419 504.845 525.77 505.182 527.04 505.73 528.941 506.486 530.956 506.916 533 507 535.058 506.92 537.087 506.491 539 505.73 540.27 505.182 541.621 504.845 543 504.73 544.375 504.825 545.726 505.143 547 505.67 548.908 506.456 550.938 506.906 553 507 555.058 506.92 557.087 506.491 559 505.73 560.27 505.182 561.621 504.845 563 504.73 564.379 504.845 565.73 505.182 567 505.73 568.913 506.491 570.942 506.92 573 507 575.058 506.92 577.087 506.491 579 505.73 580.27 505.182 581.621 504.845 583 504.73 584.375 504.825 585.726 505.143 587 505.67 588.908 506.456 590.938 506.906 593 507L593 501C591.625 500.905 590.274 500.587 589 500.06Z" stroke="#FFFFFF" fill="#03A7AB"/></g></svg>