<svg width="96" height="96" xmlns="http://www.w3.org/2000/svg" xmlns:xlink="http://www.w3.org/1999/xlink" xml:space="preserve" overflow="hidden"><defs><clipPath id="clip0"><rect x="0" y="440" width="96" height="96"/></clipPath></defs><g clip-path="url(#clip0)" transform="matrix(1 0 0 1 0 -440)"><path d="M78 510.79C75.9424 510.87 73.9134 511.299 72 512.06 70.7262 512.587 69.3753 512.905 68 513 66.6247 512.905 65.2738 512.587 64 512.06 62.0866 511.299 60.0576 510.87 58 510.79 55.9424 510.87 53.9134 511.299 52 512.06 50.7262 512.587 49.3753 512.905 48 513 46.6247 512.905 45.2738 512.587 44 512.06 42.0866 511.299 40.0576 510.87 38 510.79 35.9424 510.87 33.9134 511.299 32 512.06 30.7261 512.587 29.3753 512.905 28 513 26.6247 512.905 25.2739 512.587 24 512.06 22.0866 511.299 20.0576 510.87 18 510.79 15.9424 510.87 13.9134 511.299 12 512.06 10.7261 512.587 9.37533 512.905 8 513L8 519C10.0576 518.92 12.0866 518.491 14 517.73 15.2704 517.182 16.6213 516.845 18 516.73 19.3787 516.845 20.7296 517.182 22 517.73 23.9134 518.491 25.9424 518.92 28 519 30.0576 518.92 32.0866 518.491 34 517.73 35.2704 517.182 36.6213 516.845 38 516.73 39.3753 516.825 40.7262 517.143 42 517.67 43.9084 518.456 45.9383 518.906 48 519 50.0576 518.92 52.0866 518.491 54 517.73 55.2704 517.182 56.6213 516.845 58 516.73 59.3787 516.845 60.7296 517.182 62 517.73 63.9134 518.491 65.9424 518.92 68 519 70.0576 518.92 72.0866 518.491 74 517.73 75.2704 517.182 76.6213 516.845 78 516.73 79.3753 516.825 80.7262 517.143 82 517.67 83.9084 518.456 85.9383 518.906 88 519L88 513C86.6247 512.905 85.2738 512.587 84 512.06 82.0866 511.299 80.0576 510.87 78 510.79Z" stroke="#FFFFFF" fill="#003031"/><path d="M84 500.06C82.0866 499.299 80.0576 498.87 78 498.79 75.9424 498.87 73.9134 499.299 72 500.06 70.7262 500.587 69.3753 500.905 68 501 66.6247 500.905 65.2738 500.587 64 500.06 63.3051 499.788 62.5937 499.561 61.87 499.38 53.53 495.59 49.27 487.96 49.87 482.06 50.37 476.97 53.43 471.24 58.97 470.67 64.3098 470.073 69.1996 473.714 70.16 479 70.2935 479.898 71.0946 480.542 72 480.48 72.4802 480.436 72.923 480.202 73.23 479.83 73.5272 479.454 73.6606 478.975 73.6 478.5 71.81 465.15 59.91 456.18 46 457.61 38.45 458.39 31.36 463.11 24.92 471.61 24.06 472.74 23.22 473.88 22.38 475.02 17.91 481.02 13.65 486.82 8.04 490.74L8.04 507C10.0976 506.92 12.1266 506.491 14.04 505.73 15.3104 505.182 16.6613 504.845 18.04 504.73 19.4187 504.845 20.7696 505.182 22.04 505.73 23.9408 506.486 25.9559 506.916 28 507 30.0576 506.92 32.0866 506.491 34 505.73 35.2704 505.182 36.6213 504.845 38 504.73 39.3753 504.825 40.7262 505.143 42 505.67 43.9084 506.456 45.9383 506.906 48 507 50.0576 506.92 52.0866 506.491 54 505.73 55.2704 505.182 56.6213 504.845 58 504.73 59.3787 504.845 60.7296 505.182 62 505.73 63.9134 506.491 65.9424 506.92 68 507 70.0576 506.92 72.0866 506.491 74 505.73 75.2704 505.182 76.6213 504.845 78 504.73 79.3753 504.825 80.7262 505.143 82 505.67 83.9084 506.456 85.9383 506.906 88 507L88 501C86.6247 500.905 85.2738 500.587 84 500.06Z" stroke="#FFFFFF" fill="#003031"/></g></svg>