<svg width="96" height="96" xmlns="http://www.w3.org/2000/svg" xmlns:xlink="http://www.w3.org/1999/xlink" xml:space="preserve" overflow="hidden"><defs><clipPath id="clip0"><rect x="904" y="440" width="96" height="96"/></clipPath></defs><g clip-path="url(#clip0)" transform="translate(-904 -440)"><path d="M982 510.79C979.942 510.87 977.913 511.299 976 512.06 974.726 512.587 973.375 512.905 972 513 970.625 512.905 969.274 512.587 968 512.06 966.087 511.299 964.058 510.87 962 510.79 959.942 510.87 957.913 511.299 956 512.06 954.726 512.587 953.375 512.905 952 513 950.625 512.905 949.274 512.587 948 512.06 946.087 511.299 944.058 510.87 942 510.79 939.942 510.87 937.913 511.299 936 512.06 934.726 512.587 933.375 512.905 932 513 930.625 512.905 929.274 512.587 928 512.06 926.087 511.299 924.058 510.87 922 510.79 919.942 510.87 917.913 511.299 916 512.06 914.726 512.587 913.375 512.905 912 513L912 519C914.058 518.92 916.087 518.491 918 517.73 919.27 517.182 920.621 516.845 922 516.73 923.379 516.845 924.73 517.182 926 517.73 927.913 518.491 929.942 518.92 932 519 934.058 518.92 936.087 518.491 938 517.73 939.27 517.182 940.621 516.845 942 516.73 943.375 516.825 944.726 517.143 946 517.67 947.908 518.456 949.938 518.906 952 519 954.058 518.92 956.087 518.491 958 517.73 959.27 517.182 960.621 516.845 962 516.73 963.379 516.845 964.73 517.182 966 517.73 967.913 518.491 969.942 518.92 972 519 974.058 518.92 976.087 518.491 978 517.73 979.27 517.182 980.621 516.845 982 516.73 983.375 516.825 984.726 517.143 986 517.67 987.908 518.456 989.938 518.906 992 519L992 513C990.625 512.905 989.274 512.587 988 512.06 986.087 511.299 984.058 510.87 982 510.79Z" stroke="#FFFFFF" fill="#4AF8FC"/><path d="M988 500.06C986.087 499.299 984.058 498.87 982 498.79 979.942 498.87 977.913 499.299 976 500.06 974.726 500.587 973.375 500.905 972 501 970.625 500.905 969.274 500.587 968 500.06 967.305 499.788 966.594 499.561 965.87 499.38 957.53 495.59 953.27 487.96 953.87 482.06 954.37 476.97 957.43 471.24 962.97 470.67 968.31 470.073 973.2 473.714 974.16 479 974.294 479.898 975.095 480.542 976 480.48 976.48 480.436 976.923 480.202 977.23 479.83 977.527 479.454 977.661 478.975 977.6 478.5 975.81 465.15 963.91 456.18 950 457.61 942.45 458.39 935.36 463.11 928.92 471.61 928.06 472.74 927.22 473.88 926.38 475.02 921.91 481.02 917.65 486.82 912.04 490.74L912.04 507C914.098 506.92 916.127 506.491 918.04 505.73 919.31 505.182 920.661 504.845 922.04 504.73 923.419 504.845 924.77 505.182 926.04 505.73 927.941 506.486 929.956 506.916 932 507 934.058 506.92 936.087 506.491 938 505.73 939.27 505.182 940.621 504.845 942 504.73 943.375 504.825 944.726 505.143 946 505.67 947.908 506.456 949.938 506.906 952 507 954.058 506.92 956.087 506.491 958 505.73 959.27 505.182 960.621 504.845 962 504.73 963.379 504.845 964.73 505.182 966 505.73 967.913 506.491 969.942 506.92 972 507 974.058 506.92 976.087 506.491 978 505.73 979.27 505.182 980.621 504.845 982 504.73 983.375 504.825 984.726 505.143 986 505.67 987.908 506.456 989.938 506.906 992 507L992 501C990.625 500.905 989.274 500.587 988 500.06Z" stroke="#FFFFFF" fill="#4AF8FC"/></g></svg>