<svg width="96" height="96" xmlns="http://www.w3.org/2000/svg" xmlns:xlink="http://www.w3.org/1999/xlink" xml:space="preserve" overflow="hidden"><defs><clipPath id="clip0"><rect x="202" y="0" width="96" height="96"/></clipPath></defs><g clip-path="url(#clip0)" transform="translate(-202 0)"><path d="M280 70.79C277.942 70.8697 275.913 71.2992 274 72.06 272.726 72.5872 271.375 72.9046 270 73 268.625 72.9046 267.274 72.5872 266 72.06 264.087 71.2992 262.058 70.8697 260 70.79 257.942 70.8697 255.913 71.2992 254 72.06 252.726 72.5872 251.375 72.9046 250 73 248.625 72.9046 247.274 72.5872 246 72.06 244.087 71.2992 242.058 70.8697 240 70.79 237.942 70.8697 235.913 71.2992 234 72.06 232.726 72.5872 231.375 72.9046 230 73 228.625 72.9046 227.274 72.5872 226 72.06 224.087 71.2992 222.058 70.8697 220 70.79 217.942 70.8697 215.913 71.2992 214 72.06 212.726 72.5872 211.375 72.9046 210 73L210 79C212.058 78.9203 214.087 78.4908 216 77.73 217.27 77.1824 218.621 76.8446 220 76.73 221.379 76.8446 222.73 77.1824 224 77.73 225.913 78.4908 227.942 78.9203 230 79 232.058 78.9203 234.087 78.4908 236 77.73 237.27 77.1824 238.621 76.8446 240 76.73 241.375 76.8254 242.726 77.1428 244 77.67 245.908 78.4559 247.938 78.9059 250 79 252.058 78.9203 254.087 78.4908 256 77.73 257.27 77.1824 258.621 76.8447 260 76.73 261.379 76.8447 262.73 77.1824 264 77.73 265.913 78.4908 267.942 78.9203 270 79 272.058 78.9203 274.087 78.4908 276 77.73 277.27 77.1824 278.621 76.8447 280 76.73 281.375 76.8254 282.726 77.1428 284 77.67 285.908 78.4559 287.938 78.9059 290 79L290 73C288.625 72.9046 287.274 72.5872 286 72.06 284.087 71.2992 282.058 70.8697 280 70.79Z" stroke="#FFFFFF" fill="#014B6F"/><path d="M286 60.06C284.087 59.2992 282.058 58.8697 280 58.79 277.942 58.8697 275.913 59.2992 274 60.06 272.726 60.5872 271.375 60.9046 270 61 268.625 60.9046 267.274 60.5872 266 60.06 265.305 59.7884 264.594 59.5612 263.87 59.38 255.53 55.59 251.27 47.96 251.87 42.06 252.37 36.97 255.43 31.24 260.97 30.67 266.31 30.0735 271.2 33.7136 272.16 39 272.294 39.8977 273.095 40.542 274 40.48 274.48 40.4358 274.923 40.2019 275.23 39.83 275.527 39.4545 275.661 38.9751 275.6 38.5 273.81 25.15 261.91 16.18 248 17.61 240.45 18.39 233.36 23.11 226.92 31.61 226.06 32.74 225.22 33.88 224.38 35.02 219.91 41.02 215.65 46.82 210.04 50.74L210.04 67C212.098 66.9203 214.127 66.4908 216.04 65.73 217.31 65.1824 218.661 64.8446 220.04 64.73 221.419 64.8446 222.77 65.1824 224.04 65.73 225.941 66.4864 227.956 66.9158 230 67 232.058 66.9203 234.087 66.4908 236 65.73 237.27 65.1824 238.621 64.8446 240 64.73 241.375 64.8254 242.726 65.1428 244 65.67 245.908 66.4559 247.938 66.9059 250 67 252.058 66.9203 254.087 66.4908 256 65.73 257.27 65.1824 258.621 64.8447 260 64.73 261.379 64.8447 262.73 65.1824 264 65.73 265.913 66.4908 267.942 66.9203 270 67 272.058 66.9203 274.087 66.4908 276 65.73 277.27 65.1824 278.621 64.8447 280 64.73 281.375 64.8254 282.726 65.1428 284 65.67 285.908 66.4559 287.938 66.9059 290 67L290 61C288.625 60.9046 287.274 60.5872 286 60.06Z" stroke="#FFFFFF" fill="#014B6F"/></g></svg>