<svg width="96" height="96" xmlns="http://www.w3.org/2000/svg" xmlns:xlink="http://www.w3.org/1999/xlink" xml:space="preserve" overflow="hidden"><defs><clipPath id="clip0"><rect x="202" y="168" width="96" height="96"/></clipPath></defs><g clip-path="url(#clip0)" transform="translate(-202 -168)"><path d="M280 238.79C277.942 238.87 275.913 239.299 274 240.06 272.726 240.587 271.375 240.905 270 241 268.625 240.905 267.274 240.587 266 240.06 264.087 239.299 262.058 238.87 260 238.79 257.942 238.87 255.913 239.299 254 240.06 252.726 240.587 251.375 240.905 250 241 248.625 240.905 247.274 240.587 246 240.06 244.087 239.299 242.058 238.87 240 238.79 237.942 238.87 235.913 239.299 234 240.06 232.726 240.587 231.375 240.905 230 241 228.625 240.905 227.274 240.587 226 240.06 224.087 239.299 222.058 238.87 220 238.79 217.942 238.87 215.913 239.299 214 240.06 212.726 240.587 211.375 240.905 210 241L210 247C212.058 246.92 214.087 246.491 216 245.73 217.27 245.182 218.621 244.845 220 244.73 221.379 244.845 222.73 245.182 224 245.73 225.913 246.491 227.942 246.92 230 247 232.058 246.92 234.087 246.491 236 245.73 237.27 245.182 238.621 244.845 240 244.73 241.375 244.825 242.726 245.143 244 245.67 245.908 246.456 247.938 246.906 250 247 252.058 246.92 254.087 246.491 256 245.73 257.27 245.182 258.621 244.845 260 244.73 261.379 244.845 262.73 245.182 264 245.73 265.913 246.491 267.942 246.92 270 247 272.058 246.92 274.087 246.491 276 245.73 277.27 245.182 278.621 244.845 280 244.73 281.375 244.825 282.726 245.143 284 245.67 285.908 246.456 287.938 246.906 290 247L290 241C288.625 240.905 287.274 240.587 286 240.06 284.087 239.299 282.058 238.87 280 238.79Z" stroke="#FFFFFF" fill="#036CA1"/><path d="M286 228.06C284.087 227.299 282.058 226.87 280 226.79 277.942 226.87 275.913 227.299 274 228.06 272.726 228.587 271.375 228.905 270 229 268.625 228.905 267.274 228.587 266 228.06 265.305 227.788 264.594 227.561 263.87 227.38 255.53 223.59 251.27 215.96 251.87 210.06 252.37 204.97 255.43 199.24 260.97 198.67 266.31 198.074 271.2 201.714 272.16 207 272.294 207.898 273.095 208.542 274 208.48 274.48 208.436 274.923 208.202 275.23 207.83 275.527 207.454 275.661 206.975 275.6 206.5 273.81 193.15 261.91 184.18 248 185.61 240.45 186.39 233.36 191.11 226.92 199.61 226.06 200.74 225.22 201.88 224.38 203.02 219.91 209.02 215.65 214.82 210.04 218.74L210.04 235C212.098 234.92 214.127 234.491 216.04 233.73 217.31 233.182 218.661 232.845 220.04 232.73 221.419 232.845 222.77 233.182 224.04 233.73 225.941 234.486 227.956 234.916 230 235 232.058 234.92 234.087 234.491 236 233.73 237.27 233.182 238.621 232.845 240 232.73 241.375 232.825 242.726 233.143 244 233.67 245.908 234.456 247.938 234.906 250 235 252.058 234.92 254.087 234.491 256 233.73 257.27 233.182 258.621 232.845 260 232.73 261.379 232.845 262.73 233.182 264 233.73 265.913 234.491 267.942 234.92 270 235 272.058 234.92 274.087 234.491 276 233.73 277.27 233.182 278.621 232.845 280 232.73 281.375 232.825 282.726 233.143 284 233.67 285.908 234.456 287.938 234.906 290 235L290 229C288.625 228.905 287.274 228.587 286 228.06Z" stroke="#FFFFFF" fill="#036CA1"/></g></svg>