<svg width="96" height="96" xmlns="http://www.w3.org/2000/svg" xmlns:xlink="http://www.w3.org/1999/xlink" xml:space="preserve" overflow="hidden"><defs><clipPath id="clip0"><rect x="101" y="528" width="96" height="96"/></clipPath></defs><g clip-path="url(#clip0)" transform="translate(-101 -528)"><path d="M179 598.79C176.942 598.87 174.913 599.299 173 600.06 171.726 600.587 170.375 600.905 169 601 167.625 600.905 166.274 600.587 165 600.06 163.087 599.299 161.058 598.87 159 598.79 156.942 598.87 154.913 599.299 153 600.06 151.726 600.587 150.375 600.905 149 601 147.625 600.905 146.274 600.587 145 600.06 143.087 599.299 141.058 598.87 139 598.79 136.942 598.87 134.913 599.299 133 600.06 131.726 600.587 130.375 600.905 129 601 127.625 600.905 126.274 600.587 125 600.06 123.087 599.299 121.058 598.87 119 598.79 116.942 598.87 114.913 599.299 113 600.06 111.726 600.587 110.375 600.905 109 601L109 607C111.058 606.92 113.087 606.491 115 605.73 116.27 605.182 117.621 604.845 119 604.73 120.379 604.845 121.73 605.182 123 605.73 124.913 606.491 126.942 606.92 129 607 131.058 606.92 133.087 606.491 135 605.73 136.27 605.182 137.621 604.845 139 604.73 140.375 604.825 141.726 605.143 143 605.67 144.908 606.456 146.938 606.906 149 607 151.058 606.92 153.087 606.491 155 605.73 156.27 605.182 157.621 604.845 159 604.73 160.379 604.845 161.73 605.182 163 605.73 164.913 606.491 166.942 606.92 169 607 171.058 606.92 173.087 606.491 175 605.73 176.27 605.182 177.621 604.845 179 604.73 180.375 604.825 181.726 605.143 183 605.67 184.908 606.456 186.938 606.906 189 607L189 601C187.625 600.905 186.274 600.587 185 600.06 183.087 599.299 181.058 598.87 179 598.79Z" stroke="#FFFFFF" fill="#0398C4"/><path d="M185 588.06C183.087 587.299 181.058 586.87 179 586.79 176.942 586.87 174.913 587.299 173 588.06 171.726 588.587 170.375 588.905 169 589 167.625 588.905 166.274 588.587 165 588.06 164.305 587.788 163.594 587.561 162.87 587.38 154.53 583.59 150.27 575.96 150.87 570.06 151.37 564.97 154.43 559.24 159.97 558.67 165.31 558.073 170.2 561.714 171.16 567 171.294 567.898 172.095 568.542 173 568.48 173.48 568.436 173.923 568.202 174.23 567.83 174.527 567.454 174.661 566.975 174.6 566.5 172.81 553.15 160.91 544.18 147 545.61 139.45 546.39 132.36 551.11 125.92 559.61 125.06 560.74 124.22 561.88 123.38 563.02 118.91 569.02 114.65 574.82 109.04 578.74L109.04 595C111.098 594.92 113.127 594.491 115.04 593.73 116.31 593.182 117.661 592.845 119.04 592.73 120.419 592.845 121.77 593.182 123.04 593.73 124.941 594.486 126.956 594.916 129 595 131.058 594.92 133.087 594.491 135 593.73 136.27 593.182 137.621 592.845 139 592.73 140.375 592.825 141.726 593.143 143 593.67 144.908 594.456 146.938 594.906 149 595 151.058 594.92 153.087 594.491 155 593.73 156.27 593.182 157.621 592.845 159 592.73 160.379 592.845 161.73 593.182 163 593.73 164.913 594.491 166.942 594.92 169 595 171.058 594.92 173.087 594.491 175 593.73 176.27 593.182 177.621 592.845 179 592.73 180.375 592.825 181.726 593.143 183 593.67 184.908 594.456 186.938 594.906 189 595L189 589C187.625 588.905 186.274 588.587 185 588.06Z" stroke="#FFFFFF" fill="#0398C4"/></g></svg>