<svg width="96" height="96" xmlns="http://www.w3.org/2000/svg" xmlns:xlink="http://www.w3.org/1999/xlink" xml:space="preserve" overflow="hidden"><defs><clipPath id="clip0"><rect x="606" y="440" width="96" height="96"/></clipPath></defs><g clip-path="url(#clip0)" transform="translate(-606 -440)"><path d="M684 510.79C681.942 510.87 679.913 511.299 678 512.06 676.726 512.587 675.375 512.905 674 513 672.625 512.905 671.274 512.587 670 512.06 668.087 511.299 666.058 510.87 664 510.79 661.942 510.87 659.913 511.299 658 512.06 656.726 512.587 655.375 512.905 654 513 652.625 512.905 651.274 512.587 650 512.06 648.087 511.299 646.058 510.87 644 510.79 641.942 510.87 639.913 511.299 638 512.06 636.726 512.587 635.375 512.905 634 513 632.625 512.905 631.274 512.587 630 512.06 628.087 511.299 626.058 510.87 624 510.79 621.942 510.87 619.913 511.299 618 512.06 616.726 512.587 615.375 512.905 614 513L614 519C616.058 518.92 618.087 518.491 620 517.73 621.27 517.182 622.621 516.845 624 516.73 625.379 516.845 626.73 517.182 628 517.73 629.913 518.491 631.942 518.92 634 519 636.058 518.92 638.087 518.491 640 517.73 641.27 517.182 642.621 516.845 644 516.73 645.375 516.825 646.726 517.143 648 517.67 649.908 518.456 651.938 518.906 654 519 656.058 518.92 658.087 518.491 660 517.73 661.27 517.182 662.621 516.845 664 516.73 665.379 516.845 666.73 517.182 668 517.73 669.913 518.491 671.942 518.92 674 519 676.058 518.92 678.087 518.491 680 517.73 681.27 517.182 682.621 516.845 684 516.73 685.375 516.825 686.726 517.143 688 517.67 689.908 518.456 691.938 518.906 694 519L694 513C692.625 512.905 691.274 512.587 690 512.06 688.087 511.299 686.058 510.87 684 510.79Z" stroke="#FFFFFF" fill="#03BFC4"/><path d="M690 500.06C688.087 499.299 686.058 498.87 684 498.79 681.942 498.87 679.913 499.299 678 500.06 676.726 500.587 675.375 500.905 674 501 672.625 500.905 671.274 500.587 670 500.06 669.305 499.788 668.594 499.561 667.87 499.38 659.53 495.59 655.27 487.96 655.87 482.06 656.37 476.97 659.43 471.24 664.97 470.67 670.31 470.073 675.2 473.714 676.16 479 676.294 479.898 677.095 480.542 678 480.48 678.48 480.436 678.923 480.202 679.23 479.83 679.527 479.454 679.661 478.975 679.6 478.5 677.81 465.15 665.91 456.18 652 457.61 644.45 458.39 637.36 463.11 630.92 471.61 630.06 472.74 629.22 473.88 628.38 475.02 623.91 481.02 619.65 486.82 614.04 490.74L614.04 507C616.098 506.92 618.127 506.491 620.04 505.73 621.31 505.182 622.661 504.845 624.04 504.73 625.419 504.845 626.77 505.182 628.04 505.73 629.941 506.486 631.956 506.916 634 507 636.058 506.92 638.087 506.491 640 505.73 641.27 505.182 642.621 504.845 644 504.73 645.375 504.825 646.726 505.143 648 505.67 649.908 506.456 651.938 506.906 654 507 656.058 506.92 658.087 506.491 660 505.73 661.27 505.182 662.621 504.845 664 504.73 665.379 504.845 666.73 505.182 668 505.73 669.913 506.491 671.942 506.92 674 507 676.058 506.92 678.087 506.491 680 505.73 681.27 505.182 682.621 504.845 684 504.73 685.375 504.825 686.726 505.143 688 505.67 689.908 506.456 691.938 506.906 694 507L694 501C692.625 500.905 691.274 500.587 690 500.06Z" stroke="#FFFFFF" fill="#03BFC4"/></g></svg>