<svg width="96" height="96" xmlns="http://www.w3.org/2000/svg" xmlns:xlink="http://www.w3.org/1999/xlink" xml:space="preserve" overflow="hidden"><defs><clipPath id="clip0"><rect x="505" y="352" width="96" height="96"/></clipPath></defs><g clip-path="url(#clip0)" transform="translate(-505 -352)"><path d="M583 422.79C580.942 422.87 578.913 423.299 577 424.06 575.726 424.587 574.375 424.905 573 425 571.625 424.905 570.274 424.587 569 424.06 567.087 423.299 565.058 422.87 563 422.79 560.942 422.87 558.913 423.299 557 424.06 555.726 424.587 554.375 424.905 553 425 551.625 424.905 550.274 424.587 549 424.06 547.087 423.299 545.058 422.87 543 422.79 540.942 422.87 538.913 423.299 537 424.06 535.726 424.587 534.375 424.905 533 425 531.625 424.905 530.274 424.587 529 424.06 527.087 423.299 525.058 422.87 523 422.79 520.942 422.87 518.913 423.299 517 424.06 515.726 424.587 514.375 424.905 513 425L513 431C515.058 430.92 517.087 430.491 519 429.73 520.27 429.182 521.621 428.845 523 428.73 524.379 428.845 525.73 429.182 527 429.73 528.913 430.491 530.942 430.92 533 431 535.058 430.92 537.087 430.491 539 429.73 540.27 429.182 541.621 428.845 543 428.73 544.375 428.825 545.726 429.143 547 429.67 548.908 430.456 550.938 430.906 553 431 555.058 430.92 557.087 430.491 559 429.73 560.27 429.182 561.621 428.845 563 428.73 564.379 428.845 565.73 429.182 567 429.73 568.913 430.491 570.942 430.92 573 431 575.058 430.92 577.087 430.491 579 429.73 580.27 429.182 581.621 428.845 583 428.73 584.375 428.825 585.726 429.143 587 429.67 588.908 430.456 590.938 430.906 593 431L593 425C591.625 424.905 590.274 424.587 589 424.06 587.087 423.299 585.058 422.87 583 422.79Z" stroke="#FFFFFF" fill="#3551DB"/><path d="M589 412.06C587.087 411.299 585.058 410.87 583 410.79 580.942 410.87 578.913 411.299 577 412.06 575.726 412.587 574.375 412.905 573 413 571.625 412.905 570.274 412.587 569 412.06 568.305 411.788 567.594 411.561 566.87 411.38 558.53 407.59 554.27 399.96 554.87 394.06 555.37 388.97 558.43 383.24 563.97 382.67 569.31 382.073 574.2 385.714 575.16 391 575.294 391.898 576.095 392.542 577 392.48 577.48 392.436 577.923 392.202 578.23 391.83 578.527 391.454 578.661 390.975 578.6 390.5 576.81 377.15 564.91 368.18 551 369.61 543.45 370.39 536.36 375.11 529.92 383.61 529.06 384.74 528.22 385.88 527.38 387.02 522.91 393.02 518.65 398.82 513.04 402.74L513.04 419C515.098 418.92 517.127 418.491 519.04 417.73 520.31 417.182 521.661 416.845 523.04 416.73 524.419 416.845 525.77 417.182 527.04 417.73 528.941 418.486 530.956 418.916 533 419 535.058 418.92 537.087 418.491 539 417.73 540.27 417.182 541.621 416.845 543 416.73 544.375 416.825 545.726 417.143 547 417.67 548.908 418.456 550.938 418.906 553 419 555.058 418.92 557.087 418.491 559 417.73 560.27 417.182 561.621 416.845 563 416.73 564.379 416.845 565.73 417.182 567 417.73 568.913 418.491 570.942 418.92 573 419 575.058 418.92 577.087 418.491 579 417.73 580.27 417.182 581.621 416.845 583 416.73 584.375 416.825 585.726 417.143 587 417.67 588.908 418.456 590.938 418.906 593 419L593 413C591.625 412.905 590.274 412.587 589 412.06Z" stroke="#FFFFFF" fill="#3551DB"/></g></svg>