<svg width="96" height="96" xmlns="http://www.w3.org/2000/svg" xmlns:xlink="http://www.w3.org/1999/xlink" xml:space="preserve" overflow="hidden"><defs><clipPath id="clip0"><rect x="803" y="352" width="96" height="96"/></clipPath></defs><g clip-path="url(#clip0)" transform="translate(-803 -352)"><path d="M881 422.79C878.942 422.87 876.913 423.299 875 424.06 873.726 424.587 872.375 424.905 871 425 869.625 424.905 868.274 424.587 867 424.06 865.087 423.299 863.058 422.87 861 422.79 858.942 422.87 856.913 423.299 855 424.06 853.726 424.587 852.375 424.905 851 425 849.625 424.905 848.274 424.587 847 424.06 845.087 423.299 843.058 422.87 841 422.79 838.942 422.87 836.913 423.299 835 424.06 833.726 424.587 832.375 424.905 831 425 829.625 424.905 828.274 424.587 827 424.06 825.087 423.299 823.058 422.87 821 422.79 818.942 422.87 816.913 423.299 815 424.06 813.726 424.587 812.375 424.905 811 425L811 431C813.058 430.92 815.087 430.491 817 429.73 818.27 429.182 819.621 428.845 821 428.73 822.379 428.845 823.73 429.182 825 429.73 826.913 430.491 828.942 430.92 831 431 833.058 430.92 835.087 430.491 837 429.73 838.27 429.182 839.621 428.845 841 428.73 842.375 428.825 843.726 429.143 845 429.67 846.908 430.456 848.938 430.906 851 431 853.058 430.92 855.087 430.491 857 429.73 858.27 429.182 859.621 428.845 861 428.73 862.379 428.845 863.73 429.182 865 429.73 866.913 430.491 868.942 430.92 871 431 873.058 430.92 875.087 430.491 877 429.73 878.27 429.182 879.621 428.845 881 428.73 882.375 428.825 883.726 429.143 885 429.67 886.908 430.456 888.938 430.906 891 431L891 425C889.625 424.905 888.274 424.587 887 424.06 885.087 423.299 883.058 422.87 881 422.79Z" stroke="#FFFFFF" fill="#9AA8ED"/><path d="M887 412.06C885.087 411.299 883.058 410.87 881 410.79 878.942 410.87 876.913 411.299 875 412.06 873.726 412.587 872.375 412.905 871 413 869.625 412.905 868.274 412.587 867 412.06 866.305 411.788 865.594 411.561 864.87 411.38 856.53 407.59 852.27 399.96 852.87 394.06 853.37 388.97 856.43 383.24 861.97 382.67 867.31 382.073 872.2 385.714 873.16 391 873.294 391.898 874.095 392.542 875 392.48 875.48 392.436 875.923 392.202 876.23 391.83 876.527 391.454 876.661 390.975 876.6 390.5 874.81 377.15 862.91 368.18 849 369.61 841.45 370.39 834.36 375.11 827.92 383.61 827.06 384.74 826.22 385.88 825.38 387.02 820.91 393.02 816.65 398.82 811.04 402.74L811.04 419C813.098 418.92 815.127 418.491 817.04 417.73 818.31 417.182 819.661 416.845 821.04 416.73 822.419 416.845 823.77 417.182 825.04 417.73 826.941 418.486 828.956 418.916 831 419 833.058 418.92 835.087 418.491 837 417.73 838.27 417.182 839.621 416.845 841 416.73 842.375 416.825 843.726 417.143 845 417.67 846.908 418.456 848.938 418.906 851 419 853.058 418.92 855.087 418.491 857 417.73 858.27 417.182 859.621 416.845 861 416.73 862.379 416.845 863.73 417.182 865 417.73 866.913 418.491 868.942 418.92 871 419 873.058 418.92 875.087 418.491 877 417.73 878.27 417.182 879.621 416.845 881 416.73 882.375 416.825 883.726 417.143 885 417.67 886.908 418.456 888.938 418.906 891 419L891 413C889.625 412.905 888.274 412.587 887 412.06Z" stroke="#FFFFFF" fill="#9AA8ED"/></g></svg>