<svg width="96" height="96" xmlns="http://www.w3.org/2000/svg" xmlns:xlink="http://www.w3.org/1999/xlink" xml:space="preserve" overflow="hidden"><defs><clipPath id="clip0"><rect x="202" y="88" width="96" height="96"/></clipPath></defs><g clip-path="url(#clip0)" transform="translate(-202 -88)"><path d="M280 158.79C277.942 158.87 275.913 159.299 274 160.06 272.726 160.587 271.375 160.905 270 161 268.625 160.905 267.274 160.587 266 160.06 264.087 159.299 262.058 158.87 260 158.79 257.942 158.87 255.913 159.299 254 160.06 252.726 160.587 251.375 160.905 250 161 248.625 160.905 247.274 160.587 246 160.06 244.087 159.299 242.058 158.87 240 158.79 237.942 158.87 235.913 159.299 234 160.06 232.726 160.587 231.375 160.905 230 161 228.625 160.905 227.274 160.587 226 160.06 224.087 159.299 222.058 158.87 220 158.79 217.942 158.87 215.913 159.299 214 160.06 212.726 160.587 211.375 160.905 210 161L210 167C212.058 166.92 214.087 166.491 216 165.73 217.27 165.182 218.621 164.845 220 164.73 221.379 164.845 222.73 165.182 224 165.73 225.913 166.491 227.942 166.92 230 167 232.058 166.92 234.087 166.491 236 165.73 237.27 165.182 238.621 164.845 240 164.73 241.375 164.825 242.726 165.143 244 165.67 245.908 166.456 247.938 166.906 250 167 252.058 166.92 254.087 166.491 256 165.73 257.27 165.182 258.621 164.845 260 164.73 261.379 164.845 262.73 165.182 264 165.73 265.913 166.491 267.942 166.92 270 167 272.058 166.92 274.087 166.491 276 165.73 277.27 165.182 278.621 164.845 280 164.73 281.375 164.825 282.726 165.143 284 165.67 285.908 166.456 287.938 166.906 290 167L290 161C288.625 160.905 287.274 160.587 286 160.06 284.087 159.299 282.058 158.87 280 158.79Z" stroke="#FFFFFF" fill="#9ACBE3"/><path d="M286 148.06C284.087 147.299 282.058 146.87 280 146.79 277.942 146.87 275.913 147.299 274 148.06 272.726 148.587 271.375 148.905 270 149 268.625 148.905 267.274 148.587 266 148.06 265.305 147.788 264.594 147.561 263.87 147.38 255.53 143.59 251.27 135.96 251.87 130.06 252.37 124.97 255.43 119.24 260.97 118.67 266.31 118.074 271.2 121.714 272.16 127 272.294 127.898 273.095 128.542 274 128.48 274.48 128.436 274.923 128.202 275.23 127.83 275.527 127.454 275.661 126.975 275.6 126.5 273.81 113.15 261.91 104.18 248 105.61 240.45 106.39 233.36 111.11 226.92 119.61 226.06 120.74 225.22 121.88 224.38 123.02 219.91 129.02 215.65 134.82 210.04 138.74L210.04 155C212.098 154.92 214.127 154.491 216.04 153.73 217.31 153.182 218.661 152.845 220.04 152.73 221.419 152.845 222.77 153.182 224.04 153.73 225.941 154.486 227.956 154.916 230 155 232.058 154.92 234.087 154.491 236 153.73 237.27 153.182 238.621 152.845 240 152.73 241.375 152.825 242.726 153.143 244 153.67 245.908 154.456 247.938 154.906 250 155 252.058 154.92 254.087 154.491 256 153.73 257.27 153.182 258.621 152.845 260 152.73 261.379 152.845 262.73 153.182 264 153.73 265.913 154.491 267.942 154.92 270 155 272.058 154.92 274.087 154.491 276 153.73 277.27 153.182 278.621 152.845 280 152.73 281.375 152.825 282.726 153.143 284 153.67 285.908 154.456 287.938 154.906 290 155L290 149C288.625 148.905 287.274 148.587 286 148.06Z" stroke="#FFFFFF" fill="#9ACBE3"/></g></svg>