<svg xmlns="http://www.w3.org/2000/svg" xmlns:xlink="http://www.w3.org/1999/xlink" width="96" height="96" overflow="hidden" xml:space="preserve"><defs><clipPath id="clip0"><rect width="96" height="96" x="202" y="440"/></clipPath></defs><g clip-path="url(#clip0)" transform="translate(-202 -440)"><path fill="#016062" stroke="#FFF" d="M280 510.79C277.942 510.87 275.913 511.299 274 512.06 272.726 512.587 271.375 512.905 270 513 268.625 512.905 267.274 512.587 266 512.06 264.087 511.299 262.058 510.87 260 510.79 257.942 510.87 255.913 511.299 254 512.06 252.726 512.587 251.375 512.905 250 513 248.625 512.905 247.274 512.587 246 512.06 244.087 511.299 242.058 510.87 240 510.79 237.942 510.87 235.913 511.299 234 512.06 232.726 512.587 231.375 512.905 230 513 228.625 512.905 227.274 512.587 226 512.06 224.087 511.299 222.058 510.87 220 510.79 217.942 510.87 215.913 511.299 214 512.06 212.726 512.587 211.375 512.905 210 513L210 519C212.058 518.92 214.087 518.491 216 517.73 217.27 517.182 218.621 516.845 220 516.73 221.379 516.845 222.73 517.182 224 517.73 225.913 518.491 227.942 518.92 230 519 232.058 518.92 234.087 518.491 236 517.73 237.27 517.182 238.621 516.845 240 516.73 241.375 516.825 242.726 517.143 244 517.67 245.908 518.456 247.938 518.906 250 519 252.058 518.92 254.087 518.491 256 517.73 257.27 517.182 258.621 516.845 260 516.73 261.379 516.845 262.73 517.182 264 517.73 265.913 518.491 267.942 518.92 270 519 272.058 518.92 274.087 518.491 276 517.73 277.27 517.182 278.621 516.845 280 516.73 281.375 516.825 282.726 517.143 284 517.67 285.908 518.456 287.938 518.906 290 519L290 513C288.625 512.905 287.274 512.587 286 512.06 284.087 511.299 282.058 510.87 280 510.79Z"/><path fill="#016062" stroke="#FFF" d="M286 500.06C284.087 499.299 282.058 498.87 280 498.79 277.942 498.87 275.913 499.299 274 500.06 272.726 500.587 271.375 500.905 270 501 268.625 500.905 267.274 500.587 266 500.06 265.305 499.788 264.594 499.561 263.87 499.38 255.53 495.59 251.27 487.96 251.87 482.06 252.37 476.97 255.43 471.24 260.97 470.67 266.31 470.073 271.2 473.714 272.16 479 272.294 479.898 273.095 480.542 274 480.48 274.48 480.436 274.923 480.202 275.23 479.83 275.527 479.454 275.661 478.975 275.6 478.5 273.81 465.15 261.91 456.18 248 457.61 240.45 458.39 233.36 463.11 226.92 471.61 226.06 472.74 225.22 473.88 224.38 475.02 219.91 481.02 215.65 486.82 210.04 490.74L210.04 507C212.098 506.92 214.127 506.491 216.04 505.73 217.31 505.182 218.661 504.845 220.04 504.73 221.419 504.845 222.77 505.182 224.04 505.73 225.941 506.486 227.956 506.916 230 507 232.058 506.92 234.087 506.491 236 505.73 237.27 505.182 238.621 504.845 240 504.73 241.375 504.825 242.726 505.143 244 505.67 245.908 506.456 247.938 506.906 250 507 252.058 506.92 254.087 506.491 256 505.73 257.27 505.182 258.621 504.845 260 504.73 261.379 504.845 262.73 505.182 264 505.73 265.913 506.491 267.942 506.92 270 507 272.058 506.92 274.087 506.491 276 505.73 277.27 505.182 278.621 504.845 280 504.73 281.375 504.825 282.726 505.143 284 505.67 285.908 506.456 287.938 506.906 290 507L290 501C288.625 500.905 287.274 500.587 286 500.06Z"/></g></svg>