<svg width="96" height="96" xmlns="http://www.w3.org/2000/svg" xmlns:xlink="http://www.w3.org/1999/xlink" xml:space="preserve" overflow="hidden"><defs><clipPath id="clip0"><rect x="303" y="0" width="96" height="96"/></clipPath></defs><g clip-path="url(#clip0)" transform="translate(-303 0)"><path d="M381 70.79C378.942 70.8697 376.913 71.2992 375 72.06 373.726 72.5872 372.375 72.9046 371 73 369.625 72.9046 368.274 72.5872 367 72.06 365.087 71.2992 363.058 70.8697 361 70.79 358.942 70.8697 356.913 71.2992 355 72.06 353.726 72.5872 352.375 72.9046 351 73 349.625 72.9046 348.274 72.5872 347 72.06 345.087 71.2992 343.058 70.8697 341 70.79 338.942 70.8697 336.913 71.2992 335 72.06 333.726 72.5872 332.375 72.9046 331 73 329.625 72.9046 328.274 72.5872 327 72.06 325.087 71.2992 323.058 70.8697 321 70.79 318.942 70.8697 316.913 71.2992 315 72.06 313.726 72.5872 312.375 72.9046 311 73L311 79C313.058 78.9203 315.087 78.4908 317 77.73 318.27 77.1824 319.621 76.8446 321 76.73 322.379 76.8446 323.73 77.1824 325 77.73 326.913 78.4908 328.942 78.9203 331 79 333.058 78.9203 335.087 78.4908 337 77.73 338.27 77.1824 339.621 76.8446 341 76.73 342.375 76.8254 343.726 77.1428 345 77.67 346.908 78.4559 348.938 78.9059 351 79 353.058 78.9203 355.087 78.4908 357 77.73 358.27 77.1824 359.621 76.8447 361 76.73 362.379 76.8447 363.73 77.1824 365 77.73 366.913 78.4908 368.942 78.9203 371 79 373.058 78.9203 375.087 78.4908 377 77.73 378.27 77.1824 379.621 76.8447 381 76.73 382.375 76.8254 383.726 77.1428 385 77.67 386.908 78.4559 388.938 78.9059 391 79L391 73C389.625 72.9046 388.274 72.5872 387 72.06 385.087 71.2992 383.058 70.8697 381 70.79Z" stroke="#FFFFFF" fill="#025782"/><path d="M387 60.06C385.087 59.2992 383.058 58.8697 381 58.79 378.942 58.8697 376.913 59.2992 375 60.06 373.726 60.5872 372.375 60.9046 371 61 369.625 60.9046 368.274 60.5872 367 60.06 366.305 59.7884 365.594 59.5612 364.87 59.38 356.53 55.59 352.27 47.96 352.87 42.06 353.37 36.97 356.43 31.24 361.97 30.67 367.31 30.0735 372.2 33.7136 373.16 39 373.294 39.8977 374.095 40.542 375 40.48 375.48 40.4358 375.923 40.2019 376.23 39.83 376.527 39.4545 376.661 38.9751 376.6 38.5 374.81 25.15 362.91 16.18 349 17.61 341.45 18.39 334.36 23.11 327.92 31.61 327.06 32.74 326.22 33.88 325.38 35.02 320.91 41.02 316.65 46.82 311.04 50.74L311.04 67C313.098 66.9203 315.127 66.4908 317.04 65.73 318.31 65.1824 319.661 64.8446 321.04 64.73 322.419 64.8446 323.77 65.1824 325.04 65.73 326.941 66.4864 328.956 66.9158 331 67 333.058 66.9203 335.087 66.4908 337 65.73 338.27 65.1824 339.621 64.8446 341 64.73 342.375 64.8254 343.726 65.1428 345 65.67 346.908 66.4559 348.938 66.9059 351 67 353.058 66.9203 355.087 66.4908 357 65.73 358.27 65.1824 359.621 64.8447 361 64.73 362.379 64.8447 363.73 65.1824 365 65.73 366.913 66.4908 368.942 66.9203 371 67 373.058 66.9203 375.087 66.4908 377 65.73 378.27 65.1824 379.621 64.8447 381 64.73 382.375 64.8254 383.726 65.1428 385 65.67 386.908 66.4559 388.938 66.9059 391 67L391 61C389.625 60.9046 388.274 60.5872 387 60.06Z" stroke="#FFFFFF" fill="#025782"/></g></svg>