<svg width="96" height="96" xmlns="http://www.w3.org/2000/svg" xmlns:xlink="http://www.w3.org/1999/xlink" xml:space="preserve" overflow="hidden"><defs><clipPath id="clip0"><rect x="101" y="256" width="96" height="96"/></clipPath></defs><g clip-path="url(#clip0)" transform="translate(-101 -256)"><path d="M179 326.79C176.942 326.87 174.913 327.299 173 328.06 171.726 328.587 170.375 328.905 169 329 167.625 328.905 166.274 328.587 165 328.06 163.087 327.299 161.058 326.87 159 326.79 156.942 326.87 154.913 327.299 153 328.06 151.726 328.587 150.375 328.905 149 329 147.625 328.905 146.274 328.587 145 328.06 143.087 327.299 141.058 326.87 139 326.79 136.942 326.87 134.913 327.299 133 328.06 131.726 328.587 130.375 328.905 129 329 127.625 328.905 126.274 328.587 125 328.06 123.087 327.299 121.058 326.87 119 326.79 116.942 326.87 114.913 327.299 113 328.06 111.726 328.587 110.375 328.905 109 329L109 335C111.058 334.92 113.087 334.491 115 333.73 116.27 333.182 117.621 332.845 119 332.73 120.379 332.845 121.73 333.182 123 333.73 124.913 334.491 126.942 334.92 129 335 131.058 334.92 133.087 334.491 135 333.73 136.27 333.182 137.621 332.845 139 332.73 140.375 332.825 141.726 333.143 143 333.67 144.908 334.456 146.938 334.906 149 335 151.058 334.92 153.087 334.491 155 333.73 156.27 333.182 157.621 332.845 159 332.73 160.379 332.845 161.73 333.182 163 333.73 164.913 334.491 166.942 334.92 169 335 171.058 334.92 173.087 334.491 175 333.73 176.27 333.182 177.621 332.845 179 332.73 180.375 332.825 181.726 333.143 183 333.67 184.908 334.456 186.938 334.906 189 335L189 329C187.625 328.905 186.274 328.587 185 328.06 183.087 327.299 181.058 326.87 179 326.79Z" stroke="#FFFFFF" fill="#9EDDFD"/><path d="M185 316.06C183.087 315.299 181.058 314.87 179 314.79 176.942 314.87 174.913 315.299 173 316.06 171.726 316.587 170.375 316.905 169 317 167.625 316.905 166.274 316.587 165 316.06 164.305 315.788 163.594 315.561 162.87 315.38 154.53 311.59 150.27 303.96 150.87 298.06 151.37 292.97 154.43 287.24 159.97 286.67 165.31 286.073 170.2 289.714 171.16 295 171.294 295.898 172.095 296.542 173 296.48 173.48 296.436 173.923 296.202 174.23 295.83 174.527 295.454 174.661 294.975 174.6 294.5 172.81 281.15 160.91 272.18 147 273.61 139.45 274.39 132.36 279.11 125.92 287.61 125.06 288.74 124.22 289.88 123.38 291.02 118.91 297.02 114.65 302.82 109.04 306.74L109.04 323C111.098 322.92 113.127 322.491 115.04 321.73 116.31 321.182 117.661 320.845 119.04 320.73 120.419 320.845 121.77 321.182 123.04 321.73 124.941 322.486 126.956 322.916 129 323 131.058 322.92 133.087 322.491 135 321.73 136.27 321.182 137.621 320.845 139 320.73 140.375 320.825 141.726 321.143 143 321.67 144.908 322.456 146.938 322.906 149 323 151.058 322.92 153.087 322.491 155 321.73 156.27 321.182 157.621 320.845 159 320.73 160.379 320.845 161.73 321.182 163 321.73 164.913 322.491 166.942 322.92 169 323 171.058 322.92 173.087 322.491 175 321.73 176.27 321.182 177.621 320.845 179 320.73 180.375 320.825 181.726 321.143 183 321.67 184.908 322.456 186.938 322.906 189 323L189 317C187.625 316.905 186.274 316.587 185 316.06Z" stroke="#FFFFFF" fill="#9EDDFD"/></g></svg>