<svg width="96" height="96" xmlns="http://www.w3.org/2000/svg" xmlns:xlink="http://www.w3.org/1999/xlink" xml:space="preserve" overflow="hidden"><defs><clipPath id="clip0"><rect x="106" y="440" width="96" height="96"/></clipPath></defs><g clip-path="url(#clip0)" transform="translate(-106 -440)"><path d="M184 510.79C181.942 510.87 179.913 511.299 178 512.06 176.726 512.587 175.375 512.905 174 513 172.625 512.905 171.274 512.587 170 512.06 168.087 511.299 166.058 510.87 164 510.79 161.942 510.87 159.913 511.299 158 512.06 156.726 512.587 155.375 512.905 154 513 152.625 512.905 151.274 512.587 150 512.06 148.087 511.299 146.058 510.87 144 510.79 141.942 510.87 139.913 511.299 138 512.06 136.726 512.587 135.375 512.905 134 513 132.625 512.905 131.274 512.587 130 512.06 128.087 511.299 126.058 510.87 124 510.79 121.942 510.87 119.913 511.299 118 512.06 116.726 512.587 115.375 512.905 114 513L114 519C116.058 518.92 118.087 518.491 120 517.73 121.27 517.182 122.621 516.845 124 516.73 125.379 516.845 126.73 517.182 128 517.73 129.913 518.491 131.942 518.92 134 519 136.058 518.92 138.087 518.491 140 517.73 141.27 517.182 142.621 516.845 144 516.73 145.375 516.825 146.726 517.143 148 517.67 149.908 518.456 151.938 518.906 154 519 156.058 518.92 158.087 518.491 160 517.73 161.27 517.182 162.621 516.845 164 516.73 165.379 516.845 166.73 517.182 168 517.73 169.913 518.491 171.942 518.92 174 519 176.058 518.92 178.087 518.491 180 517.73 181.27 517.182 182.621 516.845 184 516.73 185.375 516.825 186.726 517.143 188 517.67 189.908 518.456 191.938 518.906 194 519L194 513C192.625 512.905 191.274 512.587 190 512.06 188.087 511.299 186.058 510.87 184 510.79Z" stroke="#FFFFFF" fill="#014849"/><path d="M190 500.06C188.087 499.299 186.058 498.87 184 498.79 181.942 498.87 179.913 499.299 178 500.06 176.726 500.587 175.375 500.905 174 501 172.625 500.905 171.274 500.587 170 500.06 169.305 499.788 168.594 499.561 167.87 499.38 159.53 495.59 155.27 487.96 155.87 482.06 156.37 476.97 159.43 471.24 164.97 470.67 170.31 470.073 175.2 473.714 176.16 479 176.294 479.898 177.095 480.542 178 480.48 178.48 480.436 178.923 480.202 179.23 479.83 179.527 479.454 179.661 478.975 179.6 478.5 177.81 465.15 165.91 456.18 152 457.61 144.45 458.39 137.36 463.11 130.92 471.61 130.06 472.74 129.22 473.88 128.38 475.02 123.91 481.02 119.65 486.82 114.04 490.74L114.04 507C116.098 506.92 118.127 506.491 120.04 505.73 121.31 505.182 122.661 504.845 124.04 504.73 125.419 504.845 126.77 505.182 128.04 505.73 129.941 506.486 131.956 506.916 134 507 136.058 506.92 138.087 506.491 140 505.73 141.27 505.182 142.621 504.845 144 504.73 145.375 504.825 146.726 505.143 148 505.67 149.908 506.456 151.938 506.906 154 507 156.058 506.92 158.087 506.491 160 505.73 161.27 505.182 162.621 504.845 164 504.73 165.379 504.845 166.73 505.182 168 505.73 169.913 506.491 171.942 506.92 174 507 176.058 506.92 178.087 506.491 180 505.73 181.27 505.182 182.621 504.845 184 504.73 185.375 504.825 186.726 505.143 188 505.67 189.908 506.456 191.938 506.906 194 507L194 501C192.625 500.905 191.274 500.587 190 500.06Z" stroke="#FFFFFF" fill="#014849"/></g></svg>