<svg width="96" height="96" xmlns="http://www.w3.org/2000/svg" xmlns:xlink="http://www.w3.org/1999/xlink" xml:space="preserve" overflow="hidden"><defs><clipPath id="clip0"><rect x="303" y="440" width="96" height="96"/></clipPath></defs><g clip-path="url(#clip0)" transform="translate(-303 -440)"><path d="M381 510.79C378.942 510.87 376.913 511.299 375 512.06 373.726 512.587 372.375 512.905 371 513 369.625 512.905 368.274 512.587 367 512.06 365.087 511.299 363.058 510.87 361 510.79 358.942 510.87 356.913 511.299 355 512.06 353.726 512.587 352.375 512.905 351 513 349.625 512.905 348.274 512.587 347 512.06 345.087 511.299 343.058 510.87 341 510.79 338.942 510.87 336.913 511.299 335 512.06 333.726 512.587 332.375 512.905 331 513 329.625 512.905 328.274 512.587 327 512.06 325.087 511.299 323.058 510.87 321 510.79 318.942 510.87 316.913 511.299 315 512.06 313.726 512.587 312.375 512.905 311 513L311 519C313.058 518.92 315.087 518.491 317 517.73 318.27 517.182 319.621 516.845 321 516.73 322.379 516.845 323.73 517.182 325 517.73 326.913 518.491 328.942 518.92 331 519 333.058 518.92 335.087 518.491 337 517.73 338.27 517.182 339.621 516.845 341 516.73 342.375 516.825 343.726 517.143 345 517.67 346.908 518.456 348.938 518.906 351 519 353.058 518.92 355.087 518.491 357 517.73 358.27 517.182 359.621 516.845 361 516.73 362.379 516.845 363.73 517.182 365 517.73 366.913 518.491 368.942 518.92 371 519 373.058 518.92 375.087 518.491 377 517.73 378.27 517.182 379.621 516.845 381 516.73 382.375 516.825 383.726 517.143 385 517.67 386.908 518.456 388.938 518.906 391 519L391 513C389.625 512.905 388.274 512.587 387 512.06 385.087 511.299 383.058 510.87 381 510.79Z" stroke="#FFFFFF" fill="#02787B"/><path d="M387 500.06C385.087 499.299 383.058 498.87 381 498.79 378.942 498.87 376.913 499.299 375 500.06 373.726 500.587 372.375 500.905 371 501 369.625 500.905 368.274 500.587 367 500.06 366.305 499.788 365.594 499.561 364.87 499.38 356.53 495.59 352.27 487.96 352.87 482.06 353.37 476.97 356.43 471.24 361.97 470.67 367.31 470.073 372.2 473.714 373.16 479 373.294 479.898 374.095 480.542 375 480.48 375.48 480.436 375.923 480.202 376.23 479.83 376.527 479.454 376.661 478.975 376.6 478.5 374.81 465.15 362.91 456.18 349 457.61 341.45 458.39 334.36 463.11 327.92 471.61 327.06 472.74 326.22 473.88 325.38 475.02 320.91 481.02 316.65 486.82 311.04 490.74L311.04 507C313.098 506.92 315.127 506.491 317.04 505.73 318.31 505.182 319.661 504.845 321.04 504.73 322.419 504.845 323.77 505.182 325.04 505.73 326.941 506.486 328.956 506.916 331 507 333.058 506.92 335.087 506.491 337 505.73 338.27 505.182 339.621 504.845 341 504.73 342.375 504.825 343.726 505.143 345 505.67 346.908 506.456 348.938 506.906 351 507 353.058 506.92 355.087 506.491 357 505.73 358.27 505.182 359.621 504.845 361 504.73 362.379 504.845 363.73 505.182 365 505.73 366.913 506.491 368.942 506.92 371 507 373.058 506.92 375.087 506.491 377 505.73 378.27 505.182 379.621 504.845 381 504.73 382.375 504.825 383.726 505.143 385 505.67 386.908 506.456 388.938 506.906 391 507L391 501C389.625 500.905 388.274 500.587 387 500.06Z" stroke="#FFFFFF" fill="#02787B"/></g></svg>