<svg width="96" height="96" xmlns="http://www.w3.org/2000/svg" xmlns:xlink="http://www.w3.org/1999/xlink" xml:space="preserve" overflow="hidden"><defs><clipPath id="clip0"><rect x="303" y="528" width="96" height="96"/></clipPath></defs><g clip-path="url(#clip0)" transform="translate(-303 -528)"><path d="M381 598.79C378.942 598.87 376.913 599.299 375 600.06 373.726 600.587 372.375 600.905 371 601 369.625 600.905 368.274 600.587 367 600.06 365.087 599.299 363.058 598.87 361 598.79 358.942 598.87 356.913 599.299 355 600.06 353.726 600.587 352.375 600.905 351 601 349.625 600.905 348.274 600.587 347 600.06 345.087 599.299 343.058 598.87 341 598.79 338.942 598.87 336.913 599.299 335 600.06 333.726 600.587 332.375 600.905 331 601 329.625 600.905 328.274 600.587 327 600.06 325.087 599.299 323.058 598.87 321 598.79 318.942 598.87 316.913 599.299 315 600.06 313.726 600.587 312.375 600.905 311 601L311 607C313.058 606.92 315.087 606.491 317 605.73 318.27 605.182 319.621 604.845 321 604.73 322.379 604.845 323.73 605.182 325 605.73 326.913 606.491 328.942 606.92 331 607 333.058 606.92 335.087 606.491 337 605.73 338.27 605.182 339.621 604.845 341 604.73 342.375 604.825 343.726 605.143 345 605.67 346.908 606.456 348.938 606.906 351 607 353.058 606.92 355.087 606.491 357 605.73 358.27 605.182 359.621 604.845 361 604.73 362.379 604.845 363.73 605.182 365 605.73 366.913 606.491 368.942 606.92 371 607 373.058 606.92 375.087 606.491 377 605.73 378.27 605.182 379.621 604.845 381 604.73 382.375 604.825 383.726 605.143 385 605.67 386.908 606.456 388.938 606.906 391 607L391 601C389.625 600.905 388.274 600.587 387 600.06 385.087 599.299 383.058 598.87 381 598.79Z" stroke="#FFFFFF" fill="#04BFF6"/><path d="M387 588.06C385.087 587.299 383.058 586.87 381 586.79 378.942 586.87 376.913 587.299 375 588.06 373.726 588.587 372.375 588.905 371 589 369.625 588.905 368.274 588.587 367 588.06 366.305 587.788 365.594 587.561 364.87 587.38 356.53 583.59 352.27 575.96 352.87 570.06 353.37 564.97 356.43 559.24 361.97 558.67 367.31 558.073 372.2 561.714 373.16 567 373.294 567.898 374.095 568.542 375 568.48 375.48 568.436 375.923 568.202 376.23 567.83 376.527 567.454 376.661 566.975 376.6 566.5 374.81 553.15 362.91 544.18 349 545.61 341.45 546.39 334.36 551.11 327.92 559.61 327.06 560.74 326.22 561.88 325.38 563.02 320.91 569.02 316.65 574.82 311.04 578.74L311.04 595C313.098 594.92 315.127 594.491 317.04 593.73 318.31 593.182 319.661 592.845 321.04 592.73 322.419 592.845 323.77 593.182 325.04 593.73 326.941 594.486 328.956 594.916 331 595 333.058 594.92 335.087 594.491 337 593.73 338.27 593.182 339.621 592.845 341 592.73 342.375 592.825 343.726 593.143 345 593.67 346.908 594.456 348.938 594.906 351 595 353.058 594.92 355.087 594.491 357 593.73 358.27 593.182 359.621 592.845 361 592.73 362.379 592.845 363.73 593.182 365 593.73 366.913 594.491 368.942 594.92 371 595 373.058 594.92 375.087 594.491 377 593.73 378.27 593.182 379.621 592.845 381 592.73 382.375 592.825 383.726 593.143 385 593.67 386.908 594.456 388.938 594.906 391 595L391 589C389.625 588.905 388.274 588.587 387 588.06Z" stroke="#FFFFFF" fill="#04BFF6"/></g></svg>