<svg width="96" height="96" xmlns="http://www.w3.org/2000/svg" xmlns:xlink="http://www.w3.org/1999/xlink" xml:space="preserve" overflow="hidden"><defs><clipPath id="clip0"><rect x="404" y="352" width="96" height="96"/></clipPath></defs><g clip-path="url(#clip0)" transform="translate(-404 -352)"><path d="M482 422.79C479.942 422.87 477.913 423.299 476 424.06 474.726 424.587 473.375 424.905 472 425 470.625 424.905 469.274 424.587 468 424.06 466.087 423.299 464.058 422.87 462 422.79 459.942 422.87 457.913 423.299 456 424.06 454.726 424.587 453.375 424.905 452 425 450.625 424.905 449.274 424.587 448 424.06 446.087 423.299 444.058 422.87 442 422.79 439.942 422.87 437.913 423.299 436 424.06 434.726 424.587 433.375 424.905 432 425 430.625 424.905 429.274 424.587 428 424.06 426.087 423.299 424.058 422.87 422 422.79 419.942 422.87 417.913 423.299 416 424.06 414.726 424.587 413.375 424.905 412 425L412 431C414.058 430.92 416.087 430.491 418 429.73 419.27 429.182 420.621 428.845 422 428.73 423.379 428.845 424.73 429.182 426 429.73 427.913 430.491 429.942 430.92 432 431 434.058 430.92 436.087 430.491 438 429.73 439.27 429.182 440.621 428.845 442 428.73 443.375 428.825 444.726 429.143 446 429.67 447.908 430.456 449.938 430.906 452 431 454.058 430.92 456.087 430.491 458 429.73 459.27 429.182 460.621 428.845 462 428.73 463.379 428.845 464.73 429.182 466 429.73 467.913 430.491 469.942 430.92 472 431 474.058 430.92 476.087 430.491 478 429.73 479.27 429.182 480.621 428.845 482 428.73 483.375 428.825 484.726 429.143 486 429.67 487.908 430.456 489.938 430.906 492 431L492 425C490.625 424.905 489.274 424.587 488 424.06 486.087 423.299 484.058 422.87 482 422.79Z" stroke="#FFFFFF" fill="#0222BD"/><path d="M488 412.06C486.087 411.299 484.058 410.87 482 410.79 479.942 410.87 477.913 411.299 476 412.06 474.726 412.587 473.375 412.905 472 413 470.625 412.905 469.274 412.587 468 412.06 467.305 411.788 466.594 411.561 465.87 411.38 457.53 407.59 453.27 399.96 453.87 394.06 454.37 388.97 457.43 383.24 462.97 382.67 468.31 382.073 473.2 385.714 474.16 391 474.294 391.898 475.095 392.542 476 392.48 476.48 392.436 476.923 392.202 477.23 391.83 477.527 391.454 477.661 390.975 477.6 390.5 475.81 377.15 463.91 368.18 450 369.61 442.45 370.39 435.36 375.11 428.92 383.61 428.06 384.74 427.22 385.88 426.38 387.02 421.91 393.02 417.65 398.82 412.04 402.74L412.04 419C414.098 418.92 416.127 418.491 418.04 417.73 419.31 417.182 420.661 416.845 422.04 416.73 423.419 416.845 424.77 417.182 426.04 417.73 427.941 418.486 429.956 418.916 432 419 434.058 418.92 436.087 418.491 438 417.73 439.27 417.182 440.621 416.845 442 416.73 443.375 416.825 444.726 417.143 446 417.67 447.908 418.456 449.938 418.906 452 419 454.058 418.92 456.087 418.491 458 417.73 459.27 417.182 460.621 416.845 462 416.73 463.379 416.845 464.73 417.182 466 417.73 467.913 418.491 469.942 418.92 472 419 474.058 418.92 476.087 418.491 478 417.73 479.27 417.182 480.621 416.845 482 416.73 483.375 416.825 484.726 417.143 486 417.67 487.908 418.456 489.938 418.906 492 419L492 413C490.625 412.905 489.274 412.587 488 412.06Z" stroke="#FFFFFF" fill="#0222BD"/></g></svg>