<svg width="96" height="96" xmlns="http://www.w3.org/2000/svg" xmlns:xlink="http://www.w3.org/1999/xlink" xml:space="preserve" overflow="hidden"><defs><clipPath id="clip0"><rect x="904" y="168" width="96" height="96"/></clipPath></defs><g clip-path="url(#clip0)" transform="translate(-904 -168)"><path d="M982 238.79C979.942 238.87 977.913 239.299 976 240.06 974.726 240.587 973.375 240.905 972 241 970.625 240.905 969.274 240.587 968 240.06 966.087 239.299 964.058 238.87 962 238.79 959.942 238.87 957.913 239.299 956 240.06 954.726 240.587 953.375 240.905 952 241 950.625 240.905 949.274 240.587 948 240.06 946.087 239.299 944.058 238.87 942 238.79 939.942 238.87 937.913 239.299 936 240.06 934.726 240.587 933.375 240.905 932 241 930.625 240.905 929.274 240.587 928 240.06 926.087 239.299 924.058 238.87 922 238.79 919.942 238.87 917.913 239.299 916 240.06 914.726 240.587 913.375 240.905 912 241L912 247C914.058 246.92 916.087 246.491 918 245.73 919.27 245.182 920.621 244.845 922 244.73 923.379 244.845 924.73 245.182 926 245.73 927.913 246.491 929.942 246.92 932 247 934.058 246.92 936.087 246.491 938 245.73 939.27 245.182 940.621 244.845 942 244.73 943.375 244.825 944.726 245.143 946 245.67 947.908 246.456 949.938 246.906 952 247 954.058 246.92 956.087 246.491 958 245.73 959.27 245.182 960.621 244.845 962 244.73 963.379 244.845 964.73 245.182 966 245.73 967.913 246.491 969.942 246.92 972 247 974.058 246.92 976.087 246.491 978 245.73 979.27 245.182 980.621 244.845 982 244.73 983.375 244.825 984.726 245.143 986 245.67 987.908 246.456 989.938 246.906 992 247L992 241C990.625 240.905 989.274 240.587 988 240.06 986.087 239.299 984.058 238.87 982 238.79Z" stroke="#FFFFFF" fill="#6ECDFC"/><path d="M988 228.06C986.087 227.299 984.058 226.87 982 226.79 979.942 226.87 977.913 227.299 976 228.06 974.726 228.587 973.375 228.905 972 229 970.625 228.905 969.274 228.587 968 228.06 967.305 227.788 966.594 227.561 965.87 227.38 957.53 223.59 953.27 215.96 953.87 210.06 954.37 204.97 957.43 199.24 962.97 198.67 968.31 198.074 973.2 201.714 974.16 207 974.294 207.898 975.095 208.542 976 208.48 976.48 208.436 976.923 208.202 977.23 207.83 977.527 207.454 977.661 206.975 977.6 206.5 975.81 193.15 963.91 184.18 950 185.61 942.45 186.39 935.36 191.11 928.92 199.61 928.06 200.74 927.22 201.88 926.38 203.02 921.91 209.02 917.65 214.82 912.04 218.74L912.04 235C914.098 234.92 916.127 234.491 918.04 233.73 919.31 233.182 920.661 232.845 922.04 232.73 923.419 232.845 924.77 233.182 926.04 233.73 927.941 234.486 929.956 234.916 932 235 934.058 234.92 936.087 234.491 938 233.73 939.27 233.182 940.621 232.845 942 232.73 943.375 232.825 944.726 233.143 946 233.67 947.908 234.456 949.938 234.906 952 235 954.058 234.92 956.087 234.491 958 233.73 959.27 233.182 960.621 232.845 962 232.73 963.379 232.845 964.73 233.182 966 233.73 967.913 234.491 969.942 234.92 972 235 974.058 234.92 976.087 234.491 978 233.73 979.27 233.182 980.621 232.845 982 232.73 983.375 232.825 984.726 233.143 986 233.67 987.908 234.456 989.938 234.906 992 235L992 229C990.625 228.905 989.274 228.587 988 228.06Z" stroke="#FFFFFF" fill="#6ECDFC"/></g></svg>