<?xml version="1.0" encoding="UTF-8"?><svg xmlns="http://www.w3.org/2000/svg" viewBox="0 0 128 128"><defs><style>.cls-1{fill:#008d36;}.cls-2{fill:#d9d9d9;}.cls-3{fill:#93c01f;}</style></defs><g id="cuadrobase"><g><rect class="cls-3" x="2" y="2" width="124" height="124" rx="22" ry="22"/><path class="cls-2" d="M104,4c11.03,0,20,8.97,20,20V104c0,11.03-8.97,20-20,20H24c-11.03,0-20-8.97-20-20V24C4,12.97,12.97,4,24,4H104m0-4H24C10.75,0,0,10.75,0,24V104c0,13.25,10.75,24,24,24H104c13.25,0,24-10.75,24-24V24c0-13.25-10.75-24-24-24h0Z"/></g></g><g id="figura"><g><polygon class="cls-1" points="73.62 24.4 72.81 24.75 73.66 25.88 101.7 15.37 101.7 42.85 103.11 42.93 106.81 9.65 73.62 24.4"/><polygon class="cls-1" points="60.63 47.22 74.24 45.28 72.02 49.46 83.43 47.31 83.43 48.56 85.42 48.17 85.52 38.41 59.55 46.44 60.63 47.22"/><path class="cls-1" d="M94.05,99.57h.3s.08-72.82,.08-72.82l1.61-1.84-52.9,18.89v3.58h0v22.81c-3.86-.81-8.79-.03-13.4,2.16-5.03,2.39-8.87,6.15-10,9.81-.59,1.89-.44,3.68,.42,5.17,1.29,2.22,4,3.56,7.64,3.77,3.51,.2,7.51-.66,11.26-2.44,6.04-2.87,10.08-7.44,10.34-11.6h.07l.06-12.99,39.98-9.86,.08,36.83c-4.14-1.78-10.22-1.09-15.91,1.89-3.92,2.05-7.13,4.93-9.02,8.09-1.96,3.27-2.31,6.47-.97,9.02,1.34,2.55,4.17,4.08,7.97,4.33,.36,.02,.72,.03,1.08,.03,3.41,0,7.17-1,10.71-2.85,5.61-2.94,9.7-7.59,10.6-11.99ZM49.56,57.74l.05-11.13,39.85-13.72,.04,17.92-39.94,6.92Z"/><path class="cls-1" d="M109.22,96.59c-1.59,6.51-7.44,13.94-15.65,19.85l-2.39,1.72,2.97-.5c.84-.14,1.69-.34,2.54-.6,1.59-.49,3.17-1.17,4.65-2.03,3.7-2.14,6.72-5.23,8.49-8.7,1.77-3.47,2.15-7.01,1.06-9.97l-1.67,.23Z"/><path class="cls-1" d="M34.49,61.7l-1.86-.77c-2.35-.97-5.05-1.19-7.81-.64-7.32,1.47-13,7.88-12.93,14.6l.02,2.41,1.28-2.05c3.47-5.57,10.9-10.56,19.37-13.01l1.94-.56Z"/></g></g></svg>