<svg xmlns="http://www.w3.org/2000/svg" xmlns:xlink="http://www.w3.org/1999/xlink" width="128" height="129" overflow="hidden" xml:space="preserve"><defs><clipPath id="clip0"><rect width="128" height="129" x="712" y="136"/></clipPath></defs><g clip-path="url(#clip0)" transform="translate(-712 -136)"><path fill="#CF6" stroke="#FFF" stroke-width="1.333" d="M30.6667 10.8C28.4 10.8 26.6667 12.5333 26.6667 14.8L26.6667 117.467 34.6667 117.467 34.6667 14.8C34.6667 12.5333 32.9333 10.8 30.6667 10.8Z" transform="matrix(1 0 0 1.00781 712 136)"/><path fill="#CF6" stroke="#FFF" stroke-width="1.333" d="M56.9333 10.5333C45.2 10.5333 40 14.4 40 14.4L40 58.5333C40 58.5333 45.0667 54.6667 56.9333 54.6667 71.0667 54.6667 84.9333 62.4 101.333 54.9333L101.333 10.8C80.6667 16.9333 71.0667 10.5333 56.9333 10.5333Z" transform="matrix(1 0 0 1.00781 712 136)"/></g></svg>