<?xml version="1.0" encoding="UTF-8"?><svg xmlns="http://www.w3.org/2000/svg" viewBox="0 0 128 128"><defs><style>.cls-1{fill:#dddb00;}.cls-2{fill:#35a8e0;}</style></defs><g id="cuadrobase"><g><rect class="cls-1" x="2" y="2" width="124" height="124" rx="22" ry="22"/><path class="cls-2" d="M104,4c11.03,0,20,8.97,20,20V104c0,11.03-8.97,20-20,20H24c-11.03,0-20-8.97-20-20V24C4,12.97,12.97,4,24,4H104m0-4H24C10.75,0,0,10.75,0,24V104c0,13.25,10.75,24,24,24H104c13.25,0,24-10.75,24-24V24c0-13.25-10.75-24-24-24h0Z"/></g></g><g id="figura"><g><path class="cls-2" d="M105.61,105.19V17.41h.1v-4.11h-25.89v-2.16h-3.42v2.16h-24.8v-2.16h-3.42v2.16H22.29v4.11h.1V105.19H4.05c0,10.42,8.44,18.86,18.86,18.86H105.1c10.42,0,18.86-8.44,18.86-18.86h-18.35ZM76.4,17.41v25.12c-.09,.05-.19,.08-.27,.15-1.01,.83-.84,2.74,.27,4.61v2.13l-7.86,4h-9.71l-7.24-3.69v-1.87c1.32-1.98,1.57-4.1,.5-4.99-.15-.12-.32-.21-.5-.28V17.41h24.8Zm-4.11,53.42l-2.15-13.88,6.26-3.19v17.07h-4.11Zm-16.6,0h-4.09v-16.76l5.65,2.88-1.56,13.88ZM28.33,17.41h19.85v26.14c-.53,.39-1.05,.87-1.53,1.45-1.76,2.13-2.24,4.64-1.1,5.68l-.13,.25,2.76,1.41v18.5h-3.89v5.23h13.06v8.9c-.24,.75-.39,1.62-.39,2.55,0,2.82,1.27,5.1,2.84,5.1s2.84-2.28,2.84-5.1c0-.2-.02-.38-.03-.57h.04v-10.87h2.93v10.27c-.05,.38-.08,.77-.08,1.18,0,2.82,1.27,5.1,2.84,5.1s2.84-2.28,2.84-5.1c0-.81-.11-1.56-.3-2.24v-9.21h12.81v-5.23h-3.89v-18.81l2.54-1.29v-.02c.08-.05,.19-.09,.27-.16,1.21-1,.74-3.57-1.05-5.74-.54-.66-1.15-1.19-1.76-1.6V17.41h19.85V105.19H28.33V17.41Z"/><circle class="cls-2" cx="64.18" cy="42.73" r="7.94"/></g></g></svg>