<svg width="442" height="442" xmlns="http://www.w3.org/2000/svg" xmlns:xlink="http://www.w3.org/1999/xlink" xml:space="preserve" overflow="hidden"><defs><clipPath id="clip0"><rect x="1746" y="500" width="442" height="442"/></clipPath><clipPath id="clip1"><rect x="1886" y="609" width="165" height="165"/></clipPath><clipPath id="clip2"><rect x="1886" y="609" width="165" height="165"/></clipPath><clipPath id="clip3"><rect x="1886" y="609" width="165" height="165"/></clipPath></defs><g clip-path="url(#clip0)" transform="translate(-1746 -500)"><path d="M221 46.0416C221 46.0416 105.896 208.108 105.896 280.854 105.896 344.391 157.462 395.958 221 395.958 284.537 395.958 336.104 344.391 336.104 280.854 336.104 207.648 221 46.0416 221 46.0416Z" stroke="#FFFFFF" stroke-width="4.60416" fill="#6ECDFC" transform="matrix(-1 1.22465e-16 -1.22465e-16 -1 2188 942)"/><g clip-path="url(#clip1)"><g clip-path="url(#clip2)"><g clip-path="url(#clip3)"><path d="M1968 755.917C1968 755.917 2010.71 695.783 2010.71 668.792 2010.71 645.217 1991.58 626.083 1968 626.083 1944.43 626.083 1925.29 645.217 1925.29 668.792 1925.29 695.954 1968 755.917 1968 755.917Z" stroke="#FFFFFF" stroke-width="1.70823" fill="#FFFFFF"/></g></g></g></g></svg>