<?xml version="1.0" encoding="UTF-8"?><svg id="iconoAGUA" xmlns="http://www.w3.org/2000/svg" viewBox="0 0 128 128"><defs><style>.cls-1{fill:#fff;}.cls-2{fill:#f39200;}.cls-3{fill:#662483;}</style></defs><g><rect class="cls-2" x="2" y="2" width="124" height="124" rx="22" ry="22"/><path class="cls-3" d="M104,4c11.03,0,20,8.97,20,20V104c0,11.03-8.97,20-20,20H24c-11.03,0-20-8.97-20-20V24C4,12.97,12.97,4,24,4H104M104,0H24C10.75,0,0,10.75,0,24V104C0,117.25,10.75,128,24,128H104c13.25,0,24-10.75,24-24V24C128,10.75,117.25,0,104,0h0Z"/></g><g><path class="cls-1" d="M94.2,66.18v-8.85h-10.19v-10.93h3.57v-15.19h-3.9c-1.42-8.81-7.55-15.81-15.4-17.66v-4.49h-8.32v4.49c-7.85,1.86-13.97,8.85-15.4,17.66h-3.9v15.19h3.57v10.93h-10.19v8.85h-4.79v10.39h4.79v8.85h10.19v17.21h-2.51v4.42h-7.46v11.88h59.72v-11.88h-7.46v-4.42h-2.51v-17.21h10.19v-8.85h4.53v-10.39h-4.53Zm-29,19.22c-1.18,0-2.33-.17-3.42-.45-.55-.14-1.09-.32-1.61-.53-.69-.28-1.36-.61-1.99-1-4.05-2.46-6.77-6.96-6.77-12.12,0-7.79,6.18-14.1,13.79-14.1,2.57,0,4.96,.73,7.02,1.98,.52,.31,1.01,.66,1.48,1.04,.1,.08,.21,.16,.31,.25,3.04,2.59,4.97,6.48,4.97,10.84,0,7.79-6.18,14.1-13.79,14.1Z"/><circle class="cls-1" cx="65.31" cy="71.36" r="5.23"/></g></svg>