<svg xmlns="http://www.w3.org/2000/svg" viewBox="0 0 128 128"><defs><style>.cls-1{fill:#e61b72}.cls-2{fill:#ffec00}.cls-3{fill:#ececec}</style></defs><g id="cuadrobase"><g><rect width="124" height="124" x="2" y="2" class="cls-3" rx="22" ry="22"/><path d="M104,4c11.03,0,20,8.97,20,20V104c0,11.03-8.97,20-20,20H24c-11.03,0-20-8.97-20-20V24C4,12.97,12.97,4,24,4H104m0-4H24C10.75,0,0,10.75,0,24V104c0,13.25,10.75,24,24,24H104c13.25,0,24-10.75,24-24V24c0-13.25-10.75-24-24-24h0Z" class="cls-2"/></g></g><g id="figura"><g><path d="M51.18,29.27l11.23,6.72c4.83,2.89,11.52,1.83,14.86-2.35l2.49-3.13c3.34-4.19,2.12-9.98-2.72-12.87l-11.23-6.72c-4.83-2.89-11.52-1.83-14.86,2.35l-2.49,3.13c-3.34,4.19-2.12,9.98,2.72,12.87Zm-.28-14.77s7.75,4.01,13.34,7.14c2.83-3.18,6.73-6.94,6.73-6.94l1.09,.75s-2.75,4.22-5.22,7.68c.17,.1,.34,.2,.5,.29,5.15,3.08,11.19,8.16,11.19,8.16l-.99,.87s-7.42-4.08-12.47-6.92c-.12,.16-.24,.32-.36,.46-2.6,3.27-7.2,6.92-7.2,6.92l-1.04-.81s3.42-4.82,5.78-8.05c.04-.05,.08-.1,.11-.15-5.24-3.31-12.34-8.47-12.34-8.47l.89-.93Z" class="cls-1"/><path d="M73.85,40.28c-6.12,3.33-7.99,10.39-4.15,15.69l2.21,3.05c1.57,2.17,3.87,3.71,6.46,4.56l4.33-4.55h.27l4.71,4.58c.8-.26,1.59-.59,2.34-1l4.67-2.54c6.12-3.33,7.99-10.39,4.15-15.69l-2.21-3.05c-3.84-5.3-11.99-6.92-18.11-3.59l-4.67,2.54Zm5.46,13.05c-1.21-.92-4.23-3.22-4.23-3.22l3.18-1.99,7.63,12.41s-5.36-6.28-6.57-7.2Zm10.17-11.83l7.63,12.4s-5.36-6.28-6.57-7.2c-1.21-.92-4.23-3.22-4.23-3.22l3.18-1.99Zm-5.46,2.97l7.63,12.4s-5.36-6.28-6.57-7.2c-1.21-.92-4.23-3.22-4.23-3.22l3.18-1.99Z" class="cls-1"/><path d="M38.72,66.58l8.81-7.41c-1.27-2.3-2.64-4.83-3.81-7.08-5.13,1.58-11.75,3.13-11.75,3.13l-.53-1.34s5.83-2.65,10.81-4.7c-.09-.19-.19-.38-.27-.57-2.82-5.89-5.05-14.25-5.05-14.25l1.62-.32s4.33,8.14,7.23,13.73c.24-.09,.47-.18,.69-.26,4.98-1.79,12.21-2.85,12.21-2.85l.43,1.38s-6.93,2.87-11.64,4.75c-.07,.03-.15,.06-.22,.09,1.66,3.74,3.5,8.53,4.69,11.72l3.63,3.33c6.3-2.33,9.3-8.68,6.67-14.17l-6.15-12.85c-2.65-5.53-10.03-8.18-16.42-5.89l-4.77,1.71c-6.38,2.29-9.44,8.69-6.8,14.22l6.15,12.85c.96,2,2.53,3.61,4.46,4.76Z" class="cls-1"/><path d="M91.29,73.98l-3.6-3.51-4.71-4.58h-.27l-4.33,4.55-3.37,3.54-9.19-8.09h-.3l-8.66,8.09-1.29-1.18-3.63-3.33-3.92-3.59h-.31l-.17,.14-8.81,7.41-.64,.54-9.39-8.09h-.15v43.44c0,3.56,4.01,6.48,8.9,6.48h54.45c4.9,0,8.9-2.91,8.9-6.48v-43.44h-.16l-9.34,8.09Z" class="cls-1"/></g></g></svg>