<?xml version="1.0" encoding="UTF-8"?><svg xmlns="http://www.w3.org/2000/svg" viewBox="0 0 128 128"><defs><style>.cls-1{fill:#d9d9d9;}.cls-2{fill:#1d70b7;}.cls-3{fill:#35a8e0;}</style></defs><g id="cuadrobase"><g><rect class="cls-1" x="2" y="2" width="124" height="124" rx="22" ry="22"/><path class="cls-3" d="M104,4c11.03,0,20,8.97,20,20V104c0,11.03-8.97,20-20,20H24c-11.03,0-20-8.97-20-20V24C4,12.97,12.97,4,24,4H104m0-4H24C10.75,0,0,10.75,0,24V104c0,13.25,10.75,24,24,24H104c13.25,0,24-10.75,24-24V24c0-13.25-10.75-24-24-24h0Z"/></g></g><g id="figura"><g><path class="cls-2" d="M107.73,41.11h-20.84V20.27c0-6.28-5.14-11.43-11.43-11.43h-22.92c-6.29,0-11.43,5.14-11.43,11.43v20.84H20.27c-6.29,0-11.43,5.14-11.43,11.43v22.92c0,6.29,5.14,11.43,11.43,11.43h20.84v20.84c0,6.28,5.14,11.43,11.43,11.43h22.92c6.29,0,11.43-5.14,11.43-11.43v-20.84h20.84c6.29,0,11.43-5.14,11.43-11.43v-22.92c0-6.29-5.14-11.43-11.43-11.43Zm8.43,34.34c0,4.65-3.78,8.43-8.43,8.43h-23.84v23.84c0,4.65-3.78,8.43-8.43,8.43h-22.92c-4.65,0-8.43-3.78-8.43-8.43v-23.84H20.27c-4.65,0-8.43-3.78-8.43-8.43v-22.92c0-4.65,3.78-8.43,8.43-8.43h23.84V20.27c0-4.65,3.78-8.43,8.43-8.43h22.92c4.65,0,8.43,3.78,8.43,8.43v23.84h23.84c4.65,0,8.43,3.78,8.43,8.43v22.92Z"/><path class="cls-2" d="M59.79,56.65c2.76-.8,3.99-4.95,2.74-9.26-1.25-4.31-4.51-7.16-7.27-6.36-2.76,.8-3.99,4.95-2.74,9.26,1.25,4.31,4.51,7.16,7.27,6.36Z"/><path class="cls-2" d="M52.74,59.26c-2-3.41-5.47-5.08-7.75-3.74-2.29,1.34-2.52,5.19-.52,8.59,2,3.41,5.47,5.08,7.75,3.74,2.29-1.34,2.52-5.19,.52-8.59Z"/><path class="cls-2" d="M64.93,61.02c-5.61,0-16.03,12.22-12.66,17.16,3.37,4.95,9.21,.24,12.66,.24s9.28,4.71,12.66-.24c3.37-4.95-7.05-17.16-12.66-17.16Z"/><path class="cls-2" d="M69.05,56.65c2.76,.8,6.02-2.05,7.27-6.36,1.25-4.31,.02-8.46-2.74-9.26-2.76-.8-6.02,2.05-7.27,6.36-1.25,4.31-.02,8.46,2.74,9.26Z"/><path class="cls-2" d="M76.31,56.23c-2.49,3.06-2.85,6.9-.79,8.57,2.05,1.67,5.74,.55,8.23-2.52,2.49-3.06,2.85-6.9,.79-8.57-2.05-1.67-5.74-.54-8.23,2.52Z"/></g></g></svg>