<?xml version="1.0" encoding="UTF-8"?><svg id="iconoAGUA" xmlns="http://www.w3.org/2000/svg" viewBox="0 0 128 128"><defs><style>.cls-1{fill:#e6332a;}.cls-2,.cls-3,.cls-4{fill:#fff;}.cls-5{letter-spacing:0em;}.cls-3{fill-rule:evenodd;}.cls-4{font-family:MyriadPro-Regular, 'Myriad Pro';font-size:14px;}</style></defs><text class="cls-4" transform="translate(15.24 -11.99)"><tspan x="0" y="0">CLA</tspan><tspan class="cls-5" x="23.3" y="0">R</tspan><tspan x="30.87" y="0">O CHILE SA</tspan></text><g><rect class="cls-1" x="2" y="2" width="124" height="124" rx="22" ry="22"/><path class="cls-2" d="M104,4c11.03,0,20,8.97,20,20V104c0,11.03-8.97,20-20,20H24c-11.03,0-20-8.97-20-20V24C4,12.97,12.97,4,24,4H104M104,0H24C10.74,0,0,10.75,0,24V104C0,117.25,10.74,128,24,128H104c13.25,0,24-10.75,24-24V24C128,10.75,117.25,0,104,0h0Z"/></g><g><path class="cls-3" d="M94.24,56.32c-6.32,0-11.44,5.11-11.44,11.41s5.12,11.41,11.44,11.41,11.44-5.11,11.44-11.41-5.12-11.41-11.44-11.41Zm.03,17.48c-3.35,0-6.06-2.71-6.06-6.04s2.71-6.04,6.06-6.04,6.06,2.71,6.06,6.04-2.71,6.04-6.06,6.04Z"/><path class="cls-3" d="M75.32,60.39v-2.26h-5.61v21.21h5.72v-10.26c0-1.72,.29-2.86,.73-3.68,.78-1.47,1.89-2.84,6.16-2.84v-5.31c-2.33-.09-4.96,.54-7,3.14Z"/><path class="cls-3" d="M63.36,58.13c-1.81-.93-3.88-1.4-6.2-1.4-3.58,0-6.1,.94-7.57,2.83-.92,1.2-1.44,2.74-1.56,4.62h5.34c.13-.83,.39-1.48,.79-1.97,.55-.65,1.49-.98,2.81-.98,1.18,0,2.08,.17,2.69,.5,.61,.33,.92,.94,.92,1.82,0,.72-.4,1.25-1.19,1.59-.44,.2-1.18,.36-2.21,.49l-1.9,.24c-2.15,.28-3.78,.73-4.89,1.38-2.02,1.18-3.03,3.08-3.03,5.72,0,2.03,.63,3.6,1.89,4.71,1.26,1.11,2.85,1.66,4.78,1.66,2.46,0,4.91-.58,6.54-2.08,0,.48,0,1.49,0,1.96l5.5-.1s.01-5.22,.01-5.9v-9.83c0-2.58-.9-4.34-2.71-5.27Zm-2.81,12.2c-.04,1.87-.57,3.16-1.59,3.87-1.02,.71-2.13,1.06-3.34,1.06-.76,0-1.41-.21-1.94-.64-.53-.43-.8-1.12-.8-2.07,0-1.07,.44-1.87,1.31-2.38,.52-.3,1.36-.56,2.54-.77l1.26-.24c.63-.12,1.12-.25,1.49-.38,.36-.14,.72-.32,1.07-.54v2.08Z"/><rect class="cls-2" x="109.08" y="62.73" width="12.71" height="4.83"/><polygon class="cls-3" points="114.8 42.04 103.03 54.19 106.52 57.54 118.28 45.39 114.8 42.04"/><rect class="cls-2" x="92.29" y="38.41" width="4.84" height="12.67"/><path class="cls-3" d="M22.98,57.02c3.4,0,6.32,2.07,7.61,5.03h5.82c-1.47-6.14-6.92-10.7-13.43-10.7-7.63,0-13.82,6.27-13.82,14.01s6.19,14.01,13.82,14.01c6.3,0,11.61-4.28,13.28-10.12h-5.85c-1.37,2.75-4.18,4.64-7.43,4.64-4.6,0-8.32-3.78-8.32-8.44s3.73-8.44,8.32-8.44Z"/><rect class="cls-2" x="38.79" y="51.38" width="5.58" height="27.89"/></g></svg>