<?xml version="1.0" encoding="UTF-8"?><svg id="iconoAGUA" xmlns="http://www.w3.org/2000/svg" viewBox="0 0 128 128"><defs><style>.cls-1,.cls-2{fill:#fff;}.cls-3{fill:#2d519e;}.cls-2{fill-rule:evenodd;}</style></defs><g><rect class="cls-3" x="2" y="2" width="124" height="124" rx="22" ry="22"/><path class="cls-1" d="M104,4c11.03,0,20,8.97,20,20V104c0,11.03-8.97,20-20,20H24c-11.03,0-20-8.97-20-20V24C4,12.97,12.97,4,24,4H104M104,0H24C10.74,0,0,10.75,0,24V104C0,117.25,10.74,128,24,128H104c13.25,0,24-10.75,24-24V24C128,10.75,117.25,0,104,0h0Z"/></g><g><path class="cls-2" d="M98.08,33.18c-1.24-.74-2.8-.64-3.93,.26l-6.51,5.67c-1.02,.89-.94,2.25,.18,3.03,0,0,10.06,7,10.06,22.06,0,14.28-10.6,22.51-10.6,22.51-1.07,.83-1.11,2.23-.09,3.12l6.46,5.58c1.02,.89,2.8,1,3.94,.28,0,0,15.19-9.82,15.19-31.44s-14.69-31.07-14.69-31.07h0Z"/><path class="cls-2" d="M40.39,68.89s-1.82-.18-1.82,1.3c0,8.31,6.16,14.22,15.84,14.22,7.18,0,10.25-1.74,14.59-5,1.01-.76,2.1-1.48,2.92-.58,.57,.62,8.19,7.69,8.19,7.69,.96,.9,.69,1.97-.33,2.84s-12.41,9.76-25.51,9.76c-17.13,0-33.57-7.49-33.57-35.7,0-22.74,12.82-35.58,31.63-35.58,20.2,0,31.62,14.18,31.62,33.3v4.84c0,1.97-1.59,2.92-2.9,2.92H40.39Zm24.05-19.4c-1.95-4.14-5.98-7.23-12.12-7.23s-10.17,3.09-12.12,7.23c-1.07,2.35-1.65,4.9-1.68,7.49h27.59c-.14-3.07-.56-4.94-1.68-7.49Z"/></g></svg>