<?xml version="1.0" encoding="UTF-8"?><svg id="iconoAGUA" xmlns="http://www.w3.org/2000/svg" viewBox="0 0 128 128"><defs><style>.cls-1{fill:#fff;}.cls-2{fill:#2d2e83;}</style></defs><g><rect class="cls-2" x="2" y="2" width="124" height="124" rx="22" ry="22"/><path class="cls-1" d="M104,4c11.03,0,20,8.97,20,20V104c0,11.03-8.97,20-20,20H24c-11.03,0-20-8.97-20-20V24C4,12.97,12.97,4,24,4H104M104,0H24C10.74,0,0,10.75,0,24V104C0,117.25,10.74,128,24,128H104c13.25,0,24-10.75,24-24V24C128,10.75,117.25,0,104,0h0Z"/></g><path id="Trazado_7609" class="cls-1" d="M110.44,33.74c-2.66-6.14-6.93-10.08-12.41-10.43-7.36,.09-13.94,4.6-16.67,11.44-3.36,7.19-6.05,14.57-7.69,18.35-1.11,3.53-4.16,6.09-7.83,6.57-4.57,.48-8.51-2.84-11.4-7.57-2.98-5.15-6.38-10.04-10.16-14.63-2.73-3.48-6.91-5.5-11.33-5.49-4.71,.07-13.41,2.4-17.38,18.63-1.95,7.58-2.26,15.5-.92,23.21,1.1,6.49,2.92,12.83,5.42,18.92,.55,1.27,1.26,2.46,2.1,3.56,1.58,1.91,4.22,2.57,6.51,1.63,1.48-.73,3.17-2.48,2.56-6.49-.42-2.15-.96-4.26-1.64-6.34-1.74-4.79-2.96-9.76-3.62-14.81-.23-5.55,1.96-6.28,3.41-6.6,2.45-.54,4.5,2.15,6.44,5.51,2.32,4.01,6.31,11.13,9.56,16.57,3.35,6.25,9.96,10.05,17.04,9.8,8.93,.42,16.86-5.66,18.76-14.39,1.93-6.8,4.26-13.49,7-20.01,3.18-7.01,7.41-10.76,10.98-9.62,3.31,1.06,4.14,4.3,4.18,9.06-.04,4.1-.32,8.19-.83,12.26-.22,1.69-.31,3.4-.28,5.11-.19,2.79,1.7,5.29,4.44,5.86,3.28,.15,6.2-2.08,6.91-5.29,.44-1.47,.76-2.97,.96-4.49,.96-6.06,1.22-12.21,.78-18.34-.35-7.56-2-15-4.88-21.99Z"/></svg>