<svg xmlns="http://www.w3.org/2000/svg" id="iconoAGUA" viewBox="0 0 128 128"><defs><style>.cls-1,.cls-2{fill:#fff}.cls-3{fill:#be1622}.cls-2{fill-rule:evenodd}</style></defs><g><rect width="124" height="124" x="2" y="2" class="cls-3" rx="22" ry="22"/><path d="M104,4c11.03,0,20,8.97,20,20V104c0,11.03-8.97,20-20,20H24c-11.03,0-20-8.97-20-20V24C4,12.97,12.97,4,24,4H104M104,0H24C10.74,0,0,10.75,0,24V104C0,117.25,10.74,128,24,128H104c13.25,0,24-10.75,24-24V24C128,10.75,117.25,0,104,0h0Z" class="cls-1"/></g><g><path d="M81.95,83.79l8.66-14.41h0s5.69-9.48,5.69-9.48h0c.2-.34,.41-.67,.6-1.02,1.59-3,2.21-6.24,1.98-9.37l-8.56,14.49h0s8.56-14.49,8.56-14.49c-.01-.11-.02-.22-.03-.34h0c-.22-2.31-.9-4.55-2.01-6.6-3.24,4.7-5.1,9.66-5.95,14.66h0s0,0,0,0c-.83,.82-1.67,1.65-2.52,2.49h0c.85-.84,1.69-1.67,2.52-2.49,.85-4.99,2.71-9.96,5.95-14.66-.58-1.08-1.29-2.12-2.1-3.08l-1.31,4.15,1.31-4.15c-.42-.5-.87-.98-1.36-1.44-.14,.4-.28,.82-.44,1.26,.15-.44,.3-.86,.44-1.26-.05-.05-.12-.1-.17-.15h0c-1.29-1.18-2.77-2.21-4.44-3.03-1.05-.51-2.12-.92-3.21-1.23,.28,.54,.52,1.1,.73,1.68-.22-.57-.46-1.14-.73-1.68-2.66-.75-5.4-.9-8.04-.51-1.18,2.68-2.54,5.82-3.97,9.21,1.43-3.39,2.79-6.54,3.97-9.21-3.17,.47-6.18,1.72-8.71,3.65-.33,4.12-1.16,9.4-2.87,16.08,0,0,0,0,0,0,0,0,0,0,0,0-2.14,2.81-4.29,5.85-6.82,8.97-1,1.24-1.96,2.49-2.89,3.74h0c-1.84,2.48-3.53,4.98-5.08,7.46,1.55-2.48,3.24-4.98,5.08-7.46,0,0,0,0,0,0,.93-1.25,1.88-2.5,2.89-3.74,2.53-3.13,4.68-6.16,6.82-8.97,1.72-6.68,2.54-11.97,2.88-16.09-1.68,1.28-3.16,2.85-4.32,4.7h-.01s-4.48,7.45-4.48,7.45c0-.01,0-.02,0-.03-.16,.36-.32,.73-.49,1.1,.16-.37,.33-.74,.49-1.1-.09-.75-.22-1.5-.4-2.23l-2.2,3.81h0s2.2-3.81,2.2-3.81c-.25-1.01-.58-1.99-1.01-2.94h0c-.46-1.03-1.01-2.02-1.66-2.95h0c-.39-.55-.81-1.08-1.26-1.59l-15.75,13.87c.54,1.39,1.04,2.84,1.49,4.35l15.82-12.6c-.05-.89-.13-1.81-.21-2.72,.08,.91,.16,1.83,.21,2.72l.34-.27-.34,.27h0l-15.82,12.6c.16,.54,.3,1.1,.45,1.65-.15-.55-.29-1.11-.45-1.65l-4.98,3.96,4.98-3.96c-.45-1.51-.96-2.96-1.49-4.35h0s0,0,0,0l15.75-13.87c-1.54-1.74-3.45-3.23-5.71-4.33-.91-.45-1.84-.81-2.79-1.1h0c-.23-.07-.47-.14-.7-.2-.06-.02-.13-.03-.19-.05h0c-4.52-1.15-9.25-.59-13.27,1.4l-1.22,3.32c1.56,2.12,3.31,4.79,4.99,7.96l8.04-10.72-8.04,10.72s.05,.1,.07,.15c-.03-.05-.05-.1-.08-.15h0c-1.68-3.16-3.43-5.83-4.99-7.96h0c-.16-.22-.31-.42-.46-.62,.15,.2,.31,.4,.46,.62l1.22-3.32c-.9,.44-1.76,.96-2.57,1.54,0,0,0,0,0,0-2.23,1.59-4.12,3.68-5.46,6.22-2.64,4.97-2.62,10.56-.45,15.3,.41,.91,.9,1.77,1.48,2.6l6.29-8.39-6.29,8.39c.66,.98,1.43,1.89,2.3,2.74l2.8-2.47-2.8,2.47c.86,.84,1.81,1.6,2.86,2.27l3.64-2.9,3.5-8.19h0s.12-.28,.12-.28l-.12,.28h0l-3.5,8.19h0s0,0,0,0l-3.64,2.9c.62,.4,1.26,.77,1.93,1.09h0c.41,.2,.81,.38,1.23,.55,3,1.21,6.17,1.62,9.22,1.29-.07-.83-.17-1.64-.28-2.44,.11,.81,.21,1.62,.28,2.44,1.33-.14,2.64-.42,3.91-.83h0c.56-.18,1.11-.38,1.65-.62l-4.07,6.75h.02c-.21,.34-.42,.68-.61,1.03,.29,1.41,.64,2.75,1.04,4.03-.4-1.28-.75-2.62-1.04-4.03-.02,.04-.05,.07-.07,.12-1.75,3.31-2.33,6.9-1.88,10.33,.41-.71,.83-1.46,1.25-2.21-.42,.75-.84,1.49-1.25,2.21,.12,.95,.33,1.9,.62,2.82,0,0,0,0,0,0,.62,2.01,1.6,3.92,2.92,5.62,0,0,0,0,0,0,.41,.52,.84,1.02,1.3,1.5,0,0,0,0,0,0,1.3,1.33,2.83,2.49,4.57,3.42,.47-.37,.96-.73,1.42-1.1,0,0,0,0,0,0h0c-.47,.37-.95,.74-1.42,1.1,.19,.11,.39,.21,.59,.31,.26,.12,.52,.24,.77,.35,3.61,1.57,7.48,1.94,11.12,1.27h0c1.88-.35,3.69-.97,5.38-1.85l2.3-3.89s0,0,0,0l-2.3,3.89c2.62-1.36,4.92-3.35,6.65-5.87-.37,.21-.73,.42-1.09,.61,.36-.19,.73-.4,1.09-.61,.11-.16,.23-.33,.33-.5h0s2.75-4.56,2.75-4.56h0s2.42-4.04,2.42-4.04c0,0,0,0,0,0Zm-42.51-31.94s-.02-.04-.03-.06c0,.02,.02,.04,.03,.06h0Zm-1.26-2.88s-.04-.08-.06-.12c.02,.04,.04,.08,.06,.12Zm1.26,2.88c.03,.08,.06,.16,.1,.23-.03-.08-.06-.16-.1-.23h0Zm-.23,1.85l.41-.37-.41,.37-.52,.46,.52-.45Zm24.91,40.51c-1.52-.81-2.54-1.98-3.19-3.37h0c-.08-.17-.13-.35-.2-.52,.07,.17,.12,.35,.2,.52,1.22-1.19,2.39-2.41,3.54-3.64-1.15,1.23-2.32,2.45-3.54,3.64,.65,1.39,1.67,2.56,3.19,3.37Zm-9.78-4.22c-.11,.54-.21,1.07-.29,1.59,.09-.52,.18-1.05,.29-1.59,0,0,0,0,0,0Zm24.02-20.7s0,0,0,0c0,0,0,0,0,0-5.89,5.48-12.15,11.06-18.41,16.2h0c6.26-5.14,12.52-10.72,18.41-16.21,0,0,0,0,0,0,2.09-6.82,4.94-14.6,6.83-20.59-1.88,5.99-4.74,13.77-6.83,20.59,0,0,0,0,0,0Zm8.72-27.95c-.08,.65-.24,1.42-.44,2.28,.2-.86,.36-1.63,.44-2.28,.07-.51,.1-1.01,.1-1.51,0,.5-.03,1-.09,1.51Zm-27.09,43.32c.1-2.32,.52-4.74,1.01-7-.49,2.26-.92,4.68-1.01,7Zm-1.27,8.28c-.1,.09-.19,.18-.29,.26,.1-.09,.19-.18,.29-.26Zm19.63-23.62s0,0,.01-.02c0,0,0,0,0,0,0,0,0,.01,0,.01-.94,1.46-1.94,2.94-2.98,4.43,1.04-1.48,2.04-2.96,2.98-4.42Zm-.6,15.92c-.43,0-.78-.13-1.06-.35,.28,.22,.63,.34,1.06,.35Zm-1.16-.46c-.1-.09-.2-.18-.28-.3,.08,.12,.18,.21,.28,.3Zm-.46-.65c-.03-.07-.07-.12-.1-.2,.03,.07,.07,.13,.1,.2Zm-.25-.74s-.03-.09-.04-.14c0,.05,.03,.09,.04,.14Zm4.71,1.06c-.17,.07-.32,.13-.47,.19,.16-.06,.31-.12,.47-.19h0Zm.81-2.57l1.87-5.94h0s2.43-7.72,2.43-7.72l-2.43,7.71h0s-1.87,5.95-1.87,5.95Zm8.93-17.88h0c0,1.74,.1,3.48,.28,5.19-.18-1.71-.29-3.45-.28-5.19Zm-11.95,5.28s0,0-.01,.01c0,0,0-.01,0-.01,3.77-5.91,6.81-11.66,9.21-16.81-2.4,5.15-5.43,10.9-9.2,16.81Zm8.72-30.8h0c-.01-.12-.04-.23-.06-.35,.02,.12,.04,.23,.06,.35Zm-14.95,7.28s0,0,0,0c-1.42,1.33-2.73,2.8-4.01,4.36,1.28-1.56,2.59-3.03,4.01-4.37Zm-25.78,35.69s0,0,0,0c.51-.97,1.04-1.95,1.59-2.94-.55,.99-1.08,1.97-1.59,2.94Zm10.94-26.42c-.25,.57-.51,1.14-.77,1.73,.26-.59,.52-1.16,.77-1.73h0Zm.65-1.46c.42-.96,.83-1.89,1.23-2.79-.4,.9-.81,1.83-1.23,2.79Zm-3.98,8.97c.77-1.74,1.51-3.4,2.22-4.99-.71,1.59-1.44,3.25-2.22,4.99-2.86,6.44-5.63,12.08-8.28,17.02,0,0,0,0,0,0,2.65-4.95,5.42-10.59,8.28-17.02Zm-8.68,21.03c-.48,.96-.94,1.91-1.38,2.85,.44-.94,.9-1.89,1.38-2.85Zm1.06-2.11h0c.86,2.26,1.89,4.3,3.05,6.16,1.21-2.49,2.36-5.27,3.41-8.31-1.05,3.04-2.2,5.82-3.41,8.31,.89,1.43,1.86,2.75,2.89,3.95h0c-1.03-1.21-2-2.52-2.89-3.95-.12,.25-.25,.49-.37,.74,.12-.25,.25-.48,.37-.74-1.16-1.86-2.19-3.9-3.05-6.16Zm5.94,10.11h0c.48,.57,.98,1.11,1.49,1.63,.07-.44,.14-.9,.22-1.37-.08,.47-.15,.92-.22,1.37h0c-.51-.52-1.01-1.06-1.49-1.63Zm3.76,3.74c-.81,.7-1.64,1.38-2.48,2.06,.84-.68,1.67-1.36,2.48-2.06,0,0,0,0,0,0s0,0,0,0c1.69,1.44,3.48,2.65,5.32,3.71-1.83-1.06-3.63-2.27-5.32-3.71Zm12.55,.05c.7,.02,1.4-.05,2.09-.17-.69,.12-1.39,.19-2.09,.17Zm3.48-.49h0l5.69-9.63c.1,0,.22-.02,.33-.03-.11,.01-.23,.03-.33,.03l-5.69,9.63Z" class="cls-2"/><path d="M96.76,81.83c-4.87,0-8.82,3.8-8.82,8.47s3.95,8.48,8.82,8.48,8.83-3.8,8.83-8.48-3.95-8.47-8.83-8.47Z" class="cls-2"/></g></svg>