<?xml version="1.0" encoding="UTF-8"?><svg id="iconoAGUA" xmlns="http://www.w3.org/2000/svg" viewBox="0 0 128 128"><defs><style>.cls-1{fill:#e94e1b;}.cls-2{fill:#fff;}</style></defs><g><rect class="cls-1" x="2" y="2" width="124" height="124" rx="22" ry="22"/><path class="cls-2" d="M104,4c11.03,0,20,8.97,20,20V104c0,11.03-8.97,20-20,20H24c-11.03,0-20-8.97-20-20V24C4,12.97,12.97,4,24,4H104M104,0H24C10.74,0,0,10.75,0,24V104C0,117.25,10.74,128,24,128H104c13.25,0,24-10.75,24-24V24C128,10.75,117.25,0,104,0h0Z"/></g><g><rect class="cls-2" x="58.84" y="67.79" width="5.48" height="16.87"/><path class="cls-2" d="M41.55,75.69l-8.57-15.36c-.47-.93-1.41-1.51-2.45-1.51s-1.98,.58-2.45,1.51l-8.57,15.36-7.22-17.38H6.36l10.38,25.01c.41,.99,1.36,1.65,2.43,1.69,1.08,.04,2.07-.55,2.55-1.51l8.81-15.83,8.81,15.83c.47,.93,1.42,1.51,2.45,1.51h.1c1.07-.04,2.02-.7,2.43-1.69l10.38-25.01h-5.93l-7.22,17.38Z"/><path class="cls-2" d="M75.89,78.79c-.71-.79-.59-2.15-.59-2.15h-.02s0-.5,0-.63v-17.5h-5.48v17.35c0,.9-.15,4.01,1.91,6.38,1.08,1.25,3.17,2.83,6.88,2.83h16.93v-5.48h-16.93c-.9,0-2.1-.12-2.71-.8Z"/><path class="cls-2" d="M107.27,79.59c-.9,0-2.1-.12-2.71-.8-.71-.79-.59-2.15-.59-2.15h-.02s0-.5,0-.63v-17.5h-5.48v17.35c0,.9-.15,4.01,1.91,6.38,1.08,1.25,3.17,2.83,6.88,2.83h16.93v-5.48h-16.93Z"/><path class="cls-2" d="M61.64,56.53c-1.75,0-3.16,1.42-3.16,3.16s1.42,3.16,3.16,3.16,3.16-1.42,3.16-3.16-1.42-3.16-3.16-3.16Z"/><path class="cls-2" d="M46.21,47.96c.55,0,1.09-.23,1.46-.69,.05-.06,5.28-6.26,13.97-6.26,.03,0,.05,0,.08,0s.05,0,.08,0c8.69,0,13.91,6.18,13.97,6.25,.37,.45,.92,.69,1.47,.69,.42,0,.84-.14,1.2-.43,.82-.66,.94-1.86,.27-2.67-.25-.31-6.37-7.64-16.91-7.64-.03,0-.05,0-.08,0s-.05,0-.08,0c-10.54,0-16.65,7.33-16.91,7.64-.66,.81-.54,2,.27,2.66,.35,.29,.78,.43,1.2,.43Z"/><path class="cls-2" d="M61.78,44.1s-.04,0-.05,0-.04,0-.05,0c-7.15,0-11.31,4.99-11.48,5.2-.59,.72-.48,1.79,.24,2.37,.31,.26,.69,.38,1.07,.38,.49,0,.97-.21,1.31-.62,.03-.04,3.3-3.96,8.87-3.96,.02,0,.04,0,.05,0s.04,0,.05,0c5.51,0,8.73,3.79,8.88,3.97,.33,.41,.82,.62,1.3,.62,.37,0,.75-.12,1.07-.38,.72-.59,.82-1.65,.24-2.37-.17-.21-4.33-5.2-11.48-5.2Z"/><path class="cls-2" d="M61.75,50.94s-.02,0-.03,0c0,0-.02,0-.03,0-3.86,0-6.11,2.7-6.2,2.82-.51,.63-.42,1.56,.21,2.08,.27,.23,.6,.33,.93,.33,.43,0,.85-.18,1.14-.54,.02-.02,1.49-1.73,3.92-1.73,0,0,.02,0,.03,0,0,0,.02,0,.03,0,2.41,0,3.85,1.66,3.92,1.74,.29,.35,.71,.53,1.14,.53,.33,0,.66-.11,.93-.33,.63-.51,.72-1.44,.21-2.08-.09-.12-2.35-2.82-6.2-2.82Z"/></g></svg>