<?xml version="1.0" encoding="UTF-8"?><svg id="iconoAGUA" xmlns="http://www.w3.org/2000/svg" viewBox="0 0 128 128"><defs><style>.cls-1,.cls-2{fill:#fff;}.cls-3{fill:#951b81;}.cls-2{fill-rule:evenodd;}</style></defs><g><rect class="cls-3" x="2" y="2" width="124" height="124" rx="22" ry="22"/><path class="cls-1" d="M104,4c11.03,0,20,8.97,20,20V104c0,11.03-8.97,20-20,20H24c-11.03,0-20-8.97-20-20V24C4,12.97,12.97,4,24,4H104M104,0H24C10.74,0,0,10.75,0,24V104C0,117.25,10.74,128,24,128H104c13.25,0,24-10.75,24-24V24C128,10.75,117.25,0,104,0h0Z"/></g><polygon class="cls-2" points="8.39 52.99 17.65 51.77 24.05 76.7 25.09 50.82 32.53 50.13 39.37 74.54 39.89 49.09 49.5 48.05 46.47 86.05 36.43 87.17 31.15 71.42 29.51 87.78 19.47 89.08 8.39 52.99"/><polygon class="cls-2" points="121.51 77.22 112.25 78.43 105.84 53.5 104.81 79.38 97.36 80.08 90.52 55.67 90.01 81.11 80.4 82.15 83.43 44.16 93.47 43.03 98.75 58.78 100.39 42.43 110.43 41.13 121.51 77.22"/><path class="cls-2" d="M63.26,45.71c-7.62,2.25-9.88,6.81-10.82,14.37-.52,4.15-2.51,17.57,.43,21.55s9.87,3.98,14.19,2.77c4.33-1.21,9.26-5.97,10.04-11.86,.78-5.89,.78-10.73,1.13-18.52,.35-7.79-7.36-10.56-14.97-8.31Zm6.19,13.28c-.39,4.46-.63,8.49-.87,11.11-.24,2.62-1.7,5.24-3.59,5.43-1.89,.19-4.22,.44-4.46-1.94-.24-2.38,.1-7.04,.53-11.4,.44-4.37,1.07-6.31,2.57-7.18,1.5-.87,3.51-1.15,5.05,.24,.98,.89,.87,2.62,.78,3.74Z"/></svg>