<?xml version="1.0" encoding="UTF-8"?><svg xmlns="http://www.w3.org/2000/svg" viewBox="0 0 128 128"><defs><style>.cls-1{fill:#ffec00;}.cls-2{fill:#662482;}.cls-3{fill:#7a6a58;}</style></defs><g id="cuadrobase"><g><rect class="cls-1" x="2" y="2" width="124" height="124" rx="22" ry="22"/><path class="cls-3" d="M104,4c11.03,0,20,8.97,20,20V104c0,11.03-8.97,20-20,20H24c-11.03,0-20-8.97-20-20V24C4,12.97,12.97,4,24,4H104m0-4H24C10.75,0,0,10.75,0,24V104c0,13.25,10.75,24,24,24H104c13.25,0,24-10.75,24-24V24c0-13.25-10.75-24-24-24h0Z"/></g></g><g id="figura"><path class="cls-2" d="M104.88,22.05H23.12c-3.1,0-5.62,2.52-5.62,5.62V100.32c0,3.1,2.52,5.62,5.62,5.62H104.88c3.1,0,5.62-2.52,5.62-5.62V27.68c0-3.1-2.52-5.62-5.62-5.62Zm-5.62,20.67v39.79l-16-22.84,16-16.95Zm-32.46,18.01c-1.47,0-3.43-.01-4.95-.03l-25.66-27.4h56.5l-25.89,27.44Zm-13.88,7l2.43,2.47c1.63,1.66,3.16,1.69,5.46,1.73,.97,.02,2.21,.03,3.42,.04,1.11,0,2.01,.01,2.76,.01,3.18,0,4.07-.1,5.45-1.03l2.25-2.02,.44-.64,.25-.27,18.69,26.68H33.93l18.99-26.97Zm-7.8-8.45l-16.36,23.25V41.8l16.36,17.47Z"/></g></svg>