<?xml version="1.0" encoding="UTF-8"?><svg id="iconoAGUA" xmlns="http://www.w3.org/2000/svg" viewBox="0 0 128 128"><defs><style>.cls-1{fill:#ffed00;}.cls-2{fill:#29235c;}.cls-3{fill:#2d2e83;}</style></defs><g><rect class="cls-1" x="2" y="2" width="124" height="124" rx="22" ry="22"/><path class="cls-2" d="M104,4c11.03,0,20,8.97,20,20V104c0,11.03-8.97,20-20,20H24c-11.03,0-20-8.97-20-20V24C4,12.97,12.97,4,24,4H104M104,0H24C10.74,0,0,10.75,0,24V104C0,117.25,10.74,128,24,128H104c13.25,0,24-10.75,24-24V24C128,10.75,117.25,0,104,0h0Z"/></g><g><path class="cls-3" d="M112.78,30.43c-2.67-6.3-6.48-11.97-11.34-16.83-2.53-2.53-5.27-4.77-8.21-6.72l-2.3,3.5-2.3,3.5c2.46,1.64,4.76,3.52,6.88,5.64,4.09,4.09,7.31,8.86,9.55,14.17,2.32,5.49,3.5,11.33,3.5,17.35s-1.18,11.85-3.5,17.35c-2.24,5.31-5.46,10.07-9.55,14.17-2.2,2.2-4.6,4.15-7.17,5.83l2.3,3.5,2.3,3.5c3.04-1.99,5.88-4.3,8.49-6.91,4.86-4.86,8.68-10.52,11.34-16.83,2.76-6.53,4.16-13.46,4.16-20.61s-1.4-14.08-4.16-20.61Z"/><path class="cls-3" d="M22.93,68.39c-2.32-5.49-3.5-11.33-3.5-17.35s1.18-11.85,3.5-17.35c2.24-5.31,5.46-10.07,9.55-14.17,2.13-2.13,4.44-4.02,6.91-5.66l-2.3-3.49-2.31-3.5c-2.94,1.95-5.69,4.2-8.23,6.73-4.86,4.86-8.68,10.52-11.34,16.83-2.76,6.53-4.16,13.46-4.16,20.61s1.4,14.08,4.16,20.61c2.67,6.3,6.48,11.97,11.34,16.83,2.61,2.61,5.46,4.92,8.51,6.92l2.31-3.5,2.3-3.49c-2.58-1.68-4.99-3.64-7.2-5.85-4.09-4.09-7.31-8.86-9.55-14.17Z"/><g><path class="cls-3" d="M95.08,64.18c1.76-4.16,2.65-8.58,2.65-13.13s-.89-8.97-2.65-13.13c-1.7-4.02-4.13-7.62-7.23-10.72-1.6-1.59-3.33-3.01-5.18-4.24l-1.46,2.23-1.46,2.23c1.54,1.03,2.99,2.22,4.33,3.56,5.36,5.36,8.32,12.49,8.32,20.08s-2.95,14.72-8.32,20.08c-1.42,1.42-2.96,2.66-4.6,3.73l1.46,2.23,1.46,2.23c1.95-1.27,3.77-2.75,5.44-4.42,3.1-3.1,5.53-6.7,7.23-10.72Z"/><path class="cls-3" d="M82.24,80.11l-3.55-5.41,.48-.31c1.62-1.06,3.13-2.29,4.51-3.66,5.25-5.26,8.15-12.24,8.15-19.67s-2.89-14.42-8.15-19.67c-1.3-1.3-2.73-2.48-4.24-3.49l-.47-.32,3.55-5.41,.48,.32c1.88,1.25,3.65,2.71,5.26,4.32,3.15,3.15,5.62,6.82,7.35,10.9,1.79,4.23,2.7,8.73,2.7,13.35s-.91,9.12-2.7,13.35h0c-1.73,4.08-4.2,7.75-7.35,10.9-1.69,1.69-3.55,3.2-5.54,4.49l-.48,.31Zm-1.97-5.09l2.3,3.5c1.74-1.18,3.38-2.53,4.88-4.03,3.05-3.05,5.44-6.59,7.11-10.54h0c1.73-4.09,2.61-8.43,2.61-12.91s-.88-8.82-2.61-12.91c-1.67-3.95-4.06-7.5-7.11-10.54-1.42-1.42-2.97-2.71-4.61-3.85l-2.3,3.5c1.4,.98,2.73,2.09,3.95,3.31,5.47,5.47,8.48,12.75,8.48,20.48s-3.01,15.01-8.48,20.48c-1.29,1.29-2.71,2.46-4.21,3.49Z"/></g><g><path class="cls-3" d="M35.6,51.05c0-7.58,2.95-14.72,8.32-20.08,1.35-1.35,2.82-2.55,4.38-3.59l-1.46-2.22-1.47-2.23c-1.87,1.24-3.61,2.66-5.22,4.27-3.1,3.1-5.53,6.7-7.23,10.72-1.76,4.16-2.65,8.58-2.65,13.13s.89,8.97,2.65,13.13c1.7,4.02,4.13,7.62,7.23,10.72,1.68,1.68,3.52,3.17,5.49,4.45l1.47-2.23,1.47-2.22c-1.66-1.08-3.22-2.34-4.65-3.77-5.36-5.36-8.32-12.49-8.32-20.08Z"/><path class="cls-3" d="M45.8,80.13l-.48-.31c-2-1.3-3.88-2.82-5.58-4.52-3.15-3.15-5.62-6.82-7.35-10.9-1.79-4.23-2.7-8.72-2.7-13.35s.91-9.12,2.7-13.35c1.73-4.09,4.2-7.75,7.35-10.9,1.62-1.62,3.4-3.08,5.3-4.34l.48-.32,3.56,5.41-.47,.32c-1.54,1.02-2.98,2.21-4.29,3.52-5.26,5.26-8.15,12.24-8.15,19.67s2.89,14.42,8.15,19.67c1.38,1.39,2.92,2.63,4.55,3.69l.48,.31-3.56,5.41Zm-.59-56.41c-1.66,1.14-3.22,2.45-4.65,3.88-3.05,3.04-5.44,6.59-7.11,10.54-1.73,4.09-2.61,8.43-2.61,12.91s.88,8.82,2.61,12.91c1.67,3.95,4.06,7.49,7.11,10.54,1.51,1.51,3.16,2.87,4.92,4.06l2.3-3.5c-1.52-1.03-2.95-2.22-4.26-3.52-5.47-5.47-8.48-12.75-8.48-20.48s3.01-15.01,8.48-20.48c1.23-1.23,2.57-2.35,3.99-3.34l-2.3-3.5Z"/></g><path class="cls-3" d="M78.2,50.69c0-7.83-6.36-14.2-14.2-14.2s-14.2,6.36-14.2,14.2c.23,5.72,3.36,10.67,8.67,13.08,.85,.35-8.38,54.22-8.62,60.04,14.27-.06,14.59-.03,28.2-.08-.34-5.82-9.37-59.61-8.52-59.96,5.17-2.43,8.53-7.27,8.67-13.08Z"/></g></svg>