<svg width="128" height="128" xmlns="http://www.w3.org/2000/svg" xmlns:xlink="http://www.w3.org/1999/xlink" xml:space="preserve" overflow="hidden"><defs><clipPath id="clip0"><rect x="890" y="103" width="128" height="128"/></clipPath></defs><g clip-path="url(#clip0)" transform="translate(-890 -103)"><path d="M994.749 159.771 981.249 146.271 967.812 159.771 954.312 146.271 940.812 159.771 927.375 146.271 913.875 159.771 907.5 153.4 927.375 133.584 940.812 147.084 954.312 133.584 967.812 147.084 981.249 133.584 1001.07 153.4Z" stroke="#FFFFFF" stroke-width="1.33333" fill="#9DDDFD"/><path d="M994.749 200.208 981.249 186.708 967.812 200.208 954.312 186.708 940.812 200.208 927.375 186.708 913.875 200.208 907.5 193.833 927.375 174.021 940.812 187.521 954.312 174.021 967.812 187.521 981.249 174.021 1001.06 193.833 994.749 200.208Z" stroke="#FFFFFF" stroke-width="1.33333" fill="#9DDDFD"/></g></svg>