<svg width="129" height="129" xmlns="http://www.w3.org/2000/svg" xmlns:xlink="http://www.w3.org/1999/xlink" xml:space="preserve" overflow="hidden"><defs><clipPath id="clip0"><rect x="896" y="348" width="129" height="129"/></clipPath></defs><g clip-path="url(#clip0)" transform="translate(-896 -348)"><path d="M1001.57 405.214 987.962 391.609 974.42 405.214 960.814 391.609 947.209 405.214 933.667 391.609 920.061 405.214 913.637 398.794 933.667 378.823 947.209 392.428 960.814 378.823 974.42 392.428 987.962 378.823 1007.93 398.794Z" stroke="#FFFFFF" stroke-width="1.34375" fill="#4AF8FC"/><path d="M1001.57 445.967 987.962 432.362 974.42 445.967 960.814 432.362 947.209 445.967 933.667 432.362 920.061 445.967 913.637 439.543 933.667 419.576 947.209 433.182 960.814 419.576 974.42 433.182 987.962 419.576 1007.93 439.543 1001.57 445.967Z" stroke="#FFFFFF" stroke-width="1.34375" fill="#4AF8FC"/></g></svg>