<svg width="129" height="129" xmlns="http://www.w3.org/2000/svg" xmlns:xlink="http://www.w3.org/1999/xlink" xml:space="preserve" overflow="hidden"><defs><clipPath id="clip0"><rect x="149" y="-1" width="129" height="129"/></clipPath></defs><g clip-path="url(#clip0)" transform="translate(-149 1)"><path d="M254.568 56.2142 240.962 42.6087 227.42 56.2142 213.814 42.6087 200.209 56.2142 186.667 42.6087 173.061 56.2142 166.637 49.7938 186.667 29.8229 200.209 43.4284 213.814 29.8229 227.42 43.4284 240.962 29.8229 260.934 49.7938Z" stroke="#FFFFFF" stroke-width="1.34375" fill="#016191"/><path d="M254.568 96.9674 240.962 83.362 227.42 96.9674 213.814 83.362 200.209 96.9674 186.667 83.362 173.061 96.9674 166.637 90.543 186.667 70.5762 200.209 84.1817 213.814 70.5762 227.42 84.1817 240.962 70.5762 260.93 90.543 254.568 96.9674Z" stroke="#FFFFFF" stroke-width="1.34375" fill="#016191"/></g></svg>