<svg width="129" height="129" xmlns="http://www.w3.org/2000/svg" xmlns:xlink="http://www.w3.org/1999/xlink" xml:space="preserve" overflow="hidden"><defs><clipPath id="clip0"><rect x="597" y="348" width="129" height="129"/></clipPath></defs><g clip-path="url(#clip0)" transform="translate(-597 -348)"><path d="M702.568 405.214 688.962 391.609 675.42 405.214 661.814 391.609 648.209 405.214 634.667 391.609 621.061 405.214 614.637 398.794 634.667 378.823 648.209 392.428 661.814 378.823 675.42 392.428 688.962 378.823 708.934 398.794Z" stroke="#FFFFFF" stroke-width="1.34375" fill="#03C0C5"/><path d="M702.568 445.967 688.962 432.362 675.42 445.967 661.814 432.362 648.209 445.967 634.667 432.362 621.061 445.967 614.637 439.543 634.667 419.576 648.209 433.182 661.814 419.576 675.42 433.182 688.962 419.576 708.93 439.543 702.568 445.967Z" stroke="#FFFFFF" stroke-width="1.34375" fill="#03C0C5"/></g></svg>