<svg width="129" height="129" xmlns="http://www.w3.org/2000/svg" xmlns:xlink="http://www.w3.org/1999/xlink" xml:space="preserve" overflow="hidden"><defs><clipPath id="clip0"><rect x="1044" y="463" width="129" height="129"/></clipPath></defs><g clip-path="url(#clip0)" transform="translate(-1044 -463)"><path d="M1149.57 520.214 1135.96 506.609 1122.42 520.214 1108.81 506.609 1095.21 520.214 1081.67 506.609 1068.06 520.214 1061.64 513.794 1081.67 493.823 1095.21 507.428 1108.81 493.823 1122.42 507.428 1135.96 493.823 1155.93 513.794Z" stroke="#FFFFFF" stroke-width="1.34375" fill="#BDE3FF"/><path d="M1149.57 560.967 1135.96 547.362 1122.42 560.967 1108.81 547.362 1095.21 560.967 1081.67 547.362 1068.06 560.967 1061.64 554.543 1081.67 534.576 1095.21 548.182 1108.81 534.576 1122.42 548.182 1135.96 534.576 1155.93 554.543 1149.57 560.967Z" stroke="#FFFFFF" stroke-width="1.34375" fill="#BDE3FF"/></g></svg>