<svg width="129" height="129" xmlns="http://www.w3.org/2000/svg" xmlns:xlink="http://www.w3.org/1999/xlink" xml:space="preserve" overflow="hidden"><defs><clipPath id="clip0"><rect x="745" y="463" width="129" height="129"/></clipPath></defs><g clip-path="url(#clip0)" transform="translate(-745 -463)"><path d="M850.568 520.214 836.962 506.609 823.42 520.214 809.814 506.609 796.209 520.214 782.667 506.609 769.061 520.214 762.637 513.794 782.667 493.823 796.209 507.428 809.814 493.823 823.42 507.428 836.962 493.823 856.934 513.794Z" stroke="#FFFFFF" stroke-width="1.34375" fill="#6DC0FF"/><path d="M850.568 560.967 836.962 547.362 823.42 560.967 809.814 547.362 796.209 560.967 782.667 547.362 769.061 560.967 762.637 554.543 782.667 534.576 796.209 548.182 809.814 534.576 823.42 548.182 836.962 534.576 856.93 554.543 850.568 560.967Z" stroke="#FFFFFF" stroke-width="1.34375" fill="#6DC0FF"/></g></svg>