<svg width="129" height="129" xmlns="http://www.w3.org/2000/svg" xmlns:xlink="http://www.w3.org/1999/xlink" xml:space="preserve" overflow="hidden"><defs><clipPath id="clip0"><rect x="1044" y="231" width="129" height="129"/></clipPath></defs><g clip-path="url(#clip0)" transform="translate(-1044 -231)"><path d="M1149.57 288.214 1135.96 274.609 1122.42 288.214 1108.81 274.609 1095.21 288.214 1081.67 274.609 1068.06 288.214 1061.64 281.794 1081.67 261.823 1095.21 275.428 1108.81 261.823 1122.42 275.428 1135.96 261.823 1155.93 281.794Z" stroke="#FFFFFF" stroke-width="1.34375" fill="#B3BDF1"/><path d="M1149.57 328.967 1135.96 315.362 1122.42 328.967 1108.81 315.362 1095.21 328.967 1081.67 315.362 1068.06 328.967 1061.64 322.543 1081.67 302.576 1095.21 316.182 1108.81 302.576 1122.42 316.182 1135.96 302.576 1155.93 322.543 1149.57 328.967Z" stroke="#FFFFFF" stroke-width="1.34375" fill="#B3BDF1"/></g></svg>