<svg width="129" height="129" xmlns="http://www.w3.org/2000/svg" xmlns:xlink="http://www.w3.org/1999/xlink" xml:space="preserve" overflow="hidden"><defs><clipPath id="clip0"><rect x="745" y="231" width="129" height="129"/></clipPath></defs><g clip-path="url(#clip0)" transform="translate(-745 -231)"><path d="M850.568 288.214 836.962 274.609 823.42 288.214 809.814 274.609 796.209 288.214 782.667 274.609 769.061 288.214 762.637 281.794 782.667 261.823 796.209 275.428 809.814 261.823 823.42 275.428 836.962 261.823 856.934 281.794Z" stroke="#FFFFFF" stroke-width="1.34375" fill="#677CE4"/><path d="M850.568 328.967 836.962 315.362 823.42 328.967 809.814 315.362 796.209 328.967 782.667 315.362 769.061 328.967 762.637 322.543 782.667 302.576 796.209 316.182 809.814 302.576 823.42 316.182 836.962 302.576 856.93 322.543 850.568 328.967Z" stroke="#FFFFFF" stroke-width="1.34375" fill="#677CE4"/></g></svg>