<svg width="129" height="129" xmlns="http://www.w3.org/2000/svg" xmlns:xlink="http://www.w3.org/1999/xlink" xml:space="preserve" overflow="hidden"><defs><clipPath id="clip0"><rect x="896" y="-1" width="129" height="129"/></clipPath></defs><g clip-path="url(#clip0)" transform="translate(-896 1)"><path d="M1001.57 56.2142 987.962 42.6087 974.42 56.2142 960.814 42.6087 947.209 56.2142 933.667 42.6087 920.061 56.2142 913.637 49.7938 933.667 29.8229 947.209 43.4284 960.814 29.8229 974.42 43.4284 987.962 29.8229 1007.93 49.7938Z" stroke="#FFFFFF" stroke-width="1.34375" fill="#9ACBE3"/><path d="M1001.57 96.9674 987.962 83.362 974.42 96.9674 960.814 83.362 947.209 96.9674 933.667 83.362 920.061 96.9674 913.637 90.543 933.667 70.5762 947.209 84.1817 960.814 70.5762 974.42 84.1817 987.962 70.5762 1007.93 90.543 1001.57 96.9674Z" stroke="#FFFFFF" stroke-width="1.34375" fill="#9ACBE3"/></g></svg>