<svg width="128" height="128" xmlns="http://www.w3.org/2000/svg" xmlns:xlink="http://www.w3.org/1999/xlink" xml:space="preserve" overflow="hidden"><defs><clipPath id="clip0"><rect x="591" y="103" width="128" height="128"/></clipPath></defs><g clip-path="url(#clip0)" transform="translate(-591 -103)"><path d="M695.749 159.771 682.249 146.271 668.812 159.771 655.312 146.271 641.812 159.771 628.375 146.271 614.875 159.771 608.5 153.4 628.375 133.584 641.812 147.084 655.312 133.584 668.812 147.084 682.249 133.584 702.067 153.4Z" stroke="#FFFFFF" stroke-width="1.33333" fill="#6ECDFC"/><path d="M695.749 200.208 682.249 186.708 668.812 200.208 655.312 186.708 641.812 200.208 628.375 186.708 614.875 200.208 608.5 193.833 628.375 174.021 641.812 187.521 655.312 174.021 668.812 187.521 682.249 174.021 702.063 193.833 695.749 200.208Z" stroke="#FFFFFF" stroke-width="1.33333" fill="#6ECDFC"/></g></svg>