<svg width="128" height="128" xmlns="http://www.w3.org/2000/svg" xmlns:xlink="http://www.w3.org/1999/xlink" xml:space="preserve" overflow="hidden"><defs><clipPath id="clip0"><rect x="143" y="103" width="128" height="128"/></clipPath></defs><g clip-path="url(#clip0)" transform="translate(-143 -103)"><path d="M247.749 159.771 234.249 146.271 220.812 159.771 207.312 146.271 193.812 159.771 180.375 146.271 166.875 159.771 160.5 153.4 180.375 133.584 193.812 147.084 207.312 133.584 220.812 147.084 234.249 133.584 254.067 153.4Z" stroke="#FFFFFF" stroke-width="1.33333" fill="#036CA1"/><path d="M247.749 200.208 234.249 186.708 220.812 200.208 207.312 186.708 193.812 200.208 180.375 186.708 166.875 200.208 160.5 193.833 180.375 174.021 193.812 187.521 207.312 174.021 220.812 187.521 234.249 174.021 254.063 193.833 247.749 200.208Z" stroke="#FFFFFF" stroke-width="1.33333" fill="#036CA1"/></g></svg>