<svg width="129" height="129" xmlns="http://www.w3.org/2000/svg" xmlns:xlink="http://www.w3.org/1999/xlink" xml:space="preserve" overflow="hidden"><defs><clipPath id="clip0"><rect x="446" y="231" width="129" height="129"/></clipPath></defs><g clip-path="url(#clip0)" transform="translate(-446 -231)"><path d="M551.568 288.214 537.962 274.609 524.42 288.214 510.814 274.609 497.209 288.214 483.667 274.609 470.061 288.214 463.637 281.794 483.667 261.823 497.209 275.428 510.814 261.823 524.42 275.428 537.962 261.823 557.934 281.794Z" stroke="#FFFFFF" stroke-width="1.34375" fill="#0222BD"/><path d="M551.568 328.967 537.962 315.362 524.42 328.967 510.814 315.362 497.209 328.967 483.667 315.362 470.061 328.967 463.637 322.543 483.667 302.576 497.209 316.182 510.814 302.576 524.42 316.182 537.962 302.576 557.93 322.543 551.568 328.967Z" stroke="#FFFFFF" stroke-width="1.34375" fill="#0222BD"/></g></svg>