<svg width="129" height="129" xmlns="http://www.w3.org/2000/svg" xmlns:xlink="http://www.w3.org/1999/xlink" xml:space="preserve" overflow="hidden"><defs><clipPath id="clip0"><rect x="446" y="463" width="129" height="129"/></clipPath></defs><g clip-path="url(#clip0)" transform="translate(-446 -463)"><path d="M551.568 520.214 537.962 506.609 524.42 520.214 510.814 506.609 497.209 520.214 483.667 506.609 470.061 520.214 463.637 513.794 483.667 493.823 497.209 507.428 510.814 493.823 524.42 507.428 537.962 493.823 557.934 513.794Z" stroke="#FFFFFF" stroke-width="1.34375" fill="#1D9EFF"/><path d="M551.568 560.967 537.962 547.362 524.42 560.967 510.814 547.362 497.209 560.967 483.667 547.362 470.061 560.967 463.637 554.543 483.667 534.576 497.209 548.182 510.814 534.576 524.42 548.182 537.962 534.576 557.93 554.543 551.568 560.967Z" stroke="#FFFFFF" stroke-width="1.34375" fill="#1D9EFF"/></g></svg>