<svg width="128" height="129" xmlns="http://www.w3.org/2000/svg" xmlns:xlink="http://www.w3.org/1999/xlink" xml:space="preserve" overflow="hidden"><defs><clipPath id="clip0"><rect x="895" y="231" width="128" height="129"/></clipPath></defs><g clip-path="url(#clip0)" transform="translate(-895 -231)"><path d="M104.749 56.7707 91.2493 43.2707 77.812 56.7707 64.312 43.2707 50.812 56.7707 37.3747 43.2707 23.8747 56.7707 17.5 50.4 37.3747 30.584 50.812 44.084 64.312 30.584 77.812 44.084 91.2493 30.584 111.067 50.4Z" stroke="#FFFFFF" stroke-width="1.33333" fill="#9AA8ED" transform="matrix(1 0 0 1.00781 895 231)"/><path d="M104.749 97.208 91.2493 83.708 77.812 97.208 64.312 83.708 50.812 97.208 37.3747 83.708 23.8747 97.208 17.5 90.8333 37.3747 71.0213 50.812 84.5213 64.312 71.0213 77.812 84.5213 91.2493 71.0213 111.063 90.8333 104.749 97.208Z" stroke="#FFFFFF" stroke-width="1.33333" fill="#9AA8ED" transform="matrix(1 0 0 1.00781 895 231)"/></g></svg>