<svg width="129" height="129" xmlns="http://www.w3.org/2000/svg" xmlns:xlink="http://www.w3.org/1999/xlink" xml:space="preserve" overflow="hidden"><defs><clipPath id="clip0"><rect x="149" y="348" width="129" height="129"/></clipPath></defs><g clip-path="url(#clip0)" transform="translate(-149 -348)"><path d="M254.568 405.214 240.962 391.609 227.42 405.214 213.814 391.609 200.209 405.214 186.667 391.609 173.061 405.214 166.637 398.794 186.667 378.823 200.209 392.428 213.814 378.823 227.42 392.428 240.962 378.823 260.934 398.794Z" stroke="#FFFFFF" stroke-width="1.34375" fill="#016062"/><path d="M254.568 445.967 240.962 432.362 227.42 445.967 213.814 432.362 200.209 445.967 186.667 432.362 173.061 445.967 166.637 439.543 186.667 419.576 200.209 433.182 213.814 419.576 227.42 433.182 240.962 419.576 260.93 439.543 254.568 445.967Z" stroke="#FFFFFF" stroke-width="1.34375" fill="#016062"/></g></svg>