<svg width="129" height="129" xmlns="http://www.w3.org/2000/svg" xmlns:xlink="http://www.w3.org/1999/xlink" xml:space="preserve" overflow="hidden"><defs><clipPath id="clip0"><rect x="-2" y="463" width="129" height="129"/></clipPath></defs><g clip-path="url(#clip0)" transform="translate(2 -463)"><path d="M103.568 520.214 89.9622 506.609 76.4199 520.214 62.8144 506.609 49.209 520.214 35.6667 506.609 22.0612 520.214 15.6367 513.794 35.6667 493.823 49.209 507.428 62.8144 493.823 76.4199 507.428 89.9622 493.823 109.934 513.794Z" stroke="#FFFFFF" stroke-width="1.34375" fill="#0070C0"/><path d="M103.568 560.967 89.9622 547.362 76.4199 560.967 62.8144 547.362 49.209 560.967 35.6667 547.362 22.0612 560.967 15.6367 554.543 35.6667 534.576 49.209 548.182 62.8144 534.576 76.4199 548.182 89.9622 534.576 109.93 554.543 103.568 560.967Z" stroke="#FFFFFF" stroke-width="1.34375" fill="#0070C0"/></g></svg>