<svg width="129" height="129" xmlns="http://www.w3.org/2000/svg" xmlns:xlink="http://www.w3.org/1999/xlink" xml:space="preserve" overflow="hidden"><defs><clipPath id="clip0"><rect x="-2" y="231" width="129" height="129"/></clipPath></defs><g clip-path="url(#clip0)" transform="translate(2 -231)"><path d="M103.568 288.214 89.9622 274.609 76.4199 288.214 62.8144 274.609 49.209 288.214 35.6667 274.609 22.0612 288.214 15.6367 281.794 35.6667 261.823 49.209 275.428 62.8144 261.823 76.4199 275.428 89.9622 261.823 109.934 281.794Z" stroke="#FFFFFF" stroke-width="1.34375" fill="#011369"/><path d="M103.568 328.967 89.9622 315.362 76.4199 328.967 62.8144 315.362 49.209 328.967 35.6667 315.362 22.0612 328.967 15.6367 322.543 35.6667 302.576 49.209 316.182 62.8144 302.576 76.4199 316.182 89.9622 302.576 109.93 322.543 103.568 328.967Z" stroke="#FFFFFF" stroke-width="1.34375" fill="#011369"/></g></svg>