<svg width="129" height="129" xmlns="http://www.w3.org/2000/svg" xmlns:xlink="http://www.w3.org/1999/xlink" xml:space="preserve" overflow="hidden"><defs><clipPath id="clip0"><rect x="297" y="231" width="129" height="129"/></clipPath></defs><g clip-path="url(#clip0)" transform="translate(-297 -231)"><path d="M402.568 288.214 388.962 274.609 375.42 288.214 361.814 274.609 348.209 288.214 334.667 274.609 321.061 288.214 314.637 281.794 334.667 261.823 348.209 275.428 361.814 261.823 375.42 275.428 388.962 261.823 408.934 281.794Z" stroke="#FFFFFF" stroke-width="1.34375" fill="#021EA8"/><path d="M402.568 328.967 388.962 315.362 375.42 328.967 361.814 315.362 348.209 328.967 334.667 315.362 321.061 328.967 314.637 322.543 334.667 302.576 348.209 316.182 361.814 302.576 375.42 316.182 388.962 302.576 408.93 322.543 402.568 328.967Z" stroke="#FFFFFF" stroke-width="1.34375" fill="#021EA8"/></g></svg>