<svg width="128" height="128" xmlns="http://www.w3.org/2000/svg" xmlns:xlink="http://www.w3.org/1999/xlink" xml:space="preserve" overflow="hidden"><defs><clipPath id="clip0"><rect x="292" y="103" width="128" height="128"/></clipPath></defs><g clip-path="url(#clip0)" transform="translate(-292 -103)"><path d="M396.749 159.771 383.249 146.271 369.812 159.771 356.312 146.271 342.812 159.771 329.375 146.271 315.875 159.771 309.5 153.4 329.375 133.584 342.812 147.084 356.312 133.584 369.812 147.084 383.249 133.584 403.067 153.4Z" stroke="#FFFFFF" stroke-width="1.33333" fill="#0EACFB"/><path d="M396.749 200.208 383.249 186.708 369.812 200.208 356.312 186.708 342.812 200.208 329.375 186.708 315.875 200.208 309.5 193.833 329.375 174.021 342.812 187.521 356.312 174.021 369.812 187.521 383.249 174.021 403.063 193.833 396.749 200.208Z" stroke="#FFFFFF" stroke-width="1.33333" fill="#0EACFB"/></g></svg>