<svg width="129" height="129" xmlns="http://www.w3.org/2000/svg" xmlns:xlink="http://www.w3.org/1999/xlink" xml:space="preserve" overflow="hidden"><defs><clipPath id="clip0"><rect x="597" y="-1" width="129" height="129"/></clipPath></defs><g clip-path="url(#clip0)" transform="translate(-597 1)"><path d="M702.568 56.2142 688.962 42.6087 675.42 56.2142 661.814 42.6087 648.209 56.2142 634.667 42.6087 621.061 56.2142 614.637 49.7938 634.667 29.8229 648.209 43.4284 661.814 29.8229 675.42 43.4284 688.962 29.8229 708.934 49.7938Z" stroke="#FFFFFF" stroke-width="1.34375" fill="#4EA4CE"/><path d="M702.568 96.9674 688.962 83.362 675.42 96.9674 661.814 83.362 648.209 96.9674 634.667 83.362 621.061 96.9674 614.637 90.543 634.667 70.5762 648.209 84.1817 661.814 70.5762 675.42 84.1817 688.962 70.5762 708.93 90.543 702.568 96.9674Z" stroke="#FFFFFF" stroke-width="1.34375" fill="#4EA4CE"/></g></svg>