<svg width="129" height="129" xmlns="http://www.w3.org/2000/svg" xmlns:xlink="http://www.w3.org/1999/xlink" xml:space="preserve" overflow="hidden"><defs><clipPath id="clip0"><rect x="297" y="463" width="129" height="129"/></clipPath></defs><g clip-path="url(#clip0)" transform="translate(-297 -463)"><path d="M402.568 520.214 388.962 506.609 375.42 520.214 361.814 506.609 348.209 520.214 334.667 506.609 321.061 520.214 314.637 513.794 334.667 493.823 348.209 507.428 361.814 493.823 375.42 507.428 388.962 493.823 408.934 513.794Z" stroke="#FFFFFF" stroke-width="1.34375" fill="#0091FE"/><path d="M402.568 560.967 388.962 547.362 375.42 560.967 361.814 547.362 348.209 560.967 334.667 547.362 321.061 560.967 314.637 554.543 334.667 534.576 348.209 548.182 361.814 534.576 375.42 548.182 388.962 534.576 408.93 554.543 402.568 560.967Z" stroke="#FFFFFF" stroke-width="1.34375" fill="#0091FE"/></g></svg>