<?xml version="1.0" encoding="UTF-8"?><svg id="iconoAGUA" xmlns="http://www.w3.org/2000/svg" viewBox="0 0 128 128"><defs><style>.cls-1{fill:#fff;}.cls-2{fill:#ffed00;}.cls-3{fill:#7b6a58;}</style></defs><g><rect class="cls-3" x="2" y="2" width="124" height="124" rx="22" ry="22"/><path class="cls-2" d="M104,4c11.03,0,20,8.97,20,20V104c0,11.03-8.97,20-20,20H24c-11.03,0-20-8.97-20-20V24C4,12.97,12.97,4,24,4H104M104,0H24C10.75,0,0,10.75,0,24V104C0,117.25,10.75,128,24,128H104c13.25,0,24-10.75,24-24V24C128,10.75,117.25,0,104,0h0Z"/></g><path class="cls-1" d="M91.35,77.34c0,16.54-12.24,29.95-27.35,29.95s-27.35-13.41-27.35-29.95c0-12.22,14.92-43.49,22.71-54.26,2.29-3.16,6.97-3.16,9.26,0,7.8,10.76,22.71,42.04,22.71,54.26Z"/></svg>