<?xml version="1.0" encoding="UTF-8"?><svg xmlns="http://www.w3.org/2000/svg" viewBox="0 0 128 128"><defs><style>.cls-1{fill:#fff;}.cls-2{fill:#ffec00;}.cls-3{fill:#7a6a58;}</style></defs><g id="cuadrobase"><g><rect class="cls-3" x="2" y="2" width="124" height="124" rx="22" ry="22"/><path class="cls-2" d="M104,4c11.03,0,20,8.97,20,20V104c0,11.03-8.97,20-20,20H24c-11.03,0-20-8.97-20-20V24C4,12.97,12.97,4,24,4H104m0-4H24C10.75,0,0,10.75,0,24V104c0,13.25,10.75,24,24,24H104c13.25,0,24-10.75,24-24V24c0-13.25-10.75-24-24-24h0Z"/></g></g><g id="figura"><path class="cls-1" d="M110.37,40.85l-7.79-18.75c-.66-1.59-2.2-2.62-3.93-2.62h0l-58.77,.04-10.52-.04c-1.72,0-3.28,1.02-3.94,2.62l-7.79,18.75c-.67,1.62-1.02,3.34-1.02,5.1v5.06c0,4.41,4.02,7.35,5.54,8.45,1.44,1.05,3.06,1.83,4.77,2.3v45.74c0,.56,.41,1.02,.93,1.02H100.14c.51,0,.93-.45,.93-1.02V61.76c1.71-.48,3.34-1.26,4.77-2.3,1.51-1.11,5.54-4.04,5.54-8.45v-5.06c0-1.76-.34-3.47-1.02-5.1Zm-13.21-14.87l6.11,14.71h-14.55l-3.05-14.7h11.49Zm-55.22,25.01h0s0,0,0,0h0Zm25.32-25h11.77s3.05,14.69,3.05,14.69h-14.82v-14.69Zm0,21.19h15.56v3.25c-.57,1.49-1.58,2.81-2.87,3.75-1.42,1.03-3.16,1.6-4.91,1.6s-3.5-.57-4.91-1.6c-1.29-.94-2.3-2.26-2.87-3.75v-3.25Zm-18.27-21.18h11.77s0,14.68,0,14.68h-14.82l3.05-14.68Zm-3.79,21.18h15.56v3.25c-.57,1.49-1.58,2.81-2.87,3.75-1.42,1.03-3.16,1.6-4.91,1.6s-3.5-.57-4.91-1.6c-1.29-.94-2.3-2.26-2.87-3.75v-3.25Zm-14.34-21.21l9.03,.04h2.46s-3.05,14.67-3.05,14.67h-14.55l6.1-14.71Zm-7.72,25.02v-3.81h15.56v3.25c-.57,1.49-1.58,2.81-2.87,3.75-1.42,1.03-3.16,1.6-4.91,1.6s-3.5-.57-4.91-1.6c-2.5-1.82-2.87-2.78-2.87-3.2Zm67.06,45.32c0,2.62-2.31,4.68-5.26,4.68H43.37c-2.95,0-5.26-2.06-5.26-4.68v-22.79c0-2.62,2.31-4.68,5.26-4.68h41.55c2.95,0,5.26,2.06,5.26,4.68v22.79Zm14.7-45.32c0,.41-.37,1.38-2.87,3.2-1.42,1.03-3.16,1.6-4.91,1.6s-3.5-.57-4.91-1.6c-1.29-.94-2.3-2.26-2.87-3.75v-3.25h15.56v3.81Z"/></g></svg>