<?xml version="1.0" encoding="UTF-8"?><svg xmlns="http://www.w3.org/2000/svg" viewBox="0 0 128 128"><defs><style>.cls-1{fill:#f29100;}.cls-2{fill:#fff;}.cls-3{fill:#662482;}</style></defs><g id="cuadrobase"><g><rect class="cls-3" x="2" y="2" width="124" height="124" rx="22" ry="22"/><path class="cls-1" d="M104,4c11.03,0,20,8.97,20,20V104c0,11.03-8.97,20-20,20H24c-11.03,0-20-8.97-20-20V24C4,12.97,12.97,4,24,4H104m0-4H24C10.75,0,0,10.75,0,24V104c0,13.25,10.75,24,24,24H104c13.25,0,24-10.75,24-24V24c0-13.25-10.75-24-24-24h0Z"/></g></g><g id="figura"><g><path class="cls-2" d="M91.07,69.2h-11.38c3.38,2.36,6.34,5.62,8.81,9.75,3.36,5.61,4.84,11.17,5.3,13.17,3.52,1.46,6.02,5.21,6.02,9.6,0,5.65-4.16,10.25-9.28,10.25s-9.28-4.6-9.28-10.25c0-5.22,3.55-9.53,8.11-10.17-.67-2.39-2.04-6.51-4.49-10.57-4.02-6.67-9.27-10.61-15.64-11.78h-9.49c-10.16,1.5-13.76,7.19-15.01,10.64,8.57,2.82,11.47,15.92,12.34,21.63,1.03,1,1.68,2.48,1.68,4.14,0,3.01-2.15,5.45-4.8,5.45s-4.8-2.44-4.8-5.45c0-2.51,1.49-4.61,3.52-5.25-.37-1.98-.94-4.46-1.8-6.92-1.07-3.06-2.37-5.46-3.86-7.15-1.69-1.92-3.57-2.86-5.73-2.86-8.22,0-10.12,12.63-10.54,17.14,1.74,.81,2.97,2.76,2.97,5.04,0,3.01-2.15,5.45-4.8,5.45s-4.8-2.44-4.8-5.45c0-2.04,.98-3.81,2.44-4.74,.14-1.89,.57-5.81,1.85-9.77,2.95-9.2,8.1-11.54,12.15-11.78,.52-1.66,1.45-3.85,3.15-6.03,1.29-1.65,2.77-3,4.37-4.09h-11.15c-9.79,0-17.81,8.01-17.81,17.81v37.2H108.87v-37.2c0-9.79-8.01-17.81-17.81-17.81Z"/><path class="cls-2" d="M90.54,107.83c2.83,0,5.14-2.74,5.14-6.11s-2.31-6.11-5.14-6.11-5.14,2.74-5.14,6.11,2.31,6.11,5.14,6.11Z"/><path class="cls-2" d="M64,64.65c13.21,0,23.91-12.12,23.91-27.07,0-2.23-.24-4.4-.69-6.48h-12.89c-1.32,4.4-5.39,7.6-10.22,7.6s-8.9-3.2-10.22-7.6h-13.12c-.45,2.08-.69,4.24-.69,6.48,0,14.95,10.71,27.07,23.91,27.07Z"/><path class="cls-2" d="M64.11,17.36c5.23,0,9.58,3.76,10.49,8.73h11.06c-3.82-9.21-12.08-15.58-21.66-15.58s-17.84,6.38-21.66,15.58h11.28c.91-4.97,5.26-8.73,10.49-8.73Z"/><circle class="cls-2" cx="64.11" cy="28.03" r="4.67"/></g></g></svg>