<?xml version="1.0" encoding="UTF-8"?><svg xmlns="http://www.w3.org/2000/svg" viewBox="0 0 128 128"><defs><style>.cls-1{fill:#ffec00;}.cls-2{fill:#00a099;}.cls-3{fill:#fff;fill-rule:evenodd;}</style></defs><g id="cuadrobase"><g><rect class="cls-2" x="2" y="2" width="124" height="124" rx="22" ry="22"/><path class="cls-1" d="M104,4c11.03,0,20,8.97,20,20V104c0,11.03-8.97,20-20,20H24c-11.03,0-20-8.97-20-20V24C4,12.97,12.97,4,24,4H104m0-4H24C10.75,0,0,10.75,0,24V104c0,13.25,10.75,24,24,24H104c13.25,0,24-10.75,24-24V24c0-13.25-10.75-24-24-24h0Z"/></g></g><g id="figura"><path class="cls-3" d="M123.87,23.49v-2.8h-16.68V4.05h-6.41V20.69h-20.45V4.05h-6.41V20.69h-20.45V4.05h-6.41V20.69H26.61V4.05h-6.41V20.69H4.13v2.8H20.21V104.75H4.13v3.31H20.21v15.89h6.41v-15.89h20.45v15.67h6.41v-15.67h20.45v15.67h6.41v-15.67h20.45v15.89h6.41v-15.89h16.68v-3.31h-16.68V23.49h16.68Zm-49.94,0v12.03c-5.62-4.66-13.24-6.47-20.45-4.31v-7.72h20.45Zm-26.06,34.06c-2.76-7.61-.33-15.51,7.03-18.29,7.36-2.78,14.4,1.54,17.36,9.08l-24.39,9.21Zm16.61,7.09c4.3-1.62,8.82-.19,10.1,3.2,.82,2.17,.11,4.62-1.63,6.52l2.13,5.65-8.4,3.17-2.13-5.65c-2.57-.28-4.71-1.65-5.53-3.82-1.28-3.39,1.17-7.46,5.46-9.08ZM26.61,104.75V23.49h20.45v10.87c-8.02,5.77-11.45,16.64-7.69,26.62l.12,.3c-3.47,2.6-5.13,6.6-3.83,10.07l7.12,18.86c.78,2.06,2.26,3.74,4.27,5.03v9.52H26.61Zm26.86,0v-7.08c5.7,1.15,12.98,.58,20.45-1.9v8.98h-20.45Zm47.31,0h-20.45v-11.58c12.58-6.1,20.16-16.12,17.31-23.68l-7.12-18.86c-1.31-3.47-5.2-5.37-9.52-5.03l-.11-.3c-.17-.45-.36-.89-.55-1.33V23.49h20.45V104.75Z"/></g></svg>