<?xml version="1.0" encoding="UTF-8"?><svg xmlns="http://www.w3.org/2000/svg" viewBox="0 0 128 128"><defs><style>.cls-1{fill:#ffec00;}.cls-2{fill:#7a6a58;}</style></defs><g id="basecuadro"><g><rect class="cls-2" x="2" y="2" width="124" height="124" rx="22" ry="22"/><path class="cls-1" d="M104,4c11.03,0,20,8.97,20,20V104c0,11.03-8.97,20-20,20H24c-11.03,0-20-8.97-20-20V24C4,12.97,12.97,4,24,4H104M104,0H24C10.74,0,0,10.75,0,24V104C0,117.25,10.74,128,24,128H104c13.25,0,24-10.75,24-24V24C128,10.75,117.25,0,104,0h0Z"/></g></g><g id="trsnsfuga"><path class="cls-1" d="M123.94,104.98s-.31,19.1-22.28,19.1H26.46c-8.68,0-11.75-2.29-11.75-2.29,0,0,42.96-23.07,50.18-44.83,7.22-21.75,1.38-38.61,1.38-38.61h57.68V104.98Z"/></g></svg>