<svg width="129" height="129" xmlns="http://www.w3.org/2000/svg" xmlns:xlink="http://www.w3.org/1999/xlink" xml:space="preserve" overflow="hidden"><defs><clipPath id="clip0"><rect x="430" y="0" width="129" height="129"/></clipPath></defs><g clip-path="url(#clip0)" transform="translate(-430 0)"><path d="M526.304 60.3505C522.772 62.5705 519.943 65.7482 518.147 69.5135 517.58 70.7135 519.061 71.5856 520.135 70.7028 522.578 68.6813 525.427 67.2077 528.489 66.3812 530.908 65.7336 532.226 63.1401 531.101 61.2428L531.047 61.1527C529.981 59.6251 527.879 59.2509 526.351 60.3168 526.335 60.3279 526.32 60.3391 526.304 60.3505Z" stroke="#FFFFFF" stroke-width="1.34375" fill="#1C8AC0"/><path d="M468.633 65.3358C470.975 65.8622 473.15 66.96 474.965 68.5312 475.385 68.8972 476.022 68.8531 476.388 68.4328 476.628 68.1572 476.7 67.7734 476.577 67.4294 475.423 64.4352 473.348 61.8849 470.651 60.1462 469.391 59.353 467.727 59.7312 466.934 60.9911 466.918 61.0155 466.903 61.0404 466.889 61.0654L466.843 61.1447C466.042 62.4727 466.469 64.1989 467.797 65.0001 468.056 65.1563 468.338 65.2697 468.633 65.3358Z" stroke="#FFFFFF" stroke-width="1.34375" fill="#1C8AC0"/><path d="M540.108 84.0811 540.088 83.9924C539.753 82.5419 538.306 81.6371 536.856 81.9718 536.827 81.9784 536.799 81.9854 536.77 81.9929 533.678 82.8503 530.937 84.6669 528.943 87.1812 528.604 87.6246 528.689 88.2587 529.132 88.5976 529.428 88.8233 529.823 88.8688 530.162 88.7157 532.362 87.7533 534.765 87.3513 537.159 87.5453 538.705 87.6673 540.057 86.5126 540.179 84.9664 540.203 84.6694 540.179 84.3706 540.108 84.0811Z" stroke="#FFFFFF" stroke-width="1.34375" fill="#1C8AC0"/><path d="M453.369 88.3489C456.493 87.8008 459.698 87.9291 462.767 88.7251 464.111 89.0691 465.085 87.6501 464.064 86.8063 460.843 84.1553 456.934 82.4744 452.794 81.9593 450.965 81.6092 449.197 82.8085 448.847 84.6381 448.844 84.6575 448.84 84.6771 448.837 84.6966L448.826 84.8C448.611 86.9957 450.906 88.7856 453.369 88.3489Z" stroke="#FFFFFF" stroke-width="1.34375" fill="#1C8AC0"/><path d="M499.41 73.2653C500.124 73.2 500.685 72.6271 500.736 71.9121 501.059 67.2318 502.841 50.1057 512.044 35.8835 514.416 32.1446 513.621 27.223 510.192 24.4213L510.192 24.4213C506.463 21.3175 500.923 21.8248 497.82 25.5544 496.863 26.7034 496.216 28.0774 495.939 29.5464 492.949 46.3943 496.745 66.8301 497.831 72.1003 497.983 72.8347 498.663 73.337 499.41 73.2653Z" stroke="#FFFFFF" stroke-width="1.34375" fill="#1C8AC0"/><path d="M523.365 95.2867C525.246 94.4293 526.358 93.4296 526.358 92.3573 526.358 90.3417 522.519 88.5733 516.735 87.5574 518.894 86.4102 521.195 85.5548 523.579 85.0137 526.457 84.3586 528.26 81.4941 527.605 78.6154 527.479 78.0629 527.266 77.5337 526.974 77.0479L526.886 76.8988C525.454 74.4546 522.312 73.6341 519.867 75.066 519.82 75.094 519.773 75.1226 519.726 75.1519 515.298 78.0016 511.743 82.0182 509.452 86.7592 508.439 86.7055 507.395 86.6759 506.334 86.6638 514.371 64.8252 524.952 51.8687 531.633 46.4279 534.851 43.8877 535.4 39.22 532.86 36.0023 530.32 32.7845 525.652 32.2354 522.434 34.7754 522.055 35.0747 521.706 35.4102 521.392 35.7773 509.777 48.8373 504.406 70.3117 501.922 86.7337 500.226 86.8116 498.596 86.9406 497.065 87.1234 497.065 87.1113 497.065 87.0992 497.065 87.0871 493.444 66.4323 485.833 38.2485 470.155 21.7808 466.699 18.0097 460.84 17.7546 457.069 21.211 453.297 24.6674 453.042 30.5265 456.499 34.2977 456.904 34.7396 457.351 35.1409 457.833 35.4965 466.742 42.2609 481.263 58.9718 492.401 87.8933 491.342 88.1231 490.368 88.3798 489.492 88.6606 486.624 82.7833 482.2 77.8051 476.699 74.2677 473.71 72.382 469.757 73.277 467.871 76.2667 467.833 76.3277 467.796 76.3892 467.759 76.4513L467.649 76.6367C465.75 79.7934 466.769 83.8919 469.926 85.7913 470.533 86.1569 471.196 86.4234 471.887 86.5805 475.711 87.444 479.359 88.9536 482.675 91.0444 481.045 90.9101 479.324 90.8402 477.539 90.8402 467.546 90.8402 459.444 93.0493 459.444 95.7758 459.444 97.4178 462.401 98.8664 466.928 99.7667 466.63 100.213 466.465 100.735 466.453 101.272 466.448 106.197 481.084 110.188 499.137 110.188 517.191 110.188 531.827 106.197 531.827 101.272 531.827 98.9685 528.623 96.8696 523.365 95.2867Z" stroke="#FFFFFF" stroke-width="1.34375" fill="#1C8AC0"/><path d="M455.252 100.71C452.575 100.71 450.405 101.301 450.405 102.032 450.405 102.763 452.575 103.355 455.252 103.355 457.928 103.355 460.099 102.762 460.099 102.032 460.099 101.303 457.928 100.71 455.252 100.71Z" stroke="#FFFFFF" stroke-width="1.34375" fill="#1C8AC0"/></g></svg>