<svg xmlns="http://www.w3.org/2000/svg" xmlns:xlink="http://www.w3.org/1999/xlink" width="129" height="129" overflow="hidden" xml:space="preserve"><defs><clipPath id="clip0"><rect width="129" height="129" x="0" y="379"/></clipPath></defs><g clip-path="url(#clip0)" transform="matrix(1 0 0 1 0 -379)"><path fill="#003031" stroke="#FFF" stroke-width="1.344" d="M96.3039 439.35C92.772 441.57 89.9434 444.748 88.1473 448.514 87.5803 449.714 89.0611 450.586 90.1347 449.703 92.5783 447.681 95.4271 446.208 98.4888 445.381 100.908 444.734 102.226 442.14 101.101 440.243L101.047 440.153C99.9813 438.625 97.8789 438.251 96.3513 439.317 96.3353 439.328 96.3196 439.339 96.3039 439.35Z"/><path fill="#003031" stroke="#FFF" stroke-width="1.344" d="M38.6328 444.336C40.9747 444.862 43.15 445.96 44.9646 447.531 45.3849 447.897 46.0224 447.853 46.3883 447.433 46.6283 447.157 46.7004 446.773 46.5771 446.429 45.4232 443.435 43.348 440.885 40.6511 439.146 39.3914 438.353 37.727 438.731 36.9338 439.991 36.9183 440.016 36.9033 440.04 36.8886 440.065L36.8429 440.145C36.0417 441.473 36.4687 443.199 37.7967 444 38.0555 444.156 38.3379 444.27 38.6328 444.336Z"/><path fill="#003031" stroke="#FFF" stroke-width="1.344" d="M110.108 463.081 110.088 462.992C109.753 461.542 108.306 460.637 106.856 460.972 106.827 460.978 106.799 460.985 106.77 460.993 103.678 461.85 100.937 463.667 98.943 466.181 98.6041 466.625 98.6888 467.259 99.1322 467.598 99.4276 467.823 99.823 467.869 100.162 467.716 102.362 466.753 104.765 466.351 107.159 466.545 108.705 466.667 110.057 465.513 110.179 463.966 110.203 463.669 110.179 463.371 110.108 463.081Z"/><path fill="#003031" stroke="#FFF" stroke-width="1.344" d="M23.3692 467.349C26.4927 466.801 29.6975 466.929 32.7673 467.725 34.1111 468.069 35.0853 466.65 34.0641 465.806 30.8426 463.155 26.9341 461.474 22.794 460.959 20.9645 460.609 19.1975 461.808 18.8473 463.638 18.8437 463.657 18.84 463.677 18.8367 463.697L18.8259 463.8C18.6109 465.996 20.9061 467.786 23.3692 467.349Z"/><path fill="#003031" stroke="#FFF" stroke-width="1.344" d="M69.4101 452.265C70.1239 452.2 70.6854 451.627 70.7363 450.912 71.0588 446.232 72.8407 429.106 82.044 414.883 84.4161 411.145 83.621 406.223 80.1923 403.421L80.1923 403.421C76.4629 400.318 70.9234 400.825 67.8196 404.554 66.8634 405.703 66.2161 407.077 65.9392 408.546 62.9493 425.394 66.7454 445.83 67.8312 451.1 67.9827 451.835 68.6635 452.337 69.4101 452.265Z"/><path fill="#003031" stroke="#FFF" stroke-width="1.344" d="M93.3651 474.287C95.2463 473.429 96.3576 472.43 96.3576 471.357 96.3576 469.342 92.5185 467.573 86.735 466.557 88.8936 465.41 91.1949 464.555 93.5788 464.014 96.4573 463.359 98.26 460.494 97.6049 457.615 97.4793 457.063 97.2664 456.534 96.9744 456.048L96.8857 455.899C95.4537 453.455 92.3116 452.634 89.8674 454.066 89.8199 454.094 89.7729 454.123 89.7262 454.152 85.2984 457.002 81.743 461.018 79.4519 465.759 78.4387 465.705 77.3946 465.676 76.3344 465.664 84.3714 443.825 94.9521 430.869 101.633 425.428 104.851 422.888 105.4 418.22 102.86 415.002 100.32 411.785 95.6522 411.235 92.4344 413.775 92.0553 414.075 91.7064 414.41 91.3925 414.777 79.7771 427.837 74.4061 449.312 71.9215 465.734 70.2257 465.812 68.5957 465.941 67.0652 466.123 67.0652 466.111 67.0652 466.099 67.0652 466.087 63.4438 445.432 55.8328 417.249 40.1553 400.781 36.6989 397.01 30.8397 396.755 27.0686 400.211 23.2974 403.667 23.0422 409.527 26.4987 413.298 26.9036 413.74 27.3506 414.141 27.8331 414.496 36.7422 421.261 51.2627 437.972 62.4011 466.893 61.3422 467.123 60.368 467.38 59.4918 467.661 56.6243 461.783 52.1996 456.805 46.6993 453.268 43.7096 451.382 39.7573 452.277 37.8714 455.267 37.833 455.328 37.7957 455.389 37.7594 455.451L37.6492 455.637C35.7499 458.793 36.769 462.892 39.9256 464.791 40.5334 465.157 41.1956 465.423 41.8874 465.581 45.711 466.444 49.3593 467.954 52.675 470.044 51.045 469.91 49.3237 469.84 47.5392 469.84 37.5457 469.84 29.4443 472.049 29.4443 474.776 29.4443 476.418 32.4005 477.866 36.9276 478.767 36.6295 479.213 36.4651 479.735 36.4533 480.272 36.4479 485.197 51.084 489.188 69.1373 489.188 87.1906 489.188 101.827 485.197 101.827 480.272 101.827 477.969 98.6232 475.87 93.3651 474.287Z"/><path fill="#003031" stroke="#FFF" stroke-width="1.344" d="M25.2517 479.71C22.575 479.71 20.4048 480.301 20.4048 481.032 20.4048 481.763 22.575 482.355 25.2517 482.355 27.9285 482.355 30.0987 481.762 30.0987 481.032 30.0987 480.303 27.9285 479.71 25.2517 479.71Z"/></g></svg>