<svg width="128" height="128" xmlns="http://www.w3.org/2000/svg" xmlns:xlink="http://www.w3.org/1999/xlink" xml:space="preserve" overflow="hidden"><defs><clipPath id="clip0"><rect x="1" y="260" width="128" height="128"/></clipPath></defs><g clip-path="url(#clip0)" transform="translate(-1 -260)"><path d="M96.5573 319.883C93.0528 322.085 90.2461 325.239 88.464 328.975 87.9013 330.165 89.3707 331.031 90.436 330.155 92.8607 328.149 95.6873 326.687 98.7253 325.867 101.125 325.224 102.433 322.651 101.317 320.768L101.264 320.679C100.206 319.163 98.1201 318.792 96.6044 319.849 96.5885 319.86 96.5729 319.871 96.5573 319.883Z" stroke="#FFFFFF" stroke-width="1.33333" fill="#011369"/><path d="M39.3333 324.829C41.6571 325.352 43.8155 326.441 45.616 328 46.0331 328.363 46.6656 328.319 47.0287 327.902 47.2668 327.629 47.3384 327.248 47.216 326.907 46.0711 323.936 44.012 321.405 41.336 319.68 40.086 318.893 38.4345 319.268 37.6475 320.518 37.6321 320.543 37.6172 320.567 37.6027 320.592L37.5573 320.671C36.7623 321.988 37.186 323.701 38.5037 324.496 38.7605 324.651 39.0407 324.764 39.3333 324.829Z" stroke="#FFFFFF" stroke-width="1.33333" fill="#011369"/><path d="M110.255 343.429 110.235 343.341C109.903 341.902 108.467 341.004 107.027 341.336 106.999 341.343 106.971 341.35 106.943 341.357 103.874 342.208 101.155 344.011 99.176 346.505 98.8397 346.945 98.9237 347.575 99.3637 347.911 99.6568 348.135 100.049 348.18 100.385 348.028 102.568 347.073 104.953 346.674 107.328 346.867 108.862 346.988 110.204 345.842 110.325 344.308 110.348 344.013 110.325 343.717 110.255 343.429Z" stroke="#FFFFFF" stroke-width="1.33333" fill="#011369"/><path d="M24.188 347.664C27.2873 347.12 30.4673 347.247 33.5133 348.037 34.8467 348.379 35.8133 346.971 34.8 346.133 31.6035 343.503 27.7253 341.835 23.6173 341.324 21.802 340.977 20.0487 342.167 19.7012 343.982 19.6976 344.001 19.694 344.021 19.6907 344.04L19.68 344.143C19.4667 346.321 21.744 348.097 24.188 347.664Z" stroke="#FFFFFF" stroke-width="1.33333" fill="#011369"/><path d="M69.872 332.697C70.5803 332.633 71.1375 332.064 71.188 331.355 71.508 326.711 73.276 309.717 82.408 295.605 84.7617 291.895 83.9728 287.012 80.5707 284.232L80.5707 284.232C76.8701 281.152 71.3736 281.656 68.2939 285.356 67.3451 286.496 66.7028 287.86 66.428 289.317 63.4613 306.035 67.228 326.312 68.3053 331.541 68.4557 332.27 69.1312 332.769 69.872 332.697Z" stroke="#FFFFFF" stroke-width="1.33333" fill="#011369"/><path d="M93.6413 354.548C95.508 353.697 96.6107 352.705 96.6107 351.641 96.6107 349.641 92.8013 347.887 87.0627 346.879 89.2045 345.74 91.488 344.892 93.8533 344.355 96.7096 343.705 98.4983 340.862 97.8483 338.006 97.7236 337.458 97.5124 336.933 97.2227 336.451L97.1347 336.303C95.7137 333.877 92.596 333.063 90.1708 334.484 90.1236 334.512 90.0769 334.54 90.0307 334.569 85.6372 337.397 82.1093 341.382 79.836 346.087 78.8307 346.033 77.7947 346.004 76.7427 345.992 84.7173 324.323 95.216 311.467 101.845 306.068 105.038 303.547 105.583 298.916 103.063 295.723 100.542 292.53 95.9107 291.985 92.7179 294.506 92.3417 294.803 91.9955 295.136 91.684 295.5 80.1587 308.459 74.8293 329.767 72.364 346.061 70.6813 346.139 69.064 346.267 67.5453 346.448 67.5453 346.436 67.5453 346.424 67.5453 346.412 63.952 325.917 56.4 297.952 40.844 281.612 37.4144 277.87 31.6007 277.617 27.8588 281.047 24.1168 284.476 23.8636 290.29 27.2933 294.032 27.6951 294.47 28.1385 294.869 28.6173 295.221 37.4573 301.933 51.8653 318.515 62.9173 347.212 61.8667 347.44 60.9 347.695 60.0307 347.973 57.1853 342.142 52.7949 337.202 47.3373 333.692 44.3708 331.821 40.4491 332.709 38.5779 335.675 38.5397 335.736 38.5027 335.797 38.4667 335.859L38.3573 336.043C36.4728 339.175 37.484 343.242 40.6161 345.126 41.2192 345.489 41.8763 345.753 42.5627 345.909 46.3567 346.766 49.9767 348.264 53.2667 350.339 51.6493 350.205 49.9413 350.136 48.1707 350.136 38.2547 350.136 30.216 352.328 30.216 355.033 30.216 356.663 33.1493 358.1 37.6413 358.993 37.3456 359.436 37.1824 359.954 37.1707 360.487 37.1653 365.373 51.688 369.333 69.6013 369.333 87.5147 369.333 102.037 365.373 102.037 360.487 102.037 358.201 98.8587 356.119 93.6413 354.548Z" stroke="#FFFFFF" stroke-width="1.33333" fill="#011369"/><path d="M26.056 359.929C23.4 359.929 21.2467 360.516 21.2467 361.241 21.2467 361.967 23.4 362.553 26.056 362.553 28.712 362.553 30.8653 361.965 30.8653 361.241 30.8653 360.517 28.712 359.929 26.056 359.929Z" stroke="#FFFFFF" stroke-width="1.33333" fill="#011369"/></g></svg>