<svg width="129" height="129" xmlns="http://www.w3.org/2000/svg" xmlns:xlink="http://www.w3.org/1999/xlink" xml:space="preserve" overflow="hidden"><defs><clipPath id="clip0"><rect x="573" y="140" width="129" height="129"/></clipPath></defs><g clip-path="url(#clip0)" transform="translate(-573 -140)"><path d="M669.304 200.35C665.772 202.571 662.943 205.748 661.147 209.514 660.58 210.714 662.061 211.586 663.135 210.703 665.578 208.681 668.427 207.208 671.489 206.381 673.908 205.734 675.226 203.14 674.101 201.243L674.047 201.153C672.981 199.625 670.879 199.251 669.351 200.317 669.335 200.328 669.32 200.339 669.304 200.35Z" stroke="#FFFFFF" stroke-width="1.34375" fill="#6ECDFC"/><path d="M611.633 205.336C613.975 205.862 616.15 206.96 617.965 208.531 618.385 208.897 619.022 208.853 619.388 208.433 619.628 208.157 619.7 207.773 619.577 207.429 618.423 204.435 616.348 201.885 613.651 200.146 612.391 199.353 610.727 199.731 609.934 200.991 609.918 201.016 609.903 201.04 609.889 201.065L609.843 201.145C609.042 202.473 609.469 204.199 610.797 205 611.056 205.156 611.338 205.27 611.633 205.336Z" stroke="#FFFFFF" stroke-width="1.34375" fill="#6ECDFC"/><path d="M683.108 224.081 683.088 223.992C682.753 222.542 681.306 221.637 679.856 221.972 679.827 221.978 679.799 221.985 679.77 221.993 676.678 222.85 673.937 224.667 671.943 227.181 671.604 227.625 671.689 228.259 672.132 228.598 672.428 228.823 672.823 228.869 673.162 228.716 675.362 227.753 677.765 227.351 680.159 227.545 681.705 227.667 683.057 226.513 683.179 224.966 683.203 224.669 683.179 224.371 683.108 224.081Z" stroke="#FFFFFF" stroke-width="1.34375" fill="#6ECDFC"/><path d="M596.369 228.349C599.493 227.801 602.698 227.929 605.767 228.725 607.111 229.069 608.085 227.65 607.064 226.806 603.843 224.155 599.934 222.474 595.794 221.959 593.965 221.609 592.198 222.808 591.847 224.638 591.844 224.657 591.84 224.677 591.837 224.697L591.826 224.8C591.611 226.996 593.906 228.786 596.369 228.349Z" stroke="#FFFFFF" stroke-width="1.34375" fill="#6ECDFC"/><path d="M642.41 213.265C643.124 213.2 643.685 212.627 643.736 211.912 644.059 207.232 645.841 190.106 655.044 175.883 657.416 172.145 656.621 167.223 653.192 164.421L653.192 164.421C649.463 161.318 643.923 161.825 640.82 165.554 639.863 166.703 639.216 168.077 638.939 169.546 635.949 186.394 639.745 206.83 640.831 212.1 640.983 212.835 641.663 213.337 642.41 213.265Z" stroke="#FFFFFF" stroke-width="1.34375" fill="#6ECDFC"/><path d="M666.365 235.287C668.246 234.429 669.358 233.43 669.358 232.357 669.358 230.342 665.519 228.573 659.735 227.557 661.894 226.41 664.195 225.555 666.579 225.014 669.457 224.359 671.26 221.494 670.605 218.615 670.479 218.063 670.266 217.534 669.974 217.048L669.886 216.899C668.454 214.455 665.312 213.634 662.867 215.066 662.82 215.094 662.773 215.123 662.726 215.152 658.298 218.002 654.743 222.018 652.452 226.759 651.439 226.705 650.395 226.676 649.334 226.664 657.371 204.825 667.952 191.869 674.633 186.428 677.851 183.888 678.4 179.22 675.86 176.002 673.32 172.785 668.652 172.235 665.434 174.775 665.055 175.075 664.706 175.41 664.392 175.777 652.777 188.837 647.406 210.312 644.922 226.734 643.226 226.812 641.596 226.941 640.065 227.123 640.065 227.111 640.065 227.099 640.065 227.087 636.444 206.432 628.833 178.249 613.155 161.781 609.699 158.01 603.84 157.755 600.069 161.211 596.297 164.667 596.042 170.527 599.499 174.298 599.904 174.74 600.351 175.141 600.833 175.497 609.742 182.261 624.263 198.972 635.401 227.893 634.342 228.123 633.368 228.38 632.492 228.661 629.624 222.783 625.2 217.805 619.699 214.268 616.71 212.382 612.757 213.277 610.871 216.267 610.833 216.328 610.796 216.389 610.759 216.451L610.649 216.637C608.75 219.793 609.769 223.892 612.926 225.791 613.533 226.157 614.196 226.423 614.887 226.581 618.711 227.444 622.359 228.954 625.675 231.044 624.045 230.91 622.324 230.84 620.539 230.84 610.546 230.84 602.444 233.049 602.444 235.776 602.444 237.418 605.401 238.866 609.928 239.767 609.63 240.213 609.465 240.735 609.453 241.272 609.448 246.197 624.084 250.188 642.137 250.188 660.191 250.188 674.827 246.197 674.827 241.272 674.827 238.969 671.623 236.87 666.365 235.287Z" stroke="#FFFFFF" stroke-width="1.34375" fill="#6ECDFC"/><path d="M598.252 240.71C595.575 240.71 593.405 241.301 593.405 242.032 593.405 242.763 595.575 243.355 598.252 243.355 600.929 243.355 603.099 242.762 603.099 242.032 603.099 241.303 600.929 240.71 598.252 240.71Z" stroke="#FFFFFF" stroke-width="1.34375" fill="#6ECDFC"/></g></svg>