<svg width="129" height="129" xmlns="http://www.w3.org/2000/svg" xmlns:xlink="http://www.w3.org/1999/xlink" xml:space="preserve" overflow="hidden"><defs><clipPath id="clip0"><rect x="143" y="379" width="129" height="129"/></clipPath></defs><g clip-path="url(#clip0)" transform="translate(-143 -379)"><path d="M239.304 439.35C235.772 441.57 232.943 444.748 231.147 448.514 230.58 449.714 232.061 450.586 233.135 449.703 235.578 447.681 238.427 446.208 241.489 445.381 243.908 444.734 245.226 442.14 244.101 440.243L244.047 440.153C242.981 438.625 240.879 438.251 239.351 439.317 239.335 439.328 239.32 439.339 239.304 439.35Z" stroke="#FFFFFF" stroke-width="1.34375" fill="#016062"/><path d="M181.633 444.336C183.975 444.862 186.15 445.96 187.965 447.531 188.385 447.897 189.022 447.853 189.388 447.433 189.628 447.157 189.7 446.773 189.577 446.429 188.423 443.435 186.348 440.885 183.651 439.146 182.391 438.353 180.727 438.731 179.934 439.991 179.918 440.016 179.903 440.04 179.889 440.065L179.843 440.145C179.042 441.473 179.469 443.199 180.797 444 181.056 444.156 181.338 444.27 181.633 444.336Z" stroke="#FFFFFF" stroke-width="1.34375" fill="#016062"/><path d="M253.108 463.081 253.088 462.992C252.753 461.542 251.306 460.637 249.856 460.972 249.827 460.978 249.799 460.985 249.77 460.993 246.678 461.85 243.937 463.667 241.943 466.181 241.604 466.625 241.689 467.259 242.132 467.598 242.428 467.823 242.823 467.869 243.162 467.716 245.362 466.753 247.765 466.351 250.159 466.545 251.705 466.667 253.057 465.513 253.179 463.966 253.203 463.669 253.179 463.371 253.108 463.081Z" stroke="#FFFFFF" stroke-width="1.34375" fill="#016062"/><path d="M166.369 467.349C169.493 466.801 172.698 466.929 175.767 467.725 177.111 468.069 178.085 466.65 177.064 465.806 173.843 463.155 169.934 461.474 165.794 460.959 163.965 460.609 162.197 461.808 161.847 463.638 161.844 463.657 161.84 463.677 161.837 463.697L161.826 463.8C161.611 465.996 163.906 467.786 166.369 467.349Z" stroke="#FFFFFF" stroke-width="1.34375" fill="#016062"/><path d="M212.41 452.265C213.124 452.2 213.685 451.627 213.736 450.912 214.059 446.232 215.841 429.106 225.044 414.883 227.416 411.145 226.621 406.223 223.192 403.421L223.192 403.421C219.463 400.318 213.923 400.825 210.82 404.554 209.863 405.703 209.216 407.077 208.939 408.546 205.949 425.394 209.745 445.83 210.831 451.1 210.983 451.835 211.663 452.337 212.41 452.265Z" stroke="#FFFFFF" stroke-width="1.34375" fill="#016062"/><path d="M236.365 474.287C238.246 473.429 239.358 472.43 239.358 471.357 239.358 469.342 235.519 467.573 229.735 466.557 231.894 465.41 234.195 464.555 236.579 464.014 239.457 463.359 241.26 460.494 240.605 457.615 240.479 457.063 240.266 456.534 239.974 456.048L239.886 455.899C238.454 453.455 235.312 452.634 232.867 454.066 232.82 454.094 232.773 454.123 232.726 454.152 228.298 457.002 224.743 461.018 222.452 465.759 221.439 465.705 220.395 465.676 219.334 465.664 227.371 443.825 237.952 430.869 244.633 425.428 247.851 422.888 248.4 418.22 245.86 415.002 243.32 411.785 238.652 411.235 235.434 413.775 235.055 414.075 234.706 414.41 234.392 414.777 222.777 427.837 217.406 449.312 214.922 465.734 213.226 465.812 211.596 465.941 210.065 466.123 210.065 466.111 210.065 466.099 210.065 466.087 206.444 445.432 198.833 417.249 183.155 400.781 179.699 397.01 173.84 396.755 170.069 400.211 166.297 403.667 166.042 409.527 169.499 413.298 169.904 413.74 170.351 414.141 170.833 414.496 179.742 421.261 194.263 437.972 205.401 466.893 204.342 467.123 203.368 467.38 202.492 467.661 199.624 461.783 195.2 456.805 189.699 453.268 186.71 451.382 182.757 452.277 180.871 455.267 180.833 455.328 180.796 455.389 180.759 455.451L180.649 455.637C178.75 458.793 179.769 462.892 182.926 464.791 183.533 465.157 184.196 465.423 184.887 465.581 188.711 466.444 192.359 467.954 195.675 470.044 194.045 469.91 192.324 469.84 190.539 469.84 180.546 469.84 172.444 472.049 172.444 474.776 172.444 476.418 175.4 477.866 179.928 478.767 179.63 479.213 179.465 479.735 179.453 480.272 179.448 485.197 194.084 489.188 212.137 489.188 230.191 489.188 244.827 485.197 244.827 480.272 244.827 477.969 241.623 475.87 236.365 474.287Z" stroke="#FFFFFF" stroke-width="1.34375" fill="#016062"/><path d="M168.252 479.71C165.575 479.71 163.405 480.301 163.405 481.032 163.405 481.763 165.575 482.355 168.252 482.355 170.928 482.355 173.099 481.762 173.099 481.032 173.099 480.303 170.928 479.71 168.252 479.71Z" stroke="#FFFFFF" stroke-width="1.34375" fill="#016062"/></g></svg>