<svg width="128" height="128" xmlns="http://www.w3.org/2000/svg" xmlns:xlink="http://www.w3.org/1999/xlink" xml:space="preserve" overflow="hidden"><defs><clipPath id="clip0"><rect x="717" y="260" width="128" height="128"/></clipPath></defs><g clip-path="url(#clip0)" transform="translate(-717 -260)"><path d="M812.557 319.883C809.053 322.085 806.246 325.239 804.464 328.975 803.901 330.165 805.371 331.031 806.436 330.155 808.861 328.149 811.687 326.687 814.725 325.867 817.125 325.224 818.433 322.651 817.317 320.768L817.264 320.679C816.206 319.163 814.12 318.792 812.604 319.849 812.589 319.86 812.573 319.871 812.557 319.883Z" stroke="#FFFFFF" stroke-width="1.33333" fill="#677CE4"/><path d="M755.333 324.829C757.657 325.352 759.815 326.441 761.616 328 762.033 328.363 762.666 328.319 763.029 327.902 763.267 327.629 763.338 327.248 763.216 326.907 762.071 323.936 760.012 321.405 757.336 319.68 756.086 318.893 754.435 319.268 753.647 320.518 753.632 320.543 753.617 320.567 753.603 320.592L753.557 320.671C752.762 321.988 753.186 323.701 754.504 324.496 754.761 324.651 755.041 324.764 755.333 324.829Z" stroke="#FFFFFF" stroke-width="1.33333" fill="#677CE4"/><path d="M826.255 343.429 826.235 343.341C825.903 341.902 824.467 341.004 823.027 341.336 822.999 341.343 822.971 341.35 822.943 341.357 819.874 342.208 817.155 344.011 815.176 346.505 814.84 346.945 814.924 347.575 815.364 347.911 815.657 348.135 816.049 348.18 816.385 348.028 818.568 347.073 820.953 346.674 823.328 346.867 824.862 346.988 826.204 345.842 826.325 344.308 826.348 344.013 826.325 343.717 826.255 343.429Z" stroke="#FFFFFF" stroke-width="1.33333" fill="#677CE4"/><path d="M740.188 347.664C743.287 347.12 746.467 347.247 749.513 348.037 750.847 348.379 751.813 346.971 750.8 346.133 747.603 343.503 743.725 341.835 739.617 341.324 737.802 340.977 736.049 342.167 735.701 343.982 735.698 344.001 735.694 344.021 735.691 344.04L735.68 344.143C735.467 346.321 737.744 348.097 740.188 347.664Z" stroke="#FFFFFF" stroke-width="1.33333" fill="#677CE4"/><path d="M785.872 332.697C786.58 332.633 787.137 332.064 787.188 331.355 787.508 326.711 789.276 309.717 798.408 295.605 800.762 291.895 799.973 287.012 796.571 284.232L796.571 284.232C792.87 281.152 787.374 281.656 784.294 285.356 783.345 286.496 782.703 287.86 782.428 289.317 779.461 306.035 783.228 326.312 784.305 331.541 784.456 332.27 785.131 332.769 785.872 332.697Z" stroke="#FFFFFF" stroke-width="1.33333" fill="#677CE4"/><path d="M809.641 354.548C811.508 353.697 812.611 352.705 812.611 351.641 812.611 349.641 808.801 347.887 803.063 346.879 805.205 345.74 807.488 344.892 809.853 344.355 812.71 343.705 814.498 340.862 813.848 338.006 813.724 337.458 813.512 336.933 813.223 336.451L813.135 336.303C811.714 333.877 808.596 333.063 806.171 334.484 806.124 334.512 806.077 334.54 806.031 334.569 801.637 337.397 798.109 341.382 795.836 346.087 794.831 346.033 793.795 346.004 792.743 345.992 800.717 324.323 811.216 311.467 817.845 306.068 821.038 303.547 821.583 298.916 819.063 295.723 816.542 292.53 811.911 291.985 808.718 294.506 808.342 294.803 807.995 295.136 807.684 295.5 796.159 308.459 790.829 329.767 788.364 346.061 786.681 346.139 785.064 346.267 783.545 346.448 783.545 346.436 783.545 346.424 783.545 346.412 779.952 325.917 772.4 297.952 756.844 281.612 753.414 277.87 747.601 277.617 743.859 281.047 740.117 284.476 739.864 290.29 743.293 294.032 743.695 294.47 744.139 294.869 744.617 295.221 753.457 301.933 767.865 318.515 778.917 347.212 777.867 347.44 776.9 347.695 776.031 347.973 773.185 342.142 768.795 337.202 763.337 333.692 760.371 331.821 756.449 332.709 754.578 335.675 754.54 335.736 754.503 335.797 754.467 335.859L754.357 336.043C752.473 339.175 753.484 343.242 756.616 345.126 757.219 345.489 757.876 345.753 758.563 345.909 762.357 346.766 765.977 348.264 769.267 350.339 767.649 350.205 765.941 350.136 764.171 350.136 754.255 350.136 746.216 352.328 746.216 355.033 746.216 356.663 749.149 358.1 753.641 358.993 753.346 359.436 753.182 359.954 753.171 360.487 753.165 365.373 767.688 369.333 785.601 369.333 803.515 369.333 818.037 365.373 818.037 360.487 818.037 358.201 814.859 356.119 809.641 354.548Z" stroke="#FFFFFF" stroke-width="1.33333" fill="#677CE4"/><path d="M742.056 359.929C739.4 359.929 737.247 360.516 737.247 361.241 737.247 361.967 739.4 362.553 742.056 362.553 744.712 362.553 746.865 361.965 746.865 361.241 746.865 360.517 744.712 359.929 742.056 359.929Z" stroke="#FFFFFF" stroke-width="1.33333" fill="#677CE4"/></g></svg>