<svg width="128" height="128" xmlns="http://www.w3.org/2000/svg" xmlns:xlink="http://www.w3.org/1999/xlink" xml:space="preserve" overflow="hidden"><defs><clipPath id="clip0"><rect x="144" y="260" width="128" height="128"/></clipPath></defs><g clip-path="url(#clip0)" transform="translate(-144 -260)"><path d="M239.557 319.883C236.053 322.085 233.246 325.239 231.464 328.975 230.901 330.165 232.371 331.031 233.436 330.155 235.861 328.149 238.687 326.687 241.725 325.867 244.125 325.224 245.433 322.651 244.317 320.768L244.264 320.679C243.206 319.163 241.12 318.792 239.604 319.849 239.589 319.86 239.573 319.871 239.557 319.883Z" stroke="#FFFFFF" stroke-width="1.33333" fill="#021A93"/><path d="M182.333 324.829C184.657 325.352 186.815 326.441 188.616 328 189.033 328.363 189.666 328.319 190.029 327.902 190.267 327.629 190.338 327.248 190.216 326.907 189.071 323.936 187.012 321.405 184.336 319.68 183.086 318.893 181.435 319.268 180.647 320.518 180.632 320.543 180.617 320.567 180.603 320.592L180.557 320.671C179.762 321.988 180.186 323.701 181.504 324.496 181.761 324.651 182.041 324.764 182.333 324.829Z" stroke="#FFFFFF" stroke-width="1.33333" fill="#021A93"/><path d="M253.255 343.429 253.235 343.341C252.903 341.902 251.467 341.004 250.027 341.336 249.999 341.343 249.971 341.35 249.943 341.357 246.874 342.208 244.155 344.011 242.176 346.505 241.84 346.945 241.924 347.575 242.364 347.911 242.657 348.135 243.049 348.18 243.385 348.028 245.568 347.073 247.953 346.674 250.328 346.867 251.862 346.988 253.204 345.842 253.325 344.308 253.348 344.013 253.325 343.717 253.255 343.429Z" stroke="#FFFFFF" stroke-width="1.33333" fill="#021A93"/><path d="M167.188 347.664C170.287 347.12 173.467 347.247 176.513 348.037 177.847 348.379 178.813 346.971 177.8 346.133 174.603 343.503 170.725 341.835 166.617 341.324 164.802 340.977 163.049 342.167 162.701 343.982 162.698 344.001 162.694 344.021 162.691 344.04L162.68 344.143C162.467 346.321 164.744 348.097 167.188 347.664Z" stroke="#FFFFFF" stroke-width="1.33333" fill="#021A93"/><path d="M212.872 332.697C213.58 332.633 214.137 332.064 214.188 331.355 214.508 326.711 216.276 309.717 225.408 295.605 227.762 291.895 226.973 287.012 223.571 284.232L223.571 284.232C219.87 281.152 214.374 281.656 211.294 285.356 210.345 286.496 209.703 287.86 209.428 289.317 206.461 306.035 210.228 326.312 211.305 331.541 211.456 332.27 212.131 332.769 212.872 332.697Z" stroke="#FFFFFF" stroke-width="1.33333" fill="#021A93"/><path d="M236.641 354.548C238.508 353.697 239.611 352.705 239.611 351.641 239.611 349.641 235.801 347.887 230.063 346.879 232.205 345.74 234.488 344.892 236.853 344.355 239.71 343.705 241.498 340.862 240.848 338.006 240.724 337.458 240.512 336.933 240.223 336.451L240.135 336.303C238.714 333.877 235.596 333.063 233.171 334.484 233.124 334.512 233.077 334.54 233.031 334.569 228.637 337.397 225.109 341.382 222.836 346.087 221.831 346.033 220.795 346.004 219.743 345.992 227.717 324.323 238.216 311.467 244.845 306.068 248.038 303.547 248.583 298.916 246.063 295.723 243.542 292.53 238.911 291.985 235.718 294.506 235.342 294.803 234.995 295.136 234.684 295.5 223.159 308.459 217.829 329.767 215.364 346.061 213.681 346.139 212.064 346.267 210.545 346.448 210.545 346.436 210.545 346.424 210.545 346.412 206.952 325.917 199.4 297.952 183.844 281.612 180.414 277.87 174.601 277.617 170.859 281.047 167.117 284.476 166.864 290.29 170.293 294.032 170.695 294.47 171.139 294.869 171.617 295.221 180.457 301.933 194.865 318.515 205.917 347.212 204.867 347.44 203.9 347.695 203.031 347.973 200.185 342.142 195.795 337.202 190.337 333.692 187.371 331.821 183.449 332.709 181.578 335.675 181.54 335.736 181.503 335.797 181.467 335.859L181.357 336.043C179.473 339.175 180.484 343.242 183.616 345.126 184.219 345.489 184.876 345.753 185.563 345.909 189.357 346.766 192.977 348.264 196.267 350.339 194.649 350.205 192.941 350.136 191.171 350.136 181.255 350.136 173.216 352.328 173.216 355.033 173.216 356.663 176.149 358.1 180.641 358.993 180.346 359.436 180.182 359.954 180.171 360.487 180.165 365.373 194.688 369.333 212.601 369.333 230.515 369.333 245.037 365.373 245.037 360.487 245.037 358.201 241.859 356.119 236.641 354.548Z" stroke="#FFFFFF" stroke-width="1.33333" fill="#021A93"/><path d="M169.056 359.929C166.4 359.929 164.247 360.516 164.247 361.241 164.247 361.967 166.4 362.553 169.056 362.553 171.712 362.553 173.865 361.965 173.865 361.241 173.865 360.517 171.712 359.929 169.056 359.929Z" stroke="#FFFFFF" stroke-width="1.33333" fill="#021A93"/></g></svg>