<svg width="129" height="129" xmlns="http://www.w3.org/2000/svg" xmlns:xlink="http://www.w3.org/1999/xlink" xml:space="preserve" overflow="hidden"><defs><clipPath id="clip0"><rect x="573" y="0" width="129" height="129"/></clipPath></defs><g clip-path="url(#clip0)" transform="translate(-573 0)"><path d="M669.304 60.3505C665.772 62.5705 662.943 65.7482 661.147 69.5135 660.58 70.7135 662.061 71.5856 663.135 70.7028 665.578 68.6813 668.427 67.2077 671.489 66.3812 673.908 65.7336 675.226 63.1401 674.101 61.2428L674.047 61.1527C672.981 59.6251 670.879 59.2509 669.351 60.3168 669.335 60.3279 669.32 60.3391 669.304 60.3505Z" stroke="#FFFFFF" stroke-width="1.34375" fill="#4EA4CE"/><path d="M611.633 65.3358C613.975 65.8622 616.15 66.96 617.965 68.5312 618.385 68.8972 619.022 68.8531 619.388 68.4328 619.628 68.1572 619.7 67.7734 619.577 67.4294 618.423 64.4352 616.348 61.8849 613.651 60.1462 612.391 59.353 610.727 59.7312 609.934 60.9911 609.918 61.0155 609.903 61.0404 609.889 61.0654L609.843 61.1447C609.042 62.4727 609.469 64.1989 610.797 65.0001 611.056 65.1563 611.338 65.2697 611.633 65.3358Z" stroke="#FFFFFF" stroke-width="1.34375" fill="#4EA4CE"/><path d="M683.108 84.0811 683.088 83.9924C682.753 82.5419 681.306 81.6371 679.856 81.9718 679.827 81.9784 679.799 81.9854 679.77 81.9929 676.678 82.8503 673.937 84.6669 671.943 87.1812 671.604 87.6246 671.689 88.2587 672.132 88.5976 672.428 88.8233 672.823 88.8688 673.162 88.7157 675.362 87.7533 677.765 87.3513 680.159 87.5453 681.705 87.6673 683.057 86.5126 683.179 84.9664 683.203 84.6694 683.179 84.3706 683.108 84.0811Z" stroke="#FFFFFF" stroke-width="1.34375" fill="#4EA4CE"/><path d="M596.369 88.3489C599.493 87.8008 602.698 87.9291 605.767 88.7251 607.111 89.0691 608.085 87.6501 607.064 86.8063 603.843 84.1553 599.934 82.4744 595.794 81.9593 593.965 81.6092 592.198 82.8085 591.847 84.6381 591.844 84.6575 591.84 84.6771 591.837 84.6966L591.826 84.8C591.611 86.9957 593.906 88.7856 596.369 88.3489Z" stroke="#FFFFFF" stroke-width="1.34375" fill="#4EA4CE"/><path d="M642.41 73.2653C643.124 73.2 643.685 72.6271 643.736 71.9121 644.059 67.2318 645.841 50.1057 655.044 35.8835 657.416 32.1446 656.621 27.223 653.192 24.4213L653.192 24.4213C649.463 21.3175 643.923 21.8248 640.82 25.5544 639.863 26.7034 639.216 28.0774 638.939 29.5464 635.949 46.3943 639.745 66.8301 640.831 72.1003 640.983 72.8347 641.663 73.337 642.41 73.2653Z" stroke="#FFFFFF" stroke-width="1.34375" fill="#4EA4CE"/><path d="M666.365 95.2867C668.246 94.4293 669.358 93.4296 669.358 92.3573 669.358 90.3417 665.519 88.5733 659.735 87.5574 661.894 86.4102 664.195 85.5548 666.579 85.0137 669.457 84.3586 671.26 81.4941 670.605 78.6154 670.479 78.0629 670.266 77.5337 669.974 77.0479L669.886 76.8988C668.454 74.4546 665.312 73.6341 662.867 75.066 662.82 75.094 662.773 75.1226 662.726 75.1519 658.298 78.0016 654.743 82.0182 652.452 86.7592 651.439 86.7055 650.395 86.6759 649.334 86.6638 657.371 64.8252 667.952 51.8687 674.633 46.4279 677.851 43.8877 678.4 39.22 675.86 36.0023 673.32 32.7845 668.652 32.2354 665.434 34.7754 665.055 35.0747 664.706 35.4102 664.392 35.7773 652.777 48.8373 647.406 70.3117 644.922 86.7337 643.226 86.8116 641.596 86.9406 640.065 87.1234 640.065 87.1113 640.065 87.0992 640.065 87.0871 636.444 66.4323 628.833 38.2485 613.155 21.7808 609.699 18.0097 603.84 17.7546 600.069 21.211 596.297 24.6674 596.042 30.5265 599.499 34.2977 599.904 34.7396 600.351 35.1409 600.833 35.4965 609.742 42.2609 624.263 58.9718 635.401 87.8933 634.342 88.1231 633.368 88.3798 632.492 88.6606 629.624 82.7833 625.2 77.8051 619.699 74.2677 616.71 72.382 612.757 73.277 610.871 76.2667 610.833 76.3277 610.796 76.3892 610.759 76.4513L610.649 76.6367C608.75 79.7934 609.769 83.8919 612.926 85.7913 613.533 86.1569 614.196 86.4234 614.887 86.5805 618.711 87.444 622.359 88.9536 625.675 91.0444 624.045 90.9101 622.324 90.8402 620.539 90.8402 610.546 90.8402 602.444 93.0493 602.444 95.7758 602.444 97.4178 605.401 98.8664 609.928 99.7667 609.63 100.213 609.465 100.735 609.453 101.272 609.448 106.197 624.084 110.188 642.137 110.188 660.191 110.188 674.827 106.197 674.827 101.272 674.827 98.9685 671.623 96.8696 666.365 95.2867Z" stroke="#FFFFFF" stroke-width="1.34375" fill="#4EA4CE"/><path d="M598.252 100.71C595.575 100.71 593.405 101.301 593.405 102.032 593.405 102.763 595.575 103.355 598.252 103.355 600.929 103.355 603.099 102.762 603.099 102.032 603.099 101.303 600.929 100.71 598.252 100.71Z" stroke="#FFFFFF" stroke-width="1.34375" fill="#4EA4CE"/></g></svg>