<svg width="129" height="129" xmlns="http://www.w3.org/2000/svg" xmlns:xlink="http://www.w3.org/1999/xlink" xml:space="preserve" overflow="hidden"><defs><clipPath id="clip0"><rect x="859" y="379" width="129" height="129"/></clipPath></defs><g clip-path="url(#clip0)" transform="translate(-859 -379)"><path d="M955.304 439.35C951.772 441.57 948.943 444.748 947.147 448.514 946.58 449.714 948.061 450.586 949.135 449.703 951.578 447.681 954.427 446.208 957.489 445.381 959.908 444.734 961.226 442.14 960.101 440.243L960.047 440.153C958.981 438.625 956.879 438.251 955.351 439.317 955.335 439.328 955.32 439.339 955.304 439.35Z" stroke="#FFFFFF" stroke-width="1.34375" fill="#4AF8FC"/><path d="M897.633 444.336C899.975 444.862 902.15 445.96 903.965 447.531 904.385 447.897 905.022 447.853 905.388 447.433 905.628 447.157 905.7 446.773 905.577 446.429 904.423 443.435 902.348 440.885 899.651 439.146 898.391 438.353 896.727 438.731 895.934 439.991 895.918 440.016 895.903 440.04 895.889 440.065L895.843 440.145C895.042 441.473 895.469 443.199 896.797 444 897.056 444.156 897.338 444.27 897.633 444.336Z" stroke="#FFFFFF" stroke-width="1.34375" fill="#4AF8FC"/><path d="M969.108 463.081 969.088 462.992C968.753 461.542 967.306 460.637 965.856 460.972 965.827 460.978 965.799 460.985 965.77 460.993 962.678 461.85 959.937 463.667 957.943 466.181 957.604 466.625 957.689 467.259 958.132 467.598 958.428 467.823 958.823 467.869 959.162 467.716 961.362 466.753 963.765 466.351 966.159 466.545 967.705 466.667 969.057 465.513 969.179 463.966 969.203 463.669 969.179 463.371 969.108 463.081Z" stroke="#FFFFFF" stroke-width="1.34375" fill="#4AF8FC"/><path d="M882.369 467.349C885.493 466.801 888.698 466.929 891.767 467.725 893.111 468.069 894.085 466.65 893.064 465.806 889.843 463.155 885.934 461.474 881.794 460.959 879.965 460.609 878.198 461.808 877.847 463.638 877.844 463.657 877.84 463.677 877.837 463.697L877.826 463.8C877.611 465.996 879.906 467.786 882.369 467.349Z" stroke="#FFFFFF" stroke-width="1.34375" fill="#4AF8FC"/><path d="M928.41 452.265C929.124 452.2 929.685 451.627 929.736 450.912 930.059 446.232 931.841 429.106 941.044 414.883 943.416 411.145 942.621 406.223 939.192 403.421L939.192 403.421C935.463 400.318 929.923 400.825 926.82 404.554 925.863 405.703 925.216 407.077 924.939 408.546 921.949 425.394 925.745 445.83 926.831 451.1 926.983 451.835 927.663 452.337 928.41 452.265Z" stroke="#FFFFFF" stroke-width="1.34375" fill="#4AF8FC"/><path d="M952.365 474.287C954.246 473.429 955.358 472.43 955.358 471.357 955.358 469.342 951.519 467.573 945.735 466.557 947.894 465.41 950.195 464.555 952.579 464.014 955.457 463.359 957.26 460.494 956.605 457.615 956.479 457.063 956.266 456.534 955.974 456.048L955.886 455.899C954.454 453.455 951.312 452.634 948.867 454.066 948.82 454.094 948.773 454.123 948.726 454.152 944.298 457.002 940.743 461.018 938.452 465.759 937.439 465.705 936.395 465.676 935.334 465.664 943.371 443.825 953.952 430.869 960.633 425.428 963.851 422.888 964.4 418.22 961.86 415.002 959.32 411.785 954.652 411.235 951.434 413.775 951.055 414.075 950.706 414.41 950.392 414.777 938.777 427.837 933.406 449.312 930.922 465.734 929.226 465.812 927.596 465.941 926.065 466.123 926.065 466.111 926.065 466.099 926.065 466.087 922.444 445.432 914.833 417.249 899.155 400.781 895.699 397.01 889.84 396.755 886.069 400.211 882.297 403.667 882.042 409.527 885.499 413.298 885.904 413.74 886.351 414.141 886.833 414.496 895.742 421.261 910.263 437.972 921.401 466.893 920.342 467.123 919.368 467.38 918.492 467.661 915.624 461.783 911.2 456.805 905.699 453.268 902.71 451.382 898.757 452.277 896.871 455.267 896.833 455.328 896.796 455.389 896.759 455.451L896.649 455.637C894.75 458.793 895.769 462.892 898.926 464.791 899.533 465.157 900.196 465.423 900.887 465.581 904.711 466.444 908.359 467.954 911.675 470.044 910.045 469.91 908.324 469.84 906.539 469.84 896.546 469.84 888.444 472.049 888.444 474.776 888.444 476.418 891.401 477.866 895.928 478.767 895.63 479.213 895.465 479.735 895.453 480.272 895.448 485.197 910.084 489.188 928.137 489.188 946.191 489.188 960.827 485.197 960.827 480.272 960.827 477.969 957.623 475.87 952.365 474.287Z" stroke="#FFFFFF" stroke-width="1.34375" fill="#4AF8FC"/><path d="M884.252 479.71C881.575 479.71 879.405 480.301 879.405 481.032 879.405 481.763 881.575 482.355 884.252 482.355 886.929 482.355 889.099 481.762 889.099 481.032 889.099 480.303 886.929 479.71 884.252 479.71Z" stroke="#FFFFFF" stroke-width="1.34375" fill="#4AF8FC"/></g></svg>