<svg width="129" height="129" xmlns="http://www.w3.org/2000/svg" xmlns:xlink="http://www.w3.org/1999/xlink" xml:space="preserve" overflow="hidden"><defs><clipPath id="clip0"><rect x="1002" y="379" width="129" height="129"/></clipPath></defs><g clip-path="url(#clip0)" transform="translate(-1002 -379)"><path d="M1098.3 439.35C1094.77 441.57 1091.94 444.748 1090.15 448.514 1089.58 449.714 1091.06 450.586 1092.13 449.703 1094.58 447.681 1097.43 446.208 1100.49 445.381 1102.91 444.734 1104.23 442.14 1103.1 440.243L1103.05 440.153C1101.98 438.625 1099.88 438.251 1098.35 439.317 1098.34 439.328 1098.32 439.339 1098.3 439.35Z" stroke="#FFFFFF" stroke-width="1.34375" fill="#A8FCFE"/><path d="M1040.63 444.336C1042.97 444.862 1045.15 445.96 1046.96 447.531 1047.38 447.897 1048.02 447.853 1048.39 447.433 1048.63 447.157 1048.7 446.773 1048.58 446.429 1047.42 443.435 1045.35 440.885 1042.65 439.146 1041.39 438.353 1039.73 438.731 1038.93 439.991 1038.92 440.016 1038.9 440.04 1038.89 440.065L1038.84 440.145C1038.04 441.473 1038.47 443.199 1039.8 444 1040.06 444.156 1040.34 444.27 1040.63 444.336Z" stroke="#FFFFFF" stroke-width="1.34375" fill="#A8FCFE"/><path d="M1112.11 463.081 1112.09 462.992C1111.75 461.542 1110.31 460.637 1108.86 460.972 1108.83 460.978 1108.8 460.985 1108.77 460.993 1105.68 461.85 1102.94 463.667 1100.94 466.181 1100.6 466.625 1100.69 467.259 1101.13 467.598 1101.43 467.823 1101.82 467.869 1102.16 467.716 1104.36 466.753 1106.77 466.351 1109.16 466.545 1110.7 466.667 1112.06 465.513 1112.18 463.966 1112.2 463.669 1112.18 463.371 1112.11 463.081Z" stroke="#FFFFFF" stroke-width="1.34375" fill="#A8FCFE"/><path d="M1025.37 467.349C1028.49 466.801 1031.7 466.929 1034.77 467.725 1036.11 468.069 1037.09 466.65 1036.06 465.806 1032.84 463.155 1028.93 461.474 1024.79 460.959 1022.96 460.609 1021.2 461.808 1020.85 463.638 1020.84 463.657 1020.84 463.677 1020.84 463.697L1020.83 463.8C1020.61 465.996 1022.91 467.786 1025.37 467.349Z" stroke="#FFFFFF" stroke-width="1.34375" fill="#A8FCFE"/><path d="M1071.41 452.265C1072.12 452.2 1072.69 451.627 1072.74 450.912 1073.06 446.232 1074.84 429.106 1084.04 414.883 1086.42 411.145 1085.62 406.223 1082.19 403.421L1082.19 403.421C1078.46 400.318 1072.92 400.825 1069.82 404.554 1068.86 405.703 1068.22 407.077 1067.94 408.546 1064.95 425.394 1068.75 445.83 1069.83 451.1 1069.98 451.835 1070.66 452.337 1071.41 452.265Z" stroke="#FFFFFF" stroke-width="1.34375" fill="#A8FCFE"/><path d="M1095.37 474.287C1097.25 473.429 1098.36 472.43 1098.36 471.357 1098.36 469.342 1094.52 467.573 1088.73 466.557 1090.89 465.41 1093.19 464.555 1095.58 464.014 1098.46 463.359 1100.26 460.494 1099.6 457.615 1099.48 457.063 1099.27 456.534 1098.97 456.048L1098.89 455.899C1097.45 453.455 1094.31 452.634 1091.87 454.066 1091.82 454.094 1091.77 454.123 1091.73 454.152 1087.3 457.002 1083.74 461.018 1081.45 465.759 1080.44 465.705 1079.39 465.676 1078.33 465.664 1086.37 443.825 1096.95 430.869 1103.63 425.428 1106.85 422.888 1107.4 418.22 1104.86 415.002 1102.32 411.785 1097.65 411.235 1094.43 413.775 1094.06 414.075 1093.71 414.41 1093.39 414.777 1081.78 427.837 1076.41 449.312 1073.92 465.734 1072.23 465.812 1070.6 465.941 1069.07 466.123 1069.07 466.111 1069.07 466.099 1069.07 466.087 1065.44 445.432 1057.83 417.249 1042.16 400.781 1038.7 397.01 1032.84 396.755 1029.07 400.211 1025.3 403.667 1025.04 409.527 1028.5 413.298 1028.9 413.74 1029.35 414.141 1029.83 414.496 1038.74 421.261 1053.26 437.972 1064.4 466.893 1063.34 467.123 1062.37 467.38 1061.49 467.661 1058.62 461.783 1054.2 456.805 1048.7 453.268 1045.71 451.382 1041.76 452.277 1039.87 455.267 1039.83 455.328 1039.8 455.389 1039.76 455.451L1039.65 455.637C1037.75 458.793 1038.77 462.892 1041.93 464.791 1042.53 465.157 1043.2 465.423 1043.89 465.581 1047.71 466.444 1051.36 467.954 1054.68 470.044 1053.05 469.91 1051.32 469.84 1049.54 469.84 1039.55 469.84 1031.44 472.049 1031.44 474.776 1031.44 476.418 1034.4 477.866 1038.93 478.767 1038.63 479.213 1038.47 479.735 1038.45 480.272 1038.45 485.197 1053.08 489.188 1071.14 489.188 1089.19 489.188 1103.83 485.197 1103.83 480.272 1103.83 477.969 1100.62 475.87 1095.37 474.287Z" stroke="#FFFFFF" stroke-width="1.34375" fill="#A8FCFE"/><path d="M1027.25 479.71C1024.57 479.71 1022.4 480.301 1022.4 481.032 1022.4 481.763 1024.57 482.355 1027.25 482.355 1029.93 482.355 1032.1 481.762 1032.1 481.032 1032.1 480.303 1029.93 479.71 1027.25 479.71Z" stroke="#FFFFFF" stroke-width="1.34375" fill="#A8FCFE"/></g></svg>