<svg width="129" height="129" xmlns="http://www.w3.org/2000/svg" xmlns:xlink="http://www.w3.org/1999/xlink" xml:space="preserve" overflow="hidden"><defs><clipPath id="clip0"><rect x="430" y="140" width="129" height="129"/></clipPath></defs><g clip-path="url(#clip0)" transform="translate(-430 -140)"><path d="M526.304 200.35C522.772 202.571 519.943 205.748 518.147 209.514 517.58 210.714 519.061 211.586 520.135 210.703 522.578 208.681 525.427 207.208 528.489 206.381 530.908 205.734 532.226 203.14 531.101 201.243L531.047 201.153C529.981 199.625 527.879 199.251 526.351 200.317 526.335 200.328 526.32 200.339 526.304 200.35Z" stroke="#FFFFFF" stroke-width="1.34375" fill="#56C4FC"/><path d="M468.633 205.336C470.975 205.862 473.15 206.96 474.965 208.531 475.385 208.897 476.022 208.853 476.388 208.433 476.628 208.157 476.7 207.773 476.577 207.429 475.423 204.435 473.348 201.885 470.651 200.146 469.391 199.353 467.727 199.731 466.934 200.991 466.918 201.016 466.903 201.04 466.889 201.065L466.843 201.145C466.042 202.473 466.469 204.199 467.797 205 468.056 205.156 468.338 205.27 468.633 205.336Z" stroke="#FFFFFF" stroke-width="1.34375" fill="#56C4FC"/><path d="M540.108 224.081 540.088 223.992C539.753 222.542 538.306 221.637 536.856 221.972 536.827 221.978 536.799 221.985 536.77 221.993 533.678 222.85 530.937 224.667 528.943 227.181 528.604 227.625 528.689 228.259 529.132 228.598 529.428 228.823 529.823 228.869 530.162 228.716 532.362 227.753 534.765 227.351 537.159 227.545 538.705 227.667 540.057 226.513 540.179 224.966 540.203 224.669 540.179 224.371 540.108 224.081Z" stroke="#FFFFFF" stroke-width="1.34375" fill="#56C4FC"/><path d="M453.369 228.349C456.493 227.801 459.698 227.929 462.767 228.725 464.111 229.069 465.085 227.65 464.064 226.806 460.843 224.155 456.934 222.474 452.794 221.959 450.965 221.609 449.197 222.808 448.847 224.638 448.844 224.657 448.84 224.677 448.837 224.697L448.826 224.8C448.611 226.996 450.906 228.786 453.369 228.349Z" stroke="#FFFFFF" stroke-width="1.34375" fill="#56C4FC"/><path d="M499.41 213.265C500.124 213.2 500.685 212.627 500.736 211.912 501.059 207.232 502.841 190.106 512.044 175.883 514.416 172.145 513.621 167.223 510.192 164.421L510.192 164.421C506.463 161.318 500.923 161.825 497.82 165.554 496.863 166.703 496.216 168.077 495.939 169.546 492.949 186.394 496.745 206.83 497.831 212.1 497.983 212.835 498.663 213.337 499.41 213.265Z" stroke="#FFFFFF" stroke-width="1.34375" fill="#56C4FC"/><path d="M523.365 235.287C525.246 234.429 526.358 233.43 526.358 232.357 526.358 230.342 522.519 228.573 516.735 227.557 518.894 226.41 521.195 225.555 523.579 225.014 526.457 224.359 528.26 221.494 527.605 218.615 527.479 218.063 527.266 217.534 526.974 217.048L526.886 216.899C525.454 214.455 522.312 213.634 519.867 215.066 519.82 215.094 519.773 215.123 519.726 215.152 515.298 218.002 511.743 222.018 509.452 226.759 508.439 226.705 507.395 226.676 506.334 226.664 514.371 204.825 524.952 191.869 531.633 186.428 534.851 183.888 535.4 179.22 532.86 176.002 530.32 172.785 525.652 172.235 522.434 174.775 522.055 175.075 521.706 175.41 521.392 175.777 509.777 188.837 504.406 210.312 501.922 226.734 500.226 226.812 498.596 226.941 497.065 227.123 497.065 227.111 497.065 227.099 497.065 227.087 493.444 206.432 485.833 178.249 470.155 161.781 466.699 158.01 460.84 157.755 457.069 161.211 453.297 164.667 453.042 170.527 456.499 174.298 456.904 174.74 457.351 175.141 457.833 175.497 466.742 182.261 481.263 198.972 492.401 227.893 491.342 228.123 490.368 228.38 489.492 228.661 486.624 222.783 482.2 217.805 476.699 214.268 473.71 212.382 469.757 213.277 467.871 216.267 467.833 216.328 467.796 216.389 467.759 216.451L467.649 216.637C465.75 219.793 466.769 223.892 469.926 225.791 470.533 226.157 471.196 226.423 471.887 226.581 475.711 227.444 479.359 228.954 482.675 231.044 481.045 230.91 479.324 230.84 477.539 230.84 467.546 230.84 459.444 233.049 459.444 235.776 459.444 237.418 462.401 238.866 466.928 239.767 466.63 240.213 466.465 240.735 466.453 241.272 466.448 246.197 481.084 250.188 499.137 250.188 517.191 250.188 531.827 246.197 531.827 241.272 531.827 238.969 528.623 236.87 523.365 235.287Z" stroke="#FFFFFF" stroke-width="1.34375" fill="#56C4FC"/><path d="M455.252 240.71C452.575 240.71 450.405 241.301 450.405 242.032 450.405 242.763 452.575 243.355 455.252 243.355 457.928 243.355 460.099 242.762 460.099 242.032 460.099 241.303 457.928 240.71 455.252 240.71Z" stroke="#FFFFFF" stroke-width="1.34375" fill="#56C4FC"/></g></svg>