<svg width="128" height="129" xmlns="http://www.w3.org/2000/svg" xmlns:xlink="http://www.w3.org/1999/xlink" xml:space="preserve" overflow="hidden"><defs><clipPath id="clip0"><rect x="860" y="0" width="128" height="129"/></clipPath></defs><g clip-path="url(#clip0)" transform="translate(-860 0)"><path d="M95.5573 59.8827C92.0528 62.0855 89.2461 65.2385 87.464 68.9747 86.9013 70.1653 88.3707 71.0307 89.436 70.1547 91.8607 68.1489 94.6873 66.6867 97.7253 65.8667 100.125 65.224 101.433 62.6507 100.317 60.768L100.264 60.6787C99.2063 59.1629 97.1201 58.7916 95.6044 59.8492 95.5885 59.8603 95.5729 59.8713 95.5573 59.8827Z" stroke="#FFFFFF" stroke-width="1.33333" fill="#9ACBE3" transform="matrix(1 0 0 1.00781 860 0)"/><path d="M38.3333 64.8293C40.6571 65.3516 42.8155 66.4409 44.616 68 45.0331 68.3631 45.6656 68.3193 46.0287 67.9023 46.2668 67.6288 46.3384 67.248 46.216 66.9067 45.0711 63.9357 43.012 61.4052 40.336 59.68 39.086 58.8929 37.4345 59.2681 36.6475 60.5183 36.6321 60.5425 36.6172 60.5672 36.6027 60.592L36.5573 60.6707C35.7623 61.9884 36.186 63.7012 37.5037 64.4963 37.7605 64.6512 38.0407 64.7637 38.3333 64.8293Z" stroke="#FFFFFF" stroke-width="1.33333" fill="#9ACBE3" transform="matrix(1 0 0 1.00781 860 0)"/><path d="M109.255 83.4293 109.235 83.3413C108.903 81.902 107.467 81.0043 106.027 81.3364 105.999 81.3429 105.971 81.3499 105.943 81.3573 102.874 82.208 100.155 84.0105 98.176 86.5053 97.8397 86.9453 97.9237 87.5745 98.3637 87.9108 98.6568 88.1348 99.0492 88.1799 99.3853 88.028 101.568 87.0731 103.953 86.6741 106.328 86.8667 107.862 86.9877 109.204 85.842 109.325 84.3077 109.348 84.0131 109.325 83.7165 109.255 83.4293Z" stroke="#FFFFFF" stroke-width="1.33333" fill="#9ACBE3" transform="matrix(1 0 0 1.00781 860 0)"/><path d="M23.188 87.664C26.2873 87.1201 29.4673 87.2475 32.5133 88.0373 33.8467 88.3787 34.8133 86.9707 33.8 86.1333 30.6035 83.5029 26.7253 81.8351 22.6173 81.324 20.802 80.9765 19.0487 82.1665 18.7012 83.982 18.6976 84.0012 18.694 84.0207 18.6907 84.04L18.68 84.1427C18.4667 86.3213 20.744 88.0973 23.188 87.664Z" stroke="#FFFFFF" stroke-width="1.33333" fill="#9ACBE3" transform="matrix(1 0 0 1.00781 860 0)"/><path d="M68.872 72.6973C69.5803 72.6325 70.1375 72.0641 70.188 71.3547 70.508 66.7107 72.276 49.7173 81.408 35.6053 83.7617 31.8955 82.9728 27.012 79.5707 24.232L79.5707 24.232C75.8701 21.1523 70.3736 21.6556 67.2939 25.3563 66.3451 26.4964 65.7028 27.8597 65.428 29.3173 62.4613 46.0347 66.228 66.312 67.3053 71.5413 67.4557 72.2701 68.1312 72.7685 68.872 72.6973Z" stroke="#FFFFFF" stroke-width="1.33333" fill="#9ACBE3" transform="matrix(1 0 0 1.00781 860 0)"/><path d="M92.6413 94.548C94.508 93.6973 95.6107 92.7053 95.6107 91.6413 95.6107 89.6413 91.8013 87.8867 86.0627 86.8787 88.2045 85.7404 90.488 84.8916 92.8533 84.3547 95.7096 83.7047 97.4983 80.8624 96.8483 78.006 96.7236 77.4577 96.5124 76.9327 96.2227 76.4507L96.1347 76.3027C94.7137 73.8775 91.596 73.0633 89.1708 74.4841 89.1236 74.5119 89.0769 74.5403 89.0307 74.5693 84.6372 77.3969 81.1093 81.3824 78.836 86.0867 77.8307 86.0333 76.7947 86.004 75.7427 85.992 83.7173 64.3227 94.216 51.4667 100.845 46.068 104.038 43.5475 104.583 38.916 102.063 35.7232 99.5423 32.5304 94.9107 31.9855 91.7179 34.5059 91.3417 34.8028 90.9955 35.1357 90.684 35.5 79.1587 48.4587 73.8293 69.7667 71.364 86.0613 69.6813 86.1387 68.064 86.2667 66.5453 86.448 66.5453 86.436 66.5453 86.424 66.5453 86.412 62.952 65.9173 55.4 37.952 39.844 21.612 36.4144 17.8701 30.6007 17.6169 26.8588 21.0465 23.1168 24.4761 22.8636 30.2899 26.2933 34.0319 26.6951 34.4703 27.1385 34.8685 27.6173 35.2213 36.4573 41.9333 50.8653 58.5147 61.9173 87.212 60.8667 87.44 59.9 87.6947 59.0307 87.9733 56.1853 82.1416 51.7949 77.202 46.3373 73.692 43.3708 71.8209 39.4491 72.7089 37.5779 75.6755 37.5397 75.736 37.5027 75.7971 37.4667 75.8587L37.3573 76.0427C35.4728 79.1748 36.484 83.2416 39.6161 85.1263 40.2192 85.4891 40.8763 85.7535 41.5627 85.9093 45.3567 86.7661 48.9767 88.264 52.2667 90.3387 50.6493 90.2053 48.9413 90.136 47.1707 90.136 37.2547 90.136 29.216 92.328 29.216 95.0333 29.216 96.6627 32.1493 98.1 36.6413 98.9933 36.3456 99.4363 36.1824 99.9543 36.1707 100.487 36.1653 105.373 50.688 109.333 68.6013 109.333 86.5147 109.333 101.037 105.373 101.037 100.487 101.037 98.2013 97.8587 96.1187 92.6413 94.548Z" stroke="#FFFFFF" stroke-width="1.33333" fill="#9ACBE3" transform="matrix(1 0 0 1.00781 860 0)"/><path d="M25.056 99.9293C22.4 99.9293 20.2467 100.516 20.2467 101.241 20.2467 101.967 22.4 102.553 25.056 102.553 27.712 102.553 29.8653 101.965 29.8653 101.241 29.8653 100.517 27.712 99.9293 25.056 99.9293Z" stroke="#FFFFFF" stroke-width="1.33333" fill="#9ACBE3" transform="matrix(1 0 0 1.00781 860 0)"/></g></svg>