<svg width="128" height="128" xmlns="http://www.w3.org/2000/svg" xmlns:xlink="http://www.w3.org/1999/xlink" xml:space="preserve" overflow="hidden"><defs><clipPath id="clip0"><rect x="287" y="260" width="128" height="128"/></clipPath></defs><g clip-path="url(#clip0)" transform="translate(-287 -260)"><path d="M382.557 319.883C379.053 322.085 376.246 325.239 374.464 328.975 373.901 330.165 375.371 331.031 376.436 330.155 378.861 328.149 381.687 326.687 384.725 325.867 387.125 325.224 388.433 322.651 387.317 320.768L387.264 320.679C386.206 319.163 384.12 318.792 382.604 319.849 382.589 319.86 382.573 319.871 382.557 319.883Z" stroke="#FFFFFF" stroke-width="1.33333" fill="#0222BD"/><path d="M325.333 324.829C327.657 325.352 329.815 326.441 331.616 328 332.033 328.363 332.666 328.319 333.029 327.902 333.267 327.629 333.338 327.248 333.216 326.907 332.071 323.936 330.012 321.405 327.336 319.68 326.086 318.893 324.435 319.268 323.647 320.518 323.632 320.543 323.617 320.567 323.603 320.592L323.557 320.671C322.762 321.988 323.186 323.701 324.504 324.496 324.761 324.651 325.041 324.764 325.333 324.829Z" stroke="#FFFFFF" stroke-width="1.33333" fill="#0222BD"/><path d="M396.255 343.429 396.235 343.341C395.903 341.902 394.467 341.004 393.027 341.336 392.999 341.343 392.971 341.35 392.943 341.357 389.874 342.208 387.155 344.011 385.176 346.505 384.84 346.945 384.924 347.575 385.364 347.911 385.657 348.135 386.049 348.18 386.385 348.028 388.568 347.073 390.953 346.674 393.328 346.867 394.862 346.988 396.204 345.842 396.325 344.308 396.348 344.013 396.325 343.717 396.255 343.429Z" stroke="#FFFFFF" stroke-width="1.33333" fill="#0222BD"/><path d="M310.188 347.664C313.287 347.12 316.467 347.247 319.513 348.037 320.847 348.379 321.813 346.971 320.8 346.133 317.603 343.503 313.725 341.835 309.617 341.324 307.802 340.977 306.049 342.167 305.701 343.982 305.698 344.001 305.694 344.021 305.691 344.04L305.68 344.143C305.467 346.321 307.744 348.097 310.188 347.664Z" stroke="#FFFFFF" stroke-width="1.33333" fill="#0222BD"/><path d="M355.872 332.697C356.58 332.633 357.137 332.064 357.188 331.355 357.508 326.711 359.276 309.717 368.408 295.605 370.762 291.895 369.973 287.012 366.571 284.232L366.571 284.232C362.87 281.152 357.374 281.656 354.294 285.356 353.345 286.496 352.703 287.86 352.428 289.317 349.461 306.035 353.228 326.312 354.305 331.541 354.456 332.27 355.131 332.769 355.872 332.697Z" stroke="#FFFFFF" stroke-width="1.33333" fill="#0222BD"/><path d="M379.641 354.548C381.508 353.697 382.611 352.705 382.611 351.641 382.611 349.641 378.801 347.887 373.063 346.879 375.205 345.74 377.488 344.892 379.853 344.355 382.71 343.705 384.498 340.862 383.848 338.006 383.724 337.458 383.512 336.933 383.223 336.451L383.135 336.303C381.714 333.877 378.596 333.063 376.171 334.484 376.124 334.512 376.077 334.54 376.031 334.569 371.637 337.397 368.109 341.382 365.836 346.087 364.831 346.033 363.795 346.004 362.743 345.992 370.717 324.323 381.216 311.467 387.845 306.068 391.038 303.547 391.583 298.916 389.063 295.723 386.542 292.53 381.911 291.985 378.718 294.506 378.342 294.803 377.995 295.136 377.684 295.5 366.159 308.459 360.829 329.767 358.364 346.061 356.681 346.139 355.064 346.267 353.545 346.448 353.545 346.436 353.545 346.424 353.545 346.412 349.952 325.917 342.4 297.952 326.844 281.612 323.414 277.87 317.601 277.617 313.859 281.047 310.117 284.476 309.864 290.29 313.293 294.032 313.695 294.47 314.139 294.869 314.617 295.221 323.457 301.933 337.865 318.515 348.917 347.212 347.867 347.44 346.9 347.695 346.031 347.973 343.185 342.142 338.795 337.202 333.337 333.692 330.371 331.821 326.449 332.709 324.578 335.675 324.54 335.736 324.503 335.797 324.467 335.859L324.357 336.043C322.473 339.175 323.484 343.242 326.616 345.126 327.219 345.489 327.876 345.753 328.563 345.909 332.357 346.766 335.977 348.264 339.267 350.339 337.649 350.205 335.941 350.136 334.171 350.136 324.255 350.136 316.216 352.328 316.216 355.033 316.216 356.663 319.149 358.1 323.641 358.993 323.346 359.436 323.182 359.954 323.171 360.487 323.165 365.373 337.688 369.333 355.601 369.333 373.515 369.333 388.037 365.373 388.037 360.487 388.037 358.201 384.859 356.119 379.641 354.548Z" stroke="#FFFFFF" stroke-width="1.33333" fill="#0222BD"/><path d="M312.056 359.929C309.4 359.929 307.247 360.516 307.247 361.241 307.247 361.967 309.4 362.553 312.056 362.553 314.712 362.553 316.865 361.965 316.865 361.241 316.865 360.517 314.712 359.929 312.056 359.929Z" stroke="#FFFFFF" stroke-width="1.33333" fill="#0222BD"/></g></svg>