<svg xmlns="http://www.w3.org/2000/svg" xmlns:xlink="http://www.w3.org/1999/xlink" width="128" height="128" overflow="hidden" xml:space="preserve"><defs><clipPath id="clip0"><rect width="128" height="128" x="860" y="260"/></clipPath></defs><g clip-path="url(#clip0)" transform="translate(-860 -260)"><path fill="#9AA8ED" stroke="#FFF" stroke-width="1.333" d="M955.557 319.883C952.053 322.085 949.246 325.239 947.464 328.975 946.901 330.165 948.371 331.031 949.436 330.155 951.861 328.149 954.687 326.687 957.725 325.867 960.125 325.224 961.433 322.651 960.317 320.768L960.264 320.679C959.206 319.163 957.12 318.792 955.604 319.849 955.589 319.86 955.573 319.871 955.557 319.883Z"/><path fill="#9AA8ED" stroke="#FFF" stroke-width="1.333" d="M898.333 324.829C900.657 325.352 902.815 326.441 904.616 328 905.033 328.363 905.666 328.319 906.029 327.902 906.267 327.629 906.338 327.248 906.216 326.907 905.071 323.936 903.012 321.405 900.336 319.68 899.086 318.893 897.435 319.268 896.647 320.518 896.632 320.543 896.617 320.567 896.603 320.592L896.557 320.671C895.762 321.988 896.186 323.701 897.504 324.496 897.761 324.651 898.041 324.764 898.333 324.829Z"/><path fill="#9AA8ED" stroke="#FFF" stroke-width="1.333" d="M969.255 343.429 969.235 343.341C968.903 341.902 967.467 341.004 966.027 341.336 965.999 341.343 965.971 341.35 965.943 341.357 962.874 342.208 960.155 344.011 958.176 346.505 957.84 346.945 957.924 347.575 958.364 347.911 958.657 348.135 959.049 348.18 959.385 348.028 961.568 347.073 963.953 346.674 966.328 346.867 967.862 346.988 969.204 345.842 969.325 344.308 969.348 344.013 969.325 343.717 969.255 343.429Z"/><path fill="#9AA8ED" stroke="#FFF" stroke-width="1.333" d="M883.188 347.664C886.287 347.12 889.467 347.247 892.513 348.037 893.847 348.379 894.813 346.971 893.8 346.133 890.603 343.503 886.725 341.835 882.617 341.324 880.802 340.977 879.049 342.167 878.701 343.982 878.698 344.001 878.694 344.021 878.691 344.04L878.68 344.143C878.467 346.321 880.744 348.097 883.188 347.664Z"/><path fill="#9AA8ED" stroke="#FFF" stroke-width="1.333" d="M928.872 332.697C929.58 332.633 930.137 332.064 930.188 331.355 930.508 326.711 932.276 309.717 941.408 295.605 943.762 291.895 942.973 287.012 939.571 284.232L939.571 284.232C935.87 281.152 930.374 281.656 927.294 285.356 926.345 286.496 925.703 287.86 925.428 289.317 922.461 306.035 926.228 326.312 927.305 331.541 927.456 332.27 928.131 332.769 928.872 332.697Z"/><path fill="#9AA8ED" stroke="#FFF" stroke-width="1.333" d="M952.641 354.548C954.508 353.697 955.611 352.705 955.611 351.641 955.611 349.641 951.801 347.887 946.063 346.879 948.205 345.74 950.488 344.892 952.853 344.355 955.71 343.705 957.498 340.862 956.848 338.006 956.724 337.458 956.512 336.933 956.223 336.451L956.135 336.303C954.714 333.877 951.596 333.063 949.171 334.484 949.124 334.512 949.077 334.54 949.031 334.569 944.637 337.397 941.109 341.382 938.836 346.087 937.831 346.033 936.795 346.004 935.743 345.992 943.717 324.323 954.216 311.467 960.845 306.068 964.038 303.547 964.583 298.916 962.063 295.723 959.542 292.53 954.911 291.985 951.718 294.506 951.342 294.803 950.995 295.136 950.684 295.5 939.159 308.459 933.829 329.767 931.364 346.061 929.681 346.139 928.064 346.267 926.545 346.448 926.545 346.436 926.545 346.424 926.545 346.412 922.952 325.917 915.4 297.952 899.844 281.612 896.414 277.87 890.601 277.617 886.859 281.047 883.117 284.476 882.864 290.29 886.293 294.032 886.695 294.47 887.139 294.869 887.617 295.221 896.457 301.933 910.865 318.515 921.917 347.212 920.867 347.44 919.9 347.695 919.031 347.973 916.185 342.142 911.795 337.202 906.337 333.692 903.371 331.821 899.449 332.709 897.578 335.675 897.54 335.736 897.503 335.797 897.467 335.859L897.357 336.043C895.473 339.175 896.484 343.242 899.616 345.126 900.219 345.489 900.876 345.753 901.563 345.909 905.357 346.766 908.977 348.264 912.267 350.339 910.649 350.205 908.941 350.136 907.171 350.136 897.255 350.136 889.216 352.328 889.216 355.033 889.216 356.663 892.149 358.1 896.641 358.993 896.346 359.436 896.182 359.954 896.171 360.487 896.165 365.373 910.688 369.333 928.601 369.333 946.515 369.333 961.037 365.373 961.037 360.487 961.037 358.201 957.859 356.119 952.641 354.548Z"/><path fill="#9AA8ED" stroke="#FFF" stroke-width="1.333" d="M885.056 359.929C882.4 359.929 880.247 360.516 880.247 361.241 880.247 361.967 882.4 362.553 885.056 362.553 887.712 362.553 889.865 361.965 889.865 361.241 889.865 360.517 887.712 359.929 885.056 359.929Z"/></g></svg>