<svg width="128" height="128" xmlns="http://www.w3.org/2000/svg" xmlns:xlink="http://www.w3.org/1999/xlink" xml:space="preserve" overflow="hidden"><defs><clipPath id="clip0"><rect x="430" y="508" width="128" height="128"/></clipPath></defs><g clip-path="url(#clip0)" transform="translate(-430 -508)"><path d="M525.557 567.883C522.053 570.085 519.246 573.239 517.464 576.975 516.901 578.165 518.371 579.031 519.436 578.155 521.861 576.149 524.687 574.687 527.725 573.867 530.125 573.224 531.433 570.651 530.317 568.768L530.264 568.679C529.206 567.163 527.12 566.792 525.604 567.849 525.589 567.86 525.573 567.871 525.557 567.883Z" stroke="#FFFFFF" stroke-width="1.33333" fill="#1D9EFF"/><path d="M468.333 572.829C470.657 573.352 472.815 574.441 474.616 576 475.033 576.363 475.666 576.319 476.029 575.902 476.267 575.629 476.338 575.248 476.216 574.907 475.071 571.936 473.012 569.405 470.336 567.68 469.086 566.893 467.435 567.268 466.647 568.518 466.632 568.543 466.617 568.567 466.603 568.592L466.557 568.671C465.762 569.988 466.186 571.701 467.504 572.496 467.761 572.651 468.041 572.764 468.333 572.829Z" stroke="#FFFFFF" stroke-width="1.33333" fill="#1D9EFF"/><path d="M539.255 591.429 539.235 591.341C538.903 589.902 537.467 589.004 536.027 589.336 535.999 589.343 535.971 589.35 535.943 589.357 532.874 590.208 530.155 592.011 528.176 594.505 527.84 594.945 527.924 595.575 528.364 595.911 528.657 596.135 529.049 596.18 529.385 596.028 531.568 595.073 533.953 594.674 536.328 594.867 537.862 594.988 539.204 593.842 539.325 592.308 539.348 592.013 539.325 591.717 539.255 591.429Z" stroke="#FFFFFF" stroke-width="1.33333" fill="#1D9EFF"/><path d="M453.188 595.664C456.287 595.12 459.467 595.247 462.513 596.037 463.847 596.379 464.813 594.971 463.8 594.133 460.603 591.503 456.725 589.835 452.617 589.324 450.802 588.977 449.049 590.167 448.701 591.982 448.698 592.001 448.694 592.021 448.691 592.04L448.68 592.143C448.467 594.321 450.744 596.097 453.188 595.664Z" stroke="#FFFFFF" stroke-width="1.33333" fill="#1D9EFF"/><path d="M498.872 580.697C499.58 580.633 500.137 580.064 500.188 579.355 500.508 574.711 502.276 557.717 511.408 543.605 513.762 539.895 512.973 535.012 509.571 532.232L509.571 532.232C505.87 529.152 500.374 529.656 497.294 533.356 496.345 534.496 495.703 535.86 495.428 537.317 492.461 554.035 496.228 574.312 497.305 579.541 497.456 580.27 498.131 580.769 498.872 580.697Z" stroke="#FFFFFF" stroke-width="1.33333" fill="#1D9EFF"/><path d="M522.641 602.548C524.508 601.697 525.611 600.705 525.611 599.641 525.611 597.641 521.801 595.887 516.063 594.879 518.205 593.74 520.488 592.892 522.853 592.355 525.71 591.705 527.498 588.862 526.848 586.006 526.724 585.458 526.512 584.933 526.223 584.451L526.135 584.303C524.714 581.877 521.596 581.063 519.171 582.484 519.124 582.512 519.077 582.54 519.031 582.569 514.637 585.397 511.109 589.382 508.836 594.087 507.831 594.033 506.795 594.004 505.743 593.992 513.717 572.323 524.216 559.467 530.845 554.068 534.038 551.547 534.583 546.916 532.063 543.723 529.542 540.53 524.911 539.985 521.718 542.506 521.342 542.803 520.995 543.136 520.684 543.5 509.159 556.459 503.829 577.767 501.364 594.061 499.681 594.139 498.064 594.267 496.545 594.448 496.545 594.436 496.545 594.424 496.545 594.412 492.952 573.917 485.4 545.952 469.844 529.612 466.414 525.87 460.601 525.617 456.859 529.047 453.117 532.476 452.864 538.29 456.293 542.032 456.695 542.47 457.139 542.869 457.617 543.221 466.457 549.933 480.865 566.515 491.917 595.212 490.867 595.44 489.9 595.695 489.031 595.973 486.185 590.142 481.795 585.202 476.337 581.692 473.371 579.821 469.449 580.709 467.578 583.675 467.54 583.736 467.503 583.797 467.467 583.859L467.357 584.043C465.473 587.175 466.484 591.242 469.616 593.126 470.219 593.489 470.876 593.753 471.563 593.909 475.357 594.766 478.977 596.264 482.267 598.339 480.649 598.205 478.941 598.136 477.171 598.136 467.255 598.136 459.216 600.328 459.216 603.033 459.216 604.663 462.149 606.1 466.641 606.993 466.346 607.436 466.182 607.954 466.171 608.487 466.165 613.373 480.688 617.333 498.601 617.333 516.515 617.333 531.037 613.373 531.037 608.487 531.037 606.201 527.859 604.119 522.641 602.548Z" stroke="#FFFFFF" stroke-width="1.33333" fill="#1D9EFF"/><path d="M455.056 607.929C452.4 607.929 450.247 608.516 450.247 609.241 450.247 609.967 452.4 610.553 455.056 610.553 457.712 610.553 459.865 609.965 459.865 609.241 459.865 608.517 457.712 607.929 455.056 607.929Z" stroke="#FFFFFF" stroke-width="1.33333" fill="#1D9EFF"/></g></svg>