<svg width="129" height="129" xmlns="http://www.w3.org/2000/svg" xmlns:xlink="http://www.w3.org/1999/xlink" xml:space="preserve" overflow="hidden"><defs><clipPath id="clip0"><rect x="286" y="379" width="129" height="129"/></clipPath></defs><g clip-path="url(#clip0)" transform="translate(-286 -379)"><path d="M382.304 439.35C378.772 441.57 375.943 444.748 374.147 448.514 373.58 449.714 375.061 450.586 376.135 449.703 378.578 447.681 381.427 446.208 384.489 445.381 386.908 444.734 388.226 442.14 387.101 440.243L387.047 440.153C385.981 438.625 383.879 438.251 382.351 439.317 382.335 439.328 382.32 439.339 382.304 439.35Z" stroke="#FFFFFF" stroke-width="1.34375" fill="#02787B"/><path d="M324.633 444.336C326.975 444.862 329.15 445.96 330.965 447.531 331.385 447.897 332.022 447.853 332.388 447.433 332.628 447.157 332.7 446.773 332.577 446.429 331.423 443.435 329.348 440.885 326.651 439.146 325.391 438.353 323.727 438.731 322.934 439.991 322.918 440.016 322.903 440.04 322.889 440.065L322.843 440.145C322.042 441.473 322.469 443.199 323.797 444 324.056 444.156 324.338 444.27 324.633 444.336Z" stroke="#FFFFFF" stroke-width="1.34375" fill="#02787B"/><path d="M396.108 463.081 396.088 462.992C395.753 461.542 394.306 460.637 392.856 460.972 392.827 460.978 392.799 460.985 392.77 460.993 389.678 461.85 386.937 463.667 384.943 466.181 384.604 466.625 384.689 467.259 385.132 467.598 385.428 467.823 385.823 467.869 386.162 467.716 388.362 466.753 390.765 466.351 393.159 466.545 394.705 466.667 396.057 465.513 396.179 463.966 396.203 463.669 396.179 463.371 396.108 463.081Z" stroke="#FFFFFF" stroke-width="1.34375" fill="#02787B"/><path d="M309.369 467.349C312.493 466.801 315.698 466.929 318.767 467.725 320.111 468.069 321.085 466.65 320.064 465.806 316.843 463.155 312.934 461.474 308.794 460.959 306.965 460.609 305.197 461.808 304.847 463.638 304.844 463.657 304.84 463.677 304.837 463.697L304.826 463.8C304.611 465.996 306.906 467.786 309.369 467.349Z" stroke="#FFFFFF" stroke-width="1.34375" fill="#02787B"/><path d="M355.41 452.265C356.124 452.2 356.685 451.627 356.736 450.912 357.059 446.232 358.841 429.106 368.044 414.883 370.416 411.145 369.621 406.223 366.192 403.421L366.192 403.421C362.463 400.318 356.923 400.825 353.82 404.554 352.863 405.703 352.216 407.077 351.939 408.546 348.949 425.394 352.745 445.83 353.831 451.1 353.983 451.835 354.663 452.337 355.41 452.265Z" stroke="#FFFFFF" stroke-width="1.34375" fill="#02787B"/><path d="M379.365 474.287C381.246 473.429 382.358 472.43 382.358 471.357 382.358 469.342 378.519 467.573 372.735 466.557 374.894 465.41 377.195 464.555 379.579 464.014 382.457 463.359 384.26 460.494 383.605 457.615 383.479 457.063 383.266 456.534 382.974 456.048L382.886 455.899C381.454 453.455 378.312 452.634 375.867 454.066 375.82 454.094 375.773 454.123 375.726 454.152 371.298 457.002 367.743 461.018 365.452 465.759 364.439 465.705 363.395 465.676 362.334 465.664 370.371 443.825 380.952 430.869 387.633 425.428 390.851 422.888 391.4 418.22 388.86 415.002 386.32 411.785 381.652 411.235 378.434 413.775 378.055 414.075 377.706 414.41 377.392 414.777 365.777 427.837 360.406 449.312 357.922 465.734 356.226 465.812 354.596 465.941 353.065 466.123 353.065 466.111 353.065 466.099 353.065 466.087 349.444 445.432 341.833 417.249 326.155 400.781 322.699 397.01 316.84 396.755 313.069 400.211 309.297 403.667 309.042 409.527 312.499 413.298 312.904 413.74 313.351 414.141 313.833 414.496 322.742 421.261 337.263 437.972 348.401 466.893 347.342 467.123 346.368 467.38 345.492 467.661 342.624 461.783 338.2 456.805 332.699 453.268 329.71 451.382 325.757 452.277 323.871 455.267 323.833 455.328 323.796 455.389 323.759 455.451L323.649 455.637C321.75 458.793 322.769 462.892 325.926 464.791 326.533 465.157 327.196 465.423 327.887 465.581 331.711 466.444 335.359 467.954 338.675 470.044 337.045 469.91 335.324 469.84 333.539 469.84 323.546 469.84 315.444 472.049 315.444 474.776 315.444 476.418 318.401 477.866 322.928 478.767 322.63 479.213 322.465 479.735 322.453 480.272 322.448 485.197 337.084 489.188 355.137 489.188 373.191 489.188 387.827 485.197 387.827 480.272 387.827 477.969 384.623 475.87 379.365 474.287Z" stroke="#FFFFFF" stroke-width="1.34375" fill="#02787B"/><path d="M311.252 479.71C308.575 479.71 306.405 480.301 306.405 481.032 306.405 481.763 308.575 482.355 311.252 482.355 313.928 482.355 316.099 481.762 316.099 481.032 316.099 480.303 313.928 479.71 311.252 479.71Z" stroke="#FFFFFF" stroke-width="1.34375" fill="#02787B"/></g></svg>