<svg width="129" height="129" xmlns="http://www.w3.org/2000/svg" xmlns:xlink="http://www.w3.org/1999/xlink" xml:space="preserve" overflow="hidden"><defs><clipPath id="clip0"><rect x="716" y="379" width="129" height="129"/></clipPath></defs><g clip-path="url(#clip0)" transform="translate(-716 -379)"><path d="M812.304 439.35C808.772 441.57 805.943 444.748 804.147 448.514 803.58 449.714 805.061 450.586 806.135 449.703 808.578 447.681 811.427 446.208 814.489 445.381 816.908 444.734 818.226 442.14 817.101 440.243L817.047 440.153C815.981 438.625 813.879 438.251 812.351 439.317 812.335 439.328 812.32 439.339 812.304 439.35Z" stroke="#FFFFFF" stroke-width="1.34375" fill="#03D6DB"/><path d="M754.633 444.336C756.975 444.862 759.15 445.96 760.965 447.531 761.385 447.897 762.022 447.853 762.388 447.433 762.628 447.157 762.7 446.773 762.577 446.429 761.423 443.435 759.348 440.885 756.651 439.146 755.391 438.353 753.727 438.731 752.934 439.991 752.918 440.016 752.903 440.04 752.889 440.065L752.843 440.145C752.042 441.473 752.469 443.199 753.797 444 754.056 444.156 754.338 444.27 754.633 444.336Z" stroke="#FFFFFF" stroke-width="1.34375" fill="#03D6DB"/><path d="M826.108 463.081 826.088 462.992C825.753 461.542 824.306 460.637 822.856 460.972 822.827 460.978 822.799 460.985 822.77 460.993 819.678 461.85 816.937 463.667 814.943 466.181 814.604 466.625 814.689 467.259 815.132 467.598 815.428 467.823 815.823 467.869 816.162 467.716 818.362 466.753 820.765 466.351 823.159 466.545 824.705 466.667 826.057 465.513 826.179 463.966 826.203 463.669 826.179 463.371 826.108 463.081Z" stroke="#FFFFFF" stroke-width="1.34375" fill="#03D6DB"/><path d="M739.369 467.349C742.493 466.801 745.698 466.929 748.767 467.725 750.111 468.069 751.085 466.65 750.064 465.806 746.843 463.155 742.934 461.474 738.794 460.959 736.965 460.609 735.198 461.808 734.847 463.638 734.844 463.657 734.84 463.677 734.837 463.697L734.826 463.8C734.611 465.996 736.906 467.786 739.369 467.349Z" stroke="#FFFFFF" stroke-width="1.34375" fill="#03D6DB"/><path d="M785.41 452.265C786.124 452.2 786.685 451.627 786.736 450.912 787.059 446.232 788.841 429.106 798.044 414.883 800.416 411.145 799.621 406.223 796.192 403.421L796.192 403.421C792.463 400.318 786.923 400.825 783.82 404.554 782.863 405.703 782.216 407.077 781.939 408.546 778.949 425.394 782.745 445.83 783.831 451.1 783.983 451.835 784.663 452.337 785.41 452.265Z" stroke="#FFFFFF" stroke-width="1.34375" fill="#03D6DB"/><path d="M809.365 474.287C811.246 473.429 812.358 472.43 812.358 471.357 812.358 469.342 808.519 467.573 802.735 466.557 804.894 465.41 807.195 464.555 809.579 464.014 812.457 463.359 814.26 460.494 813.605 457.615 813.479 457.063 813.266 456.534 812.974 456.048L812.886 455.899C811.454 453.455 808.312 452.634 805.867 454.066 805.82 454.094 805.773 454.123 805.726 454.152 801.298 457.002 797.743 461.018 795.452 465.759 794.439 465.705 793.395 465.676 792.334 465.664 800.371 443.825 810.952 430.869 817.633 425.428 820.851 422.888 821.4 418.22 818.86 415.002 816.32 411.785 811.652 411.235 808.434 413.775 808.055 414.075 807.706 414.41 807.392 414.777 795.777 427.837 790.406 449.312 787.922 465.734 786.226 465.812 784.596 465.941 783.065 466.123 783.065 466.111 783.065 466.099 783.065 466.087 779.444 445.432 771.833 417.249 756.155 400.781 752.699 397.01 746.84 396.755 743.069 400.211 739.297 403.667 739.042 409.527 742.499 413.298 742.904 413.74 743.351 414.141 743.833 414.496 752.742 421.261 767.263 437.972 778.401 466.893 777.342 467.123 776.368 467.38 775.492 467.661 772.624 461.783 768.2 456.805 762.699 453.268 759.71 451.382 755.757 452.277 753.871 455.267 753.833 455.328 753.796 455.389 753.759 455.451L753.649 455.637C751.75 458.793 752.769 462.892 755.926 464.791 756.533 465.157 757.196 465.423 757.887 465.581 761.711 466.444 765.359 467.954 768.675 470.044 767.045 469.91 765.324 469.84 763.539 469.84 753.546 469.84 745.444 472.049 745.444 474.776 745.444 476.418 748.401 477.866 752.928 478.767 752.63 479.213 752.465 479.735 752.453 480.272 752.448 485.197 767.084 489.188 785.137 489.188 803.191 489.188 817.827 485.197 817.827 480.272 817.827 477.969 814.623 475.87 809.365 474.287Z" stroke="#FFFFFF" stroke-width="1.34375" fill="#03D6DB"/><path d="M741.252 479.71C738.575 479.71 736.405 480.301 736.405 481.032 736.405 481.763 738.575 482.355 741.252 482.355 743.929 482.355 746.099 481.762 746.099 481.032 746.099 480.303 743.929 479.71 741.252 479.71Z" stroke="#FFFFFF" stroke-width="1.34375" fill="#03D6DB"/></g></svg>