<svg xmlns="http://www.w3.org/2000/svg" xmlns:xlink="http://www.w3.org/1999/xlink" width="128" height="128" overflow="hidden" xml:space="preserve"><defs><clipPath id="clip0"><rect width="128" height="128" x="1003" y="260"/></clipPath></defs><g clip-path="url(#clip0)" transform="translate(-1003 -260)"><path fill="#B3BDF1" stroke="#FFF" stroke-width="1.333" d="M1098.56 319.883C1095.05 322.085 1092.25 325.239 1090.46 328.975 1089.9 330.165 1091.37 331.031 1092.44 330.155 1094.86 328.149 1097.69 326.687 1100.73 325.867 1103.13 325.224 1104.43 322.651 1103.32 320.768L1103.26 320.679C1102.21 319.163 1100.12 318.792 1098.6 319.849 1098.59 319.86 1098.57 319.871 1098.56 319.883Z"/><path fill="#B3BDF1" stroke="#FFF" stroke-width="1.333" d="M1041.33 324.829C1043.66 325.352 1045.82 326.441 1047.62 328 1048.03 328.363 1048.67 328.319 1049.03 327.902 1049.27 327.629 1049.34 327.248 1049.22 326.907 1048.07 323.936 1046.01 321.405 1043.34 319.68 1042.09 318.893 1040.43 319.268 1039.65 320.518 1039.63 320.543 1039.62 320.567 1039.6 320.592L1039.56 320.671C1038.76 321.988 1039.19 323.701 1040.5 324.496 1040.76 324.651 1041.04 324.764 1041.33 324.829Z"/><path fill="#B3BDF1" stroke="#FFF" stroke-width="1.333" d="M1112.25 343.429 1112.23 343.341C1111.9 341.902 1110.47 341.004 1109.03 341.336 1109 341.343 1108.97 341.35 1108.94 341.357 1105.87 342.208 1103.15 344.011 1101.18 346.505 1100.84 346.945 1100.92 347.575 1101.36 347.911 1101.66 348.135 1102.05 348.18 1102.39 348.028 1104.57 347.073 1106.95 346.674 1109.33 346.867 1110.86 346.988 1112.2 345.842 1112.33 344.308 1112.35 344.013 1112.32 343.717 1112.25 343.429Z"/><path fill="#B3BDF1" stroke="#FFF" stroke-width="1.333" d="M1026.19 347.664C1029.29 347.12 1032.47 347.247 1035.51 348.037 1036.85 348.379 1037.81 346.971 1036.8 346.133 1033.6 343.503 1029.73 341.835 1025.62 341.324 1023.8 340.977 1022.05 342.167 1021.7 343.982 1021.7 344.001 1021.69 344.021 1021.69 344.04L1021.68 344.143C1021.47 346.321 1023.74 348.097 1026.19 347.664Z"/><path fill="#B3BDF1" stroke="#FFF" stroke-width="1.333" d="M1071.87 332.697C1072.58 332.633 1073.14 332.064 1073.19 331.355 1073.51 326.711 1075.28 309.717 1084.41 295.605 1086.76 291.895 1085.97 287.012 1082.57 284.232L1082.57 284.232C1078.87 281.152 1073.37 281.656 1070.29 285.356 1069.35 286.496 1068.7 287.86 1068.43 289.317 1065.46 306.035 1069.23 326.312 1070.31 331.541 1070.46 332.27 1071.13 332.769 1071.87 332.697Z"/><path fill="#B3BDF1" stroke="#FFF" stroke-width="1.333" d="M1095.64 354.548C1097.51 353.697 1098.61 352.705 1098.61 351.641 1098.61 349.641 1094.8 347.887 1089.06 346.879 1091.2 345.74 1093.49 344.892 1095.85 344.355 1098.71 343.705 1100.5 340.862 1099.85 338.006 1099.72 337.458 1099.51 336.933 1099.22 336.451L1099.13 336.303C1097.71 333.877 1094.6 333.063 1092.17 334.484 1092.12 334.512 1092.08 334.54 1092.03 334.569 1087.64 337.397 1084.11 341.382 1081.84 346.087 1080.83 346.033 1079.79 346.004 1078.74 345.992 1086.72 324.323 1097.22 311.467 1103.85 306.068 1107.04 303.547 1107.58 298.916 1105.06 295.723 1102.54 292.53 1097.91 291.985 1094.72 294.506 1094.34 294.803 1094 295.136 1093.68 295.5 1082.16 308.459 1076.83 329.767 1074.36 346.061 1072.68 346.139 1071.06 346.267 1069.55 346.448 1069.55 346.436 1069.55 346.424 1069.55 346.412 1065.95 325.917 1058.4 297.952 1042.84 281.612 1039.41 277.87 1033.6 277.617 1029.86 281.047 1026.12 284.476 1025.86 290.29 1029.29 294.032 1029.7 294.47 1030.14 294.869 1030.62 295.221 1039.46 301.933 1053.87 318.515 1064.92 347.212 1063.87 347.44 1062.9 347.695 1062.03 347.973 1059.19 342.142 1054.79 337.202 1049.34 333.692 1046.37 331.821 1042.45 332.709 1040.58 335.675 1040.54 335.736 1040.5 335.797 1040.47 335.859L1040.36 336.043C1038.47 339.175 1039.48 343.242 1042.62 345.126 1043.22 345.489 1043.88 345.753 1044.56 345.909 1048.36 346.766 1051.98 348.264 1055.27 350.339 1053.65 350.205 1051.94 350.136 1050.17 350.136 1040.25 350.136 1032.22 352.328 1032.22 355.033 1032.22 356.663 1035.15 358.1 1039.64 358.993 1039.35 359.436 1039.18 359.954 1039.17 360.487 1039.17 365.373 1053.69 369.333 1071.6 369.333 1089.51 369.333 1104.04 365.373 1104.04 360.487 1104.04 358.201 1100.86 356.119 1095.64 354.548Z"/><path fill="#B3BDF1" stroke="#FFF" stroke-width="1.333" d="M1028.06 359.929C1025.4 359.929 1023.25 360.516 1023.25 361.241 1023.25 361.967 1025.4 362.553 1028.06 362.553 1030.71 362.553 1032.87 361.965 1032.87 361.241 1032.87 360.517 1030.71 359.929 1028.06 359.929Z"/></g></svg>