<svg width="129" height="129" xmlns="http://www.w3.org/2000/svg" xmlns:xlink="http://www.w3.org/1999/xlink" xml:space="preserve" overflow="hidden"><defs><clipPath id="clip0"><rect x="719" y="140" width="129" height="129"/></clipPath></defs><g clip-path="url(#clip0)" transform="translate(-719 -140)"><path d="M764.688 185.607C764.688 187.893 762.834 189.746 760.549 189.746 758.263 189.746 756.41 187.893 756.41 185.607 756.41 183.323 760.549 177.329 760.549 177.329 760.549 177.329 764.688 183.323 764.688 185.607Z" stroke="#FFFFFF" stroke-width="1.34375" fill="#86D5FD"/><path d="M773.503 183.242C773.503 184.875 772.179 186.198 770.546 186.198 768.914 186.198 767.59 184.875 767.59 183.242 767.59 181.616 770.546 177.329 770.546 177.329 770.546 177.329 773.503 181.656 773.503 183.242Z" stroke="#FFFFFF" stroke-width="1.34375" fill="#86D5FD"/><path d="M753.4 183.242C753.51 184.871 752.279 186.281 750.65 186.391 749.021 186.501 747.611 185.269 747.501 183.64 747.492 183.508 747.492 183.375 747.501 183.242 747.501 181.616 750.444 177.329 750.444 177.329 750.444 177.329 753.4 181.656 753.4 183.242Z" stroke="#FFFFFF" stroke-width="1.34375" fill="#86D5FD"/><path d="M780.597 169.348C780.609 166.26 778.116 163.748 775.029 163.736 774.716 163.735 774.403 163.76 774.094 163.811L774.094 163.731C774.09 159.82 770.916 156.652 767.005 156.656 766.254 156.657 765.508 156.777 764.795 157.012 762.555 152.84 757.358 151.274 753.187 153.513 750.458 154.978 748.732 157.799 748.67 160.895 744.828 160.125 741.089 162.615 740.319 166.457 739.549 170.3 742.039 174.039 745.881 174.809 746.22 174.877 746.564 174.92 746.91 174.938L775.276 174.938C778.252 174.781 780.587 172.327 780.597 169.348Z" stroke="#FFFFFF" stroke-width="1.34375" fill="#86D5FD"/><path d="M775.881 226C784.455 221.551 793.998 219.298 803.656 219.443L804.221 219.443C796.937 213.591 787.936 210.287 778.595 210.036 772.382 210.015 766.239 211.359 760.602 213.973 766.476 216.877 771.68 220.973 775.881 226Z" stroke="#FFFFFF" stroke-width="1.34375" fill="#86D5FD"/><path d="M735.81 240.781C757.23 239.088 768.396 231.079 769.135 230.542 770.171 229.66 771.256 228.839 772.387 228.083 755.819 208.921 725.719 211.219 725.719 211.219L725.719 241.198Z" stroke="#FFFFFF" stroke-width="1.34375" fill="#86D5FD"/><path d="M836.524 234.613C835.486 233.643 834.381 232.745 833.219 231.926L833.219 216.191C837.772 214.615 840.768 210.257 840.609 205.441 840.609 198.722 832.708 183.699 830.531 183.699 828.354 183.699 820.453 198.776 820.453 205.441 820.294 210.257 823.29 214.615 827.844 216.191L827.844 228.795C822.757 226.358 817.313 224.747 811.719 224.025L811.719 197.459C817.954 196.115 822.657 189.799 822.657 180.998 822.657 170.973 812.297 149.406 809.031 149.406 805.766 149.406 795.406 170.973 795.406 180.998 795.406 189.799 800.109 196.061 806.344 197.459L806.344 223.541C805.43 223.541 804.516 223.474 803.656 223.474 791.052 223.474 779.388 227.223 771.729 233.727 771.594 233.821 759.783 242.998 736.106 244.839L725.719 244.812 725.719 259.594 841.281 259.594 841.281 238.376Z" stroke="#FFFFFF" stroke-width="1.34375" fill="#86D5FD"/></g></svg>