<svg width="129" height="129" xmlns="http://www.w3.org/2000/svg" xmlns:xlink="http://www.w3.org/1999/xlink" xml:space="preserve" overflow="hidden"><defs><clipPath id="clip0"><rect x="0" y="140" width="129" height="129"/></clipPath></defs><g clip-path="url(#clip0)" transform="matrix(1 0 0 1 0 -140)"><path d="M45.6875 185.607C45.6875 187.893 43.8345 189.746 41.5488 189.746 39.263 189.746 37.41 187.893 37.41 185.607 37.41 183.323 41.5488 177.329 41.5488 177.329 41.5488 177.329 45.6875 183.323 45.6875 185.607Z" stroke="#FFFFFF" stroke-width="1.34375" fill="#024A6F"/><path d="M54.5025 183.242C54.5025 184.875 53.1789 186.198 51.5462 186.198 49.9136 186.198 48.59 184.875 48.59 183.242 48.59 181.616 51.5462 177.329 51.5462 177.329 51.5462 177.329 54.5025 181.656 54.5025 183.242Z" stroke="#FFFFFF" stroke-width="1.34375" fill="#024A6F"/><path d="M34.4 183.242C34.5101 184.871 33.2786 186.281 31.6496 186.391 30.0207 186.501 28.611 185.269 28.5009 183.64 28.4919 183.508 28.4919 183.375 28.5009 183.242 28.5009 181.616 31.4438 177.329 31.4438 177.329 31.4438 177.329 34.4 181.656 34.4 183.242Z" stroke="#FFFFFF" stroke-width="1.34375" fill="#024A6F"/><path d="M61.5975 169.348C61.6093 166.26 59.1163 163.748 56.029 163.736 55.7156 163.735 55.4028 163.76 55.0938 163.811L55.0938 163.731C55.09 159.82 51.9165 156.652 48.0055 156.656 47.2544 156.657 46.5083 156.777 45.795 157.012 43.5555 152.84 38.3583 151.274 34.1866 153.513 31.4584 154.978 29.7319 157.799 29.67 160.895 25.828 160.125 22.0891 162.615 21.319 166.457 20.5489 170.3 23.0391 174.039 26.8812 174.809 27.2205 174.877 27.5642 174.92 27.9097 174.938L56.2763 174.938C59.252 174.781 61.5874 172.327 61.5975 169.348Z" stroke="#FFFFFF" stroke-width="1.34375" fill="#024A6F"/><path d="M56.8809 226C65.4547 221.551 74.998 219.298 84.6562 219.443L85.2206 219.443C77.9366 213.591 68.9356 210.287 59.5953 210.036 53.3817 210.015 47.2394 211.359 41.6025 213.973 47.4759 216.877 52.6796 220.973 56.8809 226Z" stroke="#FFFFFF" stroke-width="1.34375" fill="#024A6F"/><path d="M16.8103 240.781C38.2297 239.088 49.3962 231.079 50.1353 230.542 51.1705 229.66 52.2563 228.839 53.3872 228.083 36.8187 208.921 6.71875 211.219 6.71875 211.219L6.71875 241.198Z" stroke="#FFFFFF" stroke-width="1.34375" fill="#024A6F"/><path d="M117.524 234.613C116.486 233.643 115.381 232.745 114.219 231.926L114.219 216.191C118.772 214.615 121.768 210.257 121.609 205.441 121.609 198.722 113.708 183.699 111.531 183.699 109.354 183.699 101.453 198.776 101.453 205.441 101.294 210.257 104.29 214.615 108.844 216.191L108.844 228.795C103.757 226.358 98.3132 224.747 92.7188 224.025L92.7188 197.459C98.9538 196.115 103.657 189.799 103.657 180.998 103.657 170.973 93.2966 149.406 90.0312 149.406 86.7659 149.406 76.4056 170.973 76.4056 180.998 76.4056 189.799 81.1087 196.061 87.3438 197.459L87.3438 223.541C86.43 223.541 85.5163 223.474 84.6562 223.474 72.0519 223.474 60.3881 227.223 52.7288 233.727 52.5944 233.821 40.7828 242.998 17.1059 244.839L6.71875 244.812 6.71875 259.594 122.281 259.594 122.281 238.376Z" stroke="#FFFFFF" stroke-width="1.34375" fill="#024A6F"/></g></svg>