<svg width="129" height="129" xmlns="http://www.w3.org/2000/svg" xmlns:xlink="http://www.w3.org/1999/xlink" xml:space="preserve" overflow="hidden"><defs><clipPath id="clip0"><rect x="863" y="140" width="129" height="129"/></clipPath></defs><g clip-path="url(#clip0)" transform="translate(-863 -140)"><path d="M908.688 185.607C908.688 187.893 906.834 189.746 904.549 189.746 902.263 189.746 900.41 187.893 900.41 185.607 900.41 183.323 904.549 177.329 904.549 177.329 904.549 177.329 908.688 183.323 908.688 185.607Z" stroke="#FFFFFF" stroke-width="1.34375" fill="#9DDDFD"/><path d="M917.503 183.242C917.503 184.875 916.179 186.198 914.546 186.198 912.914 186.198 911.59 184.875 911.59 183.242 911.59 181.616 914.546 177.329 914.546 177.329 914.546 177.329 917.503 181.656 917.503 183.242Z" stroke="#FFFFFF" stroke-width="1.34375" fill="#9DDDFD"/><path d="M897.4 183.242C897.51 184.871 896.279 186.281 894.65 186.391 893.021 186.501 891.611 185.269 891.501 183.64 891.492 183.508 891.492 183.375 891.501 183.242 891.501 181.616 894.444 177.329 894.444 177.329 894.444 177.329 897.4 181.656 897.4 183.242Z" stroke="#FFFFFF" stroke-width="1.34375" fill="#9DDDFD"/><path d="M924.597 169.348C924.609 166.26 922.116 163.748 919.029 163.736 918.716 163.735 918.403 163.76 918.094 163.811L918.094 163.731C918.09 159.82 914.916 156.652 911.005 156.656 910.254 156.657 909.508 156.777 908.795 157.012 906.555 152.84 901.358 151.274 897.187 153.513 894.458 154.978 892.732 157.799 892.67 160.895 888.828 160.125 885.089 162.615 884.319 166.457 883.549 170.3 886.039 174.039 889.881 174.809 890.22 174.877 890.564 174.92 890.91 174.938L919.276 174.938C922.252 174.781 924.587 172.327 924.597 169.348Z" stroke="#FFFFFF" stroke-width="1.34375" fill="#9DDDFD"/><path d="M919.881 226C928.455 221.551 937.998 219.298 947.656 219.443L948.221 219.443C940.937 213.591 931.936 210.287 922.595 210.036 916.382 210.015 910.239 211.359 904.602 213.973 910.476 216.877 915.68 220.973 919.881 226Z" stroke="#FFFFFF" stroke-width="1.34375" fill="#9DDDFD"/><path d="M879.81 240.781C901.23 239.088 912.396 231.079 913.135 230.542 914.171 229.66 915.256 228.839 916.387 228.083 899.819 208.921 869.719 211.219 869.719 211.219L869.719 241.198Z" stroke="#FFFFFF" stroke-width="1.34375" fill="#9DDDFD"/><path d="M980.524 234.613C979.486 233.643 978.381 232.745 977.219 231.926L977.219 216.191C981.772 214.615 984.768 210.257 984.609 205.441 984.609 198.722 976.708 183.699 974.531 183.699 972.354 183.699 964.453 198.776 964.453 205.441 964.294 210.257 967.29 214.615 971.844 216.191L971.844 228.795C966.757 226.358 961.313 224.747 955.719 224.025L955.719 197.459C961.954 196.115 966.657 189.799 966.657 180.998 966.657 170.973 956.297 149.406 953.031 149.406 949.766 149.406 939.406 170.973 939.406 180.998 939.406 189.799 944.109 196.061 950.344 197.459L950.344 223.541C949.43 223.541 948.516 223.474 947.656 223.474 935.052 223.474 923.388 227.223 915.729 233.727 915.594 233.821 903.783 242.998 880.106 244.839L869.719 244.812 869.719 259.594 985.281 259.594 985.281 238.376Z" stroke="#FFFFFF" stroke-width="1.34375" fill="#9DDDFD"/></g></svg>