<svg width="129" height="129" xmlns="http://www.w3.org/2000/svg" xmlns:xlink="http://www.w3.org/1999/xlink" xml:space="preserve" overflow="hidden"><defs><clipPath id="clip0"><rect x="439" y="551" width="129" height="129"/></clipPath></defs><g clip-path="url(#clip0)" transform="translate(-439 -551)"><path d="M484.688 596.607C484.688 598.893 482.834 600.746 480.549 600.746 478.263 600.746 476.41 598.893 476.41 596.607 476.41 594.323 480.549 588.329 480.549 588.329 480.549 588.329 484.688 594.323 484.688 596.607Z" stroke="#FFFFFF" stroke-width="1.34375" fill="#1D9EFF"/><path d="M493.503 594.242C493.503 595.875 492.179 597.198 490.546 597.198 488.914 597.198 487.59 595.875 487.59 594.242 487.59 592.616 490.546 588.329 490.546 588.329 490.546 588.329 493.503 592.656 493.503 594.242Z" stroke="#FFFFFF" stroke-width="1.34375" fill="#1D9EFF"/><path d="M473.4 594.242C473.51 595.871 472.279 597.281 470.65 597.391 469.021 597.501 467.611 596.269 467.501 594.64 467.492 594.508 467.492 594.375 467.501 594.242 467.501 592.616 470.444 588.329 470.444 588.329 470.444 588.329 473.4 592.656 473.4 594.242Z" stroke="#FFFFFF" stroke-width="1.34375" fill="#1D9EFF"/><path d="M500.598 580.347C500.609 577.26 498.116 574.748 495.029 574.736 494.716 574.735 494.403 574.76 494.094 574.811L494.094 574.731C494.09 570.82 490.916 567.652 487.005 567.656 486.254 567.657 485.508 567.777 484.795 568.012 482.556 563.84 477.358 562.274 473.187 564.513 470.458 565.978 468.732 568.799 468.67 571.895 464.828 571.125 461.089 573.615 460.319 577.458 459.549 581.3 462.039 585.039 465.881 585.809 466.22 585.877 466.564 585.92 466.91 585.938L495.276 585.938C498.252 585.781 500.587 583.327 500.598 580.347Z" stroke="#FFFFFF" stroke-width="1.34375" fill="#1D9EFF"/><path d="M495.881 637C504.455 632.551 513.998 630.298 523.656 630.443L524.221 630.443C516.937 624.591 507.936 621.287 498.595 621.036 492.382 621.015 486.239 622.359 480.603 624.973 486.476 627.877 491.68 631.973 495.881 637Z" stroke="#FFFFFF" stroke-width="1.34375" fill="#1D9EFF"/><path d="M455.81 651.781C477.23 650.088 488.396 642.079 489.135 641.542 490.171 640.66 491.256 639.839 492.387 639.083 475.819 619.921 445.719 622.219 445.719 622.219L445.719 652.198Z" stroke="#FFFFFF" stroke-width="1.34375" fill="#1D9EFF"/><path d="M556.524 645.613C555.486 644.643 554.381 643.745 553.219 642.926L553.219 627.191C557.772 625.615 560.768 621.256 560.609 616.441 560.609 609.722 552.708 594.699 550.531 594.699 548.354 594.699 540.453 609.776 540.453 616.441 540.294 621.256 543.29 625.615 547.844 627.191L547.844 639.795C542.757 637.358 537.313 635.747 531.719 635.025L531.719 608.459C537.954 607.115 542.657 600.799 542.657 591.998 542.657 581.973 532.297 560.406 529.031 560.406 525.766 560.406 515.406 581.973 515.406 591.998 515.406 600.799 520.109 607.061 526.344 608.459L526.344 634.541C525.43 634.541 524.516 634.474 523.656 634.474 511.052 634.474 499.388 638.223 491.729 644.727 491.594 644.821 479.783 653.998 456.106 655.839L445.719 655.812 445.719 670.594 561.281 670.594 561.281 649.376Z" stroke="#FFFFFF" stroke-width="1.34375" fill="#1D9EFF"/></g></svg>