<svg width="129" height="129" xmlns="http://www.w3.org/2000/svg" xmlns:xlink="http://www.w3.org/1999/xlink" xml:space="preserve" overflow="hidden"><defs><clipPath id="clip0"><rect x="719" y="420" width="129" height="129"/></clipPath></defs><g clip-path="url(#clip0)" transform="translate(-719 -420)"><path d="M764.688 465.607C764.688 467.893 762.834 469.746 760.549 469.746 758.263 469.746 756.41 467.893 756.41 465.607 756.41 463.323 760.549 457.329 760.549 457.329 760.549 457.329 764.688 463.323 764.688 465.607Z" stroke="#FFFFFF" stroke-width="1.34375" fill="#03D6DB"/><path d="M773.503 463.242C773.503 464.875 772.179 466.198 770.546 466.198 768.914 466.198 767.59 464.875 767.59 463.242 767.59 461.616 770.546 457.329 770.546 457.329 770.546 457.329 773.503 461.656 773.503 463.242Z" stroke="#FFFFFF" stroke-width="1.34375" fill="#03D6DB"/><path d="M753.4 463.242C753.51 464.871 752.279 466.281 750.65 466.391 749.021 466.501 747.611 465.269 747.501 463.64 747.492 463.508 747.492 463.375 747.501 463.242 747.501 461.616 750.444 457.329 750.444 457.329 750.444 457.329 753.4 461.656 753.4 463.242Z" stroke="#FFFFFF" stroke-width="1.34375" fill="#03D6DB"/><path d="M780.597 449.348C780.609 446.26 778.116 443.748 775.029 443.736 774.716 443.735 774.403 443.76 774.094 443.811L774.094 443.731C774.09 439.82 770.916 436.652 767.005 436.656 766.254 436.657 765.508 436.777 764.795 437.012 762.555 432.84 757.358 431.274 753.187 433.513 750.458 434.978 748.732 437.799 748.67 440.895 744.828 440.125 741.089 442.615 740.319 446.457 739.549 450.3 742.039 454.039 745.881 454.809 746.22 454.877 746.564 454.92 746.91 454.938L775.276 454.938C778.252 454.781 780.587 452.327 780.597 449.348Z" stroke="#FFFFFF" stroke-width="1.34375" fill="#03D6DB"/><path d="M775.881 506C784.455 501.551 793.998 499.298 803.656 499.443L804.221 499.443C796.937 493.591 787.936 490.287 778.595 490.036 772.382 490.015 766.239 491.359 760.602 493.973 766.476 496.877 771.68 500.973 775.881 506Z" stroke="#FFFFFF" stroke-width="1.34375" fill="#03D6DB"/><path d="M735.81 520.781C757.23 519.088 768.396 511.079 769.135 510.542 770.171 509.66 771.256 508.839 772.387 508.083 755.819 488.921 725.719 491.219 725.719 491.219L725.719 521.198Z" stroke="#FFFFFF" stroke-width="1.34375" fill="#03D6DB"/><path d="M836.524 514.613C835.486 513.643 834.381 512.745 833.219 511.926L833.219 496.191C837.772 494.615 840.768 490.257 840.609 485.441 840.609 478.722 832.708 463.699 830.531 463.699 828.354 463.699 820.453 478.776 820.453 485.441 820.294 490.257 823.29 494.615 827.844 496.191L827.844 508.795C822.757 506.358 817.313 504.747 811.719 504.025L811.719 477.459C817.954 476.115 822.657 469.799 822.657 460.998 822.657 450.973 812.297 429.406 809.031 429.406 805.766 429.406 795.406 450.973 795.406 460.998 795.406 469.799 800.109 476.061 806.344 477.459L806.344 503.541C805.43 503.541 804.516 503.474 803.656 503.474 791.052 503.474 779.388 507.223 771.729 513.727 771.594 513.821 759.783 522.998 736.106 524.839L725.719 524.812 725.719 539.594 841.281 539.594 841.281 518.376Z" stroke="#FFFFFF" stroke-width="1.34375" fill="#03D6DB"/></g></svg>