<svg width="129" height="129" xmlns="http://www.w3.org/2000/svg" xmlns:xlink="http://www.w3.org/1999/xlink" xml:space="preserve" overflow="hidden"><defs><clipPath id="clip0"><rect x="0" y="420" width="129" height="129"/></clipPath></defs><g clip-path="url(#clip0)" transform="matrix(1 0 0 1 0 -420)"><path d="M45.6875 465.607C45.6875 467.893 43.8345 469.746 41.5488 469.746 39.263 469.746 37.41 467.893 37.41 465.607 37.41 463.323 41.5488 457.329 41.5488 457.329 41.5488 457.329 45.6875 463.323 45.6875 465.607Z" stroke="#FFFFFF" stroke-width="1.34375" fill="#003031"/><path d="M54.5025 463.242C54.5025 464.875 53.1789 466.198 51.5462 466.198 49.9136 466.198 48.59 464.875 48.59 463.242 48.59 461.616 51.5462 457.329 51.5462 457.329 51.5462 457.329 54.5025 461.656 54.5025 463.242Z" stroke="#FFFFFF" stroke-width="1.34375" fill="#003031"/><path d="M34.4 463.242C34.5101 464.871 33.2786 466.281 31.6496 466.391 30.0207 466.501 28.611 465.269 28.5009 463.64 28.4919 463.508 28.4919 463.375 28.5009 463.242 28.5009 461.616 31.4438 457.329 31.4438 457.329 31.4438 457.329 34.4 461.656 34.4 463.242Z" stroke="#FFFFFF" stroke-width="1.34375" fill="#003031"/><path d="M61.5975 449.348C61.6093 446.26 59.1163 443.748 56.029 443.736 55.7156 443.735 55.4028 443.76 55.0938 443.811L55.0938 443.731C55.09 439.82 51.9165 436.652 48.0055 436.656 47.2544 436.657 46.5083 436.777 45.795 437.012 43.5555 432.84 38.3583 431.274 34.1866 433.513 31.4584 434.978 29.7319 437.799 29.67 440.895 25.828 440.125 22.0891 442.615 21.319 446.457 20.5489 450.3 23.0391 454.039 26.8812 454.809 27.2205 454.877 27.5642 454.92 27.9097 454.938L56.2763 454.938C59.252 454.781 61.5874 452.327 61.5975 449.348Z" stroke="#FFFFFF" stroke-width="1.34375" fill="#003031"/><path d="M56.8809 506C65.4547 501.551 74.998 499.298 84.6562 499.443L85.2206 499.443C77.9366 493.591 68.9356 490.287 59.5953 490.036 53.3817 490.015 47.2394 491.359 41.6025 493.973 47.4759 496.877 52.6796 500.973 56.8809 506Z" stroke="#FFFFFF" stroke-width="1.34375" fill="#003031"/><path d="M16.8103 520.781C38.2297 519.088 49.3962 511.079 50.1353 510.542 51.1705 509.66 52.2563 508.839 53.3872 508.083 36.8187 488.921 6.71875 491.219 6.71875 491.219L6.71875 521.198Z" stroke="#FFFFFF" stroke-width="1.34375" fill="#003031"/><path d="M117.524 514.613C116.486 513.643 115.381 512.745 114.219 511.926L114.219 496.191C118.772 494.615 121.768 490.257 121.609 485.441 121.609 478.722 113.708 463.699 111.531 463.699 109.354 463.699 101.453 478.776 101.453 485.441 101.294 490.257 104.29 494.615 108.844 496.191L108.844 508.795C103.757 506.358 98.3132 504.747 92.7188 504.025L92.7188 477.459C98.9538 476.115 103.657 469.799 103.657 460.998 103.657 450.973 93.2966 429.406 90.0312 429.406 86.7659 429.406 76.4056 450.973 76.4056 460.998 76.4056 469.799 81.1087 476.061 87.3438 477.459L87.3438 503.541C86.43 503.541 85.5163 503.474 84.6562 503.474 72.0519 503.474 60.3881 507.223 52.7288 513.727 52.5944 513.821 40.7828 522.998 17.1059 524.839L6.71875 524.812 6.71875 539.594 122.281 539.594 122.281 518.376Z" stroke="#FFFFFF" stroke-width="1.34375" fill="#003031"/></g></svg>