<svg width="129" height="129" xmlns="http://www.w3.org/2000/svg" xmlns:xlink="http://www.w3.org/1999/xlink" xml:space="preserve" overflow="hidden"><defs><clipPath id="clip0"><rect x="575" y="420" width="129" height="129"/></clipPath></defs><g clip-path="url(#clip0)" transform="translate(-575 -420)"><path d="M620.688 465.607C620.688 467.893 618.834 469.746 616.549 469.746 614.263 469.746 612.41 467.893 612.41 465.607 612.41 463.323 616.549 457.329 616.549 457.329 616.549 457.329 620.688 463.323 620.688 465.607Z" stroke="#FFFFFF" stroke-width="1.34375" fill="#03C0C5"/><path d="M629.503 463.242C629.503 464.875 628.179 466.198 626.546 466.198 624.914 466.198 623.59 464.875 623.59 463.242 623.59 461.616 626.546 457.329 626.546 457.329 626.546 457.329 629.503 461.656 629.503 463.242Z" stroke="#FFFFFF" stroke-width="1.34375" fill="#03C0C5"/><path d="M609.4 463.242C609.51 464.871 608.279 466.281 606.65 466.391 605.021 466.501 603.611 465.269 603.501 463.64 603.492 463.508 603.492 463.375 603.501 463.242 603.501 461.616 606.444 457.329 606.444 457.329 606.444 457.329 609.4 461.656 609.4 463.242Z" stroke="#FFFFFF" stroke-width="1.34375" fill="#03C0C5"/><path d="M636.597 449.348C636.609 446.26 634.116 443.748 631.029 443.736 630.716 443.735 630.403 443.76 630.094 443.811L630.094 443.731C630.09 439.82 626.916 436.652 623.005 436.656 622.254 436.657 621.508 436.777 620.795 437.012 618.555 432.84 613.358 431.274 609.187 433.513 606.458 434.978 604.732 437.799 604.67 440.895 600.828 440.125 597.089 442.615 596.319 446.457 595.549 450.3 598.039 454.039 601.881 454.809 602.22 454.877 602.564 454.92 602.91 454.938L631.276 454.938C634.252 454.781 636.587 452.327 636.597 449.348Z" stroke="#FFFFFF" stroke-width="1.34375" fill="#03C0C5"/><path d="M631.881 506C640.455 501.551 649.998 499.298 659.656 499.443L660.221 499.443C652.937 493.591 643.936 490.287 634.595 490.036 628.382 490.015 622.239 491.359 616.602 493.973 622.476 496.877 627.68 500.973 631.881 506Z" stroke="#FFFFFF" stroke-width="1.34375" fill="#03C0C5"/><path d="M591.81 520.781C613.23 519.088 624.396 511.079 625.135 510.542 626.171 509.66 627.256 508.839 628.387 508.083 611.819 488.921 581.719 491.219 581.719 491.219L581.719 521.198Z" stroke="#FFFFFF" stroke-width="1.34375" fill="#03C0C5"/><path d="M692.524 514.613C691.486 513.643 690.381 512.745 689.219 511.926L689.219 496.191C693.772 494.615 696.768 490.257 696.609 485.441 696.609 478.722 688.708 463.699 686.531 463.699 684.354 463.699 676.453 478.776 676.453 485.441 676.294 490.257 679.29 494.615 683.844 496.191L683.844 508.795C678.757 506.358 673.313 504.747 667.719 504.025L667.719 477.459C673.954 476.115 678.657 469.799 678.657 460.998 678.657 450.973 668.297 429.406 665.031 429.406 661.766 429.406 651.406 450.973 651.406 460.998 651.406 469.799 656.109 476.061 662.344 477.459L662.344 503.541C661.43 503.541 660.516 503.474 659.656 503.474 647.052 503.474 635.388 507.223 627.729 513.727 627.594 513.821 615.783 522.998 592.106 524.839L581.719 524.812 581.719 539.594 697.281 539.594 697.281 518.376Z" stroke="#FFFFFF" stroke-width="1.34375" fill="#03C0C5"/></g></svg>