<svg width="129" height="129" xmlns="http://www.w3.org/2000/svg" xmlns:xlink="http://www.w3.org/1999/xlink" xml:space="preserve" overflow="hidden"><defs><clipPath id="clip0"><rect x="0" y="0" width="129" height="129"/></clipPath></defs><g clip-path="url(#clip0)"><path d="M45.6875 45.6069C45.6875 47.8926 43.8345 49.7456 41.5488 49.7456 39.263 49.7456 37.41 47.8926 37.41 45.6069 37.41 43.3225 41.5488 37.3294 41.5488 37.3294 41.5488 37.3294 45.6875 43.3225 45.6875 45.6069Z" stroke="#FFFFFF" stroke-width="1.34375" fill="#01324A"/><path d="M54.5025 43.2419C54.5025 44.8745 53.1789 46.1981 51.5462 46.1981 49.9136 46.1981 48.59 44.8745 48.59 43.2419 48.59 41.6159 51.5462 37.3294 51.5462 37.3294 51.5462 37.3294 54.5025 41.6562 54.5025 43.2419Z" stroke="#FFFFFF" stroke-width="1.34375" fill="#01324A"/><path d="M34.4 43.2419C34.5101 44.8709 33.2786 46.2806 31.6496 46.3906 30.0207 46.5006 28.611 45.2692 28.5009 43.6403 28.4919 43.5077 28.4919 43.3745 28.5009 43.2419 28.5009 41.6159 31.4438 37.3294 31.4438 37.3294 31.4438 37.3294 34.4 41.6562 34.4 43.2419Z" stroke="#FFFFFF" stroke-width="1.34375" fill="#01324A"/><path d="M61.5975 29.3475C61.6093 26.2602 59.1163 23.748 56.029 23.7361 55.7156 23.7349 55.4028 23.7601 55.0938 23.8112L55.0938 23.7306C55.09 19.8196 51.9165 16.6522 48.0055 16.6558 47.2544 16.6566 46.5083 16.7767 45.795 17.0119 43.5555 12.8401 38.3583 11.2737 34.1866 13.5132 31.4584 14.9777 29.7319 17.7994 29.67 20.8953 25.828 20.1252 22.0891 22.6154 21.319 26.4575 20.5489 30.2995 23.0391 34.0385 26.8812 34.8086 27.2205 34.8766 27.5642 34.9196 27.9097 34.9375L56.2763 34.9375C59.252 34.7807 61.5874 32.3274 61.5975 29.3475Z" stroke="#FFFFFF" stroke-width="1.34375" fill="#01324A"/><path d="M56.8809 86C65.4547 81.5512 74.998 79.2982 84.6562 79.4425L85.2206 79.4425C77.9366 73.5906 68.9356 70.2867 59.5953 70.0362 53.3817 70.0152 47.2394 71.3592 41.6025 73.9734 47.4759 76.8766 52.6796 80.9726 56.8809 86Z" stroke="#FFFFFF" stroke-width="1.34375" fill="#01324A"/><path d="M16.8103 100.781C38.2297 99.0881 49.3962 91.0794 50.1353 90.5419 51.1705 89.6596 52.2563 88.8385 53.3872 88.0828 36.8187 68.9209 6.71875 71.2188 6.71875 71.2188L6.71875 101.198Z" stroke="#FFFFFF" stroke-width="1.34375" fill="#01324A"/><path d="M117.524 94.6134C116.486 93.6428 115.381 92.7448 114.219 91.9259L114.219 76.1906C118.772 74.6145 121.768 70.2565 121.609 65.4406 121.609 58.7219 113.708 43.6987 111.531 43.6987 109.354 43.6987 101.453 58.7756 101.453 65.4406 101.294 70.2565 104.29 74.6145 108.844 76.1906L108.844 88.795C103.757 86.3577 98.3132 84.7474 92.7188 84.0247L92.7188 57.4587C98.9538 56.115 103.657 49.7994 103.657 40.9978 103.657 30.9734 93.2966 9.40625 90.0312 9.40625 86.7659 9.40625 76.4056 30.9734 76.4056 40.9978 76.4056 49.7994 81.1087 56.0613 87.3438 57.4587L87.3438 83.5409C86.43 83.5409 85.5163 83.4737 84.6562 83.4737 72.0519 83.4737 60.3881 87.2228 52.7288 93.7266 52.5944 93.8206 40.7828 102.998 17.1059 104.839L6.71875 104.812 6.71875 119.594 122.281 119.594 122.281 98.3759Z" stroke="#FFFFFF" stroke-width="1.34375" fill="#01324A"/></g></svg>