<svg width="129" height="129" xmlns="http://www.w3.org/2000/svg" xmlns:xlink="http://www.w3.org/1999/xlink" xml:space="preserve" overflow="hidden"><defs><clipPath id="clip0"><rect x="288" y="420" width="129" height="129"/></clipPath></defs><g clip-path="url(#clip0)" transform="translate(-288 -420)"><path d="M333.688 465.607C333.688 467.893 331.834 469.746 329.549 469.746 327.263 469.746 325.41 467.893 325.41 465.607 325.41 463.323 329.549 457.329 329.549 457.329 329.549 457.329 333.688 463.323 333.688 465.607Z" stroke="#FFFFFF" stroke-width="1.34375" fill="#02787B"/><path d="M342.503 463.242C342.503 464.875 341.179 466.198 339.546 466.198 337.914 466.198 336.59 464.875 336.59 463.242 336.59 461.616 339.546 457.329 339.546 457.329 339.546 457.329 342.503 461.656 342.503 463.242Z" stroke="#FFFFFF" stroke-width="1.34375" fill="#02787B"/><path d="M322.4 463.242C322.51 464.871 321.279 466.281 319.65 466.391 318.021 466.501 316.611 465.269 316.501 463.64 316.492 463.508 316.492 463.375 316.501 463.242 316.501 461.616 319.444 457.329 319.444 457.329 319.444 457.329 322.4 461.656 322.4 463.242Z" stroke="#FFFFFF" stroke-width="1.34375" fill="#02787B"/><path d="M349.598 449.348C349.609 446.26 347.116 443.748 344.029 443.736 343.716 443.735 343.403 443.76 343.094 443.811L343.094 443.731C343.09 439.82 339.916 436.652 336.005 436.656 335.254 436.657 334.508 436.777 333.795 437.012 331.556 432.84 326.358 431.274 322.187 433.513 319.458 434.978 317.732 437.799 317.67 440.895 313.828 440.125 310.089 442.615 309.319 446.457 308.549 450.3 311.039 454.039 314.881 454.809 315.22 454.877 315.564 454.92 315.91 454.938L344.276 454.938C347.252 454.781 349.587 452.327 349.598 449.348Z" stroke="#FFFFFF" stroke-width="1.34375" fill="#02787B"/><path d="M344.881 506C353.455 501.551 362.998 499.298 372.656 499.443L373.221 499.443C365.937 493.591 356.936 490.287 347.595 490.036 341.382 490.015 335.239 491.359 329.603 493.973 335.476 496.877 340.68 500.973 344.881 506Z" stroke="#FFFFFF" stroke-width="1.34375" fill="#02787B"/><path d="M304.81 520.781C326.23 519.088 337.396 511.079 338.135 510.542 339.171 509.66 340.256 508.839 341.387 508.083 324.819 488.921 294.719 491.219 294.719 491.219L294.719 521.198Z" stroke="#FFFFFF" stroke-width="1.34375" fill="#02787B"/><path d="M405.524 514.613C404.486 513.643 403.381 512.745 402.219 511.926L402.219 496.191C406.772 494.615 409.768 490.257 409.609 485.441 409.609 478.722 401.708 463.699 399.531 463.699 397.354 463.699 389.453 478.776 389.453 485.441 389.294 490.257 392.29 494.615 396.844 496.191L396.844 508.795C391.757 506.358 386.313 504.747 380.719 504.025L380.719 477.459C386.954 476.115 391.657 469.799 391.657 460.998 391.657 450.973 381.297 429.406 378.031 429.406 374.766 429.406 364.406 450.973 364.406 460.998 364.406 469.799 369.109 476.061 375.344 477.459L375.344 503.541C374.43 503.541 373.516 503.474 372.656 503.474 360.052 503.474 348.388 507.223 340.729 513.727 340.594 513.821 328.783 522.998 305.106 524.839L294.719 524.812 294.719 539.594 410.281 539.594 410.281 518.376Z" stroke="#FFFFFF" stroke-width="1.34375" fill="#02787B"/></g></svg>