<svg width="129" height="129" xmlns="http://www.w3.org/2000/svg" xmlns:xlink="http://www.w3.org/1999/xlink" xml:space="preserve" overflow="hidden"><defs><clipPath id="clip0"><rect x="432" y="140" width="129" height="129"/></clipPath></defs><g clip-path="url(#clip0)" transform="translate(-432 -140)"><path d="M477.688 185.607C477.688 187.893 475.834 189.746 473.549 189.746 471.263 189.746 469.41 187.893 469.41 185.607 469.41 183.323 473.549 177.329 473.549 177.329 473.549 177.329 477.688 183.323 477.688 185.607Z" stroke="#FFFFFF" stroke-width="1.34375" fill="#56C4FC"/><path d="M486.503 183.242C486.503 184.875 485.179 186.198 483.546 186.198 481.914 186.198 480.59 184.875 480.59 183.242 480.59 181.616 483.546 177.329 483.546 177.329 483.546 177.329 486.503 181.656 486.503 183.242Z" stroke="#FFFFFF" stroke-width="1.34375" fill="#56C4FC"/><path d="M466.4 183.242C466.51 184.871 465.279 186.281 463.65 186.391 462.021 186.501 460.611 185.269 460.501 183.64 460.492 183.508 460.492 183.375 460.501 183.242 460.501 181.616 463.444 177.329 463.444 177.329 463.444 177.329 466.4 181.656 466.4 183.242Z" stroke="#FFFFFF" stroke-width="1.34375" fill="#56C4FC"/><path d="M493.598 169.348C493.609 166.26 491.116 163.748 488.029 163.736 487.716 163.735 487.403 163.76 487.094 163.811L487.094 163.731C487.09 159.82 483.916 156.652 480.005 156.656 479.254 156.657 478.508 156.777 477.795 157.012 475.556 152.84 470.358 151.274 466.187 153.513 463.458 154.978 461.732 157.799 461.67 160.895 457.828 160.125 454.089 162.615 453.319 166.457 452.549 170.3 455.039 174.039 458.881 174.809 459.22 174.877 459.564 174.92 459.91 174.938L488.276 174.938C491.252 174.781 493.587 172.327 493.598 169.348Z" stroke="#FFFFFF" stroke-width="1.34375" fill="#56C4FC"/><path d="M488.881 226C497.455 221.551 506.998 219.298 516.656 219.443L517.221 219.443C509.937 213.591 500.936 210.287 491.595 210.036 485.382 210.015 479.239 211.359 473.603 213.973 479.476 216.877 484.68 220.973 488.881 226Z" stroke="#FFFFFF" stroke-width="1.34375" fill="#56C4FC"/><path d="M448.81 240.781C470.23 239.088 481.396 231.079 482.135 230.542 483.171 229.66 484.256 228.839 485.387 228.083 468.819 208.921 438.719 211.219 438.719 211.219L438.719 241.198Z" stroke="#FFFFFF" stroke-width="1.34375" fill="#56C4FC"/><path d="M549.524 234.613C548.486 233.643 547.381 232.745 546.219 231.926L546.219 216.191C550.772 214.615 553.768 210.257 553.609 205.441 553.609 198.722 545.708 183.699 543.531 183.699 541.354 183.699 533.453 198.776 533.453 205.441 533.294 210.257 536.29 214.615 540.844 216.191L540.844 228.795C535.757 226.358 530.313 224.747 524.719 224.025L524.719 197.459C530.954 196.115 535.657 189.799 535.657 180.998 535.657 170.973 525.297 149.406 522.031 149.406 518.766 149.406 508.406 170.973 508.406 180.998 508.406 189.799 513.109 196.061 519.344 197.459L519.344 223.541C518.43 223.541 517.516 223.474 516.656 223.474 504.052 223.474 492.388 227.223 484.729 233.727 484.594 233.821 472.783 242.998 449.106 244.839L438.719 244.812 438.719 259.594 554.281 259.594 554.281 238.376Z" stroke="#FFFFFF" stroke-width="1.34375" fill="#56C4FC"/></g></svg>