<svg width="129" height="129" xmlns="http://www.w3.org/2000/svg" xmlns:xlink="http://www.w3.org/1999/xlink" xml:space="preserve" overflow="hidden"><defs><clipPath id="clip0"><rect x="0" y="280" width="129" height="129"/></clipPath></defs><g clip-path="url(#clip0)" transform="matrix(1 0 0 1 0 -280)"><path d="M45.6875 325.607C45.6875 327.893 43.8345 329.746 41.5488 329.746 39.263 329.746 37.41 327.893 37.41 325.607 37.41 323.323 41.5488 317.329 41.5488 317.329 41.5488 317.329 45.6875 323.323 45.6875 325.607Z" stroke="#FFFFFF" stroke-width="1.34375" fill="#011369"/><path d="M54.5025 323.242C54.5025 324.875 53.1789 326.198 51.5462 326.198 49.9136 326.198 48.59 324.875 48.59 323.242 48.59 321.616 51.5462 317.329 51.5462 317.329 51.5462 317.329 54.5025 321.656 54.5025 323.242Z" stroke="#FFFFFF" stroke-width="1.34375" fill="#011369"/><path d="M34.4 323.242C34.5101 324.871 33.2786 326.281 31.6496 326.391 30.0207 326.501 28.611 325.269 28.5009 323.64 28.4919 323.508 28.4919 323.375 28.5009 323.242 28.5009 321.616 31.4438 317.329 31.4438 317.329 31.4438 317.329 34.4 321.656 34.4 323.242Z" stroke="#FFFFFF" stroke-width="1.34375" fill="#011369"/><path d="M61.5975 309.348C61.6093 306.26 59.1163 303.748 56.029 303.736 55.7156 303.735 55.4028 303.76 55.0938 303.811L55.0938 303.731C55.09 299.82 51.9165 296.652 48.0055 296.656 47.2544 296.657 46.5083 296.777 45.795 297.012 43.5555 292.84 38.3583 291.274 34.1866 293.513 31.4584 294.978 29.7319 297.799 29.67 300.895 25.828 300.125 22.0891 302.615 21.319 306.457 20.5489 310.3 23.0391 314.039 26.8812 314.809 27.2205 314.877 27.5642 314.92 27.9097 314.938L56.2763 314.938C59.252 314.781 61.5874 312.327 61.5975 309.348Z" stroke="#FFFFFF" stroke-width="1.34375" fill="#011369"/><path d="M56.8809 366C65.4547 361.551 74.998 359.298 84.6562 359.443L85.2206 359.443C77.9366 353.591 68.9356 350.287 59.5953 350.036 53.3817 350.015 47.2394 351.359 41.6025 353.973 47.4759 356.877 52.6796 360.973 56.8809 366Z" stroke="#FFFFFF" stroke-width="1.34375" fill="#011369"/><path d="M16.8103 380.781C38.2297 379.088 49.3962 371.079 50.1353 370.542 51.1705 369.66 52.2563 368.839 53.3872 368.083 36.8187 348.921 6.71875 351.219 6.71875 351.219L6.71875 381.198Z" stroke="#FFFFFF" stroke-width="1.34375" fill="#011369"/><path d="M117.524 374.613C116.486 373.643 115.381 372.745 114.219 371.926L114.219 356.191C118.772 354.615 121.768 350.257 121.609 345.441 121.609 338.722 113.708 323.699 111.531 323.699 109.354 323.699 101.453 338.776 101.453 345.441 101.294 350.257 104.29 354.615 108.844 356.191L108.844 368.795C103.757 366.358 98.3132 364.747 92.7188 364.025L92.7188 337.459C98.9538 336.115 103.657 329.799 103.657 320.998 103.657 310.973 93.2966 289.406 90.0312 289.406 86.7659 289.406 76.4056 310.973 76.4056 320.998 76.4056 329.799 81.1087 336.061 87.3438 337.459L87.3438 363.541C86.43 363.541 85.5163 363.474 84.6562 363.474 72.0519 363.474 60.3881 367.223 52.7288 373.727 52.5944 373.821 40.7828 382.998 17.1059 384.839L6.71875 384.812 6.71875 399.594 122.281 399.594 122.281 378.376Z" stroke="#FFFFFF" stroke-width="1.34375" fill="#011369"/></g></svg>