<svg width="129" height="129" xmlns="http://www.w3.org/2000/svg" xmlns:xlink="http://www.w3.org/1999/xlink" xml:space="preserve" overflow="hidden"><defs><clipPath id="clip0"><rect x="432" y="420" width="129" height="129"/></clipPath></defs><g clip-path="url(#clip0)" transform="translate(-432 -420)"><path d="M477.688 465.607C477.688 467.893 475.834 469.746 473.549 469.746 471.263 469.746 469.41 467.893 469.41 465.607 469.41 463.323 473.549 457.329 473.549 457.329 473.549 457.329 477.688 463.323 477.688 465.607Z" stroke="#FFFFFF" stroke-width="1.34375" fill="#03A7AB"/><path d="M486.503 463.242C486.503 464.875 485.179 466.198 483.546 466.198 481.914 466.198 480.59 464.875 480.59 463.242 480.59 461.616 483.546 457.329 483.546 457.329 483.546 457.329 486.503 461.656 486.503 463.242Z" stroke="#FFFFFF" stroke-width="1.34375" fill="#03A7AB"/><path d="M466.4 463.242C466.51 464.871 465.279 466.281 463.65 466.391 462.021 466.501 460.611 465.269 460.501 463.64 460.492 463.508 460.492 463.375 460.501 463.242 460.501 461.616 463.444 457.329 463.444 457.329 463.444 457.329 466.4 461.656 466.4 463.242Z" stroke="#FFFFFF" stroke-width="1.34375" fill="#03A7AB"/><path d="M493.598 449.348C493.609 446.26 491.116 443.748 488.029 443.736 487.716 443.735 487.403 443.76 487.094 443.811L487.094 443.731C487.09 439.82 483.916 436.652 480.005 436.656 479.254 436.657 478.508 436.777 477.795 437.012 475.556 432.84 470.358 431.274 466.187 433.513 463.458 434.978 461.732 437.799 461.67 440.895 457.828 440.125 454.089 442.615 453.319 446.457 452.549 450.3 455.039 454.039 458.881 454.809 459.22 454.877 459.564 454.92 459.91 454.938L488.276 454.938C491.252 454.781 493.587 452.327 493.598 449.348Z" stroke="#FFFFFF" stroke-width="1.34375" fill="#03A7AB"/><path d="M488.881 506C497.455 501.551 506.998 499.298 516.656 499.443L517.221 499.443C509.937 493.591 500.936 490.287 491.595 490.036 485.382 490.015 479.239 491.359 473.603 493.973 479.476 496.877 484.68 500.973 488.881 506Z" stroke="#FFFFFF" stroke-width="1.34375" fill="#03A7AB"/><path d="M448.81 520.781C470.23 519.088 481.396 511.079 482.135 510.542 483.171 509.66 484.256 508.839 485.387 508.083 468.819 488.921 438.719 491.219 438.719 491.219L438.719 521.198Z" stroke="#FFFFFF" stroke-width="1.34375" fill="#03A7AB"/><path d="M549.524 514.613C548.486 513.643 547.381 512.745 546.219 511.926L546.219 496.191C550.772 494.615 553.768 490.257 553.609 485.441 553.609 478.722 545.708 463.699 543.531 463.699 541.354 463.699 533.453 478.776 533.453 485.441 533.294 490.257 536.29 494.615 540.844 496.191L540.844 508.795C535.757 506.358 530.313 504.747 524.719 504.025L524.719 477.459C530.954 476.115 535.657 469.799 535.657 460.998 535.657 450.973 525.297 429.406 522.031 429.406 518.766 429.406 508.406 450.973 508.406 460.998 508.406 469.799 513.109 476.061 519.344 477.459L519.344 503.541C518.43 503.541 517.516 503.474 516.656 503.474 504.052 503.474 492.388 507.223 484.729 513.727 484.594 513.821 472.783 522.998 449.106 524.839L438.719 524.812 438.719 539.594 554.281 539.594 554.281 518.376Z" stroke="#FFFFFF" stroke-width="1.34375" fill="#03A7AB"/></g></svg>