<svg width="129" height="129" xmlns="http://www.w3.org/2000/svg" xmlns:xlink="http://www.w3.org/1999/xlink" xml:space="preserve" overflow="hidden"><defs><clipPath id="clip0"><rect x="719" y="0" width="129" height="129"/></clipPath></defs><g clip-path="url(#clip0)" transform="translate(-719 0)"><path d="M764.688 45.6069C764.688 47.8926 762.834 49.7456 760.549 49.7456 758.263 49.7456 756.41 47.8926 756.41 45.6069 756.41 43.3225 760.549 37.3294 760.549 37.3294 760.549 37.3294 764.688 43.3225 764.688 45.6069Z" stroke="#FFFFFF" stroke-width="1.34375" fill="#77B9DA"/><path d="M773.503 43.2419C773.503 44.8745 772.179 46.1981 770.546 46.1981 768.914 46.1981 767.59 44.8745 767.59 43.2419 767.59 41.6159 770.546 37.3294 770.546 37.3294 770.546 37.3294 773.503 41.6562 773.503 43.2419Z" stroke="#FFFFFF" stroke-width="1.34375" fill="#77B9DA"/><path d="M753.4 43.2419C753.51 44.8709 752.279 46.2806 750.65 46.3906 749.021 46.5006 747.611 45.2692 747.501 43.6403 747.492 43.5077 747.492 43.3745 747.501 43.2419 747.501 41.6159 750.444 37.3294 750.444 37.3294 750.444 37.3294 753.4 41.6562 753.4 43.2419Z" stroke="#FFFFFF" stroke-width="1.34375" fill="#77B9DA"/><path d="M780.597 29.3475C780.609 26.2602 778.116 23.748 775.029 23.7361 774.716 23.7349 774.403 23.7601 774.094 23.8112L774.094 23.7306C774.09 19.8196 770.916 16.6522 767.005 16.6558 766.254 16.6566 765.508 16.7767 764.795 17.0119 762.555 12.8401 757.358 11.2737 753.187 13.5132 750.458 14.9777 748.732 17.7994 748.67 20.8953 744.828 20.1252 741.089 22.6154 740.319 26.4575 739.549 30.2995 742.039 34.0385 745.881 34.8086 746.22 34.8766 746.564 34.9196 746.91 34.9375L775.276 34.9375C778.252 34.7807 780.587 32.3274 780.597 29.3475Z" stroke="#FFFFFF" stroke-width="1.34375" fill="#77B9DA"/><path d="M775.881 86C784.455 81.5512 793.998 79.2982 803.656 79.4425L804.221 79.4425C796.937 73.5906 787.936 70.2867 778.595 70.0362 772.382 70.0152 766.239 71.3592 760.602 73.9734 766.476 76.8766 771.68 80.9726 775.881 86Z" stroke="#FFFFFF" stroke-width="1.34375" fill="#77B9DA"/><path d="M735.81 100.781C757.23 99.0881 768.396 91.0794 769.135 90.5419 770.171 89.6596 771.256 88.8385 772.387 88.0828 755.819 68.9209 725.719 71.2188 725.719 71.2188L725.719 101.198Z" stroke="#FFFFFF" stroke-width="1.34375" fill="#77B9DA"/><path d="M836.524 94.6134C835.486 93.6428 834.381 92.7448 833.219 91.9259L833.219 76.1906C837.772 74.6145 840.768 70.2565 840.609 65.4406 840.609 58.7219 832.708 43.6987 830.531 43.6987 828.354 43.6987 820.453 58.7756 820.453 65.4406 820.294 70.2565 823.29 74.6145 827.844 76.1906L827.844 88.795C822.757 86.3577 817.313 84.7474 811.719 84.0247L811.719 57.4587C817.954 56.115 822.657 49.7994 822.657 40.9978 822.657 30.9734 812.297 9.40625 809.031 9.40625 805.766 9.40625 795.406 30.9734 795.406 40.9978 795.406 49.7994 800.109 56.0613 806.344 57.4587L806.344 83.5409C805.43 83.5409 804.516 83.4737 803.656 83.4737 791.052 83.4737 779.388 87.2228 771.729 93.7266 771.594 93.8206 759.783 102.998 736.106 104.839L725.719 104.812 725.719 119.594 841.281 119.594 841.281 98.3759Z" stroke="#FFFFFF" stroke-width="1.34375" fill="#77B9DA"/></g></svg>