<svg width="129" height="129" xmlns="http://www.w3.org/2000/svg" xmlns:xlink="http://www.w3.org/1999/xlink" xml:space="preserve" overflow="hidden"><defs><clipPath id="clip0"><rect x="432" y="0" width="129" height="129"/></clipPath></defs><g clip-path="url(#clip0)" transform="translate(-432 0)"><path d="M477.688 45.6069C477.688 47.8926 475.834 49.7456 473.549 49.7456 471.263 49.7456 469.41 47.8926 469.41 45.6069 469.41 43.3225 473.549 37.3294 473.549 37.3294 473.549 37.3294 477.688 43.3225 477.688 45.6069Z" stroke="#FFFFFF" stroke-width="1.34375" fill="#1C8AC0"/><path d="M486.503 43.2419C486.503 44.8745 485.179 46.1981 483.546 46.1981 481.914 46.1981 480.59 44.8745 480.59 43.2419 480.59 41.6159 483.546 37.3294 483.546 37.3294 483.546 37.3294 486.503 41.6562 486.503 43.2419Z" stroke="#FFFFFF" stroke-width="1.34375" fill="#1C8AC0"/><path d="M466.4 43.2419C466.51 44.8709 465.279 46.2806 463.65 46.3906 462.021 46.5006 460.611 45.2692 460.501 43.6403 460.492 43.5077 460.492 43.3745 460.501 43.2419 460.501 41.6159 463.444 37.3294 463.444 37.3294 463.444 37.3294 466.4 41.6562 466.4 43.2419Z" stroke="#FFFFFF" stroke-width="1.34375" fill="#1C8AC0"/><path d="M493.598 29.3475C493.609 26.2602 491.116 23.748 488.029 23.7361 487.716 23.7349 487.403 23.7601 487.094 23.8112L487.094 23.7306C487.09 19.8196 483.916 16.6522 480.005 16.6558 479.254 16.6566 478.508 16.7767 477.795 17.0119 475.556 12.8401 470.358 11.2737 466.187 13.5132 463.458 14.9777 461.732 17.7994 461.67 20.8953 457.828 20.1252 454.089 22.6154 453.319 26.4575 452.549 30.2995 455.039 34.0385 458.881 34.8086 459.22 34.8766 459.564 34.9196 459.91 34.9375L488.276 34.9375C491.252 34.7807 493.587 32.3274 493.598 29.3475Z" stroke="#FFFFFF" stroke-width="1.34375" fill="#1C8AC0"/><path d="M488.881 86C497.455 81.5512 506.998 79.2982 516.656 79.4425L517.221 79.4425C509.937 73.5906 500.936 70.2867 491.595 70.0362 485.382 70.0152 479.239 71.3592 473.603 73.9734 479.476 76.8766 484.68 80.9726 488.881 86Z" stroke="#FFFFFF" stroke-width="1.34375" fill="#1C8AC0"/><path d="M448.81 100.781C470.23 99.0881 481.396 91.0794 482.135 90.5419 483.171 89.6596 484.256 88.8385 485.387 88.0828 468.819 68.9209 438.719 71.2188 438.719 71.2188L438.719 101.198Z" stroke="#FFFFFF" stroke-width="1.34375" fill="#1C8AC0"/><path d="M549.524 94.6134C548.486 93.6428 547.381 92.7448 546.219 91.9259L546.219 76.1906C550.772 74.6145 553.768 70.2565 553.609 65.4406 553.609 58.7219 545.708 43.6987 543.531 43.6987 541.354 43.6987 533.453 58.7756 533.453 65.4406 533.294 70.2565 536.29 74.6145 540.844 76.1906L540.844 88.795C535.757 86.3577 530.313 84.7474 524.719 84.0247L524.719 57.4587C530.954 56.115 535.657 49.7994 535.657 40.9978 535.657 30.9734 525.297 9.40625 522.031 9.40625 518.766 9.40625 508.406 30.9734 508.406 40.9978 508.406 49.7994 513.109 56.0613 519.344 57.4587L519.344 83.5409C518.43 83.5409 517.516 83.4737 516.656 83.4737 504.052 83.4737 492.388 87.2228 484.729 93.7266 484.594 93.8206 472.783 102.998 449.106 104.839L438.719 104.812 438.719 119.594 554.281 119.594 554.281 98.3759Z" stroke="#FFFFFF" stroke-width="1.34375" fill="#1C8AC0"/></g></svg>