<svg width="129" height="129" xmlns="http://www.w3.org/2000/svg" xmlns:xlink="http://www.w3.org/1999/xlink" xml:space="preserve" overflow="hidden"><defs><clipPath id="clip0"><rect x="863" y="420" width="129" height="129"/></clipPath></defs><g clip-path="url(#clip0)" transform="translate(-863 -420)"><path d="M908.688 465.607C908.688 467.893 906.834 469.746 904.549 469.746 902.263 469.746 900.41 467.893 900.41 465.607 900.41 463.323 904.549 457.329 904.549 457.329 904.549 457.329 908.688 463.323 908.688 465.607Z" stroke="#FFFFFF" stroke-width="1.34375" fill="#4AF8FC"/><path d="M917.503 463.242C917.503 464.875 916.179 466.198 914.546 466.198 912.914 466.198 911.59 464.875 911.59 463.242 911.59 461.616 914.546 457.329 914.546 457.329 914.546 457.329 917.503 461.656 917.503 463.242Z" stroke="#FFFFFF" stroke-width="1.34375" fill="#4AF8FC"/><path d="M897.4 463.242C897.51 464.871 896.279 466.281 894.65 466.391 893.021 466.501 891.611 465.269 891.501 463.64 891.492 463.508 891.492 463.375 891.501 463.242 891.501 461.616 894.444 457.329 894.444 457.329 894.444 457.329 897.4 461.656 897.4 463.242Z" stroke="#FFFFFF" stroke-width="1.34375" fill="#4AF8FC"/><path d="M924.597 449.348C924.609 446.26 922.116 443.748 919.029 443.736 918.716 443.735 918.403 443.76 918.094 443.811L918.094 443.731C918.09 439.82 914.916 436.652 911.005 436.656 910.254 436.657 909.508 436.777 908.795 437.012 906.555 432.84 901.358 431.274 897.187 433.513 894.458 434.978 892.732 437.799 892.67 440.895 888.828 440.125 885.089 442.615 884.319 446.457 883.549 450.3 886.039 454.039 889.881 454.809 890.22 454.877 890.564 454.92 890.91 454.938L919.276 454.938C922.252 454.781 924.587 452.327 924.597 449.348Z" stroke="#FFFFFF" stroke-width="1.34375" fill="#4AF8FC"/><path d="M919.881 506C928.455 501.551 937.998 499.298 947.656 499.443L948.221 499.443C940.937 493.591 931.936 490.287 922.595 490.036 916.382 490.015 910.239 491.359 904.602 493.973 910.476 496.877 915.68 500.973 919.881 506Z" stroke="#FFFFFF" stroke-width="1.34375" fill="#4AF8FC"/><path d="M879.81 520.781C901.23 519.088 912.396 511.079 913.135 510.542 914.171 509.66 915.256 508.839 916.387 508.083 899.819 488.921 869.719 491.219 869.719 491.219L869.719 521.198Z" stroke="#FFFFFF" stroke-width="1.34375" fill="#4AF8FC"/><path d="M980.524 514.613C979.486 513.643 978.381 512.745 977.219 511.926L977.219 496.191C981.772 494.615 984.768 490.257 984.609 485.441 984.609 478.722 976.708 463.699 974.531 463.699 972.354 463.699 964.453 478.776 964.453 485.441 964.294 490.257 967.29 494.615 971.844 496.191L971.844 508.795C966.757 506.358 961.313 504.747 955.719 504.025L955.719 477.459C961.954 476.115 966.657 469.799 966.657 460.998 966.657 450.973 956.297 429.406 953.031 429.406 949.766 429.406 939.406 450.973 939.406 460.998 939.406 469.799 944.109 476.061 950.344 477.459L950.344 503.541C949.43 503.541 948.516 503.474 947.656 503.474 935.052 503.474 923.388 507.223 915.729 513.727 915.594 513.821 903.783 522.998 880.106 524.839L869.719 524.812 869.719 539.594 985.281 539.594 985.281 518.376Z" stroke="#FFFFFF" stroke-width="1.34375" fill="#4AF8FC"/></g></svg>