<svg width="129" height="129" xmlns="http://www.w3.org/2000/svg" xmlns:xlink="http://www.w3.org/1999/xlink" xml:space="preserve" overflow="hidden"><defs><clipPath id="clip0"><rect x="144" y="140" width="129" height="129"/></clipPath></defs><g clip-path="url(#clip0)" transform="translate(-144 -140)"><path d="M189.688 185.607C189.688 187.893 187.834 189.746 185.549 189.746 183.263 189.746 181.41 187.893 181.41 185.607 181.41 183.323 185.549 177.329 185.549 177.329 185.549 177.329 189.688 183.323 189.688 185.607Z" stroke="#FFFFFF" stroke-width="1.34375" fill="#036CA1"/><path d="M198.503 183.242C198.503 184.875 197.179 186.198 195.546 186.198 193.914 186.198 192.59 184.875 192.59 183.242 192.59 181.616 195.546 177.329 195.546 177.329 195.546 177.329 198.503 181.656 198.503 183.242Z" stroke="#FFFFFF" stroke-width="1.34375" fill="#036CA1"/><path d="M178.4 183.242C178.51 184.871 177.279 186.281 175.65 186.391 174.021 186.501 172.611 185.269 172.501 183.64 172.492 183.508 172.492 183.375 172.501 183.242 172.501 181.616 175.444 177.329 175.444 177.329 175.444 177.329 178.4 181.656 178.4 183.242Z" stroke="#FFFFFF" stroke-width="1.34375" fill="#036CA1"/><path d="M205.598 169.348C205.609 166.26 203.116 163.748 200.029 163.736 199.716 163.735 199.403 163.76 199.094 163.811L199.094 163.731C199.09 159.82 195.916 156.652 192.005 156.656 191.254 156.657 190.508 156.777 189.795 157.012 187.556 152.84 182.358 151.274 178.187 153.513 175.458 154.978 173.732 157.799 173.67 160.895 169.828 160.125 166.089 162.615 165.319 166.457 164.549 170.3 167.039 174.039 170.881 174.809 171.22 174.877 171.564 174.92 171.91 174.938L200.276 174.938C203.252 174.781 205.587 172.327 205.598 169.348Z" stroke="#FFFFFF" stroke-width="1.34375" fill="#036CA1"/><path d="M200.881 226C209.455 221.551 218.998 219.298 228.656 219.443L229.221 219.443C221.937 213.591 212.936 210.287 203.595 210.036 197.382 210.015 191.239 211.359 185.602 213.973 191.476 216.877 196.68 220.973 200.881 226Z" stroke="#FFFFFF" stroke-width="1.34375" fill="#036CA1"/><path d="M160.81 240.781C182.23 239.088 193.396 231.079 194.135 230.542 195.171 229.66 196.256 228.839 197.387 228.083 180.819 208.921 150.719 211.219 150.719 211.219L150.719 241.198Z" stroke="#FFFFFF" stroke-width="1.34375" fill="#036CA1"/><path d="M261.524 234.613C260.486 233.643 259.381 232.745 258.219 231.926L258.219 216.191C262.772 214.615 265.768 210.257 265.609 205.441 265.609 198.722 257.708 183.699 255.531 183.699 253.354 183.699 245.453 198.776 245.453 205.441 245.294 210.257 248.29 214.615 252.844 216.191L252.844 228.795C247.757 226.358 242.313 224.747 236.719 224.025L236.719 197.459C242.954 196.115 247.657 189.799 247.657 180.998 247.657 170.973 237.297 149.406 234.031 149.406 230.766 149.406 220.406 170.973 220.406 180.998 220.406 189.799 225.109 196.061 231.344 197.459L231.344 223.541C230.43 223.541 229.516 223.474 228.656 223.474 216.052 223.474 204.388 227.223 196.729 233.727 196.594 233.821 184.783 242.998 161.106 244.839L150.719 244.812 150.719 259.594 266.281 259.594 266.281 238.376Z" stroke="#FFFFFF" stroke-width="1.34375" fill="#036CA1"/></g></svg>