<svg width="129" height="129" xmlns="http://www.w3.org/2000/svg" xmlns:xlink="http://www.w3.org/1999/xlink" xml:space="preserve" overflow="hidden"><defs><clipPath id="clip0"><rect x="719" y="280" width="129" height="129"/></clipPath></defs><g clip-path="url(#clip0)" transform="translate(-719 -280)"><path d="M764.688 325.607C764.688 327.893 762.834 329.746 760.549 329.746 758.263 329.746 756.41 327.893 756.41 325.607 756.41 323.323 760.549 317.329 760.549 317.329 760.549 317.329 764.688 323.323 764.688 325.607Z" stroke="#FFFFFF" stroke-width="1.34375" fill="#677CE4"/><path d="M773.503 323.242C773.503 324.875 772.179 326.198 770.546 326.198 768.914 326.198 767.59 324.875 767.59 323.242 767.59 321.616 770.546 317.329 770.546 317.329 770.546 317.329 773.503 321.656 773.503 323.242Z" stroke="#FFFFFF" stroke-width="1.34375" fill="#677CE4"/><path d="M753.4 323.242C753.51 324.871 752.279 326.281 750.65 326.391 749.021 326.501 747.611 325.269 747.501 323.64 747.492 323.508 747.492 323.375 747.501 323.242 747.501 321.616 750.444 317.329 750.444 317.329 750.444 317.329 753.4 321.656 753.4 323.242Z" stroke="#FFFFFF" stroke-width="1.34375" fill="#677CE4"/><path d="M780.597 309.348C780.609 306.26 778.116 303.748 775.029 303.736 774.716 303.735 774.403 303.76 774.094 303.811L774.094 303.731C774.09 299.82 770.916 296.652 767.005 296.656 766.254 296.657 765.508 296.777 764.795 297.012 762.555 292.84 757.358 291.274 753.187 293.513 750.458 294.978 748.732 297.799 748.67 300.895 744.828 300.125 741.089 302.615 740.319 306.457 739.549 310.3 742.039 314.039 745.881 314.809 746.22 314.877 746.564 314.92 746.91 314.938L775.276 314.938C778.252 314.781 780.587 312.327 780.597 309.348Z" stroke="#FFFFFF" stroke-width="1.34375" fill="#677CE4"/><path d="M775.881 366C784.455 361.551 793.998 359.298 803.656 359.443L804.221 359.443C796.937 353.591 787.936 350.287 778.595 350.036 772.382 350.015 766.239 351.359 760.602 353.973 766.476 356.877 771.68 360.973 775.881 366Z" stroke="#FFFFFF" stroke-width="1.34375" fill="#677CE4"/><path d="M735.81 380.781C757.23 379.088 768.396 371.079 769.135 370.542 770.171 369.66 771.256 368.839 772.387 368.083 755.819 348.921 725.719 351.219 725.719 351.219L725.719 381.198Z" stroke="#FFFFFF" stroke-width="1.34375" fill="#677CE4"/><path d="M836.524 374.613C835.486 373.643 834.381 372.745 833.219 371.926L833.219 356.191C837.772 354.615 840.768 350.257 840.609 345.441 840.609 338.722 832.708 323.699 830.531 323.699 828.354 323.699 820.453 338.776 820.453 345.441 820.294 350.257 823.29 354.615 827.844 356.191L827.844 368.795C822.757 366.358 817.313 364.747 811.719 364.025L811.719 337.459C817.954 336.115 822.657 329.799 822.657 320.998 822.657 310.973 812.297 289.406 809.031 289.406 805.766 289.406 795.406 310.973 795.406 320.998 795.406 329.799 800.109 336.061 806.344 337.459L806.344 363.541C805.43 363.541 804.516 363.474 803.656 363.474 791.052 363.474 779.388 367.223 771.729 373.727 771.594 373.821 759.783 382.998 736.106 384.839L725.719 384.812 725.719 399.594 841.281 399.594 841.281 378.376Z" stroke="#FFFFFF" stroke-width="1.34375" fill="#677CE4"/></g></svg>