<svg width="129" height="129" xmlns="http://www.w3.org/2000/svg" xmlns:xlink="http://www.w3.org/1999/xlink" xml:space="preserve" overflow="hidden"><defs><clipPath id="clip0"><rect x="144" y="280" width="129" height="129"/></clipPath></defs><g clip-path="url(#clip0)" transform="translate(-144 -280)"><path d="M189.688 325.607C189.688 327.893 187.834 329.746 185.549 329.746 183.263 329.746 181.41 327.893 181.41 325.607 181.41 323.323 185.549 317.329 185.549 317.329 185.549 317.329 189.688 323.323 189.688 325.607Z" stroke="#FFFFFF" stroke-width="1.34375" fill="#021A93"/><path d="M198.503 323.242C198.503 324.875 197.179 326.198 195.546 326.198 193.914 326.198 192.59 324.875 192.59 323.242 192.59 321.616 195.546 317.329 195.546 317.329 195.546 317.329 198.503 321.656 198.503 323.242Z" stroke="#FFFFFF" stroke-width="1.34375" fill="#021A93"/><path d="M178.4 323.242C178.51 324.871 177.279 326.281 175.65 326.391 174.021 326.501 172.611 325.269 172.501 323.64 172.492 323.508 172.492 323.375 172.501 323.242 172.501 321.616 175.444 317.329 175.444 317.329 175.444 317.329 178.4 321.656 178.4 323.242Z" stroke="#FFFFFF" stroke-width="1.34375" fill="#021A93"/><path d="M205.598 309.348C205.609 306.26 203.116 303.748 200.029 303.736 199.716 303.735 199.403 303.76 199.094 303.811L199.094 303.731C199.09 299.82 195.916 296.652 192.005 296.656 191.254 296.657 190.508 296.777 189.795 297.012 187.556 292.84 182.358 291.274 178.187 293.513 175.458 294.978 173.732 297.799 173.67 300.895 169.828 300.125 166.089 302.615 165.319 306.457 164.549 310.3 167.039 314.039 170.881 314.809 171.22 314.877 171.564 314.92 171.91 314.938L200.276 314.938C203.252 314.781 205.587 312.327 205.598 309.348Z" stroke="#FFFFFF" stroke-width="1.34375" fill="#021A93"/><path d="M200.881 366C209.455 361.551 218.998 359.298 228.656 359.443L229.221 359.443C221.937 353.591 212.936 350.287 203.595 350.036 197.382 350.015 191.239 351.359 185.602 353.973 191.476 356.877 196.68 360.973 200.881 366Z" stroke="#FFFFFF" stroke-width="1.34375" fill="#021A93"/><path d="M160.81 380.781C182.23 379.088 193.396 371.079 194.135 370.542 195.171 369.66 196.256 368.839 197.387 368.083 180.819 348.921 150.719 351.219 150.719 351.219L150.719 381.198Z" stroke="#FFFFFF" stroke-width="1.34375" fill="#021A93"/><path d="M261.524 374.613C260.486 373.643 259.381 372.745 258.219 371.926L258.219 356.191C262.772 354.615 265.768 350.257 265.609 345.441 265.609 338.722 257.708 323.699 255.531 323.699 253.354 323.699 245.453 338.776 245.453 345.441 245.294 350.257 248.29 354.615 252.844 356.191L252.844 368.795C247.757 366.358 242.313 364.747 236.719 364.025L236.719 337.459C242.954 336.115 247.657 329.799 247.657 320.998 247.657 310.973 237.297 289.406 234.031 289.406 230.766 289.406 220.406 310.973 220.406 320.998 220.406 329.799 225.109 336.061 231.344 337.459L231.344 363.541C230.43 363.541 229.516 363.474 228.656 363.474 216.052 363.474 204.388 367.223 196.729 373.727 196.594 373.821 184.783 382.998 161.106 384.839L150.719 384.812 150.719 399.594 266.281 399.594 266.281 378.376Z" stroke="#FFFFFF" stroke-width="1.34375" fill="#021A93"/></g></svg>