<svg width="129" height="129" xmlns="http://www.w3.org/2000/svg" xmlns:xlink="http://www.w3.org/1999/xlink" xml:space="preserve" overflow="hidden"><defs><clipPath id="clip0"><rect x="432" y="280" width="129" height="129"/></clipPath></defs><g clip-path="url(#clip0)" transform="translate(-432 -280)"><path d="M477.688 325.607C477.688 327.893 475.834 329.746 473.549 329.746 471.263 329.746 469.41 327.893 469.41 325.607 469.41 323.323 473.549 317.329 473.549 317.329 473.549 317.329 477.688 323.323 477.688 325.607Z" stroke="#FFFFFF" stroke-width="1.34375" fill="#0222BD"/><path d="M486.503 323.242C486.503 324.875 485.179 326.198 483.546 326.198 481.914 326.198 480.59 324.875 480.59 323.242 480.59 321.616 483.546 317.329 483.546 317.329 483.546 317.329 486.503 321.656 486.503 323.242Z" stroke="#FFFFFF" stroke-width="1.34375" fill="#0222BD"/><path d="M466.4 323.242C466.51 324.871 465.279 326.281 463.65 326.391 462.021 326.501 460.611 325.269 460.501 323.64 460.492 323.508 460.492 323.375 460.501 323.242 460.501 321.616 463.444 317.329 463.444 317.329 463.444 317.329 466.4 321.656 466.4 323.242Z" stroke="#FFFFFF" stroke-width="1.34375" fill="#0222BD"/><path d="M493.598 309.348C493.609 306.26 491.116 303.748 488.029 303.736 487.716 303.735 487.403 303.76 487.094 303.811L487.094 303.731C487.09 299.82 483.916 296.652 480.005 296.656 479.254 296.657 478.508 296.777 477.795 297.012 475.556 292.84 470.358 291.274 466.187 293.513 463.458 294.978 461.732 297.799 461.67 300.895 457.828 300.125 454.089 302.615 453.319 306.457 452.549 310.3 455.039 314.039 458.881 314.809 459.22 314.877 459.564 314.92 459.91 314.938L488.276 314.938C491.252 314.781 493.587 312.327 493.598 309.348Z" stroke="#FFFFFF" stroke-width="1.34375" fill="#0222BD"/><path d="M488.881 366C497.455 361.551 506.998 359.298 516.656 359.443L517.221 359.443C509.937 353.591 500.936 350.287 491.595 350.036 485.382 350.015 479.239 351.359 473.603 353.973 479.476 356.877 484.68 360.973 488.881 366Z" stroke="#FFFFFF" stroke-width="1.34375" fill="#0222BD"/><path d="M448.81 380.781C470.23 379.088 481.396 371.079 482.135 370.542 483.171 369.66 484.256 368.839 485.387 368.083 468.819 348.921 438.719 351.219 438.719 351.219L438.719 381.198Z" stroke="#FFFFFF" stroke-width="1.34375" fill="#0222BD"/><path d="M549.524 374.613C548.486 373.643 547.381 372.745 546.219 371.926L546.219 356.191C550.772 354.615 553.768 350.257 553.609 345.441 553.609 338.722 545.708 323.699 543.531 323.699 541.354 323.699 533.453 338.776 533.453 345.441 533.294 350.257 536.29 354.615 540.844 356.191L540.844 368.795C535.757 366.358 530.313 364.747 524.719 364.025L524.719 337.459C530.954 336.115 535.657 329.799 535.657 320.998 535.657 310.973 525.297 289.406 522.031 289.406 518.766 289.406 508.406 310.973 508.406 320.998 508.406 329.799 513.109 336.061 519.344 337.459L519.344 363.541C518.43 363.541 517.516 363.474 516.656 363.474 504.052 363.474 492.388 367.223 484.729 373.727 484.594 373.821 472.783 382.998 449.106 384.839L438.719 384.812 438.719 399.594 554.281 399.594 554.281 378.376Z" stroke="#FFFFFF" stroke-width="1.34375" fill="#0222BD"/></g></svg>