<svg width="129" height="129" xmlns="http://www.w3.org/2000/svg" xmlns:xlink="http://www.w3.org/1999/xlink" xml:space="preserve" overflow="hidden"><defs><clipPath id="clip0"><rect x="144" y="0" width="129" height="129"/></clipPath></defs><g clip-path="url(#clip0)" transform="translate(-144 0)"><path d="M189.688 45.6069C189.688 47.8926 187.834 49.7456 185.549 49.7456 183.263 49.7456 181.41 47.8926 181.41 45.6069 181.41 43.3225 185.549 37.3294 185.549 37.3294 185.549 37.3294 189.688 43.3225 189.688 45.6069Z" stroke="#FFFFFF" stroke-width="1.34375" fill="#016191"/><path d="M198.503 43.2419C198.503 44.8745 197.179 46.1981 195.546 46.1981 193.914 46.1981 192.59 44.8745 192.59 43.2419 192.59 41.6159 195.546 37.3294 195.546 37.3294 195.546 37.3294 198.503 41.6562 198.503 43.2419Z" stroke="#FFFFFF" stroke-width="1.34375" fill="#016191"/><path d="M178.4 43.2419C178.51 44.8709 177.279 46.2806 175.65 46.3906 174.021 46.5006 172.611 45.2692 172.501 43.6403 172.492 43.5077 172.492 43.3745 172.501 43.2419 172.501 41.6159 175.444 37.3294 175.444 37.3294 175.444 37.3294 178.4 41.6562 178.4 43.2419Z" stroke="#FFFFFF" stroke-width="1.34375" fill="#016191"/><path d="M205.598 29.3475C205.609 26.2602 203.116 23.748 200.029 23.7361 199.716 23.7349 199.403 23.7601 199.094 23.8112L199.094 23.7306C199.09 19.8196 195.916 16.6522 192.005 16.6558 191.254 16.6566 190.508 16.7767 189.795 17.0119 187.556 12.8401 182.358 11.2737 178.187 13.5132 175.458 14.9777 173.732 17.7994 173.67 20.8953 169.828 20.1252 166.089 22.6154 165.319 26.4575 164.549 30.2995 167.039 34.0385 170.881 34.8086 171.22 34.8766 171.564 34.9196 171.91 34.9375L200.276 34.9375C203.252 34.7807 205.587 32.3274 205.598 29.3475Z" stroke="#FFFFFF" stroke-width="1.34375" fill="#016191"/><path d="M200.881 86C209.455 81.5512 218.998 79.2982 228.656 79.4425L229.221 79.4425C221.937 73.5906 212.936 70.2867 203.595 70.0362 197.382 70.0152 191.239 71.3592 185.602 73.9734 191.476 76.8766 196.68 80.9726 200.881 86Z" stroke="#FFFFFF" stroke-width="1.34375" fill="#016191"/><path d="M160.81 100.781C182.23 99.0881 193.396 91.0794 194.135 90.5419 195.171 89.6596 196.256 88.8385 197.387 88.0828 180.819 68.9209 150.719 71.2188 150.719 71.2188L150.719 101.198Z" stroke="#FFFFFF" stroke-width="1.34375" fill="#016191"/><path d="M261.524 94.6134C260.486 93.6428 259.381 92.7448 258.219 91.9259L258.219 76.1906C262.772 74.6145 265.768 70.2565 265.609 65.4406 265.609 58.7219 257.708 43.6987 255.531 43.6987 253.354 43.6987 245.453 58.7756 245.453 65.4406 245.294 70.2565 248.29 74.6145 252.844 76.1906L252.844 88.795C247.757 86.3577 242.313 84.7474 236.719 84.0247L236.719 57.4587C242.954 56.115 247.657 49.7994 247.657 40.9978 247.657 30.9734 237.297 9.40625 234.031 9.40625 230.766 9.40625 220.406 30.9734 220.406 40.9978 220.406 49.7994 225.109 56.0613 231.344 57.4587L231.344 83.5409C230.43 83.5409 229.516 83.4737 228.656 83.4737 216.052 83.4737 204.388 87.2228 196.729 93.7266 196.594 93.8206 184.783 102.998 161.106 104.839L150.719 104.812 150.719 119.594 266.281 119.594 266.281 98.3759Z" stroke="#FFFFFF" stroke-width="1.34375" fill="#016191"/></g></svg>