<svg xmlns="http://www.w3.org/2000/svg" xmlns:xlink="http://www.w3.org/1999/xlink" width="129" height="129" overflow="hidden" xml:space="preserve"><defs><clipPath id="clip0"><rect width="129" height="129" x="288" y="140"/></clipPath></defs><g clip-path="url(#clip0)" transform="translate(-288 -140)"><path fill="#0EACFB" stroke="#FFF" stroke-width="1.344" d="M333.688 185.607C333.688 187.893 331.834 189.746 329.549 189.746 327.263 189.746 325.41 187.893 325.41 185.607 325.41 183.323 329.549 177.329 329.549 177.329 329.549 177.329 333.688 183.323 333.688 185.607Z"/><path fill="#0EACFB" stroke="#FFF" stroke-width="1.344" d="M342.503 183.242C342.503 184.875 341.179 186.198 339.546 186.198 337.914 186.198 336.59 184.875 336.59 183.242 336.59 181.616 339.546 177.329 339.546 177.329 339.546 177.329 342.503 181.656 342.503 183.242Z"/><path fill="#0EACFB" stroke="#FFF" stroke-width="1.344" d="M322.4 183.242C322.51 184.871 321.279 186.281 319.65 186.391 318.021 186.501 316.611 185.269 316.501 183.64 316.492 183.508 316.492 183.375 316.501 183.242 316.501 181.616 319.444 177.329 319.444 177.329 319.444 177.329 322.4 181.656 322.4 183.242Z"/><path fill="#0EACFB" stroke="#FFF" stroke-width="1.344" d="M349.598 169.348C349.609 166.26 347.116 163.748 344.029 163.736 343.716 163.735 343.403 163.76 343.094 163.811L343.094 163.731C343.09 159.82 339.916 156.652 336.005 156.656 335.254 156.657 334.508 156.777 333.795 157.012 331.556 152.84 326.358 151.274 322.187 153.513 319.458 154.978 317.732 157.799 317.67 160.895 313.828 160.125 310.089 162.615 309.319 166.457 308.549 170.3 311.039 174.039 314.881 174.809 315.22 174.877 315.564 174.92 315.91 174.938L344.276 174.938C347.252 174.781 349.587 172.327 349.598 169.348Z"/><path fill="#0EACFB" stroke="#FFF" stroke-width="1.344" d="M344.881 226C353.455 221.551 362.998 219.298 372.656 219.443L373.221 219.443C365.937 213.591 356.936 210.287 347.595 210.036 341.382 210.015 335.239 211.359 329.603 213.973 335.476 216.877 340.68 220.973 344.881 226Z"/><path fill="#0EACFB" stroke="#FFF" stroke-width="1.344" d="M304.81 240.781C326.23 239.088 337.396 231.079 338.135 230.542 339.171 229.66 340.256 228.839 341.387 228.083 324.819 208.921 294.719 211.219 294.719 211.219L294.719 241.198Z"/><path fill="#0EACFB" stroke="#FFF" stroke-width="1.344" d="M405.524 234.613C404.486 233.643 403.381 232.745 402.219 231.926L402.219 216.191C406.772 214.615 409.768 210.257 409.609 205.441 409.609 198.722 401.708 183.699 399.531 183.699 397.354 183.699 389.453 198.776 389.453 205.441 389.294 210.257 392.29 214.615 396.844 216.191L396.844 228.795C391.757 226.358 386.313 224.747 380.719 224.025L380.719 197.459C386.954 196.115 391.657 189.799 391.657 180.998 391.657 170.973 381.297 149.406 378.031 149.406 374.766 149.406 364.406 170.973 364.406 180.998 364.406 189.799 369.109 196.061 375.344 197.459L375.344 223.541C374.43 223.541 373.516 223.474 372.656 223.474 360.052 223.474 348.388 227.223 340.729 233.727 340.594 233.821 328.783 242.998 305.106 244.839L294.719 244.812 294.719 259.594 410.281 259.594 410.281 238.376Z"/></g></svg>