<svg width="129" height="129" xmlns="http://www.w3.org/2000/svg" xmlns:xlink="http://www.w3.org/1999/xlink" xml:space="preserve" overflow="hidden"><defs><clipPath id="clip0"><rect x="575" y="0" width="129" height="129"/></clipPath></defs><g clip-path="url(#clip0)" transform="translate(-575 0)"><path d="M620.688 45.6069C620.688 47.8926 618.834 49.7456 616.549 49.7456 614.263 49.7456 612.41 47.8926 612.41 45.6069 612.41 43.3225 616.549 37.3294 616.549 37.3294 616.549 37.3294 620.688 43.3225 620.688 45.6069Z" stroke="#FFFFFF" stroke-width="1.34375" fill="#4EA4CE"/><path d="M629.503 43.2419C629.503 44.8745 628.179 46.1981 626.546 46.1981 624.914 46.1981 623.59 44.8745 623.59 43.2419 623.59 41.6159 626.546 37.3294 626.546 37.3294 626.546 37.3294 629.503 41.6562 629.503 43.2419Z" stroke="#FFFFFF" stroke-width="1.34375" fill="#4EA4CE"/><path d="M609.4 43.2419C609.51 44.8709 608.279 46.2806 606.65 46.3906 605.021 46.5006 603.611 45.2692 603.501 43.6403 603.492 43.5077 603.492 43.3745 603.501 43.2419 603.501 41.6159 606.444 37.3294 606.444 37.3294 606.444 37.3294 609.4 41.6562 609.4 43.2419Z" stroke="#FFFFFF" stroke-width="1.34375" fill="#4EA4CE"/><path d="M636.597 29.3475C636.609 26.2602 634.116 23.748 631.029 23.7361 630.716 23.7349 630.403 23.7601 630.094 23.8112L630.094 23.7306C630.09 19.8196 626.916 16.6522 623.005 16.6558 622.254 16.6566 621.508 16.7767 620.795 17.0119 618.555 12.8401 613.358 11.2737 609.187 13.5132 606.458 14.9777 604.732 17.7994 604.67 20.8953 600.828 20.1252 597.089 22.6154 596.319 26.4575 595.549 30.2995 598.039 34.0385 601.881 34.8086 602.22 34.8766 602.564 34.9196 602.91 34.9375L631.276 34.9375C634.252 34.7807 636.587 32.3274 636.597 29.3475Z" stroke="#FFFFFF" stroke-width="1.34375" fill="#4EA4CE"/><path d="M631.881 86C640.455 81.5512 649.998 79.2982 659.656 79.4425L660.221 79.4425C652.937 73.5906 643.936 70.2867 634.595 70.0362 628.382 70.0152 622.239 71.3592 616.602 73.9734 622.476 76.8766 627.68 80.9726 631.881 86Z" stroke="#FFFFFF" stroke-width="1.34375" fill="#4EA4CE"/><path d="M591.81 100.781C613.23 99.0881 624.396 91.0794 625.135 90.5419 626.171 89.6596 627.256 88.8385 628.387 88.0828 611.819 68.9209 581.719 71.2188 581.719 71.2188L581.719 101.198Z" stroke="#FFFFFF" stroke-width="1.34375" fill="#4EA4CE"/><path d="M692.524 94.6134C691.486 93.6428 690.381 92.7448 689.219 91.9259L689.219 76.1906C693.772 74.6145 696.768 70.2565 696.609 65.4406 696.609 58.7219 688.708 43.6987 686.531 43.6987 684.354 43.6987 676.453 58.7756 676.453 65.4406 676.294 70.2565 679.29 74.6145 683.844 76.1906L683.844 88.795C678.757 86.3577 673.313 84.7474 667.719 84.0247L667.719 57.4587C673.954 56.115 678.657 49.7994 678.657 40.9978 678.657 30.9734 668.297 9.40625 665.031 9.40625 661.766 9.40625 651.406 30.9734 651.406 40.9978 651.406 49.7994 656.109 56.0613 662.344 57.4587L662.344 83.5409C661.43 83.5409 660.516 83.4737 659.656 83.4737 647.052 83.4737 635.388 87.2228 627.729 93.7266 627.594 93.8206 615.783 102.998 592.106 104.839L581.719 104.812 581.719 119.594 697.281 119.594 697.281 98.3759Z" stroke="#FFFFFF" stroke-width="1.34375" fill="#4EA4CE"/></g></svg>