<svg width="129" height="129" xmlns="http://www.w3.org/2000/svg" xmlns:xlink="http://www.w3.org/1999/xlink" xml:space="preserve" overflow="hidden"><defs><clipPath id="clip0"><rect x="575" y="280" width="129" height="129"/></clipPath></defs><g clip-path="url(#clip0)" transform="translate(-575 -280)"><path d="M620.688 325.607C620.688 327.893 618.834 329.746 616.549 329.746 614.263 329.746 612.41 327.893 612.41 325.607 612.41 323.323 616.549 317.329 616.549 317.329 616.549 317.329 620.688 323.323 620.688 325.607Z" stroke="#FFFFFF" stroke-width="1.34375" fill="#3551DB"/><path d="M629.503 323.242C629.503 324.875 628.179 326.198 626.546 326.198 624.914 326.198 623.59 324.875 623.59 323.242 623.59 321.616 626.546 317.329 626.546 317.329 626.546 317.329 629.503 321.656 629.503 323.242Z" stroke="#FFFFFF" stroke-width="1.34375" fill="#3551DB"/><path d="M609.4 323.242C609.51 324.871 608.279 326.281 606.65 326.391 605.021 326.501 603.611 325.269 603.501 323.64 603.492 323.508 603.492 323.375 603.501 323.242 603.501 321.616 606.444 317.329 606.444 317.329 606.444 317.329 609.4 321.656 609.4 323.242Z" stroke="#FFFFFF" stroke-width="1.34375" fill="#3551DB"/><path d="M636.597 309.348C636.609 306.26 634.116 303.748 631.029 303.736 630.716 303.735 630.403 303.76 630.094 303.811L630.094 303.731C630.09 299.82 626.916 296.652 623.005 296.656 622.254 296.657 621.508 296.777 620.795 297.012 618.555 292.84 613.358 291.274 609.187 293.513 606.458 294.978 604.732 297.799 604.67 300.895 600.828 300.125 597.089 302.615 596.319 306.457 595.549 310.3 598.039 314.039 601.881 314.809 602.22 314.877 602.564 314.92 602.91 314.938L631.276 314.938C634.252 314.781 636.587 312.327 636.597 309.348Z" stroke="#FFFFFF" stroke-width="1.34375" fill="#3551DB"/><path d="M631.881 366C640.455 361.551 649.998 359.298 659.656 359.443L660.221 359.443C652.937 353.591 643.936 350.287 634.595 350.036 628.382 350.015 622.239 351.359 616.602 353.973 622.476 356.877 627.68 360.973 631.881 366Z" stroke="#FFFFFF" stroke-width="1.34375" fill="#3551DB"/><path d="M591.81 380.781C613.23 379.088 624.396 371.079 625.135 370.542 626.171 369.66 627.256 368.839 628.387 368.083 611.819 348.921 581.719 351.219 581.719 351.219L581.719 381.198Z" stroke="#FFFFFF" stroke-width="1.34375" fill="#3551DB"/><path d="M692.524 374.613C691.486 373.643 690.381 372.745 689.219 371.926L689.219 356.191C693.772 354.615 696.768 350.257 696.609 345.441 696.609 338.722 688.708 323.699 686.531 323.699 684.354 323.699 676.453 338.776 676.453 345.441 676.294 350.257 679.29 354.615 683.844 356.191L683.844 368.795C678.757 366.358 673.313 364.747 667.719 364.025L667.719 337.459C673.954 336.115 678.657 329.799 678.657 320.998 678.657 310.973 668.297 289.406 665.031 289.406 661.766 289.406 651.406 310.973 651.406 320.998 651.406 329.799 656.109 336.061 662.344 337.459L662.344 363.541C661.43 363.541 660.516 363.474 659.656 363.474 647.052 363.474 635.388 367.223 627.729 373.727 627.594 373.821 615.783 382.998 592.106 384.839L581.719 384.812 581.719 399.594 697.281 399.594 697.281 378.376Z" stroke="#FFFFFF" stroke-width="1.34375" fill="#3551DB"/></g></svg>