<svg width="129" height="129" xmlns="http://www.w3.org/2000/svg" xmlns:xlink="http://www.w3.org/1999/xlink" xml:space="preserve" overflow="hidden"><defs><clipPath id="clip0"><rect x="863" y="0" width="129" height="129"/></clipPath></defs><g clip-path="url(#clip0)" transform="translate(-863 0)"><path d="M908.688 45.6069C908.688 47.8926 906.834 49.7456 904.549 49.7456 902.263 49.7456 900.41 47.8926 900.41 45.6069 900.41 43.3225 904.549 37.3294 904.549 37.3294 904.549 37.3294 908.688 43.3225 908.688 45.6069Z" stroke="#FFFFFF" stroke-width="1.34375" fill="#9ACBE3"/><path d="M917.503 43.2419C917.503 44.8745 916.179 46.1981 914.546 46.1981 912.914 46.1981 911.59 44.8745 911.59 43.2419 911.59 41.6159 914.546 37.3294 914.546 37.3294 914.546 37.3294 917.503 41.6562 917.503 43.2419Z" stroke="#FFFFFF" stroke-width="1.34375" fill="#9ACBE3"/><path d="M897.4 43.2419C897.51 44.8709 896.279 46.2806 894.65 46.3906 893.021 46.5006 891.611 45.2692 891.501 43.6403 891.492 43.5077 891.492 43.3745 891.501 43.2419 891.501 41.6159 894.444 37.3294 894.444 37.3294 894.444 37.3294 897.4 41.6562 897.4 43.2419Z" stroke="#FFFFFF" stroke-width="1.34375" fill="#9ACBE3"/><path d="M924.597 29.3475C924.609 26.2602 922.116 23.748 919.029 23.7361 918.716 23.7349 918.403 23.7601 918.094 23.8112L918.094 23.7306C918.09 19.8196 914.916 16.6522 911.005 16.6558 910.254 16.6566 909.508 16.7767 908.795 17.0119 906.555 12.8401 901.358 11.2737 897.187 13.5132 894.458 14.9777 892.732 17.7994 892.67 20.8953 888.828 20.1252 885.089 22.6154 884.319 26.4575 883.549 30.2995 886.039 34.0385 889.881 34.8086 890.22 34.8766 890.564 34.9196 890.91 34.9375L919.276 34.9375C922.252 34.7807 924.587 32.3274 924.597 29.3475Z" stroke="#FFFFFF" stroke-width="1.34375" fill="#9ACBE3"/><path d="M919.881 86C928.455 81.5512 937.998 79.2982 947.656 79.4425L948.221 79.4425C940.937 73.5906 931.936 70.2867 922.595 70.0362 916.382 70.0152 910.239 71.3592 904.602 73.9734 910.476 76.8766 915.68 80.9726 919.881 86Z" stroke="#FFFFFF" stroke-width="1.34375" fill="#9ACBE3"/><path d="M879.81 100.781C901.23 99.0881 912.396 91.0794 913.135 90.5419 914.171 89.6596 915.256 88.8385 916.387 88.0828 899.819 68.9209 869.719 71.2188 869.719 71.2188L869.719 101.198Z" stroke="#FFFFFF" stroke-width="1.34375" fill="#9ACBE3"/><path d="M980.524 94.6134C979.486 93.6428 978.381 92.7448 977.219 91.9259L977.219 76.1906C981.772 74.6145 984.768 70.2565 984.609 65.4406 984.609 58.7219 976.708 43.6987 974.531 43.6987 972.354 43.6987 964.453 58.7756 964.453 65.4406 964.294 70.2565 967.29 74.6145 971.844 76.1906L971.844 88.795C966.757 86.3577 961.313 84.7474 955.719 84.0247L955.719 57.4587C961.954 56.115 966.657 49.7994 966.657 40.9978 966.657 30.9734 956.297 9.40625 953.031 9.40625 949.766 9.40625 939.406 30.9734 939.406 40.9978 939.406 49.7994 944.109 56.0613 950.344 57.4587L950.344 83.5409C949.43 83.5409 948.516 83.4737 947.656 83.4737 935.052 83.4737 923.388 87.2228 915.729 93.7266 915.594 93.8206 903.783 102.998 880.106 104.839L869.719 104.812 869.719 119.594 985.281 119.594 985.281 98.3759Z" stroke="#FFFFFF" stroke-width="1.34375" fill="#9ACBE3"/></g></svg>