<svg xmlns="http://www.w3.org/2000/svg" xmlns:xlink="http://www.w3.org/1999/xlink" width="129" height="129" overflow="hidden" xml:space="preserve"><defs><clipPath id="clip0"><rect width="129" height="129" x="1007" y="0"/></clipPath></defs><g clip-path="url(#clip0)" transform="translate(-1007 0)"><path fill="#CCE5F1" stroke="#FFF" stroke-width="1.344" d="M1052.69 45.6069C1052.69 47.8926 1050.83 49.7456 1048.55 49.7456 1046.26 49.7456 1044.41 47.8926 1044.41 45.6069 1044.41 43.3225 1048.55 37.3294 1048.55 37.3294 1048.55 37.3294 1052.69 43.3225 1052.69 45.6069Z"/><path fill="#CCE5F1" stroke="#FFF" stroke-width="1.344" d="M1061.5 43.2419C1061.5 44.8745 1060.18 46.1981 1058.55 46.1981 1056.91 46.1981 1055.59 44.8745 1055.59 43.2419 1055.59 41.6159 1058.55 37.3294 1058.55 37.3294 1058.55 37.3294 1061.5 41.6562 1061.5 43.2419Z"/><path fill="#CCE5F1" stroke="#FFF" stroke-width="1.344" d="M1041.4 43.2419C1041.51 44.8709 1040.28 46.2806 1038.65 46.3906 1037.02 46.5006 1035.61 45.2692 1035.5 43.6403 1035.49 43.5077 1035.49 43.3745 1035.5 43.2419 1035.5 41.6159 1038.44 37.3294 1038.44 37.3294 1038.44 37.3294 1041.4 41.6562 1041.4 43.2419Z"/><path fill="#CCE5F1" stroke="#FFF" stroke-width="1.344" d="M1068.6 29.3475C1068.61 26.2602 1066.12 23.748 1063.03 23.7361 1062.72 23.7349 1062.4 23.7601 1062.09 23.8112L1062.09 23.7306C1062.09 19.8196 1058.92 16.6522 1055.01 16.6558 1054.25 16.6566 1053.51 16.7767 1052.8 17.0119 1050.56 12.8401 1045.36 11.2737 1041.19 13.5132 1038.46 14.9777 1036.73 17.7994 1036.67 20.8953 1032.83 20.1252 1029.09 22.6154 1028.32 26.4575 1027.55 30.2995 1030.04 34.0385 1033.88 34.8086 1034.22 34.8766 1034.56 34.9196 1034.91 34.9375L1063.28 34.9375C1066.25 34.7807 1068.59 32.3274 1068.6 29.3475Z"/><path fill="#CCE5F1" stroke="#FFF" stroke-width="1.344" d="M1063.88 86C1072.45 81.5512 1082 79.2982 1091.66 79.4425L1092.22 79.4425C1084.94 73.5906 1075.94 70.2867 1066.6 70.0362 1060.38 70.0152 1054.24 71.3592 1048.6 73.9734 1054.48 76.8766 1059.68 80.9726 1063.88 86Z"/><path fill="#CCE5F1" stroke="#FFF" stroke-width="1.344" d="M1023.81 100.781C1045.23 99.0881 1056.4 91.0794 1057.14 90.5419 1058.17 89.6596 1059.26 88.8385 1060.39 88.0828 1043.82 68.9209 1013.72 71.2188 1013.72 71.2188L1013.72 101.198Z"/><path fill="#CCE5F1" stroke="#FFF" stroke-width="1.344" d="M1124.52 94.6134C1123.49 93.6428 1122.38 92.7448 1121.22 91.9259L1121.22 76.1906C1125.77 74.6145 1128.77 70.2565 1128.61 65.4406 1128.61 58.7219 1120.71 43.6987 1118.53 43.6987 1116.35 43.6987 1108.45 58.7756 1108.45 65.4406 1108.29 70.2565 1111.29 74.6145 1115.84 76.1906L1115.84 88.795C1110.76 86.3577 1105.31 84.7474 1099.72 84.0247L1099.72 57.4587C1105.95 56.115 1110.66 49.7994 1110.66 40.9978 1110.66 30.9734 1100.3 9.40625 1097.03 9.40625 1093.77 9.40625 1083.41 30.9734 1083.41 40.9978 1083.41 49.7994 1088.11 56.0613 1094.34 57.4587L1094.34 83.5409C1093.43 83.5409 1092.52 83.4737 1091.66 83.4737 1079.05 83.4737 1067.39 87.2228 1059.73 93.7266 1059.59 93.8206 1047.78 102.998 1024.11 104.839L1013.72 104.812 1013.72 119.594 1129.28 119.594 1129.28 98.3759Z"/></g></svg>