<svg width="129" height="128" xmlns="http://www.w3.org/2000/svg" xmlns:xlink="http://www.w3.org/1999/xlink" xml:space="preserve" overflow="hidden"><defs><clipPath id="clip0"><rect x="863" y="549" width="129" height="128"/></clipPath></defs><g clip-path="url(#clip0)" transform="translate(-863 -549)"><path d="M45.3333 45.2533C45.3333 47.5213 43.4947 49.36 41.2267 49.36 38.9587 49.36 37.12 47.5213 37.12 45.2533 37.12 42.9867 41.2267 37.04 41.2267 37.04 41.2267 37.04 45.3333 42.9867 45.3333 45.2533Z" stroke="#FFFFFF" stroke-width="1.33333" fill="#93D1FF" transform="matrix(1.00781 0 0 1 863 549)"/><path d="M54.08 42.9067C54.08 44.5267 52.7667 45.84 51.1467 45.84 49.5267 45.84 48.2133 44.5267 48.2133 42.9067 48.2133 41.2933 51.1467 37.04 51.1467 37.04 51.1467 37.04 54.08 41.3333 54.08 42.9067Z" stroke="#FFFFFF" stroke-width="1.33333" fill="#93D1FF" transform="matrix(1.00781 0 0 1 863 549)"/><path d="M34.1333 42.9067C34.2425 44.5231 33.0207 45.9219 31.4043 46.0309 29.788 46.1401 28.3892 44.9183 28.28 43.302 28.2711 43.1704 28.2711 43.0383 28.28 42.9067 28.28 41.2933 31.2 37.04 31.2 37.04 31.2 37.04 34.1333 41.3333 34.1333 42.9067Z" stroke="#FFFFFF" stroke-width="1.33333" fill="#93D1FF" transform="matrix(1.00781 0 0 1 863 549)"/><path d="M61.12 29.12C61.1317 26.0567 58.658 23.5639 55.5947 23.5521 55.2837 23.5509 54.9733 23.5759 54.6667 23.6267L54.6667 23.5467C54.6629 19.666 51.514 16.5231 47.6333 16.5267 46.8881 16.5275 46.1477 16.6467 45.44 16.88 43.2179 12.7406 38.0609 11.1863 33.9216 13.4084 31.2145 14.8616 29.5015 17.6615 29.44 20.7333 25.6277 19.9692 21.9179 22.4401 21.1537 26.2524 20.3896 30.0647 22.8605 33.7747 26.6728 34.5388 27.0095 34.6063 27.3505 34.6489 27.6933 34.6667L55.84 34.6667C58.7927 34.5111 61.11 32.0768 61.12 29.12Z" stroke="#FFFFFF" stroke-width="1.33333" fill="#93D1FF" transform="matrix(1.00781 0 0 1 863 549)"/><path d="M56.44 85.3333C64.9473 80.9191 74.4167 78.6835 84 78.8267L84.56 78.8267C77.3324 73.0201 68.4012 69.7419 59.1333 69.4933 52.9679 69.4724 46.8732 70.806 41.28 73.4 47.1079 76.2807 52.2712 80.3449 56.44 85.3333Z" stroke="#FFFFFF" stroke-width="1.33333" fill="#93D1FF" transform="matrix(1.00781 0 0 1 863 549)"/><path d="M16.68 100C37.9333 98.32 49.0133 90.3733 49.7467 89.84 50.7739 88.9645 51.8512 88.1499 52.9733 87.4 36.5333 68.3867 6.66667 70.6667 6.66667 70.6667L6.66667 100.413Z" stroke="#FFFFFF" stroke-width="1.33333" fill="#93D1FF" transform="matrix(1.00781 0 0 1 863 549)"/><path d="M116.613 93.88C115.583 92.9169 114.487 92.0259 113.333 91.2133L113.333 75.6C117.851 74.0361 120.824 69.7119 120.667 64.9333 120.667 58.2667 112.827 43.36 110.667 43.36 108.507 43.36 100.667 58.32 100.667 64.9333 100.509 69.7119 103.482 74.0361 108 75.6L108 88.1067C102.952 85.6883 97.5511 84.0904 92 83.3733L92 57.0133C98.1867 55.68 102.853 49.4133 102.853 40.68 102.853 30.7333 92.5733 9.33333 89.3333 9.33333 86.0933 9.33333 75.8133 30.7333 75.8133 40.68 75.8133 49.4133 80.48 55.6267 86.6667 57.0133L86.6667 82.8933C85.76 82.8933 84.8533 82.8267 84 82.8267 71.4933 82.8267 59.92 86.5467 52.32 93 52.1867 93.0933 40.4667 102.2 16.9733 104.027L6.66667 104 6.66667 118.667 121.333 118.667 121.333 97.6133Z" stroke="#FFFFFF" stroke-width="1.33333" fill="#93D1FF" transform="matrix(1.00781 0 0 1 863 549)"/></g></svg>