<svg width="129" height="129" xmlns="http://www.w3.org/2000/svg" xmlns:xlink="http://www.w3.org/1999/xlink" xml:space="preserve" overflow="hidden"><defs><clipPath id="clip0"><rect x="288" y="0" width="129" height="129"/></clipPath></defs><g clip-path="url(#clip0)" transform="translate(-288 0)"><path d="M333.688 45.6069C333.688 47.8926 331.834 49.7456 329.549 49.7456 327.263 49.7456 325.41 47.8926 325.41 45.6069 325.41 43.3225 329.549 37.3294 329.549 37.3294 329.549 37.3294 333.688 43.3225 333.688 45.6069Z" stroke="#FFFFFF" stroke-width="1.34375" fill="#0372A9"/><path d="M342.503 43.2419C342.503 44.8745 341.179 46.1981 339.546 46.1981 337.914 46.1981 336.59 44.8745 336.59 43.2419 336.59 41.6159 339.546 37.3294 339.546 37.3294 339.546 37.3294 342.503 41.6562 342.503 43.2419Z" stroke="#FFFFFF" stroke-width="1.34375" fill="#0372A9"/><path d="M322.4 43.2419C322.51 44.8709 321.279 46.2806 319.65 46.3906 318.021 46.5006 316.611 45.2692 316.501 43.6403 316.492 43.5077 316.492 43.3745 316.501 43.2419 316.501 41.6159 319.444 37.3294 319.444 37.3294 319.444 37.3294 322.4 41.6562 322.4 43.2419Z" stroke="#FFFFFF" stroke-width="1.34375" fill="#0372A9"/><path d="M349.598 29.3475C349.609 26.2602 347.116 23.748 344.029 23.7361 343.716 23.7349 343.403 23.7601 343.094 23.8112L343.094 23.7306C343.09 19.8196 339.916 16.6522 336.005 16.6558 335.254 16.6566 334.508 16.7767 333.795 17.0119 331.556 12.8401 326.358 11.2737 322.187 13.5132 319.458 14.9777 317.732 17.7994 317.67 20.8953 313.828 20.1252 310.089 22.6154 309.319 26.4575 308.549 30.2995 311.039 34.0385 314.881 34.8086 315.22 34.8766 315.564 34.9196 315.91 34.9375L344.276 34.9375C347.252 34.7807 349.587 32.3274 349.598 29.3475Z" stroke="#FFFFFF" stroke-width="1.34375" fill="#0372A9"/><path d="M344.881 86C353.455 81.5512 362.998 79.2982 372.656 79.4425L373.221 79.4425C365.937 73.5906 356.936 70.2867 347.595 70.0362 341.382 70.0152 335.239 71.3592 329.603 73.9734 335.476 76.8766 340.68 80.9726 344.881 86Z" stroke="#FFFFFF" stroke-width="1.34375" fill="#0372A9"/><path d="M304.81 100.781C326.23 99.0881 337.396 91.0794 338.135 90.5419 339.171 89.6596 340.256 88.8385 341.387 88.0828 324.819 68.9209 294.719 71.2188 294.719 71.2188L294.719 101.198Z" stroke="#FFFFFF" stroke-width="1.34375" fill="#0372A9"/><path d="M405.524 94.6134C404.486 93.6428 403.381 92.7448 402.219 91.9259L402.219 76.1906C406.772 74.6145 409.768 70.2565 409.609 65.4406 409.609 58.7219 401.708 43.6987 399.531 43.6987 397.354 43.6987 389.453 58.7756 389.453 65.4406 389.294 70.2565 392.29 74.6145 396.844 76.1906L396.844 88.795C391.757 86.3577 386.313 84.7474 380.719 84.0247L380.719 57.4587C386.954 56.115 391.657 49.7994 391.657 40.9978 391.657 30.9734 381.297 9.40625 378.031 9.40625 374.766 9.40625 364.406 30.9734 364.406 40.9978 364.406 49.7994 369.109 56.0613 375.344 57.4587L375.344 83.5409C374.43 83.5409 373.516 83.4737 372.656 83.4737 360.052 83.4737 348.388 87.2228 340.729 93.7266 340.594 93.8206 328.783 102.998 305.106 104.839L294.719 104.812 294.719 119.594 410.281 119.594 410.281 98.3759Z" stroke="#FFFFFF" stroke-width="1.34375" fill="#0372A9"/></g></svg>