<svg width="129" height="129" xmlns="http://www.w3.org/2000/svg" xmlns:xlink="http://www.w3.org/1999/xlink" xml:space="preserve" overflow="hidden"><defs><clipPath id="clip0"><rect x="144" y="420" width="129" height="129"/></clipPath></defs><g clip-path="url(#clip0)" transform="translate(-144 -420)"><path d="M189.688 465.607C189.688 467.893 187.834 469.746 185.549 469.746 183.263 469.746 181.41 467.893 181.41 465.607 181.41 463.323 185.549 457.329 185.549 457.329 185.549 457.329 189.688 463.323 189.688 465.607Z" stroke="#FFFFFF" stroke-width="1.34375" fill="#016062"/><path d="M198.503 463.242C198.503 464.875 197.179 466.198 195.546 466.198 193.914 466.198 192.59 464.875 192.59 463.242 192.59 461.616 195.546 457.329 195.546 457.329 195.546 457.329 198.503 461.656 198.503 463.242Z" stroke="#FFFFFF" stroke-width="1.34375" fill="#016062"/><path d="M178.4 463.242C178.51 464.871 177.279 466.281 175.65 466.391 174.021 466.501 172.611 465.269 172.501 463.64 172.492 463.508 172.492 463.375 172.501 463.242 172.501 461.616 175.444 457.329 175.444 457.329 175.444 457.329 178.4 461.656 178.4 463.242Z" stroke="#FFFFFF" stroke-width="1.34375" fill="#016062"/><path d="M205.598 449.348C205.609 446.26 203.116 443.748 200.029 443.736 199.716 443.735 199.403 443.76 199.094 443.811L199.094 443.731C199.09 439.82 195.916 436.652 192.005 436.656 191.254 436.657 190.508 436.777 189.795 437.012 187.556 432.84 182.358 431.274 178.187 433.513 175.458 434.978 173.732 437.799 173.67 440.895 169.828 440.125 166.089 442.615 165.319 446.457 164.549 450.3 167.039 454.039 170.881 454.809 171.22 454.877 171.564 454.92 171.91 454.938L200.276 454.938C203.252 454.781 205.587 452.327 205.598 449.348Z" stroke="#FFFFFF" stroke-width="1.34375" fill="#016062"/><path d="M200.881 506C209.455 501.551 218.998 499.298 228.656 499.443L229.221 499.443C221.937 493.591 212.936 490.287 203.595 490.036 197.382 490.015 191.239 491.359 185.602 493.973 191.476 496.877 196.68 500.973 200.881 506Z" stroke="#FFFFFF" stroke-width="1.34375" fill="#016062"/><path d="M160.81 520.781C182.23 519.088 193.396 511.079 194.135 510.542 195.171 509.66 196.256 508.839 197.387 508.083 180.819 488.921 150.719 491.219 150.719 491.219L150.719 521.198Z" stroke="#FFFFFF" stroke-width="1.34375" fill="#016062"/><path d="M261.524 514.613C260.486 513.643 259.381 512.745 258.219 511.926L258.219 496.191C262.772 494.615 265.768 490.257 265.609 485.441 265.609 478.722 257.708 463.699 255.531 463.699 253.354 463.699 245.453 478.776 245.453 485.441 245.294 490.257 248.29 494.615 252.844 496.191L252.844 508.795C247.757 506.358 242.313 504.747 236.719 504.025L236.719 477.459C242.954 476.115 247.657 469.799 247.657 460.998 247.657 450.973 237.297 429.406 234.031 429.406 230.766 429.406 220.406 450.973 220.406 460.998 220.406 469.799 225.109 476.061 231.344 477.459L231.344 503.541C230.43 503.541 229.516 503.474 228.656 503.474 216.052 503.474 204.388 507.223 196.729 513.727 196.594 513.821 184.783 522.998 161.106 524.839L150.719 524.812 150.719 539.594 266.281 539.594 266.281 518.376Z" stroke="#FFFFFF" stroke-width="1.34375" fill="#016062"/></g></svg>