<svg width="129" height="129" xmlns="http://www.w3.org/2000/svg" xmlns:xlink="http://www.w3.org/1999/xlink" xml:space="preserve" overflow="hidden"><defs><clipPath id="clip0"><rect x="1007" y="280" width="129" height="129"/></clipPath></defs><g clip-path="url(#clip0)" transform="translate(-1007 -280)"><path d="M1052.69 325.607C1052.69 327.893 1050.83 329.746 1048.55 329.746 1046.26 329.746 1044.41 327.893 1044.41 325.607 1044.41 323.323 1048.55 317.329 1048.55 317.329 1048.55 317.329 1052.69 323.323 1052.69 325.607Z" stroke="#FFFFFF" stroke-width="1.34375" fill="#B3BDF1"/><path d="M1061.5 323.242C1061.5 324.875 1060.18 326.198 1058.55 326.198 1056.91 326.198 1055.59 324.875 1055.59 323.242 1055.59 321.616 1058.55 317.329 1058.55 317.329 1058.55 317.329 1061.5 321.656 1061.5 323.242Z" stroke="#FFFFFF" stroke-width="1.34375" fill="#B3BDF1"/><path d="M1041.4 323.242C1041.51 324.871 1040.28 326.281 1038.65 326.391 1037.02 326.501 1035.61 325.269 1035.5 323.64 1035.49 323.508 1035.49 323.375 1035.5 323.242 1035.5 321.616 1038.44 317.329 1038.44 317.329 1038.44 317.329 1041.4 321.656 1041.4 323.242Z" stroke="#FFFFFF" stroke-width="1.34375" fill="#B3BDF1"/><path d="M1068.6 309.348C1068.61 306.26 1066.12 303.748 1063.03 303.736 1062.72 303.735 1062.4 303.76 1062.09 303.811L1062.09 303.731C1062.09 299.82 1058.92 296.652 1055.01 296.656 1054.25 296.657 1053.51 296.777 1052.8 297.012 1050.56 292.84 1045.36 291.274 1041.19 293.513 1038.46 294.978 1036.73 297.799 1036.67 300.895 1032.83 300.125 1029.09 302.615 1028.32 306.457 1027.55 310.3 1030.04 314.039 1033.88 314.809 1034.22 314.877 1034.56 314.92 1034.91 314.938L1063.28 314.938C1066.25 314.781 1068.59 312.327 1068.6 309.348Z" stroke="#FFFFFF" stroke-width="1.34375" fill="#B3BDF1"/><path d="M1063.88 366C1072.45 361.551 1082 359.298 1091.66 359.443L1092.22 359.443C1084.94 353.591 1075.94 350.287 1066.6 350.036 1060.38 350.015 1054.24 351.359 1048.6 353.973 1054.48 356.877 1059.68 360.973 1063.88 366Z" stroke="#FFFFFF" stroke-width="1.34375" fill="#B3BDF1"/><path d="M1023.81 380.781C1045.23 379.088 1056.4 371.079 1057.14 370.542 1058.17 369.66 1059.26 368.839 1060.39 368.083 1043.82 348.921 1013.72 351.219 1013.72 351.219L1013.72 381.198Z" stroke="#FFFFFF" stroke-width="1.34375" fill="#B3BDF1"/><path d="M1124.52 374.613C1123.49 373.643 1122.38 372.745 1121.22 371.926L1121.22 356.191C1125.77 354.615 1128.77 350.257 1128.61 345.441 1128.61 338.722 1120.71 323.699 1118.53 323.699 1116.35 323.699 1108.45 338.776 1108.45 345.441 1108.29 350.257 1111.29 354.615 1115.84 356.191L1115.84 368.795C1110.76 366.358 1105.31 364.747 1099.72 364.025L1099.72 337.459C1105.95 336.115 1110.66 329.799 1110.66 320.998 1110.66 310.973 1100.3 289.406 1097.03 289.406 1093.77 289.406 1083.41 310.973 1083.41 320.998 1083.41 329.799 1088.11 336.061 1094.34 337.459L1094.34 363.541C1093.43 363.541 1092.52 363.474 1091.66 363.474 1079.05 363.474 1067.39 367.223 1059.73 373.727 1059.59 373.821 1047.78 382.998 1024.11 384.839L1013.72 384.812 1013.72 399.594 1129.28 399.594 1129.28 378.376Z" stroke="#FFFFFF" stroke-width="1.34375" fill="#B3BDF1"/></g></svg>