<svg width="129" height="129" xmlns="http://www.w3.org/2000/svg" xmlns:xlink="http://www.w3.org/1999/xlink" xml:space="preserve" overflow="hidden"><defs><clipPath id="clip0"><rect x="575" y="140" width="129" height="129"/></clipPath></defs><g clip-path="url(#clip0)" transform="translate(-575 -140)"><path d="M620.688 185.607C620.688 187.893 618.834 189.746 616.549 189.746 614.263 189.746 612.41 187.893 612.41 185.607 612.41 183.323 616.549 177.329 616.549 177.329 616.549 177.329 620.688 183.323 620.688 185.607Z" stroke="#FFFFFF" stroke-width="1.34375" fill="#6ECDFC"/><path d="M629.503 183.242C629.503 184.875 628.179 186.198 626.546 186.198 624.914 186.198 623.59 184.875 623.59 183.242 623.59 181.616 626.546 177.329 626.546 177.329 626.546 177.329 629.503 181.656 629.503 183.242Z" stroke="#FFFFFF" stroke-width="1.34375" fill="#6ECDFC"/><path d="M609.4 183.242C609.51 184.871 608.279 186.281 606.65 186.391 605.021 186.501 603.611 185.269 603.501 183.64 603.492 183.508 603.492 183.375 603.501 183.242 603.501 181.616 606.444 177.329 606.444 177.329 606.444 177.329 609.4 181.656 609.4 183.242Z" stroke="#FFFFFF" stroke-width="1.34375" fill="#6ECDFC"/><path d="M636.597 169.348C636.609 166.26 634.116 163.748 631.029 163.736 630.716 163.735 630.403 163.76 630.094 163.811L630.094 163.731C630.09 159.82 626.916 156.652 623.005 156.656 622.254 156.657 621.508 156.777 620.795 157.012 618.555 152.84 613.358 151.274 609.187 153.513 606.458 154.978 604.732 157.799 604.67 160.895 600.828 160.125 597.089 162.615 596.319 166.457 595.549 170.3 598.039 174.039 601.881 174.809 602.22 174.877 602.564 174.92 602.91 174.938L631.276 174.938C634.252 174.781 636.587 172.327 636.597 169.348Z" stroke="#FFFFFF" stroke-width="1.34375" fill="#6ECDFC"/><path d="M631.881 226C640.455 221.551 649.998 219.298 659.656 219.443L660.221 219.443C652.937 213.591 643.936 210.287 634.595 210.036 628.382 210.015 622.239 211.359 616.602 213.973 622.476 216.877 627.68 220.973 631.881 226Z" stroke="#FFFFFF" stroke-width="1.34375" fill="#6ECDFC"/><path d="M591.81 240.781C613.23 239.088 624.396 231.079 625.135 230.542 626.171 229.66 627.256 228.839 628.387 228.083 611.819 208.921 581.719 211.219 581.719 211.219L581.719 241.198Z" stroke="#FFFFFF" stroke-width="1.34375" fill="#6ECDFC"/><path d="M692.524 234.613C691.486 233.643 690.381 232.745 689.219 231.926L689.219 216.191C693.772 214.615 696.768 210.257 696.609 205.441 696.609 198.722 688.708 183.699 686.531 183.699 684.354 183.699 676.453 198.776 676.453 205.441 676.294 210.257 679.29 214.615 683.844 216.191L683.844 228.795C678.757 226.358 673.313 224.747 667.719 224.025L667.719 197.459C673.954 196.115 678.657 189.799 678.657 180.998 678.657 170.973 668.297 149.406 665.031 149.406 661.766 149.406 651.406 170.973 651.406 180.998 651.406 189.799 656.109 196.061 662.344 197.459L662.344 223.541C661.43 223.541 660.516 223.474 659.656 223.474 647.052 223.474 635.388 227.223 627.729 233.727 627.594 233.821 615.783 242.998 592.106 244.839L581.719 244.812 581.719 259.594 697.281 259.594 697.281 238.376Z" stroke="#FFFFFF" stroke-width="1.34375" fill="#6ECDFC"/></g></svg>