<svg width="129" height="129" xmlns="http://www.w3.org/2000/svg" xmlns:xlink="http://www.w3.org/1999/xlink" xml:space="preserve" overflow="hidden"><defs><clipPath id="clip0"><rect x="288" y="280" width="129" height="129"/></clipPath></defs><g clip-path="url(#clip0)" transform="translate(-288 -280)"><path d="M333.688 325.607C333.688 327.893 331.834 329.746 329.549 329.746 327.263 329.746 325.41 327.893 325.41 325.607 325.41 323.323 329.549 317.329 329.549 317.329 329.549 317.329 333.688 323.323 333.688 325.607Z" stroke="#FFFFFF" stroke-width="1.34375" fill="#021EA8"/><path d="M342.503 323.242C342.503 324.875 341.179 326.198 339.546 326.198 337.914 326.198 336.59 324.875 336.59 323.242 336.59 321.616 339.546 317.329 339.546 317.329 339.546 317.329 342.503 321.656 342.503 323.242Z" stroke="#FFFFFF" stroke-width="1.34375" fill="#021EA8"/><path d="M322.4 323.242C322.51 324.871 321.279 326.281 319.65 326.391 318.021 326.501 316.611 325.269 316.501 323.64 316.492 323.508 316.492 323.375 316.501 323.242 316.501 321.616 319.444 317.329 319.444 317.329 319.444 317.329 322.4 321.656 322.4 323.242Z" stroke="#FFFFFF" stroke-width="1.34375" fill="#021EA8"/><path d="M349.598 309.348C349.609 306.26 347.116 303.748 344.029 303.736 343.716 303.735 343.403 303.76 343.094 303.811L343.094 303.731C343.09 299.82 339.916 296.652 336.005 296.656 335.254 296.657 334.508 296.777 333.795 297.012 331.556 292.84 326.358 291.274 322.187 293.513 319.458 294.978 317.732 297.799 317.67 300.895 313.828 300.125 310.089 302.615 309.319 306.457 308.549 310.3 311.039 314.039 314.881 314.809 315.22 314.877 315.564 314.92 315.91 314.938L344.276 314.938C347.252 314.781 349.587 312.327 349.598 309.348Z" stroke="#FFFFFF" stroke-width="1.34375" fill="#021EA8"/><path d="M344.881 366C353.455 361.551 362.998 359.298 372.656 359.443L373.221 359.443C365.937 353.591 356.936 350.287 347.595 350.036 341.382 350.015 335.239 351.359 329.603 353.973 335.476 356.877 340.68 360.973 344.881 366Z" stroke="#FFFFFF" stroke-width="1.34375" fill="#021EA8"/><path d="M304.81 380.781C326.23 379.088 337.396 371.079 338.135 370.542 339.171 369.66 340.256 368.839 341.387 368.083 324.819 348.921 294.719 351.219 294.719 351.219L294.719 381.198Z" stroke="#FFFFFF" stroke-width="1.34375" fill="#021EA8"/><path d="M405.524 374.613C404.486 373.643 403.381 372.745 402.219 371.926L402.219 356.191C406.772 354.615 409.768 350.257 409.609 345.441 409.609 338.722 401.708 323.699 399.531 323.699 397.354 323.699 389.453 338.776 389.453 345.441 389.294 350.257 392.29 354.615 396.844 356.191L396.844 368.795C391.757 366.358 386.313 364.747 380.719 364.025L380.719 337.459C386.954 336.115 391.657 329.799 391.657 320.998 391.657 310.973 381.297 289.406 378.031 289.406 374.766 289.406 364.406 310.973 364.406 320.998 364.406 329.799 369.109 336.061 375.344 337.459L375.344 363.541C374.43 363.541 373.516 363.474 372.656 363.474 360.052 363.474 348.388 367.223 340.729 373.727 340.594 373.821 328.783 382.998 305.106 384.839L294.719 384.812 294.719 399.594 410.281 399.594 410.281 378.376Z" stroke="#FFFFFF" stroke-width="1.34375" fill="#021EA8"/></g></svg>