<svg width="129" height="129" xmlns="http://www.w3.org/2000/svg" xmlns:xlink="http://www.w3.org/1999/xlink" xml:space="preserve" overflow="hidden"><defs><clipPath id="clip0"><rect x="863" y="280" width="129" height="129"/></clipPath></defs><g clip-path="url(#clip0)" transform="translate(-863 -280)"><path d="M908.688 325.607C908.688 327.893 906.834 329.746 904.549 329.746 902.263 329.746 900.41 327.893 900.41 325.607 900.41 323.323 904.549 317.329 904.549 317.329 904.549 317.329 908.688 323.323 908.688 325.607Z" stroke="#FFFFFF" stroke-width="1.34375" fill="#9AA8ED"/><path d="M917.503 323.242C917.503 324.875 916.179 326.198 914.546 326.198 912.914 326.198 911.59 324.875 911.59 323.242 911.59 321.616 914.546 317.329 914.546 317.329 914.546 317.329 917.503 321.656 917.503 323.242Z" stroke="#FFFFFF" stroke-width="1.34375" fill="#9AA8ED"/><path d="M897.4 323.242C897.51 324.871 896.279 326.281 894.65 326.391 893.021 326.501 891.611 325.269 891.501 323.64 891.492 323.508 891.492 323.375 891.501 323.242 891.501 321.616 894.444 317.329 894.444 317.329 894.444 317.329 897.4 321.656 897.4 323.242Z" stroke="#FFFFFF" stroke-width="1.34375" fill="#9AA8ED"/><path d="M924.597 309.348C924.609 306.26 922.116 303.748 919.029 303.736 918.716 303.735 918.403 303.76 918.094 303.811L918.094 303.731C918.09 299.82 914.916 296.652 911.005 296.656 910.254 296.657 909.508 296.777 908.795 297.012 906.555 292.84 901.358 291.274 897.187 293.513 894.458 294.978 892.732 297.799 892.67 300.895 888.828 300.125 885.089 302.615 884.319 306.457 883.549 310.3 886.039 314.039 889.881 314.809 890.22 314.877 890.564 314.92 890.91 314.938L919.276 314.938C922.252 314.781 924.587 312.327 924.597 309.348Z" stroke="#FFFFFF" stroke-width="1.34375" fill="#9AA8ED"/><path d="M919.881 366C928.455 361.551 937.998 359.298 947.656 359.443L948.221 359.443C940.937 353.591 931.936 350.287 922.595 350.036 916.382 350.015 910.239 351.359 904.602 353.973 910.476 356.877 915.68 360.973 919.881 366Z" stroke="#FFFFFF" stroke-width="1.34375" fill="#9AA8ED"/><path d="M879.81 380.781C901.23 379.088 912.396 371.079 913.135 370.542 914.171 369.66 915.256 368.839 916.387 368.083 899.819 348.921 869.719 351.219 869.719 351.219L869.719 381.198Z" stroke="#FFFFFF" stroke-width="1.34375" fill="#9AA8ED"/><path d="M980.524 374.613C979.486 373.643 978.381 372.745 977.219 371.926L977.219 356.191C981.772 354.615 984.768 350.257 984.609 345.441 984.609 338.722 976.708 323.699 974.531 323.699 972.354 323.699 964.453 338.776 964.453 345.441 964.294 350.257 967.29 354.615 971.844 356.191L971.844 368.795C966.757 366.358 961.313 364.747 955.719 364.025L955.719 337.459C961.954 336.115 966.657 329.799 966.657 320.998 966.657 310.973 956.297 289.406 953.031 289.406 949.766 289.406 939.406 310.973 939.406 320.998 939.406 329.799 944.109 336.061 950.344 337.459L950.344 363.541C949.43 363.541 948.516 363.474 947.656 363.474 935.052 363.474 923.388 367.223 915.729 373.727 915.594 373.821 903.783 382.998 880.106 384.839L869.719 384.812 869.719 399.594 985.281 399.594 985.281 378.376Z" stroke="#FFFFFF" stroke-width="1.34375" fill="#9AA8ED"/></g></svg>