<?xml version="1.0" encoding="UTF-8"?><svg xmlns="http://www.w3.org/2000/svg" viewBox="0 0 128 128"><defs><style>.cls-1{fill:#f8b133;}.cls-2{fill:#ececec;}.cls-3{fill:#1d1d1b;}</style></defs><g id="cuadrobase"><g><rect class="cls-2" x="2" y="2" width="124" height="124" rx="22" ry="22"/><path class="cls-1" d="M104,4c11.03,0,20,8.97,20,20V104c0,11.03-8.97,20-20,20H24c-11.03,0-20-8.97-20-20V24C4,12.97,12.97,4,24,4H104m0-4H24C10.75,0,0,10.75,0,24V104c0,13.25,10.75,24,24,24H104c13.25,0,24-10.75,24-24V24c0-13.25-10.75-24-24-24h0Z"/></g></g><g id="figura"><path class="cls-3" d="M98.18,49.74c-3.65,0-7.3,.97-10.43,2.75l-5.46-7.46,2.25-5.22c3.6-.74,4.83-1.92,6.15-3.51,1.24-1.5,1.13-2.6,.82-3.27-.29-.62-.99-1.36-2.65-1.36h-.03c-.95,0-4.05,.18-7.64,.37-2.69,.15-5.65,.31-8.07,.42-1.25,.05-2.3,.71-2.68,1.7-.34,.9-.07,1.9,.73,2.67,1,.96,3.8,2.13,6.13,2.78l-1.09,2.39h-25.77l1.91-7.45-11.17-4.7,14.11-1.45-.24-5.53-17.34,1.67-5.4,6.48,13.24,5.72-4.89,14.87c-2.66-1.24-5.65-1.91-8.6-1.91-12.11,0-21.97,10.79-21.97,24.06s9.85,24.06,21.97,24.06,21.97-10.79,21.97-24.06c0-3.5-.73-6.96-2.08-10.11l12.34,15.38c-.15,1.08,.06,2.17,.61,3.08,.52,.86,1.29,1.51,2.22,1.88l.73,3.12h-.7v4.77l7.59-.41-.31-4.48h-1.58l-.71-3.69c.42-.38,.76-.78,1.02-1.22l4.12-.82c2.99,9.82,11.41,16.55,20.9,16.55,12.11,0,21.97-10.79,21.97-24.06s-9.85-24.06-21.97-24.06ZM31.5,69.62c-1.71,.37-2.98,1.95-2.98,3.83,0,2.16,1.65,3.91,3.69,3.91,1.79,0,3.24-1.38,3.54-3.24,3.01-2.67,5.87-5.62,8.06-10.82,2.14,2.93,3.34,6.64,3.34,10.5,0,9.25-6.76,16.77-15.07,16.77s-15.07-7.52-15.07-16.77,6.76-16.77,15.07-16.77c2.2,0,4.52,.61,6.52,1.68-1.4,4.53-2.88,7.1-7.1,10.91Zm65.69,7.56c.37,.12,.75,.18,1.12,.18,2.03,0,3.69-1.76,3.69-3.91,0-1.8-1.14-3.34-2.68-3.78l-7.7-11.27c1.89-.86,4.28-1.37,6.57-1.37,8.31,0,15.07,7.52,15.07,16.77s-6.76,16.77-15.07,16.77c-6.19,0-11.88-4.39-14.03-10.63l13.03-2.75Zm-4.07-5.84l-9.91,1.78c.13-3.8,.75-7.64,3.48-10.98l6.43,9.2Zm-16.88,3.18l-2.84,.32,6.54-22.01,2.64,3.48c-4.22,4.73-6.36,10.61-6.36,17.5,0,.22,0,.46,.02,.71Zm-2.21-25.6l-5.41,18.09h-5.14c-9.64-11.96-13.22-16.4-14.56-18.06l25.12-.04Z"/></g></svg>