<svg xmlns="http://www.w3.org/2000/svg" xmlns:xlink="http://www.w3.org/1999/xlink" width="442" height="442" overflow="hidden" xml:space="preserve"><defs><clipPath id="clip0"><rect width="442" height="442" x="873" y="500"/></clipPath><clipPath id="clip1"><rect width="164" height="165" x="1013" y="609"/></clipPath><clipPath id="clip2"><rect width="164" height="165" x="1013" y="609"/></clipPath><clipPath id="clip3"><rect width="164" height="165" x="1013" y="609"/></clipPath></defs><g clip-path="url(#clip0)" transform="translate(-873 -500)"><path fill="#4A0" stroke="#FFF" stroke-width="4.604" d="M1094 895.958C1094 895.958 1209.1 733.892 1209.1 661.146 1209.1 597.608 1157.54 546.042 1094 546.042 1030.46 546.042 978.896 597.608 978.896 661.146 978.896 734.352 1094 895.958 1094 895.958Z"/><g clip-path="url(#clip1)"><g clip-path="url(#clip2)"><g clip-path="url(#clip3)"><path fill="#FFF" stroke="#FFF" stroke-width="1.708" d="M1095 755.917C1095 755.917 1137.71 695.783 1137.71 668.792 1137.71 645.217 1118.57 626.083 1095 626.083 1071.43 626.083 1052.29 645.217 1052.29 668.792 1052.29 695.954 1095 755.917 1095 755.917Z"/></g></g></g></g></svg>