<svg xmlns="http://www.w3.org/2000/svg" xmlns:xlink="http://www.w3.org/1999/xlink" width="441" height="441" overflow="hidden" xml:space="preserve"><defs><clipPath id="clip0"><rect width="441" height="441" x="-12" y="1860"/></clipPath><clipPath id="clip1"><rect width="165" height="164" x="127" y="1969"/></clipPath><clipPath id="clip2"><rect width="165" height="164" x="127" y="1969"/></clipPath><clipPath id="clip3"><rect width="165" height="164" x="127" y="1969"/></clipPath></defs><g clip-path="url(#clip0)" transform="translate(12 -1860)"><path fill="#CF0" stroke="#FFF" stroke-width="4.594" d="M208.5 2255.06C208.5 2255.06 323.344 2093.36 323.344 2020.78 323.344 1957.39 271.894 1905.94 208.5 1905.94 145.106 1905.94 93.6562 1957.39 93.6562 2020.78 93.6562 2093.82 208.5 2255.06 208.5 2255.06Z"/><g clip-path="url(#clip1)"><g clip-path="url(#clip2)"><g clip-path="url(#clip3)"><path fill="#FFF" stroke="#FFF" stroke-width="1.708" d="M210 2115.92C210 2115.92 252.708 2055.78 252.708 2028.79 252.708 2005.22 233.575 1986.08 210 1986.08 186.425 1986.08 167.292 2005.22 167.292 2028.79 167.292 2055.95 210 2115.92 210 2115.92Z"/></g></g></g></g></svg>