<svg xmlns="http://www.w3.org/2000/svg" xmlns:xlink="http://www.w3.org/1999/xlink" width="442" height="441" overflow="hidden" xml:space="preserve"><defs><clipPath id="clip0"><rect width="442" height="441" x="904" y="28"/></clipPath><clipPath id="clip1"><rect width="165" height="165" x="1043" y="137"/></clipPath><clipPath id="clip2"><rect width="165" height="165" x="1043" y="137"/></clipPath><clipPath id="clip3"><rect width="165" height="165" x="1043" y="137"/></clipPath></defs><g clip-path="url(#clip0)" transform="translate(-904 -28)"><path fill="#338000" stroke="#FFF" stroke-width="4.594" d="M220.5 45.9375C220.5 45.9375 105.656 207.638 105.656 280.219 105.656 343.613 157.106 395.063 220.5 395.063 283.894 395.063 335.344 343.613 335.344 280.219 335.344 207.178 220.5 45.9375 220.5 45.9375Z" transform="matrix(-1.00227 1.22742e-16 -1.22465e-16 -1 1346 469)"/><g clip-path="url(#clip1)"><g clip-path="url(#clip2)"><g clip-path="url(#clip3)"><path fill="#FFF" stroke="#FFF" stroke-width="1.708" d="M1126 283.917C1126 283.917 1168.71 223.783 1168.71 196.792 1168.71 173.217 1149.57 154.083 1126 154.083 1102.42 154.083 1083.29 173.217 1083.29 196.792 1083.29 223.954 1126 283.917 1126 283.917Z"/></g></g></g></g></svg>