<svg width="441" height="441" xmlns="http://www.w3.org/2000/svg" xmlns:xlink="http://www.w3.org/1999/xlink" xml:space="preserve" overflow="hidden"><defs><clipPath id="clip0"><rect x="3043" y="1860" width="441" height="441"/></clipPath><clipPath id="clip1"><rect x="3183" y="1969" width="165" height="164"/></clipPath><clipPath id="clip2"><rect x="3183" y="1969" width="165" height="164"/></clipPath><clipPath id="clip3"><rect x="3183" y="1969" width="165" height="164"/></clipPath></defs><g clip-path="url(#clip0)" transform="translate(-3043 -1860)"><path d="M3263.5 2255.06C3263.5 2255.06 3378.34 2093.36 3378.34 2020.78 3378.34 1957.39 3326.89 1905.94 3263.5 1905.94 3200.11 1905.94 3148.66 1957.39 3148.66 2020.78 3148.66 2093.82 3263.5 2255.06 3263.5 2255.06Z" stroke="#FFFFFF" stroke-width="4.59375" fill="#CCCC00"/><g clip-path="url(#clip1)"><g clip-path="url(#clip2)"><g clip-path="url(#clip3)"><path d="M3265 2115.92C3265 2115.92 3307.71 2055.78 3307.71 2028.79 3307.71 2005.22 3288.57 1986.08 3265 1986.08 3241.43 1986.08 3222.29 2005.22 3222.29 2028.79 3222.29 2055.95 3265 2115.92 3265 2115.92Z" stroke="#FFFFFF" stroke-width="1.70823" fill="#FFFFFF"/></g></g></g></g></svg>