<svg width="442" height="441" xmlns="http://www.w3.org/2000/svg" xmlns:xlink="http://www.w3.org/1999/xlink" xml:space="preserve" overflow="hidden"><defs><clipPath id="clip0"><rect x="2606" y="1860" width="442" height="441"/></clipPath><clipPath id="clip1"><rect x="2745" y="1969" width="165" height="164"/></clipPath><clipPath id="clip2"><rect x="2745" y="1969" width="165" height="164"/></clipPath><clipPath id="clip3"><rect x="2745" y="1969" width="165" height="164"/></clipPath></defs><g clip-path="url(#clip0)" transform="translate(-2606 -1860)"><path d="M220.5 45.9375C220.5 45.9375 105.656 207.638 105.656 280.219 105.656 343.613 157.106 395.063 220.5 395.063 283.894 395.063 335.344 343.613 335.344 280.219 335.344 207.178 220.5 45.9375 220.5 45.9375Z" stroke="#FFFFFF" stroke-width="4.59375" fill="#DBE3DB" transform="matrix(-1.00227 1.22742e-16 -1.22465e-16 -1 3048 2301)"/><g clip-path="url(#clip1)"><g clip-path="url(#clip2)"><g clip-path="url(#clip3)"><path d="M2828 2115.92C2828 2115.92 2870.71 2055.78 2870.71 2028.79 2870.71 2005.22 2851.57 1986.08 2828 1986.08 2804.42 1986.08 2785.29 2005.22 2785.29 2028.79 2785.29 2055.95 2828 2115.92 2828 2115.92Z" stroke="#FFFFFF" stroke-width="1.70823" fill="#FFFFFF"/></g></g></g></g></svg>