<?xml version="1.0" encoding="UTF-8"?><svg xmlns="http://www.w3.org/2000/svg" viewBox="0 0 128 128"><defs><style>.cls-1{fill:#ffec00;}.cls-2{fill:#662482;}</style></defs><g id="cuadrobase"><g><rect class="cls-2" x="2" y="2" width="124" height="124" rx="22" ry="22"/><path class="cls-1" d="M104,4c11.03,0,20,8.97,20,20V104c0,11.03-8.97,20-20,20H24c-11.03,0-20-8.97-20-20V24C4,12.97,12.97,4,24,4H104m0-4H24C10.75,0,0,10.75,0,24V104C0,117.25,10.75,128,24,128H104c13.25,0,24-10.75,24-24V24c0-13.25-10.75-24-24-24h0Z"/></g></g><g id="figura"><path class="cls-1" d="M66.92,115.37l-14.83-25.68H22.43l14.83-25.68-14.83-25.68h29.66l14.83-25.68,14.83,25.68h29.66l-14.83,25.68,14.83,25.68h-29.66l-14.83,25.68Zm-4.62-25.68l4.62,8.01,4.62-8.01h-9.24Zm24.55-8.84h9.24l-4.62-8.01-4.62,8.01Zm-29.66,0h19.45l9.73-16.84-9.73-16.84h-19.45l-9.73,16.84,9.73,16.84Zm-19.45,0h9.24l-4.62-8.01-4.62,8.01Zm49.11-33.69l4.62,8.01,4.62-8.01h-9.24Zm-49.11,0l4.62,8.01,4.62-8.01h-9.24Zm24.55-8.84h9.24l-4.62-8.01-4.62,8.01Z"/></g></svg>