<?xml version="1.0" encoding="UTF-8"?><svg xmlns="http://www.w3.org/2000/svg" viewBox="0 0 128 128"><defs><style>.cls-1{fill:#eaa1c7;}.cls-2{fill:#e61b72;}.cls-3{fill:#662482;}</style></defs><g id="cuadrobase"><g><rect class="cls-1" x="2" y="2" width="124" height="124" rx="22" ry="22"/><path class="cls-3" d="M104,4c11.03,0,20,8.97,20,20V104c0,11.03-8.97,20-20,20H24c-11.03,0-20-8.97-20-20V24C4,12.97,12.97,4,24,4H104m0-4H24C10.75,0,0,10.75,0,24V104c0,13.25,10.75,24,24,24H104c13.25,0,24-10.75,24-24V24c0-13.25-10.75-24-24-24h0Z"/></g></g><g id="figura"><path class="cls-2" d="M60.05,55.06c2.63-2.16,5.61-2.39,9.03-.28,1.46,.87,2.98,1.17,4.15-.14,5.31-5.86,10.86-9.27,18.33-8.87,5.16,.28,9.65,1.71,13.54,4.48,1.72,1.22,3.48,2.17,5.24,2.95,1.1,.49,6.76-.14,7.09,1.14,.27,1.05,.4,2.18,.44,3.37,.03,.97-.51,1.86-1.33,2.15,0,0-.01,0-.02,0-1.25,.23-6.87,4.35-7.5,8.13-1.02,6.16-3.39,11.22-7.74,14.25-5.15,3.59-10.81,4.31-16.31,1.79-7.96-3.65-12.4-11.63-13.74-15.2-1.65-4.39-2-7.48-6.48-7.48-3.28,0-4.79,.58-5.49,3.9-1.71,8.12-4.84,14.26-11.57,17.89-8.1,4.37-14.84,3.18-21.65-2.17-3.79-2.97-6.33-8.24-7.67-15.81-.36-2.02-4.74-3.32-6.09-4.13-.55-.33-.89-.98-.91-1.68-.06-3.24,.21-5.91,1.98-5.94,1.51-.28,6.49-.98,8.09-2.07,8.22-6.45,16.64-7.44,25.77-4.39,2.83,.95,6.26,3.66,9.91,7.59,.96,1.02,1.93,1.22,2.92,.5h0Zm-22-4.27c-7.8,.14-14,6.9-13.85,15.08s6.6,14.71,14.4,14.56c7.8-.14,14-6.9,13.85-15.08-.15-8.19-6.6-14.71-14.4-14.56h0Zm52.89,.23c-7.53,.14-13.52,6.66-13.37,14.57,.15,7.91,6.37,14.2,13.9,14.06,7.53-.14,13.52-6.66,13.37-14.57-.15-7.91-6.37-14.2-13.9-14.06h0Z"/></g></svg>