<?xml version="1.0" encoding="UTF-8"?><svg xmlns="http://www.w3.org/2000/svg" viewBox="0 0 128 128"><defs><style>.cls-1{fill:#eaa1c7;}.cls-2{fill:#ffec00;}.cls-3{fill:#662482;}</style></defs><g id="cuadrobase"><g><rect class="cls-1" x="2" y="2" width="124" height="124" rx="22" ry="22"/><path class="cls-3" d="M104,4c11.03,0,20,8.97,20,20V104c0,11.03-8.97,20-20,20H24c-11.03,0-20-8.97-20-20V24C4,12.97,12.97,4,24,4H104m0-4H24C10.75,0,0,10.75,0,24V104C0,117.25,10.75,128,24,128H104c13.25,0,24-10.75,24-24V24c0-13.25-10.75-24-24-24h0Z"/></g></g><g id="figura"><g><path class="cls-2" d="M64.42,28.23c-10.38,0-18.8,8.14-18.8,18.18s8.42,18.18,18.8,18.18,18.8-8.14,18.8-18.18-8.42-18.18-18.8-18.18Zm.16,28.57c-5.8,0-10.51-4.59-10.51-10.25s4.71-10.25,10.51-10.25,10.51,4.59,10.51,10.25-4.71,10.25-10.51,10.25Z"/><path class="cls-2" d="M64,9.7c-26.45,0-47.89,19.53-47.89,39.63,0,15.95,30.15,48.62,42.61,62.77,2.87,3.26,7.69,3.26,10.57,0,12.46-14.15,42.61-46.81,42.61-62.77,0-20.11-21.44-39.63-47.89-39.63ZM21.59,46.49s43.52-49.66,84.81,0c0,0-37.39,49.12-84.81,0Z"/></g></g></svg>