<svg width="129" height="129" xmlns="http://www.w3.org/2000/svg" xmlns:xlink="http://www.w3.org/1999/xlink" xml:space="preserve" overflow="hidden"><defs><clipPath id="clip0"><rect x="269" y="137" width="129" height="129"/></clipPath></defs><g clip-path="url(#clip0)" transform="translate(-269 -137)"><path d="M342.914 178.656 336.464 178.656 333.508 174.961 333.508 163.875 346.946 163.875 346.946 155.812 336.464 155.812 332.164 150.438 321.414 150.438 317.114 155.812 306.633 155.812 306.633 163.875 320.071 163.875 320.071 174.961 317.114 178.656 290.508 178.656 290.508 200.156 342.914 200.156C349.59 200.164 355.001 205.574 355.008 212.25L355.008 214.938 376.508 214.938 376.508 212.25C376.487 193.705 361.459 178.677 342.914 178.656Z" stroke="#FFFFFF" stroke-width="1.34375" fill="#0EACFB"/><path d="M356.822 243.269C356.761 248.332 360.815 252.485 365.878 252.547 370.94 252.608 375.094 248.554 375.155 243.491 375.156 243.417 375.156 243.343 375.155 243.269 375.156 237.369 365.989 224.344 365.989 224.344 365.989 224.344 356.822 237.406 356.822 243.269Z" stroke="#FFFFFF" stroke-width="1.34375" fill="#0EACFB"/></g></svg>