<svg width="129" height="129" xmlns="http://www.w3.org/2000/svg" xmlns:xlink="http://www.w3.org/1999/xlink" xml:space="preserve" overflow="hidden"><defs><clipPath id="clip0"><rect x="538" y="0" width="129" height="129"/></clipPath></defs><g clip-path="url(#clip0)" transform="translate(-538 0)"><path d="M611.914 41.6562 605.464 41.6562 602.508 37.9609 602.508 26.875 615.946 26.875 615.946 18.8125 605.464 18.8125 601.164 13.4375 590.414 13.4375 586.114 18.8125 575.633 18.8125 575.633 26.875 589.071 26.875 589.071 37.9609 586.114 41.6562 559.508 41.6562 559.508 63.1562 611.914 63.1562C618.59 63.1636 624.001 68.5738 624.008 75.25L624.008 77.9375 645.508 77.9375 645.508 75.25C645.487 56.7053 630.459 41.6769 611.914 41.6562Z" stroke="#FFFFFF" stroke-width="1.34375" fill="#4EA4CE"/><path d="M625.822 106.269C625.761 111.332 629.815 115.485 634.878 115.547 639.94 115.608 644.094 111.554 644.155 106.491 644.156 106.417 644.156 106.343 644.155 106.269 644.156 100.369 634.989 87.3438 634.989 87.3438 634.989 87.3438 625.822 100.406 625.822 106.269Z" stroke="#FFFFFF" stroke-width="1.34375" fill="#4EA4CE"/></g></svg>