<svg width="129" height="129" xmlns="http://www.w3.org/2000/svg" xmlns:xlink="http://www.w3.org/1999/xlink" xml:space="preserve" overflow="hidden"><defs><clipPath id="clip0"><rect x="807" y="137" width="129" height="129"/></clipPath></defs><g clip-path="url(#clip0)" transform="translate(-807 -137)"><path d="M880.914 178.656 874.464 178.656 871.508 174.961 871.508 163.875 884.946 163.875 884.946 155.812 874.464 155.812 870.164 150.438 859.414 150.438 855.114 155.812 844.633 155.812 844.633 163.875 858.071 163.875 858.071 174.961 855.114 178.656 828.508 178.656 828.508 200.156 880.914 200.156C887.59 200.164 893.001 205.574 893.008 212.25L893.008 214.938 914.508 214.938 914.508 212.25C914.487 193.705 899.459 178.677 880.914 178.656Z" stroke="#FFFFFF" stroke-width="1.34375" fill="#9DDDFD"/><path d="M894.822 243.269C894.761 248.332 898.815 252.485 903.878 252.547 908.94 252.608 913.094 248.554 913.155 243.491 913.156 243.417 913.156 243.343 913.155 243.269 913.156 237.369 903.989 224.344 903.989 224.344 903.989 224.344 894.822 237.406 894.822 243.269Z" stroke="#FFFFFF" stroke-width="1.34375" fill="#9DDDFD"/></g></svg>