<svg width="129" height="129" xmlns="http://www.w3.org/2000/svg" xmlns:xlink="http://www.w3.org/1999/xlink" xml:space="preserve" overflow="hidden"><defs><clipPath id="clip0"><rect x="538" y="137" width="129" height="129"/></clipPath></defs><g clip-path="url(#clip0)" transform="translate(-538 -137)"><path d="M611.914 178.656 605.464 178.656 602.508 174.961 602.508 163.875 615.946 163.875 615.946 155.812 605.464 155.812 601.164 150.438 590.414 150.438 586.114 155.812 575.633 155.812 575.633 163.875 589.071 163.875 589.071 174.961 586.114 178.656 559.508 178.656 559.508 200.156 611.914 200.156C618.59 200.164 624.001 205.574 624.008 212.25L624.008 214.938 645.508 214.938 645.508 212.25C645.487 193.705 630.459 178.677 611.914 178.656Z" stroke="#FFFFFF" stroke-width="1.34375" fill="#6ECDFC"/><path d="M625.822 243.269C625.761 248.332 629.815 252.485 634.878 252.547 639.94 252.608 644.094 248.554 644.155 243.491 644.156 243.417 644.156 243.343 644.155 243.269 644.156 237.369 634.989 224.344 634.989 224.344 634.989 224.344 625.822 237.406 625.822 243.269Z" stroke="#FFFFFF" stroke-width="1.34375" fill="#6ECDFC"/></g></svg>