<svg width="128" height="128" xmlns="http://www.w3.org/2000/svg" xmlns:xlink="http://www.w3.org/1999/xlink" xml:space="preserve" overflow="hidden"><defs><clipPath id="clip0"><rect x="673" y="540" width="128" height="128"/></clipPath></defs><g clip-path="url(#clip0)" transform="translate(-673 -540)"><path d="M746.341 581.333 739.941 581.333 737.008 577.667 737.008 566.667 750.341 566.667 750.341 558.667 739.941 558.667 735.675 553.333 725.008 553.333 720.741 558.667 710.341 558.667 710.341 566.667 723.675 566.667 723.675 577.667 720.741 581.333 694.341 581.333 694.341 602.667 746.341 602.667C752.966 602.674 758.334 608.042 758.341 614.667L758.341 617.333 779.675 617.333 779.675 614.667C779.654 596.266 764.742 581.354 746.341 581.333Z" stroke="#FFFFFF" stroke-width="1.33333" fill="#6DC0FF"/><path d="M760.141 645.445C760.081 650.469 764.103 654.59 769.127 654.651 774.15 654.712 778.271 650.689 778.332 645.666 778.333 645.592 778.333 645.519 778.332 645.445 778.333 639.591 769.237 626.667 769.237 626.667 769.237 626.667 760.141 639.628 760.141 645.445Z" stroke="#FFFFFF" stroke-width="1.33333" fill="#6DC0FF"/></g></svg>