<svg width="128" height="128" xmlns="http://www.w3.org/2000/svg" xmlns:xlink="http://www.w3.org/1999/xlink" xml:space="preserve" overflow="hidden"><defs><clipPath id="clip0"><rect x="942" y="266" width="128" height="128"/></clipPath></defs><g clip-path="url(#clip0)" transform="translate(-942 -266)"><path d="M1015.34 307.333 1008.94 307.333 1006.01 303.667 1006.01 292.667 1019.34 292.667 1019.34 284.667 1008.94 284.667 1004.67 279.333 994.008 279.333 989.741 284.667 979.341 284.667 979.341 292.667 992.675 292.667 992.675 303.667 989.741 307.333 963.341 307.333 963.341 328.667 1015.34 328.667C1021.97 328.674 1027.33 334.042 1027.34 340.667L1027.34 343.333 1048.67 343.333 1048.67 340.667C1048.65 322.266 1033.74 307.354 1015.34 307.333Z" stroke="#FFFFFF" stroke-width="1.33333" fill="#B3BDF1"/><path d="M1029.14 371.445C1029.08 376.469 1033.1 380.59 1038.13 380.651 1043.15 380.712 1047.27 376.689 1047.33 371.666 1047.33 371.592 1047.33 371.519 1047.33 371.445 1047.33 365.591 1038.24 352.667 1038.24 352.667 1038.24 352.667 1029.14 365.628 1029.14 371.445Z" stroke="#FFFFFF" stroke-width="1.33333" fill="#B3BDF1"/></g></svg>