<svg width="128" height="128" xmlns="http://www.w3.org/2000/svg" xmlns:xlink="http://www.w3.org/1999/xlink" xml:space="preserve" overflow="hidden"><defs><clipPath id="clip0"><rect x="673" y="403" width="128" height="128"/></clipPath></defs><g clip-path="url(#clip0)" transform="translate(-673 -403)"><path d="M746.341 444.333 739.941 444.333 737.008 440.667 737.008 429.667 750.341 429.667 750.341 421.667 739.941 421.667 735.675 416.333 725.008 416.333 720.741 421.667 710.341 421.667 710.341 429.667 723.675 429.667 723.675 440.667 720.741 444.333 694.341 444.333 694.341 465.667 746.341 465.667C752.966 465.674 758.334 471.042 758.341 477.667L758.341 480.333 779.675 480.333 779.675 477.667C779.654 459.266 764.742 444.354 746.341 444.333Z" stroke="#FFFFFF" stroke-width="1.33333" fill="#01D6DB"/><path d="M760.141 508.445C760.081 513.469 764.103 517.59 769.127 517.651 774.15 517.712 778.271 513.689 778.332 508.666 778.333 508.592 778.333 508.519 778.332 508.445 778.333 502.591 769.237 489.667 769.237 489.667 769.237 489.667 760.141 502.628 760.141 508.445Z" stroke="#FFFFFF" stroke-width="1.33333" fill="#01D6DB"/></g></svg>