<svg width="128" height="128" xmlns="http://www.w3.org/2000/svg" xmlns:xlink="http://www.w3.org/1999/xlink" xml:space="preserve" overflow="hidden"><defs><clipPath id="clip0"><rect x="404" y="540" width="128" height="128"/></clipPath></defs><g clip-path="url(#clip0)" transform="translate(-404 -540)"><path d="M477.341 581.333 470.941 581.333 468.008 577.667 468.008 566.667 481.341 566.667 481.341 558.667 470.941 558.667 466.675 553.333 456.008 553.333 451.741 558.667 441.341 558.667 441.341 566.667 454.675 566.667 454.675 577.667 451.741 581.333 425.341 581.333 425.341 602.667 477.341 602.667C483.966 602.674 489.334 608.042 489.341 614.667L489.341 617.333 510.675 617.333 510.675 614.667C510.654 596.266 495.742 581.354 477.341 581.333Z" stroke="#FFFFFF" stroke-width="1.33333" fill="#1D9EFF"/><path d="M491.141 645.445C491.081 650.469 495.103 654.59 500.127 654.651 505.15 654.712 509.271 650.689 509.332 645.666 509.333 645.592 509.333 645.519 509.332 645.445 509.333 639.591 500.237 626.667 500.237 626.667 500.237 626.667 491.141 639.628 491.141 645.445Z" stroke="#FFFFFF" stroke-width="1.33333" fill="#1D9EFF"/></g></svg>