<svg width="129" height="129" xmlns="http://www.w3.org/2000/svg" xmlns:xlink="http://www.w3.org/1999/xlink" xml:space="preserve" overflow="hidden"><defs><clipPath id="clip0"><rect x="0" y="137" width="129" height="129"/></clipPath></defs><g clip-path="url(#clip0)" transform="matrix(1 0 0 1 0 -137)"><path d="M73.9143 178.656 67.4643 178.656 64.5081 174.961 64.5081 163.875 77.9456 163.875 77.9456 155.812 67.4643 155.812 63.1643 150.438 52.4143 150.438 48.1143 155.812 37.6331 155.812 37.6331 163.875 51.0706 163.875 51.0706 174.961 48.1143 178.656 21.5081 178.656 21.5081 200.156 73.9143 200.156C80.5905 200.164 86.0007 205.574 86.0081 212.25L86.0081 214.938 107.508 214.938 107.508 212.25C107.487 193.705 92.459 178.677 73.9143 178.656Z" stroke="#FFFFFF" stroke-width="1.34375" fill="#024A6F"/><path d="M87.8221 243.269C87.7608 248.332 91.8151 252.485 96.8775 252.547 101.94 252.608 106.094 248.554 106.155 243.491 106.156 243.417 106.156 243.343 106.155 243.269 106.156 237.369 96.9892 224.344 96.9892 224.344 96.9892 224.344 87.8221 237.406 87.8221 243.269Z" stroke="#FFFFFF" stroke-width="1.34375" fill="#024A6F"/></g></svg>