<svg width="128" height="128" xmlns="http://www.w3.org/2000/svg" xmlns:xlink="http://www.w3.org/1999/xlink" xml:space="preserve" overflow="hidden"><defs><clipPath id="clip0"><rect x="404" y="266" width="128" height="128"/></clipPath></defs><g clip-path="url(#clip0)" transform="translate(-404 -266)"><path d="M477.341 307.333 470.941 307.333 468.008 303.667 468.008 292.667 481.341 292.667 481.341 284.667 470.941 284.667 466.675 279.333 456.008 279.333 451.741 284.667 441.341 284.667 441.341 292.667 454.675 292.667 454.675 303.667 451.741 307.333 425.341 307.333 425.341 328.667 477.341 328.667C483.966 328.674 489.334 334.042 489.341 340.667L489.341 343.333 510.675 343.333 510.675 340.667C510.654 322.266 495.742 307.354 477.341 307.333Z" stroke="#FFFFFF" stroke-width="1.33333" fill="#0222BD"/><path d="M491.141 371.445C491.081 376.469 495.103 380.59 500.127 380.651 505.15 380.712 509.271 376.689 509.332 371.666 509.333 371.592 509.333 371.519 509.332 371.445 509.333 365.591 500.237 352.667 500.237 352.667 500.237 352.667 491.141 365.628 491.141 371.445Z" stroke="#FFFFFF" stroke-width="1.33333" fill="#0222BD"/></g></svg>