<svg width="128" height="128" xmlns="http://www.w3.org/2000/svg" xmlns:xlink="http://www.w3.org/1999/xlink" xml:space="preserve" overflow="hidden"><defs><clipPath id="clip0"><rect x="135" y="540" width="128" height="128"/></clipPath></defs><g clip-path="url(#clip0)" transform="translate(-135 -540)"><path d="M208.341 581.333 201.941 581.333 199.008 577.667 199.008 566.667 212.341 566.667 212.341 558.667 201.941 558.667 197.675 553.333 187.008 553.333 182.741 558.667 172.341 558.667 172.341 566.667 185.675 566.667 185.675 577.667 182.741 581.333 156.341 581.333 156.341 602.667 208.341 602.667C214.966 602.674 220.334 608.042 220.341 614.667L220.341 617.333 241.675 617.333 241.675 614.667C241.654 596.266 226.742 581.354 208.341 581.333Z" stroke="#FFFFFF" stroke-width="1.33333" fill="#007FDE"/><path d="M222.141 645.445C222.081 650.469 226.103 654.59 231.127 654.651 236.15 654.712 240.271 650.689 240.332 645.666 240.333 645.592 240.333 645.519 240.332 645.445 240.333 639.591 231.237 626.667 231.237 626.667 231.237 626.667 222.141 639.628 222.141 645.445Z" stroke="#FFFFFF" stroke-width="1.33333" fill="#007FDE"/></g></svg>