<svg width="128" height="128" xmlns="http://www.w3.org/2000/svg" xmlns:xlink="http://www.w3.org/1999/xlink" xml:space="preserve" overflow="hidden"><defs><clipPath id="clip0"><rect x="673" y="266" width="128" height="128"/></clipPath></defs><g clip-path="url(#clip0)" transform="translate(-673 -266)"><path d="M746.341 307.333 739.941 307.333 737.008 303.667 737.008 292.667 750.341 292.667 750.341 284.667 739.941 284.667 735.675 279.333 725.008 279.333 720.741 284.667 710.341 284.667 710.341 292.667 723.675 292.667 723.675 303.667 720.741 307.333 694.341 307.333 694.341 328.667 746.341 328.667C752.966 328.674 758.334 334.042 758.341 340.667L758.341 343.333 779.675 343.333 779.675 340.667C779.654 322.266 764.742 307.354 746.341 307.333Z" stroke="#FFFFFF" stroke-width="1.33333" fill="#9AA8ED"/><path d="M760.141 371.445C760.081 376.469 764.103 380.59 769.127 380.651 774.15 380.712 778.271 376.689 778.332 371.666 778.333 371.592 778.333 371.519 778.332 371.445 778.333 365.591 769.237 352.667 769.237 352.667 769.237 352.667 760.141 365.628 760.141 371.445Z" stroke="#FFFFFF" stroke-width="1.33333" fill="#9AA8ED"/></g></svg>