<svg width="129" height="129" xmlns="http://www.w3.org/2000/svg" xmlns:xlink="http://www.w3.org/1999/xlink" xml:space="preserve" overflow="hidden"><defs><clipPath id="clip0"><rect x="0" y="0" width="129" height="129"/></clipPath></defs><g clip-path="url(#clip0)"><path d="M73.9143 41.6562 67.4643 41.6562 64.5081 37.9609 64.5081 26.875 77.9456 26.875 77.9456 18.8125 67.4643 18.8125 63.1643 13.4375 52.4143 13.4375 48.1143 18.8125 37.6331 18.8125 37.6331 26.875 51.0706 26.875 51.0706 37.9609 48.1143 41.6562 21.5081 41.6562 21.5081 63.1562 73.9143 63.1562C80.5905 63.1636 86.0007 68.5738 86.0081 75.25L86.0081 77.9375 107.508 77.9375 107.508 75.25C107.487 56.7053 92.459 41.6769 73.9143 41.6562Z" stroke="#FFFFFF" stroke-width="1.34375" fill="#01324A"/><path d="M87.8221 106.269C87.7608 111.332 91.8151 115.485 96.8775 115.547 101.94 115.608 106.094 111.554 106.155 106.491 106.156 106.417 106.156 106.343 106.155 106.269 106.156 100.369 96.9892 87.3438 96.9892 87.3438 96.9892 87.3438 87.8221 100.406 87.8221 106.269Z" stroke="#FFFFFF" stroke-width="1.34375" fill="#01324A"/></g></svg>