<svg width="129" height="129" xmlns="http://www.w3.org/2000/svg" xmlns:xlink="http://www.w3.org/1999/xlink" xml:space="preserve" overflow="hidden"><defs><clipPath id="clip0"><rect x="807" y="0" width="129" height="129"/></clipPath></defs><g clip-path="url(#clip0)" transform="translate(-807 0)"><path d="M880.914 41.6562 874.464 41.6562 871.508 37.9609 871.508 26.875 884.946 26.875 884.946 18.8125 874.464 18.8125 870.164 13.4375 859.414 13.4375 855.114 18.8125 844.633 18.8125 844.633 26.875 858.071 26.875 858.071 37.9609 855.114 41.6562 828.508 41.6562 828.508 63.1562 880.914 63.1562C887.59 63.1636 893.001 68.5738 893.008 75.25L893.008 77.9375 914.508 77.9375 914.508 75.25C914.487 56.7053 899.459 41.6769 880.914 41.6562Z" stroke="#FFFFFF" stroke-width="1.34375" fill="#9ACBE3"/><path d="M894.822 106.269C894.761 111.332 898.815 115.485 903.878 115.547 908.94 115.608 913.094 111.554 913.155 106.491 913.156 106.417 913.156 106.343 913.155 106.269 913.156 100.369 903.989 87.3438 903.989 87.3438 903.989 87.3438 894.822 100.406 894.822 106.269Z" stroke="#FFFFFF" stroke-width="1.34375" fill="#9ACBE3"/></g></svg>