<svg width="128" height="128" xmlns="http://www.w3.org/2000/svg" xmlns:xlink="http://www.w3.org/1999/xlink" xml:space="preserve" overflow="hidden"><defs><clipPath id="clip0"><rect x="135" y="266" width="128" height="128"/></clipPath></defs><g clip-path="url(#clip0)" transform="translate(-135 -266)"><path d="M208.341 307.333 201.941 307.333 199.008 303.667 199.008 292.667 212.341 292.667 212.341 284.667 201.941 284.667 197.675 279.333 187.008 279.333 182.741 284.667 172.341 284.667 172.341 292.667 185.675 292.667 185.675 303.667 182.741 307.333 156.341 307.333 156.341 328.667 208.341 328.667C214.966 328.674 220.334 334.042 220.341 340.667L220.341 343.333 241.675 343.333 241.675 340.667C241.654 322.266 226.742 307.354 208.341 307.333Z" stroke="#FFFFFF" stroke-width="1.33333" fill="#021A93"/><path d="M222.141 371.445C222.081 376.469 226.103 380.59 231.127 380.651 236.15 380.712 240.271 376.689 240.332 371.666 240.333 371.592 240.333 371.519 240.332 371.445 240.333 365.591 231.237 352.667 231.237 352.667 231.237 352.667 222.141 365.628 222.141 371.445Z" stroke="#FFFFFF" stroke-width="1.33333" fill="#021A93"/></g></svg>