<svg width="128" height="128" xmlns="http://www.w3.org/2000/svg" xmlns:xlink="http://www.w3.org/1999/xlink" xml:space="preserve" overflow="hidden"><defs><clipPath id="clip0"><rect x="404" y="403" width="128" height="128"/></clipPath></defs><g clip-path="url(#clip0)" transform="translate(-404 -403)"><path d="M477.341 444.333 470.941 444.333 468.008 440.667 468.008 429.667 481.341 429.667 481.341 421.667 470.941 421.667 466.675 416.333 456.008 416.333 451.741 421.667 441.341 421.667 441.341 429.667 454.675 429.667 454.675 440.667 451.741 444.333 425.341 444.333 425.341 465.667 477.341 465.667C483.966 465.674 489.334 471.042 489.341 477.667L489.341 480.333 510.675 480.333 510.675 477.667C510.654 459.266 495.742 444.354 477.341 444.333Z" stroke="#FFFFFF" stroke-width="1.33333" fill="#03A7AB"/><path d="M491.141 508.445C491.081 513.469 495.103 517.59 500.127 517.651 505.15 517.712 509.271 513.689 509.332 508.666 509.333 508.592 509.333 508.519 509.332 508.445 509.333 502.591 500.237 489.667 500.237 489.667 500.237 489.667 491.141 502.628 491.141 508.445Z" stroke="#FFFFFF" stroke-width="1.33333" fill="#03A7AB"/></g></svg>