<svg width="128" height="128" xmlns="http://www.w3.org/2000/svg" xmlns:xlink="http://www.w3.org/1999/xlink" xml:space="preserve" overflow="hidden"><defs><clipPath id="clip0"><rect x="135" y="403" width="128" height="128"/></clipPath></defs><g clip-path="url(#clip0)" transform="translate(-135 -403)"><path d="M208.341 444.333 201.941 444.333 199.008 440.667 199.008 429.667 212.341 429.667 212.341 421.667 201.941 421.667 197.675 416.333 187.008 416.333 182.741 421.667 172.341 421.667 172.341 429.667 185.675 429.667 185.675 440.667 182.741 444.333 156.341 444.333 156.341 465.667 208.341 465.667C214.966 465.674 220.334 471.042 220.341 477.667L220.341 480.333 241.675 480.333 241.675 477.667C241.654 459.266 226.742 444.354 208.341 444.333Z" stroke="#FFFFFF" stroke-width="1.33333" fill="#016062"/><path d="M222.141 508.445C222.081 513.469 226.103 517.59 231.127 517.651 236.15 517.712 240.271 513.689 240.332 508.666 240.333 508.592 240.333 508.519 240.332 508.445 240.333 502.591 231.237 489.667 231.237 489.667 231.237 489.667 222.141 502.628 222.141 508.445Z" stroke="#FFFFFF" stroke-width="1.33333" fill="#016062"/></g></svg>