<svg xmlns="http://www.w3.org/2000/svg" xmlns:xlink="http://www.w3.org/1999/xlink" width="128" height="129" overflow="hidden" xml:space="preserve"><defs><clipPath id="clip0"><rect width="128" height="129" x="404" y="137"/></clipPath></defs><g clip-path="url(#clip0)" transform="translate(-404 -137)"><path fill="#56C4FC" stroke="#FFF" stroke-width="1.333" d="M73.3413 41.3333 66.9413 41.3333 64.008 37.6667 64.008 26.6667 77.3413 26.6667 77.3413 18.6667 66.9413 18.6667 62.6747 13.3333 52.008 13.3333 47.7413 18.6667 37.3413 18.6667 37.3413 26.6667 50.6747 26.6667 50.6747 37.6667 47.7413 41.3333 21.3413 41.3333 21.3413 62.6667 73.3413 62.6667C79.9657 62.674 85.334 68.0423 85.3413 74.6667L85.3413 77.3333 106.675 77.3333 106.675 74.6667C106.654 56.2657 91.7423 41.3539 73.3413 41.3333Z" transform="matrix(1 0 0 1.00781 404 137)"/><path fill="#56C4FC" stroke="#FFF" stroke-width="1.333" d="M87.1413 105.445C87.0805 110.469 91.1033 114.59 96.1265 114.651 101.15 114.712 105.271 110.689 105.332 105.666 105.333 105.592 105.333 105.519 105.332 105.445 105.333 99.5907 96.2373 86.6667 96.2373 86.6667 96.2373 86.6667 87.1413 99.628 87.1413 105.445Z" transform="matrix(1 0 0 1.00781 404 137)"/></g></svg>