<svg width="129" height="129" xmlns="http://www.w3.org/2000/svg" xmlns:xlink="http://www.w3.org/1999/xlink" xml:space="preserve" overflow="hidden"><defs><clipPath id="clip0"><rect x="269" y="0" width="129" height="129"/></clipPath></defs><g clip-path="url(#clip0)" transform="translate(-269 0)"><path d="M342.914 41.6562 336.464 41.6562 333.508 37.9609 333.508 26.875 346.946 26.875 346.946 18.8125 336.464 18.8125 332.164 13.4375 321.414 13.4375 317.114 18.8125 306.633 18.8125 306.633 26.875 320.071 26.875 320.071 37.9609 317.114 41.6562 290.508 41.6562 290.508 63.1562 342.914 63.1562C349.59 63.1636 355.001 68.5738 355.008 75.25L355.008 77.9375 376.508 77.9375 376.508 75.25C376.487 56.7053 361.459 41.6769 342.914 41.6562Z" stroke="#FFFFFF" stroke-width="1.34375" fill="#0372A9"/><path d="M356.822 106.269C356.761 111.332 360.815 115.485 365.878 115.547 370.94 115.608 375.094 111.554 375.155 106.491 375.156 106.417 375.156 106.343 375.155 106.269 375.156 100.369 365.989 87.3438 365.989 87.3438 365.989 87.3438 356.822 100.406 356.822 106.269Z" stroke="#FFFFFF" stroke-width="1.34375" fill="#0372A9"/></g></svg>