<svg width="128" height="128" xmlns="http://www.w3.org/2000/svg" xmlns:xlink="http://www.w3.org/1999/xlink" xml:space="preserve" overflow="hidden"><defs><clipPath id="clip0"><rect x="942" y="403" width="128" height="128"/></clipPath></defs><g clip-path="url(#clip0)" transform="translate(-942 -403)"><path d="M1015.34 444.333 1008.94 444.333 1006.01 440.667 1006.01 429.667 1019.34 429.667 1019.34 421.667 1008.94 421.667 1004.67 416.333 994.008 416.333 989.741 421.667 979.341 421.667 979.341 429.667 992.675 429.667 992.675 440.667 989.741 444.333 963.341 444.333 963.341 465.667 1015.34 465.667C1021.97 465.674 1027.33 471.042 1027.34 477.667L1027.34 480.333 1048.67 480.333 1048.67 477.667C1048.65 459.266 1033.74 444.354 1015.34 444.333Z" stroke="#FFFFFF" stroke-width="1.33333" fill="#A8FCFE"/><path d="M1029.14 508.445C1029.08 513.469 1033.1 517.59 1038.13 517.651 1043.15 517.712 1047.27 513.689 1047.33 508.666 1047.33 508.592 1047.33 508.519 1047.33 508.445 1047.33 502.591 1038.24 489.667 1038.24 489.667 1038.24 489.667 1029.14 502.628 1029.14 508.445Z" stroke="#FFFFFF" stroke-width="1.33333" fill="#A8FCFE"/></g></svg>