<svg width="128" height="128" xmlns="http://www.w3.org/2000/svg" xmlns:xlink="http://www.w3.org/1999/xlink" xml:space="preserve" overflow="hidden"><defs><clipPath id="clip0"><rect x="942" y="540" width="128" height="128"/></clipPath></defs><g clip-path="url(#clip0)" transform="translate(-942 -540)"><path d="M1015.34 581.333 1008.94 581.333 1006.01 577.667 1006.01 566.667 1019.34 566.667 1019.34 558.667 1008.94 558.667 1004.67 553.333 994.008 553.333 989.741 558.667 979.341 558.667 979.341 566.667 992.675 566.667 992.675 577.667 989.741 581.333 963.341 581.333 963.341 602.667 1015.34 602.667C1021.97 602.674 1027.33 608.042 1027.34 614.667L1027.34 617.333 1048.67 617.333 1048.67 614.667C1048.65 596.266 1033.74 581.354 1015.34 581.333Z" stroke="#FFFFFF" stroke-width="1.33333" fill="#BDE3FF"/><path d="M1029.14 645.445C1029.08 650.469 1033.1 654.59 1038.13 654.651 1043.15 654.712 1047.27 650.689 1047.33 645.666 1047.33 645.592 1047.33 645.519 1047.33 645.445 1047.33 639.591 1038.24 626.667 1038.24 626.667 1038.24 626.667 1029.14 639.628 1029.14 645.445Z" stroke="#FFFFFF" stroke-width="1.33333" fill="#BDE3FF"/></g></svg>