<?xml version="1.0" encoding="UTF-8"?><svg xmlns="http://www.w3.org/2000/svg" viewBox="0 0 128 128"><defs><style>.cls-1{fill:#d9d9d9;}.cls-2{fill:#1d70b7;}.cls-3{fill:#35a8e0;}</style></defs><g id="cuadrobase"><g><rect class="cls-1" x="2" y="2" width="124" height="124" rx="22" ry="22"/><path class="cls-3" d="M104,4c11.03,0,20,8.97,20,20V104c0,11.03-8.97,20-20,20H24c-11.03,0-20-8.97-20-20V24C4,12.97,12.97,4,24,4H104m0-4H24C10.75,0,0,10.75,0,24V104c0,13.25,10.75,24,24,24H104c13.25,0,24-10.75,24-24V24c0-13.25-10.75-24-24-24h0Z"/></g></g><g id="figura"><g><path class="cls-2" d="M57.85,29.92c-.96-.79-2.52-1.87-4.56-2.51-1.87-.59-3.71-.68-5.46-.26-.09,.02-.13,.05-.14,.06-.03,.07-.05,.42,.29,1.01,.62,1.07,1.98,2.15,3.73,2.97,2.31,1.08,5.33,1.73,8.73,1.88-.08-.22-.23-.51-.48-.89-.5-.74-1.25-1.54-2.11-2.26Z"/><path class="cls-2" d="M82.5,28.22c.35-.6,.32-.94,.29-1.01-.01,0-.05-.03-.14-.06-.73-.18-1.47-.26-2.22-.26-1.06,0-2.14,.17-3.24,.52-2.03,.64-3.6,1.72-4.56,2.51-.86,.71-1.61,1.52-2.11,2.26-.25,.37-.4,.67-.48,.89,3.4-.15,6.42-.8,8.73-1.88,1.75-.82,3.11-1.9,3.73-2.97Z"/><path class="cls-2" d="M64.61,11.6c-22.34,0-40.46,18.11-40.46,40.46s29.92,63.2,40.46,63.2,40.46-40.86,40.46-63.2S86.96,11.6,64.61,11.6Zm-2.35,66.17h-19.23v-26.51h19.23v26.51Zm0-29.85h-21.39v-8.81h21.39v8.81Zm4.94-13.24c-.06-.11-.09-.23-.13-.34-.41,.58-1.07,.96-1.83,.96s-1.43-.38-1.83-.95c-.04,.12-.08,.23-.13,.34-.27,.54-.98,1.41-2.64,1.41-.07,0-.13,0-.2,0-4.61-.19-8.57-1.2-11.46-2.93-1.26-.75-2.28-1.62-3.03-2.57-.75-.94-1.19-1.94-1.28-2.89-.08-.82,.1-1.58,.52-2.2,.44-.64,1.11-1.09,1.93-1.29,2.85-.69,5.91-.34,8.85,1,2.35,1.07,4.53,2.75,5.99,4.6,.61,.77,1.03,1.51,1.29,2.21,.38-.71,1.11-1.2,1.98-1.2s1.6,.49,1.98,1.2c.26-.7,.69-1.44,1.29-2.21,1.46-1.85,3.65-3.53,5.99-4.6,2.94-1.34,6-1.69,8.85-1,.82,.2,1.49,.64,1.93,1.29,.42,.62,.6,1.38,.52,2.2-.09,.95-.54,1.95-1.28,2.89-.75,.95-1.77,1.81-3.03,2.57-2.89,1.73-6.85,2.75-11.46,2.93-.07,0-.14,0-.2,0-1.66,0-2.36-.88-2.64-1.41Zm19.84,43.09h-19.23v-26.51h19.23v26.51Zm2.16-29.85h-21.39v-8.81h21.39v8.81Z"/></g></g></svg>